<?xml version="1.0" encoding="UTF-8"?>
<svg width="250px" height="250px" viewBox="0 0 250 250" version="1.1" xmlns="http://www.w3.org/2000/svg" xmlns:xlink="http://www.w3.org/1999/xlink">
    <!-- Generator: Sketch 48.2 (47327) - http://www.bohemiancoding.com/sketch -->
    <title>Images/Categories/Advocacy</title>
    <desc>Created with Sketch.</desc>
    <defs></defs>
    <g id="Library-Symbols" stroke="none" stroke-width="1" fill="none" fill-rule="evenodd">
        <g id="Images/Categories/Advocacy">
            <circle id="Oval-2" fill="#FCE7DC" cx="125" cy="125" r="125"></circle>
            <path d="M198.828125,117.59375 C198.81894,120.127839 197.997481,122.592217 196.484375,124.625 C195.040337,126.686409 192.993505,128.250189 190.625,129.101562 L190.625,158.609375 C190.679025,162.976921 188.967868,167.181378 185.87931,170.269935 C182.790753,173.358493 178.586296,175.06965 174.21875,175.015625 L171.875,172.964844 C164.84375,166.988281 159.375,162.546875 155.46875,159.640625 C149.215186,154.99062 142.428893,151.103746 135.253906,148.0625 C127.159641,144.803339 118.584035,142.898969 109.871094,142.425781 C105.98518,143.60499 102.897243,146.570977 101.5625,150.40625 C100.052609,153.846977 100.392427,157.818884 102.464844,160.953125 C103.12572,161.830822 103.230245,163.007861 102.734375,163.988281 C101.539031,166.681937 101.539031,169.755563 102.734375,172.449219 C103.935063,175.167128 105.677628,177.611503 107.855469,179.632812 C109.493197,180.9526 110.238479,183.088468 109.777344,185.140625 C109.423332,187.189963 108.009555,188.898092 106.0625,189.628906 C102.09386,191.103615 97.8456674,191.672176 93.6289063,191.292969 C88.5898438,191.035156 84.6835938,190.054687 81.9101563,188.351562 C80.6702867,187.59487 79.7556743,186.404621 79.34375,185.011719 L78.125,181.425781 C76.0803107,175.392015 74.4514953,169.225226 73.25,162.96875 C72.1997836,156.035861 72.6270948,148.959269 74.5039063,142.203125 L63.4765625,142.203125 C60.1999266,142.262518 57.0445024,140.964722 54.7578125,138.617187 C52.4102777,136.330498 51.1124823,133.175073 51.171875,129.898437 L51.171875,105.289062 C51.1124823,102.012427 52.4102777,98.8570024 54.7578125,96.5703125 C57.0445024,94.2227777 60.1999266,92.9249823 63.4765625,92.984375 L104.492188,92.984375 C114.021878,93.0502537 123.485501,91.3988833 132.429688,88.109375 C140.184956,85.1614838 147.514597,81.1971727 154.226563,76.3203125 C158.671875,73.25 164.566406,68.5625 171.910156,62.2578125 L174.21875,60.171875 C178.586296,60.1178504 182.790753,61.8290073 185.87931,64.9175648 C188.967868,68.0061224 190.679025,72.2105791 190.625,76.578125 L190.625,106.0625 C192.996677,106.920125 195.04389,108.492385 196.484375,110.5625 C197.997481,112.595283 198.81894,115.059661 198.828125,117.59375 Z M174.21875,153.476562 L174.21875,81.7109375 C166.749647,88.15466 158.581406,93.7403533 149.867188,98.3632812 C139.553533,103.750551 128.349144,107.224626 116.796875,108.617187 L116.796875,126.570312 C128.349144,127.962874 139.553533,131.436949 149.867188,136.824219 C158.581406,141.447147 166.749647,147.03284 174.21875,153.476562 Z" id="Shape" fill="#ED5C14" fill-rule="nonzero"></path>
        </g>
    </g>
</svg>