<?xml version="1.0" encoding="UTF-8"?>
<svg width="250px" height="250px" viewBox="0 0 250 250" version="1.1" xmlns="http://www.w3.org/2000/svg" xmlns:xlink="http://www.w3.org/1999/xlink">
    <!-- Generator: Sketch 48.2 (47327) - http://www.bohemiancoding.com/sketch -->
    <title>Images/Categories/Building codes and engineering</title>
    <desc>Created with Sketch.</desc>
    <defs></defs>
    <g id="Library-Symbols" stroke="none" stroke-width="1" fill="none" fill-rule="evenodd">
        <g id="Images/Categories/Building-codes-and-engineering">
            <circle id="Oval-2" fill="#BFEFE9" cx="125" cy="125" r="125"></circle>
            <path d="M185.554464,188.985714 C186.483729,188.966548 187.380605,189.327258 188.037835,189.984487 C188.695064,190.641716 189.055773,191.538592 189.036607,192.467857 L189.037334,198.178571 L61.0207165,198.178571 L61.0214286,192.467857 C61.0026621,191.548784 61.3554906,190.66101 62.0000241,190.005552 C62.6445576,189.350094 63.5262765,188.982396 64.4455357,188.985714 L70.15625,188.985714 L70.15625,58.7303571 C70.1228198,56.9033249 70.8452075,55.1435549 72.1526786,53.8669643 C73.4292692,52.5594932 75.1890392,51.8371055 77.0160714,51.8705357 L172.983929,51.8705357 C174.810961,51.8371055 176.570731,52.5594932 177.847321,53.8669643 C179.154793,55.1435549 179.87718,56.9033249 179.84375,58.7303571 L179.84375,188.985714 L185.554464,188.985714 Z M97.5839286,73.5758929 L97.5839286,85.0089286 C97.5808312,85.9180043 97.9405896,86.7907401 98.5834069,87.4335574 C99.2262242,88.0763747 100.09896,88.4361331 101.008036,88.4330357 L112.429464,88.4330357 C113.33854,88.4361331 114.211276,88.0763747 114.854093,87.4335574 C115.49691,86.7907401 115.856669,85.9180043 115.853571,85.0089286 L115.853571,73.5758929 C115.856669,72.6668172 115.49691,71.7940813 114.854093,71.151264 C114.211276,70.5084467 113.33854,70.1486883 112.429464,70.1517857 L101.008036,70.1517857 C100.09896,70.1486883 99.2262242,70.5084467 98.5834069,71.151264 C97.9405896,71.7940813 97.5808312,72.6668172 97.5839286,73.5758929 Z M97.5839286,101.003571 L97.5839286,112.425 C97.5836646,114.325696 99.1076036,115.875465 101.008036,115.907143 L112.429464,115.907143 C114.329896,115.875465 115.853835,114.325696 115.853571,112.425 L115.853571,101.003571 C115.853835,99.1028753 114.329896,97.5531068 112.429464,97.5214286 L101.008036,97.5214286 C99.1076036,97.5531068 97.5836646,99.1028753 97.5839286,101.003571 Z M112.429464,143.276786 C113.348723,143.280104 114.230442,142.912406 114.874976,142.256948 C115.519509,141.60149 115.872338,140.713716 115.853571,139.794643 L115.853571,128.419643 C115.872338,127.500569 115.519509,126.612796 114.874976,125.957338 C114.230442,125.30188 113.348723,124.934182 112.429464,124.9375 L101.008036,124.9375 C100.088777,124.934182 99.2070576,125.30188 98.5625241,125.957338 C97.9179906,126.612796 97.5651621,127.500569 97.5839286,128.419643 L97.5839286,139.852679 C97.5651621,140.771752 97.9179906,141.659526 98.5625241,142.314984 C99.2070576,142.970442 100.088777,143.33814 101.008036,143.334821 L112.429464,143.276786 Z M134.146429,188.985714 L134.146429,164.982143 C134.146429,163.059008 132.58742,161.5 130.664286,161.5 L119.289286,161.5 C117.366151,161.5 115.807143,163.059008 115.807143,164.982143 L115.807143,188.985714 L134.146429,188.985714 Z M152.416071,85.0089286 L152.416071,73.5758929 C152.41939,72.6566337 152.051692,71.7749148 151.396234,71.1303812 C150.740776,70.4858477 149.853002,70.1330192 148.933929,70.1517857 L137.570536,70.1517857 C136.651462,70.1330192 135.763688,70.4858477 135.108231,71.1303812 C134.452773,71.7749148 134.085075,72.6566337 134.088393,73.5758929 L134.088393,85.0089286 C134.085075,85.9281878 134.452773,86.8099066 135.108231,87.4544402 C135.763688,88.0989737 136.651462,88.4518022 137.570536,88.4330357 L148.991964,88.4330357 C149.911038,88.4518022 150.798812,88.0989737 151.454269,87.4544402 C152.109727,86.8099066 152.477425,85.9281878 152.474107,85.0089286 L152.416071,85.0089286 Z M152.416071,112.425 L152.416071,101.003571 C152.416071,99.080437 150.857063,97.5214286 148.933929,97.5214286 L137.570536,97.5214286 C135.647401,97.5214286 134.088393,99.080437 134.088393,101.003571 L134.088393,112.425 C134.088393,114.348134 135.647401,115.907143 137.570536,115.907143 L148.991964,115.907143 C150.915099,115.907143 152.474107,114.348134 152.474107,112.425 L152.416071,112.425 Z M152.416071,139.852679 L152.416071,128.419643 C152.435238,127.490378 152.074528,126.593502 151.417299,125.936273 C150.76007,125.279043 149.863193,124.918334 148.933929,124.9375 L137.570536,124.9375 C136.641271,124.918334 135.744395,125.279043 135.087165,125.936273 C134.429936,126.593502 134.069227,127.490378 134.088393,128.419643 L134.088393,139.852679 C134.069227,140.781943 134.429936,141.67882 135.087165,142.336049 C135.744395,142.993278 136.641271,143.353988 137.570536,143.334821 L148.991964,143.334821 C149.921229,143.353988 150.818105,142.993278 151.475335,142.336049 C152.132564,141.67882 152.493273,140.781943 152.474107,139.852679 L152.416071,139.852679 Z" id="Shape" fill="#15514B" fill-rule="nonzero"></path>
        </g>
    </g>
</svg>