<?xml version="1.0" encoding="UTF-8"?>
<svg width="250px" height="250px" viewBox="0 0 250 250" version="1.1" xmlns="http://www.w3.org/2000/svg" xmlns:xlink="http://www.w3.org/1999/xlink">
    <!-- Generator: Sketch 48.2 (47327) - http://www.bohemiancoding.com/sketch -->
    <title>Images/Categories/Capacity building</title>
    <desc>Created with Sketch.</desc>
    <defs></defs>
    <g id="Library-Symbols" stroke="none" stroke-width="1" fill="none" fill-rule="evenodd">
        <g id="Images/Categories/Capacity-building">
            <circle id="Oval-2" fill="#F8F1D4" cx="125" cy="125" r="125"></circle>
            <g id="capacity-building" transform="translate(50.000000, 51.000000)" fill-rule="nonzero">
                <path d="M62.9296875,95.71875 C70.4152837,99.9691807 79.5847163,99.9691807 87.0703125,95.71875 C90.656929,93.6380771 93.6380771,90.656929 95.71875,87.0703125 C99.9691807,79.5847163 99.9691807,70.4152837 95.71875,62.9296875 C93.6380771,59.343071 90.656929,56.3619229 87.0703125,54.28125 C79.5847163,50.0308193 70.4152837,50.0308193 62.9296875,54.28125 C59.3457276,56.3653757 56.3653757,59.3457276 54.28125,62.9296875 C50.0308193,70.4152837 50.0308193,79.5847163 54.28125,87.0703125 C56.3653757,90.6542724 59.3457276,93.6346243 62.9296875,95.71875 Z" id="Shape" fill="#F2C706"></path>
                <path d="M17.109375,148.617187 C21.3536337,148.680444 25.4346546,146.983554 28.3828125,143.929688 C34.6042122,137.70615 34.6042122,127.618069 28.3828125,121.394531 C25.4322377,118.344211 21.352824,116.647989 17.109375,116.707031 C12.865926,116.647989 8.78651227,118.344211 5.8359375,121.394531 C-0.385462243,127.618069 -0.385462243,137.70615 5.8359375,143.929688 C8.78409542,146.983554 12.8651163,148.680444 17.109375,148.617188 Z" id="Shape" fill="#F2C706"></path>
                <path d="M17.109375,32.9882812 C21.352824,33.0473235 25.4322377,31.3511016 28.3828125,28.3007813 C31.4331328,25.3502065 33.1293548,21.2707928 33.0703125,17.0273438 C33.1293548,12.7838947 31.4331328,8.70448102 28.3828125,5.75390625 C25.4142845,2.7423318 21.3371673,1.08520827 17.109375,1.171875 C12.886204,1.09783624 8.81829523,2.76313641 5.859375,5.77734375 C2.80905465,8.72791852 1.11283275,12.8073322 1.171875,17.0507812 C1.11283275,21.2942303 2.80905465,25.373644 5.859375,28.3242187 C8.80833699,31.3599526 12.8775181,33.0469672 17.109375,32.9882812 Z" id="Shape" fill="#F2C706"></path>
                <path d="M132.925781,148.617187 C140.535612,148.632538 147.096307,143.26962 148.594868,135.808784 C150.093429,128.347948 146.112384,120.867648 139.086829,117.94338 C132.061275,115.019112 123.948404,117.465524 119.710638,123.786212 C115.472873,130.1069 116.290777,138.541036 121.664062,143.929687 C124.607803,146.982928 128.685034,148.680006 132.925781,148.617187 Z" id="Shape" fill="#F2C706"></path>
                <path d="M132.925781,32.9882812 C137.16977,33.0501303 141.250254,31.3534635 144.199219,28.3007812 C147.249539,25.3502065 148.945761,21.2707928 148.886719,17.0273438 C148.945761,12.7838947 147.249539,8.70448102 144.199219,5.75390625 C137.975681,-0.467493493 127.8876,-0.467493493 121.664063,5.75390625 C118.609011,8.7012553 116.911896,12.7828147 116.976563,17.0273438 C116.911896,21.2718728 118.609011,25.3534322 121.664063,28.3007812 C124.610225,31.3504721 128.685845,33.0468799 132.925781,32.9882812 Z" id="Shape" fill="#F2C706"></path>
                <rect id="Rectangle-path" fill="#F6E286" transform="translate(106.963333, 43.824568) rotate(45.000000) translate(-106.963333, -43.824568) " x="100.078568" y="29.7620684" width="13.7695312" height="28.125" rx="2.99"></rect>
                <rect id="Rectangle-path" fill="#F6E286" transform="translate(42.211740, 43.825463) rotate(135.000000) translate(-42.211740, -43.825463) " x="35.3269741" y="29.7629627" width="13.7695313" height="28.125" rx="2.99"></rect>
                <rect id="Rectangle-path" fill="#F6E286" transform="translate(106.962052, 107.697588) rotate(-45.000000) translate(-106.962052, -107.697588) " x="100.077287" y="93.635088" width="13.7695312" height="28.125" rx="2.99"></rect>
                <rect id="Rectangle-path" fill="#F6E286" transform="translate(42.222177, 107.687537) rotate(-135.000000) translate(-42.222177, -107.687537) " x="35.3374118" y="93.6250371" width="13.7695312" height="28.125" rx="2.99"></rect>
            </g>
        </g>
    </g>
</svg>