<?xml version="1.0" encoding="UTF-8"?>
<svg width="250px" height="250px" viewBox="0 0 250 250" version="1.1" xmlns="http://www.w3.org/2000/svg" xmlns:xlink="http://www.w3.org/1999/xlink">
    <!-- Generator: Sketch 48.2 (47327) - http://www.bohemiancoding.com/sketch -->
    <title>Images/Categories/Capacity building</title>
    <desc>Created with Sketch.</desc>
    <defs></defs>
    <g id="Library-Symbols" stroke="none" stroke-width="1" fill="none" fill-rule="evenodd">
        <g id="Images/Categories/Capacity-building">
            <circle id="Oval-2" fill="#BFEFE9" cx="125" cy="125" r="125"></circle>
            <g id="capacity-building" transform="translate(51.000000, 52.000000)" fill-rule="nonzero">
                <path d="M61.9296875,94.71875 C69.4152837,98.9691807 78.5847163,98.9691807 86.0703125,94.71875 C89.656929,92.6380771 92.6380771,89.656929 94.71875,86.0703125 C98.9691807,78.5847163 98.9691807,69.4152837 94.71875,61.9296875 C92.6380771,58.343071 89.656929,55.3619229 86.0703125,53.28125 C78.5847163,49.0308193 69.4152837,49.0308193 61.9296875,53.28125 C58.3457276,55.3653757 55.3653757,58.3457276 53.28125,61.9296875 C49.0308193,69.4152837 49.0308193,78.5847163 53.28125,86.0703125 C55.3653757,89.6542724 58.3457276,92.6346243 61.9296875,94.71875 Z" id="Shape" fill="#15514B"></path>
                <path d="M16.109375,147.617187 C20.3536337,147.680444 24.4346546,145.983554 27.3828125,142.929687 C33.6042122,136.70615 33.6042122,126.618069 27.3828125,120.394531 C24.4322377,117.344211 20.352824,115.647989 16.109375,115.707031 C11.865926,115.647989 7.78651227,117.344211 4.8359375,120.394531 C-1.38546224,126.618069 -1.38546224,136.70615 4.8359375,142.929687 C7.78409542,145.983554 11.8651163,147.680444 16.109375,147.617187 Z" id="Shape" fill="#15514B"></path>
                <path d="M16.109375,31.9882813 C20.352824,32.0473235 24.4322377,30.3511016 27.3828125,27.3007813 C30.4331328,24.3502065 32.1293548,20.2707928 32.0703125,16.0273438 C32.1293548,11.7838947 30.4331328,7.70448102 27.3828125,4.75390625 C24.4142845,1.7423318 20.3371673,0.0852082743 16.109375,0.171875 C11.886204,0.0978362405 7.81829523,1.76313641 4.859375,4.77734375 C1.80905465,7.72791852 0.112832745,11.8073322 0.171875,16.0507813 C0.112832745,20.2942303 1.80905465,24.373644 4.859375,27.3242188 C7.80833699,30.3599526 11.8775181,32.0469672 16.109375,31.9882813 Z" id="Shape" fill="#15514B"></path>
                <path d="M131.925781,147.617187 C139.535612,147.632538 146.096307,142.26962 147.594868,134.808784 C149.093429,127.347948 145.112384,119.867648 138.086829,116.94338 C131.061275,114.019112 122.948404,116.465524 118.710638,122.786212 C114.472873,129.1069 115.290777,137.541036 120.664063,142.929687 C123.607803,145.982928 127.685034,147.680006 131.925781,147.617187 Z" id="Shape" fill="#15514B"></path>
                <path d="M131.925781,31.9882813 C136.16977,32.0501303 140.250254,30.3534635 143.199219,27.3007813 C146.249539,24.3502065 147.945761,20.2707928 147.886719,16.0273438 C147.945761,11.7838947 146.249539,7.70448102 143.199219,4.75390625 C136.975681,-1.46749349 126.8876,-1.46749349 120.664062,4.75390625 C117.609011,7.7012553 115.911896,11.7828147 115.976562,16.0273438 C115.911896,20.2718728 117.609011,24.3534322 120.664062,27.3007813 C123.610225,30.3504721 127.685845,32.0468799 131.925781,31.9882813 Z" id="Shape" fill="#15514B"></path>
                <rect id="Rectangle-path" fill="#4AA49B" transform="translate(105.963333, 42.824568) rotate(45.000000) translate(-105.963333, -42.824568) " x="99.0785678" y="28.7620684" width="13.7695312" height="28.125" rx="2.99"></rect>
                <rect id="Rectangle-path" fill="#4AA49B" transform="translate(41.211740, 42.825463) rotate(135.000000) translate(-41.211740, -42.825463) " x="34.3269741" y="28.7629627" width="13.7695313" height="28.125" rx="2.99"></rect>
                <rect id="Rectangle-path" fill="#4AA49B" transform="translate(105.962052, 106.697588) rotate(-45.000000) translate(-105.962052, -106.697588) " x="99.0772867" y="92.635088" width="13.7695312" height="28.125" rx="2.99"></rect>
                <rect id="Rectangle-path" fill="#4AA49B" transform="translate(41.222177, 106.687537) rotate(-135.000000) translate(-41.222177, -106.687537) " x="34.3374118" y="92.6250371" width="13.7695312" height="28.125" rx="2.99"></rect>
            </g>
        </g>
    </g>
</svg>