<?xml version="1.0" encoding="UTF-8"?>
<svg width="250px" height="250px" viewBox="0 0 250 250" version="1.1" xmlns="http://www.w3.org/2000/svg" xmlns:xlink="http://www.w3.org/1999/xlink">
    <!-- Generator: Sketch 48.2 (47327) - http://www.bohemiancoding.com/sketch -->
    <title>Images/Categories/Conservation</title>
    <desc>Created with Sketch.</desc>
    <defs></defs>
    <g id="Library-Symbols" stroke="none" stroke-width="1" fill="none" fill-rule="evenodd">
        <g id="Images/Categories/Conservation">
            <circle id="Oval-2" fill="#BFEFE9" cx="125" cy="125" r="125"></circle>
            <path d="M147.251969,73.3622047 L147.133858,73.3622047 C149.162943,74.1673549 150.89494,75.5776952 152.094488,77.4015748 C154.98706,81.7896297 154.41055,87.6039949 150.712598,91.3385827 C148.650342,93.4493047 145.808735,94.6158593 142.858268,94.5629921 L129.948819,94.5629921 L129.948819,95.9448819 C129.948819,97.8700787 129.948819,99.2165354 130.066929,99.984252 C130.194228,101.097491 130.543646,102.173861 131.094488,103.149606 C131.843851,104.2885 132.777927,105.294427 133.858268,106.125984 C134.519646,106.561189 134.765283,107.4134 134.437008,108.133858 C134.19583,108.877803 133.481318,109.363865 132.700787,109.314961 L116.141732,109.314961 C115.361201,109.363865 114.64669,108.877803 114.405512,108.133858 C114.077237,107.4134 114.322874,106.561189 114.984252,106.125984 C116.056162,105.292449 116.982153,104.286631 117.724409,103.149606 C118.269314,102.188218 118.618544,101.128485 118.751969,100.031496 C118.834646,99.2637795 118.870079,97.9173228 118.870079,95.992126 L118.870079,94.5866142 L105.96063,94.5866142 C103.018637,94.6055971 100.19147,93.4460985 98.1100142,91.3668619 C96.0285585,89.2876253 94.866045,86.4616965 94.8818898,83.519685 C94.86537,81.3412196 95.5076204,79.2086191 96.7244094,77.4015748 C97.9239576,75.5776952 99.6559544,74.1673549 101.685039,73.3622047 C100.646904,71.6530823 100.229765,69.638302 100.503937,67.6574803 C100.735852,65.7577612 101.562686,63.9800679 102.866142,62.5787402 C104.125959,61.1898557 105.770536,60.2072212 107.590551,59.7559055 C109.50266,59.2952128 111.514646,59.4993273 113.295276,60.3346457 C113.575052,57.571496 114.886768,55.015547 116.968504,53.1771654 C121.184338,49.3328679 127.634559,49.3328679 131.850394,53.1771654 C133.918987,55.0213578 135.217679,57.5765758 135.488189,60.3346457 C137.268818,59.4993273 139.280805,59.2952128 141.192913,59.7559055 C143.034196,60.1963765 144.700699,61.1798195 145.976378,62.5787402 C148.675134,65.5254306 149.188725,69.8671732 147.251969,73.3622047 Z" id="Shape" fill="#15514B" fill-rule="nonzero"></path>
            <path d="M118.503937,141.334646 L82.6574803,105.511811 C82.5106561,105.366617 82.3726161,105.212801 82.2440945,105.051181 C78.9499551,101.757042 73.6091,101.757042 70.3149606,105.051181 C67.0208213,108.34532 67.0208213,113.686176 70.3149606,116.980315 L94.503937,141.110236 C95.212842,141.897205 95.4480543,143.002591 95.1209717,144.010005 C94.7938892,145.017419 93.9542033,145.773812 92.9182158,145.994257 C91.8822282,146.214702 90.8073301,145.865709 90.0984252,145.07874 L66.0748031,121.102362 C61.4525433,116.413399 60.6035793,109.184842 64.0136465,103.552516 C67.4237136,97.9201887 74.2223391,95.3218311 80.519685,97.2440945 L83.6968504,59.0590551 C84.0164029,54.9410355 81.1333367,51.2626476 77.0582251,50.5891009 C72.9831136,49.9155542 69.069765,52.4706101 68.0472441,56.4724409 L51.2519685,123.641732 C50.6410509,126.074864 51.2145908,128.653605 52.7992126,130.598425 L85.8700787,171.240157 C87.0259532,172.657479 87.6560579,174.430952 87.6535433,176.259843 L87.6535433,190.988189 C87.653541,193.098395 88.4926245,195.122 89.9858727,196.613033 C91.4791209,198.104065 93.5039697,198.940143 95.6141732,198.937008 L112.858268,198.937008 C114.976639,198.952747 117.013657,198.122237 118.517146,196.629835 C120.020636,195.137433 120.8662,193.106619 120.866142,190.988189 L120.866142,146.968504 C120.858024,144.851397 120.008155,142.824457 118.503937,141.334646 Z" id="Shape" fill="#4AA49B" fill-rule="nonzero"></path>
            <path d="M132.476378,141.334646 L168.358268,105.511811 C168.5,105.370079 168.629921,105.216535 168.771654,105.051181 C172.065793,101.757042 177.406648,101.757042 180.700787,105.051181 C183.994927,108.34532 183.994927,113.686176 180.700787,116.980315 L156.511811,141.110236 C155.802906,141.897205 155.567694,143.002591 155.894776,144.010005 C156.221859,145.017419 157.061545,145.773812 158.097532,145.994257 C159.13352,146.214702 160.208418,145.865709 160.917323,145.07874 L184.940945,121.102362 C189.574506,116.411459 190.425927,109.171046 187.006949,103.533221 C183.587972,97.8953973 176.773941,95.3035871 170.472441,97.2440945 L167.318898,59.0590551 C166.999345,54.9410355 169.882411,51.2626476 173.957523,50.5891009 C178.032634,49.9155542 181.945983,52.4706101 182.968504,56.4724409 L199.76378,123.641732 C200.368966,126.074939 199.795998,128.651108 198.216535,130.598425 L165.145669,171.240157 C163.989795,172.657479 163.35969,174.430952 163.362205,176.259843 L163.362205,190.988189 C163.362207,193.098395 162.523123,195.122 161.029875,196.613033 C159.536627,198.104065 157.511778,198.940143 155.401575,198.937008 L138.110236,198.937008 C136.000033,198.940143 133.975184,198.104065 132.481936,196.613033 C130.988688,195.122 130.149604,193.098395 130.149606,190.988189 L130.149606,146.968504 C130.148334,144.856487 130.985159,142.830266 132.476378,141.334646 Z" id="Shape" fill="#4AA49B" fill-rule="nonzero"></path>
        </g>
    </g>
</svg>