<?xml version="1.0" encoding="UTF-8"?>
<svg width="250px" height="250px" viewBox="0 0 250 250" version="1.1" xmlns="http://www.w3.org/2000/svg" xmlns:xlink="http://www.w3.org/1999/xlink">
    <!-- Generator: Sketch 48.2 (47327) - http://www.bohemiancoding.com/sketch -->
    <title>Images/Categories/Education</title>
    <desc>Created with Sketch.</desc>
    <defs></defs>
    <g id="Library-Symbols" stroke="none" stroke-width="1" fill="none" fill-rule="evenodd">
        <g id="Images/Categories/Education">
            <circle id="Oval-2" fill="#BFEFE9" cx="125" cy="125" r="125"></circle>
            <path d="M131.246094,131.152344 C127.172943,132.382892 122.827057,132.382892 118.753906,131.152344 L72.265625,116.820312 C70.5517358,119.521598 69.5964518,122.634367 69.5,125.832031 C70.657219,126.381403 71.6212794,127.267849 72.265625,128.375 C72.8987463,129.504803 73.2183708,130.783301 73.1914062,132.078125 C73.2061837,134.745612 71.8116811,137.222748 69.5234375,138.59375 L73.2148438,167.023438 C73.2419741,167.565042 73.0804553,168.099297 72.7578125,168.535156 C72.409115,168.935186 71.8925551,169.147887 71.3632812,169.109375 L60.2773438,169.109375 C59.7480699,169.147887 59.23151,168.935186 58.8828125,168.535156 C58.5601697,168.099297 58.3986509,167.565042 58.4257813,167.023437 L62.1171875,138.59375 C60.4013829,137.580709 59.1583678,135.927466 58.6616711,133.997822 C58.1649743,132.068177 58.455296,130.020248 59.46875,128.304688 C60.1076296,127.204599 61.0199306,126.288262 62.1171875,125.644531 C62.2640012,121.768121 63.294092,117.976425 65.1289062,114.558594 L54.9570312,111.5 C53.3574119,111.150423 52.0382334,110.024724 51.4414062,108.5 C50.8044539,107.002413 50.8044539,105.310087 51.4414062,103.8125 C52.0382334,102.287776 53.3574119,101.162077 54.9570312,100.8125 L118.753906,81.171875 C122.827057,79.9413263 127.172943,79.9413263 131.246094,81.171875 L195.042969,100.824219 C196.642588,101.173796 197.961767,102.299495 198.558594,103.824219 C199.195546,105.321805 199.195546,107.014132 198.558594,108.511719 C197.961767,110.036443 196.642588,111.162142 195.042969,111.511719 L131.246094,131.152344 Z" id="Shape" fill="#4AA49B" fill-rule="nonzero"></path>
            <path d="M133.320312,138.3125 C127.880892,139.856567 122.119108,139.856567 116.679687,138.3125 L81.7695312,127.449219 L78.7695312,146.867187 C78.7695312,149.492187 80.84375,151.953125 85.0039062,154.273437 C89.1640625,156.59375 94.7890625,158.386719 101.878906,159.699219 C109.509861,161.058514 117.249084,161.717505 125,161.667969 C132.751274,161.713638 140.4905,161.050724 148.121094,159.6875 C155.214844,158.375 160.839844,156.566406 164.996094,154.261719 C169.15625,151.917969 171.230469,149.480469 171.230469,146.855469 L168.230469,127.4375 L133.554688,138.3125 L133.320312,138.3125 Z" id="Path" fill="#15514B"></path>
        </g>
    </g>
</svg>