<?xml version="1.0" encoding="UTF-8"?>
<svg width="250px" height="250px" viewBox="0 0 250 250" version="1.1" xmlns="http://www.w3.org/2000/svg" xmlns:xlink="http://www.w3.org/1999/xlink">
    <!-- Generator: Sketch 48.2 (47327) - http://www.bohemiancoding.com/sketch -->
    <title>Images/Categories/Energy</title>
    <desc>Created with Sketch.</desc>
    <defs></defs>
    <g id="Library-Symbols" stroke="none" stroke-width="1" fill="none" fill-rule="evenodd">
        <g id="Images/Categories/Energy">
            <circle id="Oval-2" fill="#F8F1D4" cx="125" cy="125" r="125"></circle>
            <g id="energy" transform="translate(51.000000, 26.000000)">
                <path d="M141.671875,61.6875 C143.32285,61.6254667 144.925019,62.254127 146.093258,63.4223667 C147.261498,64.5906064 147.890158,66.1927746 147.828125,67.84375 L147.828125,80.15625 C147.890158,81.8072254 147.261498,83.4093936 146.093258,84.5776333 C144.925019,85.745873 143.32285,86.3745333 141.671875,86.3125 L135.53125,86.3125 L135.53125,98.609375 C135.573205,127.879264 114.990446,153.127448 86.3125,158.984375 L86.3125,197.046875 L61.6875,197.046875 L61.6875,158.984375 C47.8346631,156.302833 35.3763209,148.80901 26.515625,137.828125 C17.2621318,126.872963 12.2692764,112.948444 12.453125,98.609375 L12.453125,86.3125 L6.328125,86.3125 C4.67714955,86.3745333 3.07498139,85.745873 1.90674168,84.5776333 C0.738501963,83.4093936 0.109841666,81.8072254 0.171875,80.15625 L0.171875,67.84375 C0.109841666,66.1927746 0.738501963,64.5906064 1.90674168,63.4223667 C3.07498139,62.254127 4.67714955,61.6254667 6.328125,61.6875 L141.671875,61.6875 Z" id="Shape" fill="#F2C706" fill-rule="nonzero"></path>
                <path d="M49.390625,55.546875 L24.78125,55.546875 L24.78125,12.46875 C24.7548473,9.20728906 26.0781262,6.08005305 28.4375,3.828125 C30.708618,1.49229227 33.82801,0.174455778 37.0859375,0.174455778 C40.343865,0.174455778 43.463257,1.49229227 45.734375,3.828125 C48.0937488,6.08005305 49.4170277,9.20728906 49.390625,12.46875 L49.390625,55.546875 Z" id="Path" fill="#F6E286"></path>
                <path d="M98.609375,55.546875 L123.21875,55.546875 L123.21875,12.46875 C123.245153,9.20728906 121.921874,6.08005305 119.5625,3.828125 C117.291382,1.49229227 114.17199,0.174455778 110.914062,0.174455778 C107.656135,0.174455778 104.536743,1.49229227 102.265625,3.828125 C99.9062512,6.08005305 98.5829723,9.20728906 98.609375,12.46875 L98.609375,55.546875 Z" id="Path" fill="#F6E286"></path>
            </g>
        </g>
    </g>
</svg>