<?xml version="1.0" encoding="UTF-8"?>
<svg width="250px" height="250px" viewBox="0 0 250 250" version="1.1" xmlns="http://www.w3.org/2000/svg" xmlns:xlink="http://www.w3.org/1999/xlink">
    <!-- Generator: Sketch 48.2 (47327) - http://www.bohemiancoding.com/sketch -->
    <title>Images/Categories/Financing</title>
    <desc>Created with Sketch.</desc>
    <defs></defs>
    <g id="Library-Symbols" stroke="none" stroke-width="1" fill="none" fill-rule="evenodd">
        <g id="Images/Categories/Financing">
            <circle id="Oval-2" fill="#ECFEC6" cx="125" cy="125" r="125"></circle>
            <g id="financing" transform="translate(51.000000, 88.000000)" fill="#85C005" fill-rule="nonzero">
                <path d="M147.96875,69.140625 C147.978152,70.6146486 147.39756,72.0311926 146.356348,73.074606 C145.315136,74.1180193 143.899821,74.7016017 142.425781,74.6953125 L5.57421875,74.6953125 C4.09817379,74.7229695 2.67672431,74.1374172 1.6484375,73.078125 C0.588520265,72.0454265 0.00315370137,70.6201862 0.03125,69.140625 L0.03125,6.2109375 C0.00315370137,4.73137631 0.588520265,3.30613599 1.6484375,2.2734375 C2.67672431,1.21414535 4.09817379,0.628593023 5.57421875,0.65625 L142.425781,0.65625 C143.899821,0.649960762 145.315136,1.23354315 146.356348,2.27695654 C147.39756,3.32036992 147.978152,4.73691386 147.96875,6.2109375 L147.96875,69.140625 Z M7.42578125,8.0625 L7.42578125,22.8515625 C11.3818645,22.9468591 15.2004986,21.3981908 17.9726562,18.5742187 C20.801423,15.8052737 22.3509745,11.9844617 22.25,8.02734375 L7.42578125,8.0625 Z M17.9726562,56.71875 C15.2004986,53.8947779 11.3818645,52.3461096 7.42578125,52.4414063 L7.42578125,67.2421875 L22.2148437,67.2421875 C22.3092647,63.2931461 20.7602276,59.4820907 17.9375,56.71875 L17.9726562,56.71875 Z M87.1132812,21.9257813 C83.4492187,17.6132812 79.078125,15.4570312 74,15.4570312 C68.921875,15.4570312 64.5664062,17.6132812 60.9335937,21.9257812 C57.2797987,26.3331358 55.3516071,31.9178117 55.5078125,37.640625 C55.3498186,43.3672718 57.2780537,48.9562383 60.9335937,53.3671875 C64.5664062,57.6796875 68.921875,59.8359375 74,59.8359375 C79.078125,59.8359375 83.4335937,57.6796875 87.0664062,53.3671875 C90.7219463,48.9562383 92.6501814,43.3672718 92.4921875,37.640625 C92.6483929,31.9178117 90.7202013,26.3331358 87.0664062,21.9257812 L87.1132812,21.9257813 Z M66.828125,45.046875 L70.34375,45.046875 L70.34375,35.8007812 L70.578125,33.4570312 L69.8867187,34.1601562 C69.4233537,34.6955297 68.7427978,34.9927344 68.0351562,34.96875 C67.3123715,34.8550812 66.6461003,34.5096072 66.1367187,33.984375 L64.7539062,32.6015625 C63.5820312,31.359375 63.5820312,30.1289062 64.9882812,28.8984375 L70.0742187,24.2109375 C70.9152752,23.323344 72.085822,22.8228928 73.3085937,22.828125 L76.0859375,22.828125 C76.8495129,22.7204962 77.6191888,22.9787578 78.1633014,23.525176 C78.7074141,24.0715942 78.9624189,24.8423552 78.8515625,25.6054687 L78.8515625,45.046875 L82.3671875,45.046875 C83.130301,44.9360186 83.901062,45.1910234 84.4474802,45.7351361 C84.9938984,46.2792487 85.25216,47.0489246 85.1445312,47.8125 L85.1445312,49.6640625 C85.2562799,50.4295051 84.99985,51.2027504 84.4528627,51.7497377 C83.9058754,52.296725 83.1326301,52.5531549 82.3671875,52.4414063 L66.828125,52.4414063 C65.140625,52.4414063 64.2851562,51.515625 64.2851562,49.6640625 L64.2851562,47.8125 C64.2851562,45.9726562 65.140625,45.046875 66.828125,45.046875 Z M125.785156,8.0625 C125.73751,11.9992163 127.280334,15.788619 130.064217,18.5725017 C132.8481,21.3563844 136.637502,22.8992085 140.574219,22.8515625 L140.574219,8.0625 L125.785156,8.0625 Z M130.0625,56.71875 C127.233733,59.4876951 125.684182,63.3085071 125.785156,67.265625 L140.574219,67.265625 L140.574219,52.4414063 C136.630255,52.3558942 132.82623,53.9037973 130.0625,56.71875 Z" id="Shape"></path>
            </g>
        </g>
    </g>
</svg>