<?xml version="1.0" encoding="UTF-8"?>
<svg width="250px" height="250px" viewBox="0 0 250 250" version="1.1" xmlns="http://www.w3.org/2000/svg" xmlns:xlink="http://www.w3.org/1999/xlink">
    <!-- Generator: Sketch 48.2 (47327) - http://www.bohemiancoding.com/sketch -->
    <title>Images/Categories/Funding</title>
    <desc>Created with Sketch.</desc>
    <defs></defs>
    <g id="Library-Symbols" stroke="none" stroke-width="1" fill="none" fill-rule="evenodd">
        <g id="Images/Categories/Funding">
            <circle id="Oval-2" fill="#ECFEC6" cx="125" cy="125" r="125"></circle>
            <path d="M198.535433,186.61811 C199.142221,187.249939 199.458851,188.105696 199.409449,188.980315 C199.416501,189.923381 199.108948,190.841883 198.535433,191.590551 L191.850394,197.992126 C191.180178,198.728605 190.235793,199.155928 189.240157,199.173228 C188.303897,199.203367 187.415598,198.759217 186.877953,197.992126 L151.444882,162.818898 C150.902814,162.149272 150.599422,161.318061 150.582677,160.456693 L150.582677,156.38189 C145.146632,161.039251 138.949991,164.726872 132.26378,167.283465 C125.483528,169.904267 118.273018,171.234206 111.003937,171.204724 C100.35397,171.292949 89.8809649,168.479732 80.7086614,163.066929 C71.6105704,157.771777 64.0381695,150.211584 58.7283465,141.122047 C53.3064281,131.927685 50.4930084,121.429423 50.5905512,110.755906 C50.4932455,100.07869 53.3065729,89.5766901 58.7283465,80.3779528 C64.041165,71.2907295 71.6128786,63.7312218 80.7086614,58.4330709 C89.8970658,53.0175152 100.385968,50.2044153 111.051181,50.2952756 C121.724699,50.1977328 132.22296,53.0111525 141.417323,58.4330709 C150.511084,63.7298378 158.079279,71.2898953 163.385827,80.3779528 C168.816733,89.5734041 171.634544,100.076896 171.535433,110.755906 C171.561148,118.025735 170.227199,125.23627 167.602362,132.015748 C165.045769,138.70196 161.358149,144.898601 156.700787,150.334646 L160.775591,150.334646 C161.648689,150.280655 162.504764,150.593123 163.137795,151.19685 L198.535433,186.61811 Z M111.051181,157.255906 C119.22347,157.29862 127.256541,155.140421 134.307087,151.007874 C141.376202,146.940557 147.240744,141.071939 151.30315,134 C159.634014,119.619408 159.634014,101.880592 151.30315,87.5 C147.23759,80.4304751 141.373785,74.5625955 134.307087,70.492126 C119.922182,62.1616026 102.18018,62.1616026 87.7952756,70.492126 C80.7252737,74.5622909 74.8575665,80.4299981 70.7874016,87.5 C62.4565371,101.880592 62.4565371,119.619408 70.7874016,134 C74.8539651,141.072761 80.7225147,146.94131 87.7952756,151.007874 C94.844459,155.143674 102.87844,157.302118 111.051181,157.255906 Z" id="Shape" fill="#BCE95B" fill-rule="nonzero"></path>
            <path d="M106.433071,146.850394 L106.433071,139.905512 C102.439307,139.320282 98.6240578,137.860324 95.2598425,135.629921 C93.5275591,134.370079 92.1023622,133.259843 90.984252,132.299213 C90.3543307,131.637795 90.3543307,130.598425 90.984252,129.937008 L96.4527559,122.850394 C96.709182,122.41772 97.1395496,122.116463 97.6338583,122.023622 C98.1792392,121.967587 98.7162532,122.189494 99.0629921,122.614173 C100.326772,123.570866 101.673228,124.515748 103.102362,125.472441 C105.765859,127.066561 108.787924,127.964244 111.889764,128.082677 C113.493347,128.124757 115.070253,127.666546 116.401575,126.771654 C117.682815,125.891561 118.405445,124.401417 118.30315,122.850394 C118.30315,121.751969 117.511811,120.641732 115.940945,119.531496 C113.737329,118.290717 111.434071,117.23588 109.055118,116.377953 C103.669291,114.322835 99.8661417,112.354331 97.6456693,110.472441 C93.8525922,107.609847 91.6575652,103.105652 91.7401575,98.3543307 C91.6932495,94.4275847 93.1366916,90.6290527 95.7795276,87.7244094 C98.6151347,84.6519888 102.369247,82.580183 106.480315,81.8188976 L106.480315,74.3307087 C106.474567,73.8646697 106.694586,73.4246312 107.070866,73.1496063 C107.434362,72.8433034 107.894738,72.6758938 108.370079,72.6771654 L115.267717,72.6771654 C115.710421,72.6610603 116.139346,72.8326304 116.448819,73.1496063 C116.766459,73.4595116 116.941736,73.8870182 116.933071,74.3307087 L116.933071,81.4173228 C120.44921,81.8485025 123.843021,82.9811117 126.913386,84.7480315 C128.141207,85.4561208 129.282702,86.3043147 130.314961,87.2755906 C131.011196,87.8154532 131.166494,88.8041825 130.669291,89.5314961 L126.393701,97.3740157 C126.246574,97.844398 125.822833,98.1739743 125.330709,98.2007874 C124.788557,98.2868603 124.234126,98.1598913 123.783465,97.8464567 C122.561278,96.9880121 121.291535,96.1993521 119.980315,95.484252 C117.748101,94.1661104 115.189887,93.5030211 112.598425,93.5708661 C110.871647,93.5304724 109.159766,93.8987493 107.602362,94.6456693 C106.300884,95.2301963 105.476932,96.5382776 105.511811,97.9645669 C105.621742,99.643141 106.615916,101.136652 108.122047,101.885827 C110.389625,103.121735 112.760845,104.157168 115.208661,104.980315 L115.208661,105.216535 C120.429134,107.11811 124.161417,108.937008 126.370079,110.685039 C130.103505,113.272814 132.314618,117.540263 132.275591,122.082677 C132.393667,126.416274 130.846665,130.630375 127.952756,133.858268 C125.072899,137.081449 121.175151,139.219999 116.909449,139.917323 L116.909449,146.850394 C116.947847,147.372645 116.773158,147.888192 116.425197,148.279528 C116.115724,148.596503 115.686799,148.768074 115.244094,148.751969 L108.322835,148.751969 C107.847494,148.75324 107.387117,148.58583 107.023622,148.279528 C106.609073,147.92535 106.389462,147.393893 106.433071,146.850394 Z" id="Shape" fill="#70C200" fill-rule="nonzero"></path>
        </g>
    </g>
</svg>