<?xml version="1.0" encoding="UTF-8"?>
<svg width="250px" height="250px" viewBox="0 0 250 250" version="1.1" xmlns="http://www.w3.org/2000/svg" xmlns:xlink="http://www.w3.org/1999/xlink">
    <!-- Generator: Sketch 48.2 (47327) - http://www.bohemiancoding.com/sketch -->
    <title>Images/Categories/Green infrastructure</title>
    <desc>Created with Sketch.</desc>
    <defs></defs>
    <g id="Library-Symbols" stroke="none" stroke-width="1" fill="none" fill-rule="evenodd">
        <g id="Images/Categories/Green-infrastructure">
            <circle id="Oval-2" fill="#BFEFE9" cx="125" cy="125" r="125"></circle>
            <path d="M137.175893,93.5401786 C136.750929,93.2624301 136.238578,93.1508699 135.736607,93.2267857 C129.500375,94.2663963 123.643234,96.9149119 118.74375,100.910714 C114.017112,105.085455 110.470677,110.429124 108.459821,116.40625 C108.262033,116.833268 108.262033,117.32566 108.459821,117.752679 C108.654944,118.196891 109.024387,118.541144 109.48125,118.704464 C109.929797,118.896085 110.437168,118.896085 110.885714,118.704464 C111.338462,118.494858 111.680423,118.102236 111.825893,117.625 C113.592917,112.248141 116.762292,107.439987 121.007143,103.696429 C125.478661,100.095482 130.796899,97.6980798 136.45625,96.7321429 C136.912571,96.6851269 137.318504,96.4217023 137.547321,96.0241071 C137.819154,95.6181549 137.934619,95.1274281 137.872321,94.6428571 C137.824244,94.1870111 137.566849,93.7794698 137.175893,93.5401786 Z" id="Shape" fill="#4AA49B" fill-rule="nonzero"></path>
            <path d="M187.980357,189.983929 C187.347067,189.326341 186.467162,188.964275 185.554464,188.985714 L179.84375,188.985714 L179.84375,58.7303571 C179.87718,56.9033249 179.154793,55.1435549 177.847321,53.8669643 C176.570731,52.5594932 174.810961,51.8371055 172.983929,51.8705357 L77.0160714,51.8705357 C75.1890392,51.8371055 73.4292692,52.5594932 72.1526786,53.8669643 C70.8452075,55.1435549 70.1228198,56.9033249 70.15625,58.7303571 L70.15625,188.985714 L64.4455357,188.985714 C63.5262765,188.982396 62.6445576,189.350094 62.0000241,190.005552 C61.3554906,190.66101 61.0026621,191.548784 61.0214286,192.467857 L61.0207165,198.178571 L188.978571,198.178571 L188.978571,192.467857 C189.016603,191.535187 188.653205,190.630918 187.980357,189.983929 Z M134.146429,188.985714 L115.853571,188.985714 L115.853571,164.982143 C115.853571,163.059008 117.41258,161.5 119.335714,161.5 L130.757143,161.5 C132.680277,161.5 134.239286,163.059008 134.239286,164.982143 L134.146429,188.985714 Z M153.51875,101.525893 C151.584226,107.623512 147.715179,113.225893 141.911607,118.333036 C137.826339,122.040396 132.934615,124.746541 127.623214,126.2375 C124.811947,126.981692 121.918692,127.371618 119.010714,127.398214 C116.79527,127.372239 114.58442,127.189941 112.394643,126.852679 L109.910714,126.365179 C109.550893,126.469643 109.225893,126.864286 108.947321,127.525893 C108.761607,127.966964 108.459821,128.75625 108.065179,129.847321 C107.807781,131.013635 107.418366,132.146833 106.904464,133.225 C106.576138,134.184927 105.835064,134.947296 104.884821,135.302679 C103.621998,135.673084 102.25881,135.437312 101.19375,134.664286 C100.30924,134.157716 99.6590088,133.324086 99.3830357,132.342857 C99.1581819,131.190869 99.3779847,129.996469 99.9982143,129 C100.626888,127.847905 101.348949,126.749285 102.157143,125.715179 C102.697843,125.049569 103.168485,124.329991 103.561607,123.567857 C103.922562,123.093292 104.096105,122.502419 104.049107,121.908036 L103.399107,121.258036 C103.004464,120.666071 102.586607,119.992857 102.145536,119.25 C101.610209,118.156629 101.182597,117.013738 100.86875,115.8375 C99.4289796,110.612273 100.100123,105.030531 102.7375,100.295536 C105.303148,95.4619617 109.093659,91.387263 113.729464,88.4794643 C115.294649,87.4925882 116.964736,86.682849 118.708929,86.0651786 C120.066964,85.6125 122.191071,84.9044643 125.092857,84.0803571 C129.279167,82.7803571 132.254464,81.7705357 134.01875,81.0508929 C137.036607,79.766369 138.994345,78.3309524 139.891964,76.7446429 L140.716071,75.4678571 C141.103977,74.627732 141.608012,73.8462825 142.213393,73.1464286 C142.982869,72.4428445 143.916833,71.9439321 144.929464,71.6955357 C146.090179,71.39375 147.250893,72.0205357 148.678571,73.6107143 C150.016699,75.1867661 151.129965,76.9406496 151.986607,78.8223214 C155.288063,85.8967105 155.854504,93.9426539 153.576786,101.409821 L153.51875,101.525893 Z" id="Shape" fill="#15514B" fill-rule="nonzero"></path>
        </g>
    </g>
</svg>