<?xml version="1.0" encoding="UTF-8"?>
<svg width="250px" height="250px" viewBox="0 0 250 250" version="1.1" xmlns="http://www.w3.org/2000/svg" xmlns:xlink="http://www.w3.org/1999/xlink">
    <!-- Generator: Sketch 48.2 (47327) - http://www.bohemiancoding.com/sketch -->
    <title>Images/Categories/Green infrastructure</title>
    <desc>Created with Sketch.</desc>
    <defs></defs>
    <g id="Library-Symbols" stroke="none" stroke-width="1" fill="none" fill-rule="evenodd">
        <g id="Images/Categories/Green-infrastructure">
            <circle id="Oval-2" fill="#ECFEC6" cx="125" cy="125" r="125"></circle>
            <g id="green-infrastructure" transform="translate(60.000000, 51.000000)" fill="#85C005" fill-rule="nonzero">
                <path d="M77.1758929,42.5401786 C76.7509291,42.2624301 76.2385785,42.1508699 75.7366071,42.2267857 C69.5003748,43.2663963 63.6432344,45.9149119 58.74375,49.9107143 C54.0171118,54.0854554 50.4706769,59.4291243 48.4598214,65.40625 C48.2620327,65.8332683 48.2620327,66.3256602 48.4598214,66.7526786 C48.6549439,67.1968906 49.0243871,67.5411444 49.48125,67.7044643 C49.9297966,67.8960854 50.4371677,67.8960854 50.8857143,67.7044643 C51.338462,67.494858 51.6804234,67.1022356 51.8258929,66.625 C53.5929169,61.2481413 56.7622922,56.4399866 61.0071429,52.6964286 C65.4786609,49.0954824 70.7968991,46.6980798 76.45625,45.7321429 C76.912571,45.6851269 77.318504,45.4217023 77.5473214,45.0241071 C77.8191536,44.6181549 77.9346187,44.1274281 77.8723214,43.6428571 C77.8242436,43.1870111 77.5668491,42.7794698 77.1758929,42.5401786 Z" id="Shape"></path>
                <path d="M127.980357,138.983929 C127.347067,138.326341 126.467162,137.964275 125.554464,137.985714 L119.84375,137.985714 L119.84375,7.73035714 C119.87718,5.90332492 119.154793,4.14355493 117.847321,2.86696429 C116.570731,1.55949319 114.810961,0.837105511 112.983929,0.870535714 L17.0160714,0.870535714 C15.1890392,0.837105511 13.4292692,1.55949319 12.1526786,2.86696429 C10.8452075,4.14355493 10.1228198,5.90332492 10.15625,7.73035714 L10.15625,137.985714 L4.44553571,137.985714 C3.52627653,137.982396 2.64455764,138.350094 2.00002409,139.005552 C1.35549055,139.66101 1.00266207,140.548784 1.02142857,141.467857 L1.02071646,147.178571 L128.978571,147.178571 L128.978571,141.467857 C129.016603,140.535187 128.653205,139.630918 127.980357,138.983929 Z M74.1464286,137.985714 L55.8535714,137.985714 L55.8535714,113.982143 C55.8535714,112.059008 57.4125799,110.5 59.3357143,110.5 L70.7571429,110.5 C72.6802773,110.5 74.2392857,112.059008 74.2392857,113.982143 L74.1464286,137.985714 Z M93.51875,50.5258929 C91.5842262,56.6235119 87.7151786,62.2258929 81.9116071,67.3330357 C77.8263393,71.0403958 72.9346145,73.7465409 67.6232143,75.2375 C64.8119471,75.9816917 61.9186924,76.3716182 59.0107143,76.3982143 C56.7952695,76.3722389 54.5844201,76.1899407 52.3946429,75.8526786 L49.9107143,75.3651786 C49.5508929,75.4696429 49.2258929,75.8642857 48.9473214,76.5258929 C48.7616071,76.9669643 48.4598214,77.75625 48.0651786,78.8473214 C47.8077814,80.0136349 47.4183664,81.1468325 46.9044643,82.225 C46.5761383,83.1849269 45.8350641,83.9472964 44.8848214,84.3026786 C43.6219981,84.6730839 42.25881,84.4373123 41.19375,83.6642857 C40.3092401,83.1577158 39.6590088,82.3240858 39.3830357,81.3428571 C39.1581819,80.1908694 39.3779847,78.9964689 39.9982143,78 C40.6268882,76.8479049 41.3489491,75.7492853 42.1571429,74.7151786 C42.697843,74.0495687 43.1684855,73.3299914 43.5616071,72.5678571 C43.9225616,72.0932925 44.096105,71.5024186 44.0491071,70.9080357 L43.3991071,70.2580357 C43.0044643,69.6660714 42.5866071,68.9928571 42.1455357,68.25 C41.6102087,67.1566287 41.1825966,66.0137382 40.86875,64.8375 C39.4289796,59.6122725 40.1001225,54.030531 42.7375,49.2955357 C45.3031481,44.4619617 49.0936586,40.387263 53.7294643,37.4794643 C55.2946485,36.4925882 56.9647356,35.682849 58.7089286,35.0651786 C60.0669643,34.6125 62.1910714,33.9044643 65.0928571,33.0803571 C69.2791667,31.7803571 72.2544643,30.7705357 74.01875,30.0508929 C77.0366071,28.766369 78.9943452,27.3309524 79.8919643,25.7446429 L80.7160714,24.4678571 C81.1039773,23.627732 81.6080123,22.8462825 82.2133929,22.1464286 C82.9828686,21.4428445 83.9168327,20.9439321 84.9294643,20.6955357 C86.0901786,20.39375 87.2508929,21.0205357 88.6785714,22.6107143 C90.0166986,24.1867661 91.1299654,25.9406496 91.9866071,27.8223214 C95.2880629,34.8967105 95.8545039,42.9426539 93.5767857,50.4098214 L93.51875,50.5258929 Z" id="Shape"></path>
            </g>
        </g>
    </g>
</svg>