<?xml version="1.0" encoding="UTF-8"?>
<svg width="250px" height="250px" viewBox="0 0 250 250" version="1.1" xmlns="http://www.w3.org/2000/svg" xmlns:xlink="http://www.w3.org/1999/xlink">
    <!-- Generator: Sketch 48.2 (47327) - http://www.bohemiancoding.com/sketch -->
    <title>Images/Categories/Land use</title>
    <desc>Created with Sketch.</desc>
    <defs></defs>
    <g id="Library-Symbols" stroke="none" stroke-width="1" fill="none" fill-rule="evenodd">
        <g id="Images/Categories/Land-use">
            <circle id="Oval-2" fill="#ECFEC6" cx="125" cy="125" r="125"></circle>
            <g id="land-use" transform="translate(50.000000, 50.000000)" fill="#85C005" fill-rule="nonzero">
                <path d="M135.714286,0 L14.2857143,0 C6.39593215,-1.45386348e-15 1.05735526e-15,6.39593215 0,14.2857143 L0,135.714286 C1.05735526e-15,143.604068 6.39593215,150 14.2857143,150 L135.714286,150 C143.604068,150 150,143.604068 150,135.714286 L150,14.2857143 C150,6.39593215 143.604068,2.64338815e-15 135.714286,0 Z M135.714286,14.2857143 L135.714286,27 L75,27 L75,14.2857143 L135.714286,14.2857143 Z M66.6666667,74.6547619 L54.6428571,74.6547619 L54.6428571,14.2857143 L66.7261905,14.2857143 L66.6666667,74.6547619 Z M46.25,74.6547619 L34.2142857,74.6547619 L34.2142857,14.2857143 L46.3095238,14.2857143 L46.25,74.6547619 Z M74.0357143,82.9880952 L74.0357143,95.047619 L14.2857143,95.047619 L14.2857143,82.952381 L74.0357143,82.9880952 Z M74.0357143,103.416667 L74.0357143,115.47619 L14.2857143,115.47619 L14.2857143,103.380952 L74.0357143,103.416667 Z M82.3690476,76.2142857 L94.5238095,76.2142857 L94.5238095,135.714286 L82.4285714,135.714286 L82.3690476,76.2142857 Z M102.857143,76.1904762 L114.940476,76.1904762 L114.940476,135.714286 L102.857143,135.714286 L102.857143,76.1904762 Z M75.0595238,67.8571429 L75.0595238,55.7619048 L135.77381,55.7619048 L135.77381,67.8571429 L75.0595238,67.8571429 Z M75.0595238,47.4404762 L75.0595238,35.3333333 L135.77381,35.3333333 L135.77381,47.4285714 L75.0595238,47.4404762 Z M14.2857143,14.2857143 L25.8928571,14.2857143 L25.8928571,74.6190476 L14.2857143,74.6190476 L14.2857143,14.2857143 C14.2857143,14.2857143 14.2857143,14.2857143 14.2857143,14.2857143 Z M14.2857143,135.714286 L14.2857143,123.809524 L74.0952381,123.809524 L74.0952381,135.714286 L14.2857143,135.714286 Z M135.714286,135.714286 L123.27381,135.714286 L123.27381,76.1904762 L135.714286,76.1904762 L135.714286,135.714286 C135.714286,135.714286 135.714286,135.714286 135.714286,135.714286 Z" id="Shape"></path>
            </g>
        </g>
    </g>
</svg>