<?xml version="1.0" encoding="UTF-8"?>
<svg width="250px" height="250px" viewBox="0 0 250 250" version="1.1" xmlns="http://www.w3.org/2000/svg" xmlns:xlink="http://www.w3.org/1999/xlink">
    <!-- Generator: Sketch 48.2 (47327) - http://www.bohemiancoding.com/sketch -->
    <title>Images/Categories/Land use</title>
    <desc>Created with Sketch.</desc>
    <defs></defs>
    <g id="Library-Symbols" stroke="none" stroke-width="1" fill="none" fill-rule="evenodd">
        <g id="Images/Categories/Land-use">
            <circle id="Oval-2" fill="#BFEFE9" cx="125" cy="125" r="125"></circle>
            <path d="M185.714286,50 L64.2857143,50 C56.3959321,50 50,56.3959321 50,64.2857143 L50,185.714286 C50,193.604068 56.3959321,200 64.2857143,200 L185.714286,200 C193.604068,200 200,193.604068 200,185.714286 L200,64.2857143 C200,56.3959321 193.604068,50 185.714286,50 Z M185.714286,64.2857143 L185.714286,77 L125,77 L125,64.2857143 L185.714286,64.2857143 Z M116.666667,124.654762 L104.642857,124.654762 L104.642857,64.2857143 L116.72619,64.2857143 L116.666667,124.654762 Z M96.25,124.654762 L84.2142857,124.654762 L84.2142857,64.2857143 L96.3095238,64.2857143 L96.25,124.654762 Z M124.035714,132.988095 L124.035714,145.047619 L64.2857143,145.047619 L64.2857143,132.952381 L124.035714,132.988095 Z M124.035714,153.416667 L124.035714,165.47619 L64.2857143,165.47619 L64.2857143,153.380952 L124.035714,153.416667 Z M132.369048,126.214286 L144.52381,126.214286 L144.52381,185.714286 L132.428571,185.714286 L132.369048,126.214286 Z M152.857143,126.190476 L164.940476,126.190476 L164.940476,185.714286 L152.857143,185.714286 L152.857143,126.190476 Z M125.059524,117.857143 L125.059524,105.761905 L185.77381,105.761905 L185.77381,117.857143 L125.059524,117.857143 Z M125.059524,97.4404762 L125.059524,85.3333333 L185.77381,85.3333333 L185.77381,97.4285714 L125.059524,97.4404762 Z M64.2857143,64.2857143 L75.8928571,64.2857143 L75.8928571,124.619048 L64.2857143,124.619048 L64.2857143,64.2857143 C64.2857143,64.2857143 64.2857143,64.2857143 64.2857143,64.2857143 Z M64.2857143,185.714286 L64.2857143,173.809524 L124.095238,173.809524 L124.095238,185.714286 L64.2857143,185.714286 Z M185.714286,185.714286 L173.27381,185.714286 L173.27381,126.190476 L185.714286,126.190476 L185.714286,185.714286 C185.714286,185.714286 185.714286,185.714286 185.714286,185.714286 Z" id="Shape" fill="#15514B" fill-rule="nonzero"></path>
        </g>
    </g>
</svg>