<?xml version="1.0" encoding="UTF-8"?>
<svg width="250px" height="250px" viewBox="0 0 250 250" version="1.1" xmlns="http://www.w3.org/2000/svg" xmlns:xlink="http://www.w3.org/1999/xlink">
    <!-- Generator: Sketch 48.2 (47327) - http://www.bohemiancoding.com/sketch -->
    <title>Images/Categories/Planning</title>
    <desc>Created with Sketch.</desc>
    <defs></defs>
    <g id="Library-Symbols" stroke="none" stroke-width="1" fill="none" fill-rule="evenodd">
        <g id="Images/Categories/Planning">
            <circle id="Oval-2" fill="#F8F1D4" cx="125" cy="125" r="125"></circle>
            <g id="planning" transform="translate(51.000000, 62.000000)">
                <path d="M24.3945312,32.1679688 L20.09375,36.7851563 C18.5506674,37.9240433 16.4454263,37.9240433 14.9023437,36.7851563 L1.34375,22.9335938 C0.579276506,22.4030658 0.137613269,21.5197393 0.171875,20.5898438 C0.166710856,19.6508453 0.471532109,18.7363815 1.0390625,17.9882813 L5.65625,13.7109375 C6.31607468,12.9731553 7.25633789,12.5476968 8.24609375,12.5390625 C9.17598932,12.5048008 10.0593158,12.946464 10.5898437,13.7109375 L17.2226562,20.0507813 L35.6445312,1.59375 C36.2714239,0.991702896 37.1204952,0.677546514 37.9882812,0.7265625 C38.9239795,0.719565794 39.8353059,1.0247158 40.578125,1.59375 L45.4882812,6.50390625 C46.0412983,7.20136415 46.3464008,8.06307269 46.3554687,8.953125 C46.3179324,9.89586161 45.8941269,10.7816152 45.1835937,11.4023438 L45.4765625,11.4023438 L24.3945312,32.1679688 Z M24.3945312,78.3046875 L20.09375,82.640625 C19.4276839,83.3697954 18.4856366,83.785186 17.4980469,83.785186 C16.5104571,83.785186 15.5684098,83.3697954 14.9023437,82.640625 L1.34375,69.140625 C0.640908421,68.5140855 0.218762068,67.6317996 0.171875,66.6914063 C0.180942935,65.8013539 0.486045481,64.9396454 1.0390625,64.2421875 L5.65625,59.625 C6.39906913,59.0559658 7.3103955,58.7508158 8.24609375,58.7578125 C9.11387977,58.7087965 9.96295107,59.0229529 10.5898437,59.625 L17.2226562,65.9648438 L35.6796875,47.8007812 C36.2102155,47.0363078 37.0935419,46.5946445 38.0234375,46.6289063 C39.0131934,46.6375406 39.9534566,47.062999 40.6132812,47.8007813 L45.5234375,52.6992188 C46.1254846,53.3261114 46.439641,54.1751827 46.390625,55.0429688 C46.3752827,56.034612 45.9512622,56.9759375 45.21875,57.6445313 L45.5117187,57.6445313 L24.3945312,78.3046875 Z M8.6796875,101.671875 C6.00870744,104.233381 4.49861214,107.773873 4.49861214,111.474609 C4.49861214,115.175346 6.00870744,118.715837 8.6796875,121.277344 C11.3159712,123.910362 14.903253,125.368091 18.6289062,125.320313 C22.3163307,125.384304 25.8661747,123.921106 28.4375,121.277344 C33.8128352,115.847526 33.8128352,107.101693 28.4375,101.671875 C25.8661747,99.0281125 22.3163307,97.5649152 18.6289062,97.6289062 C14.903253,97.5811278 11.3159712,99.0388572 8.6796875,101.671875 Z" id="Shape" fill="#F2C706" fill-rule="nonzero"></path>
                <path d="M143.210937,29.5664063 C144.449055,29.6198847 145.652961,29.1522684 146.530372,28.2770847 C147.407783,27.401901 147.878457,26.1991873 147.828125,24.9609375 L147.828125,13.4179688 C147.878457,12.1797189 147.407783,10.9770053 146.530372,10.1018216 C145.652961,9.22663787 144.449055,8.75902151 143.210937,8.8125 L60.1601562,8.8125 C58.9220383,8.75902151 57.7181324,9.22663787 56.8407218,10.1018216 C55.9633112,10.9770053 55.4926369,12.1797189 55.5429687,13.4179688 L55.5429687,24.9609375 C55.4926369,26.1991873 55.9633112,27.401901 56.8407218,28.2770847 C57.7181324,29.1522684 58.9220383,29.6198847 60.1601562,29.5664063 L143.210937,29.5664063 Z" id="Path" fill="#F6E286"></path>
                <path d="M143.210937,75.7148438 C144.449169,75.7613688 145.650795,75.2898735 146.526975,74.4136937 C147.403155,73.537514 147.87465,72.3358878 147.828125,71.0976562 L147.828125,59.5664062 C147.87465,58.3281747 147.403155,57.1265485 146.526975,56.2503688 C145.650795,55.374189 144.449169,54.9026937 143.210937,54.9492187 L60.1601562,54.9492187 C58.9219247,54.9026937 57.7202985,55.374189 56.8441188,56.2503688 C55.967939,57.1265485 55.4964437,58.3281747 55.5429687,59.5664062 L55.5429687,71.0976562 C55.4964437,72.3358878 55.967939,73.537514 56.8441188,74.4136937 C57.7202985,75.2898735 58.9219247,75.7613688 60.1601562,75.7148437 L143.210937,75.7148438 Z" id="Path" fill="#F6E286"></path>
                <path d="M143.210938,121.851563 C144.449055,121.905041 145.652961,121.437425 146.530372,120.562241 C147.407783,119.687057 147.878457,118.484344 147.828125,117.246094 L147.828125,105.703125 C147.878457,104.464875 147.407783,103.262162 146.530372,102.386978 C145.652961,101.511794 144.449055,101.044178 143.210938,101.097656 L60.1601563,101.097656 C58.9220383,101.044178 57.7181324,101.511794 56.8407218,102.386978 C55.9633112,103.262162 55.4926369,104.464875 55.5429688,105.703125 L55.5429688,117.246094 C55.4858716,118.488322 55.9535548,119.697343 56.831755,120.577773 C57.7099553,121.458202 58.9177872,121.928948 60.1601563,121.875 L143.210938,121.851563 Z" id="Path" fill="#F6E286"></path>
            </g>
        </g>
    </g>
</svg>