<?xml version="1.0" encoding="UTF-8"?>
<svg width="250px" height="250px" viewBox="0 0 250 250" version="1.1" xmlns="http://www.w3.org/2000/svg" xmlns:xlink="http://www.w3.org/1999/xlink">
    <!-- Generator: Sketch 48.2 (47327) - http://www.bohemiancoding.com/sketch -->
    <title>Images/Categories/Policies</title>
    <desc>Created with Sketch.</desc>
    <defs></defs>
    <g id="Library-Symbols" stroke="none" stroke-width="1" fill="none" fill-rule="evenodd">
        <g id="Images/Categories/Policies">
            <circle id="Oval-2" fill="#F2F2F2" cx="125" cy="125" r="125"></circle>
            <g id="policies" transform="translate(65.000000, 46.000000)">
                <path d="M69.85,42.775 C69.8399621,44.7340316 70.6137449,46.6157296 71.9990077,48.0009923 C73.3842704,49.3862551 75.2659684,50.1600379 77.225,50.15 L119.0625,50.15 L119.0625,151.05 C119.075925,153.013372 118.301913,154.900222 116.913568,156.288568 C115.525222,157.676913 113.638372,158.450925 111.675,158.4375 L8.325,158.4375 C6.3616283,158.450925 4.47477836,157.676913 3.08643246,156.288568 C1.69808656,154.900222 0.924074764,153.013372 0.9375,151.05 L0.9375,8.325 C0.901498243,6.35742684 1.67945421,4.46228992 3.0875,3.0875 C4.46228992,1.67945421 6.35742684,0.901498243 8.325,0.9375 L69.85,0.9375 L69.85,42.775 Z M89.525,73.5375 C89.5285736,72.5475286 89.1325909,71.5979851 88.4267133,70.9038721 C87.7208356,70.2097591 86.7647716,69.8297899 85.775,69.85 L34.1625,69.85 C33.1834954,69.8466644 32.243626,70.2340965 31.5513612,70.9263612 C30.8590965,71.618626 30.4716644,72.5584954 30.475,73.5375 L30.475,76.0375 C30.4547899,77.0272716 30.8347591,77.9833356 31.5288721,78.6892133 C32.2229851,79.3950909 33.1725286,79.7910736 34.1625,79.7875 L85.8375,79.7875 C86.8382468,79.8081406 87.8041135,79.4196842 88.5118988,78.7118988 C89.2196842,78.0041135 89.6081406,77.0382468 89.5875,76.0375 L89.525,73.5375 Z M89.525,95.6875 L89.525,93.1875 C89.525,91.1164322 87.8460678,89.4375 85.775,89.4375 L34.1625,89.4375 C32.1158808,89.471615 30.4747157,91.1405965 30.475,93.1875 L30.475,95.6875 C30.4547899,96.6772716 30.8347591,97.6333356 31.5288721,98.3392133 C32.2229851,99.0450909 33.1725286,99.4410736 34.1625,99.4375 L85.8375,99.4375 C86.8382468,99.4581406 87.8041135,99.0696842 88.5118988,98.3618988 C89.2196842,97.6541135 89.6081406,96.6882468 89.5875,95.6875 L89.525,95.6875 Z M89.525,115.375 L89.525,112.875 C89.5456406,111.874253 89.1571842,110.908386 88.4493988,110.200601 C87.7416135,109.492816 86.7757468,109.104359 85.775,109.125 L34.1625,109.125 C33.1725286,109.121426 32.2229851,109.517409 31.5288721,110.223287 C30.8347591,110.929164 30.4547899,111.885228 30.475,112.875 L30.475,115.375 C30.4547899,116.364772 30.8347591,117.320836 31.5288721,118.026713 C32.2229851,118.732591 33.1725286,119.128574 34.1625,119.125 L85.8375,119.125 C86.8382468,119.145641 87.8041135,118.757184 88.5118988,118.049399 C89.2196842,117.341614 89.6081406,116.375747 89.5875,115.375 L89.525,115.375 Z" id="Shape" fill="#A4A49A" fill-rule="nonzero"></path>
                <path d="M119.0625,38.4625 C119.099529,36.4983974 118.321141,34.6067334 116.9125,33.2375 L86.7625,3.0875 C85.3932666,1.67885884 83.5016026,0.900470788 81.5375,0.9375 L79.6875,0.9375 L79.6875,40.3125 L119.0625,40.3125 L119.0625,38.4625 Z" id="Path" fill="#C9C9C3"></path>
            </g>
        </g>
    </g>
</svg>