<?xml version="1.0" encoding="UTF-8"?>
<svg width="250px" height="250px" viewBox="0 0 250 250" version="1.1" xmlns="http://www.w3.org/2000/svg" xmlns:xlink="http://www.w3.org/1999/xlink">
    <!-- Generator: Sketch 48.2 (47327) - http://www.bohemiancoding.com/sketch -->
    <title>Images/Categories/Practice and behavior</title>
    <desc>Created with Sketch.</desc>
    <defs></defs>
    <g id="Library-Symbols" stroke="none" stroke-width="1" fill="none" fill-rule="evenodd">
        <g id="Images/Categories/Practice-and-behavior">
            <circle id="Oval-2" fill="#FCE7DC" cx="125" cy="125" r="125"></circle>
            <path d="M76.7890625,165.507813 L76.7890625,166.557031 L47.4507813,166.557031 C45.7779303,166.588376 44.1669542,165.92475 43.0015625,164.724219 C41.8171804,163.569779 41.1552072,161.982002 41.16875,160.328125 L41.16875,149.530469 C41.1879079,143.819706 45.0835824,138.851627 50.625,137.471094 L57.690625,135.638281 C64.2942069,140.340324 72.9117338,141.141247 80.26875,137.736719 C78.0351984,141.264559 76.8513606,145.355018 76.8554688,149.530469 L76.7890625,165.507813 Z" id="Path" fill="#FFBFA1"></path>
            <path d="M70.546875,136.15625 C65.6736301,136.252985 60.9773094,134.330234 57.5710938,130.84375 C50.4159108,123.677997 50.4159108,112.071222 57.5710938,104.905469 C60.9809175,101.424345 65.6748167,99.5025847 70.546875,99.5929688 C75.4149417,99.5030959 80.1045378,101.425062 83.509375,104.905469 C86.9521962,108.343404 88.8867642,113.009179 88.8867642,117.874609 C88.8867642,122.74004 86.9521962,127.405815 83.509375,130.84375 C80.1081539,134.329523 75.4161315,136.252483 70.546875,136.15625 Z" id="Path" fill="#FFBFA1"></path>
            <path d="M154.64375,131.189062 C158.810734,132.097103 162.522452,134.449269 165.122656,137.829687 C167.737647,141.150772 169.142992,145.263748 169.107031,149.490625 L169.107031,165.428125 C169.139916,167.971684 168.139418,170.419749 166.334452,172.212197 C164.529486,174.004646 162.074518,174.988084 159.53125,174.9375 L90.46875,174.9375 C87.9645921,174.948149 85.5599222,173.958086 83.7891992,172.187363 C82.0184761,170.41664 81.0284139,168.01197 81.0390625,165.507812 L81.0390625,149.570312 C81.0031018,145.343435 82.4084465,141.23046 85.0234375,137.909375 C87.6236422,134.528956 91.3353595,132.176791 95.5023438,131.26875 L105.98125,128.6125 C111.243702,132.466941 117.538721,134.659328 124.057031,134.907812 C131.287203,135.235888 138.398992,132.986096 144.125,128.559375 L154.64375,131.189062 Z" id="Path" fill="#ED5C14"></path>
            <path d="M125,74.3320313 C117.678431,74.2746756 110.640838,77.161465 105.468546,82.3437477 C100.296253,87.5260304 97.4230483,94.56918 97.4945312,101.890625 C97.494531,111.717383 102.737044,120.797681 111.247265,125.71106 C119.757487,130.624439 130.242513,130.624439 138.752735,125.71106 C147.262956,120.797681 152.505469,111.717383 152.505469,101.890625 C152.584239,94.5669991 149.713379,87.5196043 144.539493,82.3357251 C139.365606,77.151846 132.323764,74.2673929 125,74.3320313 Z" id="Path" fill="#ED5C14"></path>
            <path d="M179.453125,136.15625 C169.344192,136.134293 161.158859,127.93708 161.151563,117.828125 C161.15139,109.527783 166.725553,102.261886 174.742681,100.112159 C182.759809,97.9624324 191.221384,101.464763 195.373987,108.651665 C199.526591,115.838566 198.335058,124.918479 192.46875,130.790625 C189.060265,134.304144 184.347444,136.246981 179.453125,136.15625 Z" id="Path" fill="#FFBFA1"></path>
            <path d="M199.375,137.484375 C204.905873,138.875195 208.788598,143.840709 208.804687,149.54375 L208.804687,160.328125 C208.815343,161.998685 208.157339,163.604102 206.977299,164.786637 C205.797258,165.969172 204.193235,166.630565 202.522656,166.623438 L173.210937,166.623438 L173.210937,149.530469 C173.192812,145.274821 172.012577,141.104962 169.797656,137.471094 C173.191827,139.198461 176.976975,140.01316 180.78125,139.835156 C184.965089,139.65991 188.992106,138.193853 192.309375,135.638281 L199.375,137.484375 Z" id="Path" fill="#FFBFA1"></path>
        </g>
    </g>
</svg>