<?xml version="1.0" encoding="UTF-8"?>
<svg width="250px" height="250px" viewBox="0 0 250 250" version="1.1" xmlns="http://www.w3.org/2000/svg" xmlns:xlink="http://www.w3.org/1999/xlink">
    <!-- Generator: Sketch 48.2 (47327) - http://www.bohemiancoding.com/sketch -->
    <title>Images/Categories/Research and monitoring</title>
    <desc>Created with Sketch.</desc>
    <defs></defs>
    <g id="Library-Symbols" stroke="none" stroke-width="1" fill="none" fill-rule="evenodd">
        <g id="Images/Categories/Research-and-monitoring">
            <circle id="Oval-2" fill="#BFEFE9" cx="125" cy="125" r="125"></circle>
            <path d="M197.80315,162.61811 C198.465094,163.267393 198.832177,164.159489 198.818898,165.086614 L198.818898,176.720472 C198.838401,177.66606 198.471355,178.57869 197.802582,179.247463 C197.133808,179.916237 196.221178,180.283282 195.275591,180.26378 L53.5433071,180.26378 C52.6161817,180.277058 51.7240855,179.909976 51.0748031,179.248031 C50.3759641,178.594895 49.9856023,177.676901 50,176.720472 L50,72.0748031 C49.986721,71.1476777 50.3538037,70.2555815 51.015748,69.6062992 C51.6791777,68.9291936 52.5958225,68.5608223 53.5433071,68.5905512 L65.1181102,68.5905512 C66.0431539,68.5873994 66.9312195,68.953477 67.585328,69.6075854 C68.2394364,70.2616939 68.605514,71.1497595 68.6023622,72.0748031 L68.6023622,161.602362 L195.334646,161.602362 C196.261771,161.589083 197.153867,161.956166 197.80315,162.61811 Z" id="Shape" fill="#4AA49B" fill-rule="nonzero"></path>
            <path d="M133.716535,112.775591 L109.055118,79.6338583 C108.3364,78.6899924 107.17522,78.1923438 105.996063,78.3228346 C104.831087,78.3215871 103.75075,78.9312374 103.149606,79.9291339 L77.8976378,122.070866 L77.8976378,152.307087 L189.511811,152.307087 L163.385827,97.6574803 C163.012523,96.706593 162.19556,96.0000306 161.200787,95.7677165 C160.217635,95.4563455 159.143032,95.7364769 158.437008,96.488189 L158.437008,96.2047244 L133.716535,112.775591 Z" id="Path" fill="#15514B"></path>
        </g>
    </g>
</svg>