<?xml version="1.0" encoding="UTF-8"?>
<svg width="250px" height="250px" viewBox="0 0 250 250" version="1.1" xmlns="http://www.w3.org/2000/svg" xmlns:xlink="http://www.w3.org/1999/xlink">
    <!-- Generator: Sketch 48.2 (47327) - http://www.bohemiancoding.com/sketch -->
    <title>Images/Categories/Technology</title>
    <desc>Created with Sketch.</desc>
    <defs></defs>
    <g id="Library-Symbols" stroke="none" stroke-width="1" fill="none" fill-rule="evenodd">
        <g id="Images/Categories/Technology">
            <circle id="Oval-2" fill="#BFEFE9" cx="125" cy="125" r="125"></circle>
            <path d="M197.05597,162.735075 C198.607725,162.735075 199.865672,163.993021 199.865672,165.544776 L199.865672,173.962687 C199.865672,180.144979 194.853934,185.156716 188.671642,185.156716 L61.3731343,185.156716 C58.3810689,185.209349 55.5004482,184.022258 53.4141791,181.876866 C51.2687872,179.790597 50.0816959,176.909976 50.1343284,173.91791 L50.1343284,165.5 C50.1225848,164.749763 50.4225355,164.02826 50.9626866,163.507463 C51.4834725,162.975401 52.199582,162.680057 52.9440299,162.690299 L108.623134,162.690299 C109.563433,162.690299 110.022388,163.08209 110.022388,163.809701 C110.288947,165.594048 111.205972,167.216783 112.597015,168.365672 C113.954251,169.562642 115.701546,170.22335 117.511194,170.223881 L132.488806,170.223881 C134.285447,170.251306 136.031202,169.62697 137.402985,168.466418 C138.794028,167.317529 139.711053,165.694795 139.977612,163.910448 C139.977612,163.126866 140.436567,162.791045 141.376866,162.791045 L197.05597,162.735075 Z M173.660448,65.4253731 C179.84274,65.4253731 184.854478,70.437111 184.854478,76.619403 L184.854478,144.018657 C184.854478,150.200949 179.84274,155.212687 173.660448,155.212687 L76.3395522,155.212687 C73.3522608,155.26917 70.4749944,154.085843 68.391791,151.94403 C66.2418525,149.860842 65.0539106,146.978157 65.1119403,143.985075 L65.1119403,76.6529851 C65.0539106,73.6599029 66.2418525,70.7772179 68.391791,68.6940299 C70.4749944,66.5522165 73.3522608,65.3688901 76.3395522,65.4253731 L173.660448,65.4253731 Z M169.910448,80.391791 L80.0895522,80.391791 L80.0895522,140.279851 L169.910448,140.279851 L169.910448,80.391791 Z" id="Shape" fill="#4AA49B" fill-rule="nonzero"></path>
        </g>
    </g>
</svg>