<?xml version="1.0" encoding="UTF-8"?>
<svg width="250px" height="250px" viewBox="0 0 250 250" version="1.1" xmlns="http://www.w3.org/2000/svg" xmlns:xlink="http://www.w3.org/1999/xlink">
    <!-- Generator: Sketch 48.2 (47327) - http://www.bohemiancoding.com/sketch -->
    <title>Images/Categories/Water conservation</title>
    <desc>Created with Sketch.</desc>
    <defs></defs>
    <g id="Library-Symbols" stroke="none" stroke-width="1" fill="none" fill-rule="evenodd">
        <g id="Images/Categories/Water-conservation">
            <circle id="Oval-2" fill="#BFEFE9" cx="125" cy="125" r="125"></circle>
            <g id="water-conservation" transform="translate(51.000000, 50.000000)" fill-rule="nonzero">
                <path d="M64.3267717,56.5866142 C61.2342909,54.7750441 58.6660081,52.1904806 56.8740157,49.0866142 C55.043649,45.9773522 54.0886463,42.4307824 54.1102362,38.8228346 C54.1241828,35.7432908 54.8348442,32.7068283 56.1889764,29.9409449 C57.6198463,27.2052546 59.2585142,24.5833861 61.0905512,22.0984252 C63.4527559,18.6377953 65.3307087,15.8622047 66.5590551,13.8307087 C68.5424259,10.3738271 70.0783565,6.67886229 71.1299213,2.83464567 C71.4502007,1.82881524 72.1851799,1.00787354 73.1496063,0.578740157 C74.0862276,0.164814575 75.1539299,0.164814575 76.0905512,0.578740157 C77.0660017,0.975645143 77.7941009,1.81339783 78.0511811,2.83464567 C79.2049379,6.67295363 80.7525396,10.3816564 82.6692913,13.9015748 C83.8976378,15.980315 85.7204724,18.7362205 88.1377953,22.1692913 C89.9766481,24.6288855 91.6157373,27.2316802 93.0393701,29.9527559 C96.0176435,36.0503179 95.7426925,43.2345217 92.3070866,49.0866142 C90.5020112,52.1964224 87.9168948,54.7815388 84.8070866,56.5866142 C78.460441,60.2706489 70.6261732,60.2706489 64.2795276,56.5866142 L64.3267717,56.5866142 Z" id="Shape" fill="#15514B"></path>
                <path d="M67.503937,91.3346457 L31.6574803,55.511811 C31.5106561,55.3666168 31.3726161,55.2128008 31.2440945,55.0511811 C27.9499551,51.7570417 22.6091,51.7570417 19.3149606,55.0511811 C16.0208213,58.3453205 16.0208213,63.6861756 19.3149606,66.980315 L43.503937,91.1102362 C44.212842,91.8972051 44.4480543,93.0025907 44.1209717,94.0100048 C43.7938892,95.017419 42.9542033,95.7738116 41.9182158,95.9942568 C40.8822282,96.2147021 39.8073301,95.8657091 39.0984252,95.0787402 L15.0748031,71.1023622 C10.4525433,66.4133989 9.6035793,59.1848423 13.0136465,53.5525155 C16.4237136,47.9201887 23.2223391,45.3218311 29.519685,47.2440945 L32.6968504,9.05905512 C33.0164029,4.9410355 30.1333367,1.26264764 26.0582251,0.589100897 C21.9831136,-0.0844458423 18.069765,2.47061007 17.0472441,6.47244094 L0.251968504,73.6417323 C-0.358949138,76.0748644 0.214590788,78.6536049 1.7992126,80.5984252 L34.8700787,121.240157 C36.0259532,122.657479 36.6560579,124.430952 36.6535433,126.259843 L36.6535433,140.988189 C36.653541,143.098395 37.4926245,145.122 38.9858727,146.613033 C40.4791209,148.104065 42.5039697,148.940143 44.6141732,148.937008 L61.8582677,148.937008 C63.9766391,148.952747 66.0136567,148.122237 67.5171464,146.629835 C69.020636,145.137433 69.8662002,143.106619 69.8661417,140.988189 L69.8661417,96.9685039 C69.8580243,94.8513966 69.0081546,92.8244574 67.503937,91.3346457 Z" id="Shape" fill="#4AA49B"></path>
                <path d="M81.476378,91.3346457 L117.358268,55.511811 C117.5,55.3700787 117.629921,55.2165354 117.771654,55.0511811 C121.065793,51.7570417 126.406648,51.7570417 129.700787,55.0511811 C132.994927,58.3453205 132.994927,63.6861756 129.700787,66.980315 L105.511811,91.1102362 C104.802906,91.8972051 104.567694,93.0025906 104.894776,94.0100048 C105.221859,95.017419 106.061545,95.7738115 107.097532,95.9942568 C108.13352,96.214702 109.208418,95.8657091 109.917323,95.0787402 L133.940945,71.1023622 C138.574506,66.4114587 139.425927,59.1710455 136.006949,53.5332214 C132.587972,47.8953973 125.773941,45.3035871 119.472441,47.2440945 L116.318898,9.05905512 C115.999345,4.9410355 118.882411,1.26264764 122.957523,0.589100897 C127.032634,-0.0844458423 130.945983,2.47061007 131.968504,6.47244094 L148.76378,73.6417323 C149.368966,76.074939 148.795998,78.651108 147.216535,80.5984252 L114.145669,121.240157 C112.989795,122.657479 112.35969,124.430952 112.362205,126.259843 L112.362205,140.988189 C112.362207,143.098395 111.523123,145.122 110.029875,146.613033 C108.536627,148.104065 106.511778,148.940143 104.401575,148.937008 L87.1102362,148.937008 C85.0000327,148.940143 82.9751839,148.104065 81.4819357,146.613033 C79.9886875,145.122 79.149604,143.098395 79.1496063,140.988189 L79.1496063,96.9685039 C79.1483336,94.8564875 79.9851588,92.8302661 81.476378,91.3346457 Z" id="Shape" fill="#4AA49B"></path>
            </g>
        </g>
    </g>
</svg>