<?xml version="1.0" encoding="UTF-8"?>
<svg width="250px" height="250px" viewBox="0 0 250 250" version="1.1" xmlns="http://www.w3.org/2000/svg" xmlns:xlink="http://www.w3.org/1999/xlink">
    <!-- Generator: Sketch 48.2 (47327) - http://www.bohemiancoding.com/sketch -->
    <title>Images/Categories/Zoning</title>
    <desc>Created with Sketch.</desc>
    <defs></defs>
    <g id="Library-Symbols" stroke="none" stroke-width="1" fill="none" fill-rule="evenodd">
        <g id="Images/Categories/Zoning">
            <circle id="Oval-2" fill="#EFF9F8" cx="125" cy="125" r="125"></circle>
            <path d="M127.313202,101.559535 C120.611127,102.291893 113.795957,99.9920789 108.876538,95.0614599 C102.423636,88.5938677 100.504729,78.8747313 104.015372,70.4399772 C106.811456,63.7220373 112.61273,58.8736726 119.474359,57.1887957 L119.474359,44.0641026 L130.884615,44.0641026 L130.884615,57.3515098 C140.429956,59.988355 147.435924,68.7352437 147.435897,79.1153846 C147.43589,82.1132058 146.843042,85.0140639 145.748141,87.6821721 L167.880759,147.717949 L177.307692,147.717949 L177.307692,142.641026 L189.461538,142.641026 C194.940225,142.662111 199.37635,147.098236 199.397436,152.576923 L199.397436,154.858974 C199.37635,160.337661 194.940225,164.773786 189.461538,164.794872 L177.307692,164.794872 L177.307692,159.128205 L172.087231,159.128205 L177.064103,172.628205 C178.909546,177.668248 176.439476,183.239433 171.525121,185.282008 L168.871795,204.346154 C168.731062,205.28982 167.965498,206.016221 167.015748,206.107251 C166.065998,206.198281 165.176392,205.630523 164.858974,204.730769 L156.723172,181.33587 C156.55434,181.00156 156.402533,180.654334 156.269231,180.294872 L148.484891,159.128205 L130.884615,159.128205 L130.884615,171.064103 L119.474359,171.064103 L119.474359,135.782051 L130.884615,135.782051 L130.884615,147.717949 L144.288609,147.717949 L127.313202,101.559535 Z" id="Combined-Shape" fill="#B7E4E0" fill-rule="nonzero"></path>
            <path d="M124.910256,69.3589744 C128.857519,69.3537874 132.418993,71.727569 133.93314,75.372876 C135.447287,79.0181831 134.615738,83.2166901 131.826435,86.0096628 C129.037132,88.8026355 124.839722,89.6397051 121.192428,88.1303524 C117.545133,86.6209998 115.16667,83.0626502 115.166667,79.1153846 C115.166662,73.7320708 119.526947,69.3660484 124.910256,69.3589744 Z" id="Shape" fill="#EFF9F8"></path>
            <path d="M78.0616886,159.128205 L72.525641,159.128205 L72.525641,164.794872 L60.3589744,164.794872 C54.8802874,164.773786 50.4441625,160.337661 50.4230769,154.858974 L50.4230769,152.576923 C50.4441625,147.098236 54.8802874,142.662111 60.3589744,142.641026 L72.525641,142.641026 L72.525641,147.717949 L82.2668462,147.717949 L101.884615,94.4871795 C106.253882,101.030409 113.199131,105.407315 120.987179,106.525641 L105.820856,147.717949 L113.948718,147.717949 L113.948718,159.128205 L101.619789,159.128205 L93.8076923,180.346154 C93.7139295,180.598274 93.6110447,180.844364 93.49955,181.084187 L85.3205128,204.615385 C85.0010448,205.515435 84.1089441,206.081599 83.158528,205.987468 C82.2081119,205.893338 81.4444007,205.16318 81.3076923,204.217949 L78.6779709,185.363961 C73.7055056,183.341834 71.204261,177.723367 73.0769231,172.653846 L78.0616886,159.128205 Z" id="Combined-Shape" fill="#46B6AE" fill-rule="nonzero"></path>
        </g>
    </g>
</svg>