<?xml version="1.0" encoding="UTF-8"?>
<svg width="250px" height="250px" viewBox="0 0 250 250" version="1.1" xmlns="http://www.w3.org/2000/svg" xmlns:xlink="http://www.w3.org/1999/xlink">
    <!-- Generator: Sketch 49.1 (51147) - http://www.bohemiancoding.com/sketch -->
    <title>Marketing/risks</title>
    <desc>Created with Sketch.</desc>
    <defs></defs>
    <g id="Marketing/risks" stroke="none" stroke-width="1" fill="none" fill-rule="evenodd">
        <circle id="Oval-2" fill="#BFEFE9" cx="125" cy="125" r="125"></circle>
        <g id="heat-wave" transform="translate(38.000000, 37.000000)" fill-rule="nonzero">
            <path d="M37.1078006,50.9954763 C32.5757169,58.7913539 32.5757169,68.4086461 37.1078006,76.2045237 C39.3292066,80.0235482 42.5134658,83.1975113 46.3448791,85.4117344 C50.1774847,87.6543609 54.5461635,88.824647 58.9902913,88.7996064 L58.9902913,38.4003936 C54.5461635,38.375353 50.1774847,39.5456391 46.3448791,41.7882656 C42.5134658,44.0024887 39.3292066,47.1764518 37.1078006,50.9954763 Z" id="Shape" fill="#15514B"></path>
            <path d="M56.6299288,3.2082376 L50.3641176,18.4664217 C49.7982895,19.6650089 48.7559619,20.5831251 47.4808256,21.0061195 C46.2730723,21.4230084 44.9385654,21.2872707 43.8435986,20.6361635 L29.304879,11.817213 C27.5740783,10.6665759 25.2787193,10.7682305 23.6605547,12.0671833 C21.8373945,13.1132273 21.04607,15.2953215 21.7859055,17.2365681 L25.7899117,33.4746356 C26.1268338,34.7003274 25.8508179,36.0102091 25.046165,37.0042155 C24.266263,38.0344946 23.0855377,38.7007839 21.7859055,38.8439965 L4.7306731,40.1138454 C2.6595765,40.2017445 0.886040333,41.5982312 0.349699422,43.5634349 C-0.477436563,45.5271894 0.201073783,47.791216 1.97982916,49.0027875 L14.7661593,59.5515321 C15.8696624,60.3676835 16.5185684,61.6450446 16.5185684,63.0011216 C16.5185684,64.3571985 15.8696624,65.6345596 14.7661593,66.450711 L1.97982916,76.9994556 C0.215806516,78.2076218 -0.460952697,80.4533521 0.349699422,82.4088118 C0.886040333,84.3740155 2.6595765,85.7705022 4.7306731,85.8584013 L21.7859055,87.0882549 C23.0972586,87.2485677 24.2799614,87.9413634 25.046165,88.9980276 C25.8639834,90.0015415 26.1406892,91.3295769 25.7899117,92.5676028 L21.7859055,108.80567 C21.075993,110.745073 21.8825828,112.905096 23.701308,113.93506 C25.3194726,115.234013 27.6148315,115.335667 29.3456322,114.18503 L43.8843518,105.326084 C44.9793187,104.674977 46.3138255,104.539239 47.5215788,104.956128 C48.8044424,105.388349 49.8480236,106.322046 50.4048708,107.535821 L56.670682,122.794006 C57.3242507,124.789642 59.2650726,126.103244 61.3980583,125.993625 L61.3980583,96.4671387 C55.3985252,96.5152515 49.5013221,94.9412409 44.3530141,91.9176802 C39.2346175,88.9444707 34.9630219,84.7523261 31.9334632,79.7291307 C25.7455015,69.4038752 25.7455015,56.5983679 31.9334632,46.2731124 C34.9630219,41.249917 39.2346175,37.0577724 44.3530141,34.084563 C49.5013221,31.0610022 55.3985252,29.4869916 61.3980583,29.5351044 L61.3980583,0.00861839575 C59.2503218,-0.119768359 57.2872985,1.19750438 56.6299288,3.2082376 Z" id="Shape" fill="#15514B"></path>
            <path d="M119.571802,14.9416587 C117.854746,12.9294611 115.555297,10.2430735 111.458461,9.67260507 L111.187347,9.67260507 C110.825861,9.67260507 110.464376,9.61037215 110.082808,9.6 L109.791611,9.6 C104.670566,9.6 102.029714,12.7116459 100.09175,14.9831473 C98.3746935,16.995345 97.5412686,17.8977223 95.6735934,17.8977223 C95.4662189,17.9090506 95.2584096,17.9090506 95.0510351,17.8977223 C93.6452581,17.6799071 92.8118331,16.7775298 91.325726,15.0350081 C89.6187111,13.0331826 87.3694679,10.3882836 83.3730447,9.7763266 C82.7676839,9.68722228 82.1570101,9.64216533 81.5455346,9.64148861 C76.4244898,9.64148861 73.773596,12.7531345 71.8456733,15.0142638 C70.1185758,17.0368336 69.2851509,17.9392109 67.4174757,17.9392109 L67.4174757,25.1997179 C70.4867335,25.2220564 73.4250638,23.9169766 75.520776,21.6005808 C75.5164228,21.6245737 75.5164228,21.6491931 75.520776,21.6731859 C76.1332931,21.0404846 76.6855627,20.4077833 77.1775846,19.8269427 C78.8946408,17.8043729 79.738107,16.9123678 81.5957409,16.9123678 C81.8029478,16.89573 82.0110924,16.89573 82.2182993,16.9123678 C83.6240763,17.1198108 84.4575012,18.0221881 85.9536496,19.7750819 C87.6707058,21.7250467 89.9099077,24.3595735 93.8762071,24.9507862 C94.4875502,25.0481035 95.1052402,25.0966504 95.7237998,25.0959963 C100.844845,25.0959963 103.485697,21.9843505 105.423661,19.712849 C107.150759,17.6902792 107.984183,16.7982741 109.851859,16.7982741 C110.055889,16.7871567 110.260345,16.7871567 110.464376,16.7982741 C111.870153,17.0160893 112.703578,17.9184666 114.199726,19.6713604 C114.691748,20.252201 115.203852,20.8849023 115.856535,21.5176036 C115.856535,21.5176036 115.856535,21.5176036 115.856535,21.4657428 C117.949614,23.817962 120.907084,25.147665 124,25.1271128 L124,17.8666058 C122.132325,17.8666058 121.2989,16.9642285 119.571802,14.9416587 Z" id="Shape" fill="#4AA49B"></path>
            <path d="M119.525566,108.583317 C117.830097,106.591918 115.572816,103.936721 111.559871,103.335153 C110.962335,103.240813 110.358492,103.195726 109.754045,103.200318 C104.63754,103.200318 101.999029,106.311878 100.062783,108.583317 C98.3472492,110.595459 97.5145631,111.497811 95.6485437,111.497811 C95.441353,111.509139 95.2337279,111.509139 95.0265372,111.497811 C93.6220065,111.280002 92.7893204,110.377649 91.3045307,108.635176 C89.5990291,106.633406 87.3517799,103.98858 83.3588997,103.37664 C82.7540756,103.287538 82.1439431,103.242483 81.5330097,103.241806 C76.4165049,103.241806 73.7679612,106.353366 71.8417476,108.614432 C70.1161812,110.688805 69.2834951,111.539298 67.4174757,111.539298 L67.4174757,118.799604 C68.7168933,118.810843 70.0078468,118.582549 71.2297735,118.125433 C73.609157,117.128602 75.687415,115.492094 77.2491909,113.385491 C78.9647249,111.311117 79.8074434,110.470996 81.6634304,110.470996 C81.8704536,110.454359 82.0784137,110.454359 82.2854369,110.470996 C83.6899676,110.678434 84.5226537,111.580786 86.0174757,113.333631 C87.712945,115.325029 89.9501618,117.959483 93.9330097,118.581795 C94.5438108,118.67911 95.1609532,118.727655 95.7789644,118.727001 C100.895469,118.727001 103.533981,115.615442 105.470227,113.344003 C107.195793,111.26963 108.028479,110.429509 109.894498,110.429509 C110.098348,110.418392 110.302623,110.418392 110.506472,110.429509 C111.911003,110.647318 112.743689,111.54967 114.238511,113.302516 C115.724993,115.284724 117.656938,116.861933 119.866667,117.897252 L120.197735,118.032086 C121.416387,118.488417 122.703914,118.716706 124,118.706258 L124,111.445952 C122.083819,111.508183 121.251133,110.60583 119.525566,108.583317 Z" id="Shape" fill="#4AA49B"></path>
            <path d="M119.58797,77.3703459 C117.658335,75.1109087 115.005087,72.0015913 109.879494,72.0015913 C107.708579,71.9633645 105.578798,72.6146759 103.779034,73.8671817 C103.779034,73.8671817 103.779034,73.8671817 103.779034,73.8671817 C102.409498,74.8800458 101.176011,76.0754254 100.110718,77.4221679 C98.3921364,79.4328598 97.5579713,80.3345618 95.6886375,80.3345618 C95.4810788,80.3458817 95.273085,80.3458817 95.0655262,80.3345618 C93.6585008,80.1169096 92.8243356,79.2152076 91.3369087,77.4739898 C90.2706257,76.1245307 89.0334474,74.92885 87.6585421,73.9190037 C85.8593406,72.6652688 83.7291746,72.0138398 81.5580817,72.0534133 C76.4324889,72.0534133 73.7792409,75.1627306 71.849606,77.4221679 C70.1209747,79.4950461 69.2868096,80.3449262 67.4174757,80.3449262 L67.4174757,87.6 C72.5430685,87.6 75.1963165,84.4906827 77.1259515,82.220881 C78.8545828,80.1480028 79.6887479,79.3084871 81.5580817,79.3084871 C83.4274155,79.3084871 84.2314301,80.1169096 85.9600614,82.1897878 C87.6886927,84.262666 89.8997327,86.7812131 93.8695546,87.3719834 C94.4814405,87.4692278 95.0996791,87.5177384 95.718788,87.5170849 C100.844381,87.5170849 103.487579,84.4077675 105.427264,82.1379659 C107.155895,80.0650876 107.99006,79.2255719 109.859394,79.2255719 C111.728728,79.2255719 112.562893,80.1169096 114.291524,82.1379659 C116.221159,84.4077675 118.874407,87.5170849 124,87.5170849 L124,80.2620111 C122.150767,80.2931042 121.316601,79.3914022 119.58797,77.3703459 Z" id="Shape" fill="#4AA49B"></path>
            <path d="M119.569444,46.1210106 C117.851473,44.1087766 115.550798,41.4327128 111.532153,40.862234 C111.371407,40.862234 111.200615,40.862234 111.039869,40.8 L110.818844,40.8 C110.507399,40.8 110.175861,40.8 109.814182,40.8 C104.69041,40.8 102.048151,43.9117021 100.109154,46.1832447 C98.3911835,48.1954787 97.5573147,49.0978723 95.6886446,49.0978723 C95.4811596,49.1092009 95.2732397,49.1092009 95.0657546,49.0978723 C93.6592288,48.8800532 92.8253599,47.9776596 91.3384612,46.2351064 C89.630537,44.2332447 87.3800957,41.5882979 83.3815437,40.9763298 C82.7758605,40.8872239 82.1648614,40.8421661 81.5530602,40.8414894 C76.4292876,40.8414894 73.7769817,43.9531915 71.848032,46.2143617 C70.1200146,48.2369681 69.2861457,49.1393617 67.4174757,49.1393617 L67.4174757,56.4 C72.5412483,56.4 75.1935542,53.2882979 77.1225039,51.0167553 C78.7902416,48.8696809 79.6542503,47.9984043 81.5229203,47.9984043 C83.3915904,47.9984043 84.2254592,48.8696809 85.9534767,50.9441489 C87.6814941,53.018617 89.6506302,55.2797872 93.2372711,56.0680851 L93.5487161,56.1303191 L93.940534,56.1925532 C94.5319249,56.2901458 95.1299339,56.3387052 95.7288311,56.337766 C100.852604,56.337766 103.494863,53.2260638 105.433859,50.9545213 C107.161877,48.9319149 107.995746,48.0398936 109.864416,48.0398936 C111.733086,48.0398936 112.566954,48.9319149 114.294972,50.9545213 C116.223922,53.2260638 118.876227,56.337766 124,56.337766 L124,49.0771277 C122.13133,49.0460106 121.297461,48.143617 119.569444,46.1210106 Z" id="Shape" fill="#4AA49B"></path>
        </g>
        <g id="Group-2" transform="translate(125.000000, 97.000000)">
            <path d="M41.499995,21 C19.1350112,21.0000026 1.00360145,39.1284949 1,61.4934782 C0.996398554,83.8584616 19.1219689,101.992792 41.4869515,101.999998 C63.8519342,102.007203 81.9891857,83.8845557 81.9999953,61.5195747 C82.0051884,50.7749157 77.7405291,40.4685527 70.1447427,32.8690952 C62.5489564,25.2696377 52.2446553,20.9999987 41.499995,21 Z" id="Shape" fill="#15514B" fill-rule="nonzero"></path>
            <path d="M41.499995,42.5321411 C51.9743772,42.526742 60.4704237,51.0125725 60.4776267,61.4869536 C60.4848298,71.9613346 52.0004625,80.4588423 41.5260828,80.4678493 C31.0517031,80.4768563 22.5527342,71.9939526 22.5419234,61.5195747 C22.5365143,51.0423285 31.022753,42.5429466 41.499995,42.5321411 Z" id="Path" fill="#BFEFE9"></path>
            <path d="M74.3406488,39.2825737 C72.0759851,35.4188944 64.8251735,27.7610622 56.4760485,24.5628495 C54.7070837,23.8775182 52.4229809,22.2883442 52.4229809,19.1993872 C52.4229809,16.1104302 54.5807291,14.0544363 56.2233393,13.0115409 C63.5810664,8.37313925 77.0718527,8.27381588 79.793337,7.49909355 C83.0008006,6.57538616 82.6022975,1.75820244 79.3073576,1.2715179 C71.2886986,0.0597727199 61.4233181,-0.655355584 51.6259748,0.854359724 C32.7699766,3.74466995 13.8653805,19.1993872 4,47 L74.3406488,39.2825737 Z" id="Shape" fill="#15514B" fill-rule="nonzero"></path>
            <path d="M7.65935116,84.718369 C9.92401486,88.5825203 17.1748265,96.2412881 25.5239515,99.4398914 C27.2929163,100.125306 29.5770191,101.714675 29.5770191,104.804009 C29.5770191,107.893343 27.4192709,109.949588 25.7766607,110.992611 C18.4480924,115.631579 4.9281473,115.730915 2.20666303,116.505732 C-1.00080058,117.429552 -0.602297524,122.247324 2.69264236,122.734068 C10.7113014,123.926094 20.5766819,124.661177 30.3740252,123.151277 C49.2300234,120.260614 68.1346195,104.804009 78,77 L7.65935116,84.718369 Z" id="Shape" fill="#15514B" fill-rule="nonzero"></path>
        </g>
    </g>
</svg>