<?xml version="1.0" encoding="UTF-8"?>
<svg width="250px" height="250px" viewBox="0 0 250 250" version="1.1" xmlns="http://www.w3.org/2000/svg" xmlns:xlink="http://www.w3.org/1999/xlink">
    <!-- Generator: Sketch 49.1 (51147) - http://www.bohemiancoding.com/sketch -->
    <title>Marketing/assessment</title>
    <desc>Created with Sketch.</desc>
    <defs></defs>
    <g id="Marketing/assessment" stroke="none" stroke-width="1" fill="none" fill-rule="evenodd">
        <circle id="Oval-2" fill="#BFEFE9" cx="125" cy="125" r="125"></circle>
        <path d="M187,67.3984375 L187,195.829241 C187,205.8648 178.803765,214 168.692913,214 L81.3070866,214 C71.1962352,214 63,205.8648 63,195.829241 L63,67.3984375 C63,57.3628788 71.1962352,49.2276786 81.3070866,49.2276786 L100.102362,49.2276786 C100.102362,35.8683852 111.052288,25 124.511811,25 C137.971334,25 148.92126,35.8683852 148.92126,49.2276786 L168.692913,49.2276786 C178.803765,49.2276786 187,57.3628788 187,67.3984375 Z M124.511811,40.1422991 C119.456385,40.1422991 115.358268,44.2098992 115.358268,49.2276786 C115.358268,54.2454579 119.456385,58.313058 124.511811,58.313058 C129.567237,58.313058 133.665354,54.2454579 133.665354,49.2276786 C133.665354,44.2098992 129.567237,40.1422991 124.511811,40.1422991 Z" id="Shape" fill="#4AA49B" fill-rule="nonzero"></path>
        <path d="M133.333333,105.0625 L133.333333,70 L81.25,70 C77.7864583,70 75,72.7585938 75,76.1875 L75,195.8125 C75,199.241406 77.7864583,202 81.25,202 L168.75,202 C172.213542,202 175,199.241406 175,195.8125 L175,111.25 L139.583333,111.25 C136.145833,111.25 133.333333,108.465625 133.333333,105.0625 Z M175,101.427344 L175,103 L141.666667,103 L141.666667,70 L143.255208,70 C144.921875,70 146.510417,70.6445312 147.682292,71.8046875 L173.177083,97.0703125 C174.348958,98.2304688 175,99.803125 175,101.427344 Z" id="Shape" fill="#15514B" fill-rule="nonzero"></path>
        <path d="M116.666667,105.0625 L116.666667,70 L168.75,70 C172.213542,70 175,72.7585938 175,76.1875 L175,195.8125 C175,199.241406 172.213542,202 168.75,202 L81.25,202 C77.7864583,202 75,199.241406 75,195.8125 L75,111.25 L110.416667,111.25 C113.854167,111.25 116.666667,108.465625 116.666667,105.0625 Z" id="Path" fill="#15514B"></path>
        <path d="M140.361111,172.424602 C140.361111,174.111416 138.972049,175.491537 137.274306,175.491537 L94.0590278,175.491537 C92.3612847,175.491537 90.9722222,174.111416 90.9722222,172.424602 L90.9722222,170.379979 C90.9722222,168.693164 92.3612847,167.313043 94.0590278,167.313043 L137.274306,167.313043 C138.972049,167.313043 140.361111,168.693164 140.361111,170.379979 L140.361111,172.424602 Z" id="Path" fill="#BFEFE9"></path>
        <path d="M153.097222,73.127863 C153.097222,75.8100577 151.483941,78.0045807 149.512153,78.0045807 L99.3211806,78.0045807 C97.3493924,78.0045807 95.7361111,75.8100577 95.7361111,73.127863 L95.7361111,69.8767178 C95.7361111,67.194523 97.3493924,65 99.3211806,65 L149.512153,65 C151.483941,65 153.097222,67.194523 153.097222,69.8767178 L153.097222,73.127863 Z" id="Path-Copy" fill="#4AA49B"></path>
        <path d="M157.990438,156.382503 C157.990438,158.069318 156.094614,159.449439 153.777494,159.449439 L94.7962774,159.449439 C92.4791582,159.449439 90.5833333,158.069318 90.5833333,156.382503 L90.5833333,154.33788 C90.5833333,152.651066 92.4791582,151.270945 94.7962774,151.270945 L153.777494,151.270945 C156.094614,151.270945 157.990438,152.651066 157.990438,154.33788 L157.990438,156.382503 Z" id="Path" fill="#BFEFE9"></path>
        <path d="M157.771696,133.452652 C158.640615,133.452652 159.35155,134.168013 159.35155,135.042344 L159.35155,140.341316 C159.35155,141.215647 158.640615,141.931008 157.771696,141.931008 L93.5242985,141.931008 C92.6553788,141.931008 91.9444444,141.215647 91.9444444,140.341316 L91.9444444,92.6505614 C91.9444444,91.7762309 92.6553788,91.0608696 93.5242985,91.0608696 L98.7904786,91.0608696 C99.6593983,91.0608696 100.370333,91.7762309 100.370333,92.6505614 L100.370333,133.452652 L157.771696,133.452652 Z M141.012077,103.712167 L129.860941,111.196966 L118.630812,96.134636 C117.959374,95.2338106 116.590167,95.3000478 116.010887,96.2671103 L104.583277,115.436144 L104.583277,129.213473 L155.138606,129.213473 L143.302866,104.334796 C142.881571,103.473713 141.802004,103.18227 141.012077,103.712167 Z" id="Shape" fill="#BFEFE9" fill-rule="nonzero"></path>
    </g>
</svg>