<?xml version="1.0" encoding="UTF-8"?>
<svg width="250px" height="250px" viewBox="0 0 250 250" version="1.1" xmlns="http://www.w3.org/2000/svg" xmlns:xlink="http://www.w3.org/1999/xlink">
    <!-- Generator: Sketch 49.1 (51147) - http://www.bohemiancoding.com/sketch -->
    <title>Marketing/collaborate</title>
    <desc>Created with Sketch.</desc>
    <defs></defs>
    <g id="Marketing/collaborate" stroke="none" stroke-width="1" fill="none" fill-rule="evenodd">
        <circle id="Oval-2" fill="#BFEFE9" cx="125" cy="125" r="125"></circle>
        <path d="M50,126.5 C50,85.3546714 83.3546714,52 124.5,52 C165.645329,52 199,85.3546714 199,126.5 C199,167.645329 165.645329,201 124.5,201 C83.3546714,201 50,167.645329 50,126.5 Z" id="Shape" fill="#15514B" fill-rule="nonzero"></path>
        <path d="M73,165.597344 C84.7240878,182.190587 103.869264,193 125.5,193 C147.130736,193 166.275912,182.190587 178,165.597344 C177.060625,157.391627 171.221012,150.502959 163.184739,148.460499 L153.502692,146 C145.706571,152.804452 135.88426,156.516634 125.5,156.516634 C115.11574,156.516634 105.293429,152.804452 97.4970093,146 L87.814962,148.460499 C79.7789883,150.502959 73.9393745,157.391627 73,165.597344 Z" id="Path" fill="#BFEFE9"></path>
        <path d="M92,111 C92,129.777714 107.222286,145 126,145 C144.777714,145 160,129.777714 160,111 C160,92.2222857 144.777714,77 126,77 C107.222286,77 92,92.2222857 92,111 Z" id="Path" fill="#BFEFE9"></path>
        <path d="M174,42 C159.637097,42 148,53.6370968 148,68 C148,82.3629032 159.637097,94 174,94 C188.362903,94 200,82.3629032 200,68 C200,53.6370968 188.362903,42 174,42 Z" id="Shape" fill="#46B6AE" fill-rule="nonzero"></path>
        <path d="M189.096774,70.9354839 C189.096774,71.6274194 188.530645,72.1935484 187.83871,72.1935484 L178.193548,72.1935484 L178.193548,81.8387097 C178.193548,82.5306452 177.627419,83.0967742 176.935484,83.0967742 L171.064516,83.0967742 C170.372581,83.0967742 169.806452,82.5306452 169.806452,81.8387097 L169.806452,72.1935484 L160.16129,72.1935484 C159.469355,72.1935484 158.903226,71.6274194 158.903226,70.9354839 L158.903226,65.0645161 C158.903226,64.3725806 159.469355,63.8064516 160.16129,63.8064516 L169.806452,63.8064516 L169.806452,54.1612903 C169.806452,53.4693548 170.372581,52.9032258 171.064516,52.9032258 L176.935484,52.9032258 C177.627419,52.9032258 178.193548,53.4693548 178.193548,54.1612903 L178.193548,63.8064516 L187.83871,63.8064516 C188.530645,63.8064516 189.096774,64.3725806 189.096774,65.0645161 L189.096774,70.9354839 Z" id="Path" fill="#BFEFE9"></path>
    </g>
</svg>