<?xml version="1.0" encoding="UTF-8"?>
<svg width="250px" height="250px" viewBox="0 0 250 250" version="1.1" xmlns="http://www.w3.org/2000/svg" xmlns:xlink="http://www.w3.org/1999/xlink">
    <!-- Generator: Sketch 49.1 (51147) - http://www.bohemiancoding.com/sketch -->
    <title>Marketing/actions</title>
    <desc>Created with Sketch.</desc>
    <defs></defs>
    <g id="Marketing/actions" stroke="none" stroke-width="1" fill="none" fill-rule="evenodd">
        <circle id="Oval-2" fill="#BFEFE9" cx="125" cy="125" r="125"></circle>
        <g id="globe" transform="translate(39.000000, 39.000000)">
            <path d="M123.526418,63.8064516 L169.103043,63.8064516 C170.989151,70.8872339 172,78.3251935 172,86 C172,93.6748065 170.989151,101.112766 169.103043,108.193548 L123.526418,108.193548 C125.313696,93.2652661 125.23914,78.1122742 123.526418,63.8064516 Z" id="Path" fill="#4AA49B"></path>
            <path d="M61.4533658,119.290323 C65.1562281,137.905161 72.9569293,158.307274 85.7709552,171.997226 C85.8475924,171.997573 85.9235361,172 86.0001734,172 C86.0768106,172 86.1527543,171.997226 86.2293916,171.997226 C99.0642239,158.284734 106.851054,137.86979 110.546981,119.290323 L61.4533658,119.290323 Z" id="Path" fill="#4AA49B"></path>
            <path d="M121.837278,52.7096774 L165.317648,52.7096774 C154.246166,26.3631613 130.431747,6.69447581 101.587705,1.41310484 C112.073484,16.3660081 118.517602,34.8185565 121.837278,52.7096774 Z" id="Path" fill="#4AA49B"></path>
            <path d="M112.352985,63.8064516 L59.6473622,63.8064516 C57.795931,78.3411452 57.7938504,93.6418629 59.6473622,108.193548 L112.353331,108.193548 C114.204763,93.6585081 114.206843,78.3581371 112.352985,63.8064516 Z" id="Path" fill="#4AA49B"></path>
            <path d="M50.1630689,119.290323 L6.68269896,119.290323 C17.7538342,145.636839 41.5682532,165.305524 70.4122952,170.586895 C59.9237418,155.628444 53.4817046,137.175202 50.1630689,119.290323 Z" id="Path" fill="#15514B"></path>
            <path d="M121.837278,119.290323 C118.516908,137.185605 112.071057,155.637113 101.587705,170.586895 C130.431747,165.305524 154.246166,145.636839 165.317301,119.290323 L121.837278,119.290323 Z" id="Path" fill="#4AA49B"></path>
            <path d="M110.546981,52.7096774 C106.844119,34.0948387 99.0430707,13.6927258 86.2293916,0.00277419355 C86.1527543,0.00277419355 86.0768106,0 86.0001734,0 C85.9235361,0 85.8475924,0.00277419355 85.7709552,0.00277419355 C72.9361229,13.7152661 65.1492926,34.1302097 61.4533658,52.7096774 L110.546981,52.7096774 Z" id="Path" fill="#4AA49B"></path>
            <path d="M2.89730423,63.8064516 C1.01084881,70.8872339 0,78.3251935 0,86 C0,93.6748065 1.01084881,101.112766 2.89730423,108.193548 L48.4739284,108.193548 C46.7612072,93.8877258 46.6866506,78.7347339 48.4739284,63.8064516 L2.89730423,63.8064516 Z" id="Path" fill="#15514B"></path>
            <path d="M50.1630689,52.7096774 C53.4834385,34.8154355 59.9285966,16.3642742 70.412642,1.41310484 C41.5685999,6.69447581 17.754181,26.3631613 6.68269896,52.7096774 L50.1630689,52.7096774 Z" id="Path" fill="#15514B"></path>
        </g>
    </g>
</svg>