<?xml version="1.0" standalone="no"?>
<!DOCTYPE svg PUBLIC "-//W3C//DTD SVG 1.1//EN" "http://www.w3.org/Graphics/SVG/1.1/DTD/svg11.dtd">
<svg xmlns="http://www.w3.org/2000/svg">
<metadata>Copyright (C) 2018 by original authors @ fontello.com</metadata>
<defs>
<font id="temperate" horiz-adv-x="1000" >
<font-face font-family="temperate" font-weight="400" font-stretch="normal" units-per-em="1000" ascent="850" descent="-150" />
<missing-glyph horiz-adv-x="1000" />
<glyph glyph-name="river-flood" unicode="&#xe800;" d="M961-142h-922a31 31 0 0 0-31 31v922a31 31 0 0 0 31 31h922a31 31 0 0 0 31-31v-922a31 31 0 0 0-31-31z m-156 320c4 11 7 21 9 30a253 253 0 0 1 9 100 244 244 0 0 1-52 126 224 224 0 0 1-108 72l-7 3-5 1-10 2-21 5-41 9-40 9c-8 2-11 3-15 3l-3 1c-1 0-2 1-3 1l-6 2a72 72 0 0 0-38 36 80 80 0 0 0-6 14 49 49 0 0 0-2 7c0 3-1 5-1 8l-1 8 0 4 0 4 1 8c0 2 1 5 2 7a132 132 0 0 0 37 67 207 207 0 0 0 48 34 4 4 0 0 1-2 7 237 237 0 0 1-54-13c-27-12-60-45-77-73-2-4-5-8-6-12l-5-11-3-6-1-7-4-12c-1-4-1-9-2-13a94 94 0 0 1-1-13 148 148 0 0 1 1-27c5-36 28-96 90-115s67-71 47-106c-18-33-82-50-219-101s-261-179-261-179v-149h755c-28 63-46 155-5 269z" horiz-adv-x="1000" />

<glyph glyph-name="advocacy" unicode="&#xe801;" d="M992 397a79 79 0 0 0-15-47 81 81 0 0 0-39-30v-197a108 108 0 0 0-110-109l-15 14q-71 60-110 89a653 653 0 0 1-135 77 530 530 0 0 1-169 37 85 85 0 0 1-55-53 74 74 0 0 1 6-70 19 19 0 0 0 2-20 70 70 0 0 1 0-57 146 146 0 0 1 34-48 37 37 0 0 0 13-36 39 39 0 0 0-25-30 189 189 0 0 0-83-12q-50 3-78 20a39 39 0 0 0-17 22l-8 24a930 930 0 0 0-33 123 332 332 0 0 0 8 139h-73a79 79 0 0 0-58 24 79 79 0 0 0-24 58v164a79 79 0 0 0 24 58 79 79 0 0 0 58 24h273a529 529 0 0 1 187 32 625 625 0 0 1 145 79q44 31 118 94l15 14a108 108 0 0 0 110-110v-196a81 81 0 0 0 39-30 79 79 0 0 0 15-47z m-164-239v478a880 880 0 0 0-162-111 642 642 0 0 0-221-68v-120a642 642 0 0 0 221-68 880 880 0 0 0 162-111z" horiz-adv-x="1000" />

<glyph glyph-name="agriculture" unicode="&#xe802;" d="M701 553v38a251 251 0 0 0 251 251h40v-38a251 251 0 0 0-251-251z m-257-204c41 63 3 181-13 251l-13 51s-84-36-121-99c-36-61 7-158 21-230a332 332 0 0 0 4-100s78 61 122 127z m192 192c41 62 3 181-14 251l-12 51s-84-36-121-99c-36-61 6-158 21-231a330 330 0 0 0 3-99s79 61 123 127z m-273-361a330 330 0 0 0 100-3c73-15 169-57 230-21 63 37 100 121 100 121l-52 12c-70 17-189 55-251 14-66-44-127-123-127-123z m192 192a332 332 0 0 0 100-3c72-15 169-57 230-21 63 37 99 121 99 121l-51 12c-70 17-189 55-251 14-66-44-127-123-127-123z m41-287l-52 12c-70 17-189 55-251 14-11-8-34-25-36-27a23 23 0 0 0-32 32c1 1 19 24 27 36 41 63 3 181-13 251l-12 51s-85-36-122-99c-36-61-1-161 26-230 10-25 17-47 22-60-28-30-125-125-130-130a49 49 0 0 1-15-33 41 41 0 0 1 12-28 45 45 0 0 1 36-16 36 36 0 0 1 26 15c5 6 107 122 124 138 13-4 35-12 60-21 69-27 169-63 230-27 63 38 100 122 100 122z" horiz-adv-x="1000" />

<glyph glyph-name="air-borne-disease" unicode="&#xe803;" d="M688 497l110 111a309 309 0 0 0 1-140l-129-18z m-377 2l-110 111a308 308 0 0 1-2-142l131-18z m34-230a307 307 0 0 1 308 0 306 306 0 0 1 113 112 297 297 0 0 1 14 29l-132-18a152 152 0 0 0-138-89h-20a152 152 0 0 0-138 89l-134 18a301 301 0 0 1 15-29 306 306 0 0 1 112-112z m9 265h293l131 131c-4 8-8 16-12 24a306 306 0 0 1-113 113 307 307 0 0 1-308 0 306 306 0 0 1-112-113c-4-7-8-15-12-22z m497-333l-136 34a360 360 0 0 0-227-69 361 361 0 0 0-204 69l-137-34a182 182 0 0 1-101-66 179 179 0 0 1-39-113v-71a89 89 0 0 1 27-66 89 89 0 0 1 65-27h800a92 92 0 0 1 92 93v71a178 178 0 0 1-39 113 181 181 0 0 1-101 66z" horiz-adv-x="1000" />

<glyph glyph-name="atmospheric-co2-concentrations" unicode="&#xe804;" d="M580 307c13-16 19-38 19-66s-6-51-19-66a60 60 0 0 0-50-24 61 61 0 0 0-50 24q-18 23-18 66t18 66a61 61 0 0 0 50 23 60 60 0 0 0 50-23z m413-105a195 195 0 0 0-26-99 191 191 0 0 0-72-72 195 195 0 0 0-99-26h-567a214 214 0 0 0-111 30 227 227 0 0 0-81 81 220 220 0 0 0 11 239 220 220 0 0 0 107 81v13a242 242 0 0 0 33 123 246 246 0 0 0 90 90 243 243 0 0 0 124 33 239 239 0 0 0 124-34 249 249 0 0 0 90-89 145 145 0 0 0 81 25 147 147 0 0 0 148-148 161 161 0 0 0-9-54 192 192 0 0 0 112-68 190 190 0 0 0 45-125z m-785 35c0 29 5 51 16 66a52 52 0 0 0 44 24 52 52 0 0 0 42-17 72 72 0 0 0 13-27h53a91 91 0 0 1-17 47q-29 42-93 42a104 104 0 0 1-78-32c-23-24-35-58-35-102q0-61 31-96t85-35a102 102 0 0 1 72 26 114 114 0 0 1 35 67h-53a80 80 0 0 0-13-30 50 50 0 0 0-41-18 54 54 0 0 0-44 21q-17 22-17 64z m444 4q0 69-39 104-28 30-83 30t-83-30q-38-35-38-104 0-69 38-105 29-29 83-29t83 29q39 36 39 105z m195-84h-109a56 56 0 0 0 11 13c5 4 13 11 26 19l19 14a164 164 0 0 1 36 32 79 79 0 0 1 16 49 76 76 0 0 1-23 58 89 89 0 0 1-63 22q-50 0-69-37a121 121 0 0 1-12-52h48a83 83 0 0 0 5 31 31 31 0 0 0 30 16 31 31 0 0 0 26-10 39 39 0 0 0 8-26 51 51 0 0 0-15-36 360 360 0 0 0-44-35q-39-27-49-52a116 116 0 0 1-12-49h170z" horiz-adv-x="1000" />

<glyph glyph-name="avalanche" unicode="&#xe805;" d="M793 640a20 20 0 0 0 8 29 135 135 0 0 0 130-10 136 136 0 0 0 58-143c-13-57-49-94-106-106s-106 6-138 53c-74 110-146 221-219 333a20 20 0 0 0 5 28l24 15a20 20 0 0 0 28-6l2-3q104-158 207-316c23-34 57-47 88-34a69 69 0 0 1-49 129h0a21 21 0 0 0-23 8l-9 14z m134-743a45 45 0 0 0-3-11 46 46 0 0 0-14-18 43 43 0 0 0-16-8 46 46 0 0 0-12-2h-823a51 51 0 0 0-51 51v344a51 51 0 0 0 7 25l312 541a46 46 0 0 0 79 0l271-471 244-422a44 44 0 0 0 6-29z m-433 600l-123 213-96-167a26 26 0 0 1 15-38l175-46a26 26 0 0 1 29 38z" horiz-adv-x="1000" />

<glyph glyph-name="avatar" unicode="&#xe806;" d="M150 553a409 409 0 0 0 148 148 392 392 0 0 0 202 55 392 392 0 0 0 202-55 409 409 0 0 0 148-148 402 402 0 0 0 0-405 409 409 0 0 0-148-147 392 392 0 0 0-202-55 392 392 0 0 0-202 55 409 409 0 0 0-148 148 402 402 0 0 0 0 404z m187-515a356 356 0 0 1 325 0 346 346 0 0 1 125 107 112 112 0 0 1-27 58 105 105 0 0 1-54 34l-53 14a234 234 0 0 0-307 0l-52-14a105 105 0 0 1-54-34 112 112 0 0 1-27-58 346 346 0 0 1 125-107z m4 300a183 183 0 0 1 250-67 183 183 0 0 1 67 250 183 183 0 0 1-250 67 183 183 0 0 1-67-250z m-191 215a409 409 0 0 0 148 148 392 392 0 0 0 202 55 392 392 0 0 0 202-55 409 409 0 0 0 148-148 402 402 0 0 0 0-405 409 409 0 0 0-148-147 392 392 0 0 0-202-55 392 392 0 0 0-202 55 409 409 0 0 0-148 148 402 402 0 0 0 0 404z m187-515a356 356 0 0 1 325 0 346 346 0 0 1 125 107 112 112 0 0 1-27 58 105 105 0 0 1-54 34l-53 14a234 234 0 0 0-307 0l-52-14a105 105 0 0 1-54-34 112 112 0 0 1-27-58 346 346 0 0 1 125-107z m4 300a183 183 0 0 1 250-67 183 183 0 0 1 67 250 183 183 0 0 1-250 67 183 183 0 0 1-67-250z" horiz-adv-x="1000" />

<glyph glyph-name="building-codes-and-engineering" unicode="&#xe807;" d="M908-79a23 23 0 0 0 23-23v-39h-862v39a23 23 0 0 0 23 23h39v877a45 45 0 0 0 13 33 45 45 0 0 0 33 13h646a45 45 0 0 0 33-13 45 45 0 0 0 13-33v-877z m-592 777v-77a23 23 0 0 1 23-23h76a23 23 0 0 1 23 23v77a23 23 0 0 1-23 23h-76a23 23 0 0 1-23-23z m0-185v-76a23 23 0 0 1 23-24h76a23 23 0 0 1 23 24v76a23 23 0 0 1-23 24h-76a23 23 0 0 1-23-24z m99-284a23 23 0 0 1 23 23v77a23 23 0 0 1-23 23h-76a23 23 0 0 1-23-23v-77a23 23 0 0 1 23-23z m147-308v162a23 23 0 0 1-24 23h-76a23 23 0 0 1-24-23v-162z m123 700v77a23 23 0 0 1-24 23h-76a23 23 0 0 1-24-23v-77a23 23 0 0 1 24-23h77a23 23 0 0 1 23 23z m0-184v76a23 23 0 0 1-24 24h-76a23 23 0 0 1-24-24v-76a23 23 0 0 1 24-24h77a23 23 0 0 1 23 24z m0-185v77a23 23 0 0 1-24 23h-76a23 23 0 0 1-24-23v-77a23 23 0 0 1 24-23h77a23 23 0 0 1 23 23z" horiz-adv-x="1000" />

<glyph glyph-name="business-continuity" unicode="&#xe808;" d="M100-55a89 89 0 0 0-65 27 89 89 0 0 0-27 65v492a89 89 0 0 0 27 66 89 89 0 0 0 65 27h31v-677z m708 0v677h-62v92a89 89 0 0 1-27 65 89 89 0 0 1-65 27h-308a89 89 0 0 1-65-27 89 89 0 0 1-27-65v-92h-62v-677z m-185 738v-61h-246v61z m369-646a92 92 0 0 0-92-92h-31v677h31a92 92 0 0 0 92-93z" horiz-adv-x="1000" />

<glyph glyph-name="capacity-building" unicode="&#xe809;" d="M362 270a163 163 0 0 0 0 161 159 159 0 0 0 58 57 163 163 0 0 0 161 0 159 159 0 0 0 57-57 163 163 0 0 0 0-161 159 159 0 0 0-57-58 163 163 0 0 0-161 0 159 159 0 0 0-58 58z m-248-411a102 102 0 0 1 75 31 106 106 0 0 1 0 151 103 103 0 0 1-75 31 103 103 0 0 1-75-31 106 106 0 0 1 0-151 102 102 0 0 1 75-31z m0 771a103 103 0 0 1 75 31 103 103 0 0 1 32 76 103 103 0 0 1-32 75 103 103 0 0 1-75 30 103 103 0 0 1-75-30 103 103 0 0 1-31-76 103 103 0 0 1 31-75 103 103 0 0 1 75-31z m772-771a106 106 0 1 1-75 31 102 102 0 0 1 75-31z m0 771a102 102 0 0 1 75 31 103 103 0 0 1 32 76 103 103 0 0 1-32 75 106 106 0 0 1-150 0 102 102 0 0 1-31-75 102 102 0 0 1 31-76 102 102 0 0 1 75-31z m-190-154l99 99a23 23 0 0 1 0 33l-31 32a23 23 0 0 1-34 0l-99-99a23 23 0 0 1 0-34l32-31a23 23 0 0 1 33 0z m-497 99l100-99a23 23 0 0 1 33 0l32 31a23 23 0 0 1 0 34l-100 99a23 23 0 0 1-33 0l-32-32a23 23 0 0 1 0-33z m464-361l-32-32a23 23 0 0 1 0-33l99-99a23 23 0 0 1 34 0l31 32a23 23 0 0 1 0 33l-99 99a23 23 0 0 1-33 0z m-464-133l32-31a23 23 0 0 1 33 0l100 99a23 23 0 0 1 0 33l-32 32a23 23 0 0 1-33 0l-100-99a23 23 0 0 1 0-33z" horiz-adv-x="1000" />

<glyph glyph-name="changed-seasonal-patterns" unicode="&#xe80a;" d="M956 241l-98 82a34 34 0 0 0 0 54l98 82a35 35 0 0 1 12 43 36 36 0 0 1-33 27l-131 9a36 36 0 0 0-25 15 31 31 0 0 0-6 28l31 127a33 33 0 0 1-15 40 36 36 0 0 1-43 2l-111-69a33 33 0 0 0-28-3 38 38 0 0 0-22 20l-48 119a36 36 0 0 1-37 25h0a43 43 0 0 1-33-12 44 44 0 0 1-13-33v-119l-58 73a41 41 0 0 1-31 15 43 43 0 0 1-32-12 48 48 0 0 1-16-32 39 39 0 0 1 12-32l125-123v-135l-115 67-43 171a44 44 0 0 1-23 26 46 46 0 0 1-35 3 46 46 0 0 1-30-57l34-87-101 60a47 47 0 0 1-36 5 41 41 0 0 1-27-23 49 49 0 0 1-4-35 45 45 0 0 1 21-28l101-60-90-13a44 44 0 0 1-30-20 41 41 0 0 1-6-35 49 49 0 0 1 21-29 44 44 0 0 1 34-6l167 48 131-68-131-67-167 48a44 44 0 0 1-35-7 49 49 0 0 1-20-28 42 42 0 0 1 6-35 45 45 0 0 1 30-20l90-14-101-59a45 45 0 0 1-20-28 49 49 0 0 1 3-36 41 41 0 0 1 27-22 46 46 0 0 1 36 5l101 60-34-87a43 43 0 0 1 4-36 48 48 0 0 1 27-22 47 47 0 0 1 57 29l43 171 115 68v-135l-125-123a39 39 0 0 1-12-33 49 49 0 0 1 16-32 43 43 0 0 1 33-11 42 42 0 0 1 30 15l58 73v-120a46 46 0 0 1 46-46h0a35 35 0 0 1 37 24l48 119a38 38 0 0 0 22 20 33 33 0 0 0 28-3l111-69a36 36 0 0 1 43 2 33 33 0 0 1 15 40l-31 127a31 31 0 0 0 6 28 36 36 0 0 0 25 14l131 10a36 36 0 0 1 33 27 35 35 0 0 1-12 43z m-230-21a271 271 0 0 0-95-96 251 251 0 0 0-131-35v61a195 195 0 0 1 100 27 201 201 0 0 1 73 73 200 200 0 0 1 0 200 201 201 0 0 1-73 73 195 195 0 0 1-100 27v62a251 251 0 0 0 131-36 271 271 0 0 0 95-95 258 258 0 0 0 0-262z" horiz-adv-x="1000" />

<glyph glyph-name="coastal-flood" unicode="&#xe80b;" d="M994 206v-317a31 31 0 0 0-32-31h-894a16 16 0 0 0-7 29 1668 1668 0 0 1 667 642h0l2 3a31 31 0 0 0 30 20h16v72a6 6 0 0 0 1 4l68 56 16 13a6 6 0 0 0 4 1 6 6 0 0 0 3-1l16-13 68-56a6 6 0 0 0 1-4v-72h8a31 31 0 0 0 31-31v-312z m-355 239a16 16 0 0 1-13 24 126 126 0 0 0-91 36l-28 27a11 11 0 0 1-14 0l-28-27a126 126 0 0 0-176 0l-28 27a11 11 0 0 1-14 0l-28-27a126 126 0 0 0-177 0l-16 17a11 11 0 0 1-18-8v-593a16 16 0 0 1 23-14 1626 1626 0 0 1 608 538z m206 239l16 13a6 6 0 0 0 4 1 6 6 0 0 0 3-1l16-13 68-55 0 0 20-17a7 7 0 0 1 4-2 4 4 0 0 1 4 2l11 14a6 6 0 0 1 1 4 6 6 0 0 1-2 3l-112 93a22 22 0 0 1-13 5 20 20 0 0 1-14-5l-112-93a6 6 0 0 1-2-3 6 6 0 0 1 1-4l11-14a4 4 0 0 1 4-2 7 7 0 0 1 4 1l20 17s0 0 0 0z" horiz-adv-x="1000" />

<glyph glyph-name="cold-wave" unicode="&#xe80c;" d="M665 269a45 45 0 0 0 20-28 49 49 0 0 0-3-36 41 41 0 0 0-27-22 46 46 0 0 0-36 5l-133 81v-134l125-123a39 39 0 0 0 11-33 48 48 0 0 0-16-31 45 45 0 0 0-31-13 41 41 0 0 0-32 16l-58 73v-120a46 46 0 1 0-92 0v119l-57-73a42 42 0 0 0-31-14 43 43 0 0 0-33 11 48 48 0 0 0-16 32 39 39 0 0 0 12 33l125 123v134l-115-67-42-171a44 44 0 0 0-24-26 43 43 0 0 0-34-3 48 48 0 0 0-27 22 43 43 0 0 0-4 35l35 87-102-59a46 46 0 0 0-35-5 40 40 0 0 0-27 22 49 49 0 0 0-4 35 45 45 0 0 0 20 28l102 60-91 13a45 45 0 0 0-29 20 42 42 0 0 0-6 35 49 49 0 0 0 20 29 44 44 0 0 0 35 7l167-48 131 67-131 67-167-48a44 44 0 0 0-35 7 50 50 0 0 0-20 29 42 42 0 0 0 6 34 44 44 0 0 0 29 20l91 14-102 59a45 45 0 0 0-20 28 49 49 0 0 0 4 36 40 40 0 0 0 27 22 46 46 0 0 0 35-5l102-59-35 86a46 46 0 0 0 30 58 46 46 0 0 0 36-3 44 44 0 0 0 23-26l42-171 115-67v134l-125 123a39 39 0 0 0-11 33 49 49 0 0 0 15 31 43 43 0 0 0 33 12 42 42 0 0 0 31-14l58-73v118a45 45 0 0 0 13 33 47 47 0 0 0 65 0 45 45 0 0 0 14-33v-118l57 73a41 41 0 0 0 31 14 43 43 0 0 0 33-11 48 48 0 0 0 15-32 38 38 0 0 0-11-33l-125-123v-134l133 81a46 46 0 0 0 36 4 41 41 0 0 0 27-22 49 49 0 0 0 4-35 45 45 0 0 0-20-28l-150-81z m32-302c15-17 35-40 75-40s60 23 75 40c14 16 20 22 35 22s21-6 34-22c15-17 36-40 76-40v54c-15 0-21 7-35 23-15 17-35 40-75 40s-61-23-76-40c-13-16-20-23-34-23s-21 7-34 22c-15 18-36 41-76 41-2 0-5 0-8 0a93 93 0 0 0 22-58 81 81 0 0 0 21-19z m33 214l0-1a83 83 0 0 1 42-11c40 0 60 23 75 41 14 15 20 22 35 22s21-7 34-22c15-18 36-41 76-41v55c-15 0-21 7-35 22-15 17-35 40-75 40s-61-23-76-40c-13-16-20-22-34-22s-20 6-31 19a104 104 0 0 0-10-62z m8 264a106 106 0 0 0-9-23 82 82 0 0 1 43-11c40 0 60 24 75 41 14 15 20 22 35 22s21-7 34-22c15-17 36-41 76-41v55c-15 0-21 7-35 22-15 17-35 40-75 40s-61-23-76-40c-13-15-20-22-34-22s-20 6-31 19a104 104 0 0 0-3-40z m-61 268a80 80 0 0 0 20-19c15-17 36-41 75-41s61 24 76 41c13 15 20 22 34 22s21-7 35-22c15-17 35-41 75-41v55c-14 0-21 7-34 22-15 17-36 40-76 40s-60-23-75-40c-14-16-20-22-35-22s-21 7-34 22c-15 17-36 40-76 40h0a106 106 0 0 0 14-44 98 98 0 0 0 1-13z" horiz-adv-x="1000" />

<glyph glyph-name="community-and-culture" unicode="&#xe80d;" d="M108 515a102 102 0 0 0-31 76 102 102 0 0 0 31 75 102 102 0 0 0 75 31 102 102 0 0 0 75-31 103 103 0 0 0 32-75 102 102 0 0 0-32-76 102 102 0 0 0-75-31 102 102 0 0 0-75 31z m707-31a106 106 0 0 1 106 106 106 106 0 1 1-213 0 106 106 0 0 1 107-106z m-397 61a159 159 0 0 1 240 138 159 159 0 1 1-319 0 157 157 0 0 1 22-80 159 159 0 0 1 57-58z m335-138a108 108 0 0 1-22 67 105 105 0 0 1-61 39l-61 15h0a189 189 0 0 0-104-36c-2 0-4 0-6 0s-4 0-6 0a189 189 0 0 0-105 36h0l-61-15a105 105 0 0 1-61-39 108 108 0 0 1-22-67l0-1a578 578 0 0 1 6-105c37-262 248-443 248-443s212 181 248 443a578 578 0 0 1 7 105z m-533-5l0 0v5a131 131 0 0 0 21 72 113 113 0 0 0-65-16 122 122 0 0 0-68 23l-39-10a68 68 0 0 1-39-25 70 70 0 0 1-15-43v-60c0-304 311-436 435-476-62 63-194 219-223 426a640 640 0 0 0-7 104z m750 50a68 68 0 0 1-39 25l-39 10a122 122 0 0 0-68-24 114 114 0 0 0-70 20 130 130 0 0 0 23-76v-5l0 0a631 631 0 0 0-7-104c-29-208-162-364-224-427 120 39 439 170 439 477v60a70 70 0 0 1-15 44z" horiz-adv-x="1000" />

<glyph glyph-name="conservation" unicode="&#xe80e;" d="M643 688h0a70 70 0 0 0 32-27 74 74 0 0 0-9-92 71 71 0 0 0-52-22h-85v-9c0-12 0-21 1-26a55 55 0 0 1 6-21 81 81 0 0 1 19-20 11 11 0 0 0 4-13 11 11 0 0 0-12-8h-109a11 11 0 0 0-12 8 11 11 0 0 0 4 13 81 81 0 0 1 18 20 55 55 0 0 1 7 20c0 5 1 14 1 27v9h-86a73 73 0 0 0-73 74 72 72 0 0 0 12 40 70 70 0 0 0 33 27 58 58 0 0 0-8 37 60 60 0 0 0 16 34 63 63 0 0 0 31 19 57 57 0 0 0 38-4 73 73 0 0 0 24 47 73 73 0 0 0 98 0 73 73 0 0 0 25-47 57 57 0 0 0 37 4 63 63 0 0 0 32-19 62 62 0 0 0 8-71z m-190-450l-237 237a34 34 0 0 0-3 3l0 0a56 56 0 1 1-79-79l160-159 0 0a20 20 0 1 0-29-27l-159 159a95 95 0 0 0 96 158l21 252a53 53 0 0 1-104 17l-111-444a53 53 0 0 1 11-46l218-269a52 52 0 0 0 12-33v-97a53 53 0 0 1 53-53h114a53 53 0 0 1 53 53v291a53 53 0 0 1-16 37z m77-37v-291a53 53 0 0 1 53-53h114a53 53 0 0 1 53 53v97a52 52 0 0 0 11 33l219 269a53 53 0 0 1 10 46l-110 444a53 53 0 0 1-104-17l21-252a95 95 0 0 0 96-158l-159-159a20 20 0 1 0-29 26l0 0 160 161a56 56 0 0 1-79 79l0 0c-1-2-2-3-3-3l-237-238a53 53 0 0 1-16-37z" horiz-adv-x="1000" />

<glyph glyph-name="drought" unicode="&#xe80f;" d="M790 766a19 19 0 0 1 12-10 17 17 0 0 1 14 1l58 36a19 19 0 0 0 23-1 18 18 0 0 0 8-21l-16-66a16 16 0 0 1 3-14 19 19 0 0 1 13-8l68-5a19 19 0 0 0 18-14 19 19 0 0 0-7-22l-51-44a18 18 0 0 1-7-14 18 18 0 0 1 7-14l51-43a19 19 0 0 0 7-22 19 19 0 0 0-18-14l-68-5a19 19 0 0 1-13-8 16 16 0 0 1-3-14l16-67a17 17 0 0 0-8-21 19 19 0 0 0-23-1l-58 36a17 17 0 0 1-14 2 20 20 0 0 1-12-11l-25-62a21 21 0 0 0-38 0l-25 62a20 20 0 0 1-12 11 17 17 0 0 1-14-2l-59-35a19 19 0 0 0-22 1 17 17 0 0 0-8 21l16 66a16 16 0 0 1-3 15 19 19 0 0 1-13 8l-69 5a19 19 0 0 0-17 14 19 19 0 0 0 7 21l51 44a18 18 0 0 1 7 14 18 18 0 0 1-7 14l-51 43a19 19 0 0 0-7 22 19 19 0 0 0 18 14l68 5a19 19 0 0 1 13 8 16 16 0 0 1 3 15l-16 66a18 18 0 0 0 8 21 19 19 0 0 0 22 0l58-36a17 17 0 0 1 15-1 19 19 0 0 1 12 10l25 63a21 21 0 0 0 38 0z m74-113a141 141 0 0 1-50 50 135 135 0 0 1-136 0 141 141 0 0 1-50-50 135 135 0 0 1 0-137 140 140 0 0 1 50-49 135 135 0 0 1 136 0 140 140 0 0 1 50 49 135 135 0 0 1 0 137z m-28-121a105 105 0 0 0-38-38 104 104 0 0 0-105 0 105 105 0 0 0-38 38 104 104 0 0 0 0 105 104 104 0 0 0 38 38 104 104 0 0 0 105 0 104 104 0 0 0 38-38 104 104 0 0 0 0-105z m-298-481l24 217h-79l-110-96z m-394-77l-51-116h89z m206 219l86 75h-167z m0-44l-186-135 51-156h271l50 156z m-222-123l0 1-116 225a31 31 0 0 1-4-15v-348a31 31 0 0 1 31-31h20l71 161z m26 19l174 126-105 97h-185z m838 82v110a31 31 0 0 1-31 31h-330z m-436-152l-38-117h94z m184-117h221a31 31 0 0 1 31 31v161z m252 235l-401 157-24-220 6-4-2-8 76-160h41l304 231z" horiz-adv-x="1000" />

<glyph glyph-name="ecological-function" unicode="&#xe810;" d="M444 18a521 521 0 0 0-130 17 706 706 0 0 0-94 34l-34 17c-6 0-12-4-19-14q-7-8-22-30a232 232 0 0 0-31-45c-12-15-25-22-38-22a65 65 0 0 0-51 24 60 60 0 0 0-17 41q0 22 22 46a366 366 0 0 0 45 39 188 188 0 0 1 29 26c9 9 13 17 13 22l-7 12c-3 11-6 22-10 34a283 283 0 0 0-5 55q0 123 89 219 80 87 207 128a394 394 0 0 0 82 16q32 1 101 3 99 4 141 9 74 10 103 39l17 15a146 146 0 0 0 31 28 94 94 0 0 0 45 10c18 0 33-14 47-43a341 341 0 0 0 27-89 470 470 0 0 0 7-73q0-147-73-262-79-121-236-198a536 536 0 0 0-239-58z m-6 354q106 49 252 39a22 22 0 0 1 18 6 31 31 0 0 1 11 19 23 23 0 0 1-6 19 31 31 0 0 1-20 11q-157 11-278-45t-210-184a24 24 0 0 1-6-20 28 28 0 0 1 32-24 26 26 0 0 1 18 12q82 117 189 167z" horiz-adv-x="1000" />

<glyph glyph-name="education" unicode="&#xe811;" d="M542 314a144 144 0 0 0-84 0l-310 95a119 119 0 0 1-18-60 42 42 0 0 0 18-17 48 48 0 0 0 7-24 50 50 0 0 0-25-44l25-189a16 16 0 0 0-3-10 11 11 0 0 0-10-4h-73a11 11 0 0 0-10 4 16 16 0 0 0-3 10l25 189a50 50 0 0 0-18 69 49 49 0 0 0 18 17 170 170 0 0 0 20 74l-68 21a33 33 0 0 0-23 20 40 40 0 0 0 0 31 33 33 0 0 0 23 20l425 131a144 144 0 0 0 84 0l425-131a33 33 0 0 0 23-20 40 40 0 0 0 0-31 33 33 0 0 0-23-20z m14-48a203 203 0 0 0-111 0l-233 72-20-129c0-18 14-34 41-49s66-28 113-37a848 848 0 0 1 154-13 848 848 0 0 1 154 13q71 14 113 37c27 15 41 32 41 49l-20 129-231-72z" horiz-adv-x="1000" />

<glyph glyph-name="emergency-management" unicode="&#xe812;" d="M98-76a89 89 0 0 0-66 27 89 89 0 0 0-26 66l3 492a89 89 0 0 0 28 65 89 89 0 0 0 65 26l31 0-5-677z m707-5l5 677-62 0 1 92a89 89 0 0 1-27 65 89 89 0 0 1-65 28l-307 2a89 89 0 0 1-66-26 89 89 0 0 1-27-65l-1-93-61 1-5-677z m-121 339a30 30 0 0 0-31-31l-92 1-1-92a30 30 0 0 0-31-31l-61 0a30 30 0 0 0-31 32l1 92-93 0a30 30 0 0 0-30 32l0 61a30 30 0 0 0 9 22 30 30 0 0 0 22 9l92-1 1 92a30 30 0 0 0 31 31l61-1a30 30 0 0 0 31-31l-1-92 93-1a30 30 0 0 0 31-31z m-58 400l-1-61-246 1 0 62z m364-648a92 92 0 0 0-93-92l-30 0 4 677 31 0a92 92 0 0 0 92-93z" horiz-adv-x="1000" />

<glyph glyph-name="emergency-services" unicode="&#xe813;" d="M919 728a74 74 0 0 0 74-74v-531a37 37 0 0 0-37-37h-61a147 147 0 0 0-148-148 147 147 0 0 0-148 149h-198a143 143 0 0 0-43-105 143 143 0 0 0-105-43 143 143 0 0 0-105 43 143 143 0 0 0-42 105h-62a36 36 0 0 0-26 11 36 36 0 0 0-11 25v25a36 36 0 0 0 11 27 36 36 0 0 0 26 11h12v166a71 71 0 0 0 22 52l154 154a71 71 0 0 0 52 22h68v74a74 74 0 0 0 74 74z m-567-395v173h-68l-154-154v-19z m-99-320a74 74 0 1 1 0 148 74 74 0 1 1 0-148z m543 444a18 18 0 0 1-5 13 18 18 0 0 1-14 5h-86v86a18 18 0 0 1-18 19h-50a18 18 0 0 1-18-19v-86h-86a18 18 0 0 1-19-18v-50a18 18 0 0 1 19-18h86v-86a18 18 0 0 1 18-18h49a18 18 0 0 1 19 18v86h86a18 18 0 0 1 14 6 18 18 0 0 1 5 13z m-49-444a74 74 0 1 1-53 22 71 71 0 0 1 53-22z" horiz-adv-x="1000" />

<glyph glyph-name="emotional-and-mental-health" unicode="&#xe814;" d="M346 270a307 307 0 0 1 308 0 305 305 0 0 1 112 113 306 306 0 0 1 0 307 305 305 0 0 1-112 113 307 307 0 0 1-308 0 305 305 0 0 1-112-112 306 306 0 0 1 0-308 305 305 0 0 1 112-113z m12 355c15 15 37 23 65 23a87 87 0 0 0 45-15 175 175 0 0 0 32-25 175 175 0 0 0 32 25 87 87 0 0 0 46 14c27 0 49-7 65-22a84 84 0 0 0 23-64 100 100 0 0 0-20-56 161 161 0 0 0-22-27l-114-110a15 15 0 0 0-20 0l-114 111a139 139 0 0 0-21 25 102 102 0 0 0-21 58 84 84 0 0 0 24 63z m634-602v-71a92 92 0 0 0-92-92h-800a89 89 0 0 0-65 27 89 89 0 0 0-27 65v71a179 179 0 0 0 39 114 181 181 0 0 0 101 65l137 34a369 369 0 0 1 431 0l136-34a181 181 0 0 0 101-65 179 179 0 0 0 39-114z" horiz-adv-x="1000" />

<glyph glyph-name="energy-delivery" unicode="&#xe815;" d="M961 64h-210l-45 462 278 210a21 21 0 0 1-15 35l-287 1-1 13c-3 33-27 57-54 57h-254c-27 0-50-24-54-57l-1-13-289-1a21 21 0 0 1-15-35l280-212-45-460h-210a31 31 0 0 1-31-31v-144a31 31 0 0 1 31-31h922a31 31 0 0 1 31 31v144a31 31 0 0 1-31 31z m-621 0l160 160 160-160z m199 198l126 126 27-279z m89 473l16-195-105 105z m-14-243h-228l114 115z m-260 46l16 199 91-92z m283-100l-137-137-137 137z m-137 246l-103 103h206z m-164-296l125-126-153-153z m532 329l-168-127-12 127z m-739 0l184 0-13-129z m-121 98a27 27 0 0 0 27 27h36a27 27 0 0 0 0-54h-36a27 27 0 0 0-27 27z m120 0a27 27 0 0 0 27 27h36a27 27 0 1 0 0-54h-36a27 27 0 0 0-27 27z m654 0a27 27 0 0 0 27 27h36a27 27 0 1 0 0-55h-36a27 27 0 0 0-27 28z m120 0a27 27 0 0 0 27 27h36a27 27 0 1 0 0-54h-36a27 27 0 0 0-27 27z" horiz-adv-x="1000" />

<glyph glyph-name="employment-and-job-access" unicode="&#xe816;" d="M116 516a37 37 0 0 0 37-37v-320a37 37 0 0 0-37-37h-74a36 36 0 0 0-26 11 36 36 0 0 0-11 26v320a36 36 0 0 0 11 27 36 36 0 0 0 26 10z m-37-351a30 30 0 0 1 22 9 30 30 0 0 1 0 43 30 30 0 0 1-44 0 30 30 0 0 1 0-43 30 30 0 0 1 22-9z m670 76l-123 150-74-77a109 109 0 0 0-55-34 121 121 0 0 0-65 1 111 111 0 0 0-56 36 98 98 0 0 0-23 65 94 94 0 0 0 25 65l99 114a95 95 0 0 1-70 29h-57a107 107 0 0 1-78-32l-94-79v-283l145-148a169 169 0 0 1 51-35 150 150 0 0 1 61-13 83 83 0 0 1 62 23 70 70 0 0 1 56 6 68 68 0 0 1 35 41 89 89 0 0 1 77 38 46 46 0 0 1 9 29 27 27 0 0 1 15-4 91 91 0 0 1 27 3 64 64 0 0 1 29 17 57 57 0 0 1 20 42 60 60 0 0 1-16 46z m5 304a128 128 0 0 1-97 45h-71a111 111 0 0 1-86-40l-104-118a75 75 0 0 1 0-99 85 85 0 0 1 68-33 87 87 0 0 1 70 30l92 98a15 15 0 0 0 17-1 13 13 0 0 0 0-17l125-153a84 84 0 0 0 21-61h29v276z m200-29a37 37 0 0 0 37-37v-320a37 37 0 0 0-37-37h-74a37 37 0 0 0-37 37v320a37 37 0 0 0 37 37z m-37-351a31 31 0 1 1-21 9 30 30 0 0 1 21-9z" horiz-adv-x="1000" />

<glyph glyph-name="energy" unicode="&#xe817;" d="M838 537a30 30 0 0 0 31-31v-62a30 30 0 0 0-31-31h-30v-61a308 308 0 0 0-246-302v-190h-124v190a299 299 0 0 0-175 106 298 298 0 0 0-71 196v61h-30a30 30 0 0 0-31 31v62a30 30 0 0 0 31 31z m-461 30h-123v216a59 59 0 0 0 18 43 60 60 0 0 0 87 0 59 59 0 0 0 18-43z m246 0h123v216a59 59 0 0 1-18 43 60 60 0 0 1-87 0 59 59 0 0 1-18-43z" horiz-adv-x="1000" />

<glyph glyph-name="extratropical-storm" unicode="&#xe818;" d="M500 105a243 243 0 0 0-33-124 239 239 0 0 0-89-89 244 244 0 0 0-124-33h-2a235 235 0 0 0-122 34 247 247 0 0 0-89 90 244 244 0 0 0-33 124 235 235 0 0 0 62 161v390a178 178 0 0 0 53 131 178 178 0 0 0 131 53 178 178 0 0 0 131-53 178 178 0 0 0 53-131v-390a242 242 0 0 0 62-163z m-112 73a212 212 0 0 1-34 46l-8 10v424a92 92 0 0 1-92 92 92 92 0 0 1-92-92v-424l-8-10a215 215 0 0 1-35-46 141 141 0 0 1-19-73 149 149 0 0 1 45-107 144 144 0 0 1 107-47h2a148 148 0 0 1 108 46 148 148 0 0 1 46 108 141 141 0 0 1-20 73z m-59-148a102 102 0 0 0-75-31 106 106 0 1 0 0 211 106 106 0 0 0 75-180z m624 613h0a157 157 0 0 1-24 29l-2 2-3 3a242 242 0 0 1-19 15 186 186 0 0 1-44 25 29 29 0 0 0-21 27 38 38 0 0 0 20 32c37 23 107 24 121 27a16 16 0 0 1-2 32 496 496 0 0 1-143 2c-97-14-194-91-245-230a208 208 0 0 1 20-200h0a210 210 0 0 1 92-75 29 29 0 0 0 21-27 38 38 0 0 0-19-31c-38-23-108-24-122-28a16 16 0 0 1 2-31 498 498 0 0 1 143-2c97 14 194 92 245 231a208 208 0 0 1-20 199z m-72-118a98 98 0 1 0-99 98 99 99 0 0 0 99-98z" horiz-adv-x="1000" />

<glyph glyph-name="extreme-cold-days" unicode="&#xe819;" d="M497 511a24 24 0 0 0-17-13l-52-7 58-34a26 26 0 0 0 12-16 28 28 0 0 0-2-20 23 23 0 0 0-16-13 27 27 0 0 0-20 3l-58 34 19-50a26 26 0 0 0-17-33 26 26 0 0 0-20 2 25 25 0 0 0-13 15l-24 98-66 38v-77l71-70a22 22 0 0 0 7-19 28 28 0 0 0-9-18 26 26 0 0 0-18-7 23 23 0 0 0-18 9l-33 41v-68a26 26 0 1 0-53 0v68l-33-41a24 24 0 0 0-17-9 24 24 0 0 0-19 7 27 27 0 0 0-9 18 22 22 0 0 0 6 19l72 70v77l-66-38-24-98a27 27 0 0 0-33-17 27 27 0 0 0-16 13 25 25 0 0 0-2 20l20 50-58-34a27 27 0 0 0-20-3 23 23 0 0 0-16 13 28 28 0 0 0-2 20 26 26 0 0 0 11 15l59 35-52 7a26 26 0 0 0-17 12 23 23 0 0 0-3 20 28 28 0 0 0 11 16 25 25 0 0 0 20 4l96-27 74 38-74 38-96-27a25 25 0 0 0-20 4 28 28 0 0 0-11 16 23 23 0 0 0 3 20 26 26 0 0 0 17 11l52 8-58 35a26 26 0 0 0-12 15 28 28 0 0 0 2 21 23 23 0 0 0 16 12 27 27 0 0 0 20-2l58-35-19 50a25 25 0 0 0 1 20 26 26 0 0 0 16 13 26 26 0 0 0 20-2 25 25 0 0 0 13-15l25-97 65-39v77l-71 71a22 22 0 0 0-7 18 27 27 0 0 0 9 18 25 25 0 0 0 19 7 24 24 0 0 0 17-8l33-42v68a25 25 0 0 0 8 19 27 27 0 0 0 37 0 25 25 0 0 0 8-19v-68l33 42a23 23 0 0 0 17 8 25 25 0 0 0 19-7 28 28 0 0 0 9-18 22 22 0 0 0-7-18l-71-71v-77l66 39 24 98a25 25 0 0 0 13 14 26 26 0 0 0 20 2 26 26 0 0 0 17-33l-19-49 58 34a27 27 0 0 0 20 2 23 23 0 0 0 16-12 28 28 0 0 0 2-21 26 26 0 0 0-12-15l-58-35 52-8a25 25 0 0 0 17-11 23 23 0 0 0 3-20 28 28 0 0 0-11-16 25 25 0 0 0-20-4l-96 28-75-39 75-38 96 27a25 25 0 0 0 20-4 26 26 0 0 0 10-16 28 28 0 0 0-2-19z m495-407a243 243 0 0 0-33-124 239 239 0 0 0-89-89 244 244 0 0 0-124-33h-2a235 235 0 0 0-122 34 247 247 0 0 0-89 91 244 244 0 0 0-33 123 235 235 0 0 0 62 162v390a178 178 0 0 0 53 130 185 185 0 0 0 262 0 178 178 0 0 0 53-130v-390a242 242 0 0 0 62-163z m-111 74a212 212 0 0 1-35 46l-8 9v425a92 92 0 1 1-184 0v-425l-8-10a215 215 0 0 1-35-46 141 141 0 0 1-19-73 149 149 0 0 1 45-107 144 144 0 0 1 107-47h2a154 154 0 0 1 153 154 141 141 0 0 1-18 74z m-60-149a108 108 0 1 0 31 75 102 102 0 0 0-31-74z" horiz-adv-x="1000" />

<glyph glyph-name="extreme-hot-days" unicode="&#xe81a;" d="M791 766a20 20 0 0 1 11-11 18 18 0 0 1 15 2l58 36a19 19 0 0 0 23-1 18 18 0 0 0 8-21l-17-67a16 16 0 0 1 3-14 19 19 0 0 1 14-8l68-5a19 19 0 0 0 18-14 19 19 0 0 0-7-22l-51-44a18 18 0 0 1-7-14 18 18 0 0 1 7-14l51-43a19 19 0 0 0 7-22 19 19 0 0 0-18-14l-68-5a19 19 0 0 1-14-8 16 16 0 0 1-3-15l17-66a18 18 0 0 0-8-21 19 19 0 0 0-23-1l-58 36a17 17 0 0 1-15 1 20 20 0 0 1-12-10l-25-63a21 21 0 0 0-38 0l-25 63a20 20 0 0 1-12 10 17 17 0 0 1-14-1l-59-36a19 19 0 0 0-22 1 18 18 0 0 0-8 21l16 67a16 16 0 0 1-3 14 19 19 0 0 1-13 8l-69 5a19 19 0 0 0-17 14 18 18 0 0 0 7 22l51 44a18 18 0 0 1 7 14 18 18 0 0 1-7 14l-51 43a19 19 0 0 0-7 22 19 19 0 0 0 18 14l68 5a19 19 0 0 1 14 8 16 16 0 0 1 2 15l-16 66a18 18 0 0 0 8 21 19 19 0 0 0 22 1l59-36a17 17 0 0 1 14-2 20 20 0 0 1 12 11l25 62a21 21 0 0 0 38 0z m74-114a142 142 0 0 1-50 50 135 135 0 0 1-137 0 142 142 0 0 1-50-50 135 135 0 0 1 0-137 141 141 0 0 1 50-50 135 135 0 0 1 137 0 141 141 0 0 1 50 50 135 135 0 0 1 0 137z m-28-121a105 105 0 0 0-38-38 105 105 0 0 0-105 0 104 104 0 0 0-38 38 104 104 0 0 0 0 105 103 103 0 0 0 38 38 104 104 0 0 0 105 0 104 104 0 0 0 38-38 104 104 0 0 0 0-105z m-399 127v-390a249 249 0 0 0 29-287 239 239 0 0 0-90-90 244 244 0 0 0-123-32h-2a235 235 0 0 0-122 33 247 247 0 0 0-90 91 244 244 0 0 0-32 123 235 235 0 0 0 61 162v390a178 178 0 0 0 54 130 178 178 0 0 0 131 54 178 178 0 0 0 130-54 178 178 0 0 0 54-130z m-184-707a148 148 0 0 1 108 45 148 148 0 0 1 45 109 141 141 0 0 1-19 73 215 215 0 0 1-35 46l-7 9v425a92 92 0 0 1-93 92 92 92 0 0 1-92-92v-425l-8-10a212 212 0 0 1-34-46 141 141 0 0 1-19-73 149 149 0 0 1 45-107 144 144 0 0 1 106-47z m94 209a100 100 0 0 1-40 40l-7 3v455a51 51 0 0 1-49 49 51 51 0 0 1-50-49v-455l-6-3a98 98 0 0 1-41-40 112 112 0 0 1-14-55 109 109 0 0 1 111-112 109 109 0 0 1 111 112 112 112 0 0 1-15 55z" horiz-adv-x="1000" />

<glyph glyph-name="extreme-winter-conditions" unicode="&#xe81b;" d="M925 261a42 42 0 0 0-31-21l-90-13 101-60a45 45 0 0 0 21-28 49 49 0 0 0-4-36 41 41 0 0 0-27-22 46 46 0 0 0-36 5l-101 60 34-86a44 44 0 0 0-2-35 44 44 0 0 0-27-23 46 46 0 0 0-36 3 44 44 0 0 0-23 25l-43 172-115 67v-134l125-123a39 39 0 0 0 12-33 48 48 0 0 0-16-31 45 45 0 0 0-32-13 41 41 0 0 0-31 16l-58 73v-120a46 46 0 1 0-92 0v119l-58-73a42 42 0 0 0-31-14 43 43 0 0 0-32 11 48 48 0 0 0-16 32 39 39 0 0 0 12 33l125 123v134l-115-67-43-171a47 47 0 0 0-57-29 48 48 0 0 0-27 22 43 43 0 0 0-4 35l34 87-101-59a46 46 0 0 0-36-5 40 40 0 0 0-27 22 49 49 0 0 0-4 35 45 45 0 0 0 21 28l101 60-90 13a45 45 0 0 0-30 20 42 42 0 0 0-6 35 49 49 0 0 0 21 29 44 44 0 0 0 34 7l167-48 131 67-131 67-167-48a44 44 0 0 0-35 7 50 50 0 0 0-20 29 42 42 0 0 0 6 34 44 44 0 0 0 30 20l90 14-101 59a45 45 0 0 0-21 28 49 49 0 0 0 4 36 40 40 0 0 0 27 22 46 46 0 0 0 36-5l101-60-34 87a46 46 0 0 0 30 58 46 46 0 0 0 35-3 44 44 0 0 0 24-26l42-171 115-67v134l-125 123a39 39 0 0 0-12 33 49 49 0 0 0 16 31 43 43 0 0 0 32 12 42 42 0 0 0 31-14l58-73v118a45 45 0 0 0 13 33 47 47 0 0 0 66 0 45 45 0 0 0 13-33v-118l58 73a41 41 0 0 0 31 14 43 43 0 0 0 32-11 48 48 0 0 0 16-32 38 38 0 0 0-12-33l-125-123v-134l116 67 42 171a44 44 0 0 0 23 26 46 46 0 0 0 36 3 46 46 0 0 0 30-58l-35-87 101 60a46 46 0 0 0 36 5 41 41 0 0 0 27-22 49 49 0 0 0 4-36 45 45 0 0 0-20-28l-102-59 90-14a44 44 0 0 0 30-20 42 42 0 0 0 6-34 50 50 0 0 0-20-29 44 44 0 0 0-35-7l-167 48-131-67 131-67 167 48a44 44 0 0 0 35-7 45 45 0 0 0 19-29 50 50 0 0 0-4-34z" horiz-adv-x="1000" />

<glyph glyph-name="financing" unicode="&#xe81c;" d="M993 139a37 37 0 0 0-37-37h-912a36 36 0 0 0-26 11 36 36 0 0 0-11 26v420a36 36 0 0 0 11 26 36 36 0 0 0 26 11h912a37 37 0 0 0 37-37z m-937 407v-98a95 95 0 0 1 71 28 95 95 0 0 1 28 71z m71-324a95 95 0 0 1-71 28v-98h99a95 95 0 0 1-29 70z m460 232q-36 43-87 43t-87-43a157 157 0 0 1-36-105 158 158 0 0 1 36-105q36-43 87-43t87 43a158 158 0 0 1 36 105 157 157 0 0 1-36 105z m-135-154h24v61l1 16-4-5a16 16 0 0 0-13-5 23 23 0 0 0-12 6l-10 10c-7 8-7 16 2 24l34 32a30 30 0 0 0 21 9h19a16 16 0 0 0 18-19v-129h24a16 16 0 0 0 18-19v-12a16 16 0 0 0-18-19h-104c-11 0-17 7-17 19v12c0 13 6 19 17 19z m393 246a97 97 0 0 1 99-98v98z m29-324a95 95 0 0 1-29-70h99v98a95 95 0 0 1-70-28z" horiz-adv-x="1000" />

<glyph glyph-name="fisheries" unicode="&#xe81d;" d="M992 795a47 47 0 0 1-47 47h-91a546 546 0 0 1-273-73 328 328 0 0 1-350-92 308 308 0 0 1-25-33 43 43 0 0 1 16-62l131-65a548 548 0 0 1-48-224v-43a295 295 0 0 1-265-81 303 303 0 0 1-24-28 38 38 0 0 1 11-57l97-55a151 151 0 0 0 56-55l55-97a38 38 0 0 1 56-11 292 292 0 0 1 28 24 295 295 0 0 1 81 265h43a547 547 0 0 1 307 93l18-29a35 35 0 0 1 53-8c3 3 7 6 10 9a204 204 0 0 1 56 161 547 547 0 0 1 105 323z m-268-59a43 43 0 1 0 0-61 43 43 0 0 0 0 61z" horiz-adv-x="1000" />

<glyph glyph-name="flash-flood" unicode="&#xe81e;" d="M974 235a11 11 0 0 0 18-8v-331a38 38 0 0 0-38-38h-908a38 38 0 0 0-38 38v332a11 11 0 0 0 18 8l17-17a126 126 0 0 1 176 0l28 27a11 11 0 0 0 14 0l28-27a126 126 0 0 1 177 0l27 27a11 11 0 0 0 15 0l27-27a126 126 0 0 1 177 0l27 27a11 11 0 0 0 15 0l27-27a126 126 0 0 1 177 0z m-291 101c-3-13 4-23 20-30a263 263 0 0 1 50-15l7-1a57 57 0 0 1 24 110c-15 4-34-2-59-18s-39-31-42-46z m-561-122l-23 6a101 101 0 0 1 23-6z m618 368a112 112 0 0 1-29 61 110 110 0 0 1-59 35l-211 47a114 114 0 0 1-121-49l-40-60 471-106z m-562-162l7-1a257 257 0 0 1 51-8c18 0 28 6 31 18 3 15-3 35-19 60s-31 39-46 42a55 55 0 0 1-42-8 57 57 0 0 1 18-103z m-130-162a58 58 0 0 1-5 4 42 42 0 0 0 0 14l24 107a109 109 0 0 0-11 79l19 83a107 107 0 0 0 28 53 125 125 0 0 0 51 31l-51 12a18 18 0 0 0-15 18l-5 44a21 21 0 0 0 7 19 20 20 0 0 0 19 5l94-21 22 33a224 224 0 0 0 105 86 222 222 0 0 0 136 11l211-48a221 221 0 0 0 117-68 224 224 0 0 0 58-122l5-39 96-22a20 20 0 0 0 15-12 21 21 0 0 0-2-20l-23-38a18 18 0 0 0-23-10l-50 11a125 125 0 0 0 33-50 107 107 0 0 0 3-59l-18-83a108 108 0 0 0-36-60 94 94 0 0 0-49 25l-28 27a42 42 0 0 1-58 0l-27-27a95 95 0 0 0-53-26l-67 15a101 101 0 0 0-13 11l-28 27a42 42 0 0 1-58 0l-13-13-233 53-11-51-17-16a95 95 0 0 0-66-27c-3 0-6 0-9 0l-23 5a95 95 0 0 0-34 22z" horiz-adv-x="1000" />

<glyph glyph-name="fog" unicode="&#xe81f;" d="M668 108h-562a27 27 0 0 0 0 55h562a27 27 0 0 0 0-55z m254-59h-707a27 27 0 0 1 0-55h707a27 27 0 0 1 0 55z m-145-117h-382a27 27 0 0 1 0-55h382a27 27 0 0 1 0 55z m215 418a27 27 0 0 0-27-27h-42c-1-2-2-4-3-6a205 205 0 0 0-74-73 194 194 0 0 0-100-28h-469a219 219 0 0 0-112 30 221 221 0 0 0-82 82 222 222 0 0 0 9 237 218 218 0 0 0 101 82 234 234 0 0 0 85 140 246 246 0 0 0 263 30 263 263 0 0 0 85-67 170 170 0 0 0 30 3 152 152 0 0 0 107-42 150 150 0 0 0 50-104 195 195 0 0 0 97-73 197 197 0 0 0 37-116 200 200 0 0 0-4-41h22a27 27 0 0 0 27-27z m-151-27h-341a27 27 0 0 0 0 54h374a140 140 0 0 1 6 41 134 134 0 0 1-134 134h-13a85 85 0 0 1 13 44 88 88 0 0 1-90 90 89 89 0 0 1-58-21 177 177 0 0 1-165 110 178 178 0 0 1-90-23 175 175 0 0 1-65-66 177 177 0 0 1-23-90v-1a153 153 0 0 1-96-53 151 151 0 0 1-39-102 156 156 0 0 1 156-156h470a129 129 0 0 1 95 39z m-474 54h-94a27 27 0 0 1 0-54h94a27 27 0 0 1 0 54z m528-269a27 27 0 0 1 0 55h-94a27 27 0 0 1 0-55z m-629-176h-94a27 27 0 0 1 0-55h94a27 27 0 0 1 0 55z" horiz-adv-x="1000" />

<glyph glyph-name="food-supply" unicode="&#xe820;" d="M531 567a220 220 0 0 0-36-126 197 197 0 0 0-97-75l25-458a40 40 0 0 0-12-34 46 46 0 0 0-34-14h-123a46 46 0 0 0-34 14 40 40 0 0 0-12 34l25 458a197 197 0 0 0-97 76 220 220 0 0 0-36 126q0 65 31 248a35 35 0 0 0 25 24 63 63 0 0 0 44 0c14-5 22-14 24-27v-271c1-4 6-5 15-5s14 1 16 3l15 273a35 35 0 0 0 25 27 61 61 0 0 0 43 0 35 35 0 0 0 25-27l15-273c2-2 7-3 16-3s14 1 16 5v271c1 13 9 22 24 27a63 63 0 0 0 43 0 35 35 0 0 0 23-25q31-182 31-248z m169-657a46 46 0 0 1 46-50h108a46 46 0 0 1 46 46v892a45 45 0 0 1-14 33 44 44 0 0 1-32 13q-62 0-130-57a379 379 0 0 1-105-145 295 295 0 0 1-19-186q23-108 129-190z" horiz-adv-x="1000" />

<glyph glyph-name="forest-fire" unicode="&#xe821;" d="M854 122l-160 167h65a44 44 0 0 1 33 13 44 44 0 0 1 0 64l-157 169h63a44 44 0 0 1 33 13 43 43 0 0 1 13 32 47 47 0 0 1-11 31l-200 216a47 47 0 0 1-69 0l-200-216a47 47 0 0 1-12-31 43 43 0 0 1 14-32 44 44 0 0 1 32-13h64l-158-169a44 44 0 0 1 0-64 44 44 0 0 1 33-13h65l-159-167a50 50 0 0 1-14-34 44 44 0 0 1 14-32 44 44 0 0 1 33-13h230a153 153 0 0 0-15-74 207 207 0 0 0-50-57 27 27 0 0 1-10-33 28 28 0 0 1 29-20h277a28 28 0 0 1 28 20 27 27 0 0 1-9 33 186 186 0 0 0-47 52 147 147 0 0 0-19 79h231a44 44 0 0 1 32 13 44 44 0 0 1 14 32 50 50 0 0 1-13 34z m-227 81a159 159 0 0 0-56-57 148 148 0 0 0-57-19 81 81 0 0 1 23 9 87 87 0 0 1 31 31 83 83 0 0 1 12 43c0 13-5 45-24 64-37 36-52 61-58 78a10 10 0 0 1-18 2c-25-31-73-98-71-144a86 86 0 0 1 43-74 83 83 0 0 1 24-10 149 149 0 0 0-60 20 158 158 0 0 0-57 57 150 150 0 0 0-21 78 154 154 0 0 0 14 63 165 165 0 0 0 8 16s0 0 0 0a49 49 0 0 1 3 45 10 10 0 0 0 12 15 64 64 0 0 0 36-19 46 46 0 0 0-2 6 123 123 0 0 0 162 143 10 10 0 0 0 3-18 61 61 0 0 1-19-62c3-13 26-48 49-73a161 161 0 0 0 32-49l0-1a180 180 0 0 0 12-66 150 150 0 0 0-21-78z" horiz-adv-x="1000" />

<glyph glyph-name="funding" unicode="&#xe822;" d="M983-62a21 21 0 0 0 5-15 28 28 0 0 0-5-17l-45-43a24 24 0 0 0-17-8 18 18 0 0 0-16 8l-234 233a26 26 0 0 0-6 16v27a413 413 0 0 0-121-73 386 386 0 0 0-140-25 388 388 0 0 0-201 53 403 403 0 0 0-145 146 388 388 0 0 0-54 200 389 389 0 0 0 54 201 404 404 0 0 0 145 145 389 389 0 0 0 201 54 388 388 0 0 0 201-54 403 403 0 0 0 145-145 388 388 0 0 0 54-201 386 386 0 0 0-26-140 413 413 0 0 0-72-121h27a21 21 0 0 0 15-6z m-579 195a301 301 0 0 1 154 41 305 305 0 0 1 112 113 307 307 0 0 1 0 307 306 306 0 0 1-112 113 307 307 0 0 1-308 0 306 306 0 0 1-112-113 307 307 0 0 1 0-307 305 305 0 0 1 112-113 301 301 0 0 1 154-41z m-31 69v46a181 181 0 0 0-74 28q-17 12-28 22a11 11 0 0 0 0 15l36 47a12 12 0 0 0 8 6 11 11 0 0 0 10-4c8-6 17-13 26-19a122 122 0 0 1 58-17 51 51 0 0 1 30 8 29 29 0 0 1 13 26c0 8-5 15-16 22a301 301 0 0 1-45 21q-54 21-76 39a98 98 0 0 0-39 80 103 103 0 0 0 27 71 128 128 0 0 0 71 39v49a10 10 0 0 0 4 8 13 13 0 0 0 8 3h46a10 10 0 0 0 8-3 11 11 0 0 0 3-8v-47a175 175 0 0 0 66-22 121 121 0 0 0 22-16 11 11 0 0 0 3-15l-29-52a8 8 0 0 0-7-6 14 14 0 0 0-10 3 262 262 0 0 1-25 15 91 91 0 0 1-49 13 73 73 0 0 1-33-7 23 23 0 0 1-14-22 31 31 0 0 1 18-26 293 293 0 0 1 46-20v-2c35-13 60-25 74-36a91 91 0 0 0 39-76 112 112 0 0 0-28-77 125 125 0 0 0-73-41v-45a13 13 0 0 0-4-10 10 10 0 0 0-7-3h-46a13 13 0 0 0-9 3 11 11 0 0 0-4 10z" horiz-adv-x="1000" />

<glyph glyph-name="government-continuity" unicode="&#xe823;" d="M915-46a19 19 0 0 0 6-13v-46a38 38 0 0 0-11-27 36 36 0 0 0-28-11h-764a36 36 0 0 0-27 11 38 38 0 0 0-11 27v46a19 19 0 0 0 6 13 18 18 0 0 0 13 6h803a18 18 0 0 0 13-6z m7 382v-305a19 19 0 0 0-8-16 18 18 0 0 0-11-3h-807a19 19 0 0 0-15 8 19 19 0 0 0-4 11v305a74 74 0 0 0 23 54 74 74 0 0 0 54 23h110a242 242 0 0 0 223 206v179a25 25 0 0 0-8 9 23 23 0 0 0-2 11 23 23 0 0 0 7 18 23 23 0 0 0 17 6 24 24 0 0 0 16-7 22 22 0 0 0 8-15 21 21 0 0 0-2-11 84 84 0 0 0 29 6 97 97 0 0 0 22-3c4-1 10-3 18-6s13-4 16-4a64 64 0 0 1 16-3 125 125 0 0 1 50 14 13 13 0 0 0 14-1 13 13 0 0 0 6-11v-105a13 13 0 0 0-6-11 91 91 0 0 0-53-18 97 97 0 0 0-22 2 143 143 0 0 0-18 6c-7 2-12 4-16 5a68 68 0 0 1-16 2 120 120 0 0 1-49-10v-53a242 242 0 0 0 229-206h103a74 74 0 0 0 54-23 74 74 0 0 0 22-54z m-609-53a26 26 0 1 1-52 0v-146a26 26 0 1 1 52 0z m148 0a26 26 0 1 1-52 0v-146a26 26 0 1 1 52 0z m142 0a25 25 0 0 1-25 25 25 25 0 0 1-26-25v-146a26 26 0 1 1 52 0z m142 0a26 26 0 1 1-51 0v-146a26 26 0 1 1 51 0z" horiz-adv-x="1000" />

<glyph glyph-name="green-infrastructure" unicode="&#xe824;" d="M595 556a14 14 0 0 0-3-9 10 10 0 0 0-7-5 227 227 0 0 1-104-47 214 214 0 0 1-62-94 12 12 0 0 0-6-7 12 12 0 0 0-9 0 12 12 0 0 0-7 6 11 11 0 0 0 0 10 242 242 0 0 0 69 104 245 245 0 0 0 114 52 14 14 0 0 0 10-2 10 10 0 0 0 5-8z m343-658v-38h-861v38a23 23 0 0 0 23 24h39v876a45 45 0 0 0 13 33 45 45 0 0 0 33 13h646a45 45 0 0 0 33-13 45 45 0 0 0 13-33v-877h38a23 23 0 0 0 24-23z m-369 185a23 23 0 0 1-23 23h-77a23 23 0 0 1-23-23v-162h123z m132 548a212 212 0 0 1-12 31 151 151 0 0 1-22 35c-9 11-18 15-25 13a42 42 0 0 1-19-10 67 67 0 0 1-10-15l-5-9q-9-16-40-29-18-7-60-20c-19-6-34-11-43-14a168 168 0 0 1-33-16 210 210 0 0 1-74-79 139 139 0 0 1-13-105 126 126 0 0 1 9-23c3-5 5-10 8-14l4-4a16 16 0 0 0-3-11 84 84 0 0 0-9-15 162 162 0 0 1-15-22 31 31 0 0 1-4-22 26 26 0 0 1 12-16 29 29 0 0 1 25-4 23 23 0 0 1 14 14 106 106 0 0 1 7 23c3 7 5 13 6 15 2 5 4 8 7 8l17-3a317 317 0 0 1 44-4 235 235 0 0 1 58 8 239 239 0 0 1 97 54q58 51 78 113a211 211 0 0 1 1 121z" horiz-adv-x="1000" />

<glyph glyph-name="groundwater-flood" unicode="&#xe825;" d="M961-142h-922a31 31 0 0 0-31 31v316a31 31 0 0 0 31 31h922a31 31 0 0 0 31-31v-316a31 31 0 0 0-31-31z m-4 782a126 126 0 0 0-176 0l-28 27a11 11 0 0 1-14 0l-28-27a126 126 0 0 0-176 0l-28 27a11 11 0 0 1-15 0l-27-27a126 126 0 0 0-177 0l-27 27a11 11 0 0 1-15 0l-27-27a126 126 0 0 0-177 0l-16 16a11 11 0 0 1-18-7v-332a38 38 0 0 1 38-38h908a38 38 0 0 1 38 38v332a11 11 0 0 1-18 8z" horiz-adv-x="1000" />

<glyph glyph-name="hail" unicode="&#xe826;" d="M433 841a237 237 0 0 0 108-25 261 261 0 0 0 85-67 170 170 0 0 0 30 3 152 152 0 0 0 107-42 150 150 0 0 0 50-103 195 195 0 0 0 97-74 198 198 0 0 0 37-116 194 194 0 0 0-28-101 205 205 0 0 0-73-73 194 194 0 0 0-100-27h-469a218 218 0 0 0-112 30 221 221 0 0 0-82 81 223 223 0 0 0 9 237 218 218 0 0 0 101 82 234 234 0 0 0 85 141 239 239 0 0 0 155 54z m0-67a177 177 0 0 1-90-23 174 174 0 0 1-65-65 177 177 0 0 1-23-90v-1a152 152 0 0 1-96-53 151 151 0 0 1-38-102 156 156 0 0 1 156-157h469a134 134 0 0 1 134 134 134 134 0 0 1-134 134h-13a89 89 0 0 1-13 108 86 86 0 0 1-64 26 89 89 0 0 1-58-21 177 177 0 0 1-165 110z m-2-847l50-69 81 26v86l-81 26z m273 120l14 84-77 39-60-60 39-76z m-290 54l-50 69-81-26v-85l81-27z" horiz-adv-x="1000" />

<glyph glyph-name="heat-wave" unicode="&#xe827;" d="M400 523a195 195 0 0 0 100 27v-400a195 195 0 0 0-100 27 201 201 0 0 0-73 73 200 200 0 0 0 0 200 201 201 0 0 0 73 73z m63 294l-48-119a38 38 0 0 0-22-20 33 33 0 0 0-28 3l-111 69a36 36 0 0 1-43-2 33 33 0 0 1-15-40l31-127a31 31 0 0 0-6-28 36 36 0 0 0-25-14l-130-10a36 36 0 0 1-34-27 35 35 0 0 1 12-43l98-82a34 34 0 0 0 0-54l-98-82a35 35 0 0 1-12-43 36 36 0 0 1 34-27l130-9a36 36 0 0 0 25-15 31 31 0 0 0 6-28l-31-127a33 33 0 0 1 15-40 36 36 0 0 1 43-2l112 69a33 33 0 0 0 28 3 38 38 0 0 0 22-20l48-119a36 36 0 0 1 36-25v231a251 251 0 0 0-131 35 271 271 0 0 0-95 95 258 258 0 0 0 0 262 271 271 0 0 0 95 95 251 251 0 0 0 131 36v230a36 36 0 0 1-37-25z m495-87c-14 15-31 36-63 40l-2 0c-3 0-6 0-9 0h-2c-40 0-61-23-76-40-13-15-20-22-34-22a46 46 0 0 0-5 0c-11 2-17 8-29 21-13 16-31 35-62 40a102 102 0 0 1-14 1c-40 0-61-23-76-40-13-16-19-22-34-22v-55a86 86 0 0 1 63 27 2 2 0 0 1 0-1c5 5 9 10 13 14 13 16 20 22 34 22a31 31 0 0 0 5 0c11-1 18-8 29-21 14-15 31-35 62-39a94 94 0 0 1 14-1c40 0 61 23 76 40 13 15 20 22 34 22a45 45 0 0 0 5 0c11-1 17-8 29-21 4-5 8-10 13-14 0 0 0 0 0 0a85 85 0 0 1 63-28v55c-14 0-21 7-34 22z m0-726c-13 15-31 35-62 39a89 89 0 0 1-14 1c-40 0-61-23-76-40-13-16-20-22-34-22a46 46 0 0 0-5 0c-11 1-17 8-29 21-13 15-31 35-62 40a102 102 0 0 1-14 1c-40 0-61-24-76-41-13-15-19-22-34-22v-54a85 85 0 0 1 30 5l0 0a112 112 0 0 1 47 35c13 16 19 22 34 22a31 31 0 0 0 5 0c11-1 17-8 29-21 13-15 30-35 61-40a94 94 0 0 1 15-1c40 0 60 23 75 41 14 15 20 22 35 22a45 45 0 0 0 5 0c10-2 17-9 29-22a116 116 0 0 1 43-35h0l3-1v0a85 85 0 0 1 30-5v55c-15-1-22 6-35 22z m0 242c-15 17-36 40-76 40a82 82 0 0 1-47-14s0 0 0 0a148 148 0 0 1-29-27c-13-15-19-22-34-22a46 46 0 0 0-5 0c-11 2-17 9-29 22a147 147 0 0 1-28 27v0a82 82 0 0 1-48 14c-40 0-60-24-75-41-14-15-20-22-35-22v-54c40 0 61 23 76 40 13 16 20 22 34 22s21-6 34-22 31-34 62-39a94 94 0 0 1 14-1c40 0 61 24 76 41 13 15 20 22 34 22s21-7 35-22c15-17 35-41 75-41v55c-14 0-21 7-34 22z m0 242c-14 15-31 35-63 40-1 0-2 0-4 0l-1 0c-3 0-5 0-8 0-40 0-60-23-76-41-13-15-19-21-34-21a46 46 0 0 0-5 0c-11 1-17 8-29 21-13 15-31 35-62 40a102 102 0 0 1-14 1c-40 0-60-24-75-41-14-15-20-22-35-22v-54c40 0 61 23 76 40 13 16 19 23 34 23s21-7 34-22 29-33 57-39l2 0 3-1a87 87 0 0 1 14-1c40 0 61 23 76 41 13 15 20 21 34 21s21-6 35-21c15-18 35-41 75-41v55c-14 0-21 7-34 22z" horiz-adv-x="1000" />

<glyph glyph-name="heavy-snow" unicode="&#xe828;" d="M298 47a8 8 0 0 0-6-2 7 7 0 0 0-5 2l-31 31-32-31a8 8 0 0 0-11 0l-18 18a7 7 0 0 0-2 5 8 8 0 0 0 2 6l32 31-32 31a7 7 0 0 0-2 6 8 8 0 0 0 2 5l18 18a8 8 0 0 0 11 0l32-32 31 32a8 8 0 0 0 5 2 8 8 0 0 0 6-2l18-18a8 8 0 0 0 2-5 8 8 0 0 0-2-6l-32-31 32-31a8 8 0 0 0 2-6 8 8 0 0 0-2-5z m489 0a8 8 0 0 0-11 0l-31 31-31-31a8 8 0 0 0-11 0l-18 18a8 8 0 0 0-2 5 8 8 0 0 0 2 6l32 31-32 31a8 8 0 0 0-2 6 8 8 0 0 0 2 5l18 18a8 8 0 0 0 11 0l31-32 31 32a8 8 0 0 0 11 0l18-17a8 8 0 0 0 2-6 7 7 0 0 0-2-5l-32-32 32-31a8 8 0 0 0 2-5 7 7 0 0 0-2-6z m-244 0a8 8 0 0 0-11 0l-32 31-31-31a8 8 0 0 0-11 0l-18 18a8 8 0 0 0-2 5 8 8 0 0 0 2 6l32 31-32 31a8 8 0 0 0-2 6 8 8 0 0 0 2 5l18 18a8 8 0 0 0 11 0l31-32 32 32a8 8 0 0 0 11 0l17-18a8 8 0 0 0 3-5 8 8 0 0 0-3-6l-31-31 31-31a8 8 0 0 0 3-6 8 8 0 0 0-3-5z m127-185a8 8 0 0 0-11 0l-31 31-31-31a8 8 0 0 0-11 0l-18 17a8 8 0 0 0 0 12l31 31-31 31a8 8 0 0 0-2 6 8 8 0 0 0 2 5l18 18a8 8 0 0 0 11 0l31-32 31 32a8 8 0 0 0 11 0l18-17a7 7 0 0 0 2-6 8 8 0 0 0-2-5l-32-32 32-31a8 8 0 0 0 0-11z m-244 0a8 8 0 0 0-12 0l-31 31-31-31a8 8 0 0 0-11 0l-18 17a8 8 0 0 0 0 12l32 31-32 31a8 8 0 0 0-3 6 8 8 0 0 0 3 6l17 17a8 8 0 0 0 11 0l32-31 31 31a8 8 0 0 0 11 0l17-17a8 8 0 0 0 3-6 8 8 0 0 0-2-5l-31-31 31-32a8 8 0 0 0 0-11z m7 980a237 237 0 0 0 108-25 263 263 0 0 0 85-67 170 170 0 0 0 30 3 152 152 0 0 0 107-42 150 150 0 0 0 50-104 195 195 0 0 0 97-73 197 197 0 0 0 37-116 194 194 0 0 0-28-101 205 205 0 0 0-73-73 194 194 0 0 0-100-28h-469a219 219 0 0 0-112 30 221 221 0 0 0-82 82 222 222 0 0 0 9 237 218 218 0 0 0 101 82 234 234 0 0 0 85 140 239 239 0 0 0 155 55z m0-67a178 178 0 0 1-90-23 175 175 0 0 1-65-66 177 177 0 0 1-23-90v-1a153 153 0 0 1-96-53 151 151 0 0 1-39-102 156 156 0 0 1 156-156h470a134 134 0 0 1 134 134 134 134 0 0 1-134 134h-13a85 85 0 0 1 13 44 88 88 0 0 1-90 90 89 89 0 0 1-58-21 177 177 0 0 1-165 110z" horiz-adv-x="1000" />

<glyph glyph-name="housing-access" unicode="&#xe829;" d="M985 357a22 22 0 0 0 6-14 21 21 0 0 0-4-15l-43-53a16 16 0 0 0-13-7 25 25 0 0 0-16 5l-401 330a21 21 0 0 1-28 0l-401-330a25 25 0 0 0-16-5 16 16 0 0 0-14 7l-42 53a21 21 0 0 0-4 15 22 22 0 0 0 6 14l434 357a77 77 0 0 0 51 19 83 83 0 0 0 53-19l152-126v125a20 20 0 0 0 6 14 20 20 0 0 0 15 6h95a20 20 0 0 0 15-6 20 20 0 0 0 6-15v-237z m-143-104a23 23 0 0 1-7 17l-321 263a21 21 0 0 1-28 0l-321-263a23 23 0 0 1-7-17v-245a41 41 0 0 1 41-41h199a20 20 0 0 1 14 6 20 20 0 0 1 6 15v191a21 21 0 0 0 20 21h124a20 20 0 0 0 14-6 20 20 0 0 0 6-15v-191a21 21 0 0 1 21-21h198a41 41 0 0 1 41 41z" horiz-adv-x="1000" />

<glyph glyph-name="hurricane" unicode="&#xe82a;" d="M823 351a322 322 0 0 0-25-127c-79-216-231-337-382-360-78-11-158-6-222 4-27 4-30 41-4 49 22 6 131 7 190 43 13 8 30 24 30 49s-18 37-33 42c-67 25-125 85-143 116h0a323 323 0 0 0-31 310c79 217 230 337 381 359 78 12 158 6 222-3 27-4 30-42 4-49-22-6-130-7-189-43-14-8-31-25-31-49a46 46 0 0 1 33-42 285 285 0 0 0 69-39 322 322 0 0 0 29-24l5-5 3-3a247 247 0 0 0 37-45h0a322 322 0 0 0 57-183z" horiz-adv-x="1000" />

<glyph glyph-name="indicators-1" unicode="&#xe82b;" d="M912 136a19 19 0 0 0 6-14v-65a20 20 0 0 0-20-19h-796a20 20 0 0 0-20 19v588a20 20 0 0 0 20 20h65a19 19 0 0 0 14-6 19 19 0 0 0 6-14v-503h711a19 19 0 0 0 14-6z m-268 476a39 39 0 0 1-28-67l54-53-117-120-92 92a17 17 0 0 1-13 5 24 24 0 0 1-15-5l-194-193a17 17 0 0 1-5-13 24 24 0 0 1 5-15l47-47a16 16 0 0 1 13-7 20 20 0 0 1 15 7l134 134 90-92a23 23 0 0 1 14-5 18 18 0 0 1 13 5l180 178 54-54a39 39 0 0 1 67 28v183a39 39 0 0 1-39 39z m268-476a19 19 0 0 0 6-14v-65a20 20 0 0 0-20-19h-796a20 20 0 0 0-20 19v588a20 20 0 0 0 20 20h65a19 19 0 0 0 14-6 19 19 0 0 0 6-14v-503h711a19 19 0 0 0 14-6z m-268 476a39 39 0 0 1-28-67l54-53-117-120-92 92a17 17 0 0 1-13 5 24 24 0 0 1-15-5l-194-193a17 17 0 0 1-5-13 24 24 0 0 1 5-15l47-47a16 16 0 0 1 13-7 20 20 0 0 1 15 7l134 134 90-92a23 23 0 0 1 14-5 18 18 0 0 1 13 5l180 178 54-54a39 39 0 0 1 67 28v183a39 39 0 0 1-39 39z" horiz-adv-x="1000" />

<glyph glyph-name="industrial-operations" unicode="&#xe82c;" d="M654 277a33 33 0 0 0 17-20 31 31 0 0 0-1-25q-14-40-65-102a41 41 0 0 0-23-11 35 35 0 0 0-23 4l-45 26a281 281 0 0 0-84-49v-53a35 35 0 0 0-10-23 34 34 0 0 0-22-12 321 321 0 0 0-117 0 32 32 0 0 0-22 12 37 37 0 0 0-9 23v52a259 259 0 0 0-84 50l-45-26a40 40 0 0 0-25-4 34 34 0 0 0-21 11q-49 60-65 102a31 31 0 0 0-2 25 33 33 0 0 0 17 20l51 26a257 257 0 0 0 0 97l-51 26a40 40 0 0 0-17 20 30 30 0 0 0 2 25q16 41 65 101a31 31 0 0 0 21 14 35 35 0 0 0 25-6l45-25a258 258 0 0 0 84 48v53a36 36 0 0 0 9 24 33 33 0 0 0 22 11 347 347 0 0 0 117 2 44 44 0 0 0 22-13 34 34 0 0 0 9-24v-53a300 300 0 0 0 85-47l45 24a31 31 0 0 0 23 6 38 38 0 0 0 23-13q49-59 64-102a37 37 0 0 0 1-25 36 36 0 0 0-16-20l-52-26a257 257 0 0 0 0-97z m-203 81a112 112 0 0 1-32 72 108 108 0 0 1-73 33 123 123 0 0 1-88-31 127 127 0 0 1-29-88 108 108 0 0 1 103-103 132 132 0 0 1 89 29 127 127 0 0 1 30 88z m333 70a17 17 0 0 0-11-9 23 23 0 0 0-13-1 169 169 0 0 0-49 30 16 16 0 0 0-7 11 23 23 0 0 0 3 14l12 21a153 153 0 0 0-25 42h-24a19 19 0 0 0-14 4 16 16 0 0 0-5 12 153 153 0 0 0-1 58 21 21 0 0 0 6 10 19 19 0 0 0 13 5h25a180 180 0 0 0 25 43l-13 22a23 23 0 0 0-2 13 16 16 0 0 0 7 11 192 192 0 0 0 49 28 18 18 0 0 0 24-8l12-23a131 131 0 0 0 49 0l13 23a17 17 0 0 0 10 9 17 17 0 0 0 13-1 146 146 0 0 0 49-28 16 16 0 0 0 7-11 23 23 0 0 0-3-13l-12-22a180 180 0 0 0 25-43h24a19 19 0 0 0 13-5 14 14 0 0 0 6-10 133 133 0 0 0 0-58 16 16 0 0 0-6-12 19 19 0 0 0-13-4h-24a153 153 0 0 0-25-42l12-22a23 23 0 0 0 3-13 16 16 0 0 0-7-11 169 169 0 0 0-50-30 23 23 0 0 0-13 1 17 17 0 0 0-10 9l-12 21a131 131 0 0 0-49 0z m0-461a17 17 0 0 0-11-9 23 23 0 0 0-13 0 169 169 0 0 0-49 29 16 16 0 0 0-7 11 23 23 0 0 0 2 14l13 21a152 152 0 0 0-25 42h-24a20 20 0 0 0-14 4 16 16 0 0 0-5 13 153 153 0 0 0-2 57 21 21 0 0 0 7 11 19 19 0 0 0 13 4h25a178 178 0 0 0 25 43l-13 22a23 23 0 0 0-2 13 16 16 0 0 0 7 11 146 146 0 0 0 49 28 18 18 0 0 0 24-8l12-21a161 161 0 0 0 49-2l13 24a18 18 0 0 0 23 8 146 146 0 0 0 49-29 16 16 0 0 0 7-11 23 23 0 0 0-3-13l-12-22a179 179 0 0 0 25-43h24a19 19 0 0 0 13-4 14 14 0 0 0 6-11 133 133 0 0 0 0-57 16 16 0 0 0-6-13 20 20 0 0 0-13-4h-24a152 152 0 0 0-25-42l12-21a23 23 0 0 0 3-14 16 16 0 0 0-7-11 169 169 0 0 0-50-29 23 23 0 0 0-13 0 17 17 0 0 0-10 9l-12 21a134 134 0 0 0-49 0z m53 560a52 52 0 0 1 37 37c6 19 1 38-13 58q-28 21-56 12a54 54 0 0 1-37-38 60 60 0 0 1 13-56 60 60 0 0 1 56-13z m0-460a53 53 0 0 1 37 37q9 28-13 57-28 22-56 12a54 54 0 0 1-37-37q-9-29 13-57 27-21 56-12z" horiz-adv-x="1000" />

<glyph glyph-name="industrial" unicode="&#xe82d;" d="M921 529a42 42 0 0 0 47 2 44 44 0 0 0 24-40v-524a46 46 0 0 0-46-46h-892a45 45 0 0 0-33 13 44 44 0 0 0-13 33v770a44 44 0 0 0 13 32 45 45 0 0 0 33 14h215a46 46 0 0 0 47-46v-377l267 169a42 42 0 0 0 47 2 44 44 0 0 0 24-40v-131z m-629-423a23 23 0 0 1 24 23v77a23 23 0 0 1-24 23h-76a23 23 0 0 1-24-23v-77a23 23 0 0 1 24-23z m246 0a23 23 0 0 1 24 23v77a23 23 0 0 1-24 23h-76a23 23 0 0 1-24-23v-77a23 23 0 0 1 24-23z m247 0a23 23 0 0 1 23 23v77a23 23 0 0 1-23 23h-77a23 23 0 0 1-24-23v-77a23 23 0 0 1 24-23z" horiz-adv-x="1000" />

<glyph glyph-name="insect-infestation" unicode="&#xe82e;" d="M725 42a31 31 0 0 0-21-8h-51v-15a126 126 0 0 0-12-56l56-55a31 31 0 0 0 8-21 30 30 0 0 0-30-29 31 31 0 0 0-21 8l-49 50a130 130 0 0 0-83-29v224a11 11 0 0 1-11 11h-22a11 11 0 0 1-11-11v-224a130 130 0 0 0-84 29l-49-50a31 31 0 0 0-21-8 30 30 0 0 0-29 29 31 31 0 0 0 8 21l56 55a127 127 0 0 0-13 56v15h-51a31 31 0 0 0-21 7 27 27 0 0 0-9 21 29 29 0 0 0 9 21 28 28 0 0 0 21 9h51v54l-43 42a31 31 0 0 0-8 21 30 30 0 0 0 29 30 31 31 0 0 0 21-8l49-50h211l49 50a31 31 0 0 0 21 8 30 30 0 0 0 30-30 31 31 0 0 0-9-21l-43-42v-54h52a28 28 0 0 0 20-8 29 29 0 0 0 9-22 26 26 0 0 0-9-20z m-276 271a103 103 0 0 1-51-89h205a103 103 0 0 1-154 89z m18 245a30 30 0 0 0-21-8h-50v-15a127 127 0 0 0-13-56l56-55a31 31 0 0 0 8-21 30 30 0 0 0-29-30 31 31 0 0 0-21 9l-49 50a130 130 0 0 0-84-29v224a10 10 0 0 1-3 7 11 11 0 0 1-8 4h-22a11 11 0 0 1-8-4 10 10 0 0 1-3-7v-224a130 130 0 0 0-83 29l-49-50a31 31 0 0 0-22-9 30 30 0 0 0-29 30 31 31 0 0 0 8 21l56 55a127 127 0 0 0-13 55v16h-50a30 30 0 0 0-21 8 27 27 0 0 0-9 20 29 29 0 0 0 9 22 28 28 0 0 0 20 8h51v55l-43 41a31 31 0 0 0-7 21 28 28 0 0 0 8 21 28 28 0 0 0 20 9 31 31 0 0 0 22-8l49-51h211l49 51a31 31 0 0 0 21 8 30 30 0 0 0 29-30 31 31 0 0 0-7-21l-44-41v-55h51a28 28 0 0 0 21-9 29 29 0 0 0 9-21 26 26 0 0 0-10-20z m-275 271a101 101 0 0 1-38-38 101 101 0 0 1-13-51h205a103 103 0 0 1-52 89 103 103 0 0 1-102 0z m791-272a31 31 0 0 0-21-7h-50v-15a127 127 0 0 0-13-56l56-54a31 31 0 0 0 8-22 30 30 0 0 0-29-30 31 31 0 0 0-21 8l-50 51a130 130 0 0 0-83-30v224a11 11 0 0 1-3 8 11 11 0 0 1-8 3h-22a11 11 0 0 1-8-3 11 11 0 0 1-3-8v-223a130 130 0 0 0-83 29l-50-51a31 31 0 0 0-21-8 30 30 0 0 0-29 30 31 31 0 0 0 8 21l55 55a127 127 0 0 0-12 55v15h-50a31 31 0 0 0-21 8 27 27 0 0 0-10 21 29 29 0 0 0 9 21 28 28 0 0 0 21 9h51v54l-43 42a31 31 0 0 0-8 21 30 30 0 0 0 29 29 31 31 0 0 0 22-8l49-50h211l49 50a31 31 0 0 0 21 8 30 30 0 0 0 29-29 31 31 0 0 0-8-21l-43-42v-54h51a28 28 0 0 0 21-9 29 29 0 0 0 8-21 26 26 0 0 0-9-21z m-276 271a101 101 0 0 1-37-37 101 101 0 0 1-14-51h205a103 103 0 0 1-102 102 102 102 0 0 1-52-14z" horiz-adv-x="1000" />

<glyph glyph-name="internet-and-communications" unicode="&#xe82f;" d="M24 475h262a1016 1016 0 0 1 0-254h-262a516 516 0 0 0 0 254z m272 63h-250a492 492 0 0 0 145 193 474 474 0 0 0 220 101q-84-119-115-294z m0-380q32-175 115-294a474 474 0 0 0-220 102 492 492 0 0 0-145 192z m355 317a1023 1023 0 0 0 0-254h-302a1023 1023 0 0 0 0 254z m-10 63h-282a818 818 0 0 0 50 161 506 506 0 0 0 89 141h4a504 504 0 0 0 90-141 818 818 0 0 0 49-161z m-282-380h282a818 818 0 0 0-50-161 504 504 0 0 0-89-141h-4a506 506 0 0 0-89 141 818 818 0 0 0-50 161z m345 380q-31 175-115 294a473 473 0 0 0 221-101 492 492 0 0 0 144-193z m0-380h250a492 492 0 0 0-144-193 473 473 0 0 0-221-101q84 119 115 294z m10 317a1016 1016 0 0 0 0-254h262a516 516 0 0 1 0 254z" horiz-adv-x="1000" />

<glyph glyph-name="land-use" unicode="&#xe830;" d="M898 842h-796a94 94 0 0 1-94-94v-796a94 94 0 0 1 94-94h796a94 94 0 0 1 94 94v796a94 94 0 0 1-94 94z m0-94h0v-83h-398v83h398z m-453-396h-79v396h80z m-134 0h-79v396h80z m183-54v-80h-392v80z m0-134v-80h-392v80z m54 178h80v-390h-79z m135 0h79v-390h-79z m-183 55v79h399v-79z m0 134v79h399v-79z m-398 217h76v-395h-76v395s0 0 0 0z m0-796h0v78h392v-78h-392z m796 0h-81v390h81v-390s0 0 0 0z" horiz-adv-x="1000" />

<glyph glyph-name="landslide" unicode="&#xe831;" d="M9 803a40 40 0 0 0 57 36l0 0c46-23 92-46 137-69a27 27 0 0 0 14-15c7-31 28-131 32-150 4-24 141-82 190-106a40 40 0 0 0 23-37q-1-70-4-139a24 24 0 0 1 13-26c33-19 65-39 99-57a58 58 0 0 0 31-47c4-19 10-37 14-55a15 15 0 0 1 18-13c9 1 92-5 121-25 57-40 87-78 145-117 19-12 47-32 77-51a40 40 0 0 0-23-74h-904a40 40 0 0 0-40 40z m546-183c30 0 60 0 91 0 14 0 17 6 15 24a434 434 0 0 0 0 96c2 20-3 26-19 30-27 6-55 14-82 22-25 6-50 14-75 20a27 27 0 0 1-20-5c-28-20-55-42-84-62-12-8-11-15-4-25 22-28 45-57 66-86a29 29 0 0 1 27-13c28 0 57 0 85 0z m68-220a23 23 0 0 1 10-30c22-11 43-23 65-33s42-21 64-32c2 5 3 6 3 8 1 30 1 59 1 89a19 19 0 0 1-7 12c-31 25-62 50-94 76-15-31-28-61-42-90z m322-253c-22 13-45 26-67 39a10 10 0 0 1-9-2c-14-11-27-22-39-35a15 15 0 0 1 1-14c18-20 37-38 57-56a16 16 0 0 1 16-1c17 20 33 41 49 62a59 59 0 0 1-8 7z" horiz-adv-x="1000" />

<glyph glyph-name="law-and-order" unicode="&#xe832;" d="M401 234a88 88 0 0 0-26-62 187 187 0 0 0-72-45 284 284 0 0 0-99-17 284 284 0 0 0-99 17 187 187 0 0 0-72 45 88 88 0 0 0-26 62v1a78 78 0 0 0 8 30q8 18 54 110l69 139a72 72 0 0 0 40 36 77 77 0 0 0 52 0 72 72 0 0 0 40-36l71-143q45-88 53-105a76 76 0 0 0 8-31z m-197 246l-111-222h222z m345-419v455a106 106 0 0 1 47 34 130 130 0 0 1 24 53h188a37 37 0 0 1 37 37v25a37 37 0 0 1-37 37h-209a117 117 0 0 1-43 36 124 124 0 0 1-111 0 117 117 0 0 1-44-36h-209a37 37 0 0 1-37-37v-25a37 37 0 0 1 37-37h188a130 130 0 0 1 25-53 106 106 0 0 1 46-34v-455h-259a37 37 0 0 1-37-37v-25a37 37 0 0 1 37-37h616a37 37 0 0 1 37 37v25a37 37 0 0 1-37 37z m444 173a88 88 0 0 0-26-62 187 187 0 0 0-72-45 300 300 0 0 0-198 0 187 187 0 0 0-72 45 88 88 0 0 0-26 62v1a78 78 0 0 0 8 30q7 18 54 110l69 139a72 72 0 0 0 40 36 77 77 0 0 0 52 0 72 72 0 0 0 40-36l71-143q45-88 53-105a75 75 0 0 0 7-31z m-197 246l-111-222h222z" horiz-adv-x="1000" />

<glyph glyph-name="lightning-thunderstorm" unicode="&#xe833;" d="M724 273a27 27 0 0 0 0-30l-16-27h0l-199-344a30 30 0 0 0-49-4 29 29 0 0 0-5 26l57 237h-146a28 28 0 0 0-22 10 30 30 0 0 0-7 23l15 116 0 3h0l24 174a28 28 0 0 0 10 19 29 29 0 0 0 19 7h166a27 27 0 0 0 24-12 28 28 0 0 0 5-25l-42-158h141a28 28 0 0 0 21-9s0 0 0 0a35 35 0 0 0 4-6z m194 260a195 195 0 0 1-98 74 150 150 0 0 1-49 102 152 152 0 0 1-107 43 170 170 0 0 1-31-3 263 263 0 0 1-85 67 245 245 0 0 1-263-30 234 234 0 0 1-84-141 223 223 0 0 1-140-206 218 218 0 0 1 30-112 222 222 0 0 1 82-81 219 219 0 0 1 111-30h5l8 67h-13a156 156 0 0 0-156 156 151 151 0 0 0 38 103 153 153 0 0 0 96 52v1a178 178 0 0 0 24 90 175 175 0 0 0 64 65 178 178 0 0 0 91 24 177 177 0 0 0 165-110 89 89 0 0 0 58 21 88 88 0 0 0 90-90 86 86 0 0 0-13-44h13a134 134 0 0 0 134-134 134 134 0 0 0-110-132 81 81 0 0 0-6-69 192 192 0 0 1 82 27 205 205 0 0 1 73 73 194 194 0 0 1 28 101 197 197 0 0 1-37 116z" horiz-adv-x="1000" />

<glyph glyph-name="monsoon" unicode="&#xe834;" d="M129-59a103 103 0 0 0-37 38 99 99 0 0 0-14 51 102 102 0 0 0 10 44 309 309 0 0 0 25 39c12 17 21 31 27 41a235 235 0 0 1 23 55 19 19 0 0 0 10 11 18 18 0 0 0 14 0 16 16 0 0 0 10-11 286 286 0 0 1 23-55q9-16 27-41a291 291 0 0 0 24-38 100 100 0 0 0-3-95 103 103 0 0 0-37-38 102 102 0 0 0-102 0z m320-65a102 102 0 0 0-37 36 99 99 0 0 0-14 51 102 102 0 0 0 10 44 300 300 0 0 0 24 40q18 25 28 41a234 234 0 0 1 22 54 18 18 0 0 0 10 11 18 18 0 0 0 15 0 16 16 0 0 0 10-11 286 286 0 0 1 22-55c7-10 16-24 28-40a300 300 0 0 0 24-39 100 100 0 0 0-3-96 102 102 0 0 0-37-37 101 101 0 0 0-102 0z m539 716a146 146 0 0 1-214 84c-39-23-67-68-69-109a17 17 0 0 1 17-17h39a16 16 0 0 1 15 13 126 126 0 0 0 4 14 73 73 0 0 0 139-49c-11-33-39-51-81-51-242 0-719-1-814-1a17 17 0 0 1-16-17v-37a16 16 0 0 1 16-17c95 0 577-1 829 0a134 134 0 0 1 116 64c21 30 32 82 19 123z m-578 105h17a22 22 0 0 1 21 17v0a73 73 0 0 0 143-32c-7-36-37-59-81-59-113 0-335 0-405 0a22 22 0 0 1-21-21v-30a22 22 0 0 1 21-21c142 0 282-2 423 1 60 1 105 34 127 91s11 111-32 156a145 145 0 0 1-161 31 142 142 0 0 1-85-109 21 21 0 0 1 21-24z m223-498a107 107 0 0 1 71-81 109 109 0 0 1 119 32 107 107 0 0 1 16 118c-20 43-55 62-100 62-144 1-419 0-492-1a18 18 0 0 1-18-18v-35a18 18 0 0 1 18-18h473a149 149 0 0 0 28-2c19-3 29-19 27-39a33 33 0 0 0-32-32 35 35 0 0 0-39 24 18 18 0 0 1-16 11h-37a18 18 0 0 1-18-21z" horiz-adv-x="1000" />

<glyph glyph-name="ocean-acidification" unicode="&#xe835;" d="M591 396q20-26 20-74t-20-73a67 67 0 0 0-56-26 68 68 0 0 0-56 26q-20 26-20 73t20 74a68 68 0 0 0 56 25 67 67 0 0 0 56-25z m402 301v-800a38 38 0 0 0-39-39h-907a38 38 0 0 0-39 39v800a11 11 0 0 0 18 8l17-17a126 126 0 0 1 177 0l27 27a11 11 0 0 0 15 0l27-27a126 126 0 0 1 177 0l27 27a11 11 0 0 0 15 0l27-27a126 126 0 0 1 177 0l27 27a11 11 0 0 0 15 0l27-27a126 126 0 0 1 177 0l17 17a11 11 0 0 0 18-8z m-816-378q0 47 18 73a57 57 0 0 0 49 26 58 58 0 0 0 47-18 80 80 0 0 0 14-31h59a101 101 0 0 1-19 52q-32 47-103 47a116 116 0 0 1-86-35q-40-40-40-113 0-68 35-107t94-39a112 112 0 0 1 80 28 127 127 0 0 1 38 75h-58a89 89 0 0 0-15-32 55 55 0 0 0-46-21 60 60 0 0 0-49 24q-18 24-18 71z m493 3q0 78-43 116-32 33-92 33t-92-33q-43-39-43-116 0-75 43-115 32-33 92-33t92 33q43 40 43 115z m216-93h-120a63 63 0 0 0 12 15c5 5 15 12 28 21l22 16a183 183 0 0 1 40 35 87 87 0 0 1 18 55 84 84 0 0 1-26 64c-17 17-40 24-70 24q-55 0-77-41a134 134 0 0 1-13-57h53a93 93 0 0 0 6 34q9 18 34 18a34 34 0 0 0 27-11 44 44 0 0 0 10-29 57 57 0 0 0-17-40 400 400 0 0 0-48-39q-44-30-55-58a130 130 0 0 1-13-55h189z" horiz-adv-x="1000" />

<glyph glyph-name="permanent-inundation" unicode="&#xe836;" d="M400 399a13 13 0 0 0-4 9v45a13 13 0 0 0 14 14h44a13 13 0 0 0 14-14v-44a14 14 0 0 0-14-14h-44a13 13 0 0 0-10 4z m198-40h-45a13 13 0 0 1-13-13v-45a13 13 0 0 1 13-13h45a13 13 0 0 1 13 13v45a13 13 0 0 1-13 13z m-55 40a13 13 0 0 1 10-4h45a13 13 0 0 1 13 14v44a13 13 0 0 1-13 14h-45a13 13 0 0 1-9-4 13 13 0 0 1-4-9v-45a13 13 0 0 1 4-10z m-133-111h45a13 13 0 0 1 13 13v45a13 13 0 0 1-13 13h-45a13 13 0 0 1-14-13v-45a13 13 0 0 1 4-10 13 13 0 0 1 10-3z m198-40a13 13 0 0 1-10 4h-45a13 13 0 0 1-13-14v-45a13 13 0 0 1 13-13h45a13 13 0 0 1 14 13v45a13 13 0 0 1-4 10z m384 447v-800a38 38 0 0 0-38-39h-908a38 38 0 0 0-38 39v800a11 11 0 0 0 18 8l17-17a126 126 0 0 1 176 0l27 27a11 11 0 0 0 15 0l28-27a126 126 0 0 1 177 0l27 27a11 11 0 0 0 15 0l27-27a126 126 0 0 1 176 0l27 27a11 11 0 0 0 15 0l28-27a126 126 0 0 1 177 0l17 17a11 11 0 0 0 17-8z m-237-731v23a13 13 0 0 1-4 9 13 13 0 0 1-9 4h-23l0 512a26 26 0 0 1-8 19 26 26 0 0 1-19 8l-376 0a27 27 0 0 1-27-27l0-512h-23a13 13 0 0 1-13-13v-23z m-291 284a13 13 0 0 1-9 4h-45a13 13 0 0 1-10-4 13 13 0 0 1-4-10v-45a13 13 0 0 1 14-13h45a13 13 0 0 1 13 13v45a13 13 0 0 1-4 10z m72-144a13 13 0 0 1-10 4h-45a13 13 0 0 1-13-13v-95h72v95a13 13 0 0 1-4 9z" horiz-adv-x="1000" />

<glyph glyph-name="physical-infrastructure" unicode="&#xe837;" d="M948 142a151 151 0 0 0 14-65 39 39 0 0 0-39-39h-349a19 19 0 0 1 16 6 16 16 0 0 1 4 15l-17 170a22 22 0 0 1-7 13 19 19 0 0 1-12 5h-131a19 19 0 0 1-12-5 16 16 0 0 1-6-13l-18-170a16 16 0 0 1 4-15 19 19 0 0 1 15-6h-349a38 38 0 0 0-28 11 38 38 0 0 0-11 28 151 151 0 0 0 15 65l223 500a42 42 0 0 0 15 16 37 37 0 0 0 21 7h157l-3-32a22 22 0 0 1 6-14 18 18 0 0 1 14-7h45a18 18 0 0 1 14 7 22 22 0 0 1 6 14l-3 32h156a37 37 0 0 0 21-7 42 42 0 0 0 15-16z m-400 157a18 18 0 0 1 14 6 22 22 0 0 1 5 15l-13 117a16 16 0 0 1-5 13 21 21 0 0 1-14 5h-85a21 21 0 0 1-14-5 16 16 0 0 1-6-13l-13-117a22 22 0 0 1 6-15 18 18 0 0 1 14-6z m-110 217a16 16 0 0 1 5-15 19 19 0 0 1 15-6h69a19 19 0 0 1 15 6 16 16 0 0 1 5 15l-5 52a16 16 0 0 1-6 13 21 21 0 0 1-14 5h-59a21 21 0 0 1-14-5 16 16 0 0 1-6-13z" horiz-adv-x="1000" />

<glyph glyph-name="planning" unicode="&#xe838;" d="M169 557l-28-30a29 29 0 0 0-35 0l-90 92a18 18 0 0 0-8 16 28 28 0 0 0 6 17l30 29a23 23 0 0 0 18 7 18 18 0 0 0 15-7l45-43 122 123a21 21 0 0 0 16 6 28 28 0 0 0 17-6l33-32a27 27 0 0 0 6-17 23 23 0 0 0-8-16h2z m0-307l-28-29a23 23 0 0 0-35 0l-90 90a23 23 0 0 0-8 16 27 27 0 0 0 6 17l30 30a28 28 0 0 0 18 6 21 21 0 0 0 15-6l45-42 123 121a18 18 0 0 0 15 8 23 23 0 0 0 17-8l33-32a21 21 0 0 0 6-16 24 24 0 0 0-8-17h2z m-104-156a91 91 0 0 1 0-131 92 92 0 0 1 66-27 89 89 0 0 1 65 27 93 93 0 0 1 0 131 89 89 0 0 1-65 27 92 92 0 0 1-66-27z m896 481a30 30 0 0 1 31 31v76a30 30 0 0 1-31 31h-553a30 30 0 0 1-31-31v-76a30 30 0 0 1 31-31z m0-308a30 30 0 0 1 31 31v77a30 30 0 0 1-31 31h-553a30 30 0 0 1-31-31v-77a30 30 0 0 1 31-31z m0-308a30 30 0 0 1 31 31v77a30 30 0 0 1-31 31h-553a30 30 0 0 1-31-31v-77a30 30 0 0 1 31-31z" horiz-adv-x="1000" />

<glyph glyph-name="policies" unicode="&#xe839;" d="M562 583a46 46 0 0 1 46-46h261v-631a46 46 0 0 0-46-46h-646a46 46 0 0 0-46 46v892a45 45 0 0 0 13 33 45 45 0 0 0 33 13h385z m123-193a23 23 0 0 1-24 23h-322a23 23 0 0 1-23-23v-15a23 23 0 0 1 23-24h323a23 23 0 0 1 23 24z m0-138v16a23 23 0 0 1-24 23h-322a23 23 0 0 1-23-23v-16a23 23 0 0 1 23-23h323a23 23 0 0 1 23 23z m0-123v16a23 23 0 0 1-24 23h-322a23 23 0 0 1-23-23v-16a23 23 0 0 1 23-23h323a23 23 0 0 1 23 23z m184 481a44 44 0 0 1-13 32l-189 189a44 44 0 0 1-32 13h-12v-246h246z" horiz-adv-x="1000" />

<glyph glyph-name="practice-and-behavior" unicode="&#xe83a;" d="M216 109v-7h-172a36 36 0 0 0-26 11 36 36 0 0 0-11 26v64a73 73 0 0 0 56 71l41 10a133 133 0 0 1 133-12 130 130 0 0 1-20-69z m-36 172a104 104 0 0 0-77 32 108 108 0 0 0 0 152 104 104 0 0 0 77 31 104 104 0 0 0 76-31 108 108 0 0 0 0-152 104 104 0 0 0-76-32z m494 30a106 106 0 0 0 62-40 109 109 0 0 0 24-68v-94a55 55 0 0 0-57-56h-406a55 55 0 0 0-56 56v93a109 109 0 0 0 24 69 106 106 0 0 0 62 39l61 16a192 192 0 0 1 107-37 180 180 0 0 1 118 37z m-174 334a161 161 0 0 1-162-162 162 162 0 1 1 324 0 160 160 0 0 1-162 162z m320-364a108 108 0 0 0-107 108 108 108 0 1 0 184-76 104 104 0 0 0-77-32z m118-8a73 73 0 0 0 55-70v-64a37 37 0 0 0-37-37h-172v101a137 137 0 0 1-20 71 129 129 0 0 1 64-14 119 119 0 0 1 68 24z" horiz-adv-x="1000" />

<glyph glyph-name="public-health" unicode="&#xe83b;" d="M978 545a51 51 0 0 1-37 16l-233 2 2 225a51 51 0 0 1-15 38 51 51 0 0 1-38 15h-314a51 51 0 0 1-38-15 51 51 0 0 1-15-38l2-225-232-2a51 51 0 0 1-38-16 51 51 0 0 1-15-37v-316a51 51 0 0 1 15-37 51 51 0 0 1 38-16l232-2-2-225a53 53 0 0 1 53-53h314a53 53 0 0 1 53 53l-2 225 233 2a53 53 0 0 1 52 53v316a51 51 0 0 1-15 37z m-331-196a161 161 0 0 0-23-26l-114-111a15 15 0 0 0-20 0l-114 111a139 139 0 0 0-21 25 102 102 0 0 0-21 58 84 84 0 0 0 23 63c16 15 38 23 65 23a87 87 0 0 0 46-15 175 175 0 0 0 32-25 175 175 0 0 0 32 25 87 87 0 0 0 46 14c27 0 49-8 65-23a84 84 0 0 0 23-63 100 100 0 0 0-19-56z" horiz-adv-x="1000" />

<glyph glyph-name="public-safety" unicode="&#xe83c;" d="M991-36a82 82 0 0 0-28-47 77 77 0 0 0-53-20h-820a77 77 0 0 0-53 20 82 82 0 0 0-27 47 87 87 0 0 0 8 56l410 711a77 77 0 0 0 44 37 86 86 0 0 0 56 0 77 77 0 0 0 44-37l410-711a87 87 0 0 0 9-56z m-546 180a79 79 0 1 1 111-111 79 79 0 1 1-111 111z m-7 73a18 18 0 0 1 7-13 20 20 0 0 1 14-6h82a20 20 0 0 1 15 6 18 18 0 0 1 6 13l13 232a22 22 0 0 1-6 16 20 20 0 0 1-14 6h-110a20 20 0 0 1-14-6 22 22 0 0 1-6-16z" horiz-adv-x="1000" />

<glyph glyph-name="quality-of-life" unicode="&#xe83d;" d="M926 102a497 497 0 0 0-180-180 477 477 0 0 0-246-66 477 477 0 0 0-246 67 497 497 0 0 0-180 179 477 477 0 0 0-66 246 477 477 0 0 0 67 246 497 497 0 0 0 179 180 477 477 0 0 0 246 66 477 477 0 0 0 246-66 497 497 0 0 0 180-180 477 477 0 0 0 66-246 477 477 0 0 0-66-246z m-680 278a134 134 0 0 1 190 0 134 134 0 0 1 0 190 134 134 0 0 1-190 0 134 134 0 0 1 0-190z m505-150a34 34 0 0 1-27 17 27 27 0 0 1-28-14q-53-81-125-110a191 191 0 0 0-142 0q-72 28-125 110a27 27 0 0 1-28 14 34 34 0 0 1-27-17 26 26 0 0 1 3-31q64-99 156-135a247 247 0 0 1 184 0q93 36 156 135a26 26 0 0 1 3 31z m-455 328a39 39 0 0 0 29-11 39 39 0 0 0-56-55 39 39 0 0 0-11 29 95 95 0 0 1-12-46 95 95 0 0 1 95-95 95 95 0 0 1 96 95 95 95 0 0 1-96 95 94 94 0 0 1-45-12z m267-178a134 134 0 0 1 191 0 134 134 0 0 1 0 190 134 134 0 0 1-191 0 123 123 0 0 1-37-95 123 123 0 0 1 37-95z m50 178a39 39 0 0 0 29-11 39 39 0 0 0-56-55 39 39 0 0 0-11 29 94 94 0 0 1-12-46 95 95 0 0 1 164-67 96 96 0 0 1 0 134 92 92 0 0 1-68 28 94 94 0 0 1-46-12z" horiz-adv-x="1000" />

<glyph glyph-name="rain-storm" unicode="&#xe83e;" d="M710-142a27 27 0 0 0-25 16l-261 586a27 27 0 0 0 50 22l261-586a27 27 0 0 0-14-36 28 28 0 0 0-11-2z m-156 2a27 27 0 0 1 14 36l-43 98a27 27 0 1 1-50-22l43-99a27 27 0 0 1 25-15 28 28 0 0 1 11 2z m-87 196a28 28 0 0 1 14 36l-120 269a27 27 0 0 1-50-22l120-270a27 27 0 0 1 25-16 28 28 0 0 1 11 3z m415-196a27 27 0 0 1 14 36l-43 98a27 27 0 0 1-50-22l43-99a27 27 0 0 1 25-16 28 28 0 0 1 11 3z m-87 196a27 27 0 0 1 14 36l-120 269a27 27 0 1 1-50-22l120-270a27 27 0 0 1 25-16 28 28 0 0 1 11 3z m115 478a195 195 0 0 1-97 73 150 150 0 0 1-50 104 152 152 0 0 1-107 42 170 170 0 0 1-30-3 263 263 0 0 1-85 67 246 246 0 0 1-264-30 234 234 0 0 1-84-141 223 223 0 0 1-140-206 218 218 0 0 1 30-112 221 221 0 0 1 82-82 219 219 0 0 1 112-30h29l-30 67a156 156 0 0 0-156 157 151 151 0 0 0 39 102 153 153 0 0 0 95 53v1a177 177 0 0 0 24 90 175 175 0 0 0 65 65 178 178 0 0 0 90 24 177 177 0 0 0 165-110 89 89 0 0 0 58 21 88 88 0 0 0 90-90 85 85 0 0 0-13-44h13a134 134 0 0 0 134-134 134 134 0 0 0-99-130l28-61a199 199 0 0 1 37 17 205 205 0 0 1 73 73 194 194 0 0 1 28 101 197 197 0 0 1-37 116z" horiz-adv-x="1000" />

<glyph glyph-name="recreation" unicode="&#xe83f;" d="M926 102a497 497 0 0 0-180-180 477 477 0 0 0-246-66 477 477 0 0 0-246 67 497 497 0 0 0-180 179 477 477 0 0 0-66 246 477 477 0 0 0 67 246 497 497 0 0 0 179 180 477 477 0 0 0 246 66 477 477 0 0 0 246-66 497 497 0 0 0 180-180 477 477 0 0 0 66-246 477 477 0 0 0-66-246z m-81 202l-125 116 34 166 67-6a378 378 0 0 1-200 145l27-62-148-83-148 83 27 62a378 378 0 0 1-200-145l69 6 32-166-125-116-52 44a387 387 0 0 1 76-234l15 67 169-22 73-152-59-36a391 391 0 0 1 246 0l-60 36 74 152 168 22 16-67a386 386 0 0 1 75 234z m-500 88l155 111 155-111-60-183h-190z" horiz-adv-x="1000" />

<glyph glyph-name="reduced-snowpack" unicode="&#xe840;" d="M790 766a19 19 0 0 1 12-10 17 17 0 0 1 14 1l58 36a19 19 0 0 0 23-1 18 18 0 0 0 8-21l-16-66a16 16 0 0 1 3-14 19 19 0 0 1 13-8l68-5a19 19 0 0 0 18-14 19 19 0 0 0-7-22l-51-44a18 18 0 0 1-7-14 18 18 0 0 1 7-14l51-43a19 19 0 0 0 7-22 19 19 0 0 0-18-14l-68-5a19 19 0 0 1-13-8 16 16 0 0 1-3-14l16-67a17 17 0 0 0-8-21 19 19 0 0 0-23-1l-58 36a17 17 0 0 1-14 2 20 20 0 0 1-12-11l-25-62a21 21 0 0 0-38 0l-25 62a20 20 0 0 1-12 11 17 17 0 0 1-14-2l-59-35a19 19 0 0 0-22 1 17 17 0 0 0-8 21l16 66a16 16 0 0 1-3 15 19 19 0 0 1-13 8l-69 5a19 19 0 0 0-17 14 19 19 0 0 0 7 21l51 44a18 18 0 0 1 7 14 18 18 0 0 1-7 14l-51 43a19 19 0 0 0-7 22 19 19 0 0 0 18 14l68 5a19 19 0 0 1 13 8 16 16 0 0 1 3 15l-16 66a18 18 0 0 0 8 21 19 19 0 0 0 22 0l58-36a17 17 0 0 1 15-1 19 19 0 0 1 12 10l25 63a21 21 0 0 0 38 0z m74-113a141 141 0 0 1-50 50 135 135 0 0 1-136 0 141 141 0 0 1-50-50 135 135 0 0 1 0-137 140 140 0 0 1 50-49 135 135 0 0 1 136 0 140 140 0 0 1 50 49 135 135 0 0 1 0 137z m-28-121a105 105 0 0 0-38-38 104 104 0 0 0-105 0 105 105 0 0 0-38 38 104 104 0 0 0 0 105 104 104 0 0 0 38 38 104 104 0 0 0 105 0 104 104 0 0 0 38-38 104 104 0 0 0 0-105z m-101-630l-157 272-175 303a29 29 0 0 1-50 0l-332-575a29 29 0 0 1 25-44h664a30 30 0 0 1 8 1 27 27 0 0 1 10 5 31 31 0 0 1 9 12 28 28 0 0 1 2 7 29 29 0 0 1-3 19z m-293 344l-113 29a17 17 0 0 0-10 24l62 108 79-137a17 17 0 0 0-18-24z m479-348l-226 390a29 29 0 0 1-50 0l-49-83 167-288a60 60 0 0 0 0-59h135a27 27 0 0 1 23 40z m-232 259l-36 13a17 17 0 0 0-10 25l28 49 37-63a17 17 0 0 0-19-24z" horiz-adv-x="1000" />

<glyph glyph-name="reduces-greenhouse-gas-emissions" unicode="&#xe841;" d="M580 307c13-16 19-38 19-66s-6-51-19-66a60 60 0 0 0-50-24 61 61 0 0 0-50 24q-18 23-18 66t18 66a61 61 0 0 0 50 23 60 60 0 0 0 50-23z m413-105a195 195 0 0 0-26-99 191 191 0 0 0-72-72 195 195 0 0 0-99-26h-567a214 214 0 0 0-111 30 227 227 0 0 0-81 81 220 220 0 0 0 11 239 220 220 0 0 0 107 81v13a242 242 0 0 0 33 123 246 246 0 0 0 90 90 243 243 0 0 0 124 33 239 239 0 0 0 124-34 249 249 0 0 0 90-89 145 145 0 0 0 81 25 147 147 0 0 0 148-148 161 161 0 0 0-9-54 192 192 0 0 0 112-68 190 190 0 0 0 45-125z m-785 35c0 29 5 51 16 66a52 52 0 0 0 44 24 52 52 0 0 0 42-17 72 72 0 0 0 13-27h53a91 91 0 0 1-17 47q-29 42-93 42a104 104 0 0 1-78-32c-23-24-35-58-35-102q0-61 31-96t85-35a102 102 0 0 1 72 26 114 114 0 0 1 35 67h-53a80 80 0 0 0-13-30 50 50 0 0 0-41-18 54 54 0 0 0-44 21q-17 22-17 64z m444 4q0 69-39 104-28 30-83 30t-83-30q-38-35-38-104 0-69 38-105 29-29 83-29t83 29q39 36 39 105z m195-84h-109a56 56 0 0 0 11 13c5 4 13 11 26 19l19 14a164 164 0 0 1 36 32 79 79 0 0 1 16 49 76 76 0 0 1-23 58 89 89 0 0 1-63 22q-50 0-69-37a121 121 0 0 1-12-52h48a83 83 0 0 0 5 31 31 31 0 0 0 30 16 31 31 0 0 0 26-10 39 39 0 0 0 8-26 51 51 0 0 0-15-36 360 360 0 0 0-44-35q-39-27-49-52a116 116 0 0 1-12-49h170z" horiz-adv-x="1000" />

<glyph glyph-name="research-and-monitoring" unicode="&#xe842;" d="M986 107a22 22 0 0 0 6-16v-77a23 23 0 0 0-23-24h-938a22 22 0 0 0-16 7 22 22 0 0 0-7 17v692a22 22 0 0 0 7 16 22 22 0 0 0 16 7h77a23 23 0 0 0 23-23v-592h838a22 22 0 0 0 17-7z m-424 330l-164 219a22 22 0 0 1-20 9 22 22 0 0 1-19-11l-167-279v-200h739l-173 362a21 21 0 0 1-15 12 18 18 0 0 1-18-5v2z" horiz-adv-x="1000" />

<glyph glyph-name="river-flood-1" unicode="&#xe843;" d="M961-142h-922a31 31 0 0 0-31 31v922a31 31 0 0 0 31 31h922a31 31 0 0 0 31-31v-922a31 31 0 0 0-31-31z m-156 320c4 11 7 21 9 30a253 253 0 0 1 9 100 244 244 0 0 1-52 126 224 224 0 0 1-108 72l-7 3-5 1-10 2-21 5-41 9-40 9c-8 2-11 3-15 3l-3 1c-1 0-2 1-3 1l-6 2a72 72 0 0 0-38 36 80 80 0 0 0-6 14 49 49 0 0 0-2 7c0 3-1 5-1 8l-1 8 0 4 0 4 1 8c0 2 1 5 2 7a132 132 0 0 0 37 67 207 207 0 0 0 48 34 4 4 0 0 1-2 7 237 237 0 0 1-54-13c-27-12-60-45-77-73-2-4-5-8-6-12l-5-11-3-6-1-7-4-12c-1-4-1-9-2-13a94 94 0 0 1-1-13 148 148 0 0 1 1-27c5-36 28-96 90-115s67-71 47-106c-18-33-82-50-219-101s-261-179-261-179v-149h755c-28 63-46 155-5 269z" horiz-adv-x="1000" />

<glyph glyph-name="rockfall" unicode="&#xe844;" d="M977 217a14 14 0 0 0 12-6 15 15 0 0 0 2-14l-10-31a13 13 0 0 0-14-10h-37a90 90 0 0 0 31-30 78 78 0 0 0 11-42v-62a79 79 0 0 0-20-54v-80a31 31 0 0 0-31-30h-62a31 31 0 0 0-30 30v52h-329v-52a31 31 0 0 0-31-30h-62a31 31 0 0 0-30 31v79a79 79 0 0 0-21 54v62a78 78 0 0 0 12 41 90 90 0 0 0 30 30h-37a13 13 0 0 0-14 11l-10 31a15 15 0 0 0 2 14 14 14 0 0 0 12 6h70l11 27a166 166 0 0 0 154 106h156a166 166 0 0 0 154-106l10-27z m-529-205h6a189 189 0 0 1 37 2c13 3 19 9 19 18q0 17-22 39t-39 23a41 41 0 0 1 0-82z m61 203l-19-49h348l-19 49a82 82 0 0 1-77 53h-156a82 82 0 0 1-77-53z m371-204a41 41 0 0 1 0 82q-17 0-40-22t-22-39c0-9 6-16 19-18a189 189 0 0 1 37-3z m-609-122v922a31 31 0 0 1-31 31h-201a31 31 0 0 1-31-31v-922a31 31 0 0 1 31-31h201a31 31 0 0 1 31 31z m57 852l74-102 119 39v125l-119 39z m222-235l-11-67 60-30 48 47-31 60z m213 194l-93 15-42-84 66-66 83 42z" horiz-adv-x="1000" />

<glyph glyph-name="salt-water-intrusion" unicode="&#xe845;" d="M658 348q-22 44-82 130t-92 137a968 968 0 0 0-76 185 55 55 0 0 1-33 37 60 60 0 0 1-49 0 62 62 0 0 1-34-37 787 787 0 0 0-77-183q-30-52-91-138t-82-131a343 343 0 0 1-34-148 333 333 0 0 1 46-171 344 344 0 0 1 125-125 333 333 0 0 1 171-46 333 333 0 0 1 171 46 344 344 0 0 1 125 125 337 337 0 0 1 12 319z m-82-134l-155-155a19 19 0 0 0-27 0l-19 18a17 17 0 0 0-5 13 20 20 0 0 0 6 14l96 92h-335a19 19 0 0 0-19 19v26a19 19 0 0 0 19 19h335l-96 92a20 20 0 0 0-6 14 17 17 0 0 0 5 13l19 18a19 19 0 0 0 27 0l155-156a19 19 0 0 0 0-27z m417-14a333 333 0 0 0-46-171 344 344 0 0 0-125-125 332 332 0 0 0-171-46 341 341 0 0 0-84 10 403 403 0 0 1 57 46c9-1 18-2 27-2a277 277 0 0 1 143 40 287 287 0 0 1 105 105 283 283 0 0 1 10 268c-13 26-39 67-77 122-41 58-73 105-94 141l-1 1 0 1a1028 1028 0 0 0-81 195v0a14 14 0 0 1-1 2l-1 0a11 11 0 0 1-3 1 7 7 0 0 1-3 0c-1-1-2-1-3-5a846 846 0 0 0-81-192c-12 20-23 37-32 51l-1 3a788 788 0 0 1 62 155 62 62 0 0 0 34 37 60 60 0 0 0 24 5 63 63 0 0 0 25-5 55 55 0 0 0 32-37 968 968 0 0 1 77-185q31-52 91-138t82-129a335 335 0 0 0 35-148z" horiz-adv-x="1000" />

<glyph glyph-name="severe-wind" unicode="&#xe846;" d="M969 354a134 134 0 0 0-116-64c-252 0-734 0-829 0a17 17 0 0 0-16 17v37a16 16 0 0 0 16 17c95 0 572 1 814 1 41 0 71 19 80 52a73 73 0 0 1-138 48 126 126 0 0 1-4-14 16 16 0 0 0-16-13h-39a17 17 0 0 0-16 17c1 41 29 86 69 109a146 146 0 0 0 214-84c13-40 2-92-19-123z m-559 228h17a22 22 0 0 1 21 17v0a73 73 0 0 0 143-32c-7-36-37-58-81-58-114 0-335 0-405 0a22 22 0 0 1-22-22v-29a22 22 0 0 1 22-22c142 0 282-2 423 1 60 1 104 35 127 91s11 111-32 156a145 145 0 0 1-161 32 142 142 0 0 1-85-110 21 21 0 0 1 21-24z m223-498a107 107 0 0 1 71-80 109 109 0 0 1 119 31 107 107 0 0 1 16 119c-20 42-55 62-100 62-144 0-419-1-492-2a18 18 0 0 1-18-18v-34a18 18 0 0 1 18-18c72 0 339 0 474 0a143 143 0 0 0 28-2c19-4 29-19 27-39a33 33 0 0 0-33-32 35 35 0 0 0-38 24 18 18 0 0 1-17 11h-37a18 18 0 0 1-18-22z" horiz-adv-x="1000" />

<glyph glyph-name="storm-surge" unicode="&#xe847;" d="M961-142h-201a31 31 0 0 0-31 31v760a31 31 0 0 0 31 31h201a31 31 0 0 0 31-31v-760a31 31 0 0 0-31-31z m-262 476a58 58 0 0 1-13 36c-29 37-97 116-97 231a190 190 0 0 0 140 183 244 244 0 0 1-327-3 159 159 0 0 1-13-13 251 251 0 0 1-21-27c-55-73-117-198-139-227-39-52-141-69-191-74a31 31 0 0 1-28-31l-2-520a31 31 0 0 1 31-31h441l0 0h188a31 31 0 0 1 31 31v336h0z" horiz-adv-x="1000" />

<glyph glyph-name="subsidence" unicode="&#xe848;" d="M421 482a238 238 0 0 0 108-25 263 263 0 0 0 85-67 170 170 0 0 0 31 2 152 152 0 0 0 107-42 150 150 0 0 0 49-103 195 195 0 0 0 97-73 197 197 0 0 0 38-117 194 194 0 0 0-28-100 205 205 0 0 0-73-74 194 194 0 0 0-101-27h-469a219 219 0 0 0-112 30 222 222 0 0 0-81 82 223 223 0 0 0 109 318 234 234 0 0 0 85 141 240 240 0 0 0 155 55z m0-67a178 178 0 0 1-90-24 175 175 0 0 1-65-65 177 177 0 0 1-24-90v-1a153 153 0 0 1-95-53 151 151 0 0 1-39-102 156 156 0 0 1 156-157h470a134 134 0 0 1 95 229 129 129 0 0 1-95 39h-12a88 88 0 0 1-77 134 89 89 0 0 1-59-21 177 177 0 0 1-165 111z m229 336a17 17 0 0 0 5-12 17 17 0 0 0-5-12l-138-138a17 17 0 0 0-24 0l-138 138a17 17 0 0 0-5 12 17 17 0 0 0 5 12l16 17a16 16 0 0 0 12 4 18 18 0 0 0 12-5l82-86v144a16 16 0 0 0 5 12 16 16 0 0 0 12 5h22a16 16 0 0 0 12-5 16 16 0 0 0 5-12v-143l82 85a18 18 0 0 0 12 5 16 16 0 0 0 12-5z m-337-153a17 17 0 0 0 4-12 17 17 0 0 0-4-12l-138-138a17 17 0 0 0-12-5 17 17 0 0 0-12 5l-138 138a16 16 0 0 0-5 12 16 16 0 0 0 5 12l15 16a16 16 0 0 0 13 5 18 18 0 0 0 12-6l81-85v297a16 16 0 0 0 5 12 16 16 0 0 0 12 5h23a16 16 0 0 0 12-5 16 16 0 0 0 5-12v-297l82 85a18 18 0 0 0 12 6 16 16 0 0 0 12-5z m674 0a16 16 0 0 0 5-12 16 16 0 0 0-5-12l-137-138a17 17 0 0 0-13-5 17 17 0 0 0-12 5l-137 138a17 17 0 0 0-5 12 17 17 0 0 0 5 12l15 16a16 16 0 0 0 12 5 18 18 0 0 0 12-6l82-85v297a16 16 0 0 0 5 12 16 16 0 0 0 12 5h23a16 16 0 0 0 12-5 16 16 0 0 0 5-12v-297l82 86a18 18 0 0 0 12 5 16 16 0 0 0 12-5z" horiz-adv-x="1000" />

<glyph glyph-name="technology" unicode="&#xe849;" d="M977 103a18 18 0 0 0 18-19v-55a74 74 0 0 0-74-74h-840a72 72 0 0 0-52 21 72 72 0 0 0-22 53v55a18 18 0 0 0 6 14 18 18 0 0 0 13 5h367c6 0 9-2 9-8a48 48 0 0 1 17-30 49 49 0 0 1 33-11h98a49 49 0 0 1 33 11 48 48 0 0 1 17 30c0 6 3 8 9 8z m-155 642a74 74 0 0 0 74-74v-444a74 74 0 0 0-74-74h-642a74 74 0 0 0-74 74v444a74 74 0 0 0 74 74z m-25-99h-592v-395h592z" horiz-adv-x="1000" />

<glyph glyph-name="tornado" unicode="&#xe84a;" d="M885 747c-34 46-172 95-385 95s-350-43-384-95c-61-102 178-178 95-255-163-148-110-299-61-348 64-65 126-105 289-160 95-31 95-126 95-126s148 141-129 255c-114 46 28 166 225 286 227 142 304 286 255 348z" horiz-adv-x="1000" />

<glyph glyph-name="tourism" unicode="&#xe84b;" d="M100 783h800a89 89 0 0 0 65-27 89 89 0 0 0 27-66v-676a92 92 0 0 0-92-93h-800a89 89 0 0 0-65 27 89 89 0 0 0-27 66v676a89 89 0 0 0 27 66 89 89 0 0 0 65 27z m819-246a14 14 0 0 1 12 11v142a30 30 0 0 1-31 31h-486a11 11 0 0 1-10-6l-58-86h-265a11 11 0 0 1-8-4 11 11 0 0 1-4-8v-69a11 11 0 0 1 4-8 11 11 0 0 1 8-4z m-819 184a30 30 0 0 1-31-31v-19a11 11 0 0 1 4-8 11 11 0 0 1 8-4h223a14 14 0 0 1 12 12v38a11 11 0 0 1-4 8 11 11 0 0 1-8 4z m400-692a232 232 0 0 1 200 347 229 229 0 0 1-200 115 229 229 0 0 1-231-231 229 229 0 0 1 231-231z m0 400a171 171 0 0 0 169-169 171 171 0 0 0-169-169 171 171 0 0 0-169 169 171 171 0 0 0 169 169z m-92-200a30 30 0 0 1 30 31 63 63 0 0 0 62 61 31 31 0 1 1 0 62 125 125 0 0 1-123-123 30 30 0 0 1 31-31z" horiz-adv-x="1000" />

<glyph glyph-name="transportation" unicode="&#xe84c;" d="M931 167a144 144 0 0 0-35-91 235 235 0 0 0-92-68 306 306 0 0 0-123-25l121-96a14 14 0 0 0 5-17 13 13 0 0 0-15-10h-584a13 13 0 0 0-15 10 14 14 0 0 0 5 17l121 96a306 306 0 0 0-123 25 235 235 0 0 0-92 68 144 144 0 0 0-35 91v493a141 141 0 0 0 36 92 249 249 0 0 0 92 67 291 291 0 0 0 119 25h369a297 297 0 0 0 119-25 240 240 0 0 0 92-67 143 143 0 0 0 35-93z m-93 446a46 46 0 0 1-46 47h-584a46 46 0 0 1-46-47v-215a46 46 0 0 1 46-46h584a46 46 0 0 1 46 46z m-414-370a108 108 0 0 1 76-183 107 107 0 0 1 76 183 107 107 0 0 1-152 0z" horiz-adv-x="1000" />

<glyph glyph-name="tropical-storm" unicode="&#xe84d;" d="M766 534h0a245 245 0 0 1-37 45l-3 2-5 5a323 323 0 0 1-29 24 282 282 0 0 1-69 39c-15 6-33 18-33 43s17 40 31 48c59 37 167 38 189 44 26 7 23 45-4 49-64 9-144 15-222 3-151-23-302-143-381-359a323 323 0 0 1 31-311h0c18-30 77-90 144-115 14-6 32-18 32-43s-17-40-30-48c-59-37-168-38-190-44-26-7-22-45 4-49 65-9 144-15 223-3 150 23 302 143 381 360a324 324 0 0 1-31 310z m-115-184a151 151 0 1 0-151 152 152 152 0 0 0 151-152z" horiz-adv-x="1000" />

<glyph glyph-name="vector-borne-disease" unicode="&#xe84e;" d="M985 219h0a59 59 0 0 0-80-23l-169 67-169 117a169 169 0 0 0-4-35l-5-40 255-137v-97l99-85a27 27 0 0 0-36-42l-118 101v91l-207 110-9-65 142-75v-99l101-102a27 27 0 0 0-38-38l-118 117v89l-93 50-25-187a11 11 0 0 0-21 0l-24 186-95-50v-89l-117-117a27 27 0 1 0-39 39l102 101v99l142 75-8 66-209-112v-89l-118-102a27 27 0 1 0-36 41l100 86v97l255 136-5 42a167 167 0 0 0-4 35l-169-117-170-67a59 59 0 1 0-57 102l411 184-182 24-12 176-75 74a27 27 0 0 0 39 39l89-89 11-152 149-20-21 21a46 46 0 0 0 0 65l26 26v181a27 27 0 0 0 54 0v-179l28-28a46 46 0 0 0 0-65l-22-21 152 20 11 152 89 89a27 27 0 0 0 39-39l-75-74-12-176-185-25 410-183a59 59 0 0 0 23-79z" horiz-adv-x="1000" />

<glyph glyph-name="waste-management" unicode="&#xe84f;" d="M69 737a46 46 0 0 0 47 46h215l17 36a43 43 0 0 0 17 18 49 49 0 0 0 26 7h218a49 49 0 0 0 25-7 43 43 0 0 0 18-18l17-37h216a46 46 0 0 0 46-46v-54a23 23 0 0 0-24-23h-815a23 23 0 0 0-23 23z m800-785a92 92 0 0 0-92-92h-554a92 92 0 0 0-92 92v623a23 23 0 0 0 23 23h692a23 23 0 0 0 24-23z m-531 514a31 31 0 0 1-53-22v-430a31 31 0 1 1 62 0v430a30 30 0 0 1-9 22z m184 0a31 31 0 0 1-52-22v-430a31 31 0 1 1 61 0v430a30 30 0 0 1-9 22z m185 0a31 31 0 0 1-53-22v-430a31 31 0 1 1 62 0v430a30 30 0 0 1-9 22z" horiz-adv-x="1000" />

<glyph glyph-name="wastewater-storm-management" unicode="&#xe850;" d="M500 748a398 398 0 1 0-398-397 398 398 0 0 0 398 397m0 94a492 492 0 1 1 491-491 492 492 0 0 1-491 491z m139-169a26 26 0 0 1-35-14 109 109 0 0 0-201 0 26 26 0 0 1-35 14 352 352 0 0 1-2-649 26 26 0 0 1 34 14 109 109 0 0 0 203 0 26 26 0 0 1 34-15 352 352 0 0 1 2 651z m-177-485a25 25 0 0 0-19-8h-145a26 26 0 1 0 0 52h145a26 26 0 0 0 19-44z m0 142a25 25 0 0 0-19-7h-192a26 26 0 1 0 0 51h192a26 26 0 0 0 19-44z m0 142a25 25 0 0 0-19-7h-145a26 26 0 1 0 0 52h145a26 26 0 0 0 19-45z m77 37a25 25 0 0 0 19 8h145a26 26 0 1 0 0-52h-145a26 26 0 0 0-19 44z m182-321a25 25 0 0 0-18-8h-145a26 26 0 1 0 0 52h145a26 26 0 0 0 18-44z m29 135h-192a26 26 0 1 0 0 51h192a26 26 0 1 0 0-51z" horiz-adv-x="1000" />

<glyph glyph-name="water-borne-disease" unicode="&#xe851;" d="M861 788l-100-876h-522l-100 876h722m12 54h-746a44 44 0 0 1-43-49l102-896a44 44 0 0 1 44-39h541a44 44 0 0 1 43 39l102 896a44 44 0 0 1-43 49z m-132-286l-482 0a30 30 0 0 1-29-33l62-553h417l61 553a30 30 0 0 1-29 33z m-288-125a16 16 0 0 0 13 5h69a16 16 0 0 0 12-5 18 18 0 0 0 5-13l-10-200a16 16 0 0 0-5-12 18 18 0 0 0-13-4h-48a18 18 0 0 0-13 4 16 16 0 0 0-5 12l-10 200a18 18 0 0 0 5 13z m88-353a58 58 0 1 0 18 42 57 57 0 0 0-18-42z" horiz-adv-x="1000" />

<glyph glyph-name="water-conservation" unicode="&#xe852;" d="M432 468a137 137 0 0 0-49 50 132 132 0 0 0-18 67 135 135 0 0 0 13 59 399 399 0 0 0 33 52c15 23 28 41 36 55a311 311 0 0 1 30 72 25 25 0 0 0 14 15 24 24 0 0 0 19 0 22 22 0 0 0 13-15 385 385 0 0 1 30-73q13-20 37-54a381 381 0 0 0 32-52 134 134 0 0 0-5-126 137 137 0 0 0-49-50 135 135 0 0 0-136 0z m21-230l-237 237a34 34 0 0 0-3 3l0 0a56 56 0 1 1-79-79l160-159 0 0a20 20 0 1 0-29-27l-159 159a95 95 0 0 0 96 158l21 252a53 53 0 0 1-104 17l-111-444a53 53 0 0 1 11-46l218-269a52 52 0 0 0 12-33v-97a53 53 0 0 1 53-53h114a53 53 0 0 1 53 53v291a53 53 0 0 1-16 37z m77-37v-291a53 53 0 0 1 53-53h114a53 53 0 0 1 53 53v97a52 52 0 0 0 11 33l219 269a53 53 0 0 1 10 46l-110 444a53 53 0 0 1-104-17l21-252a95 95 0 0 0 96-158l-159-159a20 20 0 1 0-29 26l0 0 160 161a56 56 0 0 1-79 79l0 0c-1-2-2-3-3-3l-237-238a53 53 0 0 1-16-37z" horiz-adv-x="1000" />

<glyph glyph-name="water-supply" unicode="&#xe853;" d="M220-131a82 82 0 0 0-30 29 80 80 0 0 0-11 41 82 82 0 0 0 8 35 250 250 0 0 0 20 32c9 14 16 25 21 33a192 192 0 0 1 19 43 14 14 0 0 0 7 9 14 14 0 0 0 12 0 13 13 0 0 0 8-9 230 230 0 0 1 18-44q8-12 22-32a240 240 0 0 0 19-32 80 80 0 0 0-2-76 82 82 0 0 0-30-29 81 81 0 0 0-81 0z m212 275v68a16 16 0 0 1-16 15h-310a16 16 0 0 1-16-15v-68a16 16 0 0 1 16-15h310a16 16 0 0 1 16 15z m391 155h67a16 16 0 0 1 16 16v311a16 16 0 0 1-16 15h-67a16 16 0 0 1-16-15v-311a16 16 0 0 1 16-16z m-231 445h139a47 47 0 0 1 47 47v4a47 47 0 0 1-47 47h-397a47 47 0 0 1-46-47v-4a47 47 0 0 1 46-48h140l30-52-22-38h-29a16 16 0 0 1-15-16v-38h-173a132 132 0 0 1-132-132v-184a16 16 0 0 1 16-16h224a16 16 0 0 1 16 16v59h361a16 16 0 0 1 16 17v224a16 16 0 0 1-16 16h-122v39a16 16 0 0 1-16 15h-28l-21 39z" horiz-adv-x="1000" />

<glyph glyph-name="wildfires" unicode="&#xe854;" d="M960-141h-922a31 31 0 0 0-31 31v144a31 31 0 0 0 31 31h922a31 31 0 0 0 31-31v-144a31 31 0 0 0-31-31z m-198 599l-1 2a291 291 0 0 1-58 89c-43 46-85 110-91 134a111 111 0 0 0 36 114 19 19 0 0 1-6 32 226 226 0 0 1-296-262 99 99 0 0 1 4-11 117 117 0 0 1-24 19 114 114 0 0 1-43 16 19 19 0 0 1-21-26 90 90 0 0 0-6-83 1 1 0 0 1 0 0c-5-10-11-19-16-29a282 282 0 0 1-25-117 275 275 0 0 1 39-142 290 290 0 0 1 104-103 272 272 0 0 1 110-37 151 151 0 0 0-45 18 157 157 0 0 0-78 135c-3 84 85 207 130 264a19 19 0 0 0 33-5c11-29 38-77 106-142 35-34 44-93 44-117a152 152 0 0 0-21-78 159 159 0 0 0-57-57 152 152 0 0 0-42-17 272 272 0 0 1 104 36 290 290 0 0 1 104 103 275 275 0 0 1 38 142 328 328 0 0 1-22 122z" horiz-adv-x="1000" />

<glyph glyph-name="zoning" unicode="&#xe855;" d="M897 243h-74v-31h-58l-134 365a137 137 0 0 1-91 185v82h-70v-81a137 137 0 0 1 33-271 130 130 0 0 1 15 1l104-281h-82v73h-70v-215h70v72h107l48-129c0 0 1-1 1-2l51-147a13 13 0 0 1 24 3l17 116a61 61 0 0 1 33 77l-30 82h32v-34h74a61 61 0 0 1 60 60v14a61 61 0 0 1-60 61z m-453 387a60 60 0 1 0 59-59 60 60 0 0 0-59 59z m-57-418h50v-70h-76l-47-129a10 10 0 0 0-1-1l-51-147a13 13 0 0 0-24 3l-16 115a61 61 0 0 0-34 77l30 82h-34v-34h-74a61 61 0 0 0-60 60v14a61 61 0 0 0 60 61h74v-31h59l120 324a169 169 0 0 1 117-73z" horiz-adv-x="1000" />

<glyph glyph-name="user-circle" unicode="&#xe856;" d="M16 350c0 268 217 484 484 484s484-216 484-484-216-484-484-484-484 217-484 484z m141-246c77-106 202-176 343-176s266 70 343 176c-6 53-44 97-97 110l-63 16c-51-44-115-67-183-67s-132 23-183 67l-63-16c-53-13-91-57-97-110z m124 340c0-121 98-219 219-219s219 98 219 219-98 219-219 219-219-98-219-219z" horiz-adv-x="1000" />

<glyph glyph-name="ellipsis-h" unicode="&#xe857;" d="M641 350c0-78-63-141-141-141s-141 63-141 141 63 141 141 141 141-63 141-141z m203 141c-78 0-141-63-141-141s63-141 141-141 140 63 140 141-62 141-140 141z m-688 0c-77 0-140-63-140-141s63-141 140-141 141 63 141 141-63 141-141 141z" horiz-adv-x="1000" />

<glyph glyph-name="edit" unicode="&#xe858;" d="M786 688l177-177c7-7 7-19 0-27l-427-426-181-20c-24-3-45 18-42 42l20 181 426 427c8 7 20 7 27 0z m317 44l-96 96c-29 29-77 29-107 0l-69-70c-8-7-8-19 0-27l176-176c7-7 19-7 27 0l69 69c29 30 29 79 0 108z m-353-558v-199h-625v625h449c6 0 12 3 16 7l79 78c14 15 4 40-17 40h-558c-52 0-94-42-94-94v-687c0-52 42-94 94-94h687c52 0 94 42 94 94v308c0 21-25 31-40 17l-78-79c-4-4-7-10-7-16z" horiz-adv-x="1125" />

<glyph glyph-name="download" unicode="&#xe859;" d="M422 850h156c26 0 47-21 47-47v-328h171c35 0 52-42 28-67l-297-297c-15-14-39-14-54 0l-297 297c-25 25-7 67 28 67h171v328c0 26 21 47 47 47z m578-734v-219c0-26-21-47-47-47h-906c-26 0-47 21-47 47v219c0 26 21 47 47 47h286l96-96c39-39 103-39 142 0l96 96h286c26 0 47-21 47-47z m-242-172c0 21-18 39-39 39s-39-18-39-39 17-39 39-39 39 17 39 39z m125 0c0 21-18 39-39 39s-39-18-39-39 17-39 39-39 39 17 39 39z" horiz-adv-x="1000" />

<glyph glyph-name="lightbulb" unicode="&#xe85a;" d="M531 14v-55c0-20-13-37-31-44v-18c0-26-21-47-47-47h-156c-26 0-47 21-47 47v18c-18 7-31 24-31 44v55c0 13 10 24 23 24h266c13 0 23-11 23-24z m-279 86c-20 0-37 12-44 30-76 198-177 178-177 376 0 190 154 344 344 344s344-154 344-344c0-198-101-178-177-376-7-18-24-30-44-30h-246z m-33 406c0 86 70 157 156 157 17 0 31 14 31 31s-14 31-31 31c-121 0-219-98-219-219 0-17 14-31 32-31s31 14 31 31z" horiz-adv-x="750" />

<glyph glyph-name="question-circle" unicode="&#xe85b;" d="M984 350c0-268-216-484-484-484s-484 216-484 484c0 267 217 484 484 484s484-217 484-484z m-471 324c-106 0-174-45-228-124-6-11-4-25 6-32l67-51c11-8 25-6 33 4 35 44 59 70 112 70 40 0 89-26 89-65 0-29-24-44-63-66-46-26-107-58-107-138v-8c0-13 10-23 23-23h110c13 0 23 10 23 23v3c0 55 163 58 163 208 0 113-118 199-228 199z m-13-484c-49 0-90-40-90-90 0-49 41-90 90-90s90 41 90 90c0 50-40 90-90 90z" horiz-adv-x="1000" />

<glyph glyph-name="dollar-sign" unicode="&#xe85c;" d="M222 519c0 46 42 75 107 75 52 0 105-24 149-55 12-8 28-5 34 8l46 85c6 9 3 21-5 29-47 41-115 66-178 73v93c0 13-10 23-23 23h-79c-12 0-23-10-23-23v-98c-114-26-190-109-190-212 0-241 361-216 361-331 0-39-32-80-102-80-60 0-123 31-172 70-10 8-25 6-33-4l-59-80c-7-9-6-22 2-31 47-45 116-80 193-93v-95c0-13 11-23 23-23h79c13 0 23 10 23 23v93c128 20 207 116 207 228 0 233-360 202-360 325z" horiz-adv-x="625" />

<glyph glyph-name="lock" unicode="&#xe85d;" d="M781 413h-47v140c0 164-133 297-296 297s-297-133-297-297v-140h-47c-52 0-94-42-94-94v-375c0-52 42-94 94-94h687c52 0 94 42 94 94v375c0 52-42 94-94 94z m-203 0h-281v140c0 78 63 141 141 141s140-63 140-141v-140z" horiz-adv-x="875" />

<glyph glyph-name="chevron-up" unicode="&#xe85e;" d="M12 148l39-38c9-10 24-10 33 0l354 353 353-353c9-10 24-10 33 0l39 38c9 9 9 24 0 33l-409 409c-9 10-24 10-33 0l-409-409c-9-9-9-24 0-33z" horiz-adv-x="875" />

<glyph glyph-name="chevron-right" unicode="&#xe85f;" d="M48 776l-38-39c-10-9-10-24 0-33l353-354-353-354c-10-9-10-24 0-33l38-39c9-9 24-9 33 0l409 409c10 10 10 24 0 34l-409 409c-9 9-24 9-33 0z" horiz-adv-x="500" />

<glyph glyph-name="chevron-left" unicode="&#xe860;" d="M452-76l38 39c10 9 10 24 0 33l-352 354 352 354c10 9 10 24 0 33l-38 39c-9 9-24 9-33 0l-409-409c-10-10-10-24 0-34l409-409c9-9 24-9 33 0z" horiz-adv-x="500" />

<glyph glyph-name="chevron-down" unicode="&#xe861;" d="M863 523l-39 39c-9 9-24 9-33 0l-353-353-354 353c-9 9-24 9-33 0l-39-39c-9-9-9-24 0-33l409-409c9-9 24-9 33 0l409 409c9 9 9 24 0 33z" horiz-adv-x="875" />

<glyph glyph-name="link" unicode="&#xe862;" d="M614 464c100-100 106-259 19-366-12-15-6-7-166-168-107-107-280-107-387 0-107 107-107 280 0 387 64 64 101 101 124 124 15 14 40 4 40-16a339 339 0 0 1 9-74c2-8 0-16-6-22l-89-89c-64-64-65-168 0-232 64-65 167-65 232 0l146 146c64 64 64 168 0 232a164 164 0 0 1-44 32c-9 4-14 14-13 24 3 22 12 43 29 60l9 8c7 7 17 9 26 5 26-13 50-30 71-51z m306 306c-107 107-280 107-387 0-160-161-154-153-166-168-87-107-80-266 19-366 22-21 45-38 71-51 9-4 19-2 27 5l8 8c17 17 26 38 29 60 1 10-4 20-13 24a164 164 0 0 0-44 32c-64 64-64 168 0 232l147 147c64 64 168 64 232 0 64-65 64-168 0-232l-90-90c-6-6-8-14-6-22a339 339 0 0 0 9-74c0-20 25-30 40-16 23 23 60 60 124 124 107 107 107 280 0 387z" horiz-adv-x="1000" />

<glyph glyph-name="external-link-square" unicode="&#xe863;" d="M875 694v-688c0-52-42-94-94-94h-687c-52 0-94 42-94 94v688c0 52 42 94 94 94h687c52 0 94-42 94-94z m-125-92c0 33-27 61-61 61h-258c-25 0-46-21-46-46v-29c0-26 22-46 47-46l110 3-405-402c-16-15-16-40-1-55l39-39c16-15 40-15 56 0l402 405-3-109c-1-26 20-47 45-47h29c26 0 46 20 46 46v258z" horiz-adv-x="875" />

<glyph glyph-name="file" unicode="&#xe864;" d="M438 584v266h-391c-26 0-47-21-47-47v-906c0-26 21-47 47-47h656c26 0 47 21 47 47v641h-266c-25 0-46 21-46 46z m312 28v-12h-250v250h12c12 0 24-5 33-14l191-191c9-9 14-21 14-33z" horiz-adv-x="750" />

<glyph glyph-name="eye" unicode="&#xe865;" d="M1112 398c-110 187-315 311-549 311-235 0-440-125-550-311a94 94 0 0 1 0-96c110-186 316-311 550-311 234 0 439 125 549 311a94 94 0 0 1 0 96z m-549-314c-147 0-266 119-266 266 0 147 119 266 266 266 146 0 265-119 265-266 0-147-119-266-265-266z m203 266c0-112-91-203-203-203s-204 91-204 203c0 35 9 67 24 96l0 0c0-47 38-84 84-84s84 37 84 84c0 46-38 83-84 83l0 0c28 16 61 24 96 24 112 0 203-91 203-203z" horiz-adv-x="1125" />

<glyph glyph-name="eye-slash" unicode="&#xe866;" d="M560 84l64-91a652 652 0 0 0-61-2c-234 0-440 125-550 311a94 94 0 0 0 0 96c47 79 111 148 188 200l111-159c-10-28-15-58-15-89 0-146 117-264 263-266z m552 218c-62-105-154-190-264-245l0 0 81-115c15-22 10-51-11-66l-26-18c-21-14-50-9-65 12l-631 888c-15 22-10 51 12 66l25 18c21 14 51 9 65-12l100-142c53 14 108 21 165 21 234 0 439-124 549-311a94 94 0 0 0 0-96z m-284 48c0 147-119 266-265 266-35 0-69-7-100-19l38-53c51 16 108 12 157-15h0c-46 0-83-37-83-83 0-47 37-84 83-84 46 0 84 37 84 84v0c36-68 32-152-16-217v0l37-53c41 47 65 107 65 174z m-316-197l-152 217c-9-103 58-192 152-217z" horiz-adv-x="1125" />

<glyph glyph-name="trash-alt" unicode="&#xe867;" d="M0 686v55c0 26 21 47 47 47h219l18 36c8 16 24 26 42 26h223c18 0 34-10 42-26l18-36h219c26 0 47-21 47-47v-55c0-13-10-23-23-23h-829c-12 0-23 10-23 23z m813-109v-633c0-52-42-94-94-94h-563c-51 0-93 42-93 94v633c0 13 10 23 23 23h703c13 0 24-10 24-23z m-532-133c0 17-14 31-31 31s-31-14-31-31v-438c0-17 14-31 31-31s31 14 31 31v438z m188 0c0 17-14 31-31 31s-32-14-32-31v-438c0-17 14-31 32-31s31 14 31 31v438z m187 0c0 17-14 31-31 31s-31-14-31-31v-438c0-17 14-31 31-31s31 14 31 31v438z" horiz-adv-x="875" />

<glyph glyph-name="times-circle" unicode="&#xe868;" d="M500 834c-268 0-484-216-484-484s216-484 484-484 484 216 484 484-216 484-484 484z m238-611c9-9 9-24 0-33l-78-77c-9-10-24-10-33 0l-127 128-127-128c-9-10-24-10-33 0l-77 77c-10 9-10 24 0 33l128 127-128 127c-10 9-10 24 0 33l77 78c9 9 24 9 33 0l127-129 127 129c9 9 24 9 33 0l78-78c9-9 9-24 0-33l-129-127 129-127z" horiz-adv-x="1000" />

<glyph glyph-name="ok-circled" unicode="&#xe869;" d="M717 440q0 16-10 26l-51 50q-11 11-25 11t-25-11l-228-227-126 126q-11 11-25 11t-25-11l-51-50q-10-10-10-26 0-15 10-25l202-202q10-10 25-10 15 0 26 10l303 303q10 10 10 25z m140-90q0-117-57-215t-156-156-215-58-216 58-155 156-58 215 58 215 155 156 216 58 215-58 156-156 57-215z" horiz-adv-x="857.1" />

<glyph glyph-name="indicators" unicode="&#xe86a;" d="M977 100c13 0 23-10 23-23v-79c0-13-10-23-23-23h-954c-12 0-23 10-23 23v704c0 13 11 23 23 23h79c13 0 23-10 23-23v-602h852z m-249 439l-165-111-167 222c-10 14-30 13-39-2l-169-282v-203h750l-176 366c-6 13-22 17-34 10z" horiz-adv-x="1000" />

<glyph glyph-name="cog" unicode="&#xe86b;" d="M869 281l83-48c10-5 14-16 11-27-22-69-59-132-107-185a24 24 0 0 0-29-4l-83 48a374 374 0 0 0-119-69v-96a24 24 0 0 0-18-23c-69-15-142-16-214 0-10 3-18 12-18 23v96a374 374 0 0 0-119 69l-83-48a24 24 0 0 0-29 4c-48 53-85 116-107 185-3 11 2 22 11 27l83 48a378 378 0 0 0 0 138l-83 48c-9 5-14 16-11 27 22 70 59 132 107 185a24 24 0 0 0 29 4l83-48a374 374 0 0 0 119 69v96a24 24 0 0 0 18 23c69 15 142 16 214 0 10-3 18-12 18-23v-96a374 374 0 0 0 119-69l83 48a24 24 0 0 0 29-4c48-53 85-115 107-185 3-11-1-22-11-27l-83-48a378 378 0 0 0 0-138z m-213 69c0 86-70 156-156 156s-156-70-156-156 70-156 156-156 156 70 156 156z" horiz-adv-x="1000" />

<glyph glyph-name="plus" unicode="&#xe86c;" d="M786 439v-107q0-22-16-38t-38-15h-232v-233q0-22-16-37t-38-16h-107q-22 0-38 16t-15 37v233h-232q-23 0-38 15t-16 38v107q0 23 16 38t38 16h232v232q0 22 15 38t38 16h107q23 0 38-16t16-38v-232h232q23 0 38-16t16-38z" horiz-adv-x="785.7" />

<glyph glyph-name="sign-out" unicode="&#xe86d;" d="M352-25h-164c-104 0-188 84-188 188v375c0 103 84 187 188 187h164c13 0 23-10 23-23v-79c0-12-10-23-23-23h-164c-35 0-63-28-63-62v-375c0-35 28-63 63-63h164c13 0 23-10 23-23v-79c0-13-10-23-23-23z m230 592l151-139h-374c-26 0-46-21-46-47v-62c0-26 20-47 46-47h374l-151-139c-20-18-20-49-2-68l43-42c18-19 48-19 66-1l297 295c19 18 19 48 0 66l-296 295c-19 18-48 18-67-1l-42-42c-19-19-19-50 1-68z" horiz-adv-x="1000" />

<glyph glyph-name="question" unicode="&#xe86e;" d="M395 850c-156 0-257-64-337-178-14-20-9-49 11-64l84-64c20-15 49-12 65 8 49 62 85 97 161 97 61 0 135-39 135-97 0-44-37-67-96-100-69-39-161-87-161-208v-19c0-26 21-47 47-47h142c26 0 47 21 47 47v11c0 84 244 88 244 314 0 171-177 300-342 300z m-20-729c-75 0-135-61-135-136 0-74 60-135 135-135s135 61 135 135-60 136-135 136z" horiz-adv-x="750" />

<glyph glyph-name="plus-square" unicode="&#xe86f;" d="M781 788h-687c-52 0-94-42-94-94v-688c0-52 42-94 94-94h687c52 0 94 42 94 94v688c0 52-42 94-94 94z m-62-493c0-13-11-23-24-23h-179v-180c0-13-11-23-24-23h-109c-13 0-24 10-24 23v180h-179c-13 0-24 10-24 23v110c0 13 11 23 24 23h179v180c0 13 11 23 24 23h109c13 0 24-10 24-23v-180h179c13 0 24-10 24-23v-110z" horiz-adv-x="875" />

<glyph glyph-name="minus-square" unicode="&#xe870;" d="M781 788h-687c-52 0-94-42-94-94v-688c0-52 42-94 94-94h687c52 0 94 42 94 94v688c0 52-42 94-94 94z m-601-516c-13 0-24 10-24 23v110c0 13 11 23 24 23h515c13 0 24-10 24-23v-110c0-13-11-23-24-23h-515z" horiz-adv-x="875" />

<glyph glyph-name="cancel" unicode="&#xe871;" d="M724 112q0-22-15-38l-76-76q-16-15-38-15t-38 15l-164 165-164-165q-16-15-38-15t-38 15l-76 76q-16 16-16 38t16 38l164 164-164 164q-16 16-16 38t16 38l76 76q16 16 38 16t38-16l164-164 164 164q16 16 38 16t38-16l76-76q15-15 15-38t-15-38l-164-164 164-164q15-15 15-38z" horiz-adv-x="785.7" />

<glyph glyph-name="cancel-circled" unicode="&#xe872;" d="M641 224q0 14-10 25l-101 101 101 101q10 11 10 25 0 15-10 26l-51 50q-10 11-25 11-15 0-25-11l-101-101-101 101q-11 11-25 11-16 0-26-11l-50-50q-11-11-11-26 0-14 11-25l101-101-101-101q-11-11-11-25 0-15 11-26l50-50q10-11 26-11 14 0 25 11l101 101 101-101q10-11 25-11 15 0 25 11l51 50q10 11 10 26z m216 126q0-117-57-215t-156-156-215-58-216 58-155 156-58 215 58 215 155 156 216 58 215-58 156-156 57-215z" horiz-adv-x="857.1" />
</font>
</defs>
</svg>
