<?xml version="1.0" encoding="UTF-8"?>
<svg width="250px" height="250px" viewBox="0 0 250 250" version="1.1" xmlns="http://www.w3.org/2000/svg" xmlns:xlink="http://www.w3.org/1999/xlink">
    <!-- Generator: Sketch 48.2 (47327) - http://www.bohemiancoding.com/sketch -->
    <title>Images/Hazards/Air-borne disease</title>
    <desc>Created with Sketch.</desc>
    <defs></defs>
    <g id="Library-Symbols" stroke="none" stroke-width="1" fill="none" fill-rule="evenodd">
        <g id="Images/Hazards/Air-borne-disease">
            <circle id="Oval-2" fill="#ECFEC6" cx="125" cy="125" r="125"></circle>
            <g id="air-borne-disease" transform="translate(47.000000, 47.000000)" fill-rule="nonzero">
                <path d="M105,62 L125.798034,59.1453287 C127.462107,51.8466039 127.3975,44.2703584 125.60919,37 L107.769714,54.4740484 L105,62 Z" id="Shape" fill="#BCE95B"></path>
                <path d="M48.1007014,54.2523182 L30.4560428,37 C28.6119536,44.2606163 28.5182255,51.8426373 30.1822892,59.1449488 L51,62 L48.1007014,54.2523182 Z" id="Shape" fill="#BCE95B"></path>
                <path d="M54.1338988,91.4357141 C69.2055134,100.188095 87.7944866,100.188095 102.866101,91.4357141 C110.276074,87.1694344 116.428346,81.0129677 120.698276,73.5913796 C121.546174,72.1242008 122.314532,70.6122264 123,69.0620457 L102.135984,71.965783 C98.1878826,80.520358 89.6450986,85.9972648 80.2448554,86.0005135 L77.0026418,86.0005135 C67.6023987,85.9972648 59.0596146,80.520358 55.1115128,71.965783 L34,69 C34.6886606,70.570984 35.4611442,72.1036607 36.314099,73.5913796 C40.5820266,81.0102951 46.729549,87.1662816 54.1338988,91.4357141 Z" id="Shape" fill="#BCE95B"></path>
                <path d="M55.0246914,49 L101.271605,49 L122,28.25487 C121.382716,27.0156149 120.765432,25.6648269 120,24.4007867 C115.750403,16.9831869 109.621159,10.8263966 102.234568,6.55551357 C87.1984946,-2.18517119 68.6533573,-2.18517119 53.617284,6.55551357 C46.2272409,10.826077 40.0939172,16.9826865 35.8395062,24.4007867 C35.1728395,25.5656865 34.6049383,26.7429788 34,27.9450562 L55.0246914,49 Z" id="Shape" fill="#BCE95B"></path>
                <path d="M133.750763,101.509754 L112.121705,96 C101.734402,103.637989 89.0806304,107.521634 76.2177162,107.019508 C64.5893936,106.732168 53.3250659,102.887886 43.9288876,96 L22.2379261,101.509754 C15.8835511,103.053458 10.2419278,106.72502 6.24207999,111.919831 C2.14965381,117.035614 -0.0549826715,123.416146 0.00221434556,129.978889 L0.00221434556,141.309331 C-0.0666774926,145.21701 1.47453822,148.979671 4.26117026,151.70697 C6.97773741,154.512854 10.728095,156.065777 14.6238043,155.997862 L141.377266,155.997862 C145.258178,156.007804 148.982989,154.463459 151.727217,151.706667 C154.471445,148.949875 156.008752,145.208011 155.998855,141.309331 L155.998855,129.978889 C156.057671,123.413781 153.848021,117.031403 149.746609,111.919831 C145.749479,106.722052 140.106723,103.049753 133.750763,101.509754 Z" id="Shape" fill="#85C005"></path>
            </g>
        </g>
    </g>
</svg>