<?xml version="1.0" encoding="UTF-8"?>
<svg width="250px" height="250px" viewBox="0 0 250 250" version="1.1" xmlns="http://www.w3.org/2000/svg" xmlns:xlink="http://www.w3.org/1999/xlink">
    <!-- Generator: Sketch 48.2 (47327) - http://www.bohemiancoding.com/sketch -->
    <title>Images/Hazards/Atmospheric CO2 concentrations </title>
    <desc>Created with Sketch.</desc>
    <defs></defs>
    <g id="Library-Symbols" stroke="none" stroke-width="1" fill="none" fill-rule="evenodd">
        <g id="Images/Hazards/Atmospheric-CO2-concentrations-">
            <circle id="Oval-2" fill="#F2F2F2" cx="125" cy="125" r="125"></circle>
            <g id="atmospheric-co2-concentrations" transform="translate(43.000000, 57.000000)" fill="#A4A49A" fill-rule="nonzero">
                <path d="M86.5458689,61.0057502 C83.2743733,60.8974415 80.1479524,62.3585199 78.1321937,64.9377347 C76.0440646,67.5590576 75,71.2463853 75,75.9997176 C75,80.7530499 76.0440646,84.4403776 78.1321937,87.0617005 C80.1479524,89.6409153 83.2743733,91.1019937 86.5458689,90.993685 C89.8040205,91.1087946 92.917525,89.64463 94.9071225,87.0617005 C96.9777778,84.4403776 98,80.783632 98,75.9997176 C98,71.2158032 96.9777778,67.5590576 94.9071225,64.9508413 C92.9188906,62.3647282 89.8058936,60.8959225 86.5458689,61.0057502 Z" id="Shape"></path>
                <path d="M157.521762,61.3895071 C152.784695,55.5220463 146.120613,51.5052688 138.701843,50.0457944 C139.730814,47.1639557 140.256822,44.1281206 140.2571,41.0696914 C140.285043,34.5266011 137.686075,28.2434648 133.037837,23.6167594 C128.389598,18.990054 122.07722,16.4031255 115.503678,16.4309392 C110.636423,16.396858 105.872031,17.8249948 101.833097,20.5287254 C98.2197381,14.3694181 93.0696898,9.24322727 86.8817167,5.64660686 C80.6135282,1.90860198 73.434454,-0.0443480741 66.1275275,0.000768188084 C58.8380338,-0.0439097812 51.6702811,1.86103254 45.3733383,5.51651841 C39.1068208,9.11292777 33.9044111,14.2912374 30.2912638,20.5287254 C26.6307715,26.7587877 24.7170736,33.8524925 24.7498431,41.0696914 L24.7498431,43.1771243 C17.5711607,45.7116121 11.3573173,50.3969865 6.96240509,56.5892433 C-1.56218535,68.3439556 -2.3205414,83.9967468 5.02813557,96.5133882 C8.30815319,102.085246 12.9702332,106.725729 18.5680222,109.990552 C24.1784796,113.315959 30.596906,115.048105 37.1265541,114.998957 L132.010316,114.998957 C137.844414,115.045464 143.584608,113.53621 148.634578,110.627985 C153.634993,107.797349 157.775397,103.676124 160.619207,98.6988742 C163.536402,93.6710186 165.048146,87.9574952 164.997453,82.1516235 C165.094056,74.5614362 162.440113,67.190681 157.521762,61.3895071 Z M36.4600153,86.8608253 C38.2001436,89.1244611 40.9157039,90.4325106 43.7788729,90.3862223 C46.4392981,90.5644488 49.0229309,89.4553884 50.7187183,87.4071968 C51.7726669,85.9445643 52.5194397,84.2853825 52.9143756,82.52888 L61.6970048,82.52888 C61.1007895,86.8112859 59.0536136,90.7627569 55.8941962,93.7294954 C52.613762,96.6626281 48.3161511,98.2113708 43.9095668,98.0484319 C37.8889351,98.0484319 33.15346,96.1057778 29.7031414,92.2204694 C26.2528227,88.3351611 24.5102376,82.9798533 24.4753859,76.154546 C24.4753859,68.7915398 26.4357942,63.1457012 30.3566108,59.1389769 C33.7865784,55.6559988 38.5289966,53.7678192 43.4259994,53.935439 C50.4747564,53.935439 55.628452,56.2640222 58.8870862,60.9211887 C60.5688948,63.2014857 61.5741321,65.9057573 61.7884905,68.7264956 L52.9405144,68.7264956 C52.5548259,67.0631983 51.8149937,65.5016649 50.7709959,64.1473822 C48.9750256,62.2210248 46.3997013,61.207145 43.7658035,61.3895071 C40.7707428,61.3166173 37.9515749,62.7935164 36.316252,65.2921606 C34.499607,67.8939295 33.5847498,71.5233972 33.5847498,76.2586168 C33.5847498,80.9938363 34.5388152,84.5062244 36.4600153,86.8608253 Z M101.441016,93.0790532 C98.2433719,96.3572821 93.6211648,97.9963965 87.5743943,97.9963965 C81.5276238,97.9963965 76.9054167,96.3572821 73.7077729,93.0790532 C69.4035876,89.0636564 67.2558514,83.2703842 67.2645643,75.6992364 C67.2645643,67.9806552 69.4123005,62.1873829 73.7077729,58.3194197 C76.8967038,55.0411908 81.5189109,53.4020763 87.5743943,53.4020763 C93.6298777,53.4020763 98.2520848,55.0411908 101.441016,58.3194197 C105.719062,62.1873829 107.853729,67.9806552 107.845016,75.6992364 C107.845016,83.2703842 105.710349,89.0636564 101.441016,93.0790532 Z M140.46621,96.8256005 L111.948804,96.8256005 C111.988207,94.0128538 112.643863,91.2425548 113.870004,88.7080813 C115.028823,85.9328611 117.782108,83.005871 122.129858,79.927111 C124.720432,78.1937175 127.171785,76.2625971 129.461785,74.1511839 C131.085597,72.5894357 132.02488,70.4531166 132.075663,68.2061418 C132.139879,66.620183 131.619268,65.0655855 130.611891,63.8351699 C129.553774,62.6476141 128.008958,62.0057248 126.416617,62.0919847 C124.309473,61.880913 122.289033,62.9820956 121.332625,64.8628687 C120.708694,66.4859101 120.398303,68.2116332 120.417768,69.949327 L112.406233,69.949327 C112.411108,66.9892286 113.071537,64.0665983 114.340502,61.3895071 C116.527447,57.2526944 120.409055,55.1842881 125.985328,55.1842881 C129.812286,55.0090129 133.558974,56.3142788 136.440838,58.8267647 C139.082594,61.3326232 140.511362,64.8500736 140.361655,68.4793275 C140.394723,71.4403109 139.417958,74.3249308 137.590945,76.661891 C135.877484,78.7010337 133.874177,80.4803187 131.644373,81.943482 L128.363956,84.2590564 C126.312062,85.7030381 124.900568,86.7567546 124.142544,87.4071968 C123.390945,88.0522236 122.746898,88.8118393 122.234413,89.657727 L140.413933,89.657727 L140.46621,96.8256005 Z" id="Shape"></path>
            </g>
        </g>
    </g>
</svg>