<?xml version="1.0" encoding="UTF-8"?>
<svg width="250px" height="250px" viewBox="0 0 250 250" version="1.1" xmlns="http://www.w3.org/2000/svg" xmlns:xlink="http://www.w3.org/1999/xlink">
    <!-- Generator: Sketch 48.2 (47327) - http://www.bohemiancoding.com/sketch -->
    <title>Images/Hazards/Atmospheric CO2 concentrations </title>
    <desc>Created with Sketch.</desc>
    <defs></defs>
    <g id="Library-Symbols" stroke="none" stroke-width="1" fill="none" fill-rule="evenodd">
        <g id="Images/Hazards/Atmospheric-CO2-concentrations-">
            <circle id="Oval-2" fill="#BFEFE9" cx="125" cy="125" r="125"></circle>
            <path d="M129.545869,118.00575 C126.274373,117.897442 123.147952,119.35852 121.132194,121.937735 C119.044065,124.559058 118,128.246385 118,132.999718 C118,137.75305 119.044065,141.440378 121.132194,144.061701 C123.147952,146.640915 126.274373,148.101994 129.545869,147.993685 C132.804021,148.108795 135.917525,146.64463 137.907123,144.061701 C139.977778,141.440378 141,137.783632 141,132.999718 C141,128.215803 139.977778,124.559058 137.907123,121.950841 C135.918891,119.364728 132.805894,117.895923 129.545869,118.00575 Z" id="Shape" fill="#15514B" fill-rule="nonzero"></path>
            <path d="M200.521762,118.389507 C195.784695,112.522046 189.120613,108.505269 181.701843,107.045794 C182.730814,104.163956 183.256822,101.128121 183.2571,98.0696914 C183.285043,91.5266011 180.686075,85.2434648 176.037837,80.6167594 C171.389598,75.990054 165.07722,73.4031255 158.503678,73.4309392 C153.636423,73.396858 148.872031,74.8249948 144.833097,77.5287254 C141.219738,71.3694181 136.06969,66.2432273 129.881717,62.6466069 C123.613528,58.908602 116.434454,56.9556519 109.127528,57.0007682 C101.838034,56.9560902 94.6702811,58.8610325 88.3733383,62.5165184 C82.1068208,66.1129278 76.9044111,71.2912374 73.2912638,77.5287254 C69.6307715,83.7587877 67.7170736,90.8524925 67.7498431,98.0696914 L67.7498431,100.177124 C60.5711607,102.711612 54.3573173,107.396987 49.9624051,113.589243 C41.4378146,125.343956 40.6794586,140.996747 48.0281356,153.513388 C51.3081532,159.085246 55.9702332,163.725729 61.5680222,166.990552 C67.1784796,170.315959 73.596906,172.048105 80.1265541,171.998957 L175.010316,171.998957 C180.844414,172.045464 186.584608,170.53621 191.634578,167.627985 C196.634993,164.797349 200.775397,160.676124 203.619207,155.698874 C206.536402,150.671019 208.048146,144.957495 207.997453,139.151623 C208.094056,131.561436 205.440113,124.190681 200.521762,118.389507 Z M79.4600153,143.860825 C81.2001436,146.124461 83.9157039,147.432511 86.7788729,147.386222 C89.4392981,147.564449 92.0229309,146.455388 93.7187183,144.407197 C94.7726669,142.944564 95.5194397,141.285383 95.9143756,139.52888 L104.697005,139.52888 C104.100789,143.811286 102.053614,147.762757 98.8941962,150.729495 C95.613762,153.662628 91.3161511,155.211371 86.9095668,155.048432 C80.8889351,155.048432 76.15346,153.105778 72.7031414,149.220469 C69.2528227,145.335161 67.5102376,139.979853 67.4753859,133.154546 C67.4753859,125.79154 69.4357942,120.145701 73.3566108,116.138977 C76.7865784,112.655999 81.5289966,110.767819 86.4259994,110.935439 C93.4747564,110.935439 98.628452,113.264022 101.887086,117.921189 C103.568895,120.201486 104.574132,122.905757 104.78849,125.726496 L95.9405144,125.726496 C95.5548259,124.063198 94.8149937,122.501665 93.7709959,121.147382 C91.9750256,119.221025 89.3997013,118.207145 86.7658035,118.389507 C83.7707428,118.316617 80.9515749,119.793516 79.316252,122.292161 C77.499607,124.89393 76.5847498,128.523397 76.5847498,133.258617 C76.5847498,137.993836 77.5388152,141.506224 79.4600153,143.860825 Z M144.441016,150.079053 C141.243372,153.357282 136.621165,154.996397 130.574394,154.996397 C124.527624,154.996397 119.905417,153.357282 116.707773,150.079053 C112.403588,146.063656 110.255851,140.270384 110.264564,132.699236 C110.264564,124.980655 112.412301,119.187383 116.707773,115.31942 C119.896704,112.041191 124.518911,110.402076 130.574394,110.402076 C136.629878,110.402076 141.252085,112.041191 144.441016,115.31942 C148.719062,119.187383 150.853729,124.980655 150.845016,132.699236 C150.845016,140.270384 148.710349,146.063656 144.441016,150.079053 Z M183.46621,153.825601 L154.948804,153.825601 C154.988207,151.012854 155.643863,148.242555 156.870004,145.708081 C158.028823,142.932861 160.782108,140.005871 165.129858,136.927111 C167.720432,135.193718 170.171785,133.262597 172.461785,131.151184 C174.085597,129.589436 175.02488,127.453117 175.075663,125.206142 C175.139879,123.620183 174.619268,122.065586 173.611891,120.83517 C172.553774,119.647614 171.008958,119.005725 169.416617,119.091985 C167.309473,118.880913 165.289033,119.982096 164.332625,121.862869 C163.708694,123.48591 163.398303,125.211633 163.417768,126.949327 L155.406233,126.949327 C155.411108,123.989229 156.071537,121.066598 157.340502,118.389507 C159.527447,114.252694 163.409055,112.184288 168.985328,112.184288 C172.812286,112.009013 176.558974,113.314279 179.440838,115.826765 C182.082594,118.332623 183.511362,121.850074 183.361655,125.479328 C183.394723,128.440311 182.417958,131.324931 180.590945,133.661891 C178.877484,135.701034 176.874177,137.480319 174.644373,138.943482 L171.363956,141.259056 C169.312062,142.703038 167.900568,143.756755 167.142544,144.407197 C166.390945,145.052224 165.746898,145.811839 165.234413,146.657727 L183.413933,146.657727 L183.46621,153.825601 Z" id="Shape" fill="#15514B" fill-rule="nonzero"></path>
        </g>
    </g>
</svg>