<?xml version="1.0" encoding="UTF-8"?>
<svg width="250px" height="250px" viewBox="0 0 250 250" version="1.1" xmlns="http://www.w3.org/2000/svg" xmlns:xlink="http://www.w3.org/1999/xlink">
    <!-- Generator: Sketch 48.2 (47327) - http://www.bohemiancoding.com/sketch -->
    <title>Images/Hazards/Avalanche</title>
    <desc>Created with Sketch.</desc>
    <defs></defs>
    <g id="Library-Symbols" stroke="none" stroke-width="1" fill="none" fill-rule="evenodd">
        <g id="Images/Hazards/Avalanche">
            <circle id="Oval-2" fill="#F2F2F2" cx="125" cy="125" r="125"></circle>
            <g id="avalanche" transform="translate(50.000000, 50.000000)">
                <path d="M119.684216,30.5843738 C119.192923,29.8554427 119.041523,28.9510971 119.268813,28.1030825 C119.496103,27.255068 120.079993,26.545805 120.870855,26.1570477 C127.278,23.2373932 134.745087,23.8085278 140.628399,27.6682417 C147.84069,32.3564014 151.376867,41.0014896 149.50446,49.3680428 C147.451574,57.9393461 142.087965,63.5354864 133.389899,65.318223 C124.691834,67.1009597 117.299071,64.4327578 112.421984,57.3018112 C101.113312,40.773127 90.2555628,23.9492877 79.196085,7.05461121 C78.2452946,5.66563329 78.5884286,3.77483818 79.9674005,2.80437813 L83.5273183,0.502168549 C84.2118041,0.0558969761 85.0464542,-0.101527676 85.8476138,0.0645339722 C86.6487734,0.230595621 87.3507994,0.706537279 87.7992195,1.38763377 L88.0958793,1.83626949 C98.6174139,17.7510311 109.127082,33.6736636 119.624884,49.6041668 C123.089871,54.8343148 128.168687,56.6878886 132.962709,54.7044465 C138.320923,52.6332741 141.001491,46.6537615 138.970258,41.3034781 C136.939024,35.9531946 130.95451,33.2300899 125.55808,35.2005992 C124.218715,35.6761249 122.725611,35.1906573 121.926964,34.0199789 L120.574195,31.8948623 L119.684216,30.5843738 Z" id="Shape" fill="#A4A49A" fill-rule="nonzero"></path>
                <path d="M139.01449,139.692884 L101.894033,75.717682 L60.575075,4.36163713 C59.3384643,2.22859389 57.0534418,0.914634146 54.5806147,0.914634146 C52.1077877,0.914634146 49.8227651,2.22859389 48.5861545,4.36163713 L1.01107339,86.4039102 C0.341715226,87.5771625 -0.00688132176,88.9048195 0.000102920249,90.2542696 L0.000102920249,142.382212 C0.0457362656,146.60278 3.49367088,150.000245 7.7310536,150 L133.02003,150 C133.659407,149.999785 134.295725,149.912085 134.911139,149.73936 C135.777375,149.511501 136.587148,149.108198 137.289893,148.554634 C138.210513,147.827416 138.934154,146.882623 139.395091,145.80607 C139.621457,145.267421 139.777355,144.702015 139.858948,144.123759 C140.097514,142.594015 139.799268,141.029117 139.01449,139.692884 Z" id="Shape" fill="#C9C9C3" fill-rule="nonzero"></path>
                <path d="M69.6619154,58.7761007 L43.0079762,51.8928428 C41.829882,51.580601 40.8651873,50.7392787 40.3987934,49.6173419 C39.9323994,48.4954051 40.017596,47.2210454 40.6292222,46.1706164 L55.3299223,20.7582445 L74.0269291,53.0064853 C74.8460133,54.3679797 74.7544605,56.0882263 73.795454,57.3558281 C72.8364474,58.6234298 71.2015554,59.1851743 69.6619154,58.7761007 Z" id="Path" fill="#F2F2F2"></path>
            </g>
        </g>
    </g>
</svg>