<?xml version="1.0" encoding="UTF-8"?>
<svg width="250px" height="250px" viewBox="0 0 250 250" version="1.1" xmlns="http://www.w3.org/2000/svg" xmlns:xlink="http://www.w3.org/1999/xlink">
    <!-- Generator: Sketch 48.2 (47327) - http://www.bohemiancoding.com/sketch -->
    <title>Images/Hazards/Cold wave</title>
    <desc>Created with Sketch.</desc>
    <defs></defs>
    <g id="Library-Symbols" stroke="none" stroke-width="1" fill="none" fill-rule="evenodd">
        <g id="Images/Hazards/Cold-wave">
            <circle id="Oval-2" fill="#BFEFE9" cx="125" cy="125" r="125"></circle>
            <g id="cold-wave" transform="translate(53.000000, 53.000000)" fill-rule="nonzero">
                <path d="M96.5035748,84.246255 C97.9999713,85.1771451 99.0652463,86.6659586 99.4644963,88.3843978 C99.9412042,90.1403244 99.7404407,92.0116498 98.9021508,93.6260453 C98.1372848,95.2442305 96.6884979,96.4338032 94.9542554,96.8675905 C93.1901797,97.3442135 91.3089163,97.0915958 89.7324752,96.1664052 L70.1077628,84.2002756 L70.1077628,103.994392 L88.4700668,122.087272 C89.7632849,123.33383 90.3892932,125.121027 90.1571035,126.90361 C89.9940919,128.670135 89.174966,130.311014 87.8618155,131.501547 C86.6089448,132.701919 84.9360204,133.362256 83.2023808,133.340721 C81.3818631,133.32036 79.6685665,132.475018 78.5429462,131.041753 L70.0733335,120.294077 L70.0733335,137.927163 C70.1757268,140.418805 68.9069306,142.766349 66.7680077,144.042721 C64.6290849,145.319093 61.9639064,145.319093 59.8249835,144.042721 C57.6860607,142.766349 56.4172644,140.418805 56.5196578,137.927163 L56.5196578,120.39753 L48.1303802,131.145207 C46.9675687,132.462809 45.2955513,133.216423 43.5398042,133.214278 C41.7730632,133.348008 40.0317552,132.730479 38.7426522,131.513041 C37.4304079,130.321819 36.6114697,128.681317 36.4473642,126.915105 C36.2310276,125.132024 36.8594091,123.350173 38.1458774,122.098767 L56.5081814,104.005887 L56.5081814,84.2002756 L39.6148617,94.1318183 L33.4061076,119.294025 C32.8390154,120.990768 31.5912581,122.373833 29.9631756,123.110313 C28.4052279,123.953437 26.5668042,124.107579 24.8905891,123.535622 C23.2090892,122.989006 21.7952335,121.827375 20.9312173,120.282582 C19.9941534,118.703783 19.7889063,116.794862 20.3688718,115.052429 L25.4988405,102.293155 L10.5794685,111.063719 C9.00302739,111.98891 7.12176392,112.241528 5.35768825,111.764905 C3.61966803,111.338668 2.16800794,110.146736 1.40979289,108.523359 C0.564979598,106.92903 0.344012267,105.076486 0.790065125,103.327691 C1.19443853,101.608387 2.26347947,100.120079 3.76246309,99.1895484 L18.6818351,90.4189846 L5.44949977,88.441872 C3.64067736,88.1126483 2.05366028,87.0362523 1.07697612,85.476203 C0.0480398807,83.9740019 -0.262992093,82.0921883 0.227719564,80.338009 C0.656333258,78.6057248 1.71139051,77.0943281 3.18864109,76.0964127 C4.66933684,75.0659512 6.51461917,74.7071504 8.27270401,75.1078563 L32.8322856,82.1771836 L52.0323698,72.2916203 L32.8322856,62.4290466 L8.27270401,69.4983739 C6.51461917,69.8990798 4.66933684,69.540279 3.18864109,68.5098176 C1.71143527,67.5015812 0.657231128,65.9832213 0.227719564,64.2452315 C-0.243187166,62.5124155 0.0671584325,60.659958 1.07697612,59.1760066 C2.04492447,57.6054506 3.63533006,56.5225753 5.44949977,56.1988428 L18.7277409,54.2102353 L3.80836885,45.4511664 C2.31583881,44.5296314 1.24743397,43.054604 0.835970885,41.3475081 C0.363498204,39.593902 0.568395314,37.7263487 1.40979289,36.1173554 C2.16392092,34.4885231 3.61659904,33.2915258 5.35768825,32.8643154 C7.12294992,32.3858409 9.00638131,32.6428957 10.5794685,33.5769955 L25.4988405,42.3360644 L20.4147775,29.6227702 C19.308511,26.0729805 21.2573404,22.29203 24.7873012,21.1395775 C26.5137344,20.5685416 28.397445,20.7219681 30.0090814,21.5648866 C31.6346571,22.3048045 32.8812523,23.6865819 33.4520134,25.3811738 L39.6607674,50.543381 L56.5540871,60.451934 L56.5540871,40.6578176 L38.1917831,22.5534429 C36.9087356,21.3046124 36.2806484,19.5278461 36.49327,17.7485994 C36.6461112,15.9594658 37.4654991,14.2934413 38.788558,13.0816939 C40.0646427,11.8722854 41.7869168,11.2514393 43.5398042,11.3689626 C45.30612,11.3857069 46.9793255,12.1649949 48.1303802,13.507003 L56.5999929,24.2546794 L56.5999929,6.77102614 C56.5641837,4.96115372 57.2788688,3.21735597 58.5739406,1.95468773 C61.247216,-0.651562577 65.5064454,-0.651562577 68.1797209,1.95468773 C69.4533215,3.22824771 70.1501538,4.96896716 70.1077628,6.77102614 L70.1077628,24.2546794 L78.5773755,13.507003 C79.7063043,12.1810337 81.3481015,11.4027541 83.0876164,11.3689626 C84.8578536,11.2348185 86.6028567,11.8521802 87.8962448,13.0701991 C89.2211423,14.2805632 90.040907,15.9473539 90.1915328,17.7371045 C90.4236945,19.5162607 89.7974092,21.2999819 88.5044961,22.5419481 L70.1421921,40.6463228 L70.1421921,60.451934 L89.7669045,48.5317838 C91.3399917,47.597684 93.2234231,47.3406291 94.9886847,47.8191036 C96.7267161,48.2524149 98.1770645,49.4474926 98.9365801,51.0721436 C99.7741251,52.6826325 99.9749175,54.5501228 99.4989256,56.3022963 C99.0914042,58.0079981 98.0270579,59.4831177 96.5380041,60.4059546 L74.6180037,72.2916203 L96.5035748,84.246255 Z" id="Shape" fill="#15514B"></path>
                <path d="M101.818506,128.667447 C104.011852,131.219858 107.027702,134.716312 112.853777,134.716312 C118.679851,134.716312 121.684278,131.219858 123.889048,128.667447 C125.85392,126.336478 126.802085,125.392435 128.926888,125.392435 C131.051692,125.392435 131.999857,126.394752 133.964729,128.667447 C136.158075,131.219858 139.173925,134.716312 145,134.716312 L145,126.55792 C142.875196,126.55792 141.927031,125.543948 139.962159,123.271253 C137.768813,120.730496 134.752963,117.234043 128.926888,117.234043 C123.100814,117.234043 120.084964,120.730496 117.880194,123.271253 C115.926746,125.602222 114.967157,126.55792 112.853777,126.55792 C110.740397,126.55792 109.780808,125.555603 107.82736,123.282908 C105.62259,120.730496 102.60674,117.234043 96.7806654,117.234043 C96.4036841,117.234043 96.0495502,117.234043 95.6382979,117.234043 C97.6284917,119.647944 98.7527158,122.681876 98.8255034,125.835319 C99.9771444,126.594428 100.990023,127.552863 101.818506,128.667447 Z" id="Shape" fill="#4AA49B"></path>
                <path d="M106.003471,97.9791853 L105.921986,98.1073801 C107.843316,99.2135103 110.026768,99.7811322 112.242916,99.7506034 C118.179701,99.7506034 121.241219,96.2543835 123.487885,93.7021429 C125.490095,91.3713296 126.456277,90.4273502 128.621458,90.4273502 C130.786638,90.4273502 131.752821,91.4295999 133.755031,93.7021429 C135.990056,96.2543835 139.063215,99.7506034 145,99.7506034 L145,91.5927568 C142.83482,91.5927568 141.868637,90.578853 139.866427,88.30631 C137.631402,85.7657235 134.558243,82.2695035 128.621458,82.2695035 C122.684673,82.2695035 119.611514,85.7657235 117.364848,88.30631 C115.374279,90.6371234 114.396455,91.5927568 112.242916,91.5927568 C110.089376,91.5927568 109.251242,90.7070478 107.586614,88.7724727 C108.012664,91.9312648 107.460068,95.1448653 106.003471,97.9791853 Z" id="Shape" fill="#4AA49B"></path>
                <path d="M107.223811,58.7462032 C106.917749,59.9032396 106.480981,61.0214745 105.921986,62.0792011 C107.852168,63.2121206 110.055298,63.7925592 112.291632,63.7573539 C118.219588,63.7573539 121.276554,60.2612022 123.519878,57.7090116 C125.51911,55.436513 126.483856,54.4342829 128.645816,54.4342829 C130.807777,54.4342829 131.772522,55.436513 133.771754,57.7090116 C136.003455,60.2612022 139.072044,63.7573539 145,63.7573539 L145,55.5996667 C142.83804,55.5996667 141.873294,54.5857828 139.874062,52.3132842 C137.642361,49.7727474 134.573772,46.2765957 128.645816,46.2765957 C122.71786,46.2765957 119.649272,49.7727474 117.405947,52.3132842 C115.418338,54.5857828 114.441969,55.5996667 112.291632,55.5996667 C110.141295,55.5996667 109.316031,54.7256288 107.642255,52.8143993 C107.88594,54.8002125 107.743844,56.8145467 107.223811,58.7462032 Z" id="Shape" fill="#4AA49B"></path>
                <path d="M98.8496098,18.8966194 C99.9856532,19.6550384 100.983463,20.6094613 101.798297,21.7170922 C103.99267,24.2695035 107.009931,27.7659574 112.838733,27.7659574 C118.667534,27.7659574 121.673366,24.2695035 123.879168,21.7170922 C125.844959,19.4443972 126.793568,18.4420804 128.919366,18.4420804 C131.045164,18.4420804 131.993773,19.4443972 133.959565,21.7170922 C136.153937,24.2695035 139.171199,27.7659574 145,27.7659574 L145,19.607565 C142.874202,19.607565 141.925593,18.5935934 139.959801,16.3208983 C137.765429,13.7801418 134.748167,10.2836879 128.919366,10.2836879 C123.090565,10.2836879 120.073303,13.7801418 117.867502,16.3208983 C115.913139,18.6518676 114.953102,19.607565 112.838733,19.607565 C110.724364,19.607565 109.764326,18.6052482 107.809963,16.3325532 C105.604162,13.7801418 102.5869,10.2836879 96.7580988,10.2836879 L96.6666667,10.2836879 C97.8525763,12.3009881 98.5826845,14.5624612 98.8038937,16.9036407 C98.8634896,17.5661378 98.8787637,18.2320052 98.8496098,18.8966194 Z" id="Shape" fill="#4AA49B"></path>
            </g>
        </g>
    </g>
</svg>