<?xml version="1.0" encoding="UTF-8"?>
<svg width="250px" height="250px" viewBox="0 0 250 250" version="1.1" xmlns="http://www.w3.org/2000/svg" xmlns:xlink="http://www.w3.org/1999/xlink">
    <!-- Generator: Sketch 48.2 (47327) - http://www.bohemiancoding.com/sketch -->
    <title>Images/Hazards/Extreme winter conditions</title>
    <desc>Created with Sketch.</desc>
    <defs></defs>
    <g id="Library-Symbols" stroke="none" stroke-width="1" fill="none" fill-rule="evenodd">
        <g id="Images/Hazards/Extreme-winter-conditions">
            <circle id="Oval-2-Copy-4" fill="#BFEFE9" cx="125" cy="125" r="125"></circle>
            <path d="M195.876786,139.24375 C194.825966,141.153164 192.934848,142.453908 190.775893,142.752232 L175.809821,144.979018 L192.640179,154.857143 C194.347852,155.895423 195.569237,157.573663 196.032143,159.517857 C196.569911,161.495525 196.343432,163.603165 195.397768,165.421429 C194.534932,167.243961 192.900574,168.583755 190.944196,169.072321 C188.954165,169.609133 186.831935,169.324615 185.053571,168.282589 L168.223214,158.352679 L173.958482,172.684375 C174.590736,174.581088 174.417596,176.65409 173.479464,178.419643 C172.613679,180.292793 170.988172,181.706278 169.012946,182.303571 C167.066105,182.952764 164.938694,182.779766 163.122321,181.824554 C161.2838,180.997681 159.875333,179.438978 159.238393,177.526339 L152.247321,149.160714 L133.138393,137.975 L133.138393,160.26875 L153.852679,180.646429 C155.311542,182.050404 156.017734,184.063292 155.755804,186.070982 C155.571912,188.060586 154.647867,189.908678 153.166518,191.249554 C151.75317,192.601511 149.865965,193.345237 147.910268,193.320982 C145.856565,193.298049 143.923816,192.345957 142.654018,190.731696 L133.099554,178.626786 L133.099554,198.486607 C133.215062,201.292898 131.783749,203.936894 129.370857,205.374448 C126.957965,206.812002 123.95141,206.812002 121.538518,205.374448 C119.125626,203.936894 117.694313,201.292898 117.809821,198.486607 L117.809821,178.743304 L108.255357,190.848214 C106.972616,192.304742 105.13396,193.151182 103.193304,193.178571 C101.200265,193.329189 99.2359174,192.633678 97.7816964,191.2625 C96.30137,189.920849 95.3775361,188.073181 95.1924107,186.083929 C94.9483641,184.075677 95.6572333,182.068811 97.1084821,180.659375 L117.822768,160.281696 L117.822768,137.975 L98.7397321,149.160714 L91.7357143,177.500446 C90.3249414,181.377515 86.1293688,183.475302 82.18125,182.277679 C80.2843709,181.662035 78.689418,180.353711 77.7147321,178.613839 C76.6576421,176.835668 76.4261054,174.685684 77.0803571,172.723214 L82.7767857,158.352679 L65.9464286,168.230804 C64.1680651,169.272829 62.0458353,169.557348 60.0558036,169.020536 C58.0903019,168.543979 56.4473489,167.201044 55.5892857,165.369643 C54.6536907,163.567303 54.4229171,161.481109 54.9419643,159.517857 C55.4053059,157.598161 56.6111986,155.940641 58.2950893,154.908929 L75.1254464,145.030804 L60.1982143,142.752232 C58.1577043,142.381434 56.3674102,141.169108 55.265625,139.412054 C54.1004619,137.722204 53.7448235,135.602599 54.2946429,133.625 C54.7781566,131.67396 55.9683535,129.971702 57.6348214,128.847768 C59.3096612,127.708725 61.3851867,127.323673 63.3571429,127.786161 L91.0625,135.748214 L112.747768,124.5625 L91.0883929,113.454464 L63.3571429,121.416518 C61.3738693,121.867826 59.2922294,121.463715 57.621875,120.303125 C55.9603222,119.165274 54.7759011,117.455468 54.2946429,115.5 C53.7554031,113.540362 54.1057998,111.442717 55.2526786,109.764732 C56.3528467,108.002657 58.1514637,106.792593 60.1982143,106.4375 L75.1642857,104.197768 L58.3339286,94.3325893 C56.6353328,93.3085059 55.4146933,91.649927 54.9419643,89.7236607 C54.4089738,87.7486063 54.6401156,85.6452153 55.5892857,83.8330357 C56.4400081,81.9985117 58.0787562,80.6503556 60.0428571,80.1691964 C62.0342268,79.6302993 64.1589022,79.9198156 65.9334821,80.971875 L82.7767857,90.9017857 L77.0803571,76.5053571 C75.8323917,72.5072941 78.0308418,68.248879 82.0129464,66.9508929 C83.9605142,66.3077456 86.0855046,66.4805471 87.9035714,67.4299107 C89.737363,68.2632667 91.1436316,69.8195372 91.7875,71.728125 L98.7915179,100.067857 L117.848661,111.227679 L117.848661,88.9339286 L97.134375,68.5433036 C95.6869852,67.1367686 94.9784478,65.1356293 95.2183036,63.1316964 C95.3907218,61.1166281 96.3150631,59.2402153 97.8075893,57.8754464 C99.253386,56.5064571 101.207119,55.8066827 103.193304,55.9464286 C105.15735,55.9808631 107.013241,56.852284 108.294196,58.3415179 L117.848661,70.4464286 L117.848661,50.7678571 C117.808265,48.7294311 118.614492,46.7654236 120.075446,45.3433036 C123.091135,42.4079317 127.895918,42.4079317 130.911607,45.3433036 C132.367339,46.7689463 133.172598,48.7305936 133.138393,50.7678571 L133.138393,70.459375 L142.692857,58.3544643 C143.966388,56.8610494 145.818479,55.9844873 147.780804,55.9464286 C149.777786,55.7953445 151.746302,56.4906677 153.205357,57.8625 C154.699957,59.2257109 155.624724,61.1029867 155.794643,63.11875 C156.056542,65.122581 155.350037,67.1315534 153.891518,68.5303571 L133.177232,88.9209821 L133.177232,111.227679 L152.286161,100.067857 L159.290179,71.728125 C159.931294,69.8179252 161.338434,68.2606905 163.174107,67.4299107 C164.992592,66.4819953 167.116986,66.3092424 169.064732,66.9508929 C173.052026,68.2434485 175.25711,72.5035334 174.010268,76.5053571 L168.223214,90.9017857 L185.053571,81.0366071 C186.828151,79.9845477 188.952827,79.6950315 190.944196,80.2339286 C192.896881,80.7042367 194.535963,82.0250045 195.410714,83.8330357 C196.355538,85.6468998 196.58205,87.7502198 196.045089,89.7236607 C195.585369,91.6447613 194.384694,93.3061615 192.704911,94.3455357 L175.874554,104.210714 L190.775893,106.4375 C192.822406,106.801851 194.619111,108.015333 195.721429,109.777679 C196.873322,111.448279 197.233087,113.540596 196.705357,115.5 C196.215067,117.447953 195.026421,119.147994 193.365179,120.277232 C191.695464,121.439336 189.613158,121.843576 187.629911,121.390625 L159.924554,113.428571 L138.226339,124.5625 L159.885714,135.709375 L187.642857,127.786161 C189.626104,127.333209 191.70841,127.737449 193.378125,128.899554 C195.002879,130.001774 196.128383,131.699332 196.511161,133.625 C196.969584,135.514081 196.744866,137.504436 195.876786,139.24375 Z" id="Shape" fill="#15514B" fill-rule="nonzero"></path>
        </g>
    </g>
</svg>