<?xml version="1.0" encoding="UTF-8"?>
<svg width="250px" height="250px" viewBox="0 0 250 250" version="1.1" xmlns="http://www.w3.org/2000/svg" xmlns:xlink="http://www.w3.org/1999/xlink">
    <!-- Generator: Sketch 48.2 (47327) - http://www.bohemiancoding.com/sketch -->
    <title>Images/Hazards/Extreme cold days</title>
    <desc>Created with Sketch.</desc>
    <defs></defs>
    <g id="Library-Symbols" stroke="none" stroke-width="1" fill="none" fill-rule="evenodd">
        <g id="Images/Hazards/Extreme-cold-days">
            <circle id="Oval-2" fill="#BFEFE9" cx="125" cy="125" r="125"></circle>
            <g id="extreme-cold-days" transform="translate(50.000000, 54.000000)">
                <path d="M74.9827127,50.9711696 C74.4232865,51.9759539 73.4271088,52.6622097 72.2889381,52.826881 L64.3752269,54.0241142 L73.3065863,59.2440507 C74.18424,59.7808516 74.8161829,60.6406378 75.066519,61.6385171 C75.3525001,62.6811719 75.2327146,63.7934656 74.7312937,64.7513233 C74.2750159,65.7325483 73.3914126,66.448267 72.3368274,66.690841 C71.2848628,66.9718577 70.1642268,66.8210029 69.2240212,66.2718094 L60.3405512,61.0758175 L63.3695511,68.6543034 C64.0289245,70.7688927 62.865693,73.0206527 60.7595828,73.7066273 C59.7304617,74.0454357 58.6081815,73.95479 57.6467766,73.4552083 C56.6888215,73.0066539 55.9572572,72.1841852 55.6234525,71.1804653 L51.9240021,56.1911062 L41.8193542,50.3007191 L41.8193542,62.0814933 L52.7620653,72.8565918 C53.5293115,73.5987182 53.9019687,74.6590166 53.7677411,75.717979 C53.6854872,76.7793892 53.206793,77.77097 52.42684,78.4955599 C51.6801662,79.2110697 50.6833717,79.6063503 49.6492591,79.5970144 C48.5668387,79.5876482 47.5463716,79.0906103 46.8716781,78.244141 L41.8193542,71.8509159 L41.8193542,82.290789 C41.9008202,83.7868612 41.1489869,85.2055042 39.865228,85.9780529 C38.581469,86.7506015 36.9759157,86.7506015 35.6921567,85.9780529 C34.4083977,85.2055042 33.6565644,83.7868612 33.7380304,82.290789 L33.7380304,71.8509159 L28.7335958,78.244141 C28.0558376,79.0294624 27.0769213,79.4906408 26.0398212,79.5132081 C24.9849477,79.5945285 23.9450694,79.2246973 23.1784339,78.4955599 C22.3901581,77.7758097 21.9062789,76.7823585 21.8255605,75.717979 C21.675336,74.6730716 22.0154846,73.6172855 22.74743,72.8565918 L33.7021134,62.0814933 L33.7021134,50.3007191 L23.5974656,56.1911062 L19.8860428,71.1804653 C19.1502682,73.2397216 16.9225886,74.3535614 14.8337188,73.7066273 C13.8164444,73.390977 12.9592659,72.6966624 12.4392525,71.7671096 C11.876205,70.82942 11.7494514,69.6930079 12.0920549,68.6543034 L15.1330271,61.0758175 L6.28547408,66.295754 C5.34526848,66.8449475 4.22463253,66.9958024 3.17266787,66.7147857 C2.11808267,66.4722117 1.23447936,65.756493 0.778201553,64.7752679 C0.282497098,63.8156832 0.162948271,62.7055869 0.442976269,61.6624617 C0.698577869,60.6636928 1.33445754,59.8043959 2.21488134,59.2679954 L11.1701854,54.0241142 L3.25647419,52.826881 C2.17591576,52.6298087 1.22841218,51.9865494 0.646505906,51.0549759 C0.0376616781,50.1744859 -0.146701415,49.0683074 0.143667979,48.0379484 C0.396135453,47.0065065 1.02351709,46.1059791 1.90360072,45.5117864 C2.7883317,44.8941565 3.89358277,44.6809387 4.94457294,44.9251422 L19.5867345,49.1154582 L31.0442558,43.2490157 L19.5867345,37.3586286 L4.94457294,41.5369723 C3.89358277,41.7811758 2.7883317,41.567958 1.90360072,40.9503281 C1.02831164,40.3673498 0.401030887,39.4797689 0.143667979,38.4600831 C-0.15048472,37.4260446 0.0340217295,36.3146129 0.646505906,35.4310832 C1.23085239,34.504055 2.17799604,33.8653848 3.25647419,33.6711505 L11.1701854,32.4739173 L2.25079834,27.2300361 C1.37037453,26.6936356 0.734494863,25.8343387 0.478893263,24.8355698 C0.19262762,23.7849996 0.312304407,22.6651668 0.814118548,21.6988189 C1.2803164,20.7253801 2.15955626,20.0131958 3.20858486,19.7593012 C4.26054953,19.4782845 5.38118548,19.6291393 6.32139108,20.1783328 L15.2527504,25.3982694 L12.2117782,17.8197835 C11.8758029,16.8184642 11.9667302,15.7230069 12.4631972,14.7907836 C12.9447024,13.8122755 13.8125345,13.0789573 14.8576635,12.7674595 C15.8918384,12.4275508 17.0197574,12.5226244 17.982442,13.0308508 C18.9359821,13.4758191 19.6636886,14.2944889 19.9937937,15.2936215 L23.7052165,30.2829806 L33.8098644,36.1733678 L33.8098644,24.3686488 L22.855181,13.5935504 C22.0927762,12.8483297 21.7209903,11.7905104 21.8495051,10.7321632 C21.9302235,9.66778365 22.4141028,8.67433248 23.2023786,7.95458224 C23.9714056,7.22934612 25.0095012,6.86014897 26.0637659,6.93693406 C27.092452,6.96619712 28.0613961,7.42677147 28.7335958,8.2060012 L33.7859197,14.5992263 L33.7859197,4.15935313 C33.7696995,3.08056387 34.2035096,2.04375786 34.9831529,1.29796588 C36.5688618,-0.269223237 39.1202184,-0.269223237 40.7059274,1.29796588 C41.4843518,2.0445946 41.9179292,3.08084448 41.9031605,4.15935313 L41.9031605,14.5992263 L46.9554845,8.2060012 C47.6082293,7.43468133 48.5556821,6.97399326 49.5654528,6.93693406 C50.6191127,6.86458336 51.6554819,7.23316652 52.42684,7.95458224 C53.206793,8.67917218 53.6854872,9.67075299 53.7677411,10.7321632 C53.9019687,11.7911255 53.5293115,12.851424 52.7620653,13.5935504 L41.8193542,24.3686488 L41.8193542,36.1494231 L51.9240021,30.259036 L55.6234525,15.2696768 C55.9537677,14.2668044 56.6869365,13.44687 57.6467766,13.0069062 C58.6049465,12.4979586 59.7295186,12.4028025 60.7595828,12.7435149 C62.865693,13.4294894 64.0289245,15.6812495 63.3695511,17.7958388 L60.3405512,25.3743247 L69.2599382,20.1543881 C70.2001438,19.6051946 71.3207798,19.4543398 72.3727444,19.7353565 C73.421773,19.9892512 74.3010129,20.7014354 74.7672107,21.6748742 C75.2686316,22.6327319 75.3884171,23.7450256 75.102436,24.7876804 C74.8520999,25.7855597 74.220157,26.6453459 73.3425033,27.1821468 L64.3752269,32.4739173 L72.2889381,33.6711505 C73.3706553,33.8653855 74.3192095,34.5093582 74.8989064,35.4430556 C75.5159622,36.3197166 75.7091556,37.426188 75.425689,38.4600831 C75.176447,39.4929788 74.5483212,40.3945744 73.6657562,40.9862451 C72.7853152,41.6033094 71.6839134,41.8166244 70.6367563,41.5728893 L55.9586778,37.3346839 L44.5131288,43.2490157 L55.9586778,49.1394029 L70.6367563,44.9131698 C71.6839134,44.6694348 72.7853152,44.8827497 73.6657562,45.4998141 C74.534673,46.0899624 75.1299994,47.0045218 75.317938,48.0379484 C75.5529215,49.0247897 75.4342926,50.0627927 74.9827127,50.9711696 Z" id="Shape" fill="#15514B" fill-rule="nonzero"></path>
                <path d="M150.851378,113.203349 C150.907866,119.86215 149.179851,126.414554 145.846943,132.179495 C142.594988,137.885431 137.868505,142.611914 132.162568,145.86387 C126.393223,149.19667 119.837012,150.9246 113.17445,150.868304 L112.875142,150.868304 C106.292017,150.893282 99.8280666,149.112694 94.1863326,145.720202 C88.4755452,142.373663 83.7409913,137.589576 80.4540682,131.844269 C77.1265492,126.089079 75.3910021,119.551852 75.425689,112.904041 C75.3158288,103.766095 78.6840967,94.9281368 84.8479139,88.1811762 L84.8479139,28.4272692 C84.7170784,20.90334 87.707592,13.6610963 93.1088227,8.42150317 C104.187219,-2.57855285 122.065903,-2.57855285 133.1443,8.42150317 C138.536729,13.6651939 141.518358,20.9069105 141.381264,28.4272692 L141.381264,88.1811762 C147.538999,95.0545002 150.915258,103.975337 150.851378,113.203349 Z M133.730944,102.009219 C132.292681,99.4242955 130.508295,97.0477991 128.427201,94.9455435 L127.229968,93.4849191 L127.229968,28.4272692 C127.229968,20.6249486 120.904937,14.299918 113.102616,14.299918 C105.300296,14.299918 98.9752652,20.6249486 98.9752652,28.4272692 L98.9752652,93.5328084 L97.778032,94.9934329 C95.7007457,97.0989728 93.916768,99.474925 92.4742892,102.057108 C90.4951559,105.45218 89.477062,109.321764 89.5290956,113.251239 C89.5005361,119.4549 91.9990015,125.402804 96.4491032,129.725167 C100.660742,134.266103 106.586111,136.829129 112.779364,136.788842 L113.078672,136.788842 C126.066434,136.755972 136.588773,126.238982 136.628248,113.251239 C136.703539,109.310061 135.701779,105.423067 133.730944,102.009219 Z" id="Shape" fill="#4AA49B" fill-rule="nonzero"></path>
                <path d="M124.631972,124.756649 C119.129682,130.415922 110.389667,131.384994 103.781291,127.068524 C97.1729137,122.752054 94.5477637,114.359465 97.5185819,107.046682 C100.4894,99.733899 108.223798,95.5498768 115.970207,97.0650382 C123.716615,98.5801997 129.304582,105.370015 129.301181,113.263211 C129.365544,117.540455 127.678684,121.658121 124.631972,124.660871 L124.631972,124.756649 Z" id="Path" fill="#15514B"></path>
            </g>
        </g>
    </g>
</svg>