<?xml version="1.0" encoding="UTF-8"?>
<svg width="250px" height="250px" viewBox="0 0 250 250" version="1.1" xmlns="http://www.w3.org/2000/svg" xmlns:xlink="http://www.w3.org/1999/xlink">
    <!-- Generator: Sketch 48.2 (47327) - http://www.bohemiancoding.com/sketch -->
    <title>Images/Hazards/Extratropical storm</title>
    <desc>Created with Sketch.</desc>
    <defs></defs>
    <g id="Library-Symbols" stroke="none" stroke-width="1" fill="none" fill-rule="evenodd">
        <g id="Images/Hazards/Extratropical-storm">
            <circle id="Oval-2" fill="#BFEFE9" cx="125" cy="125" r="125"></circle>
            <g id="extratropical-storm" transform="translate(50.000000, 51.000000)">
                <g id="Icons">
                    <path d="M75.8,113.155591 C75.8581808,119.816241 74.1261382,126.37081 70.784,132.137638 C67.5245292,137.84175 62.7871232,142.566722 57.068,145.817638 C51.285322,149.149373 44.7139591,150.87675 38.036,150.820472 L37.736,150.820472 C31.1376607,150.845442 24.6587722,149.065423 19.004,145.674016 C13.2861058,142.341785 8.54117762,137.576303 5.24,131.850394 C1.89654165,126.08301 0.156691738,119.53025 0.2,112.868346 C0.0964260745,103.730077 3.48121636,94.8945296 9.668,88.1533858 L9.668,28.4185827 C9.53301583,20.8975772 12.5208931,13.655399 17.924,8.40724409 C23.1884243,3.02469354 30.4502337,0.0530869961 37.988,0.196850394 C45.5257663,0.0530869961 52.7875757,3.02469354 58.052,8.40724409 C63.4551069,13.655399 66.4429842,20.8975772 66.308,28.4185827 L66.308,88.1533858 C72.4771743,95.0214496 75.861039,103.934648 75.8,113.155591 Z M58.64,101.929134 C57.1984134,99.3450366 55.4099033,96.9693 53.324,94.8677165 L52.124,93.3955906 L52.124,28.4185827 C52.1400359,24.6680938 50.653333,21.0665954 47.9943338,18.4145752 C45.3353346,15.762555 41.7243586,14.2797543 37.964,14.295748 C34.2036414,14.2797543 30.5926654,15.762555 27.9336662,18.4145752 C25.274667,21.0665954 23.7879641,24.6680938 23.804,28.4185827 L23.804,93.4434646 L22.604,94.9155906 C20.5422954,97.0086933 18.7705838,99.3674587 17.336,101.929134 C15.3538371,105.319392 14.3334242,109.183474 14.384,113.107717 C14.3521061,119.313543 16.8566037,125.26448 21.32,129.588346 C25.5413718,134.127831 31.4804345,136.690038 37.688,136.649764 L37.988,136.649764 C44.2644393,136.743739 50.2992383,134.239089 54.656,129.731969 C59.1701312,125.383341 61.6804562,119.366577 61.592,113.107717 C61.6425758,109.183474 60.6221629,105.319392 58.64,101.929134 Z M49.52,124.669291 C46.4843072,127.742419 42.3123991,129.43105 37.988,129.337008 C32.0515731,129.564944 26.4656171,126.536168 23.4294623,121.443187 C20.3933076,116.350206 20.3933076,110.008849 23.4294623,104.915868 C26.4656171,99.8228866 32.0515731,96.7941116 37.988,97.0220472 C44.5375387,97.0577007 50.4292413,101.000756 52.9449858,107.032096 C55.4607304,113.063435 54.1115951,120.010898 49.52,124.669291 Z" id="Shape" fill="#4AA49B" fill-rule="nonzero"></path>
                    <path d="M49.52,124.669291 C46.4843072,127.742419 42.3123991,129.43105 37.988,129.337008 C32.0515731,129.564944 26.4656171,126.536168 23.4294623,121.443187 C20.3933076,116.350206 20.3933076,110.008849 23.4294623,104.915868 C26.4656171,99.8228866 32.0515731,96.7941116 37.988,97.0220472 C44.5375387,97.0577007 50.4292413,101.000756 52.9449858,107.032096 C55.4607304,113.063435 54.1115951,120.010898 49.52,124.669291 Z" id="Path" fill="#15514B"></path>
                </g>
                <path d="M144.8,30.4756098 C143.752784,28.8683132 142.515969,27.391773 141.116,26.077561 L140.828,25.7907317 L140.36,25.3365854 C139.437173,24.4916805 138.471935,23.6939088 137.468,22.9463415 C135.372262,21.3625658 133.06635,20.0755388 130.616,19.1219512 C128.757512,18.5759547 127.460712,16.9037141 127.4,14.974878 C127.504859,12.9661246 128.649987,11.1558513 130.424,10.1943902 C136.232,6.60902439 146.972,6.52536585 149.132,5.92780488 C150.207794,5.56275643 150.897609,4.51710719 150.806977,3.38880995 C150.716345,2.26051272 149.868384,1.3373855 148.748,1.14731707 C141.489535,-0.0393041521 134.096721,-0.17214785 126.8,0.752926829 C111.92,2.97585366 97.04,14.7717073 89.192,35.9731707 C84.8519158,46.0306717 86.0172572,57.6051025 92.276,66.6041463 C95.7916438,71.6694345 100.693951,75.622627 106.4,77.9936585 C108.260355,78.5442696 109.556676,80.2207088 109.616,82.1526829 C109.506786,84.1568127 108.368468,85.9634904 106.604,86.9331707 C100.784,90.5185366 90.056,90.5902439 87.884,91.1997561 C86.808129,91.5668496 86.1199822,92.6147243 86.2134884,93.7435256 C86.3069946,94.8723268 87.1582687,95.7937155 88.28,95.9802439 C95.5463009,97.1393369 102.942527,97.2480179 110.24,96.3029268 C125.12,94.08 140.024,82.2482927 147.86,60.9870732 C152.153261,50.9657179 150.998675,39.4532643 144.8,30.4756098 Z M133.64,48.5219512 C133.64,56.8385513 126.870545,63.5804878 118.52,63.5804878 C110.169455,63.5804878 103.4,56.8385513 103.4,48.5219512 C103.4,40.2053511 110.169455,33.4634146 118.52,33.4634146 C126.867803,33.4700051 133.633383,40.2080825 133.64,48.5219512 Z" id="Shape" fill="#15514B" fill-rule="nonzero"></path>
            </g>
        </g>
    </g>
</svg>