<?xml version="1.0" encoding="UTF-8"?>
<svg width="250px" height="250px" viewBox="0 0 250 250" version="1.1" xmlns="http://www.w3.org/2000/svg" xmlns:xlink="http://www.w3.org/1999/xlink">
    <!-- Generator: Sketch 48.2 (47327) - http://www.bohemiancoding.com/sketch -->
    <title>Images/Hazards/Flash and surface flood</title>
    <desc>Created with Sketch.</desc>
    <defs></defs>
    <g id="Library-Symbols" stroke="none" stroke-width="1" fill="none" fill-rule="evenodd">
        <g id="Images/Hazards/Flash-and-surface-flood">
            <circle id="Oval-2-Copy-3" fill="#BFEFE9" cx="125" cy="125" r="125"></circle>
            <path d="M160.123756,138.751255 C159.566516,141.220864 160.891845,143.187405 164.084683,144.620388 C167.162175,145.889115 170.35526,146.849038 173.618017,147.486354 L174.943346,147.791244 C180.761241,148.945205 186.429671,145.202394 187.730863,139.347767 C189.032056,133.49314 185.493276,127.653735 179.747665,126.174543 C176.856037,125.519029 173.015595,126.7081 168.256458,129.772245 C163.497322,132.836389 160.77136,135.824311 160.123756,138.751255 Z" id="Shape"></path>
            <path d="M54,160.66 L49,160 C50.6169363,160.335121 52.2951766,160.556648 54,160.66 Z" id="Shape"></path>
            <path d="M170.889036,91.5177592 C170.352919,87.1653137 168.463821,83.0887462 165.48615,79.858635 C162.559863,76.6134694 158.6804,74.3702788 154.3999,73.448322 L114.409687,64.50917 C105.623179,62.5687105 96.5526838,66.2820272 91.6762315,73.8158858 L84,85.0927437 L173,105 L170.889036,91.5177592 Z" id="Shape"></path>
            <path d="M64.175993,122.236541 L65.4742179,122.517352 C68.5923561,123.332257 71.7834688,123.827398 74.9993961,123.995304 C78.3689462,124.083981 80.3235769,122.916399 80.8341148,120.522116 C81.4613471,117.684447 80.3089901,113.915669 77.3916308,109.245339 C74.4742715,104.57501 71.5569121,101.855577 68.8000075,101.264396 C66.0576322,100.623923 63.1759511,101.158677 60.8356165,102.742349 C57.2704806,105.088368 55.429748,109.362549 56.1569212,113.606279 C56.8840944,117.850008 60.0390267,121.2454 64.175993,122.236541 Z" id="Shape"></path>
            <g id="Group" transform="translate(53.000000, 53.000000)" fill-rule="nonzero">
                <path d="M139.866618,91.2890759 C132.636716,98.4070975 121.111925,98.4070975 113.882023,91.2890759 L109.831279,87.288089 C109.228618,86.6971967 108.270476,86.6971967 107.667814,87.288089 L103.57104,91.2890759 C96.3411376,98.4070975 84.8163471,98.4070975 77.5864444,91.2890759 L73.5357013,87.288089 C72.9330399,86.6971967 71.9748978,86.6971967 71.3722363,87.288089 L67.3214933,91.2890759 C60.0915906,98.4070975 48.5668001,98.4070975 41.3368974,91.2890759 L37.2861544,87.288089 C36.6834929,86.6971967 35.7253508,86.6971967 35.1226893,87.288089 L31.0719463,91.2890759 C23.8420436,98.4070975 12.3172531,98.4070975 5.08735041,91.2890759 L2.62468277,88.8117206 C2.1751273,88.3637574 1.50081457,88.2379882 0.922670125,88.4942702 C0.344525679,88.7505523 -0.0206638851,89.337116 0.000906034783,89.9747982 L0.000906034783,139.30092 C0.00723689333,142.445781 2.52811713,144.993601 5.63972445,145 L139.360276,145 C142.471883,144.993601 144.992763,142.445781 144.999094,139.30092 L144.999094,89.9399059 C145.020664,89.3022237 144.655474,88.7156599 144.07733,88.4593779 C143.499185,88.2030958 142.824873,88.3288651 142.375317,88.7768283 L139.866618,91.2890759 Z" id="Shape" fill="#15514B"></path>
                <path d="M8.72047972,88.3664917 C10.1692046,89.7654218 11.903138,90.8388623 13.8050828,91.5142588 L17.214078,92.2724801 C17.6532028,92.2724801 18.0923276,92.2724801 18.5314524,92.2724801 C22.1893782,92.2941364 25.7106683,90.8922247 28.3424251,88.3664917 L30.7922793,85.9884341 L32.4678871,78.5555681 L66.9276286,86.2411745 L68.8227988,84.4145506 C71.2200257,82.0883399 75.0462852,82.0883399 77.4435121,84.4145506 L81.5227505,88.3664917 C82.1242801,88.9443819 82.7737074,89.4708711 83.4641444,89.9403752 L93.4484558,92.157598 C96.3540503,91.72871 99.0504573,90.4024728 101.156252,88.3664917 L105.223934,84.4145506 C107.621161,82.0883399 111.447421,82.0883399 113.844647,84.4145506 L117.923886,88.3664917 C119.905695,90.2783523 122.416563,91.5584316 125.134777,92.042716 C127.820601,89.7702629 129.67025,86.6745956 130.392719,83.2427541 L133.223919,71.0193082 C133.92295,68.1080711 133.770594,65.058871 132.784794,62.2308344 C131.808742,59.43009 130.162997,56.9069461 127.989089,54.8783858 L135.419543,56.5326867 C136.716792,56.9849597 138.145793,56.3696882 138.701423,55.119638 L142.168198,49.4674431 C142.736558,48.6103536 142.832142,47.5262195 142.422428,46.5839047 C142.053374,45.6160435 141.187182,44.9218784 140.157468,44.7687689 L126.070807,41.6210018 L125.227225,35.8194603 C124.297788,29.0932609 121.29877,22.8173802 116.641179,17.8519139 C112.061917,12.7871575 105.998962,9.2791949 99.3073052,7.82271446 L68.106332,0.849376451 C61.3968098,-0.703672657 54.3657144,-0.116826975 48.0105941,2.5266538 C41.6584936,5.04547077 36.2483944,9.46057296 32.5256667,15.1636749 L29.2206747,20.0116957 L15.1802368,16.8754169 C14.2064375,16.6309972 13.1747504,16.9047914 12.4530406,17.5991735 C11.6759603,18.2795919 11.2940329,19.3021644 11.43612,20.3218772 L12.1063631,26.8816399 C12.072373,28.2288408 13.0721866,29.3818285 14.4175463,29.5469026 L21.8480003,31.2126917 C19.0121489,32.1213374 16.4391859,33.6978465 14.3482108,35.8079721 C12.261604,37.9518943 10.8308696,40.6412128 10.2227488,43.5625078 L7.46088488,55.8089301 C6.52008179,59.7530124 7.12323654,63.9051783 9.14804862,67.4235013 L5.57727057,83.2082895 C5.42300601,83.8903657 5.38782603,84.5937284 5.47326733,85.2876538 C5.72652646,85.4695839 5.96956519,85.6651767 6.20129004,85.8735521 L8.72047972,88.3664917 Z M115.19669,64.8731207 C119.605278,65.9878344 122.320572,70.3883898 121.322171,74.8004158 C120.32377,79.2124418 115.974403,82.0330106 111.510352,81.1633897 L110.493432,80.9336257 C107.989929,80.4533469 105.539886,79.729952 103.178537,78.7738439 C100.728683,77.693953 99.7117622,76.211975 100.139331,74.3508865 C100.636236,72.1451519 102.7163,69.8819763 106.379526,67.5843361 C110.042751,65.2866959 112.977954,64.379128 115.19669,64.8731207 Z M46.5545487,24.4116767 C50.3719132,18.5249111 57.472441,15.6234198 64.3506593,17.1396455 L95.6094121,24.1244717 C98.9768927,24.8358574 102.03119,26.589328 104.334129,29.1333273 C106.681921,31.6512632 108.177182,34.8371919 108.609818,38.2434707 L110.262314,48.778151 L40.5454724,33.2231269 L46.5545487,24.4116767 Z M19.0745805,51.9833591 C19.5450289,49.8147315 20.8957409,47.935647 22.8071413,46.7906923 C24.6611954,45.5596957 26.9441137,45.1440289 29.1166714,45.6418722 C31.3354073,46.1320354 33.6042188,48.1999116 35.923106,51.8455007 C38.2342892,55.4757722 39.1472065,58.4052635 38.6503021,60.6109981 C38.2227332,62.4720866 36.6742405,63.3796545 34.0279357,63.3107253 C31.4802218,63.1802115 28.9521663,62.7953352 26.4819226,62.1619052 L25.4418902,61.9436294 C20.9595963,60.867498 18.1461166,56.4482484 19.0861364,51.9603827 L19.0745805,51.9833591 Z" id="Shape" fill="#4AA49B"></path>
            </g>
        </g>
    </g>
</svg>