<?xml version="1.0" encoding="UTF-8"?>
<svg width="250px" height="250px" viewBox="0 0 250 250" version="1.1" xmlns="http://www.w3.org/2000/svg" xmlns:xlink="http://www.w3.org/1999/xlink">
    <!-- Generator: Sketch 48.2 (47327) - http://www.bohemiancoding.com/sketch -->
    <title>Images/Hazards/Fog</title>
    <desc>Created with Sketch.</desc>
    <defs></defs>
    <g id="Library-Symbols" stroke="none" stroke-width="1" fill="none" fill-rule="evenodd">
        <g id="Images/Hazards/Fog">
            <circle id="Oval-2-Copy-2" fill="#F2F2F2" cx="125" cy="125" r="125"></circle>
            <g id="Group" transform="translate(50.000000, 48.000000)" fill-rule="nonzero">
                <path d="M61.2212563,0.00230772661 C67.2370441,-0.0186469341 73.1730177,1.38097544 78.5474343,4.08758634 C83.8266427,6.70015902 88.5050334,10.3844283 92.284978,14.9060093 C93.9094568,14.6105993 95.557285,14.4628942 97.2083323,14.4646984 C103.606888,14.3816663 109.78427,16.8071206 114.421185,21.2230605 C119.182681,25.4993741 122.050265,31.4964048 122.391731,37.892006 C128.73038,40.0709826 134.20915,44.2187976 138.030621,49.7317487 C141.960176,55.2110363 144.050147,61.7985716 143.999086,68.5442045 C144.042512,74.2538887 142.522643,79.8663265 139.604583,84.771839 C136.746745,89.667424 132.679434,93.7446283 127.793569,96.6115817 C122.90613,99.5155852 117.321398,101.032451 111.63842,100.999474 L36.0126747,100.999474 C29.6854968,101.032692 23.4659838,99.3602779 18.006545,96.1576618 C12.5322701,93.0047233 7.99162319,88.4535281 4.84821947,82.9687685 C-2.07269503,71.0373683 -1.54889184,56.1890944 6.19553127,44.776457 C10.1776186,38.8082436 15.8904878,34.2053075 22.5647401,31.5875637 C24.2172111,22.6249233 29.0519379,14.5635119 36.1763668,8.89157138 C43.2101785,3.05238748 52.0851887,-0.0976486122 61.2212563,0.00230772661 Z M61.2212563,10.8207307 C56.1322087,10.7678047 51.1209555,12.0734663 46.7030273,14.6033961 C42.3257634,17.1364191 38.7111185,20.80391 36.2393253,25.220077 C33.7121726,29.6391755 32.4081618,34.6534112 32.4618156,39.745512 L32.4618156,39.972472 C26.4481504,40.7701506 20.9411117,43.765434 16.9992091,48.382598 C12.937743,52.9301687 10.7271413,58.8376515 10.8040931,64.9380635 C10.8040931,78.8654529 22.0790846,90.1558328 35.9874913,90.1558328 L111.63842,90.1558328 C117.376234,90.1794153 122.885843,87.9073992 126.943125,83.8445802 C131.000406,79.7817611 133.269326,74.2646322 133.245775,68.5189867 C133.255849,62.7797668 130.981794,57.2730746 126.926715,53.217194 C122.871636,49.1613135 117.369801,46.8905781 111.63842,46.9073585 L109.611156,46.9073585 C110.939087,44.7368693 111.640776,42.2405109 111.63842,39.6950765 C111.686458,35.851658 110.180342,32.1521235 107.462571,29.4377678 C104.744801,26.7234121 101.046373,25.2249433 97.2083323,25.2831214 C93.7521946,25.2294804 90.3933669,26.4297393 87.7519663,28.6623025 C83.3754293,17.854027 72.8682129,10.8030358 61.2212563,10.8585574 L61.2212563,10.8207307 Z" id="Shape" fill="#A4A49A"></path>
                <path d="M98.6139241,118 L8.38607595,118 C5.96371309,118 4,116.209139 4,114 C4,111.790861 5.96371309,110 8.38607595,110 L98.6139241,110 C101.036287,110 103,111.790861 103,114 C103,116.209139 101.036287,118 98.6139241,118 Z" id="Shape" fill="#C9C9C3"></path>
                <path d="M138.620513,136 L25.3794872,136 C22.9607632,136 21,134.209139 21,132 C21,129.790861 22.9607632,128 25.3794872,128 L138.620513,128 C141.039237,128 143,129.790861 143,132 C143,134.209139 141.039237,136 138.620513,136 Z" id="Shape" fill="#C9C9C3"></path>
                <path d="M115.625,155 L54.375,155 C51.9587542,155 50,153.209139 50,151 C50,148.790861 51.9587542,147 54.375,147 L115.625,147 C118.041246,147 120,148.790861 120,151 C120,153.209139 118.041246,155 115.625,155 Z" id="Shape" fill="#C9C9C3"></path>
                <path d="M146.631579,83 L72.3684211,83 C69.9558087,83 68,81.209139 68,79 C68,76.790861 69.9558087,75 72.3684211,75 L146.631579,75 C149.044191,75 151,76.790861 151,79 C151,81.209139 149.044191,83 146.631579,83 Z" id="Shape" fill="#C9C9C3"></path>
                <path d="M50.5789474,83 L35.4210526,83 C32.9793727,83 31,81.209139 31,79 C31,76.790861 32.9793727,75 35.4210526,75 L50.5789474,75 C53.0206273,75 55,76.790861 55,79 C55,81.209139 53.0206273,83 50.5789474,83 Z" id="Shape" fill="#C9C9C3"></path>
                <path d="M135.578947,118 L120.421053,118 C117.979373,118 116,116.209139 116,114 C116,111.790861 117.979373,110 120.421053,110 L135.578947,110 C138.020627,110 140,111.790861 140,114 C140,116.209139 138.020627,118 135.578947,118 Z" id="Shape" fill="#C9C9C3"></path>
                <path d="M34.5789474,155 L19.4210526,155 C16.9793727,155 15,153.209139 15,151 C15,148.790861 16.9793727,147 19.4210526,147 L34.5789474,147 C37.0206273,147 39,148.790861 39,151 C39,153.209139 37.0206273,155 34.5789474,155 Z" id="Shape" fill="#C9C9C3"></path>
            </g>
        </g>
    </g>
</svg>