<?xml version="1.0" encoding="UTF-8"?>
<svg width="250px" height="250px" viewBox="0 0 250 250" version="1.1" xmlns="http://www.w3.org/2000/svg" xmlns:xlink="http://www.w3.org/1999/xlink">
    <!-- Generator: Sketch 48.2 (47327) - http://www.bohemiancoding.com/sketch -->
    <title>Images/Hazards/Forest fire</title>
    <desc>Created with Sketch.</desc>
    <defs></defs>
    <g id="Library-Symbols" stroke="none" stroke-width="1" fill="none" fill-rule="evenodd">
        <g id="Images/Hazards/Forest-fire">
            <circle id="Oval-2-Copy" fill="#FCE7DC" cx="125" cy="125" r="125"></circle>
            <path d="M185.402964,163.350955 L158.640166,135.303123 L169.602292,135.303123 C171.66265,135.341967 173.647019,134.525432 175.083355,133.047758 C176.524761,131.654332 177.338692,129.735417 177.338692,127.730602 C177.338692,125.725787 176.524761,123.806872 175.083355,122.413446 L148.648372,94.0377993 L159.282683,94.0377993 C161.343338,94.0782259 163.328313,93.2614419 164.763746,91.7824337 C166.219765,90.396367 167.036321,88.4689143 167.019112,86.4587217 C167.056255,84.5109271 166.369418,82.6186206 165.091561,81.1481223 L131.562666,45.0229341 C130.072358,43.3954723 127.967072,42.4687099 125.760344,42.4687099 C123.553616,42.4687099 121.44833,43.3954723 119.958023,45.0229341 L86.4291273,81.1481223 C85.1512702,82.6186206 84.464433,84.5109271 84.5015764,86.4587217 C84.4775381,88.464987 85.2843541,90.3918536 86.7307169,91.7824337 C88.1661499,93.2614419 90.1511249,94.0782259 92.2117799,94.0377993 L102.846091,94.0377993 L76.4373329,122.387221 C74.9959275,123.780647 74.1819965,125.699561 74.1819965,127.704377 C74.1819965,129.709192 74.9959275,131.628107 76.4373329,133.021532 C77.8736687,134.499207 79.8580381,135.315742 81.918396,135.276898 L92.8805221,135.276898 L66.1177238,163.350955 C64.6906046,164.884361 63.8864479,166.894753 63.8623581,168.98937 C63.8514026,170.998315 64.6669517,172.92339 66.1177238,174.313082 C67.5540596,175.790756 69.5384289,176.607291 71.5987868,176.568447 L110.333381,176.568447 C110.510513,180.857551 109.60882,185.122563 107.710863,188.972958 C105.520777,192.61489 102.680726,195.823836 99.3319168,198.440249 C97.4695871,199.659068 96.782989,202.05937 97.7190681,204.078663 C98.3562204,206.183259 100.348768,207.580208 102.544502,207.461712 L148.976186,207.461712 C151.17192,207.580208 153.164468,206.183259 153.80162,204.078663 C154.737699,202.05937 154.051101,199.659068 152.188771,198.440249 C149.080934,196.068309 146.447505,193.132392 144.426117,189.785939 C142.13753,185.768321 141.024331,181.188305 141.213533,176.568447 L179.895676,176.568447 C181.956034,176.607291 183.940403,175.790756 185.376739,174.313082 C186.851683,172.934681 187.691581,171.008134 187.697668,168.98937 C187.662884,166.889457 186.844424,164.878384 185.402964,163.350955 Z M142.31,143.84 C140.553142,146.836935 138.056935,149.333142 135.06,151.09 C132.818802,152.42346 130.327087,153.281264 127.74,153.61 C128.795879,153.372016 129.808088,152.970506 130.74,152.42 C132.394461,151.451968 133.771968,150.074461 134.74,148.42 C135.727736,146.763656 136.243037,144.868452 136.23,142.94 C136.23,141.27 135.56,137.12 133.1,134.73 C128.4,130.18 126.49,126.87 125.72,124.8 C125.557467,124.344928 125.159264,124.01504 124.6819,123.939996 C124.204537,123.864952 123.724322,124.056748 123.43,124.44 C120.27,128.44 114.12,137.06 114.31,142.94 C114.322345,146.849266 116.408562,150.458269 119.79,152.42 C120.761532,152.993334 121.818059,153.408519 122.92,153.65 C120.199469,153.358631 117.573425,152.485556 115.22,151.09 C112.220856,149.336003 109.723997,146.839144 107.97,143.84 C106.182127,140.834619 105.251787,137.396857 105.28,133.9 C105.261909,131.081721 105.848431,128.292336 107,125.72 C107.320601,125.034657 107.677783,124.367029 108.07,123.72 C108.07,123.72 108.07,123.72 108.07,123.72 C109.160506,121.97326 109.328534,119.803826 108.52,117.91 C108.292344,117.460226 108.338541,116.9204 108.639309,116.515847 C108.940076,116.111294 109.443712,115.911555 109.94,116 C111.715804,116.291863 113.346279,117.15981 114.58,118.47 C114.490225,118.225119 114.416732,117.974573 114.36,117.72 C113.11142,112.112509 115.004865,106.269174 119.304894,102.459627 C123.604923,98.6500792 129.633867,97.4746913 135.05,99.39 C135.504519,99.5458079 135.839663,99.9346529 135.926709,100.407185 C136.013754,100.879718 135.839166,101.362461 135.47,101.67 C133.184822,103.619176 132.223791,106.708479 133,109.61 C133.38,111.27 136.36,115.79 139.35,119 C141.046604,120.812086 142.401719,122.915902 143.35,125.21 L143.44,125.41 C144.491163,128.116182 145.020484,130.996908 145,133.9 C145.023133,137.396201 144.093156,140.832624 142.31,143.84 Z" id="Shape" fill="#ED5C14" fill-rule="nonzero"></path>
        </g>
    </g>
</svg>