<?xml version="1.0" encoding="UTF-8"?>
<svg width="250px" height="250px" viewBox="0 0 250 250" version="1.1" xmlns="http://www.w3.org/2000/svg" xmlns:xlink="http://www.w3.org/1999/xlink">
    <!-- Generator: Sketch 48.2 (47327) - http://www.bohemiancoding.com/sketch -->
    <title>Images/Hazards/Groundwater flood</title>
    <desc>Created with Sketch.</desc>
    <defs></defs>
    <g id="Library-Symbols" stroke="none" stroke-width="1" fill="none" fill-rule="evenodd">
        <g id="Images/Hazards/Groundwater-flood">
            <circle id="Oval-2" fill="#F2F2F2" cx="125" cy="125" r="125"></circle>
            <g id="groundwater-flood" transform="translate(50.000000, 63.000000)" fill-rule="nonzero">
                <rect id="Rectangle-path" fill="#7E7E71" x="0" y="65.6804734" width="150" height="57.6923077" rx="4"></rect>
                <path d="M144.689605,4.53601391 C137.215522,11.8283724 125.283072,11.8283724 117.808989,4.53601391 L113.618565,0.444109204 C112.990233,-0.148036401 112.00883,-0.148036401 111.380498,0.444109204 L107.142455,4.53601391 C99.6683721,11.8283724 87.7359224,11.8283724 80.261839,4.53601391 L76.0714152,0.444109204 C75.4430833,-0.148036401 74.4616798,-0.148036401 73.8333479,0.444109204 L69.6429241,4.53601391 C62.1688407,11.8283724 50.236391,11.8283724 42.7623076,4.53601391 L38.5718838,0.444109204 C37.9435519,-0.148036401 36.9621484,-0.148036401 36.3338166,0.444109204 L32.1433927,4.53601391 C24.6693093,11.8283724 12.7368597,11.8283724 5.26277628,4.53601391 L2.71518907,2.01425869 C2.25013169,1.55611603 1.5525668,1.42748882 0.954486336,1.68959457 C0.356405875,1.95170032 -0.0213764329,2.55159303 0.000937277362,3.20376587 L0.000937277362,53.6388704 C0.000937277362,56.8579091 2.61257693,59.4674556 5.83419771,59.4674556 L144.165802,59.4674556 C147.387423,59.4674556 149.999063,56.8579091 149.999063,53.6388704 L149.999063,3.15618558 C150.021376,2.50401274 149.643594,1.90412004 149.045514,1.64201428 C148.447433,1.37990853 147.749868,1.50853575 147.284811,1.9666784 L144.689605,4.53601391 Z" id="Shape" fill="#C9C9C3"></path>
            </g>
        </g>
    </g>
</svg>