<?xml version="1.0" encoding="UTF-8"?>
<svg width="250px" height="250px" viewBox="0 0 250 250" version="1.1" xmlns="http://www.w3.org/2000/svg" xmlns:xlink="http://www.w3.org/1999/xlink">
    <!-- Generator: Sketch 48.2 (47327) - http://www.bohemiancoding.com/sketch -->
    <title>Images/Hazards/Hail</title>
    <desc>Created with Sketch.</desc>
    <defs></defs>
    <g id="Library-Symbols" stroke="none" stroke-width="1" fill="none" fill-rule="evenodd">
        <g id="Images/Hazards/Hail">
            <circle id="Oval-2" fill="#BFEFE9" cx="125" cy="125" r="125"></circle>
            <g id="hail" transform="translate(54.000000, 46.000000)" fill-rule="nonzero">
                <path d="M60.775,0.1375 C66.745599,0.103308461 72.6395395,1.48255907 77.975,4.1625 C83.2210897,6.74405757 87.8670429,10.3977953 91.6125,14.8875 C93.2247857,14.5905843 94.8606044,14.4399718 96.5,14.4375 C102.850988,14.3604987 108.981453,16.764251 113.5875,21.1375 C118.311695,25.3840949 121.157494,31.3319508 121.5,37.675 C127.793247,39.8271665 133.233239,43.935631 137.025,49.4 C140.92612,54.8366056 143.000749,61.3712487 142.95,68.0625 C142.989922,73.7224654 141.48135,79.2855952 138.5875,84.15 C135.75012,88.9997655 131.712265,93.03762 126.8625,95.875 C121.997096,98.7664918 116.434636,100.274882 110.775,100.2375 L35.75,100.2375 C29.4670981,100.271583 23.2915148,98.6089261 17.875,95.425 C12.4414613,92.3036906 7.93380937,87.7960387 4.8125,82.3625 C-2.05717716,70.5295026 -1.53725386,55.8064408 6.15,44.4875 C10.1030877,38.5708254 15.774353,34.0076382 22.4,31.4125 C24.046866,22.5296907 28.845124,14.5399919 35.9125,8.9125 C42.9003168,3.13723957 51.7101668,0.0278807268 60.775,0.1375 Z M60.775,10.8625 C55.7223459,10.804578 50.7461798,12.0993307 46.3625,14.6125 C42.0312534,17.0809872 38.4434872,20.6687534 35.975,25 C33.4606946,29.383216 32.1658599,34.3596972 32.225,39.4125 L32.225,39.6375 C26.2669385,40.4475568 20.8181576,43.4301411 16.925,48.0125 C12.8912385,52.5246332 10.6966888,58.3856866 10.775,64.4375 C10.775,78.2446187 21.9678813,89.4375 35.775,89.4375 L110.825,89.4375 C116.518986,89.4541638 121.984565,87.1996111 126.010838,83.1733379 C130.037111,79.1470646 132.291664,73.6814858 132.275,67.9875 C132.278373,62.3044539 130.017147,56.8542981 125.991595,52.8428208 C121.966042,48.8313435 116.507999,46.5892215 110.825,46.6125 L108.8125,46.6125 C112.149543,41.03537 111.274277,33.9045312 106.6875,29.3 C104.014912,26.5639688 100.323485,25.0647509 96.5,25.1625 C93.0690316,25.1093223 89.7346646,26.2992162 87.1125,28.5125 C82.7678351,17.7975599 72.3371376,10.8074579 60.775,10.8625 Z" id="Shape" fill="#15514B"></path>
                <polygon id="Shape" fill="#4AA49B" points="60.3875 146.425 68.4125 157.475 81.4125 153.25 81.4125 139.5875 68.4125 135.3625"></polygon>
                <polygon id="Shape" fill="#4AA49B" points="104.1625 127.2 106.3 113.7 94.125 107.5 84.4625 117.1625 90.6625 129.3375"></polygon>
                <polygon id="Shape" fill="#4AA49B" points="57.725 118.55 49.7 107.5 36.7 111.725 36.7 125.3875 49.7 129.6125"></polygon>
            </g>
        </g>
    </g>
</svg>