<?xml version="1.0" encoding="UTF-8"?>
<svg width="250px" height="250px" viewBox="0 0 250 250" version="1.1" xmlns="http://www.w3.org/2000/svg" xmlns:xlink="http://www.w3.org/1999/xlink">
    <!-- Generator: Sketch 48.2 (47327) - http://www.bohemiancoding.com/sketch -->
    <title>Images/Hazards/Heat wave</title>
    <desc>Created with Sketch.</desc>
    <defs></defs>
    <g id="Library-Symbols" stroke="none" stroke-width="1" fill="none" fill-rule="evenodd">
        <g id="Images/Hazards/Heat-wave">
            <circle id="Oval-2" fill="#F8F1D4" cx="125" cy="125" r="125"></circle>
            <g id="heat-wave" transform="translate(53.000000, 52.000000)" fill-rule="nonzero">
                <path d="M45.066,58.392 C39.7445144,67.5754641 39.7445144,78.9045359 45.066,88.088 C47.6743322,92.5867718 51.4132282,96.3256678 55.912,98.934 C60.4121719,101.575791 65.5417906,102.954376 70.76,102.924879 L70.76,43.5551214 C65.5417906,43.5256238 60.4121719,44.9042089 55.912,47.546 C51.4132282,50.1543322 47.6743322,53.8932282 45.066,58.392 Z" id="Shape" fill="#F2C706"></path>
                <path d="M65.3312,3.872 L58.1972,21.5736 C57.552971,22.9641266 56.3662188,24.0292682 54.9144,24.52 C53.5393008,25.0036488 52.0198851,24.8461743 50.7732,24.0908 L34.22,13.8596 C32.2493801,12.5247021 29.635977,12.6426355 27.7936,14.1496 C25.7178233,15.3631555 24.8168531,17.894686 25.6592,20.1468 L30.218,38.9852 C30.6016059,40.4071718 30.2873453,41.9268153 29.3712,43.08 C28.483235,44.275266 27.1389087,45.0482535 25.6592,45.2144 L6.2408,46.6876 C3.88273291,46.789575 1.86345614,48.4096925 1.2528,50.6896 C0.311056317,52.9678264 1.08358084,55.5944098 3.1088,57 L17.6668,69.238 C18.9232041,70.1848483 19.6620223,71.6667635 19.6620223,73.24 C19.6620223,74.8132365 18.9232041,76.2951517 17.6668,77.242 L3.1088,89.48 C1.10035494,90.8816396 0.329824181,93.4869967 1.2528,95.7556 C1.86345614,98.0355075 3.88273291,99.655625 6.2408,99.7576 L25.6592,101.1844 C27.1522537,101.370385 28.4988315,102.174124 29.3712,103.4 C30.3023351,104.564215 30.6173811,106.104919 30.218,107.5412 L25.6592,126.3796 C24.8509222,128.629575 25.7692728,131.135499 27.84,132.3304 C29.682377,133.837365 32.2957801,133.955298 34.2664,132.6204 L50.8196,122.3428 C52.0662851,121.587426 53.5857008,121.429951 54.9608,121.9136 C56.4214168,122.415036 57.6095963,123.498253 58.2436,124.9064 L65.3776,142.608 C66.121727,144.923213 68.3314685,146.447173 70.76,146.32 L70.76,112.0652 C63.9291736,112.121018 57.2148559,110.294948 51.3532,106.7872 C45.5255999,103.337867 40.6621334,98.4744001 37.2128,92.6468 C30.1674363,80.6680781 30.1674363,65.8119219 37.2128,53.8332 C40.6621334,48.0055999 45.5255999,43.1421334 51.3532,39.6928 C57.2148559,36.1850521 63.9291736,34.3589825 70.76,34.4148 L70.76,0.16 C68.3146739,0.0110536398 66.0796547,1.53927188 65.3312,3.872 Z" id="Shape" fill="#F2C706"></path>
                <path d="M138.7244,16.806 C136.7408,14.5556 134.0844,11.5512 129.3516,10.9132 L129.0384,10.9132 C128.6208,10.9132 128.2032,10.8436 127.7624,10.832 L127.426,10.832 C121.51,10.832 118.4592,14.312 116.2204,16.8524 C114.2368,19.1028 113.274,20.112 111.1164,20.112 C110.876834,20.1246694 110.636766,20.1246694 110.3972,20.112 C108.7732,19.8684 107.8104,18.8592 106.0936,16.9104 C104.1216,14.6716 101.5232,11.7136 96.9064,11.0292 C96.2070673,10.9295476 95.5015967,10.8791568 94.7952,10.8784 C88.8792,10.8784 85.8168,14.3584 83.5896,16.8872 C81.5944,19.1492 80.6316,20.1584 78.474,20.1584 L78.474,28.2784 C82.0197079,28.3033829 85.4141641,26.8438088 87.8352,24.2532 C87.830171,24.2800331 87.830171,24.3075669 87.8352,24.3344 C88.5428,23.6268 89.1808,22.9192 89.7492,22.2696 C91.7328,20.0076 92.7072,19.01 94.8532,19.01 C95.0925723,18.9913927 95.3330277,18.9913927 95.5724,19.01 C97.1964,19.242 98.1592,20.2512 99.8876,22.2116 C101.8712,24.3924 104.458,27.3388 109.04,28 C109.746244,28.1088376 110.45982,28.1631314 111.1744,28.1624 C117.0904,28.1624 120.1412,24.6824 122.38,22.142 C124.3752,19.88 125.338,18.8824 127.4956,18.8824 C127.731303,18.8699666 127.967497,18.8699666 128.2032,18.8824 C129.8272,19.126 130.79,20.1352 132.5184,22.0956 C133.0868,22.7452 133.6784,23.4528 134.4324,24.1604 C134.4324,24.1604 134.4324,24.1604 134.4324,24.1024 C136.850394,26.7330729 140.266961,28.2201852 143.84,28.1972 L143.84,20.0772 C141.6824,20.0772 140.7196,19.068 138.7244,16.806 Z" id="Shape" fill="#F6E286"></path>
                <path d="M138.7244,124.686 C136.764,122.4588 134.154,119.4892 129.514,118.8164 C128.823095,118.71089 128.124896,118.660464 127.426,118.6656 C121.51,118.6656 118.4592,122.1456 116.2204,124.686 C114.2368,126.9364 113.274,127.9456 111.1164,127.9456 C110.876834,127.958269 110.636766,127.958269 110.3972,127.9456 C108.7732,127.702 107.8104,126.6928 106.0936,124.744 C104.1216,122.5052 101.5232,119.5472 96.9064,118.8628 C96.2070673,118.763148 95.5015967,118.712757 94.7952,118.712 C88.8792,118.712 85.8168,122.192 83.5896,124.7208 C81.5944,127.0408 80.6316,127.992 78.474,127.992 L78.474,136.112 C79.976462,136.124569 81.4691375,135.869243 82.882,135.358 C85.6331814,134.243134 88.036184,132.412847 89.842,130.0568 C91.8256,127.7368 92.8,126.7972 94.946,126.7972 C95.1853723,126.778593 95.4258277,126.778593 95.6652,126.7972 C97.2892,127.0292 98.252,128.0384 99.9804,129.9988 C101.9408,132.226 104.5276,135.1724 109.1328,135.8684 C109.839044,135.977238 110.55262,136.031531 111.2672,136.0308 C117.1832,136.0308 120.234,132.5508 122.4728,130.0104 C124.468,127.6904 125.4308,126.7508 127.5884,126.7508 C127.824103,126.738367 128.060297,126.738367 128.296,126.7508 C129.92,126.9944 130.8828,128.0036 132.6112,129.964 C134.329957,132.180922 136.563784,133.944888 139.1188,135.1028 L139.5016,135.2536 C140.910677,135.763965 142.39939,136.019285 143.898,136.0076 L143.898,127.8876 C141.6824,127.9572 140.7196,126.948 138.7244,124.686 Z" id="Shape" fill="#F6E286"></path>
                <path d="M138.7244,88.726 C136.4972,86.1972 133.4348,82.7172 127.5188,82.7172 C125.013113,82.6744159 122.554902,83.4033745 120.4776,84.8052 C120.4776,84.8052 120.4776,84.8052 120.4776,84.8052 C118.896871,85.9388144 117.47317,87.2767033 116.2436,88.784 C114.26,91.0344 113.2972,92.0436 111.1396,92.0436 C110.900034,92.0562694 110.659966,92.0562694 110.4204,92.0436 C108.7964,91.8 107.8336,90.7908 106.1168,88.842 C104.886088,87.3316628 103.458127,85.9934369 101.8712,84.8632 C99.7945472,83.459999 97.3358927,82.7309087 94.83,82.7752 C88.914,82.7752 85.8516,86.2552 83.6244,88.784 C81.6292,91.104 80.6664,92.0552 78.5088,92.0552 L78.5088,100.1752 C84.4248,100.1752 87.4872,96.6952 89.7144,94.1548 C91.7096,91.8348 92.6724,90.8952 94.83,90.8952 C96.9876,90.8952 97.9156,91.8 99.9108,94.12 C101.906,96.44 104.458,99.2588 109.04,99.92 C109.746244,100.028838 110.45982,100.083131 111.1744,100.0824 C117.0904,100.0824 120.1412,96.6024 122.38,94.062 C124.3752,91.742 125.338,90.8024 127.4956,90.8024 C129.6532,90.8024 130.616,91.8 132.6112,94.062 C134.8384,96.6024 137.9008,100.0824 143.8168,100.0824 L143.8168,91.9624 C141.6824,91.9972 140.7196,90.988 138.7244,88.726 Z" id="Shape" fill="#F6E286"></path>
                <path d="M138.7244,52.766 C136.7408,50.5156 134.0844,47.5228 129.4444,46.8848 C129.2588,46.8848 129.0616,46.8848 128.876,46.8152 L128.6208,46.8152 C128.2612,46.8152 127.8784,46.8152 127.4608,46.8152 C121.5448,46.8152 118.494,50.2952 116.2552,52.8356 C114.2716,55.086 113.3088,56.0952 111.1512,56.0952 C110.911634,56.1078694 110.671566,56.1078694 110.432,56.0952 C108.808,55.8516 107.8452,54.8424 106.1284,52.8936 C104.1564,50.6548 101.558,47.6968 96.9412,47.0124 C96.2418673,46.9127476 95.5363967,46.8623568 94.83,46.8616 C88.914,46.8616 85.8516,50.3416 83.6244,52.8704 C81.6292,55.1324 80.6664,56.1416 78.5088,56.1416 L78.5088,64.2616 C84.4248,64.2616 87.4872,60.7816 89.7144,58.2412 C91.64,55.84 92.6376,54.8656 94.7952,54.8656 C96.9528,54.8656 97.9156,55.84 99.9108,58.16 C101.906,60.48 104.1796,63.0088 108.3208,63.8904 L108.6804,63.96 L109.1328,64.0296 C109.815631,64.1387436 110.506103,64.1930504 111.1976,64.192 C117.1136,64.192 120.1644,60.712 122.4032,58.1716 C124.3984,55.9096 125.3612,54.912 127.5188,54.912 C129.6764,54.912 130.6392,55.9096 132.6344,58.1716 C134.8616,60.712 137.924,64.192 143.84,64.192 L143.84,56.072 C141.6824,56.0372 140.7196,55.028 138.7244,52.766 Z" id="Shape" fill="#F6E286"></path>
            </g>
        </g>
    </g>
</svg>