<?xml version="1.0" encoding="UTF-8"?>
<svg width="250px" height="250px" viewBox="0 0 250 250" version="1.1" xmlns="http://www.w3.org/2000/svg" xmlns:xlink="http://www.w3.org/1999/xlink">
    <!-- Generator: Sketch 48.2 (47327) - http://www.bohemiancoding.com/sketch -->
    <title>Images/Hazards/Heavy snow</title>
    <desc>Created with Sketch.</desc>
    <defs></defs>
    <g id="Library-Symbols" stroke="none" stroke-width="1" fill="none" fill-rule="evenodd">
        <g id="Images/Hazards/Heavy-snow">
            <circle id="Oval-2" fill="#BFEFE9" cx="125" cy="125" r="125"></circle>
            <g id="Group" transform="translate(54.000000, 47.000000)" fill-rule="nonzero">
                <path d="M39.1625,127.5 C38.9266015,127.733983 38.6072537,127.864421 38.275,127.8625 C37.9410845,127.873334 37.6183448,127.741511 37.3875,127.5 L32.3875,122.5 L27.325,127.5 C26.8374532,127.984654 26.0500468,127.984654 25.5625,127.5 L22.75,124.6875 C22.5084889,124.456655 22.3766656,124.133916 22.3875,123.8 C22.3855791,123.467746 22.5160169,123.148399 22.75,122.9125 L27.75,117.9125 L22.75,112.9125 C22.5084889,112.681655 22.3766656,112.358916 22.3875,112.025 C22.3855791,111.692746 22.5160169,111.373399 22.75,111.1375 L25.5625,108.325 C26.0500468,107.840346 26.8374532,107.840346 27.325,108.325 L32.3875,113.3875 L37.3875,108.325 C37.6233985,108.091017 37.9427463,107.960579 38.275,107.9625 C38.6072537,107.960579 38.9266015,108.091017 39.1625,108.325 L41.975,111.1375 C42.2089831,111.373399 42.3394209,111.692746 42.3375,112.025 C42.3394209,112.357254 42.2089831,112.676601 41.975,112.9125 L36.9125,117.9125 L41.975,122.9125 C42.2089831,123.148399 42.3394209,123.467746 42.3375,123.8 C42.3394209,124.132254 42.2089831,124.451601 41.975,124.6875 L39.1625,127.5 Z" id="Shape" fill="#4AA49B"></path>
                <path d="M117.4875,127.5 C116.999953,127.984654 116.212547,127.984654 115.725,127.5 L110.725,122.5 L105.725,127.5 C105.237453,127.984654 104.450047,127.984654 103.9625,127.5 L101.1375,124.6875 C100.903517,124.451601 100.773079,124.132254 100.775,123.8 C100.773079,123.467746 100.903517,123.148399 101.1375,122.9125 L106.1375,117.9125 L101.1375,112.9125 C100.903517,112.676601 100.773079,112.357254 100.775,112.025 C100.773079,111.692746 100.903517,111.373399 101.1375,111.1375 L103.9625,108.325 C104.450047,107.840346 105.237453,107.840346 105.725,108.325 L110.725,113.3875 L115.725,108.325 C116.212547,107.840346 116.999953,107.840346 117.4875,108.325 L120.25,111.0375 C120.483983,111.273399 120.614421,111.592746 120.6125,111.925 C120.623334,112.258916 120.491511,112.581655 120.25,112.8125 L115.25,117.8125 L120.25,122.8125 C120.483983,123.048399 120.614421,123.367746 120.6125,123.7 C120.623334,124.033916 120.491511,124.356655 120.25,124.5875 L117.4875,127.5 Z" id="Shape" fill="#4AA49B"></path>
                <path d="M78.325,127.5 C78.0902918,127.736641 77.7707969,127.869748 77.4375,127.869748 C77.1042031,127.869748 76.7847082,127.736641 76.55,127.5 L71.55,122.5 L66.55,127.5 C66.3152918,127.736641 65.9957969,127.869748 65.6625,127.869748 C65.3292031,127.869748 65.0097082,127.736641 64.775,127.5 L61.9625,124.6875 C61.7285169,124.451601 61.5980791,124.132254 61.6,123.8 C61.5980791,123.467746 61.7285169,123.148399 61.9625,122.9125 L66.9625,117.9125 L61.9625,112.9125 C61.7285169,112.676601 61.5980791,112.357254 61.6,112.025 C61.5980791,111.692746 61.7285169,111.373399 61.9625,111.1375 L64.775,108.325 C65.0097082,108.088359 65.3292031,107.955252 65.6625,107.955252 C65.9957969,107.955252 66.3152918,108.088359 66.55,108.325 L71.55,113.3875 L76.55,108.325 C76.7847082,108.088359 77.1042031,107.955252 77.4375,107.955252 C77.7707969,107.955252 78.0902918,108.088359 78.325,108.325 L81.1375,111.1375 C81.3714831,111.373399 81.5019209,111.692746 81.5,112.025 C81.5019209,112.357254 81.3714831,112.676601 81.1375,112.9125 L76.1375,117.9125 L81.1375,122.9125 C81.3714831,123.148399 81.5019209,123.467746 81.5,123.8 C81.5019209,124.132254 81.3714831,124.451601 81.1375,124.6875 L78.325,127.5 Z" id="Shape" fill="#4AA49B"></path>
                <path d="M98.7375,157.0875 C98.2499532,157.572154 97.4625468,157.572154 96.975,157.0875 L91.975,152.0875 L86.975,157.0875 C86.4874532,157.572154 85.7000468,157.572154 85.2125,157.0875 L82.3875,154.275 C82.1508592,154.040292 82.0177521,153.720797 82.0177521,153.3875 C82.0177521,153.054203 82.1508592,152.734708 82.3875,152.5 L87.3875,147.5 L82.3875,142.5 C82.1535169,142.264101 82.0230791,141.944754 82.025,141.6125 C82.0230791,141.280246 82.1535169,140.960899 82.3875,140.725 L85.2125,137.9125 C85.7000468,137.427846 86.4874532,137.427846 86.975,137.9125 L91.975,142.9125 L96.975,137.9125 C97.4625468,137.427846 98.2499532,137.427846 98.7375,137.9125 L101.5,140.625 C101.741511,140.855845 101.873334,141.178584 101.8625,141.5125 C101.864421,141.844754 101.733983,142.164101 101.5,142.4 L96.5,147.4 L101.5,152.4 C101.736641,152.634708 101.869748,152.954203 101.869748,153.2875 C101.869748,153.620797 101.736641,153.940292 101.5,154.175 L98.7375,157.0875 Z" id="Shape" fill="#4AA49B"></path>
                <path d="M59.575,157.0875 C59.3402918,157.324141 59.0207969,157.457248 58.6875,157.457248 C58.3542031,157.457248 58.0347082,157.324141 57.8,157.0875 L52.8,152.0875 L47.8,157.0875 C47.5652918,157.324141 47.2457969,157.457248 46.9125,157.457248 C46.5792031,157.457248 46.2597082,157.324141 46.025,157.0875 L43.2125,154.275 C42.9758592,154.040292 42.8427521,153.720797 42.8427521,153.3875 C42.8427521,153.054203 42.9758592,152.734708 43.2125,152.5 L48.2125,147.5 L43.2125,142.5 C42.9118219,142.256252 42.7410252,141.886962 42.75,141.5 C42.7480791,141.167746 42.8785169,140.848399 43.1125,140.6125 L45.925,137.8 C46.1597082,137.563359 46.4792031,137.430252 46.8125,137.430252 C47.1457969,137.430252 47.4652918,137.563359 47.7,137.8 L52.7,142.8 L57.7,137.8 C57.9347082,137.563359 58.2542031,137.430252 58.5875,137.430252 C58.9207969,137.430252 59.2402918,137.563359 59.475,137.8 L62.2875,140.6125 C62.5585329,140.831017 62.7261537,141.152668 62.75,141.5 C62.7519209,141.832254 62.6214831,142.151601 62.3875,142.3875 L57.3875,147.3875 L62.3875,152.3875 C62.6241408,152.622208 62.7572479,152.941703 62.7572479,153.275 C62.7572479,153.608297 62.6241408,153.927792 62.3875,154.1625 L59.575,157.0875 Z" id="Shape" fill="#4AA49B"></path>
                <path d="M60.775,0.25 C66.7469777,0.229226294 72.6397227,1.61676216 77.975,4.3 C83.2157625,6.89001168 87.8600828,10.5424652 91.6125,15.025 C93.2251485,14.732141 94.8609764,14.5857114 96.5,14.5875 C102.851958,14.505185 108.984353,16.9096941 113.5875,21.2875 C118.314321,25.5268852 121.161022,31.4721283 121.5,37.8125 C127.792488,39.9726599 133.231359,44.0846562 137.025,49.55 C140.925938,54.981971 143.000689,61.5126193 142.95,68.2 C142.993109,73.860378 141.484309,79.4243493 138.5875,84.2875 C135.750474,89.140809 131.712783,93.1828043 126.8625,96.025 C122.010653,98.9039259 116.466592,100.407693 110.825,100.375 L35.75,100.375 C29.4688998,100.407932 23.2946804,98.7499598 17.875,95.575 C12.4405915,92.4492888 7.93301188,87.9373957 4.8125,82.5 C-2.05801291,70.6716339 -1.53802431,55.951583 6.15,44.6375 C10.1054787,38.723014 15.7759791,34.1604421 22.4,31.5625 C24.0404369,22.6772569 28.8399548,14.6854602 35.9125,9.0625 C42.8950879,3.27374065 51.7054659,0.150906839 60.775,0.25 Z M60.775,10.975 C55.7230134,10.922531 50.7482546,12.2169175 46.3625,14.725 C42.0171136,17.236149 38.4287924,20.871969 35.975,25.25 C33.4662512,29.6309372 32.1717369,34.6018722 32.225,39.65 L32.225,39.875 C26.2558723,40.6680724 20.7897056,43.6370734 16.875,48.2125 C12.8431116,52.7208 10.6486085,58.5772684 10.725,64.625 C10.725,78.4321187 21.9178813,89.625 35.725,89.625 L110.825,89.625 C116.521029,89.6483789 121.990514,87.3959829 126.018249,83.3682485 C130.045983,79.3405142 132.298379,73.8710286 132.275,68.175 C132.285,62.4853414 130.027506,57.0262025 126.001959,53.0053467 C121.976411,48.9844908 116.514643,46.7333645 110.825,46.75 L108.8125,46.75 C110.130761,44.5982542 110.827339,42.1234532 110.825,39.6 C110.872688,35.7897715 109.377541,32.1221845 106.679562,29.4312688 C103.981584,26.740353 100.31009,25.2548243 96.5,25.3125 C93.0690316,25.2593223 89.7346646,26.4492162 87.1125,28.6625 C82.7678351,17.9475599 72.3371376,10.9574579 60.775,11.0125 L60.775,10.975 Z" id="Shape" fill="#15514B"></path>
            </g>
        </g>
    </g>
</svg>