<?xml version="1.0" encoding="UTF-8"?>
<svg width="250px" height="250px" viewBox="0 0 250 250" version="1.1" xmlns="http://www.w3.org/2000/svg" xmlns:xlink="http://www.w3.org/1999/xlink">
    <!-- Generator: Sketch 48.2 (47327) - http://www.bohemiancoding.com/sketch -->
    <title>Images/Hazards/Hurricane</title>
    <desc>Created with Sketch.</desc>
    <defs></defs>
    <g id="Library-Symbols" stroke="none" stroke-width="1" fill="none" fill-rule="evenodd">
        <g id="Images/Hazards/Hurricane">
            <circle id="Oval-2" fill="#BFEFE9" cx="125" cy="125" r="125"></circle>
            <path d="M159.07,102.43 C157.711302,100.338743 156.110196,98.4154024 154.3,96.7 L153.92,96.33 L153.31,95.75 C152.125935,94.6371746 150.877088,93.5953556 149.57,92.63 C146.858669,90.5558387 143.869477,88.872735 140.69,87.63 C138.280064,86.918876 136.598597,84.7414357 136.52,82.23 C136.52,79.12 138.74,77.06 140.43,76.01 C148,71.31 161.88,71.22 164.68,70.43 C167.98,69.51 167.57,64.65 164.18,64.16 C155.93,63 145.78,62.23 135.7,63.74 C116.41,66.64 97.09,82 86.93,109.72 C81.3810921,122.78461 82.9174283,137.781819 91,149.45 L90.95,149.45 C93.28,153.34 100.74,161.04 109.33,164.27 C111.15,164.96 113.5,166.56 113.5,169.67 C113.5,172.78 111.28,174.85 109.59,175.89 C102.05,180.57 88.14,180.66 85.34,181.45 C82.04,182.38 82.45,187.23 85.84,187.72 C94.09,188.91 104.24,189.65 114.32,188.14 C133.63,185.24 152.97,169.82 163.13,142.08 C168.65232,129.043664 167.144243,114.091075 159.13,102.42 L159.07,102.43 Z" id="Shape" fill="#15514B" fill-rule="nonzero"></path>
        </g>
    </g>
</svg>