<?xml version="1.0" encoding="UTF-8"?>
<svg width="250px" height="250px" viewBox="0 0 250 250" version="1.1" xmlns="http://www.w3.org/2000/svg" xmlns:xlink="http://www.w3.org/1999/xlink">
    <!-- Generator: Sketch 48.2 (47327) - http://www.bohemiancoding.com/sketch -->
    <title>Images/Hazards/Hurricane</title>
    <desc>Created with Sketch.</desc>
    <defs></defs>
    <g id="Library-Symbols" stroke="none" stroke-width="1" fill="none" fill-rule="evenodd">
        <g id="Images/Hazards/Hurricane">
            <circle id="Oval-2" fill="#FCE7DC" cx="125" cy="125" r="125"></circle>
            <g id="hurricane" transform="translate(83.000000, 62.000000)" fill="#ED5C14" fill-rule="nonzero">
                <path d="M76.07,40.43 C74.7113018,38.3387434 73.110196,36.4154024 71.3,34.7 L70.92,34.33 L70.31,33.75 C69.1259351,32.6371746 67.8770879,31.5953556 66.57,30.63 C63.8586688,28.5558387 60.8694767,26.872735 57.69,25.63 C55.2800645,24.918876 53.5985967,22.7414357 53.52,20.23 C53.52,17.12 55.74,15.06 57.43,14.01 C65,9.31 78.88,9.22 81.68,8.43 C84.98,7.51 84.57,2.65 81.18,2.16 C72.93,1 62.78,0.23 52.7,1.74 C33.41,4.64 14.09,20 3.93,47.72 C-1.61890795,60.7846102 -0.0825717051,75.7818188 8,87.45 L7.95,87.45 C10.28,91.34 17.74,99.04 26.33,102.27 C28.15,102.96 30.5,104.56 30.5,107.67 C30.5,110.78 28.28,112.85 26.59,113.89 C19.05,118.57 5.14,118.66 2.34,119.45 C-0.96,120.38 -0.55,125.23 2.84,125.72 C11.09,126.91 21.24,127.65 31.32,126.14 C50.63,123.24 69.97,107.82 80.13,80.08 C85.6523204,67.0436637 84.1442429,52.0910753 76.13,40.42 L76.07,40.43 Z" id="Shape"></path>
            </g>
        </g>
    </g>
</svg>