<?xml version="1.0" encoding="UTF-8"?>
<svg width="250px" height="250px" viewBox="0 0 250 250" version="1.1" xmlns="http://www.w3.org/2000/svg" xmlns:xlink="http://www.w3.org/1999/xlink">
    <!-- Generator: Sketch 48.2 (47327) - http://www.bohemiancoding.com/sketch -->
    <title>Images/Hazards/Insect infestation</title>
    <desc>Created with Sketch.</desc>
    <defs></defs>
    <g id="Library-Symbols" stroke="none" stroke-width="1" fill="none" fill-rule="evenodd">
        <g id="Images/Hazards/Insect-infestation">
            <circle id="Oval-2" fill="#BFEFE9" cx="125" cy="125" r="125"></circle>
            <g id="Group" transform="translate(51.000000, 57.000000)" fill="#15514B" fill-rule="nonzero">
                <path d="M104.091016,116.189453 C103.250905,116.939397 102.158356,117.344045 101.032422,117.322266 L93.7257812,117.322266 L93.7257812,119.451953 C93.7520805,122.272304 93.1239036,125.060323 91.890625,127.596875 L99.9902344,135.526563 C100.768847,136.353793 101.19888,137.449161 101.191016,138.585156 C101.172618,140.937988 99.2730873,142.842557 96.9203125,142.867188 C95.7939965,142.891232 94.7006437,142.486286 93.8617187,141.734375 L86.6910156,134.427734 C83.2864302,137.212424 79.0134284,138.71559 74.6152344,138.675781 L74.6152344,106.232031 C74.6182778,105.807484 74.4509725,105.399443 74.1507648,105.099235 C73.8505571,104.799028 73.4425156,104.631722 73.0179687,104.634766 L69.8347656,104.634766 C68.9551897,104.640938 68.2436727,105.352455 68.2375,106.232031 L68.2375,138.619141 C63.8396249,138.657031 59.5672567,137.154087 56.1617187,134.371094 L48.9910156,141.734375 C48.1549702,142.483592 47.0661807,142.888347 45.94375,142.867188 C43.6078529,142.842662 41.720229,140.955038 41.6957031,138.619141 C41.6893825,137.485552 42.1146405,136.392032 42.8851562,135.560547 L50.9847656,127.630859 C49.7575313,125.111458 49.1220943,122.344982 49.1269531,119.542578 L49.1269531,117.378906 L41.8203125,117.378906 C40.6978818,117.400065 39.6090923,116.995311 38.7730469,116.246094 C37.912706,115.492816 37.4278614,114.398807 37.4476562,113.255469 C37.4285415,112.106437 37.8833213,111.000215 38.7050781,110.196875 C39.4761351,109.362442 40.5595716,108.886386 41.6957031,108.882813 L49.1269531,108.882813 L49.1269531,101.055078 L42.8851562,94.9492188 C42.1146405,94.1177337 41.6893825,93.0242132 41.6957031,91.890625 C41.720229,89.5547279 43.6078529,87.667104 45.94375,87.6425781 C47.0661807,87.621419 48.1549702,88.0261735 48.9910156,88.7753906 L56.1617187,96.0820313 L86.6910156,96.0820313 L93.8617187,88.7753906 C94.7006437,88.0234793 95.7939965,87.6185338 96.9203125,87.6425781 C99.2511889,87.6790047 101.131933,89.5597486 101.168359,91.890625 C101.176224,93.0266202 100.746191,94.1219886 99.9675781,94.9492188 L93.7257812,101.055078 L93.7257812,108.882813 L101.168359,108.882813 C102.292305,108.873477 103.370272,109.328437 104.147656,110.140234 C104.986397,110.961016 105.446013,112.093642 105.416406,113.266797 C105.426971,114.388746 104.941986,115.4582 104.091016,116.189453 Z M64.1253906,76.8921875 C59.5294151,79.5483695 56.6973858,84.4526154 56.6941406,89.7609375 L86.4304693,89.7609375 C86.4318967,84.4480268 83.5972108,79.5384167 78.9952829,76.8833684 C74.393355,74.2283201 68.7241659,74.2316824 64.1253906,76.8921875 Z" id="Shape"></path>
                <path d="M66.7761719,41.3671875 C65.9495797,42.1468067 64.8537907,42.5770053 63.7175781,42.5679688 L56.4222656,42.5679688 L56.4222656,44.6863281 C56.4272531,47.4923761 55.7918535,50.2625631 54.5644531,52.7859375 L62.6640625,60.715625 C63.4159738,61.55455 63.8209193,62.6479028 63.796875,63.7742188 C63.8160979,66.1193193 61.9499886,68.045951 59.6054688,68.1015625 C58.4694735,68.1094272 57.3741052,67.6793937 56.546875,66.9007813 L49.3875,59.6054688 C45.9789621,62.3909614 41.7021467,63.8940596 37.3003906,63.8535156 L37.3003906,31.4097656 C37.3158129,30.982917 37.1465665,30.5701207 36.8359375,30.2769531 C36.5394843,29.9711437 36.1289303,29.8028166 35.703125,29.8125 L32.5199219,29.8125 C32.0941165,29.8028166 31.6835626,29.9711437 31.3871094,30.2769531 C31.0764804,30.5701207 30.907234,30.982917 30.9226563,31.4097656 L30.9226563,63.8082031 C26.5209002,63.8487471 22.2440848,62.3456489 18.8355469,59.5601563 L11.6875,66.8554688 C10.8673998,67.6506234 9.77119187,68.0972267 8.62890625,68.1015625 C6.29300912,68.0770366 4.40538525,66.1894128 4.38085938,63.8535156 C4.35681509,62.7271997 4.76176057,61.6338469 5.51367188,60.7949219 L13.6132813,52.8652344 C12.3858808,50.34186 11.7504813,47.5716729 11.7554688,44.765625 L11.7554688,42.5679688 L4.51679688,42.5679688 C3.38058433,42.5770053 2.28479526,42.1468067 1.45820313,41.3671875 C0.595778973,40.620275 0.11011336,39.5285652 0.1328125,38.3878906 C0.112347716,37.2386039 0.567338825,36.1318688 1.39023438,35.3292969 C2.17956913,34.5335339 3.26022585,34.0955404 4.38085938,34.1171875 L11.8121094,34.1171875 L11.8121094,26.1875 L5.5703125,20.1269531 C4.82109534,19.2909077 4.41634089,18.2021182 4.4375,17.0796875 C4.42638425,15.9520839 4.88137882,14.8699346 5.69492188,14.0890625 C6.46295115,13.2908627 7.52122413,12.8373171 8.62890625,12.8316406 C9.75483999,12.8098612 10.8473897,13.2145092 11.6875,13.9644531 L18.846875,21.2710938 L49.4328125,21.2710938 L56.5921875,13.9644531 C57.4322978,13.2145092 58.5248475,12.8098612 59.6507813,12.8316406 C61.9864726,12.8809537 63.8540361,14.7887882 63.8535156,17.125 C63.8746747,18.2474307 63.4699203,19.3362202 62.7207031,20.1722656 L56.4222656,26.1875 L56.4222656,34.1171875 L63.8535156,34.1171875 C64.9808539,34.1074198 66.0624909,34.562199 66.8441406,35.3746094 C67.6648923,36.1879375 68.1189196,37.3005089 68.1015625,38.4558594 C68.1134643,39.5748545 67.6279277,40.6413751 66.7761719,41.3671875 Z M26.8105469,2.08125 C24.543757,3.37403333 22.6658302,5.25196014 21.3730469,7.51875 C20.0620808,9.77502036 19.3776784,12.3405517 19.3904447,14.95 L49.115625,14.95 C49.1123799,9.64167794 46.2803505,4.73743198 41.684375,2.08125 C37.0830235,-0.578042328 31.4118983,-0.578042328 26.8105469,2.08125 Z" id="Shape"></path>
                <path d="M141.541797,41.4238281 C140.702872,42.1757394 139.609519,42.5806849 138.483203,42.5566406 L131.187891,42.5566406 L131.187891,44.6863281 C131.192749,47.4887317 130.557312,50.2552075 129.330078,52.7746094 L137.429688,60.7042969 C138.179631,61.5444072 138.584279,62.6369569 138.5625,63.7628906 C138.587958,66.1123842 136.720066,68.0459044 134.371094,68.1015625 C133.24516,68.1233419 132.15261,67.7186939 131.3125,66.96875 L124.153125,59.6621094 C120.744587,62.447602 116.467772,63.9507002 112.066016,63.9101562 L112.066016,31.4664062 C112.077096,31.0403434 111.908547,30.62925 111.601563,30.3335937 C111.305109,30.0277843 110.894555,29.8594572 110.46875,29.8691406 L107.285547,29.8691406 C106.859742,29.8594572 106.449188,30.0277843 106.152734,30.3335937 C105.84575,30.62925 105.677201,31.0403434 105.688281,31.4664062 L105.688281,63.8535156 C101.290406,63.891406 97.0180379,62.3884622 93.6125,59.6054687 L86.453125,66.96875 C85.6130147,67.7186939 84.520465,68.1233419 83.3945313,68.1015625 C81.0586341,68.0770366 79.1710102,66.1894128 79.1464844,63.8535156 C79.124705,62.7275819 79.529353,61.6350322 80.2792969,60.7949219 L88.3789063,52.8652344 C87.151672,50.3458325 86.5162349,47.5793567 86.5210938,44.7769531 L86.5210938,42.6132812 L79.2824219,42.6132812 C78.1561059,42.6373255 77.0627531,42.2323801 76.2238281,41.4804687 C75.3480563,40.7143971 74.8616898,39.5961699 74.8984375,38.4332031 C74.8793228,37.284171 75.3341026,36.1779498 76.1558594,35.3746094 C76.9375091,34.562199 78.0191461,34.1074198 79.1464844,34.1171875 L86.5777344,34.1171875 L86.5777344,26.2894531 L80.3359375,20.1835937 C79.5859936,19.3434835 79.1813456,18.2509337 79.203125,17.125 C79.2276509,14.7891029 81.1152747,12.901479 83.4511719,12.8769531 C84.58476,12.8706325 85.6782805,13.2958905 86.5097656,14.0664062 L93.6691406,21.3730469 L124.255078,21.3730469 L131.414453,14.0664062 C132.245938,13.2958905 133.339459,12.8706325 134.473047,12.8769531 C136.76904,12.9556396 138.596242,14.8277731 138.619141,17.125 C138.64092,18.2509337 138.236272,19.3434835 137.486328,20.1835937 L131.244531,26.2894531 L131.244531,34.1171875 L138.675781,34.1171875 C139.80312,34.1074198 140.884757,34.562199 141.666406,35.3746094 C142.476809,36.2091051 142.910655,37.3387403 142.867188,38.5011719 C142.877752,39.6231208 142.392767,40.6925751 141.541797,41.4238281 Z M101.576172,2.1265625 C99.309382,3.41934583 97.4314552,5.29727264 96.1386719,7.5640625 C94.8277058,9.82033286 94.1433034,12.3858642 94.1560697,14.9953125 L123.892578,14.9953125 C123.886325,6.78514831 117.228917,0.132810119 109.01875,0.1328125 C106.404916,0.125120337 103.836132,0.813257364 101.576172,2.1265625 Z" id="Shape"></path>
            </g>
        </g>
    </g>
</svg>