<?xml version="1.0" encoding="UTF-8"?>
<svg width="250px" height="250px" viewBox="0 0 250 250" version="1.1" xmlns="http://www.w3.org/2000/svg" xmlns:xlink="http://www.w3.org/1999/xlink">
    <!-- Generator: Sketch 48.2 (47327) - http://www.bohemiancoding.com/sketch -->
    <title>Images/Hazards/Landslide</title>
    <desc>Created with Sketch.</desc>
    <defs></defs>
    <g id="Library-Symbols" stroke="none" stroke-width="1" fill="none" fill-rule="evenodd">
        <g id="Images/Hazards/Landslide">
            <circle id="Oval-2" fill="#F2F2F2" cx="125" cy="125" r="125"></circle>
            <g id="Group" transform="translate(53.000000, 53.000000)" fill-rule="nonzero">
                <path d="M2.13052346e-05,5.8823345 C-0.00541246936,3.86244803 1.02886106,1.9818261 2.73772567,0.904360386 C4.44659028,-0.173105327 6.58967584,-0.295857728 8.41043654,0.579436879 C15.2331126,3.93832214 21.9752513,7.28570437 28.6368524,10.7136078 C29.5614725,11.159762 30.2814182,11.9412593 30.6502897,12.8991838 C31.7317932,17.5003965 34.8267339,32.2242771 35.3329696,34.9850047 C35.9887749,38.5394415 56.1691693,47.0861941 63.4060382,50.5946188 C65.4876572,51.6048391 66.7906515,53.7341305 66.7425915,56.0470558 C66.6505486,62.895194 66.4511224,69.7394979 66.1443129,76.5799674 C65.8948781,78.1156752 66.6733901,79.6350983 68.0657074,80.3299557 C72.9439783,83.0791803 77.6496689,86.0814716 82.596972,88.761678 C85.2492127,90.096998 87.0240911,92.7065859 87.2911573,95.663497 C87.7513715,98.4242246 88.6257786,101.092928 89.3160999,103.807643 C89.3955018,104.415757 89.7320887,104.96057 90.2404259,105.303793 C90.7487631,105.647016 91.3799729,105.755649 91.9738372,105.602116 C93.3314692,105.452577 105.504136,106.33831 109.726601,109.329099 C118.090995,115.276166 122.532063,120.83213 131.069037,126.514628 C133.876344,128.378119 138.098809,131.230871 142.378802,134.141138 C144.540669,135.596629 145.500223,138.291647 144.744514,140.785514 C143.988804,143.27938 141.694581,144.988814 139.08827,145 L5.92527964,145 C4.35180796,145.000003 2.8429491,144.374284 1.73141628,143.260818 C0.619883469,142.147352 -0.00303397959,140.637586 2.13052346e-05,139.064436 L2.13052346e-05,5.8823345 Z" id="Shape" fill="#C9C9C3"></path>
                <path d="M80.5474222,33.1645191 C76.3637726,33.1645191 72.1686294,33.1645191 67.9849798,33.1645191 C66.3717783,33.3102584 64.8164975,32.5197634 63.9737333,31.1257423 C60.9164509,26.7585898 57.6292976,22.5651967 54.3881185,18.3833875 C53.2387642,16.9006407 53.0893482,15.9044203 54.8823409,14.6533527 C59.1119647,11.7110271 63.1232112,8.46751863 67.3183543,5.47885723 C68.157518,4.88635905 69.1889258,4.63786784 70.2032336,4.78381969 C73.938635,5.66420057 77.6050752,6.79942855 81.3059961,7.81881693 C85.305749,8.97721283 89.2825149,10.1356087 93.3397355,11.0623254 C95.6384441,11.5836036 96.4429921,12.5682401 96.1326664,15.40631 C95.6097279,20.137238 95.6097279,24.9120676 96.1326664,29.6429956 C96.4314986,32.330474 95.9717568,33.2456068 93.8339579,33.199271 C89.4089438,33.1181833 84.9724363,33.199271 80.5359287,33.199271 L80.5474222,33.1645191 Z" id="Shape" fill="#7E7E71"></path>
                <path d="M96.0475297,52.1728972 C100.913471,56.0316403 105.535534,59.6728281 110.111145,63.3712673 C110.663332,63.8107908 111.024679,64.4414413 111.121495,65.1346098 C111.121495,69.4628142 111.121495,73.8024689 111.005363,78.1306733 C111.005363,78.4169302 110.773099,78.7031871 110.494381,79.2757009 C107.242678,77.7070131 104.072268,76.1955766 100.936697,74.6955905 C97.8011266,73.1956043 94.5494237,71.4208115 91.3209473,69.8521236 C90.5231728,69.469539 89.9122398,68.7901276 89.6225718,67.9633806 C89.3329039,67.1366335 89.3882342,66.2302879 89.7763884,65.4437673 C91.8899953,61.1499137 93.8642435,56.8102591 96.0475297,52.1728972 Z" id="Shape" fill="#7E7E71"></path>
                <path d="M138.901869,103.793162 C136.467771,106.902249 134.159378,109.988134 131.67957,112.911603 C130.948313,113.27227 130.086202,113.22851 129.394032,112.795593 C126.479971,110.150549 123.680187,107.377893 120.948969,104.52403 C120.538455,103.862879 120.495195,103.032863 120.834692,102.331428 C122.62884,100.498459 124.60583,98.8511068 126.548537,97.1805527 C126.91498,96.9013422 127.391791,96.8192273 127.828438,96.9601324 C131.153896,98.8279046 134.44507,100.753682 137.736245,102.691061 C138.157474,103.021103 138.547682,103.390046 138.901869,103.793162 Z" id="Shape" fill="#7E7E71"></path>
            </g>
        </g>
    </g>
</svg>