<?xml version="1.0" encoding="UTF-8"?>
<svg width="250px" height="250px" viewBox="0 0 250 250" version="1.1" xmlns="http://www.w3.org/2000/svg" xmlns:xlink="http://www.w3.org/1999/xlink">
    <!-- Generator: Sketch 48.2 (47327) - http://www.bohemiancoding.com/sketch -->
    <title>Images/Hazards/Lightning and Thunderstorms</title>
    <desc>Created with Sketch.</desc>
    <defs></defs>
    <g id="Library-Symbols" stroke="none" stroke-width="1" fill="none" fill-rule="evenodd">
        <g id="Images/Hazards/Lightning-and-Thunderstorms">
            <circle id="Oval-2" fill="#F8F1D4" cx="125" cy="125" r="125"></circle>
            <g id="lightning-thunderstorm" transform="translate(51.000000, 56.000000)" fill-rule="nonzero">
                <path d="M106.275086,92.4224138 C108.047574,92.3469714 109.706776,93.2929189 110.544741,94.8566379 C111.495487,96.3496216 111.495487,98.258137 110.544741,99.7511207 L74.7082759,161.687155 C73.8770304,163.082059 72.4185484,163.984757 70.7993203,164.106523 C69.1800922,164.228289 67.6030107,163.553866 66.5725,162.298966 C65.6235667,161.087611 65.3181238,159.49252 65.7524138,158.016293 L75.1248276,118.521983 L50.8867241,118.521983 C49.4847155,118.557637 48.1412015,117.959988 47.2288793,116.894828 C46.2779254,115.829905 45.8320264,114.406823 46.0052586,112.989655 L52.5138793,64.122931 C52.6429162,62.9326885 53.2313925,61.8398039 54.1540517,61.0768966 C55.0492963,60.279156 56.2093012,59.8429942 57.4083621,59.8532759 L85.0960345,59.8532759 C86.6427103,59.7944873 88.1134485,60.524954 89.0012069,61.7928448 C89.9278962,62.9689697 90.233007,64.518739 89.8212931,65.9583621 L82.857069,92.4224138 L106.275086,92.4224138 Z" id="Shape" fill="#F2C706"></path>
                <path d="M142.788448,51.4962069 C138.824318,45.7958912 133.140959,41.5128457 126.568966,39.2730172 C126.205765,32.6971082 123.252355,26.5328603 118.355086,22.1293103 C113.566658,17.5367053 107.168949,15.0037921 100.534483,15.0739655 C98.8185533,15.0749673 97.1062609,15.2318185 95.4187069,15.5425862 C91.5185864,10.8774185 86.6911903,7.07401545 81.242931,4.3737931 C66.9040507,-2.67463658 49.7727761,-0.722006891 37.3878448,9.37241379 C30.0280257,15.2327674 25.0312191,23.5530745 23.3162069,32.8034483 C9.27465912,38.4534259 0.0666860022,52.0593906 0.0413793103,67.195 C0.00394841501,73.7381348 1.73554106,80.1697646 5.05301724,85.8096552 C8.30663142,91.4690029 12.9998014,96.1666639 18.6560345,99.4256897 C24.2999775,102.732027 30.7296818,104.458605 37.2706897,104.42431 L37.9606034,104.42431 L39.444569,93.2555172 L37.2706897,93.2555172 C22.8922419,93.2555172 11.2362069,81.5994823 11.2362069,67.2210345 C11.1447801,60.913991 13.4206193,54.8017373 17.6146552,50.0903448 C21.6728437,45.3232028 27.3451063,42.2182878 33.5477586,41.3687931 L33.5477586,41.1344828 C33.4937465,35.8735255 34.8416517,30.6930764 37.452931,26.1256034 C40.0312,21.620965 43.7656202,17.8865448 48.2702586,15.3082759 C52.8377315,12.6969965 58.0181807,11.3490913 63.2791379,11.4031034 C75.3309957,11.3196229 86.2214238,18.5764723 90.784569,29.7313793 C93.5119787,27.438581 96.9716303,26.2006816 100.534483,26.2427586 C104.503444,26.1862456 108.326779,27.736184 111.135993,30.5404955 C113.945207,33.3448069 115.501822,37.1654289 115.452241,41.1344828 C115.449956,43.7617029 114.724906,46.3376544 113.356466,48.5803448 L115.452241,48.5803448 C121.38184,48.5629915 127.073581,50.910836 131.266459,55.1037137 C135.459336,59.2965913 137.807181,64.988332 137.789828,70.917931 C137.829702,81.6862099 130.155628,90.9389508 119.56569,92.8910345 C120.900393,96.6644174 120.495234,100.835178 118.459224,104.281121 C123.31167,103.876395 128.008186,102.371729 132.192414,99.8812931 C137.242859,96.9265043 141.447797,92.7215661 144.402586,87.6711207 C147.419263,82.6067362 148.990497,76.8125315 148.945603,70.917931 C149.004884,63.9548696 146.848623,57.1533019 142.788448,51.4962069 Z" id="Shape" fill="#F6E286"></path>
            </g>
        </g>
    </g>
</svg>