<?xml version="1.0" encoding="UTF-8"?>
<svg width="250px" height="250px" viewBox="0 0 250 250" version="1.1" xmlns="http://www.w3.org/2000/svg" xmlns:xlink="http://www.w3.org/1999/xlink">
    <!-- Generator: Sketch 48.2 (47327) - http://www.bohemiancoding.com/sketch -->
    <title>Images/Hazards/Monsoon</title>
    <desc>Created with Sketch.</desc>
    <defs></defs>
    <g id="Library-Symbols" stroke="none" stroke-width="1" fill="none" fill-rule="evenodd">
        <g id="Images/Hazards/Monsoon">
            <circle id="Oval-2" fill="#EFF9F8" cx="125" cy="125" r="125"></circle>
            <g id="monsoon" transform="translate(52.000000, 53.000000)" fill-rule="nonzero">
                <path d="M17.9914961,132.699213 C15.7242151,131.380007 13.8385759,129.494368 12.5193701,127.227087 C11.1751976,124.950972 10.475772,122.351971 10.496063,119.708661 C10.5105777,117.461107 11.0291378,115.245441 12.0135433,113.224882 C13.0609289,111.222757 14.2559937,109.301431 15.5888189,107.47685 C17.3592126,104.947717 18.6812598,102.878425 19.5894488,101.418425 C21.0431225,98.8882269 22.1710186,96.1843662 22.9462992,93.3711811 C23.1830583,92.6402316 23.7174403,92.0432267 24.4177953,91.7272441 C25.1032408,91.4284715 25.8821135,91.4284715 26.5675591,91.7272441 C27.2767405,92.0178791 27.8057882,92.6279905 27.9930709,93.3711811 C28.8335974,96.163201 29.9624622,98.8601475 31.3614173,101.418425 C32.2581102,102.951234 33.5878215,104.959213 35.3505512,107.442362 C36.688403,109.235341 37.8838147,111.130318 38.9258268,113.109921 C41.1160591,117.554804 40.9260073,122.802825 38.42,127.077638 C37.1052433,129.344447 35.223409,131.230243 32.9593701,132.549764 C28.3354075,135.21941 22.6384507,135.21941 18.0144882,132.549764 L17.9914961,132.699213 Z" id="Shape" fill="#000000"></path>
                <path d="M17.9914961,132.699213 C15.7242151,131.380007 13.8385759,129.494368 12.5193701,127.227087 C11.1751976,124.950972 10.475772,122.351971 10.496063,119.708661 C10.5105777,117.461107 11.0291378,115.245441 12.0135433,113.224882 C13.0609289,111.222757 14.2559937,109.301431 15.5888189,107.47685 C17.3592126,104.947717 18.6812598,102.878425 19.5894488,101.418425 C21.0431225,98.8882269 22.1710186,96.1843662 22.9462992,93.3711811 C23.1830583,92.6402316 23.7174403,92.0432267 24.4177953,91.7272441 C25.1032408,91.4284715 25.8821135,91.4284715 26.5675591,91.7272441 C27.2767405,92.0178791 27.8057882,92.6279905 27.9930709,93.3711811 C28.8335974,96.163201 29.9624622,98.8601475 31.3614173,101.418425 C32.2581102,102.951234 33.5878215,104.959213 35.3505512,107.442362 C36.688403,109.235341 37.8838147,111.130318 38.9258268,113.109921 C41.1160591,117.554804 40.9260073,122.802825 38.42,127.077638 C37.1052433,129.344447 35.223409,131.230243 32.9593701,132.549764 C28.3354075,135.21941 22.6384507,135.21941 18.0144882,132.549764 L17.9914961,132.699213 Z" id="Shape" fill="#46B6AE"></path>
                <path d="M65.0218898,142.367402 C62.7605309,141.06974 60.8779978,139.20306 59.5612598,136.952756 C58.2216465,134.683122 57.5224093,132.092766 57.5379528,129.457323 C57.5514446,127.213328 58.0701014,125.001178 59.0554331,122.985039 C60.0983562,120.980368 61.293626,119.058712 62.6307087,117.237008 C64.3934383,114.707874 65.7231496,112.688399 66.6198425,111.178583 C68.0754882,108.668241 69.2072788,105.983618 69.988189,103.188819 C70.2064636,102.455826 70.7301621,101.852525 71.4251969,101.533386 C72.1081782,101.223018 72.8919793,101.223018 73.5749606,101.533386 C74.2841421,101.824021 74.8131898,102.434132 75.0004724,103.177323 C75.840999,105.969343 76.9698638,108.666289 78.3688189,111.224567 C79.2655118,112.742047 80.5875591,114.742362 82.3579528,117.237008 C83.6923362,119.036393 84.8875599,120.934916 85.9332283,122.916063 C88.1589334,127.373827 87.9816189,132.654339 85.4618898,136.952756 C84.1515159,139.219933 82.2684373,141.103012 80.0012598,142.413386 C75.3811419,145.097342 69.6764959,145.097342 65.056378,142.413386 L65.0218898,142.367402 Z" id="Shape" fill="#000000"></path>
                <path d="M65.0218898,142.367402 C62.7605309,141.06974 60.8779978,139.20306 59.5612598,136.952756 C58.2216465,134.683122 57.5224093,132.092766 57.5379528,129.457323 C57.5514446,127.213328 58.0701014,125.001178 59.0554331,122.985039 C60.0983562,120.980368 61.293626,119.058712 62.6307087,117.237008 C64.3934383,114.707874 65.7231496,112.688399 66.6198425,111.178583 C68.0754882,108.668241 69.2072788,105.983618 69.988189,103.188819 C70.2064636,102.455826 70.7301621,101.852525 71.4251969,101.533386 C72.1081782,101.223018 72.8919793,101.223018 73.5749606,101.533386 C74.2841421,101.824021 74.8131898,102.434132 75.0004724,103.177323 C75.840999,105.969343 76.9698638,108.666289 78.3688189,111.224567 C79.2655118,112.742047 80.5875591,114.742362 82.3579528,117.237008 C83.6923362,119.036393 84.8875599,120.934916 85.9332283,122.916063 C88.1589334,127.373827 87.9816189,132.654339 85.4618898,136.952756 C84.1515159,139.219933 82.2684373,141.103012 80.0012598,142.413386 C75.3811419,145.097342 69.6764959,145.097342 65.056378,142.413386 L65.0218898,142.367402 Z" id="Shape" fill="#46B6AE"></path>
                <path d="M54.3420472,21.5552756 L64.5275591,21.5552756 C64.7114961,20.5551181 64.7919685,19.807874 64.9874016,19.0951181 C66.2857926,13.2888659 72.0452439,9.63452238 77.8514961,10.9329134 C83.6577483,12.2313044 87.3120918,17.9907557 86.0137008,23.7970079 C84.9905512,29.0622047 80.4840945,32.3385827 74.0233071,32.3385827 C54.3497113,32.3385827 34.6837795,32.3385827 15.0255118,32.3385827 L11.2892913,32.3385827 L11.2892913,43.0184252 C33.2467717,43.0184252 54.9743307,43.2598425 76.6214173,42.8919685 C85.5308661,42.7770079 92.1181102,37.7877165 95.3714961,29.4645669 C98.6248819,21.1414173 96.9234646,13.1976378 90.6925984,6.56440945 C84.5176938,0.218837223 75.0587112,-1.63999479 66.9417323,1.89700787 C59.0928595,5.22810917 54.0907541,13.032489 54.3420472,21.5552756 Z" id="Shape" fill="#FFFFFF"></path>
                <path d="M141.551181,55.0777953 C137.950981,60.9987499 131.500813,64.5884845 124.571496,64.5275591 C87.508189,64.6080315 16.5085039,64.5275591 2.59826772,64.5275591 C1.93783631,64.5373643 1.30222789,64.2761484 0.839545543,63.8047772 C0.376863192,63.3334059 0.127516709,62.6930481 0.149606299,62.0329134 L0.149606299,56.5377953 C0.149546518,55.207063 1.22161094,54.1247396 2.55228346,54.112126 C16.4625197,54.112126 86.6919685,53.9856693 122.34126,53.9856693 C128.376693,53.9856693 132.687717,51.203622 134.124724,46.3637795 C135.686687,40.8777983 132.706117,35.1243219 127.323814,33.2357947 C121.941512,31.3472675 116.019459,33.9770167 113.811181,39.2362205 C113.577936,39.8952215 113.382189,40.5669001 113.224882,41.2480315 C112.985262,42.3299525 112.033686,43.1054865 110.925669,43.1218898 L105.177638,43.1218898 C104.519131,43.1221535 103.888542,42.8559347 103.429449,42.3838488 C102.970356,41.9117629 102.721835,41.2739911 102.740472,40.615748 C102.947402,34.6377953 107.074488,27.9700787 112.88,24.6362205 C118.571147,21.2662555 125.495813,20.7004251 131.658548,23.1017821 C137.821283,25.5031391 142.537516,30.6049352 144.448189,36.9370079 C146.356535,42.9494488 144.597638,50.651811 141.551181,55.0777953 Z" id="Shape" fill="#9FE0DC"></path>
                <path d="M57.6299213,21.5552756 C56.7221595,21.562295 55.8555029,21.1773375 55.2521274,20.4990907 C54.648752,19.8208438 54.3673275,18.9152577 54.48,18.0144882 C55.5702429,10.8622574 60.2723874,4.77815169 66.9187402,1.92 C75.0373265,-1.63348705 84.508281,0.216738112 90.6925984,6.56440945 C96.9234646,13.1976378 98.7398425,20.9689764 95.3714961,29.4645669 C92.0031496,37.9601575 85.5308661,42.7770079 76.6214173,42.9264567 C55.9859843,43.2828346 35.3275591,43.0759055 14.4622047,43.0529134 C12.7143327,43.0529249 11.2956242,41.6393566 11.2892913,39.8914961 L11.2892913,35.5459843 C11.2800954,34.7005048 11.6087409,33.8863253 12.2022882,33.2841446 C12.7958355,32.6819639 13.6051846,32.3415962 14.4507087,32.3385827 C24.7971654,32.3385827 57.3425197,32.3385827 74.0233071,32.3385827 C80.4840945,32.3385827 84.9905512,29.0392126 85.9562205,23.7740157 C87.2546114,17.9677636 83.6002679,12.2083124 77.7940157,10.9099214 C71.9877636,9.61153042 66.2283123,13.2658739 64.9299213,19.072126 C64.582388,20.494299 63.3129568,21.498476 61.8489764,21.5092913 L57.6299213,21.5092913 L57.6299213,21.5552756 Z" id="Shape" fill="#9FE0DC"></path>
                <path d="M94.7966929,91.6697638 L100.165354,91.6697638 C101.227199,91.6569254 102.190927,92.2888036 102.60252,93.2677165 C103.336856,95.7149115 105.770813,97.2392081 108.293071,96.8314961 C110.900583,96.8193568 113.020194,94.7252834 113.063937,92.1181102 C113.351339,89.152126 111.914331,86.9218898 109.132283,86.3700787 C107.752838,86.1493926 106.35548,86.0608548 104.959213,86.1056693 L35.2815748,86.1056693 C34.578321,86.1056759 33.9040371,85.825525 33.4078414,85.3271719 C32.9116457,84.8288188 32.6344227,84.1533259 32.6374803,83.4500787 L32.6374803,78.3228346 C32.6310954,76.8733433 33.7976363,75.6913855 35.2470866,75.6787402 C45.9269291,75.5637795 86.4620472,75.3913386 107.580315,75.471811 C114.213543,75.471811 119.455748,78.3688189 122.295276,84.599685 C125.18114,90.3453373 124.269984,97.2701256 119.996063,102.073701 C115.657734,107.095871 108.672715,108.924411 102.430079,106.672126 C97.1019378,104.854392 93.1544757,100.323583 92.083622,94.7966929 C91.9356584,94.0042078 92.1573242,93.1875139 92.6856569,92.5785881 C93.2139895,91.9696624 93.9912613,91.6350383 94.7966929,91.6697638 Z" id="Shape" fill="#9FE0DC"></path>
            </g>
        </g>
    </g>
</svg>