<?xml version="1.0" encoding="UTF-8"?>
<svg width="250px" height="250px" viewBox="0 0 250 250" version="1.1" xmlns="http://www.w3.org/2000/svg" xmlns:xlink="http://www.w3.org/1999/xlink">
    <!-- Generator: Sketch 48.2 (47327) - http://www.bohemiancoding.com/sketch -->
    <title>Images/Hazards/Permanent inundation</title>
    <desc>Created with Sketch.</desc>
    <defs></defs>
    <g id="Library-Symbols" stroke="none" stroke-width="1" fill="none" fill-rule="evenodd">
        <g id="Images/Hazards/Permanent-inundation">
            <circle id="Oval-2" fill="#BFEFE9" cx="125" cy="125" r="125"></circle>
            <g id="permanent-inundation" transform="translate(53.000000, 62.000000)" fill="#15514B" fill-rule="nonzero">
                <path d="M58.9974861,47.0977397 L65.5527971,47.0977397 C66.641368,47.0915013 67.5222883,46.2105809 67.5285267,45.12201 L67.5285267,38.566699 C67.5315878,38.0447994 67.3256175,37.5433892 66.9565724,37.1743441 C66.5875273,36.805299 66.0861171,36.5993287 65.5642175,36.6023898 L58.9974861,36.6023898 C58.4745342,36.602381 57.9731659,36.8109013 57.6044564,37.1817545 C57.2357469,37.5526077 57.0301365,38.0551763 57.0331769,38.5781194 L57.0331769,45.1334304 C57.0301158,45.65533 57.2360861,46.1567403 57.6051312,46.5257854 C57.9741763,46.8948304 58.4755865,47.1008007 58.9974861,47.0977397 Z" id="Shape"></path>
                <path d="M86.5434968,52.328284 L79.9881858,52.328284 C79.4662862,52.3252229 78.964876,52.5311932 78.5958309,52.9002383 C78.2267858,53.2692834 78.0208155,53.7706936 78.0238766,54.2925932 L78.0238766,60.8479042 C78.0208155,61.3698038 78.2267858,61.871214 78.5958309,62.2402591 C78.964876,62.6093042 79.4662862,62.8152745 79.9881858,62.8122134 L86.5434968,62.8122134 C87.0653964,62.8152745 87.5668066,62.6093042 87.9358517,62.2402591 C88.3048968,61.871214 88.5108671,61.3698038 88.507806,60.8479042 L88.507806,54.2925932 C88.5108671,53.7706936 88.3048968,53.2692834 87.9358517,52.9002383 C87.5668066,52.5311932 87.0653964,52.3252229 86.5434968,52.328284 Z" id="Shape"></path>
                <path d="M78.5834763,46.5152991 C78.9521774,46.8853232 79.4544295,47.0911642 79.9767654,47.0863193 L86.5434968,47.0863193 C87.0653964,47.0893803 87.5668066,46.88341 87.9358517,46.514365 C88.3048968,46.1453199 88.5108671,45.6439096 88.507806,45.12201 L88.507806,38.5552786 C88.5201639,38.0244551 88.3171026,37.5112388 87.9448931,37.1325748 C87.5726837,36.7539108 87.0630339,36.542057 86.5320764,36.5452878 L79.9767654,36.5452878 C79.4529042,36.5323364 78.9475749,36.7394386 78.5834763,37.1163079 C78.2100964,37.4827623 78.0036439,37.9865065 78.0124562,38.509597 L78.0124562,45.064908 C77.9875237,45.6076357 78.1952404,46.1352361 78.5834763,46.5152991 Z" id="Shape"></path>
                <path d="M59.0089065,62.8122134 L65.5642175,62.8122134 C66.0871695,62.8122222 66.5885378,62.6037019 66.9572472,62.2328487 C67.3259567,61.8619956 67.5315671,61.3594269 67.5285267,60.8364838 L67.5285267,54.3040136 C67.5315878,53.782114 67.3256175,53.2807038 66.9565724,52.9116587 C66.5875273,52.5426136 66.0861171,52.3366433 65.5642175,52.3397044 L58.9974861,52.3397044 C58.4745342,52.3396955 57.9731659,52.5482159 57.6044564,52.9190691 C57.2357469,53.2899222 57.0301365,53.7924909 57.0331769,54.315434 L57.0331769,60.870745 C57.0300326,61.3950045 57.2402954,61.8979859 57.6156174,62.2640341 C57.9859077,62.6290425 58.48917,62.8270473 59.0089065,62.8122134 Z" id="Shape"></path>
                <path d="M87.9367859,68.6366187 C87.5703315,68.2632388 87.0665873,68.0567862 86.5434968,68.0655985 L79.9881858,68.0655985 C79.4652338,68.0655897 78.9638655,68.2741101 78.5951561,68.6449632 C78.2264466,69.0158164 78.0208362,69.518385 78.0238766,70.0413282 L78.0238766,76.5966392 C78.0238677,77.1195911 78.2323881,77.6209594 78.6032413,77.9896689 C78.9740944,78.3583784 79.4766631,78.5639888 79.9996062,78.5609484 L86.5549172,78.5609484 C87.0768168,78.5640094 87.578227,78.3580392 87.9472721,77.9889941 C88.3163172,77.619949 88.5222875,77.1185387 88.5192264,76.5966392 L88.5192264,70.0299078 C88.5250486,69.505123 88.314363,69.00113 87.9367859,68.6366187 Z" id="Shape"></path>
                <path d="M141.566996,2.12419485 L139.077348,4.56816098 C131.908062,11.5278192 120.505047,11.5278192 113.335761,4.56816098 L109.315779,0.639542537 C108.717694,0.0593381631 107.766828,0.0593381631 107.168744,0.639542537 L103.057399,4.56816098 C95.8823999,11.5574341 84.4451288,11.5574341 77.27013,4.56816098 L73.2501484,0.639542537 C72.6520635,0.0593381631 71.7011976,0.0593381631 71.1031127,0.639542537 L67.1288126,4.56816098 C59.9595265,11.5278192 48.5565117,11.5278192 41.3872255,4.56816098 L37.3672439,0.639542537 C36.769159,0.0593381631 35.8182931,0.0593381631 35.2202082,0.639542537 L31.1088634,4.56816098 C23.9395772,11.5278192 12.5365624,11.5278192 5.36727626,4.56816098 L2.87762853,2.12419485 C2.43148698,1.68433425 1.76229499,1.56083987 1.18854098,1.81248637 C0.614786965,2.06413286 0.252370653,2.64008703 0.273776771,3.2662351 L0.273776771,120.211156 C0.273770357,123.303593 2.77734362,125.812275 5.86977397,125.818574 L138.57485,125.818574 C141.667281,125.812275 144.170854,123.303593 144.170847,120.211156 L144.170847,3.22055349 C144.173163,2.60275142 143.803773,2.04415198 143.234381,1.80440788 C142.664989,1.56466377 142.007288,1.69080393 141.566996,2.12419485 Z M36.0767052,110.058418 L36.0767384,106.780763 C36.073698,106.25782 36.2793084,105.755251 36.6480179,105.384398 C37.0167274,105.013545 37.5180957,104.805024 38.0410476,104.805033 L41.3187031,104.805033 L41.3187031,30.0584992 C41.3187031,29.0135359 41.7338132,28.0113717 42.4727138,27.272471 C43.2116144,26.5335704 44.2137787,26.1184604 45.258742,26.1184604 L100.339343,26.1184604 C101.384765,26.1048447 102.390739,26.5171291 103.125921,27.2605006 C103.873825,27.9926396 104.286941,29.0006432 104.267961,30.0470788 L104.267961,104.805033 L107.545617,104.805033 C108.069739,104.790662 108.575618,104.99799 108.938906,105.376053 C109.315348,105.741339 109.52582,106.244821 109.521346,106.769342 L109.521346,110.046998 L36.0767052,110.058418 Z" id="Shape"></path>
                <path d="M66.9575066,68.6480391 C66.5910523,68.2746592 66.087308,68.0682066 65.5642175,68.0770189 L59.0089065,68.0770189 C58.4833193,68.0670347 57.9777303,68.2783875 57.6156174,68.6594595 C57.2422376,69.0259138 57.035785,69.5296581 57.0445973,70.0527486 L57.0445973,76.6080596 C57.0415362,77.1299591 57.2475065,77.6313694 57.6165516,78.0004145 C57.9855967,78.3694596 58.4870069,78.5754298 59.0089065,78.5723688 L65.5756379,78.5723688 C66.0985899,78.5723776 66.5999582,78.3638572 66.9686676,77.9930041 C67.3373771,77.6221509 67.5429876,77.1195823 67.5399471,76.5966392 L67.5399471,70.0413282 C67.5430914,69.5170687 67.3328286,69.0140872 66.9575066,68.6480391 Z" id="Shape"></path>
                <path d="M77.4642769,89.6273183 C77.0955758,89.2572943 76.5933237,89.0514533 76.0709878,89.0562982 L69.5042564,89.0562982 C68.9803592,89.0531985 68.4771866,89.2607304 68.1078043,89.6322603 C67.7384219,90.0037903 67.5338104,90.5081575 67.5399471,91.0320278 L67.5399471,104.793613 L78.0238766,104.793613 L78.0238766,91.0206074 C78.0343591,90.4994427 77.8323358,89.9964459 77.4642769,89.6273183 Z" id="Shape"></path>
            </g>
        </g>
    </g>
</svg>