<?xml version="1.0" encoding="UTF-8"?>
<svg width="250px" height="250px" viewBox="0 0 250 250" version="1.1" xmlns="http://www.w3.org/2000/svg" xmlns:xlink="http://www.w3.org/1999/xlink">
    <!-- Generator: Sketch 48.2 (47327) - http://www.bohemiancoding.com/sketch -->
    <title>Images/Hazards/Reduced snowpack</title>
    <desc>Created with Sketch.</desc>
    <defs></defs>
    <g id="Library-Symbols" stroke="none" stroke-width="1" fill="none" fill-rule="evenodd">
        <g id="Images/Hazards/Reduced-snowpack">
            <circle id="Oval-2" fill="#F2F2F2" cx="125" cy="125" r="125"></circle>
            <g id="reduced-snowpack" transform="translate(38.147059, 37.000000)" fill-rule="nonzero">
                <path d="M126.769776,12.4173765 C127.129838,13.2333806 127.816858,13.8600541 128.662435,14.1437882 C129.451556,14.4241682 130.324916,14.334954 131.041047,13.9008118 L140.568282,7.97985882 C141.706589,7.21391339 143.211663,7.2813822 144.276871,8.14610588 C145.484343,8.83440061 146.023512,10.290157 145.555694,11.5989294 L142.921318,22.4433529 C142.694411,23.2743411 142.8799,24.163741 143.420059,24.8347529 C143.923726,25.5388162 144.697244,26.0020008 145.555694,26.1135765 L156.732612,26.9320235 C158.08925,26.9946157 159.2511,27.9240956 159.609965,29.2339059 C160.128738,30.5436639 159.685087,32.0383459 158.535753,32.8529765 L150.159459,39.9120824 C149.447145,40.4655936 149.023938,41.3120067 149.008518,42.2139647 C149.01831,43.1172928 149.442672,43.966016 150.159459,44.5158471 L158.535753,51.5877412 C159.689092,52.3994994 160.133662,53.897276 159.609965,55.2068118 C159.253573,56.5162705 158.088672,57.4430134 156.732612,57.4959059 L145.555694,58.3271412 C144.693533,58.4279219 143.915962,58.8935329 143.420059,59.6059647 C142.880143,60.272102 142.694461,61.1576643 142.921318,61.9845765 L145.555694,72.8417882 C146.027511,74.1469029 145.486644,75.6018353 144.276871,76.2818235 C143.214828,77.1548326 141.704178,77.2225514 140.568282,76.4480706 L131.041047,70.5399059 C130.32691,70.1015021 129.45345,70.0075817 128.662435,70.2841412 C127.821679,70.576025 127.137511,71.2000971 126.769776,72.0105529 L122.664753,82.2411412 C122.166751,83.5344472 120.923903,84.3876786 119.538029,84.3876786 C118.152155,84.3876786 116.909308,83.5344472 116.411306,82.2411412 L112.306282,72.0105529 C111.938548,71.2000971 111.25438,70.576025 110.413624,70.2841412 C109.622609,70.0075817 108.749149,70.1015021 108.035012,70.5399059 L98.4694118,76.3457647 C97.3335157,77.1202455 95.8228666,77.0525267 94.7608235,76.1795176 C93.5510502,75.4995294 93.0101831,74.044597 93.482,72.7394824 L96.1163765,61.8822706 C96.3432333,61.0553584 96.1575509,60.1697962 95.6176353,59.5036588 C95.1217319,58.791227 94.3441616,58.325616 93.482,58.2248353 L82.3050824,57.3936 C80.9490219,57.3407075 79.7841216,56.4139646 79.4277294,55.1045059 C78.9439118,53.7949227 79.4130986,52.3241014 80.5658824,51.5365882 L88.9421765,44.4646941 C89.6589632,43.914863 90.0833248,43.0661398 90.0931176,42.1628118 C90.077697,41.2608538 89.6544905,40.4144407 88.9421765,39.8609294 L80.5658824,32.8018235 C79.416548,31.987193 78.9728968,30.492511 79.4916706,29.1827529 C79.8440169,27.8541548 81.0211774,26.9103521 82.3946,26.8552941 L93.5715176,26.0368471 C94.4299676,25.9252714 95.203486,25.4620867 95.7071529,24.7580235 C96.2473114,24.0870116 96.4328013,23.1976117 96.2058941,22.3666235 L93.5715176,11.5222 C93.1037001,10.2134276 93.6428691,8.7576712 94.8503412,8.06937647 C95.9143266,7.27126327 97.367269,7.23532477 98.4694118,7.97985882 L107.996647,13.9008118 C108.712778,14.334954 109.586139,14.4241682 110.375259,14.1437882 C111.220837,13.8600541 111.907856,13.2333806 112.267918,12.4173765 L116.372941,2.18678824 C116.870943,0.893482164 118.113791,0.0402508513 119.499665,0.0402508513 C120.885539,0.0402508513 122.128386,0.893482164 122.626388,2.18678824 L126.769776,12.4173765 Z M138.841871,30.9858941 C136.858293,27.6336316 134.060816,24.8361542 130.708553,22.8525765 C123.809909,18.8109266 115.26615,18.8109266 108.367506,22.8525765 C105.015243,24.8361542 102.217766,27.6336316 100.234188,30.9858941 C96.1766516,37.8847974 96.1766516,46.4408261 100.234188,53.3397294 C102.210663,56.6974965 105.009739,59.4965724 108.367506,61.4730471 C115.261708,65.5310325 123.814351,65.5310325 130.708553,61.4730471 C134.06632,59.4965724 136.865396,56.6974965 138.841871,53.3397294 C142.899407,46.4408261 142.899407,37.8847974 138.841871,30.9858941 Z M134.276471,50.7181412 C132.775379,53.3064591 130.62413,55.4577085 128.035812,56.9588 C122.749988,60.0289561 116.223765,60.0289561 110.937941,56.9588 C108.349623,55.4577085 106.198374,53.3064591 104.697282,50.7181412 C101.627126,45.4323173 101.627126,38.9060945 104.697282,33.6202706 C106.19504,31.0293909 108.347062,28.877369 110.937941,27.3796118 C116.223765,24.3094557 122.749988,24.3094557 128.035812,27.3796118 C130.626691,28.877369 132.778713,31.0293909 134.276471,33.6202706 C137.346627,38.9060945 137.346627,45.4323173 134.276471,50.7181412 Z" id="Shape" fill="#A4A49A"></path>
                <path d="M117.8308,153.944776 L92.0752941,109.390565 L63.4680118,59.785 C62.6121707,58.2982345 61.0273339,57.3818715 59.3118353,57.3818715 C57.5963366,57.3818715 56.0114999,58.2982345 55.1556588,59.785 L0.792870588,153.944776 C-0.0607826795,155.428616 -0.0587327841,157.254982 0.798249223,158.736902 C1.65523123,160.218821 3.23717557,161.131547 4.94904706,161.131765 L113.649047,161.131765 C114.0813,161.128046 114.511215,161.067858 114.927871,160.952729 C115.530484,160.789193 116.09235,160.501727 116.577553,160.108706 C117.21297,159.598045 117.713528,158.939416 118.035412,158.190471 C118.192304,157.818173 118.299785,157.42694 118.355118,157.026741 C118.53769,155.969688 118.352646,154.881991 117.8308,153.944776 Z M69.7598235,97.5998118 L51.2936118,92.8553765 C50.4734187,92.644524 49.7988683,92.0625212 49.4701254,91.2820704 C49.1413824,90.5016196 49.1962153,89.6123846 49.6183529,88.8782353 L59.8489412,71.1921059 L72.7778471,93.6226706 C73.3196126,94.5668862 73.2440683,95.7435829 72.5860103,96.6107695 C71.9279523,97.4779561 70.8150157,97.8674354 69.7598235,97.5998118 Z" id="Shape" fill="#C9C9C3"></path>
                <path d="M148.164494,154.596976 L111.257647,90.6430118 C110.400134,89.1624868 108.818795,88.250957 107.107865,88.250957 C105.396934,88.250957 103.815595,89.1624868 102.958082,90.6430118 L95.0549529,104.275271 L122.255529,151.387129 C124.012185,154.390574 124.041401,158.10103 122.332259,161.131765 L144.391965,161.131765 C145.947229,161.129017 147.383315,160.298164 148.160897,158.951233 C148.938479,157.604303 148.939849,155.94519 148.164494,154.596976 Z M110.209012,112.229553 L104.339212,109.978824 C103.51223,109.768791 102.831446,109.183389 102.499893,108.397206 C102.16834,107.611022 102.22433,106.714905 102.651165,105.976106 L107.318871,97.8683647 L113.252612,108.252412 C113.774688,109.202877 113.686307,110.371955 113.027273,111.23313 C112.368239,112.094304 111.262879,112.485115 110.209012,112.229553 Z" id="Shape" fill="#C9C9C3"></path>
            </g>
        </g>
    </g>
</svg>