<?xml version="1.0" encoding="UTF-8"?>
<svg width="250px" height="250px" viewBox="0 0 250 250" version="1.1" xmlns="http://www.w3.org/2000/svg" xmlns:xlink="http://www.w3.org/1999/xlink">
    <!-- Generator: Sketch 48.2 (47327) - http://www.bohemiancoding.com/sketch -->
    <title>Images/Hazards/River flood</title>
    <desc>Created with Sketch.</desc>
    <defs></defs>
    <g id="Library-Symbols" stroke="none" stroke-width="1" fill="none" fill-rule="evenodd">
        <g id="Images/Hazards/River-flood">
            <circle id="Oval-2" fill="#BFEFE9" cx="125" cy="125" r="125"></circle>
            <g id="river-flood" transform="translate(52.000000, 52.000000)" fill="#4AA49B" fill-rule="nonzero">
                <path d="M4,0 L142,0 C144.209139,-4.05812251e-16 146,1.790861 146,4 L146,142 C146,144.209139 144.209139,146 142,146 L4,146 C1.790861,146 2.705415e-16,144.209139 0,142 L0,4 C-2.705415e-16,1.790861 1.790861,4.05812251e-16 4,0 Z M118.190476,98.4920635 C118.769841,96.8698413 119.221746,95.4098413 119.569365,94.0888889 C120.988372,89.285272 121.429665,84.2458664 120.867143,79.2687302 C120.103434,72.4412133 117.415026,65.9713516 113.115238,60.6131746 C108.983416,55.5258557 103.440521,51.7728117 97.1826984,49.8253968 L96.0934921,49.4661905 L95.3403175,49.292381 L93.8571429,48.9215873 L90.8328571,48.2379365 L84.7726984,46.8822222 L78.724127,45.5149206 C77.5653968,45.2484127 77.1830159,45.1673016 76.5225397,45.0630159 L76.0590476,44.9819048 C75.92,44.9819048 75.7925397,44.877619 75.6419048,44.8312698 L74.7844444,44.5415873 C72.3018452,43.5365943 70.2848581,41.6394691 69.1298413,39.2230159 C68.7846947,38.5671679 68.5015091,37.8805398 68.2839683,37.1720635 C68.1665777,36.8126392 68.0774701,36.4445863 68.0174603,36.0712698 C67.9479365,35.7004762 67.8320635,35.3180952 67.7973016,34.9125397 L67.7161905,33.7538095 L67.7161905,33.1512698 L67.7161905,32.5603175 L67.7973016,31.4015873 C67.7973016,30.9960317 67.9595238,30.6136508 68.0290476,30.2428571 C68.8614087,26.4660441 70.7973091,23.0217546 73.5909524,20.3473016 C75.7191738,18.3435314 78.1227075,16.6540345 80.7287302,15.33 C80.9541512,15.2071517 81.0599756,14.9410685 80.9804979,14.6969586 C80.9010202,14.4528487 80.6588238,14.3000745 80.4042857,14.3334921 C77.6706073,14.6474477 74.9832592,15.2813663 72.3974603,16.2222222 C68.3419048,17.9603175 63.51,22.8038095 60.9607937,27.1026984 C60.6595238,27.6473016 60.2887302,28.1803175 60.0338095,28.7480952 L59.3038095,30.4977778 L58.9446032,31.39 L58.6896825,32.3053968 L58.1914286,34.1709524 C58.052381,34.808254 58.0060317,35.4455556 57.9133333,36.0944444 C57.809496,36.7423059 57.7514158,37.3966761 57.7395238,38.0526984 C57.6839896,39.3846007 57.7499236,40.718793 57.9365079,42.0387302 C58.6201587,47.334127 62.0268254,56.2215873 71.2619048,59.0952381 C80.4969841,61.9688889 81.1111111,69.5238095 78.2142857,74.7380952 C75.4796825,79.6626984 66.0244444,82.2698413 45.7698413,89.8015873 C25.5152381,97.3333333 6.95238095,116.336508 6.95238095,116.336508 L6.95238095,138.468254 L118.978413,138.468254 C114.772222,128.989841 112.165079,115.374762 118.190476,98.4920635 Z" id="Combined-Shape"></path>
            </g>
        </g>
    </g>
</svg>