<?xml version="1.0" encoding="UTF-8"?>
<svg width="250px" height="250px" viewBox="0 0 250 250" version="1.1" xmlns="http://www.w3.org/2000/svg" xmlns:xlink="http://www.w3.org/1999/xlink">
    <!-- Generator: Sketch 48.2 (47327) - http://www.bohemiancoding.com/sketch -->
    <title>Images/Hazards/Rockfall</title>
    <desc>Created with Sketch.</desc>
    <defs></defs>
    <g id="Library-Symbols" stroke="none" stroke-width="1" fill="none" fill-rule="evenodd">
        <g id="Images/Hazards/Rockfall">
            <circle id="Oval-2" fill="#BFEFE9" cx="125" cy="125" r="125"></circle>
            <g id="rockfall" transform="translate(62.000000, 62.000000)" fill-rule="nonzero">
                <path d="M142.608661,91.9685039 C143.330451,91.9462911 144.011066,92.3040502 144.402047,92.9111811 C144.844932,93.5066072 144.953305,94.2868879 144.689449,94.9804724 L143.183465,99.5099213 C142.987164,100.478058 142.084487,101.136365 141.102677,101.027402 L135.653543,101.027402 C137.499574,102.119057 139.053703,103.64163 140.182992,105.464882 C141.319646,107.304708 141.90973,109.429807 141.884409,111.592283 L141.884409,120.708661 C141.917364,123.640212 140.836826,126.475081 138.860945,128.640945 L138.860945,140.343937 C138.864008,141.546158 138.387783,142.700021 137.537682,143.550123 C136.687581,144.400224 135.533717,144.876449 134.331496,144.873386 L125.307087,144.873386 C124.104866,144.876449 122.951002,144.400224 122.100901,143.550123 C121.2508,142.700021 120.774575,141.546158 120.777638,140.343937 L120.777638,132.791024 L72.4251969,132.791024 L72.4251969,140.343937 C72.4223092,141.554252 71.9339261,142.712801 71.0695012,143.559938 C70.2050763,144.407074 69.0368979,144.871955 67.8267717,144.850394 L58.8023622,144.850394 C57.6001413,144.853457 56.4462778,144.377232 55.5961764,143.527131 C54.7460751,142.677029 54.2698504,141.523166 54.2729134,140.320945 L54.2729134,128.617953 C52.2970319,126.452089 51.2164947,123.61722 51.2494488,120.685669 L51.2494488,111.626772 C51.2241283,109.464296 51.8142121,107.339196 52.9508661,105.49937 C54.0801553,103.676118 55.6342843,102.153545 57.480315,101.06189 L52.008189,101.06189 C51.0248725,101.176553 50.1187346,100.515723 49.9274016,99.5444094 L48.4214173,95.0149606 C48.1575616,94.3213761 48.2659339,93.5410954 48.7088189,92.9456693 C49.091394,92.3253484 49.7735475,91.9536622 50.5022047,91.9685039 L60.8486614,91.9685039 L62.3546457,88.0023622 C65.9853518,78.6186986 75.0092987,72.4307188 85.0708661,72.4251969 L108.062992,72.4251969 C118.122391,72.4738318 127.118347,78.6979373 130.710236,88.0943307 L132.204724,91.9685039 L142.608661,91.9685039 Z M64.8377953,122.20315 L65.5965354,122.20315 C67.4286194,122.257185 69.2615609,122.130112 71.0686614,121.82378 C72.9540157,121.444409 73.908189,120.559213 73.908189,119.179685 C73.908189,117.547244 72.8045669,115.631234 70.5973228,113.431654 C68.3900787,111.232073 66.4740682,110.132283 64.8492913,110.132283 C61.6152561,110.273395 59.0659582,112.936352 59.0659582,116.173465 C59.0659582,119.410577 61.6152561,122.073534 64.8492913,122.214646 L64.8377953,122.20315 Z M73.7127559,92.3708661 L70.8847244,99.5444094 L122.226142,99.5444094 L119.39811,92.3708661 C117.647941,87.6199657 113.126,84.46011 108.062992,84.4500787 L85.0708661,84.4500787 C80.0120719,84.4649102 75.4959489,87.6239039 73.7472441,92.3708661 L73.7127559,92.3708661 Z M128.261575,122.26063 C131.49561,122.119519 134.044908,119.456561 134.044908,116.219449 C134.044908,112.982336 131.49561,110.319379 128.261575,110.178268 C126.629134,110.178268 124.713123,111.278058 122.513543,113.477638 C120.313963,115.677218 119.210341,117.593228 119.202677,119.225669 C119.202677,120.605197 120.145354,121.524882 122.042205,121.869764 C123.849305,122.176096 125.682247,122.30317 127.514331,122.249134 L128.261575,122.26063 Z" id="Shape" fill="#15514B"></path>
                <rect id="Rectangle-path" fill="#4AA49B" x="0" y="0" width="38.7877165" height="144.850394" rx="4"></rect>
                <polygon id="Shape" fill="#15514B" points="47.1338583 14.9448819 57.9861417 29.8897638 75.552126 24.1877165 75.552126 5.71354331 57.9861417 0.011496063"></polygon>
                <polygon id="Shape" fill="#15514B" points="79.7251969 49.4905512 78.1732283 59.2966929 87.0137008 63.8031496 94.0377953 56.7790551 89.5313386 47.9385827"></polygon>
                <polygon id="Shape" fill="#15514B" points="111.074961 20.9343307 97.463622 18.7730709 91.1982677 31.0623622 100.946929 40.8110236 113.23622 34.5456693"></polygon>
            </g>
        </g>
    </g>
</svg>