<?xml version="1.0" encoding="UTF-8"?>
<svg width="250px" height="250px" viewBox="0 0 250 250" version="1.1" xmlns="http://www.w3.org/2000/svg" xmlns:xlink="http://www.w3.org/1999/xlink">
    <!-- Generator: Sketch 48.2 (47327) - http://www.bohemiancoding.com/sketch -->
    <title>Images/Hazards/Severe wind</title>
    <desc>Created with Sketch.</desc>
    <defs></defs>
    <g id="Library-Symbols" stroke="none" stroke-width="1" fill="none" fill-rule="evenodd">
        <g id="Images/Hazards/Severe-wind">
            <circle id="Oval-2" fill="#BFEFE9" cx="125" cy="125" r="125"></circle>
            <g id="severe-wind" transform="translate(27.000000, 52.000000)" fill-rule="nonzero">
                <path d="M72.4467368,29.6456842 L86.0631579,29.6456842 C86.3090526,28.3086316 86.4166316,27.3096842 86.6778947,26.3568421 C88.4136385,18.5947997 96.1131155,13.7095194 103.875158,15.4452632 C111.6372,17.1810069 116.522481,24.8804839 114.786737,32.6425263 C113.495789,39.6812632 107.471368,44.0766316 98.8343158,44.092 C72.5338246,44.092 46.2435789,44.092 19.9635789,44.092 L14.892,44.092 L14.892,58.4 C44.2456842,58.4 73.292,58.7227368 102.230737,58.2309474 C114.141263,58.0311579 122.870526,51.3612632 127.296632,40.2191579 C131.722737,29.0770526 129.371368,18.4421053 121.041684,9.60526316 C112.791233,1.11407801 100.140639,-1.37195348 89.2905263,3.36568421 C78.7978227,7.81884068 72.1107976,18.2520642 72.4467368,29.6456842 Z" id="Shape" fill="#FFFFFF"></path>
                <path d="M189.031579,74.46 C184.194463,82.3673281 175.555256,87.1480786 166.286316,87.0467368 C116.738526,87.1389474 21.8231579,87.0467368 3.22736842,87.0467368 C2.36196048,87.0427229 1.53406103,86.6929513 0.927918639,86.0752633 C0.321776248,85.4575754 -0.0123138191,84.6232244 -1.25572296e-15,83.7578947 L-1.25572296e-15,76.4117895 C-0.00408567755,75.5558352 0.332027501,74.7333166 0.934396442,74.1251834 C1.53676538,73.5170502 2.35604565,73.1731189 3.212,73.1690526 C21.8077895,73.1690526 115.693474,73 163.350947,72.9846316 C171.419368,72.9846316 177.182526,69.2808421 179.103579,62.8107368 C181.396353,55.3974521 177.409576,47.4994055 170.083544,44.9415029 C162.757513,42.3836004 154.721195,46.0837528 151.901474,53.3130526 C151.589662,54.194033 151.32798,55.0919611 151.117684,56.0025263 C150.792315,57.4457732 149.523213,58.4800913 148.044,58.5075789 L140.359789,58.5075789 C139.480882,58.5121002 138.637785,58.1596585 138.02358,57.5309678 C137.409376,56.9022772 137.07668,56.0511953 137.101684,55.1726316 C137.378316,47.1810526 142.895579,38.2673684 150.656632,33.7951579 C158.263724,29.3084703 167.509441,28.5621934 175.73766,31.7707188 C183.965879,34.9792443 190.265802,41.7874149 192.827579,50.2393684 C195.455579,58.2463158 193.104211,68.5277895 189.031579,74.46 Z" id="Shape" fill="#15514B"></path>
                <path d="M76.8421053,29.6456842 C75.6285711,29.6550681 74.469988,29.1404407 73.6633703,28.2337317 C72.8567526,27.3270228 72.4805326,26.1163971 72.6311579,24.9122105 C74.0886405,15.3508072 80.3746653,7.21731857 89.2597895,3.39642105 C100.109903,-1.34121664 112.760496,1.14481485 121.010947,9.636 C129.340632,18.4882105 131.768842,28.8926316 127.265895,40.2345263 C122.762947,51.5764211 114.141263,58.0157895 102.230737,58.2155789 C74.6444211,58.692 47.0273684,58.4 19.1336842,58.3846316 C16.7945671,58.3762022 14.9004293,56.4820644 14.892,54.1429474 L14.892,48.3336842 C14.892,45.9995545 16.784186,44.1073684 19.1183158,44.1073684 C32.9498947,44.1073684 76.4578947,44.1073684 98.7574737,44.1073684 C107.394526,44.1073684 113.418947,39.6966316 114.709895,32.6578947 C116.445638,24.8958524 111.560358,17.1963758 103.798316,15.460632 C96.0362735,13.7248883 88.3367966,18.6101684 86.6010526,26.3722105 C86.1316031,28.2703121 84.437508,29.6104172 82.4823158,29.6303158 L76.8421053,29.6303158 L76.8421053,29.6456842 Z" id="Shape" fill="#4AA49B"></path>
                <path d="M126.528211,123.377684 L133.705263,123.377684 C135.110599,123.365703 136.387129,124.194539 136.948,125.483158 C137.92926,128.756465 141.180513,130.799171 144.555368,130.262737 C148.052985,130.246212 150.891364,127.428352 150.933263,123.930947 C151.317474,119.965895 149.396421,116.969053 145.677263,116.246737 C143.834025,115.944044 141.965228,115.825635 140.098526,115.893263 C113.511158,115.893263 61.0894737,115.893263 46.9505263,115.893263 C44.9958617,115.884801 43.4157712,114.297841 43.4157895,112.343158 L43.4157895,105.488842 C43.4154991,103.551931 44.9678007,101.972276 46.9044211,101.938737 C61.1816842,101.800421 115.370737,101.569895 143.602526,101.677474 C152.470105,101.677474 159.478105,105.550316 163.274105,113.864632 C167.134683,121.550388 165.916651,130.813521 160.200421,137.24 C154.386328,143.930645 145.064105,146.371018 136.717474,143.387368 C129.598272,140.951866 124.323389,134.897472 122.885895,127.511789 C122.70323,126.456655 123.008728,125.375596 123.716619,124.572125 C124.42451,123.768653 125.45847,123.329399 126.528211,123.377684 Z" id="Shape" fill="#4AA49B"></path>
            </g>
        </g>
    </g>
</svg>