<?xml version="1.0" encoding="UTF-8"?>
<svg width="250px" height="250px" viewBox="0 0 250 250" version="1.1" xmlns="http://www.w3.org/2000/svg" xmlns:xlink="http://www.w3.org/1999/xlink">
    <!-- Generator: Sketch 48.2 (47327) - http://www.bohemiancoding.com/sketch -->
    <title>Images/Hazards/Storm surge</title>
    <desc>Created with Sketch.</desc>
    <defs></defs>
    <g id="Library-Symbols" stroke="none" stroke-width="1" fill="none" fill-rule="evenodd">
        <g id="Images/Hazards/Storm-surge">
            <circle id="Oval-2" fill="#BFEFE9" cx="125" cy="125" r="125"></circle>
            <g id="storm-surge" transform="translate(53.000000, 52.000000)" fill-rule="nonzero">
                <rect id="Rectangle-path" fill="#15514B" x="105.788951" y="24.9623397" width="38.6876133" height="120.660864" rx="4"></rect>
                <path d="M101.46612,75.7584651 C101.466482,73.8220773 100.802728,71.9441377 99.5856318,70.4380583 C95.2857341,65.0717859 85.2985049,53.5021944 85.2985049,36.4975321 C85.3048886,23.9305544 93.7361632,12.9285401 105.869216,9.65470374 C92.1291106,-2.5028532 71.4217994,-2.30479188 57.9167561,10.1133595 C57.2082331,10.7373067 56.5381343,11.4035763 55.9101371,12.1085121 C54.7899859,13.3142864 53.7518643,14.5937425 52.8027443,15.9382876 C44.8565333,26.6822988 35.7522165,45.0858612 32.5186934,49.3628261 C26.7854964,56.8847806 11.7530538,59.4073873 4.46042726,60.1985685 C2.11706978,60.4459523 0.342436471,62.4287828 0.355458214,64.7851261 L0,141.036646 C2.54605092e-16,143.569732 2.05347178,145.623204 4.5865576,145.623204 L69.3258181,145.623204 L96.8451637,145.623204 C99.3782495,145.623204 101.431721,143.569732 101.431721,141.036646 L101.431721,91.7311519 L101.46612,75.7584651 Z" id="Shape" fill="#4AA49B"></path>
            </g>
        </g>
    </g>
</svg>