<?xml version="1.0" encoding="UTF-8"?>
<svg width="250px" height="250px" viewBox="0 0 250 250" version="1.1" xmlns="http://www.w3.org/2000/svg" xmlns:xlink="http://www.w3.org/1999/xlink">
    <!-- Generator: Sketch 48.2 (47327) - http://www.bohemiancoding.com/sketch -->
    <title>Images/Hazards/Subsidence</title>
    <desc>Created with Sketch.</desc>
    <defs></defs>
    <g id="Library-Symbols" stroke="none" stroke-width="1" fill="none" fill-rule="evenodd">
        <g id="Images/Hazards/Subsidence">
            <circle id="Oval-2" fill="#BFEFE9" cx="125" cy="125" r="125"></circle>
            <g id="subsidence" transform="translate(53.000000, 46.000000)" fill-rule="nonzero">
                <path d="M60.361875,52.7690625 C65.8094154,52.7434581 71.1863502,54.0017233 76.056875,56.441875 C80.8390708,58.8052607 85.0770131,62.1381245 88.5010937,66.2284375 C89.979799,65.9561299 91.480181,65.8186903 92.98375,65.8178125 C98.7892773,65.7623063 104.385936,67.981318 108.576094,72 C112.897777,75.8645413 115.503843,81.2900852 115.819062,87.0790625 C121.569821,89.0266102 126.548836,92.7588733 130.03125,97.7325 C133.592998,102.688098 135.486436,108.648032 135.437812,114.750625 C135.47715,119.91572 134.100369,124.992844 131.457031,129.430469 C128.867922,133.85588 125.18338,137.540422 120.757969,140.129531 C116.320344,142.772869 111.24322,144.14965 106.078125,144.110312 L37.5265625,144.110312 C31.7950585,144.140363 26.1610833,142.627463 21.215625,139.730312 C16.2593976,136.874618 12.1470462,132.758332 9.29609375,127.799375 C4.56329687,119.64231 3.60470468,109.832405 6.66888753,100.913444 C9.73307038,91.9944832 16.5182014,84.8449984 25.2648437,81.3189062 C26.7871479,73.2191499 31.1816209,65.9409305 37.640625,60.821875 C44.0226321,55.5331308 52.0737607,52.6796686 60.361875,52.7690625 Z M60.361875,62.555625 C55.7520048,62.5082973 51.2126791,63.6893881 47.2104688,65.9775 C43.2633166,68.2366869 39.9910619,71.5089416 37.731875,75.4560937 C35.398834,79.4605771 34.1854346,84.0187041 34.21875,88.653125 L34.21875,88.8584375 C28.7837272,89.6028002 23.8134541,92.3234563 20.2575,96.500625 C16.5795912,100.619699 14.5775026,105.96674 14.645625,111.488437 C14.645625,124.087433 24.8591291,134.300937 37.458125,134.300937 L106.078125,134.300937 C113.995279,134.293493 121.130164,129.522675 124.161931,122.209005 C127.193698,114.895334 125.52666,106.475817 119.936719,100.869219 C116.303548,97.1350981 111.287203,95.0707588 106.078125,95.1660937 L104.196094,95.1660937 C106.612356,91.1546497 106.667235,86.1493746 104.339508,82.0859162 C102.011781,78.0224578 97.6663743,75.5378594 92.98375,75.5929687 C89.8486519,75.5510451 86.8034506,76.6403525 84.40625,78.66125 C80.4299667,68.888318 70.9126684,62.5133535 60.361875,62.555625 Z" id="Shape" fill="#15514B"></path>
                <path d="M93.7251563,13.4289063 C94.1993737,13.8893432 94.4633546,14.5245473 94.4551563,15.1854688 C94.4624709,15.8495614 94.1988724,16.4879641 93.7251563,16.9534375 L73.6159375,37.05125 C73.1512481,37.5193366 72.5189516,37.7825924 71.859375,37.7825924 C71.1997984,37.7825924 70.5675019,37.5193366 70.1028125,37.05125 L49.9935937,16.9534375 C49.5198776,16.4879641 49.2562791,15.8495614 49.2635937,15.1854688 C49.2553954,14.5245473 49.5193763,13.8893432 49.9935937,13.4289063 L52.2748437,11.045 C52.742264,10.5909793 53.3815308,10.3585187 54.0314062,10.40625 C54.6978956,10.4306641 55.3300668,10.7080037 55.799375,11.181875 L67.7189062,23.6146875 L67.7189062,2.6271875 C67.704997,1.96744625 67.9651761,1.33145269 68.4375,0.870625 C68.8998829,0.39234163 69.5403441,0.127893109 70.2054687,0.140625 L73.5132812,0.140625 C74.1784059,0.127893109 74.8188671,0.39234163 75.28125,0.870625 C75.7535739,1.33145269 76.013753,1.96744625 75.9998437,2.6271875 L75.9998437,23.5804688 L87.919375,11.1476563 C88.394061,10.6863297 89.0255911,10.4214945 89.6873437,10.40625 C90.3424028,10.3674935 90.9824275,10.6126978 91.4439063,11.0792188 L93.7251563,13.4289063 Z" id="Shape" fill="#4AA49B"></path>
                <path d="M44.484375,35.819375 C44.9550285,36.2860131 45.2146136,36.9246747 45.2029688,37.5873438 C45.2141574,38.2465768 44.9544021,38.8815341 44.484375,39.3439063 L24.3523437,59.453125 C23.8899716,59.9231521 23.2550143,60.1829074 22.5957812,60.1717188 C21.9331122,60.1833636 21.2944506,59.9237785 20.8278125,59.453125 L0.73,39.3439063 C0.252315208,38.8858342 -0.0123205235,38.2490544 1.12475133e-15,37.5873438 C-0.0127318912,36.9222191 0.25171663,36.2817579 0.73,35.819375 L3.01125,33.4354688 C3.47272871,32.9689478 4.11275344,32.7237435 4.7678125,32.7625 C5.43137014,32.7851827 6.06058849,33.0630194 6.524375,33.538125 L18.4439062,45.9823438 L18.4439062,2.63859375 C18.4287584,1.97634941 18.6938487,1.33847596 19.1739062,0.88203125 C19.629996,0.400145891 20.2670354,0.131265641 20.9304687,0.140625 L24.2496875,0.140625 C24.9119318,0.125477188 25.5498053,0.39056745 26.00625,0.870625 C26.4863076,1.32706971 26.7513978,1.96494316 26.73625,2.6271875 L26.73625,45.9709375 L38.6557812,33.538125 C39.1209215,33.064974 39.7493186,32.7875 40.4123437,32.7625 C41.0712878,32.7203902 41.7161535,32.9658552 42.1803125,33.4354688 L44.484375,35.819375 Z" id="Shape" fill="#4AA49B"></path>
                <path d="M142.98875,35.819375 C143.467033,36.2817579 143.731482,36.9222191 143.71875,37.5873437 C143.731071,38.2490544 143.466435,38.8858342 142.98875,39.3439062 L122.890937,59.453125 C122.424299,59.9237785 121.785638,60.1833636 121.122969,60.1717187 C120.463736,60.1829074 119.828778,59.9231521 119.366406,59.453125 L99.234375,39.3439062 C98.7643479,38.8815341 98.5045926,38.2465768 98.5157813,37.5873437 C98.5041364,36.9246747 98.7637215,36.2860131 99.234375,35.819375 L101.515625,33.4354687 C101.979784,32.9658552 102.62465,32.7203902 103.283594,32.7625 C103.946619,32.7875 104.575016,33.064974 105.040156,33.538125 L116.959688,45.9823437 L116.959688,2.63859375 C116.94454,1.97634941 117.20963,1.33847596 117.689688,0.88203125 C118.149474,0.391776107 118.797197,0.12189134 119.469062,0.140625 L122.788281,0.140625 C123.449992,0.128304477 124.086772,0.392940208 124.544844,0.870625 C125.024901,1.32706971 125.289992,1.96494316 125.274844,2.6271875 L125.274844,45.9709375 L137.194375,33.5267187 C137.658162,33.0516132 138.28738,32.7737765 138.950938,32.7510937 C139.605997,32.7123372 140.246021,32.9575415 140.7075,33.4240625 L142.98875,35.819375 Z" id="Shape" fill="#4AA49B"></path>
            </g>
        </g>
    </g>
</svg>