<?xml version="1.0" encoding="UTF-8"?>
<svg width="250px" height="250px" viewBox="0 0 250 250" version="1.1" xmlns="http://www.w3.org/2000/svg" xmlns:xlink="http://www.w3.org/1999/xlink">
    <!-- Generator: Sketch 48.2 (47327) - http://www.bohemiancoding.com/sketch -->
    <title>Images/Hazards/Tornado</title>
    <desc>Created with Sketch.</desc>
    <defs></defs>
    <g id="Library-Symbols" stroke="none" stroke-width="1" fill="none" fill-rule="evenodd">
        <g id="Images/Hazards/Tornado">
            <circle id="Oval-2" fill="#BFEFE9" cx="125" cy="125" r="125"></circle>
            <path d="M189.645958,70.5283721 C184.126454,63.0121822 161.60332,55 127.049195,55 C92.4950696,55 69.9592175,62.0201977 64.4397143,70.5283721 C54.4944342,87.0487286 93.4997718,99.5121231 79.9299331,112.07726 C53.438861,136.113806 61.9470354,160.646345 69.9592175,168.658527 C80.4895141,179.188824 90.4856652,185.687593 117.014891,194.717196 C132.543263,199.715271 132.543263,215.243643 132.543263,215.243643 C132.543263,215.243643 156.579809,192.199081 111.520823,173.694756 C93.0037796,166.178566 116.022906,146.644103 148.071635,127.109639 C185.143874,104.065077 197.65814,80.5245232 189.645958,70.5283721 Z" id="Shape" fill="#15514B" fill-rule="nonzero"></path>
        </g>
    </g>
</svg>