<?xml version="1.0" encoding="UTF-8"?>
<svg width="250px" height="250px" viewBox="0 0 250 250" version="1.1" xmlns="http://www.w3.org/2000/svg" xmlns:xlink="http://www.w3.org/1999/xlink">
    <!-- Generator: Sketch 48.2 (47327) - http://www.bohemiancoding.com/sketch -->
    <title>Images/Hazards/Tropical storm</title>
    <desc>Created with Sketch.</desc>
    <defs></defs>
    <g id="Library-Symbols" stroke="none" stroke-width="1" fill="none" fill-rule="evenodd">
        <g id="Images/Hazards/Tropical-storm">
            <circle id="Oval-2" fill="#BFEFE9" cx="125" cy="125" r="125"></circle>
            <path d="M124.578125,103.523438 C136.701454,103.517188 146.535005,113.338915 146.543342,125.462243 C146.55168,137.585572 136.731646,147.420814 124.60832,147.431239 C112.484993,147.441664 102.64806,137.623325 102.635547,125.5 C102.629286,113.373356 112.451485,103.535944 124.578125,103.523438 Z M124.578125,78.6015625 C98.6922958,78.6015655 77.7065182,99.5839665 77.7023498,125.469795 C77.6981814,151.355624 98.6772003,172.344783 124.563028,172.353123 C150.448856,172.361462 171.441395,151.385826 171.453906,125.5 C171.459917,113.063845 166.523886,101.134985 157.732321,92.3391702 C148.940755,83.5433552 137.014282,78.601561 124.578125,78.6015625 Z" id="Shape" fill="#15514B" fill-rule="nonzero"></path>
            <path d="M163.173047,98.8675781 C160.533594,94.4609375 152.082812,85.7269531 142.351953,82.0792969 C140.290234,81.2976563 137.628125,79.4851563 137.628125,75.9621094 C137.628125,72.4390625 140.142969,70.0941406 142.057422,68.9046875 C150.632812,63.6144531 166.35625,63.5011719 169.528125,62.6175781 C173.266406,61.5640625 172.801953,56.0699219 168.961719,55.5148438 C159.616016,54.1328125 148.117969,53.3171875 136.699219,55.0390625 C114.722656,58.3355469 92.6894531,75.9621094 81.1914062,107.669531 L163.173047,98.8675781 Z" id="Shape" fill="#15514B" fill-rule="nonzero"></path>
            <path d="M85.9832031,152.132422 C88.6226563,156.539062 97.0734375,165.273047 106.804297,168.920703 C108.866016,169.702344 111.528125,171.514844 111.528125,175.037891 C111.528125,178.560938 109.013281,180.905859 107.098828,182.095313 C98.5574219,187.385547 82.8,187.498828 79.628125,188.382422 C75.8898438,189.435938 76.3542969,194.930078 80.1945313,195.485156 C89.5402344,196.844531 101.038281,197.682813 112.457031,195.960938 C134.433594,192.664453 156.466797,175.037891 167.964844,143.330469 L85.9832031,152.132422 Z" id="Shape" fill="#15514B" fill-rule="nonzero"></path>
        </g>
    </g>
</svg>