<?xml version="1.0" encoding="UTF-8"?>
<svg width="250px" height="250px" viewBox="0 0 250 250" version="1.1" xmlns="http://www.w3.org/2000/svg" xmlns:xlink="http://www.w3.org/1999/xlink">
    <!-- Generator: Sketch 48.2 (47327) - http://www.bohemiancoding.com/sketch -->
    <title>Images/Hazards/Vector-borne disease </title>
    <desc>Created with Sketch.</desc>
    <defs></defs>
    <g id="Library-Symbols" stroke="none" stroke-width="1" fill="none" fill-rule="evenodd">
        <g id="Images/Hazards/Vector-borne-disease-">
            <circle id="Oval-2" fill="#ECFEC6" cx="125" cy="125" r="125"></circle>
            <path d="M191.401938,133.525581 L132.367829,107.200775 L158.984884,103.693798 L160.794574,78.3468992 L171.55155,67.6124031 C172.555494,66.6205064 172.954006,65.1683584 172.596971,63.802969 C172.239935,62.4375797 171.181594,61.3663842 169.820614,60.9928915 C168.459634,60.6193988 167.002781,61.0003514 165.998837,61.9922481 L153.151163,74.8624031 L151.58876,96.7248062 L129.737597,99.6135659 L132.806202,96.5337209 C134.042402,95.2983287 134.73696,93.6222922 134.73696,91.8746124 C134.73696,90.1269326 134.042402,88.4508961 132.806202,87.2155039 L128.872093,83.2589147 L128.872093,57.496124 C128.872093,55.3233759 127.110733,53.5620155 124.937984,53.5620155 C122.765236,53.5620155 121.003876,55.3233759 121.003876,57.496124 L121.003876,83.4387597 L117.238372,87.2155039 C116.002172,88.4508961 115.307614,90.1269326 115.307614,91.8746124 C115.307614,93.6222922 116.002172,95.2983287 117.238372,96.5337209 L120.262016,99.5573643 L98.8492248,96.7248062 L97.2868217,74.8624031 L84.4728682,61.9922481 C82.9209053,60.4402851 80.4046761,60.4402851 78.8527132,61.9922481 C77.3007502,63.544211 77.3007502,66.0604401 78.8527132,67.6124031 L89.6096899,78.3693798 L91.4531008,103.693798 L117.631783,107.144574 L58.4627907,133.525581 C55.7830778,134.95861 54.081991,137.722938 54.0103775,140.760915 C53.938764,143.798892 55.5077081,146.640304 58.1169212,148.198008 C60.7261342,149.755711 63.9717659,149.788607 66.6120155,148.284109 L91.0372093,138.617442 L115.394961,121.756977 C115.396109,123.472781 115.580751,125.183542 115.945736,126.860078 L116.698837,132.806202 L79.9767442,152.364341 L79.9767442,166.403488 L65.724031,178.610465 C64.5825631,179.501799 64.0231137,180.948203 64.2677089,182.375648 C64.5123041,183.803093 65.5213866,184.980725 66.8944866,185.441184 C68.2675866,185.901643 69.782639,185.570459 70.8383721,184.57907 L87.8449612,169.966667 L87.8449612,157.085271 L117.777907,141.09031 L118.98062,150.49845 L98.5232558,161.356589 L98.5232558,175.575581 L83.9108527,190.187984 C82.3588899,191.721324 82.3437925,194.222456 83.8771319,195.774418 C85.4104713,197.326381 87.9116029,197.341479 89.4635659,195.80814 L106.324031,178.947674 L106.324031,166.077519 L119.992248,158.827519 L123.499225,185.635659 C123.669855,186.32884 124.291553,186.816062 125.005426,186.816062 C125.7193,186.816062 126.340997,186.32884 126.511628,185.635659 L129.951163,158.771318 L143.439535,165.953876 L143.439535,178.700388 L160.3,195.560853 C161.854198,196.981678 164.251603,196.926753 165.739102,195.436243 C167.226602,193.945732 167.276678,191.548221 165.852713,189.996899 L151.24031,175.384496 L151.24031,161.176744 L130.895349,150.386047 L132.098062,140.977907 L162.031008,156.905426 L162.031008,169.899225 L179.037597,184.511628 C180.688885,185.923914 183.172404,185.730164 184.58469,184.078876 C185.996976,182.427587 185.803226,179.944069 184.151938,178.531783 L169.899225,166.223643 L169.899225,152.195736 L133.278295,132.626357 L134.020155,126.860078 C134.373706,125.193512 134.55078,123.49435 134.54845,121.790698 L158.827519,138.651163 L183.252713,148.317829 C187.329701,150.554437 192.447627,149.077822 194.706589,145.013178 C196.966052,140.92839 195.486551,135.785362 191.401938,133.525581 Z" id="Shape" fill="#85C005" fill-rule="nonzero"></path>
        </g>
    </g>
</svg>