<?xml version="1.0" encoding="UTF-8"?>
<svg width="250px" height="250px" viewBox="0 0 250 250" version="1.1" xmlns="http://www.w3.org/2000/svg" xmlns:xlink="http://www.w3.org/1999/xlink">
    <!-- Generator: Sketch 48.2 (47327) - http://www.bohemiancoding.com/sketch -->
    <title>Images/Hazards/Water-borne disease</title>
    <desc>Created with Sketch.</desc>
    <defs></defs>
    <g id="Library-Symbols" stroke="none" stroke-width="1" fill="none" fill-rule="evenodd">
        <g id="Images/Hazards/Water-borne-disease">
            <circle id="Oval-2" fill="#BFEFE9" cx="125" cy="125" r="125"></circle>
            <g id="water-borne-disease" transform="translate(63.000000, 53.000000)" fill-rule="nonzero">
                <path d="M115.263492,8.05555556 L100.579365,136.944444 L23.7063492,136.944444 L9.02222222,8.05555556 L115.263492,8.05555556 Z M117.047222,0 L7.23849206,0 C5.39789328,0.00149893099 3.64512436,0.787169628 2.41929979,2.16018101 C1.19347523,3.5331924 0.610732345,5.36346234 0.817063492,7.19246032 L15.8694444,139.246032 C16.2277534,142.521766 18.9956012,145.001916 22.290873,145 L101.994841,145 C105.290113,145.001916 108.057961,142.521766 108.41627,139.246032 L123.468651,7.19246032 C123.674982,5.36346234 123.092239,3.5331924 121.866414,2.16018101 C120.64059,0.787169628 118.887821,0.00149893099 117.047222,0 Z" id="Shape" fill="#15514B"></path>
                <path d="M97.6218254,42.1996032 L26.6638889,42.1996032 C25.4261519,42.1980919 24.2467,42.7253125 23.422347,43.6485879 C22.597994,44.5718632 22.2072374,45.8032761 22.3484127,47.0329365 L31.5547619,128.394048 L92.9035714,128.394048 L101.937302,47.0789683 C102.092741,45.8419071 101.708461,44.5977653 100.882466,43.663841 C100.056472,42.7299166 98.86861,42.1964901 97.6218254,42.1996032 Z M55.2380952,60.6468254 C55.7031488,60.1267832 56.3702529,59.8330896 57.0678571,59.8412698 L67.2178571,59.8412698 C67.9154614,59.8330896 68.5825655,60.1267832 69.047619,60.6468254 C69.5388863,61.1517262 69.8117209,61.8296787 69.8071429,62.534127 L68.2880952,91.8793651 C68.3128182,92.5549426 68.0392794,93.2072274 67.5400794,93.6630952 C67.0428301,94.1306188 66.3810978,94.3829042 65.6988095,94.3650794 L58.5869048,94.3650794 C57.9046164,94.3829042 57.2428842,94.1306188 56.7456349,93.6630952 C56.2464349,93.2072274 55.9728961,92.5549426 55.997619,91.8793651 L54.4785714,62.534127 C54.4739934,61.8296787 54.746828,61.1517262 55.2380952,60.6468254 Z M68.2420635,112.547619 C65.334343,115.445295 60.7850674,115.886537 57.3746826,113.601665 C53.9642978,111.316792 52.6418735,106.941659 54.2156548,103.150276 C55.7894361,99.3588941 59.8214582,97.2063605 63.8474124,98.0082703 C67.8733667,98.81018 70.7728776,102.343371 70.7738095,106.448413 C70.8073986,108.743681 69.8912163,110.950847 68.2420635,112.547619 Z" id="Shape" fill="#4AA49B"></path>
            </g>
        </g>
    </g>
</svg>