<?xml version="1.0" encoding="UTF-8"?>
<svg width="250px" height="250px" viewBox="0 0 250 250" version="1.1" xmlns="http://www.w3.org/2000/svg" xmlns:xlink="http://www.w3.org/1999/xlink">
    <!-- Generator: Sketch 48.2 (47327) - http://www.bohemiancoding.com/sketch -->
    <title>Images/Community System/Agriculture</title>
    <desc>Created with Sketch.</desc>
    <defs></defs>
    <g id="Library-Symbols" stroke="none" stroke-width="1" fill="none" fill-rule="evenodd">
        <g id="Images/Community-System/Agriculture">
            <circle id="Oval-2" fill="#BFEFE9" cx="125" cy="125" r="125"></circle>
            <path d="M154.98228,50.0925159 L160.710634,50.0925159 C181.682234,50.0925159 198.683075,67.0933568 198.683075,88.0649569 L198.683075,94.0885789 L192.919295,94.0885789 C171.952307,94.0690181 154.969235,77.0595089 154.982287,56.0925159 L154.98228,50.0925159 Z" id="Shape" fill="#4AA49B" fill-rule="nonzero" transform="translate(176.832677, 72.090547) rotate(90.000000) translate(-176.832677, -72.090547) "></path>
            <path d="M97.4094488,143.913386 C97.9955695,138.908423 97.824357,133.843718 96.9015748,128.889764 C94.6929134,117.893701 88.2677165,103.330709 93.7007874,94.0826772 C99.3464567,84.503937 112.043307,79.0354331 112.043307,79.0354331 L113.897638,86.7952756 C116.425197,97.3188976 122.165354,115.295276 115.917323,124.708661 C109.326772,134.748031 97.4094488,143.913386 97.4094488,143.913386 Z" id="Shape" fill="#4AA49B" fill-rule="nonzero"></path>
            <path d="M126.417323,114.893701 C127.01103,109.893426 126.843778,104.832061 125.92126,99.8818898 C123.700787,88.8858268 117.322835,74.2519685 122.685039,65.0748031 C128.34252,55.484252 141.03937,50.0275591 141.03937,50.0275591 L142.905512,57.7992126 C145.433071,68.3346457 151.173228,86.3110236 144.925197,95.7244094 C138.334646,105.692913 126.417323,114.893701 126.417323,114.893701 Z" id="Shape" fill="#4AA49B" fill-rule="nonzero"></path>
            <path d="M103.751969,150.255906 C108.756178,149.66209 113.821452,149.829339 118.775591,150.751969 C129.771654,152.972441 144.393701,159.397638 153.570866,153.988189 C163.161417,148.330709 168.629921,135.633858 168.629921,135.633858 L160.846457,133.767717 C150.311024,131.240157 132.334646,125.5 122.933071,131.748031 C112.917323,138.338583 103.751969,150.255906 103.751969,150.255906 Z" id="Shape" fill="#15514B" fill-rule="nonzero"></path>
            <path d="M132.759843,121.23622 C137.764806,120.6501 142.82951,120.821312 147.783465,121.744094 C158.779528,123.964567 173.401575,130.377953 182.590551,124.968504 C192.169291,119.322835 197.637795,106.625984 197.637795,106.625984 L189.854331,104.759843 C179.330709,102.232283 161.354331,96.492126 151.940945,102.728346 C141.925197,109.330709 132.759843,121.23622 132.759843,121.23622 Z" id="Shape" fill="#15514B" fill-rule="nonzero"></path>
            <path d="M138.84252,164.653543 L131.059055,162.775591 C120.523622,160.248031 102.547244,154.507874 93.1456693,160.755906 C91.4566929,161.866142 87.9488189,164.547244 87.6417323,164.84252 C86.3110304,166.173221 84.1535366,166.173221 82.8228348,164.84252 C81.492133,163.511818 81.4921329,161.354324 82.8228346,160.023622 C82.9527559,159.893701 85.6692913,156.397638 86.9094488,154.519685 C93.0984252,145.070866 87.4173228,127.129921 84.8779528,116.606299 L83.0708661,108.822835 C83.0708661,108.822835 70.3149606,114.291339 64.6692913,123.870079 C59.2598425,133.059055 64.5629921,148.212598 68.6496063,158.688976 C70.1023622,162.397638 71.2244094,165.775591 71.8740157,167.712598 C67.7165354,172.188976 53.011811,186.53937 52.3622047,187.366142 C50.9764729,188.63744 50.1310268,190.391741 50,192.267717 C50.0436721,193.88452 50.7126137,195.421392 51.8661417,196.555118 C53.2105672,198.174852 55.2311007,199.0782 57.3346457,199 C58.9280354,198.825666 60.3652313,197.962485 61.2677165,196.637795 C62.0354331,195.834646 77.3188976,178.295276 79.9409449,175.826772 C81.9251969,176.464567 85.2677165,177.598425 88.9645669,179.03937 C99.4055118,183.137795 114.606299,188.488189 123.783465,183.031496 C133.374016,177.350394 138.84252,164.653543 138.84252,164.653543 Z" id="Shape" fill="#15514B" fill-rule="nonzero"></path>
        </g>
    </g>
</svg>