<?xml version="1.0" encoding="UTF-8"?>
<svg width="250px" height="250px" viewBox="0 0 250 250" version="1.1" xmlns="http://www.w3.org/2000/svg" xmlns:xlink="http://www.w3.org/1999/xlink">
    <!-- Generator: Sketch 48.2 (47327) - http://www.bohemiancoding.com/sketch -->
    <title>Images/Community System/Agriculture</title>
    <desc>Created with Sketch.</desc>
    <defs></defs>
    <g id="Library-Symbols" stroke="none" stroke-width="1" fill="none" fill-rule="evenodd">
        <g id="Images/Community-System/Agriculture">
            <circle id="Oval-2" fill="#F8F1D4" cx="125" cy="125" r="125"></circle>
            <g id="agriculture" transform="translate(50.000000, 50.000000)" fill-rule="nonzero">
                <path d="M104.98228,0.0925159258 L110.710634,0.0925159258 C131.682234,0.0925159258 148.683075,17.0933568 148.683075,38.0649569 L148.683075,44.0885789 L142.919295,44.0885789 C121.952307,44.0690181 104.969235,27.0595089 104.982287,6.09251593 L104.98228,0.0925159258 Z" id="Shape" fill="#F6E286" transform="translate(126.832677, 22.090547) rotate(90.000000) translate(-126.832677, -22.090547) "></path>
                <path d="M47.4094488,93.9133858 C47.9955695,88.9084227 47.824357,83.8437184 46.9015748,78.8897638 C44.6929134,67.8937008 38.2677165,53.3307087 43.7007874,44.0826772 C49.3464567,34.503937 62.0433071,29.0354331 62.0433071,29.0354331 L63.8976378,36.7952756 C66.4251969,47.3188976 72.1653543,65.2952756 65.9173228,74.7086614 C59.3267717,84.7480315 47.4094488,93.9133858 47.4094488,93.9133858 Z" id="Shape" fill="#F6E286"></path>
                <path d="M76.4173228,64.8937008 C77.0110305,59.8934262 76.8437784,54.8320609 75.9212598,49.8818898 C73.7007874,38.8858268 67.3228346,24.2519685 72.6850394,15.0748031 C78.3425197,5.48425197 91.0393701,0.0275590551 91.0393701,0.0275590551 L92.9055118,7.7992126 C95.4330709,18.3346457 101.173228,36.3110236 94.9251969,45.7244094 C88.3346457,55.6929134 76.4173228,64.8937008 76.4173228,64.8937008 Z" id="Shape" fill="#F6E286"></path>
                <path d="M53.7519685,100.255906 C58.7561783,99.6620897 63.8214521,99.8293393 68.7755906,100.751969 C79.7716535,102.972441 94.3937008,109.397638 103.570866,103.988189 C113.161417,98.3307087 118.629921,85.6338583 118.629921,85.6338583 L110.846457,83.7677165 C100.311024,81.2401575 82.3346457,75.5 72.9330709,81.7480315 C62.9173228,88.3385827 53.7519685,100.255906 53.7519685,100.255906 Z" id="Shape" fill="#F2C706"></path>
                <path d="M82.7598425,71.2362205 C87.7648057,70.6500998 92.8295099,70.8213123 97.7834646,71.7440945 C108.779528,73.9645669 123.401575,80.3779528 132.590551,74.9685039 C142.169291,69.3228346 147.637795,56.6259843 147.637795,56.6259843 L139.854331,54.7598425 C129.330709,52.2322835 111.354331,46.492126 101.940945,52.7283465 C91.9251969,59.3307087 82.7598425,71.2362205 82.7598425,71.2362205 Z" id="Shape" fill="#F2C706"></path>
                <path d="M88.8425197,114.653543 L81.0590551,112.775591 C70.523622,110.248031 52.5472441,104.507874 43.1456693,110.755906 C41.4566929,111.866142 37.9488189,114.547244 37.6417323,114.84252 C36.3110304,116.173221 34.1535366,116.173221 32.8228348,114.84252 C31.492133,113.511818 31.4921329,111.354324 32.8228346,110.023622 C32.9527559,109.893701 35.6692913,106.397638 36.9094488,104.519685 C43.0984252,95.0708661 37.4173228,77.1299213 34.8779528,66.6062992 L33.0708661,58.8228346 C33.0708661,58.8228346 20.3149606,64.2913386 14.6692913,73.8700787 C9.25984252,83.0590551 14.5629921,98.2125984 18.6496063,108.688976 C20.1023622,112.397638 21.2244094,115.775591 21.8740157,117.712598 C17.7165354,122.188976 3.01181102,136.53937 2.36220472,137.366142 C0.976472855,138.63744 0.131026813,140.391741 0,142.267717 C0.0436721146,143.88452 0.712613733,145.421392 1.86614173,146.555118 C3.21056717,148.174852 5.23110074,149.0782 7.33464567,149 C8.92803538,148.825666 10.3652313,147.962485 11.2677165,146.637795 C12.0354331,145.834646 27.3188976,128.295276 29.9409449,125.826772 C31.9251969,126.464567 35.2677165,127.598425 38.9645669,129.03937 C49.4055118,133.137795 64.6062992,138.488189 73.7834646,133.031496 C83.3740157,127.350394 88.8425197,114.653543 88.8425197,114.653543 Z" id="Shape" fill="#F2C706"></path>
            </g>
        </g>
    </g>
</svg>