<?xml version="1.0" encoding="UTF-8"?>
<svg width="250px" height="250px" viewBox="0 0 250 250" version="1.1" xmlns="http://www.w3.org/2000/svg" xmlns:xlink="http://www.w3.org/1999/xlink">
    <!-- Generator: Sketch 48.2 (47327) - http://www.bohemiancoding.com/sketch -->
    <title>Images/Community System/Business Continuity</title>
    <desc>Created with Sketch.</desc>
    <defs></defs>
    <g id="Library-Symbols" stroke="none" stroke-width="1" fill="none" fill-rule="evenodd">
        <g id="Images/Community-System/Business-Continuity">
            <circle id="Oval-2" fill="#BFEFE9" cx="125" cy="125" r="125"></circle>
            <g id="business-continuity" transform="translate(51.000000, 60.000000)">
                <path d="M120.148438,129.9375 L120.148438,28.4179687 L110.914063,28.4179687 L110.914063,14.578125 C110.978054,10.8907005 109.514856,7.3408566 106.871094,4.76953125 C104.305788,2.12402173 100.75866,0.660194786 97.0742188,0.7265625 L50.9257813,0.7265625 C47.2615904,0.676449112 43.7387823,2.13898678 41.1875,4.76953125 C38.5437375,7.3408566 37.0805402,10.8907005 37.1445313,14.578125 L37.1445313,28.4179687 L27.8515625,28.4179687 L27.8515625,129.9375 L120.148438,129.9375 Z M92.4570313,19.1953125 L92.4570313,28.4179688 L55.5429688,28.4179688 L55.5429688,19.1953125 L92.4570313,19.1953125 Z" id="Shape" fill="#15514B" fill-rule="nonzero"></path>
                <path d="M14.0117188,129.9375 C10.3272775,130.003868 6.78014904,128.540041 4.21484375,125.894531 C1.57108129,123.323206 0.107883969,119.773362 0.171875,116.085937 L0.171875,42.2578125 C0.105507286,38.5733713 1.56933423,35.0262428 4.21484375,32.4609375 C6.78014904,29.815428 10.3272775,28.351601 14.0117188,28.4179687 L18.6289063,28.4179687 L18.6289063,129.9375 L14.0117188,129.9375 Z" id="Path" fill="#4AA49B"></path>
                <path d="M147.828125,116.085938 C147.840617,119.761384 146.386883,123.290066 143.789035,125.890114 C141.191188,128.490161 137.663737,129.946882 133.988281,129.9375 L129.371094,129.937545 L129.371094,28.4179238 L133.988281,28.4179687 C137.6617,28.4086017 141.187363,29.8637158 143.784871,32.4612232 C146.382378,35.0587307 147.837492,38.5843942 147.828125,42.2578125 L147.828125,116.085938 Z" id="Path" fill="#4AA49B"></path>
            </g>
        </g>
    </g>
</svg>