<?xml version="1.0" encoding="UTF-8"?>
<svg width="250px" height="250px" viewBox="0 0 250 250" version="1.1" xmlns="http://www.w3.org/2000/svg" xmlns:xlink="http://www.w3.org/1999/xlink">
    <!-- Generator: Sketch 48.2 (47327) - http://www.bohemiancoding.com/sketch -->
    <title>Images/Community System/Community and culture</title>
    <desc>Created with Sketch.</desc>
    <defs></defs>
    <g id="Library-Symbols" stroke="none" stroke-width="1" fill="none" fill-rule="evenodd">
        <g id="Images/Community-System/Community-and-culture">
            <circle id="Oval-2" fill="#FCE7DC" cx="125" cy="125" r="125"></circle>
            <g id="community-and-culture" transform="translate(51.000000, 50.000000)" fill-rule="nonzero">
                <path d="M25.702381,54.7380952 C30.0145584,54.8052224 34.1614529,53.080942 37.1547619,49.9761905 C40.2528605,46.983263 41.9761955,42.8429507 41.9166667,38.5357143 C41.9766461,34.2249089 40.2535,30.0807426 37.1547619,27.0833333 C34.1589878,23.9821958 30.0137344,22.2585978 25.702381,22.3214286 C21.3951445,22.2618998 17.2548322,23.9852347 14.2619048,27.0833333 C11.1583599,30.0774657 9.43430753,34.2238117 9.5,38.5357143 C9.4347499,42.8440509 11.158994,46.9865473 14.2619048,49.9761905 C17.2523715,53.0778952 21.3943198,54.8019111 25.702381,54.7380952 Z" id="Shape" fill="#FFBFA1"></path>
                <path d="M121.916667,54.7380952 C130.852983,54.7249825 138.09403,47.483935 138.107143,38.547619 C138.107143,29.605866 130.85842,22.3571429 121.916667,22.3571429 C112.974914,22.3571429 105.72619,29.605866 105.72619,38.547619 C105.732756,47.4866512 112.977635,54.7315297 121.916667,54.7380952 Z" id="Shape" fill="#FFBFA1"></path>
                <path d="M61.547619,45.4880952 C69.0681126,49.9132851 78.3862054,49.9568578 85.9477546,45.6021935 C93.5093039,41.2475293 98.1482691,33.1661461 98.0952381,24.4404762 C98.0952381,11.0278466 87.2221534,0.154761905 73.8095238,0.154761905 C60.3968942,0.154761905 49.5238095,11.0278466 49.5238095,24.4404762 C49.4822255,28.7406666 50.6008492,32.972519 52.7619048,36.6904762 C54.8752821,40.337375 57.9035853,43.3697816 61.547619,45.4880952 Z" id="Shape" fill="#ED5C14"></path>
                <path d="M112.595238,66.5238095 C112.634716,62.8005134 111.409119,59.1740897 109.119048,56.2380952 C106.836778,53.2223786 103.559349,51.113351 99.8690476,50.2857143 L90.6666667,48.0238095 C86.02455,51.4284342 80.4672379,53.3610517 74.7142857,53.5714286 C74.4166667,53.5714286 74.1190476,53.5714286 73.8214286,53.5714286 C73.5238095,53.5714286 73.2261905,53.5714286 72.9166667,53.5714286 C67.1637145,53.3610517 61.6064024,51.4284342 56.9642857,48.0238095 L56.9047619,48.0238095 L47.6547619,50.3333333 C43.964461,51.16097 40.687032,53.2699977 38.4047619,56.2857143 C36.1181089,59.2228231 34.8966564,62.8494035 34.9404762,66.5714286 L34.9404762,66.6785714 C34.7759457,72.0222034 35.0987089,77.369712 35.9047619,82.6547619 C41.4761905,122.642857 73.7142857,150.190476 73.7142857,150.190476 C73.7142857,150.190476 105.940476,122.642857 111.547619,82.6547619 C112.36453,77.3547557 112.695271,71.9911717 112.535714,66.6309524 L112.595238,66.5238095 Z" id="Shape" fill="#ED5C14"></path>
                <path d="M31.3333333,67.3452381 L31.3333333,66.5595238 C31.2983348,62.6451973 32.4162142,58.8071447 34.547619,55.5238095 C31.5813912,57.3333753 28.1361497,58.200912 24.6666667,58.0119048 C20.938473,57.883964 17.3345319,56.6397956 14.3214286,54.4404762 L8.36904762,55.9404762 C5.99953051,56.4800668 3.89363524,57.8320516 2.41666667,59.7619048 C0.905004134,61.6390052 0.0703692546,63.9709499 0.0476190476,66.3809524 L0.0476190476,75.5357143 C0.0476190476,121.821429 47.547619,141.916667 66.3809524,148.071429 C56.8571429,138.357143 36.8095238,114.666667 32.3928571,83.1428571 C31.612047,77.9144099 31.2577046,72.6311255 31.3333333,67.3452381 Z" id="Shape" fill="#FFBFA1"></path>
                <path d="M145.559524,59.7142857 C144.082555,57.7844325 141.97666,56.4324478 139.607143,55.8928571 L133.654762,54.3928571 C130.637989,56.5937685 127.029774,57.8379806 123.297619,57.9642857 C119.49635,58.1749437 115.731359,57.1291127 112.583333,54.9880952 C114.940154,58.3660018 116.188252,62.3931993 116.154762,66.5119048 L116.154762,67.297619 C116.236796,72.5836732 115.882419,77.867481 115.095238,83.0952381 C110.642857,114.833333 90.3571429,138.642857 80.9047619,148.22619 C99.2857143,142.27381 147.880952,122.297619 147.880952,75.4880952 L147.880952,66.3809524 C147.882453,63.9602967 147.064209,61.6104659 145.559524,59.7142857 Z" id="Shape" fill="#FFBFA1"></path>
            </g>
        </g>
    </g>
</svg>