<?xml version="1.0" encoding="UTF-8"?>
<svg width="250px" height="250px" viewBox="0 0 250 250" version="1.1" xmlns="http://www.w3.org/2000/svg" xmlns:xlink="http://www.w3.org/1999/xlink">
    <!-- Generator: Sketch 48.2 (47327) - http://www.bohemiancoding.com/sketch -->
    <title>Images/Community System/Ecological function</title>
    <desc>Created with Sketch.</desc>
    <defs></defs>
    <g id="Library-Symbols" stroke="none" stroke-width="1" fill="none" fill-rule="evenodd">
        <g id="Images/Community-System/Ecological-function">
            <circle id="Oval-2" fill="#ECFEC6" cx="125" cy="125" r="125"></circle>
            <g id="ecological-function" transform="translate(50.000000, 66.000000)" fill="#85C005" fill-rule="nonzero">
                <path d="M66.4047619,110.345238 C59.726117,110.311862 53.0783731,109.435896 46.6190476,107.738095 C41.7404407,106.342956 36.966624,104.604491 32.3333333,102.535714 L27.1309524,99.9285714 C26.2619048,99.9285714 25.3095238,100.619048 24.2619048,102.011905 C23.5714286,102.876984 22.4444444,104.440476 20.8809524,106.702381 C19.5865982,109.13528 18.0124353,111.408627 16.1904762,113.47619 C14.2857143,115.72619 12.3214286,116.857143 10.4166667,116.857143 C7.39246692,116.90531 4.51356181,115.562406 2.60714286,113.214286 C0.969109342,111.542144 0.0358104041,109.304783 0,106.964286 C0,104.702381 1.12698413,102.357143 3.38095238,99.9285714 C5.47470799,97.7650547 7.74003079,95.7744371 10.1547619,93.9761905 C11.7618365,92.8310297 13.245949,91.5224574 14.5833333,90.0714286 C15.9761905,88.6428571 16.6666667,87.5119048 16.6666667,86.6428571 L15.6190476,84.8214286 C15.1071429,83.2619048 14.5833333,81.5238095 14.0595238,79.6190476 C13.5323562,76.8728796 13.2732027,74.0819954 13.2857143,71.2857143 C13.2857143,58.7857143 17.797619,47.6746032 26.8214286,37.952381 C34.9880952,29.0952381 45.4920635,22.5833333 58.3333333,18.4166667 C62.4037815,17.1820042 66.5940254,16.3838625 70.8333333,16.0357143 C74.1349206,15.8690476 79.2579365,15.6984127 86.202381,15.5238095 C96.265873,15.1666667 103.468254,14.7301587 107.809524,14.2142857 C115.277778,13.1825397 120.488095,11.1984127 123.440476,8.26190476 L126.047619,5.88095238 C127.403394,4.27891343 128.978444,2.8761968 130.72619,1.71428571 C132.860499,0.623418753 135.234979,0.0871137123 137.630952,0.154761905 C140.321429,0.154761905 142.714286,2.32142857 144.77381,6.66666667 C146.773636,10.9673827 148.17553,15.5215348 148.940476,20.202381 C149.583105,23.9032318 149.933393,27.6489297 149.988095,31.4047619 C149.988095,46.3333333 146.253968,59.6150794 138.785714,71.25 C130.81746,83.5912698 118.845238,93.6706349 102.869048,101.488095 C91.5659224,107.229124 79.0820262,110.261451 66.4047619,110.345238 Z M65.4761905,56.4404762 C76.3174603,51.4087302 89.1190476,49.4246032 103.880952,50.4880952 C104.928842,50.6586384 105.995118,50.317961 106.75,49.5714286 C107.605493,48.8265101 108.166964,47.8006644 108.333333,46.6785714 C108.521998,45.5897137 108.181703,44.4760206 107.416667,43.6785714 C106.644075,42.8118195 105.581424,42.2572084 104.428571,42.1190476 C88.452381,40.9047619 74.3452381,43.1626984 62.1071429,48.8928571 C49.8690476,54.6230159 39.1547619,63.9960317 29.9642857,77.0119048 C29.2715688,77.846479 28.9838832,78.9449149 29.1785714,80.0119048 C29.5453602,82.3164846 31.6885565,83.9040374 34,83.5833333 C35.1301664,83.4010178 36.1251809,82.7362264 36.7261905,81.7619048 C45.0515873,69.9126984 54.6349206,61.4722222 65.4761905,56.4404762 Z" id="Shape"></path>
            </g>
        </g>
    </g>
</svg>