<?xml version="1.0" encoding="UTF-8"?>
<svg width="250px" height="250px" viewBox="0 0 250 250" version="1.1" xmlns="http://www.w3.org/2000/svg" xmlns:xlink="http://www.w3.org/1999/xlink">
    <!-- Generator: Sketch 48.2 (47327) - http://www.bohemiancoding.com/sketch -->
    <title>Images/Community System/Ecological function</title>
    <desc>Created with Sketch.</desc>
    <defs></defs>
    <g id="Library-Symbols" stroke="none" stroke-width="1" fill="none" fill-rule="evenodd">
        <g id="Images/Community-System/Ecological-function">
            <circle id="Oval-2" fill="#BFEFE9" cx="125" cy="125" r="125"></circle>
            <path d="M116.404762,176.345238 C109.726117,176.311862 103.078373,175.435896 96.6190476,173.738095 C91.7404407,172.342956 86.966624,170.604491 82.3333333,168.535714 L77.1309524,165.928571 C76.2619048,165.928571 75.3095238,166.619048 74.2619048,168.011905 C73.5714286,168.876984 72.4444444,170.440476 70.8809524,172.702381 C69.5865982,175.13528 68.0124353,177.408627 66.1904762,179.47619 C64.2857143,181.72619 62.3214286,182.857143 60.4166667,182.857143 C57.3924669,182.90531 54.5135618,181.562406 52.6071429,179.214286 C50.9691093,177.542144 50.0358104,175.304783 50,172.964286 C50,170.702381 51.1269841,168.357143 53.3809524,165.928571 C55.474708,163.765055 57.7400308,161.774437 60.1547619,159.97619 C61.7618365,158.83103 63.245949,157.522457 64.5833333,156.071429 C65.9761905,154.642857 66.6666667,153.511905 66.6666667,152.642857 L65.6190476,150.821429 C65.1071429,149.261905 64.5833333,147.52381 64.0595238,145.619048 C63.5323562,142.87288 63.2732027,140.081995 63.2857143,137.285714 C63.2857143,124.785714 67.797619,113.674603 76.8214286,103.952381 C84.9880952,95.0952381 95.4920635,88.5833333 108.333333,84.4166667 C112.403781,83.1820042 116.594025,82.3838625 120.833333,82.0357143 C124.134921,81.8690476 129.257937,81.6984127 136.202381,81.5238095 C146.265873,81.1666667 153.468254,80.7301587 157.809524,80.2142857 C165.277778,79.1825397 170.488095,77.1984127 173.440476,74.2619048 L176.047619,71.8809524 C177.403394,70.2789134 178.978444,68.8761968 180.72619,67.7142857 C182.860499,66.6234188 185.234979,66.0871137 187.630952,66.1547619 C190.321429,66.1547619 192.714286,68.3214286 194.77381,72.6666667 C196.773636,76.9673827 198.17553,81.5215348 198.940476,86.202381 C199.583105,89.9032318 199.933393,93.6489297 199.988095,97.4047619 C199.988095,112.333333 196.253968,125.615079 188.785714,137.25 C180.81746,149.59127 168.845238,159.670635 152.869048,167.488095 C141.565922,173.229124 129.082026,176.261451 116.404762,176.345238 Z M115.47619,122.440476 C126.31746,117.40873 139.119048,115.424603 153.880952,116.488095 C154.928842,116.658638 155.995118,116.317961 156.75,115.571429 C157.605493,114.82651 158.166964,113.800664 158.333333,112.678571 C158.521998,111.589714 158.181703,110.476021 157.416667,109.678571 C156.644075,108.81182 155.581424,108.257208 154.428571,108.119048 C138.452381,106.904762 124.345238,109.162698 112.107143,114.892857 C99.8690476,120.623016 89.1547619,129.996032 79.9642857,143.011905 C79.2715688,143.846479 78.9838832,144.944915 79.1785714,146.011905 C79.5453602,148.316485 81.6885565,149.904037 84,149.583333 C85.1301664,149.401018 86.1251809,148.736226 86.7261905,147.761905 C95.0515873,135.912698 104.634921,127.472222 115.47619,122.440476 Z" id="Shape" fill="#15514B" fill-rule="nonzero"></path>
        </g>
    </g>
</svg>