<?xml version="1.0" encoding="UTF-8"?>
<svg width="250px" height="250px" viewBox="0 0 250 250" version="1.1" xmlns="http://www.w3.org/2000/svg" xmlns:xlink="http://www.w3.org/1999/xlink">
    <!-- Generator: Sketch 48.2 (47327) - http://www.bohemiancoding.com/sketch -->
    <title>Images/Community System/Emergency services</title>
    <desc>Created with Sketch.</desc>
    <defs></defs>
    <g id="Library-Symbols" stroke="none" stroke-width="1" fill="none" fill-rule="evenodd">
        <g id="Images/Community-System/Emergency-services">
            <circle id="Oval-2" fill="#BFEFE9" cx="125" cy="125" r="125"></circle>
            <path d="M187.882812,65.7265625 C190.826931,65.7203101 193.652095,66.8878921 195.732806,68.9708021 C197.813516,71.0537122 198.978113,73.8801088 198.96875,76.8242188 L198.96875,156.40625 C198.978152,157.880274 198.39756,159.296818 197.356348,160.340231 C196.315136,161.383644 194.899821,161.967227 193.425781,161.960938 L184.179687,161.960938 C184.204766,167.854078 181.874015,173.512926 177.705797,177.678943 C173.537579,181.84496 167.877502,184.172722 161.984375,184.144531 C156.081998,184.169688 150.414779,181.832889 146.245535,177.65484 C142.076291,173.476791 139.751454,167.804654 139.789062,161.902344 L110.210937,161.902344 C110.3119,167.810457 107.966637,173.497614 103.730469,177.617188 C99.6096951,181.850232 93.9222593,184.191369 88.015625,184.085938 C82.0976441,184.196916 76.39722,181.85567 72.265625,177.617187 C68.0411913,173.492414 65.7087471,167.805491 65.8203125,161.902344 L56.5742187,161.902344 C55.0981738,161.930001 53.6767243,161.344448 52.6484375,160.285156 C51.6033945,159.266533 51.0193004,157.865553 51.03125,156.40625 L51.03125,152.65625 C51.0031537,151.176689 51.5885203,149.751448 52.6484375,148.71875 C53.6767243,147.659458 55.0981738,147.073906 56.5742187,147.101562 L58.4257812,147.101562 L58.4257812,122.140625 C58.3881431,119.176804 59.580366,116.329895 61.71875,114.277344 L84.78125,91.15625 C86.8394325,89.0400414 89.6812539,87.8693807 92.6328125,87.921875 L102.804687,87.921875 L102.804687,76.8242188 C102.79531,73.8780725 103.961512,71.0498883 106.044763,68.9666377 C108.128013,66.8833871 110.956197,65.7171848 113.902344,65.7265625 L187.882812,65.7265625 Z M102.804687,124.90625 L102.804687,98.984375 L92.6328125,98.984375 L69.5234375,122.140625 L69.5234375,124.90625 L102.804687,124.90625 Z M88.015625,172.953125 C94.1446913,172.953125 99.1132812,167.984535 99.1132812,161.855469 C99.1132812,155.726402 94.1446913,150.757813 88.015625,150.757813 C81.8865587,150.757813 76.9179687,155.726402 76.9179687,161.855469 C76.9179687,167.984535 81.8865587,172.953125 88.015625,172.953125 Z M169.390625,106.367188 C169.397667,105.629849 169.101005,104.922097 168.570312,104.410156 C168.046894,103.905974 167.339289,103.639033 166.613281,103.671875 L153.664062,103.671875 L153.664062,90.78125 C153.667194,90.043697 153.375588,89.3354476 152.854055,88.8139141 C152.332521,88.2923807 151.624272,88.0007743 150.886719,88.0039062 L143.492187,88.0039062 C142.754634,88.0007743 142.046385,88.2923807 141.524852,88.8139141 C141.003318,89.3354476 140.711712,90.043697 140.714844,90.78125 L140.714844,103.671875 L127.824219,103.671875 C127.084678,103.656178 126.36967,103.937393 125.838967,104.452681 C125.308264,104.967969 125.006102,105.67438 125,106.414062 L125,113.820312 C125.012892,115.343144 126.254471,116.569007 127.777344,116.5625 L140.667969,116.5625 L140.667969,129.453125 C140.664837,130.190678 140.956443,130.898927 141.477977,131.420461 C141.99951,131.941994 142.707759,132.233601 143.445312,132.230469 L150.839844,132.230469 C151.577397,132.233601 152.285646,131.941994 152.80718,131.420461 C153.328713,130.898927 153.620319,130.190678 153.617187,129.453125 L153.617187,116.5625 L166.613281,116.5625 C167.349681,116.576823 168.058785,116.28384 168.570312,115.753906 C169.101005,115.241965 169.397667,114.534214 169.390625,113.796875 L169.390625,106.367188 Z M161.984375,172.953125 C167.272035,172.946679 171.819137,169.206736 172.845819,164.019702 C173.872501,158.832669 171.092949,153.642544 166.206437,151.622299 C161.319924,149.602055 155.686789,151.314099 152.750837,155.711777 C149.814884,160.109455 150.393443,165.968514 154.132812,169.707031 C156.180124,171.845979 159.023785,173.038619 161.984375,173 L161.984375,172.953125 Z" id="Shape" fill="#15514B" fill-rule="nonzero"></path>
        </g>
    </g>
</svg>