<?xml version="1.0" encoding="UTF-8"?>
<svg width="250px" height="250px" viewBox="0 0 250 250" version="1.1" xmlns="http://www.w3.org/2000/svg" xmlns:xlink="http://www.w3.org/1999/xlink">
    <!-- Generator: Sketch 48.2 (47327) - http://www.bohemiancoding.com/sketch -->
    <title>Images/Community System/Emergency management</title>
    <desc>Created with Sketch.</desc>
    <defs></defs>
    <g id="Library-Symbols" stroke="none" stroke-width="1" fill="none" fill-rule="evenodd">
        <g id="Images/Community-System/Emergency-management">
            <circle id="Oval-2" fill="#FCE7DC" cx="125" cy="125" r="125"></circle>
            <g id="emergency-management" transform="translate(50.000000, 59.000000)">
                <path d="M120.75,130.324219 L121.464844,28.8046875 L112.230469,28.8046875 L112.335938,14.9648437 C112.424861,11.2797806 110.987224,7.72173524 108.363281,5.1328125 C105.816474,2.46624549 102.276978,0.976601552 98.5898438,1.01953125 L52.4414062,0.64453125 C48.7570617,0.546892765 45.1971124,1.98105588 42.609375,4.60546875 C39.9488661,7.16034577 38.4642182,10.7022916 38.5078125,14.390625 L38.4023438,28.2304688 L29.1796875,28.125 L28.4648438,129.644531 L120.75,130.324219 Z M102.65625,79.4414062 C102.694063,80.6864198 102.208711,81.8903636 101.317983,82.7610494 C100.427256,83.6317352 99.2125809,84.0895688 97.96875,84.0234375 L84.1289063,83.9179687 L84.0351563,97.7578125 C84.0802376,99.0049278 83.5971849,100.213207 82.7047828,101.085531 C81.8123808,101.957854 80.593423,102.413289 79.3476563,102.339844 L70.125,102.339844 C68.8778847,102.384925 67.669605,101.901872 66.797282,101.00947 C65.9249589,100.117068 65.4695234,98.8981105 65.5429688,97.6523437 L65.6367188,83.8125 L51.796875,83.71875 C50.5497597,83.7638314 49.34148,83.2807787 48.469157,82.3883766 C47.5968339,81.4959745 47.1413984,80.2770167 47.2148438,79.03125 L47.2148438,69.8085937 C47.1832122,68.5718346 47.6621521,67.3766042 48.5390625,66.5039062 C49.4221849,65.6332881 50.6283484,65.1703591 51.8671875,65.2265625 L65.7070313,65.3203125 L65.8007813,51.4804687 C65.762968,50.2354552 66.2483207,49.0315114 67.1390478,48.1608256 C68.029775,47.2901398 69.2444504,46.8323062 70.4882813,46.8984375 L79.7109375,46.96875 C80.9580528,46.9236686 82.1663325,47.4067213 83.0386555,48.2991234 C83.9109786,49.1915255 84.3664141,50.4104833 84.2929688,51.65625 L84.1992188,65.4960937 L98.1328125,65.625 C99.3799278,65.5799186 100.588207,66.0629713 101.460531,66.9553734 C102.332854,67.8477755 102.788289,69.0667333 102.714844,70.3125 L102.65625,79.4414062 Z M93.84375,19.3828125 L93.75,28.6171875 L56.8359375,28.359375 L56.90625,19.125 L93.84375,19.3828125 Z" id="Shape" fill="#ED5C14" fill-rule="nonzero"></path>
                <path d="M14.625,129.574219 C10.940449,129.615969 7.40283088,128.131357 4.8515625,125.472656 C2.2276195,122.883734 0.789982574,119.325688 0.87890625,115.640625 L1.39453125,41.8125 C1.35723951,38.1264715 2.84597772,34.5891277 5.5078125,32.0390625 C8.10665672,29.436603 11.6634458,28.0206703 15.3398437,28.125 L19.921875,28.125 L19.2070312,129.632812 L14.625,129.574219 Z" id="Path" fill="#FFBFA1"></path>
                <path d="M148.535156,116.648437 C148.526036,120.325958 147.047455,123.847293 144.428407,126.428926 C141.809359,129.010559 138.267115,130.438323 134.589844,130.394531 L129.984375,130.39551 L130.6875,28.8867188 L135.304688,28.8867188 C138.980153,28.8958703 142.499684,30.3728435 145.080975,32.9893434 C147.662265,35.6058432 149.091423,39.1450601 149.050781,42.8203125 L148.535156,116.648437 Z" id="Path" fill="#FFBFA1"></path>
            </g>
        </g>
    </g>
</svg>