<?xml version="1.0" encoding="UTF-8"?>
<svg width="250px" height="250px" viewBox="0 0 250 250" version="1.1" xmlns="http://www.w3.org/2000/svg" xmlns:xlink="http://www.w3.org/1999/xlink">
    <!-- Generator: Sketch 48.2 (47327) - http://www.bohemiancoding.com/sketch -->
    <title>Images/Community System/Emergency services</title>
    <desc>Created with Sketch.</desc>
    <defs></defs>
    <g id="Library-Symbols" stroke="none" stroke-width="1" fill="none" fill-rule="evenodd">
        <g id="Images/Community-System/Emergency-services">
            <circle id="Oval-2" fill="#FCE7DC" cx="125" cy="125" r="125"></circle>
            <g id="emergency-services" transform="translate(51.000000, 65.000000)" fill="#ED5C14" fill-rule="nonzero">
                <path d="M136.882812,0.7265625 C139.826931,0.720310059 142.652095,1.88789207 144.732806,3.97080214 C146.813516,6.0537122 147.978113,8.88010884 147.96875,11.8242187 L147.96875,91.40625 C147.978152,92.8802736 147.39756,94.2968176 146.356348,95.340231 C145.315136,96.3836443 143.899821,96.9672267 142.425781,96.9609375 L133.179687,96.9609375 C133.204766,102.854078 130.874015,108.512926 126.705797,112.678943 C122.537579,116.84496 116.877502,119.172722 110.984375,119.144531 C105.081998,119.169688 99.4147786,116.832889 95.2455349,112.65484 C91.0762913,108.476791 88.7514537,102.804654 88.7890625,96.9023438 L59.2109375,96.9023438 C59.3118999,102.810457 56.9666368,108.497614 52.7304687,112.617187 C48.6096951,116.850232 42.9222593,119.191369 37.015625,119.085937 C31.0976441,119.196916 25.39722,116.85567 21.265625,112.617187 C17.0411913,108.492414 14.7087471,102.805491 14.8203125,96.9023437 L5.57421875,96.9023437 C4.09817379,96.9300007 2.67672431,96.3444484 1.6484375,95.2851562 C0.603394492,94.2665326 0.0193004371,92.8655534 0.03125,91.40625 L0.03125,87.65625 C0.00315370137,86.1766888 0.588520265,84.7514485 1.6484375,83.71875 C2.67672431,82.6594578 4.09817379,82.0739055 5.57421875,82.1015625 L7.42578125,82.1015625 L7.42578125,57.140625 C7.38814313,54.1768041 8.580366,51.3298946 10.71875,49.2773437 L33.78125,26.15625 C35.8394325,24.0400414 38.6812539,22.8693807 41.6328125,22.921875 L51.8046875,22.921875 L51.8046875,11.8242187 C51.7953098,8.87807247 52.9615121,6.04988826 55.0447627,3.96663769 C57.1280133,1.88338712 59.9561975,0.717184775 62.9023437,0.7265625 L136.882812,0.7265625 Z M51.8046875,59.90625 L51.8046875,33.984375 L41.6328125,33.984375 L18.5234375,57.140625 L18.5234375,59.90625 L51.8046875,59.90625 Z M37.015625,107.953125 C43.1446913,107.953125 48.1132812,102.984535 48.1132812,96.8554688 C48.1132812,90.7264024 43.1446913,85.7578125 37.015625,85.7578125 C30.8865587,85.7578125 25.9179687,90.7264024 25.9179687,96.8554688 C25.9179687,102.984535 30.8865587,107.953125 37.015625,107.953125 Z M118.390625,41.3671875 C118.397667,40.6298487 118.101005,39.9220974 117.570312,39.4101563 C117.046894,38.9059742 116.339289,38.6390335 115.613281,38.671875 L102.664062,38.671875 L102.664062,25.78125 C102.667194,25.043697 102.375588,24.3354476 101.854055,23.8139141 C101.332521,23.2923807 100.624272,23.0007743 99.8867187,23.0039063 L92.4921875,23.0039063 C91.7546345,23.0007743 91.0463851,23.2923807 90.5248516,23.8139141 C90.0033182,24.3354476 89.7117118,25.043697 89.7148437,25.78125 L89.7148437,38.671875 L76.8242187,38.671875 C76.0846778,38.6561781 75.3696698,38.9373931 74.8389671,39.4526812 C74.3082644,39.9679693 74.0061021,40.6743802 74,41.4140625 L74,48.8203125 C74.0128919,50.3431444 75.2544712,51.5690075 76.7773437,51.5625 L89.6679687,51.5625 L89.6679687,64.453125 C89.6648368,65.190678 89.9564432,65.8989274 90.4779766,66.4204609 C90.9995101,66.9419943 91.7077595,67.2336007 92.4453125,67.2304688 L99.8398437,67.2304688 C100.577397,67.2336007 101.285646,66.9419943 101.80718,66.4204609 C102.328713,65.8989274 102.620319,65.190678 102.617187,64.453125 L102.617187,51.5625 L115.613281,51.5625 C116.349681,51.5768231 117.058785,51.2838402 117.570312,50.7539063 C118.101005,50.2419651 118.397667,49.5342138 118.390625,48.796875 L118.390625,41.3671875 Z M110.984375,107.953125 C116.272035,107.946679 120.819137,104.206736 121.845819,99.0197024 C122.872501,93.8326689 120.092949,88.6425441 115.206437,86.6222994 C110.319924,84.6020546 104.686789,86.3140986 101.750837,90.7117771 C98.814884,95.1094555 99.3934429,100.968514 103.132812,104.707031 C105.180124,106.845979 108.023785,108.038619 110.984375,108 L110.984375,107.953125 Z" id="Shape"></path>
            </g>
        </g>
    </g>
</svg>