<?xml version="1.0" encoding="UTF-8"?>
<svg width="250px" height="250px" viewBox="0 0 250 250" version="1.1" xmlns="http://www.w3.org/2000/svg" xmlns:xlink="http://www.w3.org/1999/xlink">
    <!-- Generator: Sketch 48.2 (47327) - http://www.bohemiancoding.com/sketch -->
    <title>Images/Community System/Emotional and mental well-being</title>
    <desc>Created with Sketch.</desc>
    <defs></defs>
    <g id="Library-Symbols" stroke="none" stroke-width="1" fill="none" fill-rule="evenodd">
        <g id="Images/Community-System/Emotional-and-mental-well-being">
            <circle id="Oval-2" fill="#BFEFE9" cx="125" cy="125" r="125"></circle>
            <path d="M101.925781,137.964844 C116.198304,146.230285 133.801696,146.230285 148.074219,137.964844 C155.088107,133.929302 160.906832,128.106534 164.9375,121.089844 C173.217903,106.825534 173.217903,89.2174352 164.9375,74.953125 C160.913415,67.9192233 155.09412,62.0797082 148.074219,58.03125 C133.801696,49.7658088 116.198304,49.7658088 101.925781,58.03125 C94.9118932,62.0667913 89.0931678,67.8895602 85.0625,74.90625 C76.7820972,89.1705602 76.7820972,106.778659 85.0625,121.042969 C89.0865846,128.07687 94.9058798,133.916386 101.925781,137.964844 Z M103.625,84.75 C105.96875,82.4648438 109.226562,81.328125 113.375,81.328125 C115.792773,81.4138988 118.138607,82.1728453 120.148437,83.5195313 C121.909736,84.593908 123.538172,85.8722695 125,87.328125 C126.465064,85.8928031 128.093369,84.6342106 129.851562,83.578125 C131.861393,82.231439 134.207227,81.4724925 136.625,81.3867188 C140.773437,81.3867188 144.03125,82.5585938 146.375,84.8085938 C148.81809,87.3399504 150.092588,90.7768456 149.890625,94.2890625 C149.793342,97.3301807 148.771363,100.269394 146.960937,102.714844 C145.982457,104.178106 144.846791,105.529902 143.574219,106.746094 L126.464844,123.257812 C125.620238,123.975765 124.379762,123.975765 123.535156,123.257812 L106.414062,106.6875 C105.202552,105.564614 104.128631,104.301871 103.214844,102.925781 C101.30093,100.419795 100.211788,97.3816604 100.097656,94.2304688 C99.8988006,90.7165222 101.177637,87.2793832 103.625,84.75 Z" id="Shape" fill="#15514B" fill-rule="nonzero"></path>
            <path d="M192.96875,158.003906 C189.149067,153.116245 183.774052,149.680371 177.734375,148.265625 L157.296875,143.015625 C138.002991,156.897021 111.997009,156.897021 92.703125,143.015625 L72.265625,148.265625 C66.2259476,149.680371 60.850933,153.116245 57.03125,158.003906 C53.1744503,162.830433 51.1044581,168.84169 51.171875,175.019531 L51.171875,185.695313 C51.1055073,189.379754 52.5693342,192.926882 55.2148438,195.492188 C57.780149,198.137697 61.3272775,199.601524 65.0117188,199.535156 L184.988281,199.535156 C188.6617,199.544523 192.187363,198.089409 194.784871,195.491902 C197.382378,192.894394 198.837492,189.368731 198.828125,185.695313 L198.828125,175.019531 C198.895542,168.84169 196.82555,162.830433 192.96875,158.003906 Z" id="Shape" fill="#4AA49B" fill-rule="nonzero"></path>
        </g>
    </g>
</svg>