<?xml version="1.0" encoding="UTF-8"?>
<svg width="250px" height="250px" viewBox="0 0 250 250" version="1.1" xmlns="http://www.w3.org/2000/svg" xmlns:xlink="http://www.w3.org/1999/xlink">
    <!-- Generator: Sketch 48.2 (47327) - http://www.bohemiancoding.com/sketch -->
    <title>Images/Community System/Emotional and mental well-being</title>
    <desc>Created with Sketch.</desc>
    <defs></defs>
    <g id="Library-Symbols" stroke="none" stroke-width="1" fill="none" fill-rule="evenodd">
        <g id="Images/Community-System/Emotional-and-mental-well-being">
            <circle id="Oval-2" fill="#F8F1D4" cx="125" cy="125" r="125"></circle>
            <g id="emotional-and-mental-health" transform="translate(51.000000, 51.000000)" fill-rule="nonzero">
                <path d="M50.9257812,86.9648438 C65.198304,95.2302849 82.801696,95.2302849 97.0742187,86.9648438 C104.088107,82.9293025 109.906832,77.1065335 113.9375,70.0898438 C122.217903,55.8255335 122.217903,38.2174352 113.9375,23.953125 C109.913415,16.9192233 104.09412,11.0797082 97.0742187,7.03125 C82.801696,-1.23419118 65.198304,-1.23419118 50.9257812,7.03125 C43.9118932,11.0667913 38.0931678,16.8895602 34.0625,23.90625 C25.7820972,38.1705602 25.7820972,55.7786585 34.0625,70.0429688 C38.0865846,77.0768704 43.9058798,82.9163856 50.9257812,86.9648438 Z M52.625,33.75 C54.96875,31.4648438 58.2265625,30.328125 62.375,30.328125 C64.7927725,30.4138988 67.1386072,31.1728453 69.1484375,32.5195313 C70.9097358,33.593908 72.5381717,34.8722695 74,36.328125 C75.4650645,34.8928031 77.0933685,33.6342106 78.8515625,32.578125 C80.8613928,31.231439 83.2072275,30.4724925 85.625,30.3867188 C89.7734375,30.3867188 93.03125,31.5585938 95.375,33.8085938 C97.8180903,36.3399504 99.0925879,39.7768456 98.890625,43.2890625 C98.7933421,46.3301807 97.7713625,49.2693939 95.9609375,51.7148438 C94.9824565,53.1781064 93.8467911,54.529902 92.5742187,55.7460937 L75.4648437,72.2578125 C74.6202381,72.9757654 73.3797619,72.9757654 72.5351562,72.2578125 L55.4140625,55.6875 C54.2025519,54.5646141 53.1286306,53.3018715 52.2148437,51.9257813 C50.30093,49.4197946 49.2117875,46.3816604 49.0976562,43.2304688 C48.8988006,39.7165222 50.1776372,36.2793832 52.625,33.75 Z" id="Shape" fill="#F2C706"></path>
                <path d="M141.96875,107.003906 C138.149067,102.116245 132.774052,98.6803706 126.734375,97.265625 L106.296875,92.015625 C87.0029909,105.897021 60.9970091,105.897021 41.703125,92.015625 L21.265625,97.265625 C15.2259476,98.6803706 9.85093301,102.116245 6.03125,107.003906 C2.17445031,111.830433 0.104458095,117.84169 0.171875,124.019531 L0.171875,134.695313 C0.105507286,138.379754 1.56933423,141.926882 4.21484375,144.492188 C6.78014904,147.137697 10.3272775,148.601524 14.0117188,148.535156 L133.988281,148.535156 C137.6617,148.544523 141.187363,147.089409 143.784871,144.491902 C146.382378,141.894394 147.837492,138.368731 147.828125,134.695313 L147.828125,124.019531 C147.895542,117.84169 145.82555,111.830433 141.96875,107.003906 Z" id="Shape" fill="#F6E286"></path>
            </g>
        </g>
    </g>
</svg>