<?xml version="1.0" encoding="UTF-8"?>
<svg width="250px" height="250px" viewBox="0 0 250 250" version="1.1" xmlns="http://www.w3.org/2000/svg" xmlns:xlink="http://www.w3.org/1999/xlink">
    <!-- Generator: Sketch 48.2 (47327) - http://www.bohemiancoding.com/sketch -->
    <title>Images/Community System/Employment and job access</title>
    <desc>Created with Sketch.</desc>
    <defs></defs>
    <g id="Library-Symbols" stroke="none" stroke-width="1" fill="none" fill-rule="evenodd">
        <g id="Images/Community-System/Employment-and-job-access">
            <circle id="Oval-2" fill="#BFEFE9" cx="125" cy="125" r="125"></circle>
            <path d="M59.8511811,87.0110236 C61.5325815,87.0038686 63.1471828,87.6686372 64.3361232,88.8575776 C65.5250636,90.046518 66.1898322,91.6611193 66.1826772,93.3425197 L66.1826772,148.224409 C66.193417,149.908124 65.5302316,151.526181 64.3408995,152.718028 C63.1515675,153.909874 61.5349142,154.576475 59.8511811,154.569291 L47.1748031,154.569291 C45.4901442,154.61513 43.8617954,153.960883 42.6771654,152.762205 C41.4678197,151.581684 40.7994318,149.954305 40.8299213,148.264567 L40.8299213,93.3826772 C40.7919849,91.6837003 41.4609591,90.0451982 42.6771654,88.8582677 C43.8517334,87.6482836 45.4753943,86.9794322 47.1614173,87.0110236 L59.8511811,87.0110236 Z M53.5062992,147.247244 C54.9093512,147.251845 56.2516597,146.675185 57.2141732,145.654331 C58.2222499,144.689724 58.7923827,143.355079 58.7923827,141.959843 C58.7923827,140.564606 58.2222499,139.229961 57.2141732,138.265354 C56.251109,137.24947 54.9128186,136.674095 53.5129921,136.674095 C52.1131657,136.674095 50.7748752,137.24947 49.811811,138.265354 C48.8037344,139.229961 48.2336015,140.564606 48.2336015,141.959843 C48.2336015,143.355079 48.8037344,144.689724 49.811811,145.654331 C50.7757408,146.661924 52.1119023,147.22834 53.5062992,147.220472 L53.5062992,147.247244 Z M203.494488,87.0511811 C205.176023,87.0476261 206.789905,87.7131227 207.980188,88.9008941 C209.17047,90.0886655 209.839374,91.7011382 209.83937,93.3826772 L209.83937,148.264567 C209.842934,149.948424 209.175602,151.564341 207.984932,152.755011 C206.794262,153.94568 205.178345,154.613013 203.494488,154.609449 L190.81811,154.609449 C189.134377,154.616633 187.517724,153.950032 186.328392,152.758185 C185.13906,151.566339 184.475874,149.948281 184.486614,148.264567 L184.486614,93.3826772 C184.479459,91.7012768 185.144228,90.0866754 186.333168,88.897735 C187.522109,87.7087947 189.13671,87.0440261 190.81811,87.0511811 L203.494488,87.0511811 Z M197.162992,147.287402 C199.723275,147.337001 201.960276,145.566802 202.500519,143.063675 C203.040761,140.560547 201.732993,138.025292 199.38016,137.014508 C197.027326,136.003724 194.288151,136.800401 192.844436,138.915394 C191.40072,141.030387 191.656662,143.87156 193.455118,145.694488 C194.429106,146.690708 195.769931,147.242528 197.162992,147.220472 L197.162992,147.287402 Z" id="Shape" fill="#4AA49B" fill-rule="nonzero"></path>
            <path d="M168.370079,134.23622 L147.247244,108.401575 L134.570866,121.6 C132.083449,124.504344 128.767079,126.578243 125.066929,127.543307 C121.429338,128.510054 117.596647,128.463765 113.983465,127.409449 C110.242501,126.320616 106.925409,124.110778 104.479528,121.077953 C101.839811,117.988221 100.412683,114.044591 100.46378,109.981102 C100.412324,105.885479 101.919627,101.923425 104.680315,98.8976378 L121.653543,79.3543307 C118.553883,76.1123716 114.252091,74.2957367 109.766929,74.3346457 L99.9952756,74.3346457 C94.9344015,74.2457989 90.0615436,76.25113 86.5291339,79.876378 L70.4661417,93.3425197 L70.4661417,141.933071 L95.2834646,167.285827 C97.7989994,169.784729 100.752914,171.79938 103.997638,173.229134 C107.320653,174.712032 110.920191,175.473911 114.559055,175.464567 C118.482888,175.64104 122.305144,174.187711 125.120472,171.448819 C128.318777,172.520828 131.821774,172.185124 134.758268,170.525197 C137.616848,169.11361 139.766919,166.585824 140.701575,163.537795 C145.911829,163.736028 150.864924,161.269568 153.846457,156.992126 C154.940058,155.557607 155.502944,153.788538 155.43937,151.985827 C156.245161,152.469519 157.178414,152.698165 158.116535,152.641732 C159.622864,152.726819 161.133545,152.591534 162.600787,152.240157 C164.504935,151.741306 166.239146,150.737776 167.620472,149.335433 C169.763635,147.529284 171.018549,144.882734 171.06063,142.080315 C171.316813,139.202369 170.338791,136.35102 168.370079,134.23622 Z" id="Path" fill="#15514B"></path>
            <path d="M169.173228,82.0314961 C165.010796,77.172593 158.932675,74.3755813 152.534646,74.3748031 L140.393701,74.3748031 C134.706956,74.3527371 129.307355,76.8709149 125.669291,81.2417323 L107.906299,101.534646 C103.679295,106.372345 103.679295,113.58986 107.906299,118.427559 C110.683697,122.026059 114.979574,124.124506 119.525197,124.10315 C124.063458,124.289493 128.439224,122.39727 131.411811,118.962992 L147.247244,102.110236 C148.173742,101.571981 149.33946,101.679421 150.151969,102.377953 C150.86674,103.21428 150.86674,104.44635 150.151969,105.282677 L171.569291,131.425197 C174.133257,134.302813 175.43949,138.08655 175.19685,141.933071 L180.216535,141.933071 L180.216535,94.6677165 L169.173228,82.0314961 Z" id="Path" fill="#15514B"></path>
        </g>
    </g>
</svg>