<?xml version="1.0" encoding="UTF-8"?>
<svg width="250px" height="250px" viewBox="0 0 250 250" version="1.1" xmlns="http://www.w3.org/2000/svg" xmlns:xlink="http://www.w3.org/1999/xlink">
    <!-- Generator: Sketch 48.2 (47327) - http://www.bohemiancoding.com/sketch -->
    <title>Images/Community System/Employment and job access</title>
    <desc>Created with Sketch.</desc>
    <defs></defs>
    <g id="Library-Symbols" stroke="none" stroke-width="1" fill="none" fill-rule="evenodd">
        <g id="Images/Community-System/Employment-and-job-access">
            <circle id="Oval-2" fill="#ECFEC6" cx="125" cy="125" r="125"></circle>
            <g id="employment-and-job-access" transform="translate(40.000000, 74.000000)">
                <path d="M19.8511811,13.0110236 C21.5325815,13.0038686 23.1471828,13.6686372 24.3361232,14.8575776 C25.5250636,16.046518 26.1898322,17.6611193 26.1826772,19.3425197 L26.1826772,74.2244094 C26.193417,75.9081236 25.5302316,77.5261811 24.3408995,78.7180276 C23.1515675,79.9098741 21.5349142,80.5764753 19.8511811,80.5692913 L7.17480315,80.5692913 C5.49014421,80.6151298 3.86179543,79.9608825 2.67716535,78.7622047 C1.46781967,77.5816844 0.799431804,75.9543053 0.82992126,74.2645669 L0.82992126,19.3826772 C0.791984881,17.6837003 1.46095913,16.0451982 2.67716535,14.8582677 C3.85173339,13.6482836 5.47539431,12.9794322 7.16141732,13.0110236 L19.8511811,13.0110236 Z M13.5062992,73.2472441 C14.9093512,73.2518448 16.2516597,72.6751852 17.2141732,71.6543307 C18.2222499,70.6897239 18.7923827,69.355079 18.7923827,67.9598425 C18.7923827,66.564606 18.2222499,65.2299612 17.2141732,64.2653543 C16.251109,63.2494698 14.9128186,62.6740946 13.5129921,62.6740946 C12.1131657,62.6740946 10.7748752,63.2494698 9.81181102,64.2653543 C8.80373439,65.2299612 8.23360152,66.564606 8.23360152,67.9598425 C8.23360152,69.355079 8.80373439,70.6897239 9.81181102,71.6543307 C10.7757408,72.6619239 12.1119023,73.2283402 13.5062992,73.2204724 L13.5062992,73.2472441 Z M163.494488,13.0511811 C165.176023,13.0476261 166.789905,13.7131227 167.980188,14.9008941 C169.17047,16.0886655 169.839374,17.7011382 169.83937,19.3826772 L169.83937,74.2645669 C169.842934,75.9484242 169.175602,77.5643412 167.984932,78.7550107 C166.794262,79.9456803 165.178345,80.6130125 163.494488,80.6094488 L150.81811,80.6094488 C149.134377,80.6166327 147.517724,79.9500315 146.328392,78.7581851 C145.13906,77.5663386 144.475874,75.9482811 144.486614,74.2645669 L144.486614,19.3826772 C144.479459,17.7012768 145.144228,16.0866754 146.333168,14.897735 C147.522109,13.7087947 149.13671,13.0440261 150.81811,13.0511811 L163.494488,13.0511811 Z M157.162992,73.2874016 C159.723275,73.3370007 161.960276,71.5668023 162.500519,69.0636747 C163.040761,66.5605471 161.732993,64.025292 159.38016,63.014508 C157.027326,62.0037239 154.288151,62.8004006 152.844436,64.9153936 C151.40072,67.0303865 151.656662,69.8715604 153.455118,71.6944882 C154.429106,72.6907083 155.769931,73.2425278 157.162992,73.2204724 L157.162992,73.2874016 Z" id="Shape" fill="#BCE95B" fill-rule="nonzero"></path>
                <path d="M128.370079,60.2362205 L107.247244,34.4015748 L94.5708661,47.6 C92.0834492,50.5043438 88.7670788,52.5782431 85.0669291,53.5433071 C81.4293376,54.5100538 77.5966471,54.4637652 73.9834646,53.4094488 C70.2425012,52.3206158 66.9254087,50.1107781 64.4795276,47.0779528 C61.8398109,43.9882208 60.412683,40.0445906 60.4637795,35.9811024 C60.4123243,31.8854786 61.9196274,27.9234247 64.680315,24.8976378 L81.6535433,5.35433071 C78.5538828,2.11237155 74.2520914,0.295736664 69.7669291,0.334645669 L59.9952756,0.334645669 C54.9344015,0.245798854 50.0615436,2.25113004 46.5291339,5.87637795 L30.4661417,19.3425197 L30.4661417,67.9330709 L55.2834646,93.2858268 C57.7989994,95.7847286 60.7529143,97.7993802 63.9976378,99.2291339 C67.3206533,100.712032 70.9201913,101.473911 74.5590551,101.464567 C78.482888,101.64104 82.3051436,100.187711 85.1204724,97.4488189 C88.3187768,98.5208276 91.8217738,98.1851237 94.7582677,96.5251969 C97.6168485,95.1136095 99.7669187,92.5858243 100.701575,89.5377953 C105.911829,89.7360277 110.864924,87.2695681 113.846457,82.992126 C114.940058,81.557607 115.502944,79.7885379 115.43937,77.9858268 C116.245161,78.4695185 117.178414,78.6981655 118.116535,78.6417323 C119.622864,78.7268189 121.133545,78.591534 122.600787,78.2401575 C124.504935,77.7413063 126.239146,76.7377764 127.620472,75.3354331 C129.763635,73.5292838 131.018549,70.8827337 131.06063,68.080315 C131.316813,65.2023688 130.338791,62.3510201 128.370079,60.2362205 Z" id="Path" fill="#85C005"></path>
                <path d="M129.173228,8.03149606 C125.010796,3.17259302 118.932675,0.375581346 112.534646,0.37480315 L100.393701,0.37480315 C94.7069563,0.352737081 89.3073547,2.87091494 85.6692913,7.24173228 L67.9062992,27.5346457 C63.6792946,32.3723447 63.6792946,39.58986 67.9062992,44.4275591 C70.6836969,48.0260594 74.979574,50.1245063 79.5251969,50.1031496 C84.0634582,50.2894928 88.4392236,48.39727 91.411811,44.9629921 L107.247244,28.1102362 C108.173742,27.5719813 109.33946,27.6794208 110.151969,28.3779528 C110.86674,29.2142802 110.86674,30.4463497 110.151969,31.2826772 L131.569291,57.4251969 C134.133257,60.3028134 135.43949,64.0865498 135.19685,67.9330709 L140.216535,67.9330709 L140.216535,20.6677165 L129.173228,8.03149606 Z" id="Path" fill="#85C005"></path>
            </g>
        </g>
    </g>
</svg>