<?xml version="1.0" encoding="UTF-8"?>
<svg width="250px" height="250px" viewBox="0 0 250 250" version="1.1" xmlns="http://www.w3.org/2000/svg" xmlns:xlink="http://www.w3.org/1999/xlink">
    <!-- Generator: Sketch 48.2 (47327) - http://www.bohemiancoding.com/sketch -->
    <title>Images/Community System/Energy delivery</title>
    <desc>Created with Sketch.</desc>
    <defs></defs>
    <g id="Library-Symbols" stroke="none" stroke-width="1" fill="none" fill-rule="evenodd">
        <g id="Images/Community-System/Energy-delivery">
            <circle id="Oval-2" fill="#F8F1D4" cx="125" cy="125" r="125"></circle>
            <g id="energy-delivery" transform="translate(50.000000, 50.000000)" fill-rule="nonzero">
                <path d="M145.238095,118.595238 L113.27381,118.595238 L106.392857,48.2261905 L148.678571,16.2619048 C149.590823,15.3476573 149.864594,13.9748995 149.372844,12.7806495 C148.881094,11.5863995 147.720084,10.8044343 146.428571,10.797619 L102.72619,10.7142857 L102.535714,8.69047619 C102.047619,3.76190476 98.5119048,0.0476190476 94.3095238,0.0476190476 L55.6904762,0.0476190476 C51.4880952,0.0476190476 47.952381,3.76190476 47.4642857,8.69047619 L47.2738095,10.7142857 L3.22619048,10.7857143 C1.93467791,10.7925295 0.773667474,11.5744947 0.281917469,12.7687447 C-0.209832535,13.9629947 0.0639390225,15.3357525 0.976190476,16.25 L43.5833333,48.4880952 L36.7261905,118.595238 L4.76190476,118.595238 C2.13197738,118.595238 2.64338815e-16,120.727215 0,123.357143 L0,145.238095 C2.64338815e-16,147.868023 2.13197738,150 4.76190476,150 L145.238095,150 C147.868023,150 150,147.868023 150,145.238095 L150,123.357143 C150,120.727215 147.868023,118.595238 145.238095,118.595238 Z M50.5952381,118.595238 L75,94.25 L99.3571429,118.595238 L50.5952381,118.595238 Z M80.952381,88.3571429 L100.071429,69.1785714 L104.22619,111.678571 L80.952381,88.3571429 Z M94.5,16.4047619 L96.8809524,46.0238095 L80.952381,30.0238095 L94.5,16.4047619 Z M92.3928571,53.3095238 L57.6071429,53.3095238 L75,35.9166667 L92.3928571,53.3095238 Z M52.6904762,46.4285714 L55.1428571,16.047619 L69.1071429,30.0238095 L52.6904762,46.4285714 Z M95.8214286,61.6309524 L75,82.4642857 L54.1785714,61.6309524 L95.8214286,61.6309524 Z M75,24.1309524 L59.2619048,8.39285714 L90.7380952,8.39285714 L75,24.1309524 Z M49.9285714,69.1785714 L69.1071429,88.3571429 L45.7738095,111.678571 L49.9285714,69.1785714 Z M131.095238,19.1071429 L105.440476,38.5 L103.571429,19.047619 L131.095238,19.1071429 Z M18.5238095,19.1071429 L46.4285714,19.047619 L44.5357143,38.7619048 L18.5238095,19.1071429 Z" id="Shape" fill="#F2C706"></path>
                <path d="M4.16666667,8.33333333 L9.60714286,8.33333333 C11.9083293,8.33333333 13.7738095,6.46785312 13.7738095,4.16666667 C13.7738095,1.86548021 11.9083293,-1.35661185e-16 9.60714286,-4e-16 L4.16666667,-4e-16 C1.86548021,-6.64338815e-16 -6.35661185e-16,1.86548021 -9e-16,4.16666667 C-1.16433882e-15,6.46785312 1.86548021,8.33333333 4.16666667,8.33333333 Z" id="Shape" fill="#F6E286"></path>
                <path d="M22.4166667,8.33333333 L27.8690476,8.33333333 C30.1702341,8.33333333 32.0357143,6.46785312 32.0357143,4.16666667 C32.0357143,1.86548021 30.1702341,-1.35661185e-16 27.8690476,-4e-16 L22.4166667,-4e-16 C20.1154802,-6.64338815e-16 18.25,1.86548021 18.25,4.16666667 C18.25,6.46785312 20.1154802,8.33333333 22.4166667,8.33333333 Z" id="Shape" fill="#F6E286"></path>
                <path d="M122.095238,8.33333333 L127.547619,8.33333333 C129.848806,8.33333333 131.714286,6.46785312 131.714286,4.16666667 C131.714286,1.86548021 129.848806,-1.35661185e-16 127.547619,-4e-16 L122.095238,-4e-16 C119.794052,-6.64338815e-16 117.928571,1.86548021 117.928571,4.16666667 C117.928571,6.46785312 119.794052,8.33333333 122.095238,8.33333333 Z" id="Shape" fill="#F6E286"></path>
                <path d="M140.357143,8.33333333 L145.797619,8.33333333 C148.098806,8.33333333 149.964286,6.46785312 149.964286,4.16666667 C149.964286,1.86548021 148.098806,-1.35661185e-16 145.797619,-4e-16 L140.357143,-4e-16 C138.055956,-6.64338815e-16 136.190476,1.86548021 136.190476,4.16666667 C136.190476,6.46785312 138.055956,8.33333333 140.357143,8.33333333 Z" id="Shape" fill="#F6E286"></path>
            </g>
        </g>
    </g>
</svg>