<?xml version="1.0" encoding="UTF-8"?>
<svg width="250px" height="250px" viewBox="0 0 250 250" version="1.1" xmlns="http://www.w3.org/2000/svg" xmlns:xlink="http://www.w3.org/1999/xlink">
    <!-- Generator: Sketch 48.2 (47327) - http://www.bohemiancoding.com/sketch -->
    <title>Images/Community System/Energy delivery</title>
    <desc>Created with Sketch.</desc>
    <defs></defs>
    <g id="Library-Symbols" stroke="none" stroke-width="1" fill="none" fill-rule="evenodd">
        <g id="Images/Community-System/Energy-delivery">
            <circle id="Oval-2" fill="#BFEFE9" cx="125" cy="125" r="125"></circle>
            <path d="M195.238095,168.595238 L163.27381,168.595238 L156.392857,98.2261905 L198.678571,66.2619048 C199.590823,65.3476573 199.864594,63.9748995 199.372844,62.7806495 C198.881094,61.5863995 197.720084,60.8044343 196.428571,60.797619 L152.72619,60.7142857 L152.535714,58.6904762 C152.047619,53.7619048 148.511905,50.047619 144.309524,50.047619 L105.690476,50.047619 C101.488095,50.047619 97.952381,53.7619048 97.4642857,58.6904762 L97.2738095,60.7142857 L53.2261905,60.7857143 C51.9346779,60.7925295 50.7736675,61.5744947 50.2819175,62.7687447 C49.7901675,63.9629947 50.063939,65.3357525 50.9761905,66.25 L93.5833333,98.4880952 L86.7261905,168.595238 L54.7619048,168.595238 C52.1319774,168.595238 50,170.727215 50,173.357143 L50,195.238095 C50,197.868023 52.1319774,200 54.7619048,200 L195.238095,200 C197.868023,200 200,197.868023 200,195.238095 L200,173.357143 C200,170.727215 197.868023,168.595238 195.238095,168.595238 Z M100.595238,168.595238 L125,144.25 L149.357143,168.595238 L100.595238,168.595238 Z M130.952381,138.357143 L150.071429,119.178571 L154.22619,161.678571 L130.952381,138.357143 Z M144.5,66.4047619 L146.880952,96.0238095 L130.952381,80.0238095 L144.5,66.4047619 Z M142.392857,103.309524 L107.607143,103.309524 L125,85.9166667 L142.392857,103.309524 Z M102.690476,96.4285714 L105.142857,66.047619 L119.107143,80.0238095 L102.690476,96.4285714 Z M145.821429,111.630952 L125,132.464286 L104.178571,111.630952 L145.821429,111.630952 Z M125,74.1309524 L109.261905,58.3928571 L140.738095,58.3928571 L125,74.1309524 Z M99.9285714,119.178571 L119.107143,138.357143 L95.7738095,161.678571 L99.9285714,119.178571 Z M181.095238,69.1071429 L155.440476,88.5 L153.571429,69.047619 L181.095238,69.1071429 Z M68.5238095,69.1071429 L96.4285714,69.047619 L94.5357143,88.7619048 L68.5238095,69.1071429 Z" id="Shape" fill="#15514B" fill-rule="nonzero"></path>
            <path d="M54.1666667,58.3333333 L59.6071429,58.3333333 C61.9083293,58.3333333 63.7738095,56.4678531 63.7738095,54.1666667 C63.7738095,51.8654802 61.9083293,50 59.6071429,50 L54.1666667,50 C51.8654802,50 50,51.8654802 50,54.1666667 C50,56.4678531 51.8654802,58.3333333 54.1666667,58.3333333 Z" id="Shape" fill="#4AA49B" fill-rule="nonzero"></path>
            <path d="M72.4166667,58.3333333 L77.8690476,58.3333333 C80.1702341,58.3333333 82.0357143,56.4678531 82.0357143,54.1666667 C82.0357143,51.8654802 80.1702341,50 77.8690476,50 L72.4166667,50 C70.1154802,50 68.25,51.8654802 68.25,54.1666667 C68.25,56.4678531 70.1154802,58.3333333 72.4166667,58.3333333 Z" id="Shape" fill="#4AA49B" fill-rule="nonzero"></path>
            <path d="M172.095238,58.3333333 L177.547619,58.3333333 C179.848806,58.3333333 181.714286,56.4678531 181.714286,54.1666667 C181.714286,51.8654802 179.848806,50 177.547619,50 L172.095238,50 C169.794052,50 167.928571,51.8654802 167.928571,54.1666667 C167.928571,56.4678531 169.794052,58.3333333 172.095238,58.3333333 Z" id="Shape" fill="#4AA49B" fill-rule="nonzero"></path>
            <path d="M190.357143,58.3333333 L195.797619,58.3333333 C198.098806,58.3333333 199.964286,56.4678531 199.964286,54.1666667 C199.964286,51.8654802 198.098806,50 195.797619,50 L190.357143,50 C188.055956,50 186.190476,51.8654802 186.190476,54.1666667 C186.190476,56.4678531 188.055956,58.3333333 190.357143,58.3333333 Z" id="Shape" fill="#4AA49B" fill-rule="nonzero"></path>
        </g>
    </g>
</svg>