<?xml version="1.0" encoding="UTF-8"?>
<svg width="250px" height="250px" viewBox="0 0 250 250" version="1.1" xmlns="http://www.w3.org/2000/svg" xmlns:xlink="http://www.w3.org/1999/xlink">
    <!-- Generator: Sketch 48.2 (47327) - http://www.bohemiancoding.com/sketch -->
    <title>Images/Community System/Fishery</title>
    <desc>Created with Sketch.</desc>
    <defs></defs>
    <g id="Library-Symbols" stroke="none" stroke-width="1" fill="none" fill-rule="evenodd">
        <g id="Images/Community-System/Fishery">
            <circle id="Oval-2" fill="#BFEFE9" cx="125" cy="125" r="125"></circle>
            <g id="fisheries" transform="translate(42.000000, 52.000000)" fill="#4AA49B" fill-rule="nonzero">
                <path d="M150,7.14285714 C150,3.19796607 146.802034,-3.20892672e-15 142.857143,-3.47326876e-15 L128.97619,-3.47326876e-15 C114.352473,-0.0241852014 99.9807591,3.80690305 87.3095238,11.1071429 C68.314789,4.7134943 47.3376384,10.2799127 34.0119048,25.25 C32.6172655,26.8129944 31.328678,28.4674771 30.1547619,30.202381 C29.1225649,31.7529255 28.8065725,33.6723128 29.2872274,35.4719211 C29.7678823,37.2715294 30.9988156,38.7777503 32.6666667,39.6071429 L52.547619,49.5357143 C47.7219295,60.2920031 45.2306874,71.9489064 45.2380952,83.7380952 L45.2380952,90.297619 C30.5870352,87.4568594 15.4817825,92.0785492 4.92857143,102.630952 C3.59687651,103.969914 2.3485041,105.389242 1.19047619,106.880952 C0.172833498,108.221553 -0.214783607,109.936985 0.12757921,111.584892 C0.469942028,113.232798 1.50877314,114.651876 2.97619048,115.47619 L17.702381,123.904762 C21.2276086,125.924407 24.1559851,128.840462 26.1904762,132.357143 L34.6309524,147.047619 C35.4597559,148.507482 36.8784233,149.538493 38.5228599,149.876047 C40.1672965,150.213601 41.8774021,149.824835 43.2142857,148.809524 C44.7042944,147.658253 46.1198308,146.413694 47.452381,145.083333 C58.0123724,134.529772 62.6349885,119.41703 59.7857143,104.761905 L66.2619048,104.761905 C82.9513297,104.797175 99.2668638,99.820398 113.095238,90.4761905 L115.821429,95.0357143 C116.636532,96.3918421 118.016287,97.311502 119.581639,97.5420399 C121.146992,97.7725778 122.733299,97.2897459 123.904762,96.2261905 C124.428571,95.7619048 124.940476,95.2738095 125.428571,94.7619048 C131.724235,88.2283493 134.850902,79.2701653 133.988095,70.2380952 C144.413257,55.9484292 150.021086,38.7121702 150,21.0238095 L150,7.14285714 Z M109.059524,16.202381 C111.616845,13.6462597 115.76201,13.6469083 118.318531,16.2038297 C120.875052,18.7607511 120.875052,22.9059155 118.318531,25.4628369 C115.76201,28.0197583 111.616845,28.0204069 109.059524,25.4642857 C107.830942,24.2362807 107.140684,22.5704024 107.140684,20.8333333 C107.140684,19.0962643 107.830942,17.430386 109.059524,16.202381 Z" id="Shape"></path>
            </g>
        </g>
    </g>
</svg>