<?xml version="1.0" encoding="UTF-8"?>
<svg width="250px" height="250px" viewBox="0 0 250 250" version="1.1" xmlns="http://www.w3.org/2000/svg" xmlns:xlink="http://www.w3.org/1999/xlink">
    <!-- Generator: Sketch 48.2 (47327) - http://www.bohemiancoding.com/sketch -->
    <title>Images/Community System/Fishery</title>
    <desc>Created with Sketch.</desc>
    <defs></defs>
    <g id="Library-Symbols" stroke="none" stroke-width="1" fill="none" fill-rule="evenodd">
        <g id="Images/Community-System/Fishery">
            <circle id="Oval-2" fill="#BFEFE9" cx="125" cy="125" r="125"></circle>
            <path d="M192,59.1428571 C192,55.1979661 188.802034,52 184.857143,52 L170.97619,52 C156.352473,51.9758148 141.980759,55.8069031 129.309524,63.1071429 C110.314789,56.7134943 89.3376384,62.2799127 76.0119048,77.25 C74.6172655,78.8129944 73.328678,80.4674771 72.1547619,82.202381 C71.1225649,83.7529255 70.8065725,85.6723128 71.2872274,87.4719211 C71.7678823,89.2715294 72.9988156,90.7777503 74.6666667,91.6071429 L94.547619,101.535714 C89.7219295,112.292003 87.2306874,123.948906 87.2380952,135.738095 L87.2380952,142.297619 C72.5870352,139.456859 57.4817825,144.078549 46.9285714,154.630952 C45.5968765,155.969914 44.3485041,157.389242 43.1904762,158.880952 C42.1728335,160.221553 41.7852164,161.936985 42.1275792,163.584892 C42.469942,165.232798 43.5087731,166.651876 44.9761905,167.47619 L59.702381,175.904762 C63.2276086,177.924407 66.1559851,180.840462 68.1904762,184.357143 L76.6309524,199.047619 C77.4597559,200.507482 78.8784233,201.538493 80.5228599,201.876047 C82.1672965,202.213601 83.8774021,201.824835 85.2142857,200.809524 C86.7042944,199.658253 88.1198308,198.413694 89.452381,197.083333 C100.012372,186.529772 104.634989,171.41703 101.785714,156.761905 L108.261905,156.761905 C124.95133,156.797175 141.266864,151.820398 155.095238,142.47619 L157.821429,147.035714 C158.636532,148.391842 160.016287,149.311502 161.581639,149.54204 C163.146992,149.772578 164.733299,149.289746 165.904762,148.22619 C166.428571,147.761905 166.940476,147.27381 167.428571,146.761905 C173.724235,140.228349 176.850902,131.270165 175.988095,122.238095 C186.413257,107.948429 192.021086,90.7121702 192,73.0238095 L192,59.1428571 Z M151.059524,68.202381 C153.616845,65.6462597 157.76201,65.6469083 160.318531,68.2038297 C162.875052,70.7607511 162.875052,74.9059155 160.318531,77.4628369 C157.76201,80.0197583 153.616845,80.0204069 151.059524,77.4642857 C149.830942,76.2362807 149.140684,74.5704024 149.140684,72.8333333 C149.140684,71.0962643 149.830942,69.430386 151.059524,68.202381 Z" id="Shape" fill="#15514B" fill-rule="nonzero"></path>
        </g>
    </g>
</svg>