<?xml version="1.0" encoding="UTF-8"?>
<svg width="250px" height="250px" viewBox="0 0 250 250" version="1.1" xmlns="http://www.w3.org/2000/svg" xmlns:xlink="http://www.w3.org/1999/xlink">
    <!-- Generator: Sketch 48.2 (47327) - http://www.bohemiancoding.com/sketch -->
    <title>Images/Community System/Food supply</title>
    <desc>Created with Sketch.</desc>
    <defs></defs>
    <g id="Library-Symbols" stroke="none" stroke-width="1" fill="none" fill-rule="evenodd">
        <g id="Images/Community-System/Food-supply">
            <circle id="Oval-2" fill="#BFEFE9" cx="125" cy="125" r="125"></circle>
            <g id="food-supply" transform="translate(51.000000, 34.000000)">
                <path d="M79.6826923,51.1971154 C79.8970482,59.4345225 77.6034373,67.5426381 73.1057692,74.4471154 C68.7934999,80.8878886 62.5380203,85.7841404 55.25,88.4230769 L59.8653846,172.899038 C60.117292,175.214598 59.2619668,177.513284 57.5576923,179.100962 C55.9413107,180.808302 53.6924485,181.773591 51.3413462,181.769231 L28.5673077,181.769231 C26.2162054,181.773591 23.9673431,180.808302 22.3509615,179.100962 C20.646687,177.513284 19.7913619,175.214598 20.0432692,172.899038 L24.6586538,88.4230769 C17.3433124,85.783409 11.0655792,80.8704004 6.74519231,74.4038462 C2.24752426,67.4993689 -0.0460866175,59.3912533 0.168269231,51.1538462 C0.168269231,43.1057692 2.0625,27.8413462 5.85096154,5.36057692 C6.46837493,3.09905165 8.26225362,1.34932997 10.5384615,0.788461538 C13.119353,-0.149455534 15.9479546,-0.149455534 18.5288462,0.788461538 C21.2403846,1.74038462 22.7259615,3.39903846 22.9567308,5.76442308 L22.9567308,55.8125 C23.2019231,56.5192308 24.1394231,56.8653846 25.8413462,56.8653846 C27.5432692,56.8653846 28.4519231,56.6346154 28.7259615,56.1586538 L31.6105769,5.76442308 C32.0993342,3.37414447 33.8791266,1.45530579 36.2259615,0.788461538 C38.7424815,-0.148830764 41.5123262,-0.148830764 44.0288462,0.788461538 C46.3756811,1.45530579 48.1554735,3.37414447 48.6442308,5.76442308 L51.5288462,56.1586538 C51.7596154,56.6346154 52.7115385,56.8653846 54.4134615,56.8653846 C56.1153846,56.8653846 57.0096154,56.5192308 57.2980769,55.8125 L57.2980769,5.76442308 C57.5288462,3.39903846 59.0144231,1.74038462 61.7259615,0.788461538 C64.306853,-0.149455534 67.1354546,-0.149455534 69.7163462,0.788461538 C71.8479761,1.47999965 73.4690828,3.22664654 74,5.40384615 C77.7788462,27.8942308 79.6730769,43.1586538 79.6826923,51.1971154 Z" id="Shape" fill="#15514B" fill-rule="nonzero"></path>
                <path d="M110.908654,172.581731 C110.706068,174.963248 111.514364,177.320172 113.135876,179.076124 C114.757387,180.832075 117.042608,181.825152 119.432692,181.8125 L139.307692,181.8125 C141.570759,181.820198 143.743357,180.924604 145.343596,179.324365 C146.943835,177.724126 147.839428,175.551528 147.831731,173.288462 L147.831731,8.60576923 C147.869497,6.33334703 146.966507,4.14633494 145.336538,2.5625 C143.757647,0.935678144 141.574291,0.0372639337 139.307692,0.0817307692 C131.740385,0.0817307692 123.754808,3.62980769 115.350962,10.7259615 C106.87704,17.9354496 100.246219,27.0633351 96.0096154,37.3509615 C91.1159306,48.1361217 89.8703496,60.2223081 92.4615385,71.7788462 C95.3461538,85.0384615 103.274038,96.75 116.245192,106.913462 L110.908654,172.581731 Z" id="Path" fill="#4AA49B"></path>
            </g>
        </g>
    </g>
</svg>