<?xml version="1.0" encoding="UTF-8"?>
<svg width="250px" height="250px" viewBox="0 0 250 250" version="1.1" xmlns="http://www.w3.org/2000/svg" xmlns:xlink="http://www.w3.org/1999/xlink">
    <!-- Generator: Sketch 49 (51002) - http://www.bohemiancoding.com/sketch -->
    <title>Images/Community System/Forestry</title>
    <desc>Created with Sketch.</desc>
    <defs></defs>
    <g id="Images/Community-System/Forestry" stroke="none" stroke-width="1" fill="none" fill-rule="evenodd">
        <circle id="Oval-2" fill="#BFEFE9" cx="125" cy="125" r="125"></circle>
        <path d="M184.540715,163.882246 L157.777917,135.834413 L168.740043,135.834413 C170.800401,135.873257 172.78477,135.056723 174.221106,133.579048 C175.662511,132.185622 176.476442,130.266708 176.476442,128.261892 C176.476442,126.257077 175.662511,124.338162 174.221106,122.944736 L147.786123,94.5690894 L158.420434,94.5690894 C160.481089,94.609516 162.466064,93.792732 163.901497,92.3137238 C165.357515,90.9276571 166.174072,89.0002044 166.156863,86.9900118 C166.194006,85.0422171 165.507169,83.1499106 164.229312,81.6794124 L130.700416,45.5542242 C129.210109,43.9267624 127.104823,43 124.898095,43 C122.691367,43 120.586081,43.9267624 119.095773,45.5542242 L85.5668781,81.6794124 C84.2890211,83.1499106 83.6021839,85.0422171 83.6393272,86.9900118 C83.6152889,88.9962771 84.422105,90.9231436 85.8684677,92.3137238 C87.3039007,93.792732 89.2888758,94.609516 91.3495308,94.5690894 L101.983842,94.5690894 L75.5750838,122.918511 C74.1336783,124.311937 73.3197474,126.230851 73.3197474,128.235667 C73.3197474,130.240482 74.1336783,132.159397 75.5750838,133.552823 C77.0114196,135.030497 78.9957889,135.847032 81.0561468,135.808188 L92.0182729,135.808188 L65.2554746,163.882246 C63.8283555,165.415651 63.0241987,167.426043 63.000109,169.52066 C62.9891535,171.529605 63.8047026,173.45468 65.2554746,174.844372 C66.6918105,176.322046 68.6761798,177.138581 70.7365377,177.099737 L109.471132,177.099737 C109.648264,181.388841 108.746571,185.653853 106.848613,189.504248 C104.658527,193.14618 101.818477,196.355126 98.4696677,198.971539 C96.6073379,200.190358 95.9207399,202.59066 96.856819,204.609953 C97.4939713,206.714549 99.4865189,208.111499 101.682252,207.993002 L148.113937,207.993002 C150.309671,208.111499 152.302219,206.714549 152.939371,204.609953 C153.87545,202.59066 153.188852,200.190358 151.326522,198.971539 C148.218685,196.599599 145.585256,193.663682 143.563868,190.317229 C141.275281,186.299611 140.162082,181.719596 140.351283,177.099737 L179.033427,177.099737 C181.093785,177.138581 183.078154,176.322046 184.51449,174.844372 C185.989433,173.465971 186.829332,171.539424 186.835419,169.52066 C186.800635,167.420747 185.982175,165.409674 184.540715,163.882246 Z" id="Shape" fill="#15514B" fill-rule="nonzero"></path>
    </g>
</svg>