<?xml version="1.0" encoding="UTF-8"?>
<svg width="250px" height="250px" viewBox="0 0 250 250" version="1.1" xmlns="http://www.w3.org/2000/svg" xmlns:xlink="http://www.w3.org/1999/xlink">
    <!-- Generator: Sketch 48.2 (47327) - http://www.bohemiancoding.com/sketch -->
    <title>Images/Community System/Government continuity</title>
    <desc>Created with Sketch.</desc>
    <defs></defs>
    <g id="Library-Symbols" stroke="none" stroke-width="1" fill="none" fill-rule="evenodd">
        <g id="Images/Community-System/Government-continuity">
            <circle id="Oval-2" fill="#F2F2F2" cx="125" cy="125" r="125"></circle>
            <g id="government-continuity" transform="translate(50.000000, 31.000000)" fill-rule="nonzero">
                <path d="M144.077273,154.304545 L4.04545455,154.304545 C3.15394721,154.289094 2.29731145,154.650564 1.68636364,155.3 C1.05166593,155.935695 0.702256261,156.801837 0.718181818,157.7 L0.718181818,165.595455 C0.685712846,167.39055 1.39050213,169.120487 2.66818182,170.381818 C3.88826794,171.673544 5.59617894,172.391362 7.37272727,172.359091 L140.818182,172.359091 C142.598794,172.391821 144.31109,171.67424 145.536364,170.381818 C146.810401,169.119094 147.510391,167.388838 147.472727,165.595455 L147.472727,157.7 C147.488653,156.801837 147.139243,155.935695 146.504545,155.3 C145.877648,154.632537 144.9923,154.269445 144.077273,154.304545 Z" id="Shape" fill="#C9C9C3"></path>
                <path d="M143.777273,79.25 C141.285443,76.6624935 137.823088,75.2379819 134.231818,75.3227273 L116.463636,75.3227273 C113.500727,55.2696129 96.7201403,40.142483 76.4681818,39.2681818 L76.4681818,30.0772727 C79.1823615,28.9003649 82.1145791,28.3102039 85.0727273,28.3454545 C85.9930416,28.3617208 86.9083174,28.485283 87.8,28.7136364 C88.4,28.8636364 89.3136364,29.15 90.5272727,29.5454545 C91.5855662,29.94597 92.6698895,30.2740006 93.7727273,30.5272727 C95.0063613,30.8183126 96.2688886,30.9692669 97.5363636,30.9772727 C100.845792,30.9299113 104.058262,29.8527329 106.727273,27.8954545 C107.405689,27.4780742 107.80688,26.7277947 107.777273,25.9318182 L107.777273,7.60454545 C107.835534,6.78405124 107.430262,5.99982316 106.727273,5.57272727 C106.057324,5.12613193 105.200575,5.06901536 104.477273,5.42272727 C101.73994,6.84162435 98.7329601,7.6642447 95.6545455,7.83636364 C94.733238,7.82139625 93.8172695,7.69316067 92.9272727,7.45454545 C92.3272727,7.30454545 91.4136364,7.03181818 90.2,6.62272727 C88.9863636,6.21363636 87.6363636,5.81818182 86.8727273,5.64090909 C85.6390932,5.34986923 84.376566,5.19891489 83.1090909,5.19090909 C81.3590901,5.18609516 79.6224435,5.4955508 77.9818182,6.10454545 C78.2341343,5.53526263 78.3373762,4.91111847 78.2818182,4.29090909 C78.2463409,3.25320109 77.7999503,2.27212277 77.0409091,1.56363636 C76.2807421,0.820069588 75.2675478,0.391410443 74.2045455,0.363636364 C73.0582427,0.30489492 71.939992,0.730423945 71.1227273,1.53636364 C70.3089588,2.34011401 69.8688366,3.44783717 69.9090909,4.59090909 C69.9056621,5.27624178 70.074465,5.95145371 70.4,6.55454545 C70.7296481,7.15526197 71.196962,7.66930733 71.7636364,8.05454545 L71.7636364,39.3363636 C51.9132868,40.6778812 35.6850485,55.6796326 32.7909091,75.3636364 L13.5909091,75.3636364 C10.0231772,75.2980402 6.58925298,76.7210189 4.11363636,79.2909091 C1.54514725,81.7945746 0.128327731,85.250232 0.2,88.8363636 L0.2,142.018182 C0.185196093,142.72631 0.400519492,143.42013 0.813636364,143.995455 C1.447175,144.866115 2.46425777,145.374656 3.54090909,145.359091 L144.309091,145.359091 C145.022409,145.380952 145.72276,145.165091 146.3,144.745455 C147.167086,144.108895 147.674641,143.093786 147.663636,142.018182 L147.663636,88.8363636 C147.753856,85.2401901 146.346259,81.7681168 143.777273,79.25 Z M41.3409091,123.404545 C41.3409091,125.897358 39.3200853,127.918182 36.8272727,127.918182 C34.3344602,127.918182 32.3136364,125.897358 32.3136364,123.404545 L32.3136364,98.0409091 C32.3136364,95.5480966 34.3344602,93.5272727 36.8272727,93.5272727 C39.3200853,93.5272727 41.3409091,95.5480966 41.3409091,98.0409091 L41.3409091,123.404545 Z M67.25,123.404545 C67.25,125.897358 65.2291762,127.918182 62.7363636,127.918182 C60.2435511,127.918182 58.2227273,125.897358 58.2227273,123.404545 L58.2227273,98.0409091 C58.2227273,95.5480966 60.2435511,93.5272727 62.7363636,93.5272727 C65.2291762,93.5272727 67.25,95.5480966 67.25,98.0409091 L67.25,123.404545 Z M92.0818182,123.404545 C92.0818182,125.897358 90.0609943,127.918182 87.5681818,127.918182 C85.0753693,127.918182 83.0545455,125.897358 83.0545455,123.404545 L83.0545455,98.0409091 C83.0545455,95.5480966 85.0753693,93.5272727 87.5681818,93.5272727 C90.0609943,93.5272727 92.0818182,95.5480966 92.0818182,98.0409091 L92.0818182,123.404545 Z M116.9,123.404545 C116.9,125.897358 114.879176,127.918182 112.386364,127.918182 C109.893551,127.918182 107.872727,125.897358 107.872727,123.404545 L107.872727,98.0409091 C107.872727,95.5480966 109.893551,93.5272727 112.386364,93.5272727 C114.879176,93.5272727 116.9,95.5480966 116.9,98.0409091 L116.9,123.404545 Z" id="Shape" fill="#A4A49A"></path>
            </g>
        </g>
    </g>
</svg>