<?xml version="1.0" encoding="UTF-8"?>
<svg width="250px" height="250px" viewBox="0 0 250 250" version="1.1" xmlns="http://www.w3.org/2000/svg" xmlns:xlink="http://www.w3.org/1999/xlink">
    <!-- Generator: Sketch 48.2 (47327) - http://www.bohemiancoding.com/sketch -->
    <title>Images/Community System/Housing access</title>
    <desc>Created with Sketch.</desc>
    <defs></defs>
    <g id="Library-Symbols" stroke="none" stroke-width="1" fill="none" fill-rule="evenodd">
        <g id="Images/Community-System/Housing-access">
            <circle id="Oval-2" fill="#FCE7DC" cx="125" cy="125" r="125"></circle>
            <g id="housing-access" transform="translate(50.000000, 67.000000)">
                <path d="M127.083333,73.3690476 C127.108149,72.3951102 126.734009,71.4533087 126.047619,70.7619048 L77.0833333,30.6547619 C75.8861997,29.6226249 74.1138003,29.6226249 72.9166667,30.6547619 L23.952381,70.7619048 C23.2659914,71.4533087 22.8918511,72.3951102 22.9166667,73.3690476 L22.9166667,110.607143 C22.9070957,112.267662 23.5625021,113.86294 24.7366856,115.037124 C25.9108691,116.211307 27.506148,116.866714 29.1666667,116.857143 L59.3809524,116.857143 C60.2110581,116.873503 61.0099768,116.540981 61.5833333,115.940476 C62.1789837,115.363801 62.5105852,114.567096 62.5,113.738095 L62.5,84.5714286 C62.4999875,82.8468898 63.8945213,81.4470334 65.6190476,81.4404762 L84.3809524,81.4404762 C85.2099529,81.429891 86.0066579,81.7614925 86.5833333,82.3571429 C87.1856876,82.9341677 87.5182453,83.7374889 87.5,84.5714286 L87.5,113.738095 C87.5065272,115.457987 88.8991561,116.850616 90.6190476,116.857143 L120.833333,116.857143 C122.493852,116.866714 124.089131,116.211307 125.263314,115.037124 C126.437498,113.86294 127.092904,112.267662 127.083333,110.607143 L127.083333,73.3690476 Z" id="Shape" fill="#ED5C14" fill-rule="nonzero"></path>
                <path d="M148.952381,57.4761905 C149.497208,58.0434847 149.82218,58.7862772 149.869048,59.5714286 C149.975181,60.4205058 149.739654,61.2769667 149.214286,61.952381 L142.714286,70.0238095 C142.23423,70.7005167 141.448447,71.0934081 140.619048,71.0714286 C139.759045,71.0885253 138.919008,70.8113129 138.238095,70.2857143 L77.0833333,19.9761905 C75.8861997,18.9440535 74.1138003,18.9440535 72.9166667,19.9761905 L11.7142857,70.2380952 C11.033373,70.7636939 10.1933355,71.0409062 9.33333333,71.0238095 C8.503934,71.0457891 7.71815119,70.6528977 7.23809524,69.9761905 L0.785714286,61.9047619 C0.260345878,61.2293476 0.0248191297,60.3728867 0.130952381,59.5238095 C0.177820337,58.7386582 0.502792046,57.9958657 1.04761905,57.4285714 L67.1904762,3.05952381 C69.3537554,1.17787907 72.1330799,0.156816248 75,0.19047619 C77.9413466,0.184403215 80.7938142,1.19833344 83.0714286,3.05952381 L106.25,22.3214286 L106.25,3.27380952 C106.237391,2.45960832 106.560276,1.67607333 107.142857,1.10714286 C107.728889,0.503550627 108.539886,0.171386733 109.380952,0.19047619 L123.952381,0.19047619 C124.785226,0.178016887 125.586327,0.509655534 126.166667,1.10714286 C126.767171,1.6804994 127.099694,2.47941804 127.083333,3.30952381 L127.083333,39.4761905 L148.952381,57.4761905 Z" id="Path" fill="#FFBFA1"></path>
            </g>
        </g>
    </g>
</svg>