<?xml version="1.0" encoding="UTF-8"?>
<svg width="250px" height="250px" viewBox="0 0 250 250" version="1.1" xmlns="http://www.w3.org/2000/svg" xmlns:xlink="http://www.w3.org/1999/xlink">
    <!-- Generator: Sketch 48.2 (47327) - http://www.bohemiancoding.com/sketch -->
    <title>Images/Community System/Industrial Operations</title>
    <desc>Created with Sketch.</desc>
    <defs></defs>
    <g id="Library-Symbols" stroke="none" stroke-width="1" fill="none" fill-rule="evenodd">
        <g id="Images/Community-System/Industrial-Operations">
            <circle id="Oval-2" fill="#BFEFE9" cx="125" cy="125" r="125"></circle>
            <g id="industrial-operations" transform="translate(50.000000, 65.000000)">
                <path d="M117.585938,48.1171875 C117.266382,48.7456289 116.695966,49.2096241 116.015625,49.3945312 C115.388534,49.6229614 114.708463,49.6636842 114.058594,49.5117188 C111.352617,48.482291 108.843502,46.9958485 106.640625,45.1171875 C106.063144,44.7074134 105.69469,44.0647618 105.632813,43.359375 C105.553319,42.6840689 105.671367,42.0002008 105.972656,41.390625 L107.8125,38.1796875 C106.259629,36.3101704 105.01363,34.2058173 104.121094,31.9453125 L100.429688,31.9453125 C99.70876,31.964381 99.0066797,31.713638 98.4609375,31.2421875 C97.9288067,30.7814404 97.6319265,30.1059305 97.6523438,29.4023438 C97.0398191,26.5905431 96.9603187,23.6887768 97.4179688,20.8476563 C97.5807758,20.2154313 97.9372643,19.6499669 98.4375,19.2304688 C98.9832422,18.7590182 99.6853225,18.5082753 100.40625,18.5273438 L104.109375,18.5273438 C105.038205,16.2099969 106.284495,14.0329347 107.8125,12.0585937 L105.960938,8.82421875 C105.659649,8.21464299 105.5416,7.53077483 105.621094,6.85546875 C105.695375,6.15751856 106.066921,5.52546417 106.640625,5.12109375 C108.887084,3.37769368 111.378842,1.97583289 114.035156,0.9609375 C115.330696,0.330137854 116.892829,0.850848687 117.550781,2.1328125 L119.402344,5.6484375 C121.844901,5.17968631 124.354317,5.17968631 126.796875,5.6484375 L128.648438,2.1328125 C128.949895,1.51761851 129.493075,1.0550668 130.148438,0.85546875 C130.789657,0.627357104 131.496052,0.669656202 132.105469,0.97265625 C134.800905,1.86506037 137.296628,3.27412868 139.453125,5.12109375 C140.02898,5.52523791 140.404335,6.15651583 140.484375,6.85546875 C140.563869,7.53077483 140.44582,8.21464299 140.144531,8.82421875 L138.292969,12.0585938 C139.820974,14.0329347 141.067263,16.2099969 141.996094,18.5273438 L145.6875,18.5273438 C146.408428,18.5082753 147.110508,18.7590182 147.65625,19.2304688 C148.160291,19.6163703 148.458547,20.2128821 148.464844,20.8476563 C149.084314,23.6655754 149.084314,26.5844246 148.464844,29.4023438 C148.485261,30.1059305 148.188381,30.7814404 147.65625,31.2421875 C147.110508,31.713638 146.408428,31.964381 145.6875,31.9453125 L141.996094,31.9453125 C141.099428,34.2063164 139.849497,36.310632 138.292969,38.1796875 L140.144531,41.4140625 C140.44582,42.0236383 140.563869,42.7075064 140.484375,43.3828125 C140.407287,44.0827575 140.031262,44.7151636 139.453125,45.1171875 C137.25311,46.9937575 134.748215,48.4800478 132.046875,49.5117188 C131.397006,49.6636842 130.716935,49.6229614 130.089844,49.3945313 C129.434481,49.1949332 128.891301,48.7323815 128.589844,48.1171875 L126.738281,44.8828125 C124.295724,45.3515637 121.786308,45.3515637 119.34375,44.8828125 L117.585938,48.1171875 Z M125.554688,33.2226563 C128.271836,32.5144807 130.395463,30.3953348 131.109375,27.6796875 C131.953125,24.8203125 131.296875,21.9375 129.140625,19.0078125 C126.367188,16.8515625 123.554688,16.234375 120.703125,17.15625 C117.990776,17.9404669 115.887464,20.0882466 115.160156,22.8164063 C114.327269,25.7785295 115.065395,28.9608683 117.117188,31.2539063 C119.400869,33.2875989 122.560049,34.0244466 125.507813,33.2109375 L125.554688,33.2226563 Z" id="Shape" fill="#4AA49B" fill-rule="nonzero"></path>
                <path d="M98.1210938,70.78125 C99.3228288,71.3599334 100.239855,72.3995114 100.664063,73.6640625 C101.133081,74.9128396 101.047838,76.3022954 100.429688,77.484375 C99.046875,81.4921875 95.8085938,86.5703125 90.7148438,92.71875 C89.807398,93.6343379 88.6348218,94.2411256 87.3632813,94.453125 C86.1589796,94.6788078 84.9136661,94.4712555 83.8476563,93.8671875 L77.1445313,89.9414062 C73.3719487,93.1317745 69.0682705,95.6346509 64.4296875,97.3359375 L64.4296875,105.199219 C64.4177562,106.503649 63.9206261,107.756918 63.0351563,108.714844 C62.2183609,109.718914 61.0487408,110.372895 59.765625,110.542969 C53.9559811,111.622586 47.9971439,111.622586 42.1875,110.542969 C40.861166,110.419601 39.6464251,109.748521 38.8359375,108.691406 C38.01134,107.705421 37.5592483,106.461132 37.5585938,105.175781 L37.5585938,97.359375 C32.8880989,95.7267023 28.5724768,93.2168797 24.84375,89.9648437 L18.140625,93.890625 C16.9697751,94.4985416 15.6314641,94.7044356 14.3320313,94.4765625 C13.1134423,94.2964299 12.0016426,93.6801514 11.203125,92.7421875 C6.28125,86.734375 3.046875,81.65625 1.5,77.5078125 C0.881849236,76.3257329 0.796606547,74.9362771 1.265625,73.6875 C1.68163624,72.4163039 2.59482314,71.3678301 3.796875,70.78125 L11.4257813,66.796875 C10.5000059,61.9894766 10.5000059,57.0495859 11.4257813,52.2421875 L3.796875,48.3515625 C2.63862337,47.6628473 1.74360879,46.6069775 1.25390625,45.3515625 C0.791127823,44.1416355 0.876651338,42.790364 1.48828125,41.6484375 C3.05078125,37.4921875 6.28515625,32.4140625 11.1914063,26.4140625 C11.9206367,25.3568923 13.0516827,24.645223 14.3203125,24.4453125 C15.6479837,24.2237866 17.0101525,24.5171768 18.1289063,25.265625 L24.8320313,28.9570312 C28.5616489,25.7818514 32.860515,23.3441041 37.5,21.7734375 L37.5,13.9101562 C37.4722672,12.5987503 37.9267835,11.3227687 38.7773438,10.3242187 C39.6336633,9.309876 40.8634056,8.68444002 42.1875,8.58984375 C47.991147,7.51504452 53.9353849,7.43578801 59.765625,8.35546875 C61.0129507,8.68160575 62.1373908,9.36604752 63,10.3242187 C63.9122095,11.2935043 64.4122194,12.5792439 64.3945313,13.9101562 L64.3945313,21.7734375 C68.9944016,23.4519305 73.2892254,25.8704903 77.109375,28.9335937 L83.8125,25.2421875 C84.8227427,24.4991755 86.093371,24.2026955 87.328125,24.421875 C88.6437649,24.6590082 89.8319415,25.3569581 90.6796875,26.390625 C95.6171875,32.25 98.8554688,37.328125 100.394531,41.625 C100.85436,42.8099717 100.895705,44.1164503 100.511719,45.328125 C100.097966,46.5915405 99.2347589,47.6590811 98.0859375,48.328125 L90.234375,52.2890625 C91.1541425,57.0812664 91.1541425,62.0046711 90.234375,66.796875 L98.1210938,70.78125 Z M67.6523438,58.5234375 C67.3871209,54.4704009 65.6588893,50.6516338 62.7890625,47.7773438 C59.9341007,44.7963674 56.0480129,43.0189119 51.9257813,42.8085938 C47.0723623,42.5435953 42.310132,44.2025862 38.671875,47.4257812 C35.5944883,51.1075409 34.0244901,55.8175353 34.2773438,60.609375 C34.6640412,69.0115938 41.4013379,75.7285515 49.8046875,76.0898438 C54.6607621,76.3302587 59.4346707,74.7695578 63.2109375,71.7070313 C66.286259,68.0241195 67.8559789,63.3149598 67.6054688,58.5234375 L67.6523438,58.5234375 Z" id="Combined-Shape" fill="#15514B"></path>
                <path d="M117.585938,117.257813 C117.259045,117.875468 116.690305,118.32961 116.015625,118.511719 C115.388534,118.740149 114.708463,118.780872 114.058594,118.628906 C111.352617,117.599478 108.843502,116.113036 106.640625,114.234375 C106.055718,113.836918 105.6745,113.202981 105.597656,112.5 C105.513515,111.828369 105.631851,111.146912 105.9375,110.542969 L107.8125,107.296875 C106.257169,105.429092 105.010927,103.324328 104.121094,101.0625 L100.429688,101.0625 C99.7029952,101.086174 98.9932856,100.839863 98.4375,100.371094 C97.9021266,99.9077287 97.6049218,99.2271728 97.6289063,98.5195313 C97.0163816,95.7077306 96.9368812,92.8059643 97.3945313,89.9648438 C97.5636727,89.3296036 97.9285929,88.7637722 98.4375,88.3476563 C98.9843925,87.8794383 99.686688,87.6327988 100.40625,87.65625 L104.109375,87.65625 C105.034883,85.3336746 106.281385,83.1522953 107.8125,81.1757813 L105.960938,77.9414063 C105.654337,77.3335733 105.536011,76.6481012 105.621094,75.9726562 C105.6863,75.2748906 106.060326,74.6429151 106.640625,74.25 C108.80854,72.388632 111.320934,70.97118 114.035156,70.078125 C115.331931,69.4670498 116.880007,69.9830751 117.550781,71.25 L119.402344,74.484375 C121.864572,74.1817243 124.358755,74.2607793 126.796875,74.71875 L128.648438,71.203125 C129.310741,69.9262429 130.86809,69.4071265 132.164063,70.03125 C134.844032,70.952185 137.319574,72.3849748 139.453125,74.25 C140.030681,74.6472582 140.407039,75.2759466 140.484375,75.9726563 C140.569457,76.6481012 140.451132,77.3335733 140.144531,77.9414063 L138.292969,81.1757813 C139.82357,83.1526383 141.07003,85.3339427 141.996094,87.65625 L145.6875,87.65625 C146.407062,87.6327988 147.109357,87.8794383 147.65625,88.3476563 C148.160291,88.7335578 148.458547,89.3300696 148.464844,89.9648438 C149.084314,92.7827629 149.084314,95.7016121 148.464844,98.5195313 C148.488828,99.2271728 148.191623,99.9077287 147.65625,100.371094 C147.106545,100.834411 146.406193,101.080368 145.6875,101.0625 L141.996094,101.0625 C141.102126,103.324829 139.851951,105.429555 138.292969,107.296875 L140.144531,110.542969 C140.45018,111.146912 140.568517,111.828369 140.484375,112.5 C140.407287,113.199945 140.031262,113.832351 139.453125,114.234375 C137.25311,116.110945 134.748215,117.597235 132.046875,118.628906 C131.397006,118.780872 130.716935,118.740149 130.089844,118.511719 C129.438007,118.312354 128.896059,117.855085 128.589844,117.246094 L126.738281,114.011719 C124.294627,114.468795 121.787404,114.468795 119.34375,114.011719 L117.585938,117.257813 Z M125.554687,102.222656 C128.245911,101.469631 130.350667,99.3693151 131.109375,96.6796875 C131.953125,93.90625 131.296875,91.0546875 129.140625,88.125 C126.367187,85.96875 123.554687,85.3515625 120.703125,86.2734375 C117.987824,87.0597916 115.88389,89.212654 115.160156,91.9453125 C114.300781,94.7890625 114.953125,97.6015625 117.117187,100.382813 C119.859375,102.53125 122.65625,103.140625 125.507812,102.210938 L125.554687,102.222656 Z" id="Combined-Shape" fill="#4AA49B"></path>
            </g>
        </g>
    </g>
</svg>