<?xml version="1.0" encoding="UTF-8"?>
<svg width="250px" height="250px" viewBox="0 0 250 250" version="1.1" xmlns="http://www.w3.org/2000/svg" xmlns:xlink="http://www.w3.org/1999/xlink">
    <!-- Generator: Sketch 48.2 (47327) - http://www.bohemiancoding.com/sketch -->
    <title>Images/Community System/Industrial</title>
    <desc>Created with Sketch.</desc>
    <defs></defs>
    <g id="Library-Symbols" stroke="none" stroke-width="1" fill="none" fill-rule="evenodd">
        <g id="Images/Community-System/Industrial">
            <circle id="Oval-2" fill="#F2F2F2" cx="125" cy="125" r="125"></circle>
            <g id="industrial" transform="translate(51.000000, 60.000000)" fill="#A4A49A" fill-rule="nonzero">
                <path d="M137.152344,38.8007812 C139.219581,37.285614 141.997477,37.1698683 144.183594,38.5078125 C146.467845,39.6344964 147.890037,41.9850004 147.828125,44.53125 L147.828125,123.046875 C147.834379,124.885617 147.106709,126.650852 145.806515,127.951046 C144.506321,129.251241 142.741085,129.978911 140.902344,129.972656 L7.09765625,129.972656 C5.25131321,130.003341 3.47436589,129.269662 2.1875,127.945312 C0.866898917,126.661656 0.137160114,124.888221 0.171875,123.046875 L0.171875,7.65234375 C0.137160114,5.81099759 0.866898917,4.03756259 2.1875,2.75390625 C3.47436589,1.4295572 5.25131321,0.695877281 7.09765625,0.7265625 L39.3945313,0.7265625 C43.2195346,0.7265625 46.3203125,3.82734038 46.3203125,7.65234375 L46.3203125,64.1835937 L86.3984375,38.8007812 C88.4656745,37.285614 91.2435709,37.1698683 93.4296875,38.5078125 C95.7139387,39.6344964 97.1361308,41.9850004 97.0742188,44.53125 L97.0742188,64.1835937 L137.152344,38.8007812 Z M42.8515625,102.246094 C44.7931886,102.246094 46.3671875,100.672095 46.3671875,98.7304687 L46.3671875,87.2460938 C46.3671875,85.3044677 44.7931886,83.7304688 42.8515625,83.7304688 L31.3203125,83.7304688 C29.3786864,83.7304688 27.8046875,85.3044677 27.8046875,87.2460938 L27.8046875,98.7890625 C27.8046875,100.730689 29.3786864,102.304687 31.3203125,102.304687 L42.8515625,102.246094 Z M79.765625,102.246094 C81.7072511,102.246094 83.28125,100.672095 83.28125,98.7304687 L83.28125,87.2460938 C83.28125,85.3044677 81.7072511,83.7304688 79.765625,83.7304688 L68.234375,83.7304688 C66.2927489,83.7304688 64.71875,85.3044677 64.71875,87.2460938 L64.71875,98.7890625 C64.71875,100.730689 66.2927489,102.304687 68.234375,102.304687 L79.765625,102.246094 Z M116.679688,102.246094 C118.621314,102.246094 120.195313,100.672095 120.195313,98.7304687 L120.195313,87.2460938 C120.195313,85.3044677 118.621314,83.7304688 116.679688,83.7304688 L105.148438,83.7304688 C103.206811,83.7304688 101.632813,85.3044677 101.632813,87.2460938 L101.632813,98.7890625 C101.632813,100.730689 103.206811,102.304687 105.148438,102.304687 L116.679688,102.246094 Z" id="Shape"></path>
            </g>
        </g>
    </g>
</svg>