<?xml version="1.0" encoding="UTF-8"?>
<svg width="250px" height="250px" viewBox="0 0 250 250" version="1.1" xmlns="http://www.w3.org/2000/svg" xmlns:xlink="http://www.w3.org/1999/xlink">
    <!-- Generator: Sketch 48.2 (47327) - http://www.bohemiancoding.com/sketch -->
    <title>Images/Community System/Industrial</title>
    <desc>Created with Sketch.</desc>
    <defs></defs>
    <g id="Library-Symbols" stroke="none" stroke-width="1" fill="none" fill-rule="evenodd">
        <g id="Images/Community-System/Industrial">
            <circle id="Oval-2" fill="#BFEFE9" cx="125" cy="125" r="125"></circle>
            <path d="M188.152344,98.8007812 C190.219581,97.285614 192.997477,97.1698683 195.183594,98.5078125 C197.467845,99.6344964 198.890037,101.985 198.828125,104.53125 L198.828125,183.046875 C198.834379,184.885617 198.106709,186.650852 196.806515,187.951046 C195.506321,189.251241 193.741085,189.978911 191.902344,189.972656 L58.0976563,189.972656 C56.2513132,190.003341 54.4743659,189.269662 53.1875,187.945312 C51.8668989,186.661656 51.1371601,184.888221 51.171875,183.046875 L51.171875,67.6523437 C51.1371601,65.8109976 51.8668989,64.0375626 53.1875,62.7539062 C54.4743659,61.4295572 56.2513132,60.6958773 58.0976563,60.7265625 L90.3945313,60.7265625 C94.2195346,60.7265625 97.3203125,63.8273404 97.3203125,67.6523438 L97.3203125,124.183594 L137.398438,98.8007812 C139.465674,97.285614 142.243571,97.1698683 144.429688,98.5078125 C146.713939,99.6344964 148.136131,101.985 148.074219,104.53125 L148.074219,124.183594 L188.152344,98.8007812 Z M93.8515625,162.246094 C95.7931886,162.246094 97.3671875,160.672095 97.3671875,158.730469 L97.3671875,147.246094 C97.3671875,145.304468 95.7931886,143.730469 93.8515625,143.730469 L82.3203125,143.730469 C80.3786864,143.730469 78.8046875,145.304468 78.8046875,147.246094 L78.8046875,158.789062 C78.8046875,160.730689 80.3786864,162.304688 82.3203125,162.304688 L93.8515625,162.246094 Z M130.765625,162.246094 C132.707251,162.246094 134.28125,160.672095 134.28125,158.730469 L134.28125,147.246094 C134.28125,145.304468 132.707251,143.730469 130.765625,143.730469 L119.234375,143.730469 C117.292749,143.730469 115.71875,145.304468 115.71875,147.246094 L115.71875,158.789062 C115.71875,160.730689 117.292749,162.304688 119.234375,162.304688 L130.765625,162.246094 Z M167.679688,162.246094 C169.621314,162.246094 171.195313,160.672095 171.195313,158.730469 L171.195313,147.246094 C171.195313,145.304468 169.621314,143.730469 167.679688,143.730469 L156.148438,143.730469 C154.206811,143.730469 152.632813,145.304468 152.632813,147.246094 L152.632813,158.789062 C152.632813,160.730689 154.206811,162.304688 156.148438,162.304688 L167.679688,162.246094 Z" id="Shape" fill="#15514B" fill-rule="nonzero"></path>
        </g>
    </g>
</svg>