<?xml version="1.0" encoding="UTF-8"?>
<svg width="250px" height="250px" viewBox="0 0 250 250" version="1.1" xmlns="http://www.w3.org/2000/svg" xmlns:xlink="http://www.w3.org/1999/xlink">
    <!-- Generator: Sketch 48.2 (47327) - http://www.bohemiancoding.com/sketch -->
    <title>Images/Community System/Internet and communications</title>
    <desc>Created with Sketch.</desc>
    <defs></defs>
    <g id="Library-Symbols" stroke="none" stroke-width="1" fill="none" fill-rule="evenodd">
        <g id="Images/Community-System/Internet-and-communications">
            <circle id="Oval-2" fill="#BFEFE9" cx="125" cy="125" r="125"></circle>
            <g id="internet-and-communications" transform="translate(50.000000, 49.000000)">
                <path d="M2.45238095,55.952381 L42.3571429,55.952381 C40.7386927,68.7984307 40.7386927,81.7968074 42.3571429,94.6428571 L2.45238095,94.6428571 C-0.769590891,81.9472654 -0.769590891,68.6479727 2.45238095,55.952381 Z M43.8690476,46.2857143 L5.77380952,46.2857143 C10.5852772,34.8326451 18.1701455,24.7563071 27.8452381,16.9642857 C37.5027232,9.00484983 49.0632144,3.69227489 61.3928571,1.54761905 C52.9325397,13.6269841 47.0912698,28.5396825 43.8690476,46.2857143 Z M43.8690476,104.309524 C47.0992063,122.071429 52.9404762,136.984127 61.3928571,149.047619 C49.057384,146.885607 37.4963654,141.552277 27.8452381,133.571429 C18.1823705,125.794678 10.6022925,115.739723 5.78571429,104.309524 L43.8690476,104.309524 Z M106.130952,46.2857143 C102.90873,28.547619 97.0674603,13.6349206 88.6071429,1.54761905 C100.943438,3.70699899 112.505103,9.04062729 122.154762,17.0238095 C131.825504,24.8172472 139.40619,34.8934635 144.214286,46.3452381 L106.130952,46.2857143 Z M106.130952,104.309524 L144.22619,104.309524 C139.418095,115.761298 131.837409,125.837515 122.166667,133.630952 C112.517008,141.614135 100.955343,146.947763 88.6190476,149.107143 C97.0793651,137.003968 102.916667,122.071429 106.130952,104.309524 Z M107.642857,55.952381 C109.261307,68.7984307 109.261307,81.7968074 107.642857,94.6428571 L147.547619,94.6428571 C150.769591,81.9472654 150.769591,68.6479727 147.547619,55.952381 L107.642857,55.952381 Z" id="Shape" fill="#15514B" fill-rule="nonzero"></path>
                <path d="M97.9761905,55.952381 C99.5833022,68.7991396 99.5833022,81.7960985 97.9761905,94.6428571 L52.0238095,94.6428571 C50.4166978,81.7960985 50.4166978,68.7991396 52.0238095,55.952381 L97.9761905,55.952381 Z" id="Path" fill="#4AA49B"></path>
                <path d="M96.4285714,46.2857143 L53.5714286,46.2857143 C55.2429986,37.8849116 57.7762323,29.67883 61.1309524,21.797619 C64.450751,13.9515886 69.0488538,6.71048188 74.7380952,0.369047619 L75.3333333,0.369047619 C81.0264559,6.70753981 85.6249909,13.9493272 88.9404762,21.797619 C92.2707684,29.6815322 94.7800442,37.8875425 96.4285714,46.2857143 Z" id="Path" fill="#4AA49B"></path>
                <path d="M53.5714286,104.309524 L96.4285714,104.309524 C94.7570014,112.710326 92.2237677,120.916408 88.8690476,128.797619 C85.5535623,136.645911 80.9550273,143.887698 75.2619048,150.22619 L74.6666667,150.22619 C68.9774252,143.884756 64.3793224,136.64365 61.0595238,128.797619 C57.7292316,120.913706 55.2199558,112.707696 53.5714286,104.309524 Z" id="Path" fill="#4AA49B"></path>
            </g>
        </g>
    </g>
</svg>