<?xml version="1.0" encoding="UTF-8"?>
<svg width="250px" height="250px" viewBox="0 0 250 250" version="1.1" xmlns="http://www.w3.org/2000/svg" xmlns:xlink="http://www.w3.org/1999/xlink">
    <!-- Generator: Sketch 48.2 (47327) - http://www.bohemiancoding.com/sketch -->
    <title>Images/Community System/Law and order</title>
    <desc>Created with Sketch.</desc>
    <defs></defs>
    <g id="Library-Symbols" stroke="none" stroke-width="1" fill="none" fill-rule="evenodd">
        <g id="Images/Community-System/Law-and-order">
            <circle id="Oval-2" fill="#BFEFE9" cx="125" cy="125" r="125"></circle>
            <path d="M110.210938,143.410156 C110.165756,146.894815 108.741469,150.219557 106.25,152.65625 C103.227307,155.682503 99.551134,157.975601 95.5039062,159.359375 C90.72314,161.091586 85.6705938,161.952861 80.5859375,161.902344 C75.5130337,161.949164 70.4726761,161.087937 65.703125,159.359375 C61.6558972,157.975601 57.9797247,155.682503 54.9570313,152.65625 C52.4774036,150.214509 51.0658654,146.89002 51.03125,143.410156 L51.03125,143.175781 C51.1158077,141.608575 51.5143152,140.074321 52.203125,138.664063 C52.984375,136.890625 55.6835937,131.382813 60.3007812,122.140625 L70.671875,101.328125 C71.9146441,98.848338 74.0690787,96.9458841 76.6835938,96.0195313 C79.2230287,95.0942522 82.00744,95.0942522 84.546875,96.0195313 C87.1613901,96.9458841 89.3158247,98.848338 90.5585938,101.328125 L101.1875,122.832031 C105.664062,131.621094 108.285156,136.859375 109.050781,138.546875 C109.76574,139.989098 110.165232,141.567093 110.222656,143.175781 L110.210938,143.410156 Z M80.609375,106.414062 L63.96875,139.707031 L97.2617188,139.707031 L80.609375,106.414062 Z M198.96875,143.410156 C198.934135,146.89002 197.522596,150.214509 195.042969,152.65625 C192.020275,155.682503 188.344103,157.975601 184.296875,159.359375 C174.644492,162.749537 164.125039,162.749537 154.472656,159.359375 C150.433813,157.972395 146.76596,155.679486 143.75,152.65625 C141.267145,150.2157 139.85149,146.891439 139.8125,143.410156 L139.8125,143.175781 C139.897058,141.608575 140.295565,140.074321 140.984375,138.664063 C141.765625,136.890625 144.464844,131.382813 149.082031,122.140625 L159.441406,101.328125 C160.684175,98.848338 162.83861,96.9458841 165.453125,96.0195313 C167.99256,95.0942522 170.776971,95.0942522 173.316406,96.0195313 C175.930921,96.9458841 178.085356,98.848338 179.328125,101.328125 L189.957031,122.832031 C194.433594,131.621094 197.054688,136.859375 197.820313,138.546875 C198.53629,139.988722 198.935839,141.56694 198.992188,143.175781 L198.96875,143.410156 Z M169.390625,106.414062 L152.738281,139.707031 L186.03125,139.707031 L169.390625,106.414062 Z" id="Shape" fill="#15514B" fill-rule="nonzero"></path>
            <path d="M132.394531,169.296875 L132.394531,101.105469 C135.144102,100.046745 137.545777,98.245489 139.332031,95.9023438 C141.159281,93.5596628 142.426009,90.8297844 143.035156,87.921875 L171.230469,87.921875 C172.704492,87.9312773 174.121036,87.3506852 175.16445,86.3094732 C176.207863,85.2682611 176.791445,83.8529465 176.785156,82.3789063 L176.785156,78.6757813 C176.791445,77.201741 176.207863,75.7864264 175.16445,74.7452143 C174.121036,73.7040023 172.704492,73.1234102 171.230469,73.1328125 L139.789063,73.1328125 C138.107044,70.8212689 135.886635,68.9548382 133.320313,67.6953125 C128.084131,65.0697608 121.915869,65.0697608 116.679688,67.6953125 C114.113365,68.9548382 111.892956,70.8212689 110.210938,73.1328125 L78.7695313,73.1328125 C77.2955076,73.1234102 75.8789637,73.7040023 74.8355503,74.7452143 C73.7921369,75.7864264 73.2085545,77.201741 73.2148438,78.6757813 L73.2148438,82.3789062 C73.2085545,83.8529465 73.7921369,85.2682611 74.8355503,86.3094732 C75.8789637,87.3506852 77.2955076,87.9312773 78.7695313,87.921875 L106.964844,87.921875 C107.573991,90.8297844 108.840719,93.5596628 110.667969,95.9023438 C112.454223,98.245489 114.855898,100.046745 117.605469,101.105469 L117.605469,169.296875 L78.7695313,169.296875 C77.2955076,169.287473 75.8789637,169.868065 74.8355503,170.909277 C73.7921369,171.950489 73.2085545,173.365804 73.2148438,174.839844 L73.2148438,178.542969 C73.2085545,180.017009 73.7921369,181.432324 74.8355503,182.473536 C75.8789637,183.514748 77.2955076,184.09534 78.7695313,184.085937 L171.230469,184.085937 C172.704492,184.09534 174.121036,183.514748 175.16445,182.473536 C176.207863,181.432324 176.791445,180.017009 176.785156,178.542969 L176.785156,174.839844 C176.791445,173.365804 176.207863,171.950489 175.16445,170.909277 C174.121036,169.868065 172.704492,169.287473 171.230469,169.296875 L132.394531,169.296875 Z" id="Path" fill="#4AA49B"></path>
        </g>
    </g>
</svg>