<?xml version="1.0" encoding="UTF-8"?>
<svg width="250px" height="250px" viewBox="0 0 250 250" version="1.1" xmlns="http://www.w3.org/2000/svg" xmlns:xlink="http://www.w3.org/1999/xlink">
    <!-- Generator: Sketch 48.2 (47327) - http://www.bohemiancoding.com/sketch -->
    <title>Images/Community System/Law and order</title>
    <desc>Created with Sketch.</desc>
    <defs></defs>
    <g id="Library-Symbols" stroke="none" stroke-width="1" fill="none" fill-rule="evenodd">
        <g id="Images/Community-System/Law-and-order">
            <circle id="Oval-2" fill="#F8F1D4" cx="125" cy="125" r="125"></circle>
            <g id="law-and-order" transform="translate(51.000000, 65.000000)">
                <path d="M59.2109375,78.4101563 C59.1657561,81.8948154 57.7414689,85.2195568 55.25,87.65625 C52.2273066,90.6825031 48.551134,92.9756009 44.5039063,94.359375 C39.72314,96.0915863 34.6705938,96.9528609 29.5859375,96.9023438 C24.5130337,96.9491637 19.4726761,96.0879373 14.703125,94.359375 C10.6558972,92.9756009 6.97972466,90.6825031 3.95703125,87.65625 C1.47740362,85.2145089 0.0658654469,81.8900204 0.03125,78.4101563 L0.03125,78.1757813 C0.115807651,76.6085745 0.514315169,75.0743206 1.203125,73.6640625 C1.984375,71.890625 4.68359375,66.3828125 9.30078125,57.140625 L19.671875,36.328125 C20.9146441,33.848338 23.0690787,31.9458841 25.6835938,31.0195313 C28.2230287,30.0942522 31.00744,30.0942522 33.546875,31.0195313 C36.1613901,31.9458841 38.3158247,33.848338 39.5585938,36.328125 L50.1875,57.8320313 C54.6640625,66.6210938 57.2851562,71.859375 58.0507813,73.546875 C58.7657401,74.9890984 59.1652325,76.5670932 59.2226563,78.1757813 L59.2109375,78.4101563 Z M29.609375,41.4140625 L12.96875,74.7070312 L46.2617188,74.7070312 L29.609375,41.4140625 Z M147.96875,78.4101563 C147.934135,81.8900204 146.522596,85.2145089 144.042969,87.65625 C141.020275,90.6825031 137.344103,92.9756009 133.296875,94.359375 C123.644492,97.7495369 113.125039,97.7495369 103.472656,94.359375 C99.4338125,92.9723948 95.7659602,90.6794861 92.75,87.65625 C90.2671448,85.2157004 88.8514899,81.8914394 88.8125,78.4101563 L88.8125,78.1757813 C88.8970577,76.6085745 89.2955652,75.0743206 89.984375,73.6640625 C90.765625,71.890625 93.4648438,66.3828125 98.0820313,57.140625 L108.441406,36.328125 C109.684175,33.848338 111.83861,31.9458841 114.453125,31.0195313 C116.99256,30.0942522 119.776971,30.0942522 122.316406,31.0195313 C124.930921,31.9458841 127.085356,33.848338 128.328125,36.328125 L138.957031,57.8320313 C143.433594,66.6210938 146.054688,71.859375 146.820313,73.546875 C147.53629,74.9887218 147.935839,76.5669399 147.992188,78.1757813 L147.96875,78.4101563 Z M118.390625,41.4140625 L101.738281,74.7070312 L135.03125,74.7070312 L118.390625,41.4140625 Z" id="Shape" fill="#F2C706" fill-rule="nonzero"></path>
                <path d="M81.3945313,104.296875 L81.3945313,36.1054688 C84.1441019,35.0467453 86.545777,33.245489 88.3320313,30.9023438 C90.1592813,28.5596628 91.4260091,25.8297844 92.0351563,22.921875 L120.230469,22.921875 C121.704492,22.9312773 123.121036,22.3506852 124.16445,21.3094732 C125.207863,20.2682611 125.791445,18.8529465 125.785156,17.3789063 L125.785156,13.6757813 C125.791445,12.201741 125.207863,10.7864264 124.16445,9.74521434 C123.121036,8.70400225 121.704492,8.12341021 120.230469,8.1328125 L88.7890625,8.1328125 C87.1070444,5.82126891 84.8866355,3.95483821 82.3203125,2.6953125 C77.0841314,0.0697607629 70.9158686,0.0697607629 65.6796875,2.6953125 C63.1133645,3.95483821 60.8929556,5.82126891 59.2109375,8.1328125 L27.7695313,8.1328125 C26.2955076,8.12341021 24.8789637,8.70400225 23.8355503,9.74521434 C22.7921369,10.7864264 22.2085545,12.201741 22.2148438,13.6757813 L22.2148438,17.3789063 C22.2085545,18.8529465 22.7921369,20.2682611 23.8355503,21.3094732 C24.8789637,22.3506852 26.2955076,22.9312773 27.7695313,22.921875 L55.9648438,22.921875 C56.5739909,25.8297844 57.8407187,28.5596628 59.6679688,30.9023438 C61.454223,33.245489 63.8558981,35.0467453 66.6054688,36.1054688 L66.6054688,104.296875 L27.7695313,104.296875 C26.2955076,104.287473 24.8789637,104.868065 23.8355503,105.909277 C22.7921369,106.950489 22.2085545,108.365804 22.2148438,109.839844 L22.2148438,113.542969 C22.2085545,115.017009 22.7921369,116.432324 23.8355503,117.473536 C24.8789637,118.514748 26.2955076,119.09534 27.7695313,119.085937 L120.230469,119.085937 C121.704492,119.09534 123.121036,118.514748 124.16445,117.473536 C125.207863,116.432324 125.791445,115.017009 125.785156,113.542969 L125.785156,109.839844 C125.791445,108.365804 125.207863,106.950489 124.16445,105.909277 C123.121036,104.868065 121.704492,104.287473 120.230469,104.296875 L81.3945313,104.296875 Z" id="Path" fill="#F6E286"></path>
            </g>
        </g>
    </g>
</svg>