<?xml version="1.0" encoding="UTF-8"?>
<svg width="250px" height="250px" viewBox="0 0 250 250" version="1.1" xmlns="http://www.w3.org/2000/svg" xmlns:xlink="http://www.w3.org/1999/xlink">
    <!-- Generator: Sketch 48.2 (47327) - http://www.bohemiancoding.com/sketch -->
    <title>Images/Community System/Public safety</title>
    <desc>Created with Sketch.</desc>
    <defs></defs>
    <g id="Library-Symbols" stroke="none" stroke-width="1" fill="none" fill-rule="evenodd">
        <g id="Images/Community-System/Public-safety">
            <circle id="Oval-2" fill="#BFEFE9" cx="125" cy="125" r="125"></circle>
            <path d="M199.738095,181.238095 C199.236038,184.076342 197.763115,186.651854 195.571429,188.52381 C193.356887,190.508117 190.472964,191.580018 187.5,191.52381 L62.5,191.52381 C59.5272381,191.578831 56.6437355,190.507087 54.4285714,188.52381 C52.2368852,186.651854 50.7639616,184.076342 50.2619048,181.238095 C49.7447665,178.350824 50.2011962,175.373562 51.5595238,172.77381 L114.059524,64.4404762 C115.470208,61.7891837 117.849902,59.7847823 120.702381,58.8452381 C123.485859,57.878191 126.514141,57.878191 129.297619,58.8452381 C132.150098,59.7847823 134.529792,61.7891837 135.940476,64.4404762 L198.440476,172.77381 C199.798804,175.373562 200.255233,178.350824 199.738095,181.238095 Z M116.535714,153.857143 C113.351634,156.847619 112.048304,161.334504 113.134735,165.56546 C114.221167,169.796415 117.525014,173.100262 121.755969,174.186693 C125.986924,175.273125 130.473809,173.969795 133.464286,170.785714 C136.768573,167.823532 138.164044,163.277055 137.090572,158.971187 C136.017101,154.66532 132.650682,151.306003 128.342556,150.241627 C124.034431,149.177252 119.490912,150.582322 116.535714,153.892857 L116.535714,153.857143 Z M115.619048,142.785714 C115.643223,143.534849 115.974762,144.240984 116.535714,144.738095 C117.116054,145.335583 117.917155,145.667221 118.75,145.654762 L131.25,145.654762 C132.082845,145.667221 132.883946,145.335583 133.464286,144.738095 C134.025238,144.240984 134.356777,143.534849 134.380952,142.785714 L136.452381,107.369048 C136.501973,106.45823 136.174796,105.567104 135.547619,104.904762 C134.961237,104.320379 134.160902,104.001966 133.333333,104.02381 L116.666667,104.02381 C115.833822,104.01135 115.032721,104.342989 114.452381,104.940476 C113.825204,105.602818 113.498027,106.493945 113.547619,107.404762 L115.619048,142.785714 Z" id="Shape" fill="#15514B" fill-rule="nonzero"></path>
        </g>
    </g>
</svg>