<?xml version="1.0" encoding="UTF-8"?>
<svg width="250px" height="250px" viewBox="0 0 250 250" version="1.1" xmlns="http://www.w3.org/2000/svg" xmlns:xlink="http://www.w3.org/1999/xlink">
    <!-- Generator: Sketch 48.2 (47327) - http://www.bohemiancoding.com/sketch -->
    <title>Images/Community System/Public health</title>
    <desc>Created with Sketch.</desc>
    <defs></defs>
    <g id="Library-Symbols" stroke="none" stroke-width="1" fill="none" fill-rule="evenodd">
        <g id="Images/Community-System/Public-health">
            <circle id="Oval-2" fill="#FCE7DC" cx="125" cy="125" r="125"></circle>
            <g id="public-health" transform="translate(50.000000, 51.000000)" fill="#ED5C14" fill-rule="nonzero">
                <path d="M146.660156,44.53125 C145.204931,43.0121818 143.185524,42.1636917 141.082031,42.1875 L106.136719,41.8710938 L106.464844,8.0859375 C106.511185,5.98182396 105.688885,3.95150637 104.191406,2.47265625 C102.733386,0.95059333 100.709112,0.101841144 98.6015625,0.12890625 L51.3984375,0.12890625 C49.2908878,0.101841144 47.2666139,0.95059333 45.8085937,2.47265625 C44.3111146,3.95150637 43.4888148,5.98182396 43.5351562,8.0859375 L43.8632812,41.859375 L8.91796875,42.1875 C6.81447577,42.1636917 4.79506933,43.0121818 3.33984375,44.53125 C1.84062475,46.0041189 1.01771094,48.0317106 1.06640625,50.1328125 L1.06640625,97.5234375 C1.01771094,99.6245394 1.84062475,101.652131 3.33984375,103.125 C4.79506933,104.644068 6.81447577,105.492558 8.91796875,105.46875 L43.8632812,105.785156 L43.5351562,139.558594 C43.5164262,141.658381 44.3358519,143.678942 45.81186,145.172548 C47.2878682,146.666154 49.2985754,147.509468 51.3984375,147.515625 L98.6015625,147.515625 C100.701425,147.509468 102.712132,146.666154 104.18814,145.172548 C105.664148,143.678942 106.483574,141.658381 106.464844,139.558594 L106.136719,105.785156 L141.082031,105.46875 C143.179858,105.459482 145.18755,104.614797 146.661022,103.121531 C148.134495,101.628266 148.952317,99.6094829 148.933594,97.5117188 L148.933594,50.1328125 C148.982289,48.0317106 148.159375,46.0041189 146.660156,44.53125 Z M96.9726562,73.921875 C95.9941753,75.3851377 94.8585098,76.7369332 93.5859375,77.953125 L76.4648438,94.5234375 C75.6202381,95.2413904 74.3797619,95.2413904 73.5351562,94.5234375 L56.4140625,77.953125 C55.2025519,76.8302391 54.1286306,75.5674965 53.2148438,74.1914063 C51.30093,71.6854196 50.2117875,68.6472854 50.0976563,65.4960938 C49.8956933,61.9838768 51.1701909,58.5469816 53.6132813,56.015625 C55.9570313,53.7304688 59.2148438,52.59375 63.3632813,52.59375 C65.7810538,52.6795238 68.1268884,53.4384703 70.1367188,54.7851562 C71.9021182,55.8587711 73.5345215,57.1371592 75,58.59375 C76.4650645,57.1584281 78.0933685,55.8998356 79.8515625,54.84375 C81.8613928,53.497064 84.2072275,52.7381175 86.625,52.6523438 C90.7734375,52.6523438 94.03125,53.8242188 96.375,56.0742188 C98.8180903,58.6055754 100.092588,62.0424706 99.890625,65.5546875 C99.7849779,68.5743744 98.7677126,71.4913519 96.9726562,73.921875 Z" id="Shape"></path>
            </g>
        </g>
    </g>
</svg>