<?xml version="1.0" encoding="UTF-8"?>
<svg width="250px" height="250px" viewBox="0 0 250 250" version="1.1" xmlns="http://www.w3.org/2000/svg" xmlns:xlink="http://www.w3.org/1999/xlink">
    <!-- Generator: Sketch 48.2 (47327) - http://www.bohemiancoding.com/sketch -->
    <title>Images/Community System/Public health</title>
    <desc>Created with Sketch.</desc>
    <defs></defs>
    <g id="Library-Symbols" stroke="none" stroke-width="1" fill="none" fill-rule="evenodd">
        <g id="Images/Community-System/Public-health">
            <circle id="Oval-2" fill="#BFEFE9" cx="125" cy="125" r="125"></circle>
            <path d="M196.660156,95.53125 C195.204931,94.0121818 193.185524,93.1636917 191.082031,93.1875 L156.136719,92.8710938 L156.464844,59.0859375 C156.511185,56.981824 155.688885,54.9515064 154.191406,53.4726562 C152.733386,51.9505933 150.709112,51.1018411 148.601562,51.1289062 L101.398438,51.1289062 C99.2908878,51.1018411 97.2666139,51.9505933 95.8085938,53.4726562 C94.3111146,54.9515064 93.4888148,56.981824 93.5351562,59.0859375 L93.8632812,92.859375 L58.9179688,93.1875 C56.8144758,93.1636917 54.7950693,94.0121818 53.3398438,95.53125 C51.8406248,97.0041189 51.0177109,99.0317106 51.0664063,101.132813 L51.0664063,148.523438 C51.0177109,150.624539 51.8406248,152.652131 53.3398438,154.125 C54.7950693,155.644068 56.8144758,156.492558 58.9179688,156.46875 L93.8632812,156.785156 L93.5351562,190.558594 C93.5164262,192.658381 94.3358519,194.678942 95.81186,196.172548 C97.2878682,197.666154 99.2985754,198.509468 101.398438,198.515625 L148.601562,198.515625 C150.701425,198.509468 152.712132,197.666154 154.18814,196.172548 C155.664148,194.678942 156.483574,192.658381 156.464844,190.558594 L156.136719,156.785156 L191.082031,156.46875 C193.179858,156.459482 195.18755,155.614797 196.661022,154.121531 C198.134495,152.628266 198.952317,150.609483 198.933594,148.511719 L198.933594,101.132813 C198.982289,99.0317106 198.159375,97.0041189 196.660156,95.53125 Z M146.972656,124.921875 C145.994175,126.385138 144.85851,127.736933 143.585938,128.953125 L126.464844,145.523438 C125.620238,146.24139 124.379762,146.24139 123.535156,145.523438 L106.414062,128.953125 C105.202552,127.830239 104.128631,126.567496 103.214844,125.191406 C101.30093,122.68542 100.211788,119.647285 100.097656,116.496094 C99.8956933,112.983877 101.170191,109.546982 103.613281,107.015625 C105.957031,104.730469 109.214844,103.59375 113.363281,103.59375 C115.781054,103.679524 118.126888,104.43847 120.136719,105.785156 C121.902118,106.858771 123.534521,108.137159 125,109.59375 C126.465064,108.158428 128.093369,106.899836 129.851562,105.84375 C131.861393,104.497064 134.207227,103.738118 136.625,103.652344 C140.773438,103.652344 144.03125,104.824219 146.375,107.074219 C148.81809,109.605575 150.092588,113.042471 149.890625,116.554688 C149.784978,119.574374 148.767713,122.491352 146.972656,124.921875 Z" id="Shape" fill="#15514B" fill-rule="nonzero"></path>
        </g>
    </g>
</svg>