<?xml version="1.0" encoding="UTF-8"?>
<svg width="250px" height="250px" viewBox="0 0 250 250" version="1.1" xmlns="http://www.w3.org/2000/svg" xmlns:xlink="http://www.w3.org/1999/xlink">
    <!-- Generator: Sketch 48.2 (47327) - http://www.bohemiancoding.com/sketch -->
    <title>Images/Community System/Public safety</title>
    <desc>Created with Sketch.</desc>
    <defs></defs>
    <g id="Library-Symbols" stroke="none" stroke-width="1" fill="none" fill-rule="evenodd">
        <g id="Images/Community-System/Public-safety">
            <circle id="Oval-2" fill="#FCE7DC" cx="125" cy="125" r="125"></circle>
            <g id="public-safety" transform="translate(50.000000, 58.000000)" fill="#ED5C14" fill-rule="nonzero">
                <path d="M149.738095,123.238095 C149.236038,126.076342 147.763115,128.651854 145.571429,130.52381 C143.356887,132.508117 140.472964,133.580018 137.5,133.52381 L12.5,133.52381 C9.52723806,133.578831 6.64373548,132.507087 4.42857143,130.52381 C2.23688516,128.651854 0.763961561,126.076342 0.261904762,123.238095 C-0.255233496,120.350824 0.201196188,117.373562 1.55952381,114.77381 L64.0595238,6.44047619 C65.470208,3.78918372 67.8499016,1.78478232 70.702381,0.845238095 C73.4858587,-0.121809018 76.5141413,-0.121809018 79.297619,0.845238095 C82.1500984,1.78478232 84.529792,3.78918372 85.9404762,6.44047619 L148.440476,114.77381 C149.798804,117.373562 150.255233,120.350824 149.738095,123.238095 Z M66.5357143,95.8571429 C63.3516339,98.8476192 62.0483038,103.334504 63.1347354,107.56546 C64.2211669,111.796415 67.5250136,115.100262 71.755969,116.186693 C75.9869244,117.273125 80.4738093,115.969795 83.4642857,112.785714 C86.7685728,109.823532 88.1640435,105.277055 87.0905721,100.971187 C86.0171007,96.6653196 82.6506816,93.3060027 78.3425564,92.2416274 C74.0344311,91.1772521 69.4909117,92.5823215 66.5357143,95.8928571 L66.5357143,95.8571429 Z M65.6190476,84.7857143 C65.6432227,85.5348487 65.974762,86.2409843 66.5357143,86.7380952 C67.1160542,87.3355826 67.9171553,87.6672212 68.75,87.6547619 L81.25,87.6547619 C82.0828447,87.6672212 82.8839458,87.3355826 83.4642857,86.7380952 C84.025238,86.2409843 84.3567773,85.5348487 84.3809524,84.7857143 L86.452381,49.3690476 C86.5019727,48.4582304 86.1747958,47.5671037 85.547619,46.9047619 C84.9612369,46.3203791 84.1609021,46.0019663 83.3333333,46.0238095 L66.6666667,46.0238095 C65.833822,46.0113502 65.0327208,46.3429889 64.452381,46.9404762 C63.8252042,47.602818 63.4980273,48.4939446 63.547619,49.4047619 L65.6190476,84.7857143 Z" id="Shape"></path>
            </g>
        </g>
    </g>
</svg>