<?xml version="1.0" encoding="UTF-8"?>
<svg width="250px" height="250px" viewBox="0 0 250 250" version="1.1" xmlns="http://www.w3.org/2000/svg" xmlns:xlink="http://www.w3.org/1999/xlink">
    <!-- Generator: Sketch 48.2 (47327) - http://www.bohemiancoding.com/sketch -->
    <title>Images/Community System/Quality of life</title>
    <desc>Created with Sketch.</desc>
    <defs></defs>
    <g id="Library-Symbols" stroke="none" stroke-width="1" fill="none" fill-rule="evenodd">
        <g id="Images/Community-System/Quality-of-life">
            <circle id="Oval-2" fill="#BFEFE9" cx="125" cy="125" r="125"></circle>
            <path d="M188.820313,162.011719 C182.324092,173.180489 173.035958,182.468623 161.867188,188.964844 C150.707662,195.562953 137.963885,199.002072 125,198.914063 C112.025971,198.999237 99.2733813,195.551825 88.109375,188.941406 C76.940605,182.445186 67.6524704,173.157051 61.15625,161.988281 C54.5458361,150.832283 51.0945037,138.088279 51.171875,125.121094 C51.0973353,112.143762 54.5569625,99.3909442 61.1796875,88.2304688 C67.6759079,77.0616987 76.9640425,67.7735642 88.1328125,61.2773438 C99.2923378,54.6792346 112.036115,51.240116 125,51.328125 C137.974029,51.24295 150.726619,54.6903624 161.890625,61.3007813 C173.059395,67.7970017 182.34753,77.0851362 188.84375,88.2539063 C195.454164,99.4099045 198.905496,112.153909 198.828125,125.121094 C198.902665,138.098426 195.443038,150.851243 188.820313,162.011719 Z M86.8671875,120.363281 C90.645193,124.171953 95.7877087,126.31424 101.152344,126.31424 C106.516979,126.31424 111.659495,124.171953 115.4375,120.363281 C119.240368,116.582179 121.378636,111.440823 121.378636,106.078125 C121.378636,100.715427 119.240368,95.5740707 115.4375,91.7929688 C111.659495,87.9842966 106.516979,85.84201 101.152344,85.84201 C95.7877087,85.84201 90.645193,87.9842966 86.8671875,91.7929688 C83.0585153,95.5709742 80.9162287,100.71349 80.9162287,106.078125 C80.9162287,111.44276 83.0585153,116.585276 86.8671875,120.363281 Z M162.640625,142.828125 C161.799787,141.373535 160.296204,140.426672 158.621094,140.296875 C156.928272,140.052167 155.263947,140.89605 154.460938,142.40625 C149.101563,150.539062 142.851563,156.007812 135.710938,158.8125 C128.840325,161.58959 121.159675,161.58959 114.289063,158.8125 C107.15625,156.03125 100.90625,150.5625 95.5390625,142.40625 C94.7291281,140.905121 93.0663346,140.071383 91.3789063,140.320312 C89.7037959,140.45011 88.2002131,141.396972 87.359375,142.851562 C86.467772,144.315079 86.6492025,146.191452 87.8046875,147.457031 C94.15625,157.371094 101.941406,164.109375 111.160156,167.671875 C120.040563,171.246134 129.959437,171.246134 138.839844,167.671875 C148.066406,164.109375 155.851563,157.363281 162.195313,147.433594 C163.350798,146.168015 163.532228,144.291641 162.640625,142.828125 Z M134.515625,120.363281 C138.29363,124.171953 143.436146,126.31424 148.800781,126.31424 C154.165416,126.31424 159.307932,124.171953 163.085938,120.363281 C166.89461,116.585276 169.036896,111.44276 169.036896,106.078125 C169.036896,100.71349 166.89461,95.5709742 163.085938,91.7929687 C159.307932,87.9842966 154.165416,85.84201 148.800781,85.84201 C143.436146,85.84201 138.29363,87.9842966 134.515625,91.7929687 C130.651875,95.5113046 128.591178,100.722903 128.867188,106.078125 C128.591178,111.433347 130.651875,116.644945 134.515625,120.363281 Z" id="Shape" fill="#15514B" fill-rule="nonzero"></path>
            <path d="M94.3554688,93.609375 C95.9551502,93.5403054 97.5134131,94.1288884 98.6679688,95.2382813 C100.968796,97.5391082 100.968795,101.269486 98.6679686,103.570312 C96.3671418,105.871139 92.6367644,105.871139 90.3359375,103.570313 C89.2076808,102.415915 88.605634,100.847201 88.671875,99.234375 C87.5173558,101.33056 86.9126117,103.68503 86.9140625,106.078125 C86.8984063,109.871562 88.3984172,113.514151 91.080805,116.196539 C93.7631928,118.878927 97.4057818,120.378937 101.199219,120.363281 C104.991698,120.375787 108.632454,118.874765 111.314156,116.193063 C113.995859,113.51136 115.496881,109.870604 115.484375,106.078125 C115.496881,102.285646 113.995859,98.6448896 111.314156,95.9631874 C108.632454,93.2814851 104.991698,91.7804625 101.199219,91.7929688 C98.80245,91.7976445 96.4466489,92.4148321 94.3554688,93.5859375 L94.3554688,93.609375 Z" id="Path" fill="#4AA49B"></path>
            <path d="M141.957031,93.5859375 C143.556713,93.5168679 145.114976,94.1054509 146.269531,95.2148438 C148.570358,97.5286148 148.559865,101.269486 146.246094,103.570312 C143.932323,105.871139 140.191452,105.860646 137.890625,103.546875 C136.781232,102.392319 136.192649,100.834056 136.261719,99.234375 C135.10695,101.329932 134.505963,103.685478 134.515625,106.078125 C134.500102,111.883322 137.993633,117.122562 143.358659,119.340003 C148.723685,121.557445 154.896784,120.313559 158.984375,116.191406 C164.534246,110.591321 164.534246,101.564929 158.984375,95.9648438 C156.329665,93.2366215 152.665464,91.726835 148.859375,91.7929688 C146.442754,91.7876163 144.065532,92.4051288 141.957031,93.5859375 Z" id="Path" fill="#4AA49B"></path>
        </g>
    </g>
</svg>