<?xml version="1.0" encoding="UTF-8"?>
<svg width="250px" height="250px" viewBox="0 0 250 250" version="1.1" xmlns="http://www.w3.org/2000/svg" xmlns:xlink="http://www.w3.org/1999/xlink">
    <!-- Generator: Sketch 48.2 (47327) - http://www.bohemiancoding.com/sketch -->
    <title>Images/Community System/Quality of life</title>
    <desc>Created with Sketch.</desc>
    <defs></defs>
    <g id="Library-Symbols" stroke="none" stroke-width="1" fill="none" fill-rule="evenodd">
        <g id="Images/Community-System/Quality-of-life">
            <circle id="Oval-2" fill="#FCE7DC" cx="125" cy="125" r="125"></circle>
            <g id="quality-of-life" transform="translate(51.000000, 51.000000)">
                <path d="M137.820313,111.011719 C131.324092,122.180489 122.035958,131.468623 110.867188,137.964844 C99.7076622,144.562953 86.9638846,148.002072 74,147.914062 C61.0259714,147.999237 48.2733813,144.551825 37.109375,137.941406 C25.940605,131.445186 16.6524704,122.157051 10.15625,110.988281 C3.54583609,99.832283 0.0945037002,87.0882786 0.171875,74.1210937 C0.0973353225,61.1437618 3.55696246,48.3909442 10.1796875,37.2304688 C16.6759079,26.0616987 25.9640425,16.7735642 37.1328125,10.2773438 C48.2923378,3.6792346 61.0361154,0.240115987 74,0.328125 C86.9740286,0.24295003 99.7266187,3.69036242 110.890625,10.3007813 C122.059395,16.7970017 131.34753,26.0851362 137.84375,37.2539062 C144.454164,48.4099045 147.905496,61.1539089 147.828125,74.1210937 C147.902665,87.0984257 144.443038,99.8512433 137.820313,111.011719 Z M35.8671875,69.3632813 C39.645193,73.1719534 44.7877087,75.31424 50.1523438,75.31424 C55.5169788,75.31424 60.6594945,73.1719534 64.4375,69.3632813 C68.2403676,65.5821793 70.3786355,60.4408234 70.3786355,55.078125 C70.3786355,49.7154266 68.2403676,44.5740707 64.4375,40.7929688 C60.6594945,36.9842966 55.5169788,34.84201 50.1523438,34.84201 C44.7877087,34.84201 39.645193,36.9842966 35.8671875,40.7929688 C32.0585153,44.5709742 29.9162287,49.7134899 29.9162287,55.078125 C29.9162287,60.4427601 32.0585153,65.5852758 35.8671875,69.3632812 Z M111.640625,91.828125 C110.799787,90.3735346 109.296204,89.426672 107.621094,89.296875 C105.928272,89.0521669 104.263947,89.8960503 103.460938,91.40625 C98.1015625,99.5390625 91.8515625,105.007812 84.7109375,107.8125 C77.8403249,110.58959 70.1596751,110.58959 63.2890625,107.8125 C56.15625,105.03125 49.90625,99.5625 44.5390625,91.40625 C43.7291281,89.9051214 42.0663346,89.0713827 40.3789063,89.3203125 C38.7037959,89.4501095 37.2002131,90.3969721 36.359375,91.8515625 C35.467772,93.315079 35.6492025,95.1914521 36.8046875,96.4570312 C43.15625,106.371094 50.9414063,113.109375 60.1601563,116.671875 C69.0405626,120.246134 78.9594374,120.246134 87.8398438,116.671875 C97.0664063,113.109375 104.851563,106.363281 111.195313,96.4335938 C112.350798,95.1680146 112.532228,93.2916415 111.640625,91.828125 Z M83.515625,69.3632813 C87.2936305,73.1719534 92.4361462,75.31424 97.8007813,75.31424 C103.165416,75.31424 108.307932,73.1719534 112.085938,69.3632812 C115.89461,65.5852758 118.036896,60.4427601 118.036896,55.078125 C118.036896,49.7134899 115.89461,44.5709742 112.085938,40.7929687 C108.307932,36.9842966 103.165416,34.84201 97.8007813,34.84201 C92.4361462,34.84201 87.2936305,36.9842966 83.515625,40.7929687 C79.6518754,44.5113046 77.5911777,49.7229031 77.8671875,55.078125 C77.5911777,60.4333469 79.6518754,65.6449454 83.515625,69.3632813 Z" id="Shape" fill="#ED5C14" fill-rule="nonzero"></path>
                <path d="M43.3554688,42.609375 C44.9551502,42.5403054 46.5134131,43.1288884 47.6679688,44.2382813 C49.9687955,46.5391082 49.9687955,50.2694855 47.6679686,52.5703124 C45.3671418,54.8711392 41.6367644,54.8711393 39.3359375,52.5703125 C38.2076808,51.415915 37.605634,49.8472014 37.671875,48.234375 C36.5173558,50.3305599 35.9126117,52.68503 35.9140625,55.078125 C35.8984063,58.8715619 37.3984172,62.5141509 40.080805,65.1965387 C42.7631928,67.8789265 46.4057818,69.3789374 50.1992188,69.3632813 C53.9916979,69.3757875 57.6324541,67.8747649 60.3141564,65.1930626 C62.9958587,62.5113604 64.4968812,58.8706041 64.484375,55.078125 C64.4968812,51.2856459 62.9958587,47.6448896 60.3141564,44.9631874 C57.6324541,42.2814851 53.9916979,40.7804625 50.1992188,40.7929688 C47.80245,40.7976445 45.4466489,41.4148321 43.3554688,42.5859375 L43.3554688,42.609375 Z" id="Path" fill="#FFBFA1"></path>
                <path d="M90.9570313,42.5859375 C92.5567127,42.5168679 94.1149756,43.1054509 95.2695313,44.2148437 C97.570358,46.5286148 97.5598646,50.2694855 95.2460936,52.5703123 C92.9323226,54.8711392 89.1914519,54.8606459 86.890625,52.546875 C85.7812321,51.3923194 85.1926491,49.8340564 85.2617188,48.234375 C84.1069498,50.3299324 83.505963,52.6854782 83.515625,55.078125 C83.5001021,60.8833216 86.9936329,66.1225622 92.3586589,68.3400035 C97.7236848,70.5574448 103.896784,69.3135593 107.984375,65.1914063 C113.534246,59.591321 113.534246,50.564929 107.984375,44.9648438 C105.329665,42.2366215 101.665464,40.726835 97.859375,40.7929688 C95.4427539,40.7876163 93.0655324,41.4051288 90.9570313,42.5859375 Z" id="Path" fill="#FFBFA1"></path>
            </g>
        </g>
    </g>
</svg>