<?xml version="1.0" encoding="UTF-8"?>
<svg width="250px" height="250px" viewBox="0 0 250 250" version="1.1" xmlns="http://www.w3.org/2000/svg" xmlns:xlink="http://www.w3.org/1999/xlink">
    <!-- Generator: Sketch 48.2 (47327) - http://www.bohemiancoding.com/sketch -->
    <title>Images/Community System/Recreation</title>
    <desc>Created with Sketch.</desc>
    <defs></defs>
    <g id="Library-Symbols" stroke="none" stroke-width="1" fill="none" fill-rule="evenodd">
        <g id="Images/Community-System/Recreation">
            <circle id="Oval-2" fill="#ECFEC6" cx="125" cy="125" r="125"></circle>
            <g id="recreation" transform="translate(51.000000, 51.000000)" fill="#85C005" fill-rule="nonzero">
                <path d="M137.820313,111.011719 C131.324092,122.180489 122.035958,131.468623 110.867188,137.964844 C99.7076622,144.562953 86.9638846,148.002072 74,147.914062 C61.0259714,147.999237 48.2733813,144.551825 37.109375,137.941406 C25.940605,131.445186 16.6524704,122.157051 10.15625,110.988281 C3.54583609,99.832283 0.0945037002,87.0882786 0.171875,74.1210937 C0.0973353225,61.1437618 3.55696246,48.3909442 10.1796875,37.2304688 C16.6759079,26.0616987 25.9640425,16.7735642 37.1328125,10.2773438 C48.2923378,3.6792346 61.0361154,0.240115987 74,0.328125 C86.9740286,0.24295003 99.7266187,3.69036242 110.890625,10.3007813 C122.059395,16.7970017 131.34753,26.0851362 137.84375,37.2539062 C144.454164,48.4099045 147.905496,61.1539089 147.828125,74.1210937 C147.902665,87.0984257 144.443038,99.8512433 137.820313,111.011719 Z M125.773438,80.671875 L107.023438,63.4101562 L112.085938,38.4140625 L122.199219,39.3046875 C114.899877,28.9014299 104.318804,21.2503735 92.1523438,17.578125 L96.265625,26.8125 L74,39.3046875 L51.734375,26.8125 L55.8476563,17.578125 C43.6811959,21.2503735 33.1001234,28.9014299 25.8007813,39.3046875 L36.2070313,38.4140625 L40.9765625,63.4101563 L22.2265625,80.671875 L14.4921875,74.1210938 C14.3319756,86.7587525 18.3027377,99.1030905 25.8007813,109.277344 L28.1445313,99.1640625 L53.4335938,102.433594 L64.4492188,125.34375 L55.5195313,130.699219 C67.4956537,134.671248 80.4340338,134.671248 92.4101563,130.699219 L83.4804688,125.34375 L94.4960938,102.433594 L119.785156,99.1640625 L122.128906,109.277344 C129.631593,99.1054684 133.602871,86.7595278 133.4375,74.1210938 L125.773438,80.671875 Z M50.7734375,67.5703125 L74,50.9179687 L97.203125,67.5703125 L88.2851563,94.921875 L59.7148438,94.921875 L50.7734375,67.5703125 Z" id="Shape"></path>
            </g>
        </g>
    </g>
</svg>