<?xml version="1.0" encoding="UTF-8"?>
<svg width="250px" height="250px" viewBox="0 0 250 250" version="1.1" xmlns="http://www.w3.org/2000/svg" xmlns:xlink="http://www.w3.org/1999/xlink">
    <!-- Generator: Sketch 48.2 (47327) - http://www.bohemiancoding.com/sketch -->
    <title>Images/Community System/Recreation</title>
    <desc>Created with Sketch.</desc>
    <defs></defs>
    <g id="Library-Symbols" stroke="none" stroke-width="1" fill="none" fill-rule="evenodd">
        <g id="Images/Community-System/Recreation">
            <circle id="Oval-2" fill="#BFEFE9" cx="125" cy="125" r="125"></circle>
            <path d="M188.820313,162.011719 C182.324092,173.180489 173.035958,182.468623 161.867188,188.964844 C150.707662,195.562953 137.963885,199.002072 125,198.914063 C112.025971,198.999237 99.2733813,195.551825 88.109375,188.941406 C76.940605,182.445186 67.6524704,173.157051 61.15625,161.988281 C54.5458361,150.832283 51.0945037,138.088279 51.171875,125.121094 C51.0973353,112.143762 54.5569625,99.3909442 61.1796875,88.2304688 C67.6759079,77.0616987 76.9640425,67.7735642 88.1328125,61.2773438 C99.2923378,54.6792346 112.036115,51.240116 125,51.328125 C137.974029,51.24295 150.726619,54.6903624 161.890625,61.3007813 C173.059395,67.7970017 182.34753,77.0851362 188.84375,88.2539063 C195.454164,99.4099045 198.905496,112.153909 198.828125,125.121094 C198.902665,138.098426 195.443038,150.851243 188.820313,162.011719 Z M176.773438,131.671875 L158.023438,114.410156 L163.085938,89.4140625 L173.199219,90.3046875 C165.899877,79.9014299 155.318804,72.2503735 143.152344,68.578125 L147.265625,77.8125 L125,90.3046875 L102.734375,77.8125 L106.847656,68.578125 C94.6811959,72.2503735 84.1001234,79.9014299 76.8007813,90.3046875 L87.2070313,89.4140625 L91.9765625,114.410156 L73.2265625,131.671875 L65.4921875,125.121094 C65.3319756,137.758752 69.3027377,150.103091 76.8007813,160.277344 L79.1445313,150.164062 L104.433594,153.433594 L115.449219,176.34375 L106.519531,181.699219 C118.495654,185.671248 131.434034,185.671248 143.410156,181.699219 L134.480469,176.34375 L145.496094,153.433594 L170.785156,150.164062 L173.128906,160.277344 C180.631593,150.105468 184.602871,137.759528 184.4375,125.121094 L176.773438,131.671875 Z M101.773438,118.570312 L125,101.917969 L148.203125,118.570312 L139.285156,145.921875 L110.714844,145.921875 L101.773438,118.570312 Z" id="Shape" fill="#15514B" fill-rule="nonzero"></path>
        </g>
    </g>
</svg>