<?xml version="1.0" encoding="UTF-8"?>
<svg width="250px" height="250px" viewBox="0 0 250 250" version="1.1" xmlns="http://www.w3.org/2000/svg" xmlns:xlink="http://www.w3.org/1999/xlink">
    <!-- Generator: Sketch 48.2 (47327) - http://www.bohemiancoding.com/sketch -->
    <title>Images/Community System/Tourism</title>
    <desc>Created with Sketch.</desc>
    <defs></defs>
    <g id="Library-Symbols" stroke="none" stroke-width="1" fill="none" fill-rule="evenodd">
        <g id="Images/Community-System/Tourism">
            <circle id="Oval-2" fill="#BFEFE9" cx="125" cy="125" r="125"></circle>
            <path d="M73.0101562,69.6296875 L176.989844,69.6296875 C180.183026,69.5721688 183.257204,70.8408188 185.480469,73.1335938 C187.77173,75.3620757 189.039834,78.4386071 188.984375,81.634375 L188.984375,169.607812 C188.995202,172.793199 187.735299,175.851391 185.483831,178.104765 C183.232363,180.35814 180.175238,181.620631 176.989844,181.6125 L73.0101562,181.6125 C69.8169738,181.670019 66.7427958,180.401369 64.5195312,178.108594 C62.2282705,175.880112 60.9601661,172.80358 61.015625,169.607812 L61.015625,81.634375 C60.9601661,78.4386071 62.2282705,75.3620757 64.5195312,73.1335937 C66.7427958,70.8408188 69.8169738,69.5721688 73.0101562,69.6296875 Z M179.488281,101.621875 C180.262799,101.512056 180.871431,100.903424 180.98125,100.128906 L180.98125,81.634375 C181.027598,80.5613395 180.622331,79.5179544 179.863838,78.7575318 C179.105345,77.9971093 178.062994,77.5891915 176.989844,77.6328125 L113.757031,77.6328125 C113.235941,77.6410548 112.759214,77.927866 112.507812,78.384375 L105.002344,89.6273437 L70.4710937,89.6273437 C70.0795131,89.6503175 69.7135741,89.8296276 69.4554687,90.125 C69.1582194,90.3816618 68.9784954,90.7484456 68.9578125,91.140625 L68.9578125,100.139062 C68.9761268,100.531853 69.1562848,100.899523 69.4554687,101.154687 C69.7106334,101.453871 70.0783029,101.634029 70.4710937,101.652344 L179.488281,101.621875 Z M73.0101562,77.6328125 C71.9370064,77.5891915 70.8946546,77.9971093 70.136162,78.7575318 C69.3776695,79.5179544 68.972402,80.5613395 69.01875,81.634375 L69.01875,84.1328125 C69.0370643,84.5256033 69.2172223,84.8932728 69.5164062,85.1484375 C69.7705059,85.450431 70.1379766,85.6341664 70.5320312,85.65625 L99.5078125,85.65625 C100.281622,85.533834 100.888521,84.9269345 101.010937,84.153125 L101.010937,79.15625 C100.986508,78.7628229 100.803209,78.3962252 100.503125,78.140625 C100.24796,77.841441 99.8802908,77.661283 99.4875,77.6429687 L73.0101562,77.6328125 Z M125,167.607031 C135.72527,167.563916 145.618115,161.819492 150.97202,152.526 C156.325924,143.232509 156.332714,131.792809 150.989844,122.492969 C145.6373,113.213123 135.712625,107.523597 125,107.59375 C117.023032,107.536346 109.356563,110.681906 103.718713,116.325483 C98.0808635,121.96906 94.9430897,129.63872 95.0085937,137.615625 C94.945755,145.588938 98.0853721,153.253935 103.723531,158.892094 C109.36169,164.530253 117.026687,167.66987 125,167.607031 Z" id="Shape" fill="#15514B" fill-rule="nonzero"></path>
            <path d="M125,115.627344 C137.104076,115.726651 146.89354,125.511596 146.998437,137.615625 C146.89362,149.721344 137.105719,159.509245 125,159.614062 C112.894281,159.509245 103.10638,149.721344 103.001562,137.615625 C103.10646,125.511596 112.895924,115.726651 125,115.627344 Z M113.005469,141.617187 C114.078619,141.660808 115.12097,141.252891 115.879463,140.492468 C116.637956,139.732046 117.043223,138.688661 116.996875,137.615625 C117.067715,133.226967 120.611255,129.687923 125,129.622656 C127.210002,129.622656 129.001562,127.831096 129.001562,125.621094 C129.001562,123.411092 127.210002,121.619531 125,121.619531 C116.222597,121.755639 109.140014,128.838222 109.003906,137.615625 C108.963585,138.688759 109.372214,139.730168 110.13157,140.489524 C110.890925,141.24888 111.932335,141.657509 113.005469,141.617187 Z" id="Combined-Shape" fill="#4AA49B"></path>
        </g>
    </g>
</svg>