<?xml version="1.0" encoding="UTF-8"?>
<svg width="250px" height="250px" viewBox="0 0 250 250" version="1.1" xmlns="http://www.w3.org/2000/svg" xmlns:xlink="http://www.w3.org/1999/xlink">
    <!-- Generator: Sketch 48.2 (47327) - http://www.bohemiancoding.com/sketch -->
    <title>Images/Community System/Tourism</title>
    <desc>Created with Sketch.</desc>
    <defs></defs>
    <g id="Library-Symbols" stroke="none" stroke-width="1" fill="none" fill-rule="evenodd">
        <g id="Images/Community-System/Tourism">
            <circle id="Oval-2" fill="#F8F1D4" cx="125" cy="125" r="125"></circle>
            <g id="tourism" transform="translate(61.000000, 69.000000)" fill="#F2C706" fill-rule="nonzero">
                <path d="M12.0101562,0.6296875 L115.989844,0.6296875 C119.183026,0.572168814 122.257204,1.84081883 124.480469,4.13359375 C126.77173,6.36207572 128.039834,9.43860714 127.984375,12.634375 L127.984375,100.607812 C127.995202,103.793199 126.735299,106.851391 124.483831,109.104765 C122.232363,111.35814 119.175238,112.620631 115.989844,112.6125 L12.0101562,112.6125 C8.81697385,112.670019 5.74279584,111.401369 3.51953125,109.108594 C1.22827045,106.880112 -0.0398338936,103.80358 0.015625,100.607812 L0.015625,12.634375 C-0.0398338936,9.43860714 1.22827045,6.36207572 3.51953125,4.13359375 C5.74279584,1.84081883 8.81697385,0.572168814 12.0101562,0.6296875 Z M118.488281,32.621875 C119.262799,32.5120561 119.871431,31.9034237 119.98125,31.1289062 L119.98125,12.634375 C120.027598,11.5613395 119.622331,10.5179544 118.863838,9.75753182 C118.105345,8.99710927 117.062994,8.58919153 115.989844,8.6328125 L52.7570312,8.6328125 C52.2359409,8.64105477 51.759214,8.92786605 51.5078125,9.384375 L44.0023437,20.6273437 L9.47109375,20.6273437 C9.07951307,20.6503175 8.7135741,20.8296276 8.45546875,21.125 C8.1582194,21.3816618 7.97849536,21.7484456 7.9578125,22.140625 L7.9578125,31.1390625 C7.97612676,31.5318533 8.1562848,31.8995228 8.45546875,32.1546875 C8.71063344,32.4538715 9.07830291,32.6340295 9.47109375,32.6523437 L118.488281,32.621875 Z M12.0101562,8.6328125 C10.9370064,8.58919153 9.89465457,8.99710927 9.13616203,9.75753182 C8.37766949,10.5179544 7.97240198,11.5613395 8.01875,12.634375 L8.01875,15.1328125 C8.03706426,15.5256033 8.2172223,15.8932728 8.51640625,16.1484375 C8.77050592,16.450431 9.13797664,16.6341664 9.53203125,16.65625 L38.5078125,16.65625 C39.281622,16.533834 39.8885215,15.9269345 40.0109375,15.153125 L40.0109375,10.15625 C39.9865075,9.76282289 39.8032087,9.39622523 39.503125,9.140625 C39.2479603,8.84144105 38.8802908,8.66128301 38.4875,8.64296875 L12.0101562,8.6328125 Z M64,98.6070313 C74.7252704,98.5639159 84.6181148,92.8194919 89.9720196,83.5260002 C95.3259244,74.2325086 95.3327137,62.7928088 89.9898437,53.4929687 C84.6372999,44.2131234 74.7126249,38.523597 64,38.59375 C56.0230322,38.5363458 48.3565627,41.6819057 42.7187131,47.3254829 C37.0808635,52.96906 33.9430897,60.6387196 34.0085937,68.615625 C33.945755,76.5889384 37.0853721,84.2539348 42.7235311,89.8920939 C48.3616902,95.5302529 56.0266866,98.66987 64,98.6070313 Z M64,46.6273438 C76.1040761,46.7266514 85.8935403,56.5115961 85.9984375,68.615625 C85.8936202,80.721344 76.105719,90.5092452 64,90.6140625 C51.894281,90.5092452 42.1063798,80.721344 42.0015625,68.615625 C42.1064597,56.5115961 51.8959239,46.7266514 64,46.6273438 Z M52.0054687,72.6171875 C53.0786186,72.6608085 54.1209704,72.2528907 54.879463,71.4924682 C55.6379555,70.7320456 56.043223,69.6886605 55.996875,68.615625 C56.0677147,64.2269665 59.6112551,60.687923 64,60.6226562 C66.2100019,60.6226562 68.0015625,58.8310957 68.0015625,56.6210938 C68.0015625,54.4110918 66.2100019,52.6195313 64,52.6195313 C55.2225974,52.7556394 48.1400144,59.8382224 48.0039062,68.615625 C47.9635846,69.688759 48.3722138,70.7301683 49.1315696,71.4895242 C49.8909254,72.24888 50.9323347,72.6575092 52.0054687,72.6171875 Z" id="Shape"></path>
            </g>
        </g>
    </g>
</svg>