<?xml version="1.0" encoding="UTF-8"?>
<svg width="250px" height="250px" viewBox="0 0 250 250" version="1.1" xmlns="http://www.w3.org/2000/svg" xmlns:xlink="http://www.w3.org/1999/xlink">
    <!-- Generator: Sketch 48.2 (47327) - http://www.bohemiancoding.com/sketch -->
    <title>Images/Community System/Transportation</title>
    <desc>Created with Sketch.</desc>
    <defs></defs>
    <g id="Library-Symbols" stroke="none" stroke-width="1" fill="none" fill-rule="evenodd">
        <g id="Images/Community-System/Transportation">
            <circle id="Oval-2" fill="#BFEFE9" cx="125" cy="125" r="125"></circle>
            <path d="M188.978571,152.423214 C188.899266,157.401792 187.084803,162.196573 183.848214,165.980357 C180.183723,170.443838 175.469936,173.929328 170.128571,176.125 C164.356552,178.611773 158.132134,179.876417 151.847321,179.839286 L169.85,194.116071 C170.605632,194.678059 170.894991,195.674213 170.558036,196.553571 C170.349774,197.544024 169.429618,198.219138 168.422321,198.120536 L81.5776786,198.120536 C80.570382,198.219138 79.6502258,197.544024 79.4419643,196.553571 C79.1050092,195.674213 79.394368,194.678059 80.15,194.116071 L98.1526786,179.839286 C91.8678662,179.876417 85.6434477,178.611773 79.8714286,176.125 C74.5300638,173.929328 69.8162767,170.443838 66.1517857,165.980357 C62.9151971,162.196573 61.1007336,157.401792 61.0214286,152.423214 L61.0214286,79.2982143 C61.0616376,74.2362143 62.938318,69.36097 66.3026786,65.5785714 C70.0425155,61.2515125 74.7347375,57.8505455 80.0107143,55.6428571 C85.5387775,53.1660045 91.5263565,51.880692 97.5839286,51.8705357 L152.416071,51.8705357 C158.517606,51.889311 164.548881,53.1738225 170.128571,55.6428571 C175.439326,57.8216002 180.14579,61.2499131 183.848214,65.6366071 C187.132694,69.4558378 188.951248,74.3190304 188.978571,79.35625 L188.978571,152.423214 Z M175.270536,86.1464286 C175.279857,84.3273278 174.561344,82.5800368 173.275029,81.2937214 C171.988713,80.007406 170.241422,79.2888933 168.422321,79.2982143 L81.5776786,79.2982143 C79.7585778,79.2888933 78.0112868,80.007406 76.7249714,81.2937214 C75.438656,82.5800368 74.7201433,84.3273278 74.7294643,86.1464286 L74.7294643,118.135714 C74.7170304,119.956821 75.4341684,121.707111 76.7208244,122.995948 C78.0074803,124.284785 79.7565536,125.004886 81.5776786,124.995536 L168.422321,124.995536 C170.243446,125.004886 171.99252,124.284785 173.279176,122.995948 C174.565832,121.707111 175.28297,119.956821 175.270536,118.135714 L175.270536,86.1464286 Z M113.752679,141.129464 C109.209423,145.701372 107.85165,152.552298 110.307784,158.511402 C112.763919,164.470505 118.554717,168.375041 125,168.417857 C131.473643,168.434218 137.315895,164.538438 139.789314,158.55592 C142.262732,152.573402 140.877288,145.689395 136.282143,141.129464 C133.301576,138.115407 129.238906,136.419283 125,136.419283 C120.761094,136.419283 116.698424,138.115407 113.717857,141.129464 L113.752679,141.129464 Z" id="Shape" fill="#15514B" fill-rule="nonzero"></path>
        </g>
    </g>
</svg>