<?xml version="1.0" encoding="UTF-8"?>
<svg width="250px" height="250px" viewBox="0 0 250 250" version="1.1" xmlns="http://www.w3.org/2000/svg" xmlns:xlink="http://www.w3.org/1999/xlink">
    <!-- Generator: Sketch 48.2 (47327) - http://www.bohemiancoding.com/sketch -->
    <title>Images/Community System/Transportation</title>
    <desc>Created with Sketch.</desc>
    <defs></defs>
    <g id="Library-Symbols" stroke="none" stroke-width="1" fill="none" fill-rule="evenodd">
        <g id="Images/Community-System/Transportation">
            <circle id="Oval-2" fill="#F2F2F2" cx="125" cy="125" r="125"></circle>
            <g id="transportation" transform="translate(61.000000, 51.000000)" fill="#A4A49A" fill-rule="nonzero">
                <path d="M127.978571,101.423214 C127.899266,106.401792 126.084803,111.196573 122.848214,114.980357 C119.183723,119.443838 114.469936,122.929328 109.128571,125.125 C103.356552,127.611773 97.1321338,128.876417 90.8473214,128.839286 L108.85,143.116071 C109.605632,143.678059 109.894991,144.674213 109.558036,145.553571 C109.349774,146.544024 108.429618,147.219138 107.422321,147.120536 L20.5776786,147.120536 C19.570382,147.219138 18.6502258,146.544024 18.4419643,145.553571 C18.1050092,144.674213 18.394368,143.678059 19.15,143.116071 L37.1526786,128.839286 C30.8678662,128.876417 24.6434477,127.611773 18.8714286,125.125 C13.5300638,122.929328 8.81627675,119.443838 5.15178571,114.980357 C1.91519714,111.196573 0.100733563,106.401792 0.0214285714,101.423214 L0.0214285714,28.2982143 C0.0616376309,23.2362143 1.93831796,18.36097 5.30267857,14.5785714 C9.04251546,10.2515125 13.7347375,6.85054548 19.0107143,4.64285714 C24.5387775,2.16600452 30.5263565,0.880691997 36.5839286,0.870535714 L91.4160714,0.870535714 C97.5176058,0.889311009 103.548881,2.17382249 109.128571,4.64285714 C114.439326,6.82160025 119.14579,10.2499131 122.848214,14.6366071 C126.132694,18.4558378 127.951248,23.3190304 127.978571,28.35625 L127.978571,101.423214 Z M114.270536,35.1464286 C114.279857,33.3273278 113.561344,31.5800368 112.275029,30.2937214 C110.988713,29.007406 109.241422,28.2888933 107.422321,28.2982143 L20.5776786,28.2982143 C18.7585778,28.2888933 17.0112868,29.007406 15.7249714,30.2937214 C14.438656,31.5800368 13.7201433,33.3273278 13.7294643,35.1464286 L13.7294643,67.1357143 C13.7170304,68.9568208 14.4341684,70.7071111 15.7208244,71.9959478 C17.0074803,73.2847845 18.7565536,74.0048856 20.5776786,73.9955357 L107.422321,73.9955357 C109.243446,74.0048856 110.99252,73.2847845 112.279176,71.9959478 C113.565832,70.7071111 114.28297,68.9568208 114.270536,67.1357143 L114.270536,35.1464286 Z M52.7526786,90.1294643 C48.2094228,94.7013716 46.8516503,101.552298 49.3077844,107.511402 C51.7639185,113.470505 57.5547167,117.375041 64,117.417857 C70.4736432,117.434218 76.3158947,113.538438 78.7893136,107.55592 C81.2627324,101.573402 79.8772879,94.6893948 75.2821429,90.1294643 C72.3015756,87.1154068 68.238906,85.4192831 64,85.4192831 C59.761094,85.4192831 55.6984244,87.1154068 52.7178571,90.1294643 L52.7526786,90.1294643 Z" id="Shape"></path>
            </g>
        </g>
    </g>
</svg>