<?xml version="1.0" encoding="UTF-8"?>
<svg width="250px" height="250px" viewBox="0 0 250 250" version="1.1" xmlns="http://www.w3.org/2000/svg" xmlns:xlink="http://www.w3.org/1999/xlink">
    <!-- Generator: Sketch 48.2 (47327) - http://www.bohemiancoding.com/sketch -->
    <title>Images/Community System/Wastewater and storm management</title>
    <desc>Created with Sketch.</desc>
    <defs></defs>
    <g id="Library-Symbols" stroke="none" stroke-width="1" fill="none" fill-rule="evenodd">
        <g id="Images/Community-System/Wastewater-and-storm-management">
            <circle id="Oval-2" fill="#BFEFE9" cx="125" cy="125" r="125"></circle>
            <g id="wastewater-storm-management" transform="translate(46.000000, 46.000000)" fill-rule="nonzero">
                <path d="M79.5543307,15.1181102 C105.515837,15.1181182 128.920055,30.7596489 138.850379,54.7469052 C148.780703,78.7341615 143.280802,106.341515 124.916036,124.691861 C106.55127,143.042206 78.9396039,148.520418 54.9601557,138.571254 C30.9807076,128.62209 15.3575668,105.205593 15.3779528,79.2440945 C15.4473533,43.837409 44.1476017,15.1596972 79.5543307,15.1181102 Z M79.5543307,-1.42e-14 C47.4781195,6.47768191e-06 18.5612887,19.3249454 6.29096716,48.9614522 C-5.97935441,78.597959 0.813986894,112.707882 23.5025018,135.381978 C46.1910166,158.056074 80.305252,164.827729 109.933952,152.538569 C139.562652,140.24941 158.869204,111.320299 158.848819,79.2440945 C158.82795,35.4677566 123.330673,-0.00696132923 79.5543307,-1.42e-14 Z" id="Shape" fill="#4AA49B"></path>
                <path d="M101.979528,27.1748031 C100.929769,26.7368828 99.7479418,26.7398532 98.7003978,27.1830449 C97.6528539,27.6262365 96.8277432,28.4723553 96.4110236,29.5307087 C93.7198414,36.1320015 87.3004352,40.447331 80.1716535,40.447331 C73.0428719,40.447331 66.6234656,36.1320015 63.9322835,29.5307087 C63.5155638,28.4723553 62.6904532,27.6262365 61.6429092,27.1830449 C60.5953653,26.7398532 59.413538,26.7368828 58.3637795,27.1748031 C37.2092476,35.9151075 23.3857419,56.5189407 23.3196208,79.4078632 C23.2534997,102.296786 36.9577357,122.980141 58.0614173,131.84252 C59.0811636,132.291053 60.2382599,132.311567 61.2732638,131.89946 C62.3082676,131.487353 63.134581,130.677107 63.5669291,129.650394 C66.2309771,122.985342 72.6852444,118.614389 79.8629921,118.614389 C87.0407398,118.614389 93.4950072,122.985342 96.1590551,129.650394 C96.5660399,130.714719 97.3849311,131.570017 98.4305582,132.022885 C99.4761852,132.475753 100.660233,132.487941 101.714961,132.056693 C122.966339,123.331389 136.86415,102.658076 136.922078,79.6852956 C136.980007,56.7125148 123.186632,35.9693753 101.979528,27.1370079 L101.979528,27.1748031 Z M73.4440945,105.562205 C72.6489906,106.349583 71.5639619,106.773565 70.4456693,106.733858 L47.1007874,106.733858 C44.7977165,106.733858 42.9307087,104.86685 42.9307087,102.56378 C42.9307087,100.260709 44.7977165,98.3937008 47.1007874,98.3937008 L70.4456693,98.3937008 C72.128069,98.425511 73.6329207,99.447914 74.2822435,101.000287 C74.9315663,102.552659 74.6028121,104.342019 73.4440945,105.562205 Z M73.4440945,82.6204724 C72.6489906,83.4078508 71.5639619,83.8318326 70.4456693,83.792126 L39.4787402,83.792126 C37.9889145,83.7921261 36.6122587,82.9973136 35.8673458,81.7070867 C35.1224329,80.4168598 35.1224329,78.8272347 35.8673458,77.5370078 C36.6122587,76.2467809 37.9889145,75.4519684 39.4787402,75.4519685 L70.4456693,75.4519685 C72.128069,75.4837787 73.6329207,76.5061817 74.2822435,78.0585543 C74.9315663,79.6109269 74.6028121,81.4002863 73.4440945,82.6204724 Z M73.4440945,59.6787402 C72.6489906,60.4661185 71.5639619,60.8901003 70.4456693,60.8503937 L47.0125984,60.8503937 C45.5227727,60.8503938 44.146117,60.0555813 43.4012042,58.7653544 C42.6562913,57.4751275 42.6562913,55.8855024 43.4012042,54.5952755 C44.146117,53.3050487 45.5227727,52.5102362 47.0125984,52.5102362 L70.4456693,52.5102362 C72.128069,52.5420464 73.6329207,53.5644494 74.2822435,55.116822 C74.9315663,56.6691946 74.6028121,58.458554 73.4440945,59.6787402 Z M85.9291339,53.6818898 C86.7242378,52.8945114 87.8092665,52.4705296 88.9275591,52.5102362 L112.385827,52.5102362 C114.688898,52.5102362 116.555906,54.3772441 116.555906,56.680315 C116.555906,58.9833859 114.688898,60.8503937 112.385827,60.8503937 L88.9527559,60.8503937 C87.2657948,60.8283631 85.7519438,59.8095905 85.096274,58.2551066 C84.4406041,56.7006227 84.7675409,54.9054195 85.9291339,53.6818898 Z M115.296063,105.562205 C114.500126,106.348301 113.415674,106.772058 112.297638,106.733858 L88.9527559,106.733858 C86.649685,106.733858 84.7826772,104.86685 84.7826772,102.56378 C84.7826772,100.260709 86.649685,98.3937008 88.9527559,98.3937008 L112.297638,98.3937008 C113.980038,98.425511 115.484889,99.447914 116.134212,101.000287 C116.783535,102.552659 116.454781,104.342019 115.296063,105.562205 Z M119.944882,83.792126 L88.9527559,83.792126 C86.649685,83.792126 84.7826772,81.9251181 84.7826772,79.6220472 C84.7826772,77.3189764 86.649685,75.4519685 88.9527559,75.4519685 L119.944882,75.4519685 C122.247953,75.4519685 124.114961,77.3189764 124.114961,79.6220472 C124.114961,81.9251181 122.247953,83.792126 119.944882,83.792126 Z" id="Shape" fill="#15514B"></path>
            </g>
        </g>
    </g>
</svg>