<?xml version="1.0" encoding="UTF-8"?>
<svg width="250px" height="250px" viewBox="0 0 250 250" version="1.1" xmlns="http://www.w3.org/2000/svg" xmlns:xlink="http://www.w3.org/1999/xlink">
    <!-- Generator: Sketch 48.2 (47327) - http://www.bohemiancoding.com/sketch -->
    <title>Images/Community System/Waste management</title>
    <desc>Created with Sketch.</desc>
    <defs></defs>
    <g id="Library-Symbols" stroke="none" stroke-width="1" fill="none" fill-rule="evenodd">
        <g id="Images/Community-System/Waste-management">
            <circle id="Oval-2" fill="#F2F2F2" cx="125" cy="125" r="125"></circle>
            <g id="waste-management" transform="translate(61.000000, 51.000000)">
                <path d="M118.84375,133.4125 C118.853028,137.050933 117.411772,140.543019 114.839003,143.115788 C112.266233,145.688558 108.774148,147.129814 105.135714,147.120536 L22.8642857,147.120536 C19.2258523,147.129814 15.7337666,145.688558 13.1609973,143.115788 C10.588228,140.543019 9.14697218,137.050933 9.15625,133.4125 L9.15625,40.8571429 C9.1374835,39.9380693 9.49031198,39.0502955 10.1348455,38.3948377 C10.7793791,37.7393798 11.661098,37.3716817 12.5803571,37.375 L115.419643,37.375 C116.348908,37.3558337 117.245784,37.7165433 117.903013,38.3737725 C118.560242,39.0310017 118.920952,39.927878 118.901786,40.8571429 L118.84375,133.4125 Z M39.9151786,57.0026786 C38.6060768,55.6502066 36.6020158,55.2379641 34.8653748,55.963916 C33.1287339,56.6898678 32.0142612,58.4057218 32.0571429,60.2875 L32.0571429,124.266071 C31.9720864,125.952786 32.8235495,127.549081 34.2717556,128.417953 C35.7199617,129.286826 37.5291454,129.286826 38.9773515,128.417953 C40.4255576,127.549081 41.2770207,125.952786 41.1919643,124.266071 L41.1919643,60.2875 C41.2206947,59.0573086 40.7421934,57.8694501 39.86875,57.0026786 L39.9151786,57.0026786 Z M67.33125,57.0026786 C66.0221482,55.6502066 64.0180872,55.2379641 62.2814462,55.963916 C60.5448053,56.6898678 59.4303326,58.4057218 59.4732143,60.2875 L59.4732143,124.266071 C59.4732143,126.791788 61.5207121,128.839286 64.0464286,128.839286 C66.5721451,128.839286 68.6196429,126.791788 68.6196429,124.266071 L68.6196429,60.2875 C68.649504,59.0548255 68.1660549,57.8651203 67.2848214,57.0026786 L67.33125,57.0026786 Z M94.7589286,57.0026786 C93.4498268,55.6502066 91.4457658,55.2379641 89.7091248,55.963916 C87.9724839,56.6898678 86.8580112,58.4057218 86.9008929,60.2875 L86.9008929,124.266071 C86.8158364,125.952786 87.6672995,127.549081 89.1155056,128.417953 C90.5637117,129.286826 92.3728954,129.286826 93.8211015,128.417953 C95.2693076,127.549081 96.1207707,125.952786 96.0357143,124.266071 L96.0357143,60.2875 C96.0644447,59.0573086 95.5859434,57.8694501 94.7125,57.0026786 L94.7589286,57.0026786 Z" id="Shape" fill="#A4A49A" fill-rule="nonzero"></path>
                <path d="M0.0214285714,16.8651786 C0.0152486023,15.0459656 0.73439785,13.2993122 2.01969341,12.0118381 C3.30498897,10.7243641 5.05042202,10.002258 6.86964286,10.0053571 L38.8589286,10.0053571 L41.4357143,4.64285714 C42.0025577,3.50318516 42.8954447,2.55777544 44.0008929,1.92678571 C45.1318842,1.24168712 46.4277048,0.876610707 47.75,0.870535714 L80.25,0.870535714 C81.5550599,0.865319894 82.8376615,1.21001908 83.9642857,1.86875 C85.0912171,2.50966412 85.9976583,3.47680456 86.5642857,4.64285714 L89.1410714,10.0633929 L121.130357,10.0633929 C122.949578,10.0602937 124.695011,10.7823998 125.980307,12.0698739 C127.265602,13.3573479 127.984751,15.1040013 127.978571,16.9232143 L127.978571,24.9205357 C127.978571,26.8436701 126.419563,28.4026786 124.496429,28.4026786 L3.44553571,28.4026786 C1.54510355,28.3710003 0.0211645678,26.8212319 0.0214285714,24.9205357 L0.0214285714,16.8651786 Z" id="Path" fill="#C9C9C3"></path>
            </g>
        </g>
    </g>
</svg>