<?xml version="1.0" encoding="UTF-8"?>
<svg width="250px" height="250px" viewBox="0 0 250 250" version="1.1" xmlns="http://www.w3.org/2000/svg" xmlns:xlink="http://www.w3.org/1999/xlink">
    <!-- Generator: Sketch 48.2 (47327) - http://www.bohemiancoding.com/sketch -->
    <title>Images/Community System/Water supply</title>
    <desc>Created with Sketch.</desc>
    <defs></defs>
    <g id="Library-Symbols" stroke="none" stroke-width="1" fill="none" fill-rule="evenodd">
        <g id="Images/Community-System/Water-supply">
            <circle id="Oval-2" fill="#BFEFE9" cx="125" cy="125" r="125"></circle>
            <g id="water-supply" transform="translate(50.000000, 36.000000)" fill-rule="nonzero">
                <path d="M24.5,177.985714 C22.2425302,176.682879 20.3659069,174.811181 19.0571429,172.557143 C17.7347128,170.295381 17.0439881,167.719965 17.0571429,165.1 C17.0477026,162.872805 17.5357716,160.671614 18.4857143,158.657143 C19.5291274,156.667403 20.7180758,154.757445 22.0428571,152.942857 C23.8,150.442857 25.1285714,148.428571 26.0285714,146.928571 C27.4663482,144.424003 28.5891407,141.751373 29.3714286,138.971429 C29.5913817,138.248459 30.1118492,137.655127 30.8,137.342857 C31.4798399,137.029143 32.2630173,137.029143 32.9428571,137.342857 C33.657949,137.61767 34.1921227,138.226628 34.3714286,138.971429 C35.2096565,141.756574 36.3347334,144.447183 37.7285714,147 C38.6142857,148.514286 39.9380952,150.509524 41.7,152.985714 C43.0303932,154.796509 44.2196113,156.706899 45.2571429,158.7 C47.4421128,163.121843 47.2541728,168.346574 44.7571429,172.6 C43.4483788,174.854038 41.5717555,176.725736 39.3142857,178.028571 C34.7106156,180.714001 29.0179559,180.714001 24.4142857,178.028571 L24.5,177.985714 Z" id="Shape" fill="#15514B"></path>
                <rect id="Rectangle-path" fill="#4AA49B" x="0.728571429" y="112.457143" width="62.5571429" height="18.0142857" rx="2"></rect>
                <rect id="Rectangle-path" fill="#4AA49B" transform="translate(140.878571, 68.021429) rotate(90.000000) translate(-140.878571, -68.021429) " x="109.6" y="59.0142857" width="62.5571429" height="18.0142857" rx="2"></rect>
                <path d="M92.5571429,18.0142857 L118.028571,18.0142857 C122.746263,17.975455 126.561169,14.1605486 126.6,9.44285714 L126.6,8.64285714 C126.561169,3.92516567 122.746263,0.110259275 118.028571,0.0714285714 L45.4285714,0.0714285714 C43.1428571,0.071349205 40.9517857,0.984206347 39.3422619,2.60714286 C37.7327381,4.23007936 36.8380952,6.42865079 36.8571429,8.71428571 L36.8571429,9.44285714 C36.8380952,11.7284921 37.7327381,13.9270635 39.3422619,15.55 C40.9517857,17.1729365 43.1428571,18.0857937 45.4285714,18.0857143 L70.8714286,18.0857143 L76.3571429,27.6 L72.3285714,34.5857143 L67.1428571,34.5857143 C65.5649007,34.5857143 64.2857143,35.8649007 64.2857143,37.4428571 L64.2857143,44.5142857 L32.6571429,44.5142857 C19.3758752,44.5378178 8.61072474,55.2901982 8.57142857,68.5714286 L8.57142857,102.271429 C8.57142857,103.920393 9.90817839,105.257143 11.5571429,105.257143 L52.5,105.257143 C54.1489645,105.257143 55.4857143,103.920393 55.4857143,102.271429 L55.4857143,91.4285714 L121.428571,91.4285714 C122.219125,91.4285806 122.977092,91.11356 123.534756,90.5532155 C124.092419,89.992871 124.403801,89.2334013 124.4,88.4428571 L124.4,47.4142857 C124.4,45.773211 123.069646,44.4428571 121.428571,44.4428571 L99.1285714,44.4428571 L99.1285714,37.3714286 C99.1285714,35.7934721 97.849385,34.5142857 96.2714286,34.5142857 L91.1,34.5142857 L87.1428571,27.5285714 L92.5571429,18.0142857 Z" id="Shape" fill="#4AA49B"></path>
            </g>
        </g>
    </g>
</svg>