<?xml version="1.0" encoding="UTF-8"?>
<svg width="64px" height="64px" viewBox="0 0 64 64" version="1.1" xmlns="http://www.w3.org/2000/svg" xmlns:xlink="http://www.w3.org/1999/xlink">
    <!-- Generator: Sketch 49 (51002) - http://www.bohemiancoding.com/sketch -->
    <title>capacity-building</title>
    <desc>Created with Sketch.</desc>
    <defs></defs>
    <g id="Designs" stroke="none" stroke-width="1" fill="none" fill-rule="evenodd">
        <g id="Create-Plan-Wizard,-Step-3" transform="translate(-600.000000, -496.000000)">
            <g id="capacity-building" transform="translate(600.000000, 496.000000)">
                <circle id="Background" fill="#FFFFFF" cx="32" cy="32" r="32"></circle>
                <path d="M28.2181816,43.1332572 C30.2534535,44.2889143 32.7465465,44.2889143 34.7818184,43.1332572 C35.7569898,42.5675394 36.5675394,41.7569898 37.1332572,40.7818184 C38.2889143,38.7465465 38.2889143,36.2534535 37.1332572,34.2181816 C36.5675394,33.2430102 35.7569898,32.4324606 34.7818184,31.8667428 C32.7465465,30.7110857 30.2534535,30.7110857 28.2181816,31.8667428 C27.2437325,32.4333994 26.4333994,33.2437325 25.8667428,34.2181816 C24.7110857,36.2534535 24.7110857,38.7465465 25.8667428,40.7818184 C26.4333994,41.7562675 27.2437325,42.5666006 28.2181816,43.1332572 Z" id="Shape" fill="#C9C9C3" fill-rule="nonzero"></path>
                <path d="M19.4966939,26.9995782 C20.6938519,27.0162772 21.8447325,26.5365332 22.677146,25.6738083 C23.5376996,24.8392946 24.0162362,23.6855104 23.9995792,22.4853319 C24.0162362,21.2851534 23.5376996,20.1313691 22.677146,19.2968554 C21.8396675,18.4450891 20.6894349,17.9764034 19.4966939,18.0009154 C18.3052567,17.9799749 17.157622,18.4509733 16.322854,19.3034843 C15.4623004,20.137998 14.9837638,21.2917822 15.0004208,22.4919607 C14.9837638,23.6921392 15.4623004,24.8459235 16.322854,25.6804372 C17.1548125,26.5390365 18.3028063,27.0161764 19.4966939,26.9995782 Z" id="Shape" fill="#C9C9C3" fill-rule="nonzero"></path>
                <path d="M44.4983886,26.9995391 C45.6952483,27.0169876 46.8459975,26.538335 47.6776438,25.6771323 C48.5378736,24.8447354 49.0162301,23.6938779 48.9995794,22.4967439 C49.0162301,21.2996098 48.5378736,20.1487523 47.6776438,19.3163554 C45.9225257,17.5612149 43.0775565,17.5612149 41.3224383,19.3163554 C40.4608742,20.1478423 39.9822661,21.2993051 40.0005027,22.4967439 C39.9822661,23.6941826 40.4608742,24.8456455 41.3224383,25.6771323 C42.1532944,26.5374911 43.3026719,27.0160706 44.4983886,26.9995391 Z" id="Shape" fill="#C9C9C3" fill-rule="nonzero"></path>
                <path d="M39.3252302,45.8562425 C38.8854726,45.250924 38.2666507,44.8254038 37.5713066,44.6501928 L35.2183506,44 C32.9970584,45.7191588 30.0030068,45.7191588 27.7817145,44 L25.4287586,44.6501928 C24.7334145,44.8254038 24.1145926,45.250924 23.674835,45.8562425 C23.2308041,46.4539897 22.9924873,47.1984614 23.000249,47.9635639 L23.000249,49.2857194 C22.9926081,49.7420236 23.1611375,50.1813222 23.4657133,50.4990257 C23.7610552,50.8266621 24.1694338,51.0079516 24.5936211,50.9997322 L38.4064441,50.9997322 C38.8293623,51.0008923 39.2352697,50.8206818 39.534319,50.4989903 C39.8333683,50.1772987 40.0008947,49.7406585 39.9998162,49.2857194 L39.9998162,47.9635639 C40.0075779,47.1984614 39.769261,46.4539897 39.3252302,45.8562425 Z" id="Shape" fill="#E5E5E2" fill-rule="nonzero"></path>
                <path d="M50.4839996,28.3258875 C50.1477144,27.8935171 49.6744976,27.5895741 49.1427639,27.4644235 L47.3434446,27 C45.6448094,28.2279706 43.3552405,28.2279706 41.6566052,27 L39.857286,27.4644235 C39.3255522,27.5895741 38.8523355,27.8935171 38.5160503,28.3258875 C38.1764973,28.7528498 37.994255,29.2846153 38.0001904,29.8311171 L38.0001904,30.7755139 C37.9943474,31.1014455 38.1232228,31.4152301 38.3561337,31.6421612 C38.5819834,31.8761872 38.8942729,32.0056797 39.2186514,31.9998087 L49.7813984,31.9998087 C50.1048065,32.0006373 50.4152062,31.8719156 50.643891,31.6421359 C50.8725758,31.4123562 51.0006841,31.1004704 50.9998595,30.7755139 L50.9998595,29.8311171 C51.0057949,29.2846153 50.8235526,28.7528498 50.4839996,28.3258875 Z" id="Shape-Copy" fill="#E5E5E2" fill-rule="nonzero"></path>
                <path d="M25.4839996,28.3258875 C25.1477144,27.8935171 24.6744976,27.5895741 24.1427639,27.4644235 L22.3434446,27 C20.6448094,28.2279706 18.3552405,28.2279706 16.6566052,27 L14.857286,27.4644235 C14.3255522,27.5895741 13.8523355,27.8935171 13.5160503,28.3258875 C13.1764973,28.7528498 12.994255,29.2846153 13.0001904,29.8311171 L13.0001904,30.7755139 C12.9943474,31.1014455 13.1232228,31.4152301 13.3561337,31.6421612 C13.5819834,31.8761872 13.8942729,32.0056797 14.2186514,31.9998087 L24.7813984,31.9998087 C25.1048065,32.0006373 25.4152062,31.8719156 25.643891,31.6421359 C25.8725758,31.4123562 26.0006841,31.1004704 25.9998595,30.7755139 L25.9998595,29.8311171 C26.0057949,29.2846153 25.8235526,28.7528498 25.4839996,28.3258875 Z" id="Shape-Copy-2" fill="#E5E5E2" fill-rule="nonzero"></path>
                <rect id="Rectangle-path" fill="#EEEEEC" fill-rule="nonzero" transform="translate(43.500000, 38.000000) rotate(45.000000) translate(-43.500000, -38.000000) " x="42" y="34" width="3" height="8" rx="1.5"></rect>
                <rect id="Rectangle-path-Copy" fill="#EEEEEC" fill-rule="nonzero" transform="translate(32.000000, 22.500000) rotate(-270.000000) translate(-32.000000, -22.500000) " x="30.5" y="17.5" width="3" height="10" rx="1.5"></rect>
                <rect id="Rectangle-path" fill="#EEEEEC" fill-rule="nonzero" transform="translate(18.500000, 38.000000) rotate(135.000000) translate(-18.500000, -38.000000) " x="17" y="34" width="3" height="8" rx="1.5"></rect>
            </g>
        </g>
    </g>
</svg>