<svg xmlns="http://www.w3.org/2000/svg" width="172" height="203" viewBox="0 0 172 203">
  <g fill="#FFFFFF" transform="translate(0 -1)">
    <path d="M98.63,145 L98.63,68.21 C98.63,61.1241867 92.8858133,55.38 85.8,55.38 C78.7141867,55.38 72.97,61.1241867 72.97,68.21 L72.97,145 C65.5894821,150.524627 62.5742503,160.153484 65.4855316,168.900941 C68.396813,177.648397 76.5808054,183.549988 85.8,183.549988 C95.0191946,183.549988 103.203187,177.648397 106.114468,168.900941 C109.02575,160.153484 106.010518,150.524627 98.63,145 Z M85.63,174.95 C79.1254134,174.805805 73.7290965,169.875204 73,163.41 C72.4169082,157.528953 75.9390702,152.014206 81.52,150.07 L81.52,109.5 C81.5310094,107.138513 83.448487,105.229974 85.81,105.23 C88.171513,105.229974 90.0889906,107.138513 90.1,109.5 L90.1,150.07 C96.0395611,152.146783 99.5863075,158.235184 98.4631405,164.4263 C97.3399736,170.617415 91.8805693,175.071957 85.59,174.93 L85.63,174.95 Z"/>
    <path d="M144.28,9.57 C147.949345,9.54265838 151.364693,11.4400737 153.28,14.57 C158.13,22.57 163.07,37.32 163.07,50.32 C163.07,72.74 156.29,91.9 158.13,115.09 C159.03,126.44 159.34,139.15 159.37,149.15 C159.37,160.39 157.89,170.62 156.37,175.91 C156.108745,176.820593 155.43274,177.554289 154.54654,177.889075 C153.660339,178.223862 152.668075,178.120402 151.87,177.61 L139,169.48 C138.761667,169.325367 138.484094,169.242095 138.2,169.24 C137.798706,169.237316 137.41307,169.395542 137.129306,169.679306 C136.845542,169.96307 136.687316,170.348706 136.69,170.75 L136.6,177.27 C136.6,178.926854 135.256854,180.27 133.6,180.27 C132.970249,180.265142 132.357996,180.062224 131.85,179.69 C127.65,176.69 121.85,172.53 119.67,171.53 C119.283146,171.363924 118.843873,171.370459 118.462131,171.547969 C118.080389,171.725479 117.792309,172.057164 117.67,172.46 C117.36,173.52 116.95,174.82 116.67,175.58 C111.31,187.21 101.09,195.46 85.87,195.47 C70.65,195.47 60.43,187.21 55.07,175.58 C54.77,174.83 54.36,173.52 54.07,172.46 C53.9476906,172.057164 53.6596113,171.725479 53.2778692,171.547969 C52.8961272,171.370459 52.4568535,171.363924 52.07,171.53 C49.92,172.53 44.07,176.65 39.89,179.69 C39.3820042,180.062224 38.7697514,180.265142 38.14,180.27 C36.4831458,180.27 35.14,178.926854 35.14,177.27 L35.05,170.75 C35.0526843,170.348706 34.8944576,169.96307 34.6106937,169.679306 C34.3269298,169.395542 33.9412938,169.237316 33.54,169.24 C33.255906,169.242095 32.9783326,169.325367 32.74,169.48 L19.93,177.61 C19.1319249,178.120402 18.139661,178.223862 17.2534604,177.889075 C16.3672598,177.554289 15.6912549,176.820593 15.43,175.91 C13.91,170.62 12.43,160.39 12.43,149.15 C12.43,139.15 12.77,126.45 13.67,115.09 C15.51,91.9 8.73,72.74 8.73,50.32 C8.73,37.32 13.67,22.52 18.52,14.57 C20.0715311,12.0432696 22.6181717,10.2894604 25.5320636,9.74096305 C28.4459556,9.19246575 31.4559675,9.90031681 33.82,11.69 C42.95,18.6 57.23,32.08 60.67,38.58 C61.3994922,39.9694216 62.8308678,40.8482018 64.4,40.87 L64.46,40.87 C64.952071,40.8646486 65.4394141,40.7732718 65.9,40.6 C72.352125,38.4718261 79.1060159,37.4013344 85.9,37.43 C92.6939841,37.4013344 99.447875,38.4718261 105.9,40.6 C106.360586,40.7732718 106.847929,40.8646486 107.34,40.87 L107.4,40.87 C108.969132,40.8482018 110.400508,39.9694216 111.13,38.58 C114.57,32.07 128.85,18.58 137.98,11.69 C139.803624,10.3059427 142.03063,9.55775267 144.32,9.56 L144.28,9.57 Z M126.53,48 C130.8,48 133.81,40.7 138.3,40.7 C138.927798,40.706057 139.547517,40.8422588 140.12,41.1 C145.73,43.54 139.12,54.75 146.62,55.66 C147.008237,55.7068477 147.398947,55.7302235 147.79,55.73 C157.79,55.73 154.95,38.31 153.19,31.73 C150.78,22.79 148.04,17.06 144.12,17.06 C140.47,17.06 136.71,20.45 128.29,29.58 C121.79,36.63 119.46,43.58 123.57,46.8 C124.406833,47.5201782 125.466352,47.9298588 126.57,47.96 L126.53,48 Z M23.82,55.7 C24.2145926,55.6973102 24.6086552,55.6705941 25,55.62 C32.45,54.71 25.88,43.5 31.5,41.06 C32.0723913,40.8019815 32.6921687,40.6657666 33.32,40.66 C37.81,40.66 40.82,47.96 45.09,47.96 C46.1936477,47.9298588 47.2531666,47.5201782 48.09,46.8 C52.2,43.62 49.87,36.64 43.37,29.58 C34.9,20.45 31.14,17.06 27.49,17.06 C23.58,17.06 20.83,22.79 18.42,31.73 C16.66,38.27 13.82,55.73 23.82,55.73 L23.82,55.7 Z M123.3,100.73 C126.720903,100.753813 129.596502,98.1672238 129.93382,94.762909 C130.271138,91.3585943 127.959057,88.2579821 124.6,87.61 C124.171351,87.5295899 123.736125,87.4894153 123.3,87.49 C119.857579,87.436684 116.948909,90.0308684 116.609693,93.4569498 C116.270477,96.8830313 118.613961,99.9972309 122,100.62 C122.428649,100.70041 122.863875,100.740585 123.3,100.74 L123.3,100.73 Z M48.3,100.74 C48.7361254,100.740585 49.1713511,100.70041 49.6,100.62 C52.9590566,99.9720179 55.271138,96.8714057 54.9338202,93.467091 C54.5965024,90.0627762 51.7209027,87.4761874 48.3,87.5 C47.867215,87.5000359 47.4353658,87.540208 47.01,87.62 C43.6529843,88.2677657 41.3414721,91.365339 41.6760199,94.7678723 C42.0105678,98.1704055 44.8811092,100.758463 48.3,100.74 Z M144.28,1 C140.122454,0.991039904 136.077586,2.351043 132.77,4.87 C125.77,10.19 111.7,22.59 105.42,31.53 C99.0802077,29.7512859 92.5245554,28.8594749 85.94,28.88 L85.78,28.88 C79.1553661,28.849783 72.558759,29.7416712 66.18,31.53 C59.89,22.58 45.86,10.19 38.83,4.87 C34.5335376,1.60099148 29.0528035,0.306257487 23.7476713,1.30704599 C18.4425391,2.3078345 13.8101909,5.51035441 11,10.12 C5.68,18.84 0,35.12 0,50.33 C0,60.81 1.38,70.51 2.72,79.9 C4.37,91.47 5.92,102.4 5,114.42 C3.95,127.66 3.75,141.85 3.73,149.13 C3.73,161.95 5.5,172.84 7.05,178.27 C8.0539863,181.775966 10.6535054,184.602594 14.0633132,185.896037 C17.473121,187.189481 21.2933452,186.798055 24.37,184.84 L27.79,182.67 C29.807003,186.436849 33.7271545,188.794316 38,188.81 C40.4371894,188.811043 42.8115825,188.037089 44.78,186.6 C46.6,185.28 48.13,184.2 49.4,183.3 C57.05,196.43 70,203.9 85.54,204 L85.81,204 C101.48,204 114.51,196.51 122.22,183.32 C123.52,184.23 125.06,185.32 126.84,186.62 C128.808418,188.057089 131.182811,188.831043 133.62,188.83 C137.893458,188.816507 141.814646,186.458417 143.83,182.69 L147.25,184.86 C150.326655,186.818055 154.146879,187.209481 157.556687,185.916037 C160.966495,184.622594 163.566014,181.795966 164.57,178.29 C166.13,172.85 167.93,161.96 167.9,149.15 C167.9,141.87 167.69,127.67 166.63,114.44 C165.63,102.44 167.23,91.44 168.88,79.92 C170.22,70.54 171.6,60.84 171.6,50.35 C171.6,35.17 165.87,18.86 160.6,10.14 C157.153221,4.42773649 150.951444,0.954436951 144.28,1 Z"/>
  </g>
</svg>
