<svg xmlns="http://www.w3.org/2000/svg" width="235" height="49" viewBox="0 0 235 49">
  <g fill="#5F5F55" fill-rule="evenodd" transform="translate(.572 -.576)">
    <g fill-rule="nonzero" transform="translate(47.487 7.494)">
      <path d="M6.32200489 32.9798824C6.49923629 33.5302906 6.63690278 34.0928433 6.73393643 34.6631765L6.7797066 34.6631765C6.87694055 34.0939435 7.01071773 33.5316651 7.1801956 32.9798824L8.06127139 30.0514118 9.15403423 30.0514118 7.20880196 35.8161176C6.67100244 37.3841176 5.99589242 37.7761176 5.05760391 37.7761176 4.79696759 37.7754185 4.53812973 37.7326001 4.29095355 37.6492941L4.38249389 36.7615294C4.594562 36.8717497 4.83046512 36.9272116 5.06904645 36.9229412 5.64117359 36.9229412 5.95012225 36.6231765 6.2590709 35.6892941L4.30239609 30.0514118 5.44665037 30.0514118 6.32200489 32.9798824zM9.81198044 32.6801176C9.81198044 30.87 10.7617115 29.9245882 12.2149144 29.9245882 13.6681174 29.9245882 14.629291 30.87 14.629291 32.6801176 14.629291 34.4902353 13.6795599 35.5163529 12.2149144 35.5163529 10.7502689 35.5163529 9.81198044 34.5017647 9.81198044 32.6801176zM10.8303667 32.6801176C10.8303667 34.0175294 11.299511 34.6862353 12.2149144 34.6862353 13.1303178 34.6862353 13.6109046 34.0175294 13.6109046 32.6801176 13.6109046 31.3427059 13.1303178 30.7547059 12.2149144 30.7547059 11.299511 30.7547059 10.8303667 31.3888235 10.8303667 32.6916471L10.8303667 32.6801176zM19.2635208 34.4095294C19.0677276 35.1323149 18.3773146 35.6026165 17.6386797 35.5163529 16.6775061 35.5163529 16.0367237 35.0205882 16.0367237 33.7523529L16.0367237 30.0514118 17.0665526 30.0514118 17.0665526 33.5909412C17.0665526 34.3749412 17.3640587 34.7438824 18.0162836 34.7438824 18.6685086 34.7438824 19.2406357 34.2250588 19.2406357 33.1989412L19.2406357 30.0514118 20.2704645 30.0514118 20.2704645 35.378 19.3893888 35.378 19.2635208 34.4095294zM25.1735941 31.1294118C25.0188335 31.1003772 24.8618618 31.0849466 24.7044499 31.0832941 24.2922482 31.091589 23.9016351 31.2705837 23.6245185 31.5781624 23.3474019 31.8857411 23.2082502 32.2947458 23.2398044 32.7089412L23.2398044 35.4068235 22.2099756 35.4068235 22.2099756 30.0514118 23.0796088 30.0514118 23.2054768 31.4925882C23.3558231 30.4996449 24.2648613 29.8088526 25.2536919 29.9361176L25.1735941 31.1294118zM33.4293888 34.1212941C33.4293888 34.5248235 33.6124694 34.6170588 33.8184352 34.6170588 33.9205223 34.6191192 34.0218942 34.5994766 34.1159413 34.5594118L34.1159413 35.3664706C33.9326444 35.4330322 33.7385722 35.4643195 33.5438142 35.4587059 33.2862003 35.4979031 33.0239171 35.4287459 32.8183801 35.267428 32.6128431 35.10611 32.4821026 34.8667982 32.4567726 34.6055294 32.1818354 35.2133643 31.5549006 35.5789603 30.8948655 35.5163529 30.4892585 35.5647465 30.0827088 35.4339476 29.7799914 35.1576654 29.477274 34.8813831 29.3080001 34.486643 29.3157946 34.0751765 29.3157946 32.9222353 30.2197555 32.2189412 32.3823961 32.3457647L32.3823961 31.6655294C32.3823961 31.0083529 31.9933496 30.7547059 31.432665 30.7547059 31.1901773 30.727 30.9473715 30.8039241 30.7642525 30.9664679 30.5811335 31.1290117 30.4747859 31.3620102 30.4714914 31.6078824L29.4874328 31.458C29.5675306 30.3050588 30.5515892 29.9245882 31.5242054 29.9245882 32.4968215 29.9245882 33.4236675 30.3396471 33.4236675 31.5617647L33.4293888 34.1212941zM32.3881174 33.0029412C30.9692421 32.9683529 30.3513447 33.2911765 30.3513447 33.9598824 30.3444349 34.1813516 30.4344058 34.3947041 30.5974241 34.5434223 30.7604425 34.6921405 30.9800575 34.7612168 31.1980929 34.7323529 31.77022 34.7323529 32.3881174 34.398 32.3881174 33.7754118L32.3881174 33.0029412zM38.7730562 27.6705882L39.8143276 27.6705882 39.8143276 35.378 38.9046455 35.378 38.79022 34.4556471C38.5422484 35.1600671 37.8453452 35.5995354 37.1081663 35.5163529 35.9982396 35.5163529 35.0141809 34.6055294 35.0141809 32.8069412 35.0141809 31.0083529 35.8723716 29.9245882 37.3827873 29.9245882 37.9757674 29.8885631 38.5299733 30.2226956 38.7787775 30.7662353L38.7730562 27.6705882zM38.7730562 32.0748235C38.790839 31.7159085 38.6587099 31.3658786 38.4087006 31.1095902 38.1586913 30.8533019 37.8136282 30.714155 37.4571638 30.7258824 36.6790709 30.7258824 36.0382885 31.2677647 36.0382885 32.7665882 36.0382885 34.0232941 36.6104156 34.692 37.4457213 34.692 37.8125478 34.6815689 38.1598178 34.5230091 38.4094421 34.2519752 38.6590665 33.9809413 38.7900922 33.6201834 38.7730562 33.2508235L38.7730562 32.0748235zM45.4440587 34.1212941C45.4440587 34.5248235 45.6271394 34.6170588 45.8331051 34.6170588 45.9351922 34.6191192 46.0365641 34.5994766 46.1306112 34.5594118L46.1306112 35.3664706C45.9473143 35.4330322 45.7532421 35.4643195 45.5584841 35.4587059 45.3008703 35.4979031 45.038587 35.4287459 44.83305 35.267428 44.627513 35.10611 44.4967726 34.8667982 44.4714425 34.6055294 44.1965053 35.2133643 43.5695706 35.5789603 42.9095355 35.5163529 42.5039285 35.5647465 42.0973788 35.4339476 41.7946613 35.1576654 41.4919439 34.8813831 41.32267 34.486643 41.3304645 34.0751765 41.3304645 32.9222353 42.2344254 32.2189412 44.397066 32.3457647L44.397066 31.6655294C44.397066 31.0083529 44.0080196 30.7547059 43.447335 30.7547059 43.2048472 30.727 42.9620414 30.8039241 42.7789224 30.9664679 42.5958035 31.1290117 42.4894558 31.3620102 42.4861614 31.6078824L41.5021027 31.458C41.5822005 30.3050588 42.5662592 29.9245882 43.5388753 29.9245882 44.5114914 29.9245882 45.4383374 30.3396471 45.4383374 31.5617647L45.4440587 34.1212941zM44.4027873 33.0029412C42.983912 32.9683529 42.3660147 33.2911765 42.3660147 33.9598824 42.3591048 34.1813516 42.4490757 34.3947041 42.6120941 34.5434223 42.7751124 34.6921405 42.9947274 34.7612168 43.2127628 34.7323529 43.78489 34.7323529 44.4027873 34.398 44.4027873 33.7754118L44.4027873 33.0029412zM48.4763325 37.7242353L47.4465037 37.7242353 47.4465037 30.0514118 48.2932518 30.0514118 48.4191198 31.0775294C48.6887775 30.3480932 49.3985274 29.8806827 50.1698289 29.9245882 51.4628362 29.9245882 52.2523716 30.87 52.2523716 32.5878824 52.2523716 34.2135294 51.4285086 35.5163529 49.9638631 35.5163529 49.3413928 35.5803867 48.7460882 35.2435625 48.4763325 34.6747059L48.4763325 37.7242353zM48.4763325 33.32C48.4382672 33.686812 48.5591101 34.052338 48.8078832 34.322876 49.0566563 34.593414 49.4091712 34.7426592 49.7750611 34.7323529 50.5645966 34.7323529 51.2168215 34.0867059 51.2168215 32.6801176 51.2168215 31.4003529 50.7019071 30.7777647 49.8894866 30.7777647 49.4931485 30.7791062 49.1157417 30.948765 48.8500029 31.2450527 48.5842641 31.5413404 48.4548268 31.9367914 48.4934963 32.3342353L48.4763325 33.32zM56.8923227 35.2050588C56.500364 35.4222107 56.0578635 35.5296947 55.6107579 35.5163529 55.1998019 35.5675293 54.788064 35.4275054 54.4919426 35.135866 54.1958212 34.8442266 54.0474964 34.432665 54.0888998 34.0175294L54.0888998 30.8815294 53.3222494 30.8815294 53.3222494 30.0514118 54.0888998 30.0514118 54.0888998 28.8984706 55.1301711 28.7716471 55.1301711 30.0283529 56.6977995 30.0283529 56.6977995 30.8584706 55.1187286 30.8584706 55.1187286 33.7869412C55.1187286 34.3634118 55.3819071 34.6055294 55.8167237 34.6055294 56.1335663 34.6076128 56.4426008 34.5065152 56.6977995 34.3172941L56.8923227 35.2050588zM62.1387286 34.1212941C62.1387286 34.5248235 62.3218093 34.6170588 62.5277751 34.6170588 62.6298622 34.6191192 62.731234 34.5994766 62.8252812 34.5594118L62.8252812 35.3664706C62.6419842 35.4330322 62.447912 35.4643195 62.253154 35.4587059 61.9955402 35.4979031 61.7332569 35.4287459 61.5277199 35.267428 61.322183 35.10611 61.1914425 34.8667982 61.1661125 34.6055294 60.8904727 35.2155175 60.2605206 35.5815324 59.5984841 35.5163529 59.1928771 35.5647465 58.7863274 35.4339476 58.48361 35.1576654 58.1808925 34.8813831 58.0116187 34.486643 58.0194132 34.0751765 58.0194132 32.9222353 58.9233741 32.2189412 61.0860147 32.3457647L61.0860147 31.6655294C61.0860147 31.0083529 60.6969682 30.7547059 60.1362836 30.7547059 59.8937959 30.727 59.65099 30.8039241 59.4678711 30.9664679 59.2847521 31.1290117 59.1784045 31.3620102 59.17511 31.6078824L58.1910513 31.458C58.2711491 30.3050588 59.2552078 29.9245882 60.227824 29.9245882 61.2004401 29.9245882 62.1272861 30.3396471 62.1272861 31.5617647L62.1387286 34.1212941zM61.0974572 33.0029412C59.6785819 32.9683529 59.0606846 33.2911765 59.0606846 33.9598824 59.0537747 34.1813516 59.1437457 34.3947041 59.306764 34.5434223 59.4697823 34.6921405 59.6893974 34.7612168 59.9074328 34.7323529 60.4795599 34.7323529 61.0974572 34.398 61.0974572 33.7754118L61.0974572 33.0029412zM67.0933496 35.2050588C66.7013909 35.4222107 66.2588904 35.5296947 65.8117848 35.5163529 65.4008288 35.5675293 64.9890909 35.4275054 64.6929695 35.135866 64.3968481 34.8442266 64.2485233 34.432665 64.2899267 34.0175294L64.2899267 30.8815294 63.5061125 30.8815294 63.5061125 30.0514118 64.2727628 30.0514118 64.2727628 28.8984706 65.3140342 28.7716471 65.3140342 30.0283529 66.8816626 30.0283529 66.8816626 30.8584706 65.3025917 30.8584706 65.3025917 33.7869412C65.3025917 34.3634118 65.5657702 34.6055294 66.0005868 34.6055294 66.3174293 34.6076128 66.6264639 34.5065152 66.8816626 34.3172941L67.0933496 35.2050588zM69.0099756 27.6705882C69.198375 27.6593926 69.382934 27.7274951 69.5195983 27.8586397 69.6562625 27.9897842 69.7327691 28.1722031 69.7308557 28.3623529 69.7278886 28.5509349 69.6498717 28.7304136 69.5143243 28.8604865 69.3787768 28.9905594 69.1970587 29.0603251 69.0099756 29.0541176 68.630803 29.0541176 68.323423 28.744404 68.323423 28.3623529 68.3202936 28.177937 68.3916213 28.000146 68.5210595 27.8697251 68.6504976 27.7393043 68.8269491 27.6674351 69.0099756 27.6705882zM69.5363325 30.0687059L69.5363325 35.3952941 68.5065037 35.3952941 68.5065037 30.0514118 69.5363325 30.0687059zM71.126846 32.6801176C71.126846 30.87 72.076577 29.9245882 73.52978 29.9245882 74.9829829 29.9245882 75.9441565 30.87 75.9441565 32.6801176 75.9441565 34.4902353 74.9944254 35.5163529 73.52978 35.5163529 72.0651345 35.5163529 71.126846 34.5017647 71.126846 32.6801176zM72.1452323 32.6801176C72.1452323 34.0175294 72.6143765 34.6862353 73.52978 34.6862353 74.4451834 34.6862353 74.9486553 34.0117647 74.9486553 32.6916471 74.9486553 31.3715294 74.4680685 30.7662353 73.552665 30.7662353 72.6372616 30.7662353 72.1452323 31.3888235 72.1452323 32.6916471L72.1452323 32.6801176zM78.57022 31.0775294C78.8051104 30.3366443 79.5175179 29.8581003 80.2866015 29.9245882 80.7277748 29.8878875 81.1622499 30.051075 81.4719324 30.3697949 81.7816149 30.6885148 81.934326 31.1296494 81.8885575 31.5732941L81.8885575 35.378 80.8587286 35.378 80.8587286 31.8845882C80.8587286 31.2274118 80.5612225 30.8238824 79.9318826 30.8238824 79.3025428 30.8238824 78.6846455 31.1697647 78.6846455 32.3227059L78.6846455 35.378 77.6548166 35.378 77.6548166 30.0514118 78.4672372 30.0514118 78.57022 31.0775294zM87.9531051 37.7242353L86.9232763 37.7242353 86.9232763 30.0514118 87.7700244 30.0514118 87.8958924 31.0775294C88.1655502 30.3480932 88.8753 29.8806827 89.6466015 29.9245882 90.9396088 29.9245882 91.7291443 30.87 91.7291443 32.5878824 91.7291443 34.2135294 90.9052812 35.5163529 89.4406357 35.5163529 88.8181654 35.5803867 88.2228608 35.2435625 87.9531051 34.6747059L87.9531051 37.7242353zM87.9531051 33.32C87.9150399 33.686812 88.0358827 34.052338 88.2846558 34.322876 88.5334289 34.593414 88.8859438 34.7426592 89.2518337 34.7323529 90.0413692 34.7323529 90.6935941 34.0867059 90.6935941 32.6801176 90.6935941 31.4003529 90.1786797 30.7777647 89.3662592 30.7777647 88.9699211 30.7791062 88.5925144 30.948765 88.3267755 31.2450527 88.0610367 31.5413404 87.9315994 31.9367914 87.9702689 32.3342353L87.9531051 33.32zM95.2420049 35.378C95.0332532 35.4364647 94.8178709 35.4674672 94.6012225 35.4702353 94.2820346 35.5062778 93.9632726 35.3990072 93.7296439 35.1769295 93.4960152 34.9548518 93.3711804 34.6404578 93.388313 34.3172941L93.388313 27.6705882 94.400978 27.6705882 94.400978 34.0982353C94.3861515 34.2276103 94.4307908 34.3567224 94.5221868 34.4488122 94.6135827 34.540902 94.7417221 34.5858803 94.8701222 34.5709412 94.9944295 34.5713023 95.1180108 34.5518461 95.2362836 34.5132941L95.2420049 35.378zM100.654328 34.1212941C100.654328 34.5248235 100.837408 34.6170588 101.043374 34.6170588 101.145461 34.6191192 101.246833 34.5994766 101.34088 34.5594118L101.34088 35.3664706C101.157583 35.4330322 100.963511 35.4643195 100.768753 35.4587059 100.511139 35.4979031 100.248856 35.4287459 100.043319 35.267428 99.837782 35.10611 99.7070415 34.8667982 99.6817115 34.6055294 99.4060718 35.2155175 98.7761196 35.5815324 98.1140831 35.5163529 97.7084761 35.5647465 97.3019264 35.4339476 96.999209 35.1576654 96.6964916 34.8813831 96.5272177 34.486643 96.5350122 34.0751765 96.5350122 32.9222353 97.4389731 32.2189412 99.6016137 32.3457647L99.6016137 31.6655294C99.6016137 31.0083529 99.2125672 30.7547059 98.6518826 30.7547059 98.4093949 30.727 98.1665891 30.8039241 97.9834701 30.9664679 97.8003511 31.1290117 97.6940035 31.3620102 97.690709 31.6078824L96.7066504 31.458C96.7867482 30.3050588 97.7708068 29.9245882 98.743423 29.9245882 99.7160391 29.9245882 100.642885 30.3396471 100.642885 31.5617647L100.654328 34.1212941zM99.6130562 33.0029412C98.1941809 32.9683529 97.5762836 33.2911765 97.5762836 33.9598824 97.5700755 34.1779563 97.6577696 34.3880799 97.816785 34.5361477 97.9758004 34.6842155 98.1905977 34.7557578 98.405868 34.7323529 98.9779951 34.7323529 99.5958924 34.398 99.5958924 33.7754118L99.6130562 33.0029412zM103.743814 31.0775294C103.978705 30.3366443 104.691112 29.8581003 105.460196 29.9245882 105.901369 29.8878875 106.335844 30.051075 106.645527 30.3697949 106.955209 30.6885148 107.10792 31.1296494 107.062152 31.5732941L107.062152 35.378 106.032323 35.378 106.032323 31.8845882C106.032323 31.2274118 105.734817 30.8238824 105.105477 30.8238824 104.476137 30.8238824 103.85824 31.1697647 103.85824 32.3227059L103.85824 35.378 102.828411 35.378 102.828411 30.0514118 103.640831 30.0514118 103.743814 31.0775294zM109.88846 31.0775294C110.12335 30.3366443 110.835757 29.8581003 111.604841 29.9245882 112.046014 29.8878875 112.48049 30.051075 112.790172 30.3697949 113.099854 30.6885148 113.252566 31.1296494 113.206797 31.5732941L113.206797 35.378 112.136919 35.378 112.136919 31.8845882C112.136919 31.2274118 111.839413 30.8238824 111.210073 30.8238824 110.580733 30.8238824 109.962836 31.1697647 109.962836 32.3227059L109.962836 35.378 108.933007 35.378 108.933007 30.0514118 109.745428 30.0514118 109.88846 31.0775294zM115.615452 27.6705882C115.803852 27.6593926 115.988411 27.7274951 116.125075 27.8586397 116.261739 27.9897842 116.338246 28.1722031 116.336333 28.3623529 116.333365 28.5509349 116.255349 28.7304136 116.119801 28.8604865 115.984254 28.9905594 115.802536 29.0603251 115.615452 29.0541176 115.433367 29.0541176 115.25874 28.9812355 115.129986 28.8515045 115.001233 28.7217734 114.9289 28.5458203 114.9289 28.3623529 114.92577 28.177937 114.997098 28.000146 115.126536 27.8697251 115.255974 27.7393043 115.432426 27.6674351 115.615452 27.6705882zM116.141809 30.0687059L116.141809 35.3952941 115.11198 35.3952941 115.11198 30.0514118 116.141809 30.0687059zM119.042494 31.0775294C119.277384 30.3366443 119.989792 29.8581003 120.758875 29.9245882 121.200049 29.8878875 121.634524 30.051075 121.944206 30.3697949 122.253889 30.6885148 122.4066 31.1296494 122.360831 31.5732941L122.360831 35.378 121.290954 35.378 121.290954 31.8845882C121.290954 31.2274118 120.993447 30.8238824 120.364108 30.8238824 119.734768 30.8238824 119.11687 31.1697647 119.11687 32.3227059L119.11687 35.378 118.087042 35.378 118.087042 30.0514118 118.899462 30.0514118 119.042494 31.0775294zM127.641565 30.3511765C127.893301 30.2128235 127.973399 29.9361176 128.042054 29.5441176L128.934572 29.8554118C128.865621 30.3273251 128.515374 30.7077296 128.053496 30.8123529 128.221073 31.1190786 128.304047 31.4654349 128.29379 31.8154118 128.29379 33.0490588 127.309731 33.6601176 126.119707 33.6601176 125.887476 33.6657571 125.655806 33.6346332 125.433154 33.5678824 125.203359 33.6622041 125.0601 33.8950225 125.078435 34.1443529 125.078435 34.4441176 125.272958 34.5824706 125.650562 34.5824706L126.94357 34.5824706C128.145037 34.5824706 128.785819 35.1128235 128.785819 36.0697647 128.785819 37.4648235 127.298289 37.8337647 125.925183 37.8337647 124.780929 37.8337647 123.636675 37.534 123.636675 36.4387059 123.636675 35.7469412 124.128704 35.2857647 124.998337 35.2165882 124.569742 35.1887717 124.243182 34.8186031 124.266015 34.3864706 124.242819 33.9304799 124.554223 33.5260134 124.998337 33.4352941 124.351133 33.1704624 123.938928 32.5243875 123.968509 31.8211765 123.968509 30.6221176 124.838142 29.9303529 126.108264 29.9303529 126.650922 29.9013771 127.188455 30.0489062 127.641565 30.3511765zM126.005281 37.0728235C127.08088 37.0728235 127.778875 36.8652941 127.778875 36.1965882 127.778875 35.7930588 127.561467 35.4932941 126.886357 35.4932941L125.742103 35.4932941C124.986895 35.4932941 124.563521 35.7469412 124.563521 36.3003529 124.563521 36.8537647 125.169976 37.0785882 126.005281 37.0785882L126.005281 37.0728235zM126.108264 32.9222353C126.72126 32.9222353 127.218191 32.4215316 127.218191 31.8038824 127.218191 31.1862331 126.72126 30.6855294 126.108264 30.6855294 125.805498 30.6545047 125.504936 30.7623217 125.289744 30.9791479 125.074551 31.1959741 124.967546 31.4988173 124.998337 31.8038824 124.973837 32.1073854 125.082882 32.4064132 125.296578 32.621731 125.510273 32.8370487 125.807048 32.9469213 126.108264 32.9222353zM137.390611 34.0117647C137.207531 35.084 136.360782 35.4990588 135.319511 35.4990588 133.934963 35.4990588 132.985232 34.5075294 132.985232 32.732 132.985232 30.9564706 133.934963 29.9072941 135.399609 29.9072941 136.543863 29.9072941 137.253301 30.4837647 137.321956 31.5675294L136.383667 31.7635294C136.292127 31.0948235 135.937408 30.7604706 135.353839 30.7604706 134.449878 30.7604706 133.980733 31.5675294 133.980733 32.732 133.980733 33.8964706 134.552861 34.6689412 135.399609 34.6689412 135.935199 34.7058518 136.410854 34.3264328 136.498093 33.7927059L137.390611 34.0117647zM138.546308 32.6801176C138.546308 30.87 139.496039 29.9245882 140.949242 29.9245882 142.402445 29.9245882 143.363619 30.87 143.363619 32.6801176 143.363619 34.4902353 142.413888 35.5163529 140.949242 35.5163529 139.484597 35.5163529 138.546308 34.5017647 138.546308 32.6801176zM139.564694 32.6801176C139.564694 34.0175294 140.033839 34.6862353 140.949242 34.6862353 141.864645 34.6862353 142.345232 34.0175294 142.345232 32.6801176 142.345232 31.3427059 141.864645 30.7547059 140.949242 30.7547059 140.033839 30.7547059 139.564694 31.3888235 139.564694 32.6916471L139.564694 32.6801176zM150.675403 29.9245882C151.106902 29.8817882 151.534493 30.0377191 151.838854 30.3488678 152.143215 30.6600164 152.291758 31.0930675 152.243032 31.5271765L152.243032 35.378 151.213203 35.378 151.213203 31.8730588C151.213203 31.2158824 150.927139 30.8238824 150.332127 30.8238824 149.737115 30.8238824 149.13066 31.2504706 149.13066 32.3227059L149.13066 35.378 148.100831 35.378 148.100831 31.8730588C148.100831 31.2158824 147.814768 30.8238824 147.219756 30.8238824 146.624743 30.8238824 146.018289 31.262 146.018289 32.3227059L146.018289 35.378 144.98846 35.378 144.98846 30.0514118 145.80088 30.0514118 145.926748 31.0775294C146.146866 30.3566829 146.827235 29.8806174 147.574474 29.9245882 147.917543 29.8840625 148.262501 29.9829104 148.533063 30.1992725 148.803625 30.4156346 148.977499 30.7316842 149.016235 31.0775294 149.235545 30.3509487 149.92343 29.8729439 150.675403 29.9245882zM155.103667 37.7242353L154.073839 37.7242353 154.073839 30.0514118 154.920587 30.0514118 155.046455 31.0775294C155.316113 30.3480932 156.025862 29.8806827 156.797164 29.9245882 158.090171 29.9245882 158.879707 30.87 158.879707 32.5878824 158.879707 34.2135294 158.055844 35.5163529 156.591198 35.5163529 155.968728 35.5803867 155.373423 35.2435625 155.103667 34.6747059L155.103667 37.7242353zM155.103667 33.32C155.064267 33.6846893 155.182083 34.0488804 155.427207 34.3201231 155.672332 34.5913658 156.021193 34.743577 156.385232 34.7381176 157.174768 34.7381176 157.826993 34.0924706 157.826993 32.6858824 157.826993 31.4061176 157.312078 30.7835294 156.499658 30.7835294 156.10332 30.7848709 155.725913 30.9545298 155.460174 31.2508174 155.194435 31.5471051 155.064998 31.9425561 155.103667 32.34L155.103667 33.32zM164.200489 34.1212941C164.200489 34.5248235 164.38357 34.6170588 164.589535 34.6170588 164.691623 34.6191192 164.792994 34.5994766 164.887042 34.5594118L164.887042 35.3664706C164.703745 35.4330322 164.509672 35.4643195 164.314914 35.4587059 164.057301 35.4979031 163.795017 35.4287459 163.58948 35.267428 163.383943 35.10611 163.253203 34.8667982 163.227873 34.6055294 162.952233 35.2155175 162.322281 35.5815324 161.660244 35.5163529 161.254638 35.5647465 160.848088 35.4339476 160.54537 35.1576654 160.242653 34.8813831 160.073379 34.486643 160.081174 34.0751765 160.081174 32.9222353 160.985134 32.2189412 163.147775 32.3457647L163.147775 31.6655294C163.147775 31.0083529 162.758729 30.7547059 162.198044 30.7547059 161.955556 30.727 161.71275 30.8039241 161.529631 30.9664679 161.346512 31.1290117 161.240165 31.3620102 161.23687 31.6078824L160.252812 31.458C160.33291 30.3050588 161.316968 29.9245882 162.289584 29.9245882 163.2622 29.9245882 164.189046 30.3396471 164.189046 31.5617647L164.200489 34.1212941zM163.159218 33.0029412C161.740342 32.9683529 161.122445 33.2911765 161.122445 33.9598824 161.115535 34.1813516 161.205506 34.3947041 161.368524 34.5434223 161.531543 34.6921405 161.751158 34.7612168 161.969193 34.7323529 162.54132 34.7323529 163.159218 34.398 163.159218 33.7754118L163.159218 33.0029412zM167.255648 31.0775294C167.490538 30.3366443 168.202946 29.8581003 168.972029 29.9245882 169.413203 29.8878875 169.847678 30.051075 170.15736 30.3697949 170.467043 30.6885148 170.619754 31.1296494 170.573985 31.5732941L170.573985 35.378 169.544156 35.378 169.544156 31.8845882C169.544156 31.2274118 169.24665 30.8238824 168.617311 30.8238824 167.987971 30.8238824 167.370073 31.1697647 167.370073 32.3227059L167.370073 35.378 166.340244 35.378 166.340244 30.0514118 167.152665 30.0514118 167.255648 31.0775294zM172.976919 27.6705882C173.165319 27.6593926 173.349878 27.7274951 173.486542 27.8586397 173.623206 27.9897842 173.699713 28.1722031 173.6978 28.3623529 173.694832 28.5509349 173.616816 28.7304136 173.481268 28.8604865 173.345721 28.9905594 173.164002 29.0603251 172.976919 29.0541176 172.794834 29.0541176 172.620207 28.9812355 172.491453 28.8515045 172.3627 28.7217734 172.290367 28.5458203 172.290367 28.3623529 172.287237 28.177937 172.358565 28.000146 172.488003 27.8697251 172.617441 27.7393043 172.793893 27.6674351 172.976919 27.6705882zM173.503276 30.0687059L173.503276 35.3952941 172.473447 35.3952941 172.473447 30.0514118 173.503276 30.0687059zM175.162445 32.6801176C175.162445 30.87 176.112176 29.9245882 177.565379 29.9245882 179.018582 29.9245882 179.979756 30.87 179.979756 32.6801176 179.979756 34.4902353 179.030024 35.5163529 177.565379 35.5163529 176.100733 35.5163529 175.162445 34.5017647 175.162445 32.6801176zM176.180831 32.6801176C176.180831 34.0175294 176.649976 34.6862353 177.565379 34.6862353 178.480782 34.6862353 178.961369 34.0175294 178.961369 32.6801176 178.961369 31.3427059 178.480782 30.7547059 177.565379 30.7547059 176.649976 30.7547059 176.180831 31.3888235 176.180831 32.6916471L176.180831 32.6801176zM182.47423 31.0775294C182.70912 30.3366443 183.421528 29.8581003 184.190611 29.9245882 184.631785 29.8878875 185.06626 30.051075 185.375942 30.3697949 185.685625 30.6885148 185.838336 31.1296494 185.792567 31.5732941L185.792567 35.378 184.762738 35.378 184.762738 31.8845882C184.762738 31.2274118 184.465232 30.8238824 183.835892 30.8238824 183.206553 30.8238824 182.588655 31.1697647 182.588655 32.3227059L182.588655 35.378 181.558826 35.378 181.558826 30.0514118 182.371247 30.0514118 182.47423 31.0775294zM18.4797066 4.34082353C16.3399511 4.312 14.4748166 4.28317647 11.9917848 4.28317647 11.9631785 4.94035294 11.9631785 5.72435294 11.9631785 6.20282353L11.9631785 17.1557647C11.9631785 18.3087059 11.9917848 20.6145882 12.0833252 21.4735294L6.96850856 21.4735294C7.11726161 20.0323529 7.17447433 16.1988235 7.17447433 14.2503529L7.17447433 8.95835294C7.17447433 7.80541176 7.17447433 5.86847059 7.11726161 4.28317647 4.64567237 4.28317647 2.62606357 4.312.514914425 4.34082353.606454768 3.14176471.635061125 1.58529412.635061125.201764706 3.46136919.294 6.23046455.351647059 9.58885086.351647059 12.9472372.351647059 15.8822494.294 18.7428851.201764706 18.5730668 1.57490444 18.4851827 2.95707497 18.4797066 4.34082353zM36.6905134 21.5772941C34.7853301 21.4562353 32.4338875 21.4274118 30.2025917 21.4274118 27.7939364 21.4274118 25.2022005 21.4562353 23.1825917 21.5772941 23.3313447 20.1361176 23.3885575 16.1815294 23.3885575 14.2330588L23.3885575 7.60941176C23.3885575 5.68976471 23.3313447 1.64294118 23.1825917.207529412 25.1735941.299764706 27.40489.357411765 29.8764792.357411765 32.1993154.357411765 34.3676773.299764706 36.301467.207529412 36.1399235 1.50976244 36.0596679 2.82092885 36.0611736 4.13329412 34.4534963 4.10447059 32.7886064 4.07564706 30.9120293 4.07564706 30.019511 4.07564706 29.0354523 4.07564706 28.1772616 4.10447059 28.130263 4.61223468 28.1111629 5.12222869 28.1200489 5.63211765L28.1200489 8.80847059 34.8997555 8.77964706C34.8425428 9.8 34.8082152 11.0278824 34.8082152 12.348L28.0857213 12.2903529 28.0857213 16.1411765C28.076247 16.6606665 28.0953472 17.1802864 28.142934 17.6976471 29.006846 17.6976471 29.9851834 17.7264706 30.8777017 17.7264706 33.0803912 17.7264706 35.0141809 17.6976471 36.8850367 17.6342353 36.740971 18.9434034 36.6760102 20.2601841 36.6905134 21.5772941zM42.1886553 14.2330588L43.0811736 7.58058824C43.3500733 5.66094118 43.8249389 1.81588235 43.9450856.236352941L46.9773594.0288235294C47.5151589 1.25670588 48.3161369 3.08411765 48.9111491 4.34658824L53.5224939 14.5097647 58.0422983 4.28894118C58.5800978 3.03223529 59.4096822 1.17023529 59.8559413.0634117647L62.8310024.0634117647C63.0083619 1.79282353 63.517555 5.66670588 63.7521271 7.58635294L64.6732518 14.2388235C64.9421516 16.1872941 65.5657702 19.9055294 65.8918826 21.462L61.1317848 21.7041176C61.0745721 20.8336471 60.8056724 18.3490588 60.628313 17.15L59.6156479 9.41376471C58.1281174 12.8725882 54.8269438 20.6261176 54.409291 21.7041176L52.2352078 21.8828235 47.0288509 9.59247059 46.1077262 17.1442353C45.9589731 18.2971765 45.7530073 20.6030588 45.7186797 21.462L40.9871883 21.462C41.3590709 19.8709412 41.9254768 16.2103529 42.1886553 14.2330588zM75.806846 17.1442353C75.806846 18.2971765 75.8354523 20.6030588 75.9269927 21.462L70.812176 21.462C70.9609291 20.0208235 71.0181418 16.1872941 71.0181418 14.2388235L71.0181418 7.60941176C71.0181418 5.68976471 70.9609291 1.84470588 70.812176.386235294 71.8820538.386235294 75.6638142.236352941 77.4145232.236352941 83.1872861.236352941 86.1337408 3.08411765 86.1337408 6.95223529 86.1337408 11.2411765 83.3360391 14.6250588 76.9110513 14.6250588 76.5563325 14.6250588 76.1672861 14.6250588 75.8125672 14.5962353L75.806846 17.1442353zM77.4774572 4.03529412C76.9053301 4.03529412 76.4933985 4.03529412 75.7610758 4.09294118L75.7610758 11.0105882C76.175006 11.0587449 76.5917455 11.0780065 77.008313 11.0682353 79.7774083 11.0682353 81.4709046 9.81152941 81.4709046 7.49988235 81.4709046 5.18823529 80.1836186 4.03529412 77.4774572 4.03529412zM103.863961 21.5772941C101.958778 21.4562353 99.607335 21.4274118 97.3760391 21.4274118 94.9673839 21.4274118 92.3756479 21.4562353 90.3560391 21.5772941 90.5047922 20.1361176 90.5620049 16.1815294 90.5620049 14.2330588L90.5620049 7.60941176C90.5620049 5.68976471 90.5047922 1.64294118 90.3560391.207529412 92.3470416.299764706 94.5783374.357411765 97.0499267.357411765 99.3727628.357411765 101.541125.299764706 103.474914.207529412 103.313371 1.50976244 103.233115 2.82092885 103.234621 4.13329412 101.626944 4.10447059 99.9620538 4.07564706 98.0854768 4.07564706 97.1929584 4.07564706 96.2088998 4.07564706 95.350709 4.10447059 95.3037104 4.61223468 95.2846103 5.12222869 95.2934963 5.63211765L95.2934963 8.80847059 102.107531 8.77964706C102.050318 9.8 102.01599 11.0278824 102.01599 12.348L95.2934963 12.2903529 95.2934963 16.1411765C95.2840221 16.6606665 95.3031222 17.1802864 95.350709 17.6976471 96.214621 17.6976471 97.1929584 17.7264706 98.0854768 17.7264706 100.288166 17.7264706 102.221956 17.6976471 104.092812 17.6342353 103.937277 18.9426993 103.860852 20.2594823 103.863961 21.5772941zM121.090709 21.7271765L116.513692 14.0543529 116.067433 14.0831765 114.133643 14.0831765 114.133643 17.1384706C114.133643 18.2914118 114.162249 20.5972941 114.225183 21.4562353L109.161858 21.4562353C109.310611 20.0150588 109.367824 16.1815294 109.367824 14.2330588L109.367824 7.60941176C109.367824 5.68976471 109.310611 1.84470588 109.161858.386235294 110.231736.386235294 114.248068.265176471 115.586846.236352941 121.565575.178705882 124.74088 2.93423529 124.689389 6.62364706 124.632176 9.56364706 123.201858 11.4487059 120.581516 12.8264706L123.945623 17.7725882C124.632176 18.7641176 125.8222 20.4128235 126.474425 21.2775294L121.090709 21.7271765zM116.302005 10.6935294C118.624841 10.6935294 120.020831 9.25235294 120.020831 7.30388235 120.020831 5.35541176 118.97956 3.97764706 116.015941 3.97764706 115.329389 3.97764706 114.677164 4.00647059 114.082152 4.06988235L114.082152 10.6992941 116.302005 10.6935294zM135.102103 6.11058824C136.200587 3.59141176 136.915746 1.97152941 137.510758.265176471L140.743276 0 147.494377 15.3514118C148.295355 17.2076471 149.428166 19.6403529 150.320685 21.4677647L145.205868 21.7098824 143.151932 16.8214118 135.187922 16.8214118C134.713056 17.9743529 133.757604 20.5108235 133.402885 21.4677647L128.373888 21.4677647 135.102103 6.11058824zM136.412274 13.6047059L141.887531 13.6047059 139.118435 6.61788235 136.412274 13.6047059zM167.587482 4.34082353C165.447726 4.312 163.582592 4.28317647 161.09956 4.28317647 161.070954 4.94035294 161.070954 5.72435294 161.070954 6.20282353L161.070954 17.1557647C161.070954 18.3087059 161.09956 20.6145882 161.1911 21.4735294L156.076284 21.4735294C156.225037 20.0323529 156.282249 16.1988235 156.282249 14.2503529L156.282249 8.95835294C156.282249 7.80541176 156.282249 5.86847059 156.225037 4.28317647 153.753447 4.28317647 151.733839 4.312 149.622689 4.34082353 149.71423 3.14176471 149.742836 1.58529412 149.742836.201764706 152.569144.294 155.33824.351647059 158.696626.351647059 162.055012.351647059 164.990024.294 167.85066.201764706 167.680842 1.57490444 167.592958 2.95707497 167.587482 4.34082353zM185.798289 21.5772941C183.893105 21.4562353 181.541663 21.4274118 179.310367 21.4274118 176.901711 21.4274118 174.309976 21.4562353 172.290367 21.5772941 172.43912 20.1361176 172.496333 16.1815294 172.496333 14.2330588L172.496333 7.60941176C172.496333 5.68976471 172.43912 1.64294118 172.290367.207529412 174.281369.299764706 176.512665.357411765 178.984254.357411765 181.30709.357411765 183.475452.299764706 185.409242.207529412 185.247699 1.50976244 185.167443 2.82092885 185.168949 4.13329412 183.561271 4.10447059 181.896381 4.07564706 180.019804 4.07564706 179.127286 4.07564706 178.143227 4.07564706 177.285037 4.10447059 177.238038 4.61223468 177.218938 5.12222869 177.227824 5.63211765L177.227824 8.80847059 184.041858 8.77964706C183.984645 9.8 183.950318 11.0278824 183.950318 12.348L177.227824 12.2903529 177.227824 16.1411765C177.21835 16.6606665 177.23745 17.1802864 177.285037 17.6976471 178.148949 17.6976471 179.127286 17.7264706 180.019804 17.7264706 182.222494 17.7264706 184.156284 17.6976471 186.027139 17.6342353 185.871604 18.9426993 185.79518 20.2594823 185.798289 21.5772941z"/>
    </g>
    <g fill-rule="nonzero">
      <path d="M21.2373594,37.4302353 L21.2373594,26.7885882 C21.2187958,26.1653835 20.7118927,25.6699547 20.0931051,25.6702353 C19.4743176,25.6699547 18.9674144,26.1653835 18.9488509,26.7885882 L18.9488509,37.4302353 C17.5179722,37.9602666 16.6270935,39.4017181 16.7862103,40.9294118 C16.977144,42.6198305 18.3764748,43.9092126 20.0644988,43.9501176 C21.7003756,43.9845933 23.1187017,42.8163895 23.4105233,41.1941655 C23.7023449,39.5719415 22.7811757,37.976472 21.2373594,37.4302353 Z"/>
      <path d="M40.2148166,11.27 C40.1359565,7.9807393 39.2599482,4.76081615 37.6631296,1.89082353 C37.2597642,1.22097478 36.5924639,0.755815966 35.828131,0.611690609 C35.0637982,0.467565252 34.2747135,0.658102884 33.6582396,1.13564706 C31.283912,2.94576471 27.5650856,6.48529412 26.666846,8.19164706 C26.4657538,8.54271452 26.0964664,8.76159154 25.6942298,8.76811765 C25.561475,8.76881104 25.429684,8.74537725 25.3051834,8.69894118 C23.621969,8.13951715 21.8597766,7.8591639 20.0873839,7.86882353 C18.315656,7.86722364 16.5554137,8.15536155 14.8753056,8.722 C14.750805,8.76843607 14.619014,8.79186987 14.4862592,8.79117647 C14.0840226,8.78465036 13.7147352,8.56577334 13.513643,8.21470588 C12.6154034,6.48529412 8.90229829,2.97458824 6.52224939,1.15870588 C5.90577545,0.681161708 5.11669083,0.490624075 4.35235797,0.634749433 C3.5880251,0.77887479 2.92072483,1.2440336 2.51735941,1.91388235 C0.936108842,4.78011985 0.0720518655,7.99150821 0,11.27 C0,17.15 1.76787286,22.1768235 1.28728606,28.2470588 C1.05271394,31.2389412 0.972616137,34.5882353 0.961173594,37.1938824 C0.920264152,39.5550732 1.17398765,41.912086 1.71638142,44.2095294 C1.7862077,44.4403316 1.9576203,44.625881 2.18109933,44.7125736 C2.40457836,44.7992662 2.65522739,44.7774442 2.8606357,44.6534118 L6.19613692,42.5204706 C6.31659233,42.4417391 6.47029292,42.4362557 6.59597305,42.5062061 C6.72165318,42.5761565 6.79887992,42.7101681 6.79687042,42.8548235 L6.79687042,44.5842353 C6.80156371,44.878245 6.96797849,45.1452833 7.22876037,45.2772695 C7.48954225,45.4092558 7.80150533,45.384333 8.03838631,45.2125882 C9.05291676,44.4384397 10.111228,43.7243346 11.2079707,43.0738824 C11.3095669,43.0255063 11.4271133,43.0244835 11.5295236,43.0710844 C11.631934,43.1176853 11.7088932,43.2072163 11.7400489,43.316 C11.8201467,43.5927059 11.9288509,43.9385882 12.0032274,44.1345882 C13.3496462,47.3717626 16.5306983,49.4436966 20.0130073,49.3516471 C23.4953164,49.4436966 26.6763685,47.3717626 28.0227873,44.1345882 C28.1028851,43.9385882 28.205868,43.5927059 28.2859658,43.316 C28.3171214,43.2072163 28.3940807,43.1176853 28.496491,43.0710844 C28.5989013,43.0244835 28.7164477,43.0255063 28.818044,43.0738824 C29.9147867,43.7243346 30.9730979,44.4384397 31.9876284,45.2125882 C32.2245093,45.384333 32.5364724,45.4092558 32.7972543,45.2772695 C33.0580362,45.1452833 33.224451,44.878245 33.2291443,44.5842353 L33.2291443,42.8548235 C33.2271347,42.7101681 33.3043615,42.5761565 33.4300416,42.5062061 C33.5557218,42.4362557 33.7094223,42.4417391 33.8298778,42.5204706 L37.165379,44.6534118 C37.3707873,44.7774442 37.6214363,44.7992662 37.8449153,44.7125736 C38.0683944,44.625881 38.239807,44.4403316 38.3096333,44.2095294 C38.9137328,41.9199977 39.2289807,39.5628672 39.2479218,37.1938824 C39.2479218,34.5709412 39.1621027,31.2389412 38.9275306,28.2585882 C38.4469438,22.1768235 40.2148166,17.15 40.2148166,11.27 Z M5.96728606,8.83729412 C4.50836186,9.47717647 6.219022,12.4171765 4.25090465,12.6592941 C1.28728606,13.0224706 2.06537897,8.17435294 2.53452323,6.39305882 C3.19246944,4.03529412 3.90762836,2.54223529 4.92601467,2.54223529 C5.94440098,2.54223529 6.86552567,3.45882353 9.04533007,5.82811765 C10.7617115,7.67858824 11.3338386,9.51176471 10.2754034,10.3418824 C8.54757946,11.6908235 7.68938875,8.07058824 5.96728606,8.83729412 Z M12.0146699,23.0934118 C11.8422125,23.940392 11.0754451,24.5288965 10.2192354,24.4714325 C9.36302568,24.4139684 8.68049689,23.7281952 8.62105079,22.8656509 C8.56160469,22.0031066 9.14350977,21.2288611 9.98361858,21.0527059 C10.5492518,20.9341031 11.1361531,21.1101899 11.5452606,21.5212421 C11.9543682,21.9322943 12.1307831,22.5231521 12.0146699,23.0934118 Z M20.0873839,46.1522353 C17.6926654,46.1647488 15.5606534,44.6265389 14.8010258,42.3382191 C14.0413983,40.0498994 14.8258802,37.5287782 16.7461614,36.0870588 L16.7461614,15.9624706 C16.6954111,14.7275178 17.3203667,13.5638478 18.3741569,12.9311358 C19.4279471,12.2984238 20.7410993,12.2984238 21.7948896,12.9311358 C22.8486798,13.5638478 23.4736354,14.7275178 23.4228851,15.9624706 L23.4228851,36.0985882 C25.3431662,37.5403076 26.1276482,40.0614288 25.3680206,42.3497485 C24.6083931,44.6380683 22.476381,46.1762782 20.0816626,46.1637647 L20.0873839,46.1522353 Z M29.5332029,24.4596471 C28.6941374,24.2830607 28.1130035,23.5098076 28.1717908,22.6481607 C28.2305781,21.7865138 28.9112619,21.1006624 29.7664166,21.0414288 C30.6215714,20.9821952 31.3889984,21.5677409 31.5642543,22.4131765 C31.6826473,22.9843053 31.5072516,23.577083 31.0977958,23.9896473 C30.6883399,24.4022117 30.1000286,24.5789389 29.5332029,24.4596471 Z M35.9410269,12.6823529 C34.0015159,12.446 35.712176,9.50023529 34.2246455,8.86035294 C32.5082641,8.10517647 31.6443521,11.7138824 29.9165281,10.3649412 C28.8466504,9.52905882 29.4531051,7.69588235 31.1466015,5.85117647 C33.3607335,3.45882353 34.3276284,2.54223529 35.288802,2.54223529 C36.2499756,2.54223529 37.0051834,4.04682353 37.651687,6.39305882 C38.1265526,8.16858824 38.9046455,13.0224706 35.9410269,12.6823529 Z"/>
    </g>
  </g>
</svg>
