<svg xmlns="http://www.w3.org/2000/svg" width="391" height="64" viewBox="0 0 391 64">
  <g fill="#5F5F55" transform="translate(0 -1)">
    <g transform="translate(66 14)">
      <path d="M31.9 7.68C28.16 7.63 24.9 7.58 20.56 7.58 20.51 8.72 20.51 10.08 20.51 10.91L20.51 29.91C20.51 31.91 20.56 35.91 20.72 37.4L11.78 37.4C12.04 34.9 12.14 28.25 12.14 24.87L12.14 15.69C12.14 13.69 12.14 10.33 12.04 7.58 7.72 7.58 4.19 7.63.5 7.68.66 5.6.71 2.9.71.5 5.65.66 10.49.76 16.36.76 22.23.76 27.36.66 32.36.5 32.0631808 2.88197709 31.9095714 5.27961985 31.9 7.68zM63.73 37.58C60.4 37.37 56.29 37.32 52.39 37.32 48.18 37.32 43.65 37.37 40.12 37.58 40.38 35.08 40.48 28.22 40.48 24.84L40.48 13.35C40.48 10.02 40.38 3 40.12.51 43.6.67 47.5.77 51.82.77 55.88.77 59.67.67 63.05.51 62.7676441 2.76897566 62.6273682 5.04344801 62.63 7.32 59.82 7.27 56.91 7.22 53.63 7.22 52.07 7.22 50.35 7.22 48.85 7.27 48.7678528 8.15081526 48.7344685 9.03549875 48.75 9.92L48.75 15.43 60.66 15.38C60.56 17.15 60.5 19.28 60.5 21.57L48.75 21.47 48.75 28.13C48.7334403 29.0311562 48.7668248 29.9325377 48.85 30.83 50.36 30.83 52.07 30.88 53.63 30.88 57.48 30.88 60.86 30.83 64.13 30.72 63.8573352 32.9964089 63.7237539 35.287328 63.73 37.58zM73.35 24.84L74.91 13.3C75.38 9.97 76.21 3.3 76.42.56L81.72.2C82.66 2.33 84.06 5.5 85.1 7.69L93.16 25.32 101.06 7.59C102 5.41 103.45 2.18 104.23.26L109.43.26C109.74 3.26 110.63 9.98 111.04 13.31L112.65 24.85C113.12 28.23 114.21 34.68 114.78 37.38L106.46 37.8C106.36 36.29 105.89 31.98 105.58 29.9L103.81 16.48C101.21 22.48 95.44 35.93 94.71 37.8L90.91 38.11 81.81 16.79 80.2 29.89C79.94 31.89 79.58 35.89 79.52 37.38L71.25 37.38C71.89 34.62 72.88 28.27 73.35 24.84zM132.11 29.89C132.11 31.89 132.16 35.89 132.32 37.38L123.38 37.38C123.64 34.88 123.74 28.23 123.74 24.85L123.74 13.35C123.74 10.02 123.64 3.35 123.38.82 125.25.82 131.86.56 134.92.56 145.01.56 150.16 5.5 150.16 12.21 150.16 19.65 145.27 25.52 134.04 25.52 133.42 25.52 132.74 25.52 132.12 25.47L132.11 29.89zM135 7.11C134 7.11 133.28 7.11 132 7.21L132 19.21C132.723493 19.293537 133.451897 19.32695 134.18 19.31 139.02 19.31 141.98 17.13 141.98 13.12 141.98 9.11 139.75 7.11 135 7.11zM181.14 37.58C177.81 37.37 173.7 37.32 169.8 37.32 165.59 37.32 161.06 37.37 157.53 37.58 157.79 35.08 157.89 28.22 157.89 24.84L157.89 13.35C157.89 10.02 157.79 3 157.53.51 161.01.67 164.91.77 169.23.77 173.29.77 177.08.67 180.46.51 180.177644 2.76897566 180.037368 5.04344801 180.04 7.32 177.23 7.27 174.32 7.22 171.04 7.22 169.48 7.22 167.76 7.22 166.26 7.27 166.177853 8.15081526 166.144468 9.03549875 166.16 9.92L166.16 15.43 178 15.38C177.9 17.15 177.84 19.28 177.84 21.57L166.09 21.47 166.09 28.13C166.07344 29.0311562 166.106825 29.9325377 166.19 30.83 167.7 30.83 169.41 30.88 170.97 30.88 174.82 30.88 178.2 30.83 181.47 30.72 181.220722 32.9978379 181.110518 35.2887524 181.14 37.58zM211.25 37.84L203.25 24.53 202.47 24.58 199.09 24.58 199.09 29.88C199.09 31.88 199.14 35.88 199.25 37.37L190.4 37.37C190.66 34.87 190.76 28.22 190.76 24.84L190.76 13.35C190.76 10.02 190.66 3.35 190.4.82 192.27.82 199.29.61 201.63.56 212.08.46 217.63 5.24 217.54 11.64 217.44 16.74 214.94 20.01 210.36 22.4L216.24 31C217.44 32.72 219.52 35.58 220.66 37.08L211.25 37.84zM202.88 18.7C206.94 18.7 209.38 16.2 209.38 12.82 209.38 9.44 207.56 7.05 202.38 7.05 201.18 7.05 200.04 7.1 199 7.21L199 18.71 202.88 18.7zM235.74 10.75C237.66 6.38 238.91 3.57 239.95.61L245.57.14 257.37 26.77C258.77 29.99 260.75 34.21 262.31 37.38L253.37 37.8 249.78 29.32 235.9 29.32C235.07 31.32 233.4 35.72 232.78 37.38L224 37.38 235.74 10.75zM238.03 23.75L247.6 23.75 242.76 11.63 238.03 23.75zM292.53 7.68C288.79 7.63 285.53 7.58 281.19 7.58 281.14 8.72 281.14 10.08 281.14 10.91L281.14 29.91C281.14 31.91 281.19 35.91 281.35 37.4L272.4 37.4C272.66 34.9 272.76 28.25 272.76 24.87L272.76 15.69C272.76 13.69 272.76 10.33 272.66 7.58 268.34 7.58 264.81 7.63 261.12 7.68 261.28 5.6 261.33 2.9 261.33.5 266.27.66 271.11.76 276.98.76 282.85.76 287.98.66 292.98.5 292.686524 2.88217829 292.536254 5.2798203 292.53 7.68zM324.35 37.58C321.02 37.37 316.91 37.32 313.01 37.32 308.8 37.32 304.27 37.37 300.74 37.58 301 35.08 301.1 28.22 301.1 24.84L301.1 13.35C301.1 10.02 301 3 300.74.51 304.22.67 308.12.77 312.44.77 316.5.77 320.29.67 323.67.51 323.387644 2.76897566 323.247368 5.04344801 323.25 7.32 320.44 7.27 317.53 7.22 314.25 7.22 312.69 7.22 310.97 7.22 309.47 7.27 309.387853 8.15081526 309.354468 9.03549875 309.37 9.92L309.37 15.43 321.28 15.38C321.18 17.15 321.12 19.28 321.12 21.57L309.37 21.47 309.37 28.13C309.35344 29.0311562 309.386825 29.9325377 309.47 30.83 310.98 30.83 312.69 30.88 314.25 30.88 318.1 30.88 321.48 30.83 324.75 30.72 324.477335 32.9964089 324.343754 35.287328 324.35 37.58z"/>
    </g>
    <path d="M27.93,49.11 L27.93,35.22 C27.9245036,34.4120494 27.2679693,33.7599813 26.46,33.76 C25.6559332,33.7654515 25.0054515,34.4159332 25,35.22 L25,49.11 C23.087226,49.7751193 21.8798122,51.6648045 22.08,53.68 C22.3289672,55.888079 24.1686331,57.5740837 26.39,57.63 C28.5393836,57.6710665 30.4008533,56.146169 30.7836668,54.0307517 C31.1664803,51.9153344 29.9574641,49.8347908 27.93,49.12 L27.93,49.11 Z"/>
    <path d="M52.89,15 C52.7940455,10.6943507 51.6437944,6.47790799 49.54,2.72 C49.0108101,1.85258624 48.1396997,1.24919888 47.1416173,1.05872515 C46.143535,0.868251417 45.1114385,1.10843135 44.3,1.72 C41.17,4.09 36.3,8.72 35.11,10.93 C34.8605709,11.4082134 34.3692861,11.7114283 33.83,11.72 C33.6559766,11.7208475 33.4832218,11.6903614 33.32,11.63 C31.1073597,10.8979379 28.7905769,10.5298193 26.46,10.54 C24.1294231,10.5298193 21.8126403,10.8979379 19.6,11.63 C19.4367782,11.6903614 19.2640234,11.7208475 19.09,11.72 C18.5507139,11.7114283 18.0594291,11.4082134 17.81,10.93 C16.61,8.71 11.72,4.1 8.59,1.73 C7.77856152,1.11843135 6.74646501,0.878251417 5.74838266,1.06872515 C4.75030032,1.25919888 3.87918993,1.86258624 3.35,2.73 C1.24778035,6.48493472 0.0975817284,10.6977517 0,15 C0,22.68 2.32,29.24 1.69,37.18 C1.38,41.07 1.28,45.42 1.27,48.84 C1.21813617,51.9231758 1.55410396,55.0006408 2.27,58 C2.34945665,58.3187693 2.58041499,58.5781789 2.88785607,58.6939684 C3.19529715,58.8097579 3.54000013,58.7671558 3.81,58.58 L8.2,55.8 C8.35724371,55.6967038 8.55858609,55.6883671 8.72383098,55.7783105 C8.88907586,55.8682539 8.99138196,56.0418677 8.99,56.23 L8.99,58.46 C8.97259185,58.8534766 9.18777066,59.2205239 9.53961829,59.3975271 C9.89146593,59.5745302 10.3144417,59.5285176 10.62,59.28 C11.9547883,58.2700179 13.3471348,57.3384479 14.79,56.49 C14.9244012,56.4289712 15.0786517,56.4291668 15.2128976,56.4905364 C15.3471436,56.551906 15.4482157,56.6684292 15.49,56.81 C15.6,57.17 15.74,57.62 15.84,57.88 C17.6136349,62.1102436 21.8047001,64.8155663 26.39,64.69 C31.0116859,64.8309893 35.2375178,62.0947532 37,57.82 C37.1,57.56 37.24,57.11 37.35,56.75 C37.3917843,56.6084292 37.4928564,56.491906 37.6271024,56.4305364 C37.7613483,56.3691668 37.9155988,56.3689712 38.05,56.43 C39.4928652,57.2784479 40.8852117,58.2100179 42.22,59.22 C42.5255583,59.4685176 42.9485341,59.5145302 43.3003817,59.3375271 C43.6522293,59.1605239 43.8674081,58.7934766 43.85,58.4 L43.85,56.17 C43.848618,55.9818677 43.9509241,55.8082539 44.116169,55.7183105 C44.2814139,55.6283671 44.4827563,55.6367038 44.64,55.74 L49.03,58.52 C49.2928291,58.7213843 49.6383009,58.7796137 49.9526204,58.6755079 C50.2669399,58.5714021 50.5093489,58.3184606 50.6,58 C51.315896,55.0006408 51.6518638,51.9231758 51.6,48.84 C51.6,45.42 51.48,41.07 51.18,37.18 C50.57,29.19 52.89,22.63 52.89,15 Z M7.89,11.83 C5.97,12.66 8.22,16.5 5.66,16.83 C1.77,17.3 2.79,10.97 3.41,8.65 C4.23,5.59 5.17,3.65 6.51,3.65 C7.85,3.65 9,4.73 11.9,7.85 C14.13,10.27 14.9,12.66 13.52,13.75 C11.24,15.51 10.11,10.8 7.85,11.78 L7.89,11.83 Z M15.89,30.44 C15.667332,31.5569315 14.6514803,32.3359619 13.515019,32.2613116 C12.3785577,32.1866613 11.4733387,31.2814423 11.3986884,30.144981 C11.3240381,29.0085197 12.1030685,27.992668 13.22,27.77 C13.9443267,27.649622 14.6821445,27.8870325 15.2003521,28.4072256 C15.7185597,28.9274187 15.953147,29.666139 15.83,30.39 L15.89,30.44 Z M26.44,60.51 C23.2892267,60.5273978 20.4838499,58.5185954 19.4854261,55.5301468 C18.4870022,52.5416982 19.5215151,49.2500104 22.05,47.37 L22.05,21.08 C22.05,18.6527085 24.0177085,16.685 26.445,16.685 C28.8722915,16.685 30.84,18.6527085 30.84,21.08 L30.84,47.37 C33.3684849,49.2500104 34.4029978,52.5416982 33.4045739,55.5301468 C32.4061501,58.5185954 29.6007733,60.5273978 26.45,60.51 L26.44,60.51 Z M38.84,32.18 C37.7230685,31.957332 36.9440381,30.9414803 37.0186884,29.805019 C37.0933387,28.6685577 37.9985577,27.7633387 39.135019,27.6886884 C40.2714803,27.6140381 41.287332,28.3930685 41.51,29.51 C41.658291,30.253847 41.4252688,31.0226099 40.8889394,31.5589394 C40.3526099,32.0952688 39.583847,32.328291 38.84,32.18 Z M47.27,16.77 C44.72,16.46 46.97,12.62 45.04,11.77 C42.78,10.77 41.65,15.49 39.38,13.77 C38,12.66 38.77,10.27 41,7.85 C43.88,4.72 45.17,3.56 46.42,3.56 C47.67,3.56 48.7,5.56 49.52,8.56 C50.14,10.91 51.16,17.24 47.27,16.77 Z"/>
  </g>
</svg>
