<svg xmlns="http://www.w3.org/2000/svg" width="397" height="71" viewBox="0 0 397 71"><g fill="#FFF"><path d="M36.72,56.15 C36.7184517,53.8479924 35.6282142,51.6823505 33.78,50.31 L33.78,24 C33.7800001,22.431604 32.9432708,20.9823463 31.5850001,20.1981483 C30.2267293,19.4139503 28.5532707,19.4139503 27.1949999,20.1981483 C25.8367292,20.9823463 24.9999999,22.431604 25,24 L25,50.31 C23.39325,51.4968203 22.3464902,53.2932311 22.1061793,55.2762689 C21.8658684,57.2593066 22.4532408,59.2537468 23.73,60.79 C25.1243676,62.4787579 27.1999854,63.4566714 29.39,63.4566714 C31.5800146,63.4566714 33.6556324,62.4787579 35.05,60.79 C36.1317388,59.4859826 36.7226071,57.8442885 36.72,56.15 Z M29.33,60.57 C27.1009545,60.5239425 25.2500322,58.8354568 25,56.62 C24.7998122,54.6048045 26.007226,52.7151193 27.92,52.05 L27.92,38.16 C27.92,37.3481414 28.5781414,36.69 29.39,36.69 C30.2018586,36.69 30.86,37.3481414 30.86,38.16 L30.86,52.06 C32.8895804,52.775199 34.0989901,54.8587922 33.7133884,56.9758698 C33.3277868,59.0929474 31.461409,60.6163208 29.31,60.57 L29.33,60.57 Z"/><path d="M49.41,3.93 C50.66394,3.92611177 51.8285145,4.57857696 52.48,5.65 C54.5771265,9.3961677 55.727142,13.5980153 55.83,17.89 C55.83,25.57 53.51,32.13 54.14,40.07 C54.45,43.96 54.55,48.31 54.56,51.73 C54.611758,54.8131709 54.2757916,57.8906227 53.56,60.89 C53.4805433,61.2087693 53.249585,61.4681789 52.9421439,61.5839684 C52.6347028,61.6997579 52.2899999,61.6571558 52.02,61.47 L47.62,58.7 C47.5392917,58.6485221 47.4457244,58.6207985 47.35,58.62 C47.0628119,58.62 46.83,58.8528119 46.83,59.14 L46.83,61.37 C46.83,61.9222847 46.3822847,62.37 45.83,62.37 C45.6136298,62.37 45.4030962,62.2998221 45.23,62.17 C43.8755737,61.1614163 42.4631476,60.2331551 41,59.39 C40.8655988,59.3289712 40.7113483,59.3291668 40.5771024,59.3905364 C40.4428564,59.451906 40.3417843,59.5684292 40.3,59.71 C40.19,60.07 40.05,60.52 39.95,60.78 C38.1763651,65.0102436 33.9852999,67.7155663 29.4,67.59 C24.8147001,67.7155663 20.6236349,65.0102436 18.85,60.78 C18.75,60.52 18.61,60.07 18.5,59.71 C18.4582157,59.5684292 18.3571436,59.451906 18.2228976,59.3905364 C18.0886517,59.3291668 17.9344012,59.3289712 17.8,59.39 C16.3570869,60.2383715 14.964736,61.1699444 13.63,62.18 C13.4569038,62.3098221 13.2463702,62.38 13.03,62.38 C12.4777153,62.38 12.03,61.9322847 12.03,61.38 L12.03,59.15 C12.03,58.8628119 11.7971881,58.63 11.51,58.63 C11.4142756,58.6307985 11.3207083,58.6585221 11.24,58.71 L6.77,61.49 C6.50000013,61.6771558 6.15529715,61.7197579 5.84785607,61.6039684 C5.54041499,61.4881789 5.30945665,61.2287693 5.23,60.91 C4.51420838,57.9106227 4.17824203,54.8331709 4.23,51.75 C4.23,48.32 4.35,43.97 4.65,40.09 C5.28,32.15 2.96,25.58 2.96,17.91 C3.05348565,13.6129076 4.19671096,9.40391584 6.29,5.65 C6.81918993,4.78258624 7.69030032,4.17919888 8.68838266,3.98872515 C9.68646501,3.79825142 10.7185615,4.03843135 11.53,4.65 C14.66,7.02 19.53,11.65 20.73,13.86 C20.9794291,14.3382134 21.4707139,14.6414283 22.01,14.65 C22.1773218,14.6486967 22.3431362,14.618241 22.5,14.56 C24.7127241,13.8282822 27.0294503,13.4601726 29.36,13.47 C31.6905497,13.4601726 34.0072759,13.8282822 36.22,14.56 C36.3768638,14.618241 36.5426782,14.6486967 36.71,14.65 C37.2528924,14.6450892 37.748878,14.3413461 38,13.86 C39.18,11.63 44.07,7.02 47.2,4.65 C47.8239267,4.17569651 48.5862604,3.91924324 49.37,3.92 L49.41,3.93 Z M43.33,17.08 C44.79,17.08 45.82,14.58 47.33,14.58 C47.5440844,14.5836236 47.755131,14.6312793 47.95,14.72 C49.87,15.56 47.62,19.4 50.18,19.72 L50.58,19.72 C54,19.72 53.03,13.72 52.43,11.51 C51.61,8.45 50.67,6.51 49.33,6.51 C47.99,6.51 46.79,7.67 43.91,10.8 C41.68,13.22 40.91,15.61 42.29,16.7 C42.5687981,16.942107 42.9211414,17.0830443 43.29,17.1 L43.33,17.08 Z M8.16,19.73 L8.56,19.73 C11.11,19.42 8.86,15.58 10.79,14.73 C10.9847767,14.6410054 11.1958812,14.5933367 11.41,14.59 C12.95,14.59 13.98,17.09 15.41,17.09 C15.7788586,17.0730443 16.1312019,16.932107 16.41,16.69 C17.82,15.6 17.02,13.21 14.79,10.79 C12,7.66 10.66,6.5 9.41,6.5 C8.16,6.5 7.13,8.5 6.31,11.5 C5.71,13.74 4.74,19.71 8.16,19.71 L8.16,19.73 Z M42.23,35.16 C43.3853116,35.1433512 44.3437822,34.2615484 44.4564695,33.1116251 C44.5691569,31.9617018 43.8001015,30.9106091 42.67,30.67 C42.523648,30.6564135 42.376352,30.6564135 42.23,30.67 C41.0746884,30.6866488 40.1162178,31.5684516 40.0035305,32.7183749 C39.8908431,33.8682982 40.6598985,34.9193909 41.79,35.16 C41.936352,35.1735865 42.083648,35.1735865 42.23,35.16 Z M16.55,35.16 C16.696352,35.1735865 16.843648,35.1735865 16.99,35.16 C18.1201015,34.9193909 18.8891569,33.8682982 18.7764695,32.7183749 C18.6637822,31.5684516 17.7053116,30.6866488 16.55,30.67 C16.403648,30.6564135 16.256352,30.6564135 16.11,30.67 C14.9798985,30.9106091 14.2108431,31.9617018 14.3235305,33.1116251 C14.4362178,34.2615484 15.3946884,35.1433512 16.55,35.16 Z M49.41,1 C47.9873758,0.995573423 46.602829,1.45943174 45.47,2.32 C43.06,4.14 38.26,8.39 36.1,11.45 C33.9293379,10.8402018 31.684682,10.5339594 29.43,10.54 L29.37,10.54 C27.1019522,10.5306436 24.843633,10.8369134 22.66,11.45 C20.51,8.39 15.66,4.14 13.29,2.32 C11.8196152,1.20763795 9.94750984,0.768710906 8.13593302,1.11159611 C6.3243562,1.45448131 4.74215606,2.54722012 3.78,4.12 C1.40176019,8.32723557 0.103062442,13.0582059 0,17.89 C0.0661391127,21.2779981 0.376948049,24.6567921 0.93,28 C1.63617315,31.9045324 1.89451077,35.8768927 1.7,39.84 C1.34,44.38 1.27,49.23 1.27,51.73 C1.22082477,55.0983672 1.60395154,58.4591283 2.41,61.73 C2.76384028,62.9230004 3.65274217,63.8833744 4.81487364,64.3282376 C5.97700512,64.7731007 7.27998064,64.6517758 8.34,64 L9.51,63.26 C10.2048701,64.5473612 11.5470954,65.3526963 13.01,65.36 C13.8444046,65.3593778 14.6569561,65.0931971 15.33,64.6 L16.91,63.47 C19.4447985,67.9041447 24.1931964,70.6060176 29.3,70.52 L29.39,70.52 C34.5315396,70.6294676 39.3191997,67.9112131 41.86,63.44 L43.44,64.57 C44.1130439,65.0631971 44.9255954,65.3293778 45.76,65.33 C47.2229046,65.3226963 48.5651299,64.5173612 49.26,63.23 L50.43,63.97 C51.4873023,64.6222676 52.7876542,64.7462525 53.9491689,64.3055429 C55.1106835,63.8648333 56.0014986,62.9094612 56.36,61.72 C57.1661571,58.4491478 57.5492855,55.0883726 57.5,51.72 C57.5,49.23 57.43,44.37 57.07,39.83 C56.876339,35.8702189 57.1346731,31.9012671 57.84,28 C58.393977,24.650191 58.7047889,21.2646809 58.77,17.87 C58.6667073,13.0458669 57.3715674,8.32221345 55,4.12 C53.8163407,2.1679313 51.6928322,0.98271722 49.41,1 Z"/><g><path d="M31.72 7.63C27.98 7.58 24.72 7.53 20.38 7.53 20.33 8.67 20.33 10.03 20.33 10.86L20.33 29.86C20.33 31.86 20.38 35.86 20.54 37.35L11.6 37.35C11.86 34.85 11.96 28.2 11.96 24.82L11.96 15.64C11.96 13.64 11.96 10.28 11.86 7.53 7.54 7.53 4.01 7.58.32 7.63.48 5.55.53 2.85.53.45 5.47.61 10.31.71 16.18.71 22.05.71 27.18.61 32.18.45 31.8831808 2.83197709 31.7295714 5.22961985 31.72 7.63zM63.55 37.53C60.22 37.32 56.11 37.27 52.21 37.27 48 37.27 43.47 37.32 39.94 37.53 40.2 35.03 40.3 28.17 40.3 24.79L40.3 13.3C40.3 9.97 40.2 2.95 39.94.46 43.42.62 47.32.72 51.64.72 55.7.72 59.49.62 62.87.46 62.5876441 2.71897566 62.4473682 4.99344801 62.45 7.27 59.64 7.22 56.73 7.17 53.45 7.17 51.89 7.17 50.17 7.17 48.67 7.22 48.5878528 8.10081526 48.5544685 8.98549875 48.57 9.87L48.57 15.38 60.48 15.33C60.38 17.1 60.32 19.23 60.32 21.52L48.57 21.42 48.57 28.08C48.5534403 28.9811562 48.5868248 29.8825377 48.67 30.78 50.18 30.78 51.89 30.83 53.45 30.83 57.3 30.83 60.68 30.78 63.95 30.67 63.6773352 32.9464089 63.5437539 35.237328 63.55 37.53zM73.17 24.79L74.73 13.25C75.2 9.92 76.03 3.25 76.24.51L81.54.15C82.48 2.28 83.88 5.45 84.92 7.64L93 25.26 100.9 7.53C101.84 5.35 103.29 2.12 104.07.2L109.27.2C109.58 3.2 110.47 9.92 110.88 13.25L112.49 24.79C112.96 28.17 114.05 34.62 114.62 37.32L106.3 37.74C106.2 36.23 105.73 31.92 105.42 29.84L103.65 16.42C101.05 22.42 95.28 35.87 94.55 37.74L90.75 38.05 81.65 16.73 80 29.83C79.74 31.83 79.38 35.83 79.32 37.32L71.05 37.32C71.71 34.57 72.7 28.22 73.17 24.79zM131.93 29.83C131.93 31.83 131.98 35.83 132.14 37.32L123.2 37.32C123.46 34.82 123.56 28.17 123.56 24.79L123.56 13.3C123.56 9.97 123.46 3.3 123.2.77 125.07.77 131.68.51 134.74.51 144.83.51 149.98 5.45 149.98 12.16 149.98 19.6 145.09 25.47 133.86 25.47 133.24 25.47 132.56 25.47 131.94 25.42L131.93 29.83zM134.84 7.05C133.84 7.05 133.12 7.05 131.84 7.15L131.84 19.15C132.563493 19.233537 133.291897 19.26695 134.02 19.25 138.86 19.25 141.82 17.07 141.82 13.06 141.82 9.05 139.57 7.06 134.84 7.06L134.84 7.05zM181 37.53C177.67 37.32 173.56 37.27 169.66 37.27 165.45 37.27 160.92 37.32 157.39 37.53 157.65 35.03 157.75 28.17 157.75 24.79L157.75 13.3C157.75 9.97 157.65 2.95 157.39.46 160.87.62 164.77.72 169.09.72 173.15.72 176.94.62 180.32.46 180.037644 2.71897566 179.897368 4.99344801 179.9 7.27 177.09 7.22 174.18 7.17 170.9 7.17 169.34 7.17 167.62 7.17 166.12 7.22 166.037853 8.10081526 166.004468 8.98549875 166.02 9.87L166.02 15.38 177.93 15.33C177.83 17.1 177.77 19.23 177.77 21.52L166.02 21.42 166.02 28.08C166.00344 28.9811562 166.036825 29.8825377 166.12 30.78 167.63 30.78 169.34 30.83 170.9 30.83 174.75 30.83 178.13 30.78 181.4 30.67 181.127335 32.9464089 180.993754 35.237328 181 37.53zM211.07 37.79L203.07 24.48 202.29 24.53 198.9 24.53 198.9 29.83C198.9 31.83 198.95 35.83 199.06 37.32L190.22 37.32C190.48 34.82 190.58 28.17 190.58 24.79L190.58 13.3C190.58 9.97 190.48 3.3 190.22.77 192.09.77 199.11.56 201.45.51 211.9.41 217.45 5.19 217.36 11.59 217.26 16.69 214.76 19.96 210.18 22.35L216.06 30.93C217.26 32.65 219.34 35.51 220.48 37.01L211.07 37.79zM202.7 18.65C206.76 18.65 209.2 16.15 209.2 12.77 209.2 9.39 207.38 7 202.2 7 201 7 199.86 7.05 198.82 7.16L198.82 18.65 202.7 18.65zM235.56 10.7C237.48 6.33 238.73 3.52 239.77.56L245.39.09 257.19 26.72C258.59 29.94 260.57 34.16 262.13 37.33L253.19 37.75 249.6 29.27 235.72 29.27C234.89 31.27 233.22 35.67 232.6 37.33L223.81 37.33 235.56 10.7zM237.85 23.7L247.42 23.7 242.58 11.58 237.85 23.7zM292.35 7.63C288.61 7.58 285.35 7.53 281.01 7.53 281 8.67 281 10 281 10.85L281 29.85C281 31.85 281.05 35.85 281.21 37.34L272.27 37.34C272.53 34.84 272.63 28.19 272.63 24.81L272.63 15.64C272.63 13.64 272.63 10.28 272.53 7.53 268.21 7.53 264.68 7.58 260.99 7.63 261.15 5.55 261.2 2.85 261.2.45 266.14.61 270.98.71 276.85.71 282.72.71 287.85.61 292.85.45 292.539806 2.83117164 292.372839 5.22881761 292.35 7.63zM324.17 37.53C320.84 37.32 316.73 37.27 312.83 37.27 308.62 37.27 304.09 37.32 300.56 37.53 300.82 35.03 300.92 28.17 300.92 24.79L300.92 13.3C300.92 9.97 300.82 2.95 300.56.46 304.04.62 307.94.72 312.26.72 316.32.72 320.11.62 323.49.46 323.207644 2.71897566 323.067368 4.99344801 323.07 7.27 320.26 7.22 317.35 7.17 314.07 7.17 312.51 7.17 310.79 7.17 309.29 7.22 309.207853 8.10081526 309.174468 8.98549875 309.19 9.87L309.19 15.38 321 15.33C320.9 17.1 320.84 19.23 320.84 21.52L309.09 21.42 309.09 28.08C309.07344 28.9811562 309.106825 29.8825377 309.19 30.78 310.7 30.78 312.41 30.83 313.97 30.83 317.82 30.83 321.2 30.78 324.47 30.67 324.230741 32.9484495 324.130555 35.2393623 324.17 37.53z" transform="translate(72 17)"/></g></g></svg>