<svg id="Layer_1" data-name="Layer 1" xmlns="http://www.w3.org/2000/svg" viewBox="0 0 359.6 69.52"><defs><style>.cls-1{fill:#fff;}</style></defs><title>temperate-logo-white</title><g id="Full_logo_left-aligned_for_dark_background_unoutlined_" data-name="Full logo, left-aligned for dark background [unoutlined]"><g id="Mark"><path id="Thermometer" class="cls-1" d="M36.72,55.15a7.28,7.28,0,0,0-2.94-5.84V23h0A4.4,4.4,0,1,0,25,23h0V49.31a7.28,7.28,0,0,0-2.94,5.84,7.19,7.19,0,0,0,.15,1.47A7.26,7.26,0,0,0,22.63,58a7.35,7.35,0,0,0,13.51,0,7.26,7.26,0,0,0,.43-1.37A7.19,7.19,0,0,0,36.72,55.15Zm-7.39,4.42a4.46,4.46,0,0,1-4.32-4,4.4,4.4,0,0,1,2.92-4.57V37.16a1.47,1.47,0,0,1,2.94,0V51.05a4.38,4.38,0,0,1-1.54,8.52Z"/><path id="Outline" class="cls-1" d="M49.41,2.93a3.57,3.57,0,0,1,3.07,1.72,26.34,26.34,0,0,1,3.36,12.24c0,7.68-2.33,14.25-1.69,22.19.3,3.89.41,8.24.42,11.66a36.72,36.72,0,0,1-1,9.16,1,1,0,0,1-1,.75,1.06,1.06,0,0,1-.56-.16L47.62,57.7a.5.5,0,0,0-.28-.08.51.51,0,0,0-.51.51l0,2.24a1,1,0,0,1-1,1,1.08,1.08,0,0,1-.6-.2A45.13,45.13,0,0,0,41,58.39a.52.52,0,0,0-.21,0,.51.51,0,0,0-.49.36c-.11.36-.25.81-.35,1.07h0a11.08,11.08,0,0,1-10.55,6.81h0a11.08,11.08,0,0,1-10.55-6.81h0c-.1-.26-.24-.71-.35-1.07a.51.51,0,0,0-.49-.36.52.52,0,0,0-.21,0,45.13,45.13,0,0,0-4.17,2.8,1.08,1.08,0,0,1-.6.2,1,1,0,0,1-1-1l0-2.24a.51.51,0,0,0-.51-.51.5.5,0,0,0-.28.08L6.77,60.49a1.06,1.06,0,0,1-.56.16,1,1,0,0,1-1-.75,36.72,36.72,0,0,1-1-9.16c0-3.42.12-7.77.43-11.66.63-7.94-1.7-14.51-1.7-22.19A26.34,26.34,0,0,1,6.29,4.65,3.57,3.57,0,0,1,9.36,2.93a3.63,3.63,0,0,1,2.17.73c3.12,2.37,8,7,9.19,9.21h0a1.48,1.48,0,0,0,1.28.79h0a1.34,1.34,0,0,0,.49-.1v0a21.47,21.47,0,0,1,6.87-1.09h0a21.47,21.47,0,0,1,6.87,1.09v0a1.34,1.34,0,0,0,.49.1h0a1.48,1.48,0,0,0,1.28-.79h0c1.18-2.22,6.07-6.84,9.19-9.21a3.63,3.63,0,0,1,2.17-.73M43.33,16.08c1.46,0,2.5-2.5,4-2.5a1.67,1.67,0,0,1,.63.14c1.92.84-.33,4.68,2.22,5l.4,0c3.43,0,2.45-6,1.85-8.2-.82-3.07-1.76-5-3.1-5s-2.54,1.16-5.42,4.29c-2.23,2.42-3,4.81-1.62,5.9a1.64,1.64,0,0,0,1,.39M8.16,18.73l.4,0c2.55-.31.3-4.15,2.22-5a1.67,1.67,0,0,1,.63-.14c1.53,0,2.57,2.5,4,2.5a1.64,1.64,0,0,0,1-.39c1.41-1.09.61-3.48-1.62-5.9C12,6.66,10.66,5.5,9.41,5.5s-2.28,2-3.1,5c-.6,2.24-1.58,8.2,1.85,8.2M42.23,34.16a2.24,2.24,0,1,0-.45,0,2.27,2.27,0,0,0,.45,0m-25.69,0a2.27,2.27,0,1,0,0-4.53,2.27,2.27,0,0,0,0,4.53M49.41,0a6.53,6.53,0,0,0-3.94,1.32c-2.4,1.83-7.21,6.07-9.36,9.14a24,24,0,0,0-6.68-.91h-.05a24.1,24.1,0,0,0-6.71.91c-2.16-3.07-7-7.31-9.37-9.14a6.55,6.55,0,0,0-9.52,1.8A29.27,29.27,0,0,0,0,16.89,70,70,0,0,0,.93,27,51.68,51.68,0,0,1,1.7,38.84c-.36,4.54-.43,9.4-.43,11.89a38.71,38.71,0,0,0,1.14,10,4,4,0,0,0,3.8,2.87A3.92,3.92,0,0,0,8.34,63l1.17-.74a4,4,0,0,0,3.5,2.1,3.9,3.9,0,0,0,2.32-.76l1.58-1.13A14,14,0,0,0,29.3,69.52h.09a14,14,0,0,0,12.47-7.09l1.58,1.13a3.9,3.9,0,0,0,2.32.76,4,4,0,0,0,3.5-2.1l1.17.74a3.92,3.92,0,0,0,2.13.62,4,4,0,0,0,3.8-2.87,38.71,38.71,0,0,0,1.14-10c0-2.49-.07-7.35-.43-11.89A52.25,52.25,0,0,1,57.84,27a70,70,0,0,0,.93-10.13A29.27,29.27,0,0,0,55,3.12,6.5,6.5,0,0,0,49.41,0Z"/></g><g id="Text"><path class="cls-1" d="M100.15,25.36c-3.32,0-6.22-.09-10.05-.09,0,1,0,2.21,0,2.95V45c0,1.75,0,5.34.18,6.63H82.31c.23-2.21.33-8.11.33-11.1V32.46c0-1.8,0-4.75-.1-7.19-3.82,0-7,.05-10.22.09.13-1.84.18-4.24.18-6.36,4.38.14,8.66.23,13.87.23s9.72-.09,14.15-.23A51.3,51.3,0,0,0,100.15,25.36Z"/><path class="cls-1" d="M128.34,51.86c-2.94-.19-6.58-.23-10-.23-3.73,0-7.74,0-10.88.23.24-2.22.33-8.3.33-11.29V30.38c0-2.95-.09-9.17-.33-11.38,3.09.14,6.55.23,10.37.23,3.6,0,7-.09,10-.23a46.63,46.63,0,0,0-.37,6c-2.49-.05-5.07-.09-8-.09-1.38,0-2.9,0-4.24,0a21.77,21.77,0,0,0-.09,2.35v4.89l10.55,0c-.09,1.57-.14,3.46-.14,5.48L115,37.57v5.9a22.21,22.21,0,0,0,.09,2.4c1.34,0,2.86,0,4.24,0,3.41,0,6.4,0,9.31-.14A50.18,50.18,0,0,0,128.34,51.86Z"/><path class="cls-1" d="M136.87,40.57l1.38-10.23c.41-2.95,1.15-8.85,1.34-11.29l4.7-.32c.83,1.89,2.07,4.7,3,6.63L154.42,41l7-15.71c.83-1.94,2.12-4.79,2.81-6.5h4.61c.27,2.63,1.06,8.62,1.42,11.57l1.43,10.23c.42,3,1.38,8.71,1.89,11.1l-7.37.37c-.09-1.34-.51-5.16-.78-7l-1.57-11.89c-2.3,5.3-7.42,17.23-8.06,18.89l-3.37.28-8.06-18.89L143,45c-.23,1.79-.55,5.34-.6,6.63H135C135.58,49.23,136.45,43.61,136.87,40.57Z"/><path class="cls-1" d="M188.93,45c0,1.75,0,5.34.19,6.63h-7.93c.23-2.21.32-8.11.32-11.1V30.38c0-2.95-.09-8.89-.32-11.1,1.66,0,7.51-.23,10.23-.23,8.94,0,13.5,4.38,13.5,10.32,0,6.59-4.33,11.8-14.28,11.8-.55,0-1.15,0-1.71-.05Zm2.58-20.19a26,26,0,0,0-2.67.1V35.59a14.29,14.29,0,0,0,1.94.09c4.28,0,6.91-1.93,6.91-5.48S195.71,24.85,191.51,24.85Z"/><path class="cls-1" d="M232.38,51.86c-2.94-.19-6.59-.23-10-.23-3.73,0-7.74,0-10.88.23.24-2.22.33-8.3.33-11.29V30.38c0-2.95-.09-9.17-.33-11.38,3.09.14,6.55.23,10.37.23,3.6,0,7-.09,10-.23a46.63,46.63,0,0,0-.37,6c-2.49-.05-5.07-.09-8-.09-1.38,0-2.9,0-4.24,0a21.77,21.77,0,0,0-.09,2.35v4.89l10.55,0c-.09,1.57-.14,3.46-.14,5.48l-10.41-.09v5.9a22.21,22.21,0,0,0,.09,2.4c1.34,0,2.86,0,4.24,0,3.41,0,6.4,0,9.31-.14A50.18,50.18,0,0,0,232.38,51.86Z"/><path class="cls-1" d="M259.06,52.09,252,40.29l-.7.05h-3V45c0,1.75.05,5.34.14,6.63h-7.84c.24-2.21.33-8.11.33-11.1V30.38c0-2.95-.09-8.89-.33-11.1,1.66,0,7.88-.19,10-.23,9.26-.09,14.14,4.15,14.1,9.81-.09,4.52-2.31,7.42-6.36,9.54l5.21,7.6c1.06,1.53,2.9,4.06,3.91,5.4Zm-7.42-17c3.6,0,5.76-2.21,5.76-5.21s-1.61-5.11-6.17-5.11a28.37,28.37,0,0,0-3,.14V35.13Z"/><path class="cls-1" d="M280.76,28.08c1.71-3.87,2.81-6.36,3.74-9l5-.41,10.46,23.59c1.25,2.86,3,6.59,4.38,9.4l-7.93.37-3.18-7.51H280.9c-.74,1.75-2.21,5.67-2.76,7.14h-7.79Zm2,11.52h8.48L287,28.86Z"/><path class="cls-1" d="M331.08,25.36c-3.32,0-6.22-.09-10.05-.09,0,1,0,2.21,0,2.95V45c0,1.75,0,5.34.18,6.63h-7.92c.23-2.21.32-8.11.32-11.1V32.46c0-1.8,0-4.75-.09-7.19-3.83,0-7,.05-10.23.09.14-1.84.18-4.24.18-6.36,4.38.14,8.66.23,13.87.23s9.72-.09,14.15-.23A53.32,53.32,0,0,0,331.08,25.36Z"/><path class="cls-1" d="M359.28,51.86c-2.95-.19-6.59-.23-10-.23-3.73,0-7.74,0-10.87.23.23-2.22.32-8.3.32-11.29V30.38c0-2.95-.09-9.17-.32-11.38,3.08.14,6.54.23,10.37.23,3.59,0,6.95-.09,9.95-.23a48.48,48.48,0,0,0-.37,6c-2.49-.05-5.07-.09-8-.09-1.38,0-2.9,0-4.24,0a21.77,21.77,0,0,0-.09,2.35v4.89l10.55,0c-.09,1.57-.14,3.46-.14,5.48L346,37.57v5.9a22.21,22.21,0,0,0,.09,2.4c1.34,0,2.86,0,4.24,0,3.41,0,6.41,0,9.31-.14A50.27,50.27,0,0,0,359.28,51.86Z"/></g></g></svg>