<svg id="Actual_logo" data-name="Actual logo" xmlns="http://www.w3.org/2000/svg" viewBox="0 0 493.43 91.7"><defs><style>.cls-1{fill:#048979;}.cls-2{fill:#ffd344;}.cls-3{fill:#038878;}.cls-4{fill:#cab32d;}.cls-5{fill:#ffd246;}</style></defs><title>Artboard 1</title><path class="cls-1" d="M45,.94V4.12a37.46,37.46,0,0,0-4.49.28,2.73,2.73,0,0,0-1,.4,1.28,1.28,0,0,0-.41.61,8.82,8.82,0,0,0-.37,2.39c0,.63-.06,1.83-.08,3.59-.07,6-.11,9.27-.11,9.74V35.92l.19,6.72a20.3,20.3,0,0,0,.36,4.92,1.48,1.48,0,0,0,.5.79,2.59,2.59,0,0,0,1.09.44A34.62,34.62,0,0,0,45,49v3.19q-6-.28-12.79-.28-5.92,0-10.55.28V49c2.62-.1,4.13-.18,4.54-.26a2.19,2.19,0,0,0,1.07-.4,1.07,1.07,0,0,0,.36-.59,33.24,33.24,0,0,0,.31-3.45c.12-2.94.18-5.65.18-8.15V20.83q0-7.3-.18-9.4a49.73,49.73,0,0,0-.44-5.84,1.55,1.55,0,0,0-.35-.73,1.81,1.81,0,0,0-.88-.42,37.45,37.45,0,0,0-4.61-.32V.94c3.08.18,6.62.28,10.62.28Q39,1.22,45,.94Z"/><path class="cls-1" d="M117.69,45.52,116,49.22a37.43,37.43,0,0,1-8.23,3.32,38.67,38.67,0,0,1-9.1.9A35.69,35.69,0,0,1,85,51,24.59,24.59,0,0,1,72,38.67a29.31,29.31,0,0,1-2.67-12.5q0-11.55,7.89-18.86T99.49,0a48.89,48.89,0,0,1,8.88.72,61.37,61.37,0,0,1,9.14,2.57l.18.47a20.71,20.71,0,0,0-.9,4.26q-.56,4.08-.69,7.54h-2.82c0-2.66-.13-4.79-.28-6.39a16.1,16.1,0,0,0-5.54-3.79A20.85,20.85,0,0,0,99.6,4.12q-8.66,0-13.84,5.46T80.57,24.8a28.14,28.14,0,0,0,1.74,10.32,21,21,0,0,0,4.63,7.29,20,20,0,0,0,5.83,4.2,23.91,23.91,0,0,0,9.67,1.76,28.62,28.62,0,0,0,7.08-.83,33.77,33.77,0,0,0,7.25-2.86Z"/><path class="cls-1" d="M143.37,52.22V50.33a25.44,25.44,0,0,0,2.74-1.43,3.57,3.57,0,0,0,1-.73,1,1,0,0,0,.19-.41,62.09,62.09,0,0,0,.28-6.54q.09-5.64.1-13.52,0-11.58-.07-14.3a49.38,49.38,0,0,0-.45-7.88,1.16,1.16,0,0,0-.55-.66c-.56-.37-2.42-.61-5.59-.74V.94c3.09.18,6.61.28,10.57.28q6.65,0,12.59-.28V4.12a17.8,17.8,0,0,0-5.13.66,1.31,1.31,0,0,0-.59.72,26.4,26.4,0,0,0-.3,4.53c-.08,2.68-.11,6.08-.11,10.18V30.8c0,3.49.08,7,.1,10.39s0,5.52.09,6.25c3.37.18,5.66.28,6.89.28a62.91,62.91,0,0,0,9.7-.66,4.35,4.35,0,0,0,1.8-.48,3.3,3.3,0,0,0,.62-1.36c.49-1.87,1-4,1.43-6.41h3c-.07.69-.11,1.09-.11,1.22l-.89,7.43c-.19,2.33-.29,3.73-.32,4.2a13.85,13.85,0,0,1-2.12.38q-2.24.18-6.93.18c-.44,0-3.32,0-8.62-.16q-6-.12-8.43-.12Q150.7,51.94,143.37,52.22Z"/><path class="cls-1" d="M207.39,52.23v-2a18.09,18.09,0,0,0,3.61-2.1c.14-1,.26-2.68.36-5,.19-4.19.28-7.24.29-9.15V17.53q0-.95-.18-7.13A19.48,19.48,0,0,0,211,5.35a1.22,1.22,0,0,0-.55-.55,19.64,19.64,0,0,0-5.23-.66V1.32l8.53-.07h4.85c3.36,0,7.09,0,11.21-.11L237.23,1c.88,0,2.67.05,5.37.14a5,5,0,0,1,1.21.24l.25.48-.71,5.29c0,.37-.16,2.14-.38,5.3h-2.82a33.66,33.66,0,0,0-.33-5.31,1.45,1.45,0,0,0-.44-.74,9,9,0,0,0-3-.58,63.55,63.55,0,0,0-7.17-.4q-3.28,0-6.72.28a94.37,94.37,0,0,0-.47,10.5v7.5a47.91,47.91,0,0,0,5.22.28c.57,0,2.6-.05,6.11-.15a7.1,7.1,0,0,0,2.34-.25,1.39,1.39,0,0,0,.53-.77,18.15,18.15,0,0,0,.52-4.64h3l-.19,8,.19,8h-3c0-2.84-.17-4.59-.56-5.25a2.15,2.15,0,0,0-1.6-.91,44.15,44.15,0,0,0-6.6-.41,52.29,52.29,0,0,0-6,.29V43.22a43.44,43.44,0,0,0,.19,4.42c2,.18,4.32.28,7,.28s5.08-.09,7.32-.26a12,12,0,0,0,4.12-.73,1.41,1.41,0,0,0,.48-.67,38,38,0,0,0,1.39-6.69h3a110.12,110.12,0,0,0-.83,11.9l-.48.48a59.6,59.6,0,0,1-6.68.28l-5.9-.14q-8.72-.14-12-.14Q218.77,52,207.39,52.23Z"/><path class="cls-1" d="M292,.94V4.12a37.46,37.46,0,0,0-4.49.28,2.73,2.73,0,0,0-1,.4,1.28,1.28,0,0,0-.41.61,8.82,8.82,0,0,0-.37,2.39c0,.63-.06,1.83-.08,3.59-.07,6-.11,9.27-.11,9.74V35.92l.19,6.72a20.3,20.3,0,0,0,.36,4.92,1.48,1.48,0,0,0,.5.79,2.59,2.59,0,0,0,1.09.44A34.62,34.62,0,0,0,292,49v3.19q-6-.28-12.79-.28-5.93,0-10.55.28V49c2.62-.1,4.13-.18,4.54-.26a2.19,2.19,0,0,0,1.07-.4,1.07,1.07,0,0,0,.36-.59,33.24,33.24,0,0,0,.31-3.45c.12-2.94.18-5.65.18-8.15V20.83q0-7.3-.18-9.4a49.73,49.73,0,0,0-.44-5.84,1.55,1.55,0,0,0-.35-.73,1.81,1.81,0,0,0-.88-.42,37.45,37.45,0,0,0-4.61-.32V.94c3.08.18,6.62.28,10.62.28Q286,1.22,292,.94Z"/><path class="cls-2" d="M13.82,28.61A6.91,6.91,0,1,1,6.91,21.7a6.91,6.91,0,0,1,6.91,6.91Z"/><path class="cls-2" d="M65.86,47.71A6.91,6.91,0,1,1,59,40.8h0A6.91,6.91,0,0,1,65.86,47.71Z"/><path class="cls-2" d="M136.6,14.78a6.91,6.91,0,1,1-6.91-6.91A6.91,6.91,0,0,1,136.6,14.78Z"/><path class="cls-2" d="M197.18,28.61a6.92,6.92,0,1,1-6.93-6.91h0A6.92,6.92,0,0,1,197.18,28.61Z"/><path class="cls-2" d="M260.6,28.2a6.92,6.92,0,1,1-6.93-6.91h0a6.91,6.91,0,0,1,6.91,6.91Z"/><path class="cls-3" d="M1.38,84.17v-.7a8.72,8.72,0,0,0,1-.54,1.49,1.49,0,0,0,.38-.28.39.39,0,0,0,.06-.15A20.86,20.86,0,0,0,3,80V69.49a18.81,18.81,0,0,0-.18-3,.44.44,0,0,0-.21-.25A6,6,0,0,0,.47,66V64.8c1.17.06,2.51.09,4,.09,1.68,0,3.28,0,4.78-.09V66a6.65,6.65,0,0,0-1.93.25.53.53,0,0,0-.22.27A10,10,0,0,0,7,68.25V82.36c1.27.06,2.14.09,2.6.09a22.34,22.34,0,0,0,3.65-.27A1.51,1.51,0,0,0,14,82a1.2,1.2,0,0,0,.24-.51c.18-.7.36-1.49.54-2.4h1.13a2.79,2.79,0,0,1-.05.46l-.35,2.8c-.07.87-.12,1.4-.13,1.58a4.32,4.32,0,0,1-.8.14c-.56.05-1.43.07-2.61.07H5.53C4.6,84.09,3.23,84.11,1.38,84.17Z"/><path class="cls-3" d="M18.17,77.64a8.34,8.34,0,0,1,.81-3.9,5.12,5.12,0,0,1,2.41-2.32,8.46,8.46,0,0,1,3.74-.78A6.56,6.56,0,0,1,30,72.31a6.63,6.63,0,0,1,1.67,4.91,9.38,9.38,0,0,1-.49,3.24,5.81,5.81,0,0,1-3,3.47,8.11,8.11,0,0,1-3.46.72,6.33,6.33,0,0,1-4.83-1.78A7.28,7.28,0,0,1,18.17,77.64ZM22,77q0,3.69,1.08,5.26a2.36,2.36,0,0,0,2.05,1A2.24,2.24,0,0,0,27,82.47c.59-.71.89-2.07.89-4.08a16,16,0,0,0-.36-3.65,3.89,3.89,0,0,0-1-2.11,2.61,2.61,0,0,0-3.12-.16,2.88,2.88,0,0,0-1,1.47A10.18,10.18,0,0,0,22,77Z"/><path class="cls-3" d="M44.91,82.33l-.61,1.34a9.72,9.72,0,0,1-1.95.79,7.22,7.22,0,0,1-1.79.19,7,7,0,0,1-3.71-.88,5.57,5.57,0,0,1-2.16-2.54,7.3,7.3,0,0,1-.53-3.1,8.34,8.34,0,0,1,.28-2.38,5.24,5.24,0,0,1,.79-1.63,3.93,3.93,0,0,1,.93-.89l2.15-1.34a9.44,9.44,0,0,1,1.49-.83,4.9,4.9,0,0,1,1.74-.25,10.36,10.36,0,0,1,1.67.14,6.57,6.57,0,0,1,1.43.44l.14.23-.34,2.25c0,.2-.08.84-.14,1.9H43.21A17.78,17.78,0,0,0,43,74a2.22,2.22,0,0,0-.92-.77,3.7,3.7,0,0,0-1.54-.29,3.29,3.29,0,0,0-1.71.39,2.23,2.23,0,0,0-.94,1.29,7.5,7.5,0,0,0-.29,2.21A7.78,7.78,0,0,0,38.2,80a4,4,0,0,0,4.06,2.64A4.64,4.64,0,0,0,44.64,82Z"/><path class="cls-3" d="M59.32,83.08v1.09c-1-.06-2-.08-2.79-.08a20,20,0,0,0-2.22.08L54.19,84l.08-1.82c-.33.21-1.32.94-3,2.18a5.39,5.39,0,0,1-1.2.14,3.19,3.19,0,0,1-2.38-.88,3.52,3.52,0,0,1-.86-2.54,3.89,3.89,0,0,1,.39-1.84,3,3,0,0,1,.82-1,4.9,4.9,0,0,1,1.36-.66,29.68,29.68,0,0,1,4.83-1.21,3.8,3.8,0,0,0-.68-2.53,2.74,2.74,0,0,0-2.21-.87,4.36,4.36,0,0,0-1.14.16,2.26,2.26,0,0,0-.56.28l-.59,1.43-1-.21.09-1.8a20.9,20.9,0,0,1,2-1.21A10.7,10.7,0,0,1,51.49,71a5.86,5.86,0,0,1,1.45-.15,6.33,6.33,0,0,1,2.51.43,3.93,3.93,0,0,1,1.45,1,3.62,3.62,0,0,1,.64,1.27,7.58,7.58,0,0,1,.17,1.71c0,.3,0,1.06-.09,2.3v2a20.08,20.08,0,0,0,.13,3,.45.45,0,0,0,.22.33A5.12,5.12,0,0,0,59.32,83.08Zm-5-5.58a21,21,0,0,0-2.2.6,2.89,2.89,0,0,0-1.38.87,2.16,2.16,0,0,0-.38,1.31,1.87,1.87,0,0,0,.46,1.36,1.56,1.56,0,0,0,1.21.49,2.63,2.63,0,0,0,1.28-.36,2.91,2.91,0,0,0,1-.91Z"/><path class="cls-3" d="M68.79,83.08v1.09c-1.15-.06-2.35-.08-3.6-.08s-2.67,0-4.23.08V83.08A9.25,9.25,0,0,0,62.54,83a.62.62,0,0,0,.31-.16.56.56,0,0,0,.15-.32,20.81,20.81,0,0,0,.14-2.62V71.39c0-1.45,0-2.77-.09-4a3.73,3.73,0,0,0-.14-1.1.54.54,0,0,0-.15-.15,1.47,1.47,0,0,0-.53-.16A12.29,12.29,0,0,1,61,65.91V64.85c1.16-.12,2.08-.25,2.77-.39s1.61-.39,2.77-.75l.3.17-.13,2.8c0,1.57-.08,3.5-.09,5.78V79c0,1.65.06,2.65.08,3a2.11,2.11,0,0,0,.1.66.36.36,0,0,0,.14.16.94.94,0,0,0,.42.16C67.47,83,67.94,83,68.79,83.08Z"/><path class="cls-3" d="M97.3,70.4H96.21q0-.45-.06-1.32A6.68,6.68,0,0,0,96,68a4,4,0,0,0-.74-.68,7.39,7.39,0,0,0-2.08-1A9.57,9.57,0,0,0,90.52,66,7.38,7.38,0,0,0,85,68.2a8.18,8.18,0,0,0-2.08,5.93,9.41,9.41,0,0,0,2.18,6.55,6.91,6.91,0,0,0,5.36,2.43,7.77,7.77,0,0,0,1.8-.21A8,8,0,0,0,94,82.31,13.47,13.47,0,0,1,94,80.88a7,7,0,0,0,0-1.28,6.14,6.14,0,0,0-.12-1.6.48.48,0,0,0-.37-.23,17.75,17.75,0,0,0-2.62-.26v-1.1l4.15.08,4.17-.08v.91a1.87,1.87,0,0,0-1,.45,1.67,1.67,0,0,0-.15.76c-.07,1.06-.1,1.82-.1,2.28A17.58,17.58,0,0,0,98.09,83a33.37,33.37,0,0,1-4.48,1.33,18.93,18.93,0,0,1-3.83.39,13.65,13.65,0,0,1-5.5-1.06,9.91,9.91,0,0,1-2.86-1.92,8.79,8.79,0,0,1-1.81-2.54,11.13,11.13,0,0,1-1-4.68,10,10,0,0,1,.65-3.8,8.83,8.83,0,0,1,1.79-2.83,10,10,0,0,1,2.61-2,12,12,0,0,1,3.06-1.08,18.08,18.08,0,0,1,3.52-.32,20.79,20.79,0,0,1,4.38.43,15.8,15.8,0,0,1,3.17.93l.11.27A26.26,26.26,0,0,0,97.3,70.4Z"/><path class="cls-3" d="M102,77.66a8.3,8.3,0,0,1,.81-3.89,5.18,5.18,0,0,1,2.41-2.33,8.46,8.46,0,0,1,3.74-.78,6.64,6.64,0,0,1,4.87,1.67,6.71,6.71,0,0,1,1.67,4.92,9.56,9.56,0,0,1-.49,3.23,5.83,5.83,0,0,1-1.3,2.21A6,6,0,0,1,112,84a8.11,8.11,0,0,1-3.46.72,6.37,6.37,0,0,1-4.83-1.78A7.3,7.3,0,0,1,102,77.66Zm3.84-.68c0,2.46.36,4.22,1.08,5.26a2.33,2.33,0,0,0,2,1,2.25,2.25,0,0,0,1.81-.79c.59-.7.89-2.06.89-4.08a16,16,0,0,0-.36-3.64,4,4,0,0,0-1-2.12,2.46,2.46,0,0,0-1.66-.6,2.53,2.53,0,0,0-1.46.44,2.88,2.88,0,0,0-1,1.47,10.3,10.3,0,0,0-.29,3.08Z"/><path class="cls-3" d="M123.26,84.33c-.46-1.29-1-2.77-1.68-4.43l-1.82-4.64c-.16-.42-.47-1.14-.92-2.16a1.46,1.46,0,0,0-.46-.64,2.52,2.52,0,0,0-1.21-.23V71.14c1.31.06,2.59.09,3.85.09s2.34,0,3.48-.09v1.09a7.49,7.49,0,0,0-1.42.11.54.54,0,0,0-.27.14.36.36,0,0,0-.09.24V73l.54,1.67,1.09,2.88.52,1.35q.48,1.25.63,1.59l.88-2,.83-2a27.91,27.91,0,0,0,1.14-3,2.87,2.87,0,0,0,.13-.71.4.4,0,0,0-.2-.34,5.84,5.84,0,0,0-1.61-.17v-1.1c1,.06,1.86.09,2.69.09s1.76,0,2.86-.09v1.09a6.36,6.36,0,0,0-1.22.21.75.75,0,0,0-.33.33,24.33,24.33,0,0,0-1.2,2.53l-1.3,3-.55,1.22c-.24.54-.5,1.18-.78,1.91-.55,1.42-1,2.4-1.19,3Z"/><path class="cls-3" d="M145.65,82.06,145,83.42a9.13,9.13,0,0,1-2.34,1,7.93,7.93,0,0,1-2,.24,8.54,8.54,0,0,1-2.41-.32,5.49,5.49,0,0,1-1.78-.88,5.38,5.38,0,0,1-1.3-1.35,5.07,5.07,0,0,1-.81-1.86,9.8,9.8,0,0,1-.25-2.29,9.92,9.92,0,0,1,.49-3.24,3.48,3.48,0,0,1,.77-1.44,10.27,10.27,0,0,1,1.44-1,13.65,13.65,0,0,1,1.69-1,5.57,5.57,0,0,1,2.28-.43,5.38,5.38,0,0,1,3,.78,4.16,4.16,0,0,1,1.68,2,7.62,7.62,0,0,1,.49,2.91v.74c-.24.07-.59.16-1.06.25a11.47,11.47,0,0,1-1.29.19c-.69.06-1.62.09-2.76.11s-1.78,0-1.9,0a2.67,2.67,0,0,1-.4,0h-.92A5.11,5.11,0,0,0,139,81.31a4.19,4.19,0,0,0,3.09,1.28,6,6,0,0,0,1.47-.18,9.24,9.24,0,0,0,1.75-.73Zm-3.27-5.74a5,5,0,0,0-.6-3.06A2.14,2.14,0,0,0,140,72.4a2.21,2.21,0,0,0-1.82.91,4.72,4.72,0,0,0-.67,3,19.69,19.69,0,0,0,2.77.13,12.33,12.33,0,0,0,2.1-.12Z"/><path class="cls-3" d="M156,83.11V84.2q-1.56-.09-3.48-.09c-1.43,0-2.91,0-4.45.09V83.11a5,5,0,0,0,1.44-.15.51.51,0,0,0,.28-.24,2.44,2.44,0,0,0,.15-1L150,80.5v-3c0-.81,0-1.79-.09-3a3.74,3.74,0,0,0-.11-1,.46.46,0,0,0-.24-.17,7,7,0,0,0-1.52-.13v-1c1.66-.29,2.76-.5,3.28-.64a11.11,11.11,0,0,0,1.77-.67l.37.17v2.78a18.15,18.15,0,0,0,1.38-1.53,6.19,6.19,0,0,1,1.08-1.09,2.31,2.31,0,0,1,1.31-.33,4.88,4.88,0,0,1,.93.09l-.09,2a13.14,13.14,0,0,1-.09,1.84l-.58.18a2.24,2.24,0,0,0-.66-.64,2.27,2.27,0,0,0-2.53.21,2,2,0,0,0-.7,1c0,.2-.05,1-.05,2.34v1.38l.08,1.88a8.16,8.16,0,0,0,.08,1.31.6.6,0,0,0,.28.38,2.29,2.29,0,0,0,1,.2Z"/><path class="cls-3" d="M175.21,83.16v1q-1.86-.09-3-.09-1.35,0-2.34.09l-.25-.25c0-.2.07-1,.16-2.4l.06-2.27v-1a16.19,16.19,0,0,0-.19-3.19,2.16,2.16,0,0,0-.8-1.22,2.55,2.55,0,0,0-1.6-.47,2.86,2.86,0,0,0-1.66.46,2.17,2.17,0,0,0-.83.92,10.3,10.3,0,0,0,0,2.22v2.32c0,.68,0,1.5.09,2.48a2.29,2.29,0,0,0,.11.86.41.41,0,0,0,.17.22,2.47,2.47,0,0,0,.65.21l1.16.11V84.2c-1-.06-2.23-.09-3.68-.09q-2.5,0-3.9.09V83.11A4.39,4.39,0,0,0,160.8,83a.53.53,0,0,0,.29-.24,2.61,2.61,0,0,0,.14-1l.07-1.22v-3c0-.81,0-1.79-.09-3a3.38,3.38,0,0,0-.11-1,.46.46,0,0,0-.24-.17,7,7,0,0,0-1.52-.13v-1c1.66-.29,2.75-.5,3.27-.64a11,11,0,0,0,1.76-.67l.37.17v2.17l2.52-2a5,5,0,0,1,.78-.24,4.26,4.26,0,0,1,.87-.07,5.73,5.73,0,0,1,2.25.34,3.6,3.6,0,0,1,1.26.93,3.83,3.83,0,0,1,.73,1.27,7.15,7.15,0,0,1,.21,2.06c0,.67,0,1.33-.06,2a2.81,2.81,0,0,0,0,.41V79.3c0,1.56.07,2.53.11,2.9a1.13,1.13,0,0,0,.24.71,1.36,1.36,0,0,0,.81.2Z"/><path class="cls-3" d="M176.85,84.2V83.11A4.69,4.69,0,0,0,178.3,83a.51.51,0,0,0,.28-.24,2.82,2.82,0,0,0,.15-1l.06-1.22v-3c0-.81,0-1.79-.08-3a3.38,3.38,0,0,0-.12-1,.46.46,0,0,0-.24-.17,7,7,0,0,0-1.52-.13V72.14c1.66-.29,2.75-.5,3.27-.64a11,11,0,0,0,1.76-.67l.37.17v2.18l2.5-2a4.69,4.69,0,0,1,.75-.24,3.83,3.83,0,0,1,.83-.07,4.59,4.59,0,0,1,2.49.54,3.91,3.91,0,0,1,1.4,1.81l2.52-2a4.69,4.69,0,0,1,.75-.24,4,4,0,0,1,.84-.07,5.49,5.49,0,0,1,2.12.34,3.45,3.45,0,0,1,1.25.92,3.53,3.53,0,0,1,.71,1.25,7.48,7.48,0,0,1,.21,2,15.46,15.46,0,0,1-.06,2,2.67,2.67,0,0,0,0,.4v1.44a26.56,26.56,0,0,0,.08,2.82,1.31,1.31,0,0,0,.26.78,1.65,1.65,0,0,0,.84.2l.78.07V84.2c-1.27-.06-2.31-.09-3.13-.09a19.67,19.67,0,0,0-2.38.09l-.19-.27.16-2.49q.06-1.51.06-2.61v-1a12.8,12.8,0,0,0-.22-3.09,2,2,0,0,0-.73-1,2.18,2.18,0,0,0-1.29-.37,2.68,2.68,0,0,0-1.48.42,2.36,2.36,0,0,0-.78.79,3.85,3.85,0,0,0-.16,1.47v5.86a2.08,2.08,0,0,0,.1.7.55.55,0,0,0,.23.29,1.53,1.53,0,0,0,.52.13l1.11.14v1q-1.22-.09-3.51-.09-2.55,0-3.78.09V83.11c.17,0,.39-.06.65-.08a1.83,1.83,0,0,0,.73-.15.77.77,0,0,0,.25-.41,7,7,0,0,0,.09-1.45l.09-2.45v-2a7.92,7.92,0,0,0-.17-2,1.92,1.92,0,0,0-.7-1,2.24,2.24,0,0,0-1.35-.39,2.44,2.44,0,0,0-1.54.47,3.22,3.22,0,0,0-.9.94v4.59a24.77,24.77,0,0,0,.09,2.87,1.24,1.24,0,0,0,.13.66.68.68,0,0,0,.38.21,10.72,10.72,0,0,0,1.27.14V84.2c-1-.06-2.17-.09-3.56-.09S177.77,84.14,176.85,84.2Z"/><path class="cls-3" d="M214.24,82.06l-.61,1.36a9.06,9.06,0,0,1-2.33,1,7.93,7.93,0,0,1-2,.24,8.54,8.54,0,0,1-2.41-.32,5.62,5.62,0,0,1-3.09-2.23,5.52,5.52,0,0,1-.81-1.86,9.79,9.79,0,0,1-.24-2.29,10.18,10.18,0,0,1,.48-3.24A3.52,3.52,0,0,1,204,73.3a10.27,10.27,0,0,1,1.44-1,14.3,14.3,0,0,1,1.68-1,5.82,5.82,0,0,1,2.29-.43,5.54,5.54,0,0,1,3,.78,4.21,4.21,0,0,1,1.68,2,7.62,7.62,0,0,1,.49,2.91v.74a9.6,9.6,0,0,1-1.06.25,11,11,0,0,1-1.28.19c-.7.06-1.62.09-2.76.11s-1.78,0-1.9,0a2.81,2.81,0,0,1-.41,0h-.92a5.08,5.08,0,0,0,1.37,3.47,4.14,4.14,0,0,0,3.09,1.28,6,6,0,0,0,1.46-.18,9.33,9.33,0,0,0,1.76-.73ZM211,76.32a5.09,5.09,0,0,0-.61-3.06,2.14,2.14,0,0,0-1.74-.86,2.19,2.19,0,0,0-1.81.91,4.64,4.64,0,0,0-.67,3,19.62,19.62,0,0,0,2.76.13A14.37,14.37,0,0,0,211,76.32Z"/><path class="cls-3" d="M232.55,83.16v1c-1.23-.06-2.24-.09-3-.09a19.75,19.75,0,0,0-2.35.09l-.24-.25c0-.2.07-1,.15-2.4l.06-2.27v-1A16.22,16.22,0,0,0,227,75a2.27,2.27,0,0,0-.79-1.22,2.58,2.58,0,0,0-1.61-.47,2.86,2.86,0,0,0-1.66.46,2.17,2.17,0,0,0-.83.92,11.76,11.76,0,0,0,0,2.22v2.32c0,.68,0,1.5.09,2.48a2.51,2.51,0,0,0,.11.86.43.43,0,0,0,.18.22,2.4,2.4,0,0,0,.64.21l1.16.11V84.2c-1-.06-2.23-.09-3.67-.09-1.68,0-3,0-3.91.09V83.11a4.71,4.71,0,0,0,1.45-.15.51.51,0,0,0,.28-.24,2.44,2.44,0,0,0,.15-1l.06-1.22v-3c0-.81,0-1.79-.08-3a3.38,3.38,0,0,0-.12-1,.48.48,0,0,0-.23-.17,7.14,7.14,0,0,0-1.53-.13v-1c1.66-.29,2.75-.5,3.27-.64a10.12,10.12,0,0,0,1.76-.67l.37.17v2.17l2.53-2a5.28,5.28,0,0,1,.77-.24,3.69,3.69,0,0,1,.88-.07,5.71,5.71,0,0,1,2.24.34,3.42,3.42,0,0,1,1.26.93,3.66,3.66,0,0,1,.73,1.27,7.15,7.15,0,0,1,.21,2.06c0,.67,0,1.33-.06,2a2.81,2.81,0,0,0,0,.41V79.3c0,1.56.06,2.53.1,2.9a1,1,0,0,0,.25.71,1.33,1.33,0,0,0,.8.2Z"/><path class="cls-3" d="M234,73.66V73l1.25-.79c.2-.13.39-.27.58-.42V70c0-.66,0-1.48-.09-2.45l1.73-.59,1.74-.82.36.28-.13,1.43-.1,1.59-.12,2.41h.46a20.27,20.27,0,0,0,2.81-.14l-.24,1.89H239.2v4.62a17.5,17.5,0,0,0,.09,2.51,1.46,1.46,0,0,0,.46,1,1.71,1.71,0,0,0,1.17.37,4.57,4.57,0,0,0,.74,0,3.58,3.58,0,0,0,.72-.14l.22.57-.5.5L241,84.11a4.2,4.2,0,0,1-1.87.39,3.65,3.65,0,0,1-2.54-.82,2.66,2.66,0,0,1-.93-2.06l.09-4.58V73.62h-.38C234.93,73.62,234.44,73.64,234,73.66Z"/><path class="cls-3" d="M244.47,79.84h1.09a14.93,14.93,0,0,0,.13,2A4.19,4.19,0,0,0,247.07,83a3.94,3.94,0,0,0,1.72.36,2.9,2.9,0,0,0,2-.62,2,2,0,0,0,.7-1.51,1.82,1.82,0,0,0-.23-1,2,2,0,0,0-.92-.7,20.74,20.74,0,0,0-2.06-.53,9.86,9.86,0,0,1-2.31-.73A3,3,0,0,1,244.73,77a3.86,3.86,0,0,1-.44-1.86A4,4,0,0,1,245.73,72a6.1,6.1,0,0,1,4.13-1.26,10.34,10.34,0,0,1,2,.19,6.86,6.86,0,0,1,1.7.59v.14a9.71,9.71,0,0,0-.13,1c0,.36-.07,1.11-.13,2.34h-1v-.52a9.87,9.87,0,0,0-.16-1.2,2.6,2.6,0,0,0-1-.83,3.4,3.4,0,0,0-1.44-.28,2.64,2.64,0,0,0-1.78.53,1.62,1.62,0,0,0-.63,1.25,1.75,1.75,0,0,0,.21,1,1.71,1.71,0,0,0,.85.54,20.87,20.87,0,0,0,2.08.47,15.28,15.28,0,0,1,2,.47,3.76,3.76,0,0,1,1.21.74,2.89,2.89,0,0,1,.69,1.1,4.15,4.15,0,0,1,.24,1.44,4.45,4.45,0,0,1-1.6,3.48,6.61,6.61,0,0,1-4.49,1.41,10.89,10.89,0,0,1-1.89-.17,17.13,17.13,0,0,1-2.23-.62l-.15-.21c.07-.71.12-1.21.14-1.51Z"/><path class="cls-3" d="M263.29,84.18v-1a5.55,5.55,0,0,0,1.89-.31.63.63,0,0,0,.27-.55c.07-.48.13-2,.19-4.52V73.61h-.39l-1.88.09V73c1.23-.64,1.87-1,1.91-1a.4.4,0,0,0,.18-.33c0-.43,0-1,.06-1.61a7.81,7.81,0,0,1,.19-1.36,2.69,2.69,0,0,1,.4-.77,17.17,17.17,0,0,1,2-2l1.67-1.49a3.1,3.1,0,0,1,.93-.54,3.2,3.2,0,0,1,1.19-.2,7.09,7.09,0,0,1,1.45.17,18.58,18.58,0,0,0-.17,2.79l-.56.25a2.35,2.35,0,0,0-.77-.51,2.64,2.64,0,0,0-.92-.14,2.35,2.35,0,0,0-1.27.31,1,1,0,0,0-.45.59,13.43,13.43,0,0,0-.17,2.76v1.92h1.64a18.28,18.28,0,0,0,2.06-.07l.18.14a3.57,3.57,0,0,0-.11.47l-.22,1.22H269v7.23a8.88,8.88,0,0,0,.12,1.63.69.69,0,0,0,.21.32,1,1,0,0,0,.48.18l1.88.15v1L267,84C266.49,84.1,265.22,84.13,263.29,84.18Z"/><path class="cls-3" d="M274.71,77.65a8.34,8.34,0,0,1,.81-3.9,5.12,5.12,0,0,1,2.41-2.32,8.46,8.46,0,0,1,3.74-.78,5.86,5.86,0,0,1,6.54,6.58,9.88,9.88,0,0,1-.49,3.24,5.82,5.82,0,0,1-3,3.47,8.11,8.11,0,0,1-3.46.72,6.36,6.36,0,0,1-4.83-1.77A7.36,7.36,0,0,1,274.71,77.65Zm3.83-.68q0,3.69,1.09,5.26a2.36,2.36,0,0,0,2.05,1,2.25,2.25,0,0,0,1.81-.79c.59-.7.89-2.07.89-4.08a16,16,0,0,0-.36-3.65,4,4,0,0,0-1-2.11,2.62,2.62,0,0,0-3.12-.16,2.88,2.88,0,0,0-1,1.47,10.06,10.06,0,0,0-.36,3.09Z"/><path class="cls-3" d="M298.32,83.1v1.08c-1-.05-2.2-.08-3.48-.08s-2.91,0-4.45.08V83.1a4.12,4.12,0,0,0,1.44-.16.51.51,0,0,0,.29-.23,2.61,2.61,0,0,0,.14-1l.07-1.22v-3c0-.81,0-1.8-.09-3a3.38,3.38,0,0,0-.11-1,.46.46,0,0,0-.24-.17,7.75,7.75,0,0,0-1.52-.14v-1c1.67-.29,2.76-.5,3.28-.64a10.22,10.22,0,0,0,1.77-.67l.38.17v2.78q.9-.93,1.38-1.53a6.19,6.19,0,0,1,1.08-1.09,2.31,2.31,0,0,1,1.31-.33,4.88,4.88,0,0,1,.93.09l-.09,2a16.15,16.15,0,0,1-.08,1.83l-.59.18a2.51,2.51,0,0,0-.66-.64A2.26,2.26,0,0,0,298,74a2.08,2.08,0,0,0-1.41.51,2,2,0,0,0-.7,1v3.72l.09,1.88a7.15,7.15,0,0,0,.07,1.31.62.62,0,0,0,.29.38,2.21,2.21,0,0,0,1,.19Z"/><path class="cls-3" d="M322.56,69.94h-1.22a17.43,17.43,0,0,0-.13-2.28,3.45,3.45,0,0,0-1.48-1.08,5.43,5.43,0,0,0-2.35-.47,4,4,0,0,0-2.89,1,2.94,2.94,0,0,0-1,2.22,3.49,3.49,0,0,0,.3,1.49,2.12,2.12,0,0,0,.83.9,6.53,6.53,0,0,0,1.59.61l2.24.42c.95.16,1.57.28,1.86.34a7.38,7.38,0,0,1,1.81.7,4,4,0,0,1,1.1.94,4.87,4.87,0,0,1,.67,1.35,5.89,5.89,0,0,1,.26,1.82,6.43,6.43,0,0,1-.75,3.1,6.7,6.7,0,0,1-1.54,1.85,7.55,7.55,0,0,1-2,1.25,10.92,10.92,0,0,1-4,.67,13.13,13.13,0,0,1-3-.32,14.48,14.48,0,0,1-2.92-1.1,20.47,20.47,0,0,0,.43-4.81h1.22A16.88,16.88,0,0,0,311.7,81a4.36,4.36,0,0,0,1.8,1.52,5.94,5.94,0,0,0,2.77.65,5.73,5.73,0,0,0,2.34-.47,3.1,3.1,0,0,0,1.49-1.28,3.67,3.67,0,0,0,.46-1.86,3.38,3.38,0,0,0-.32-1.5,2.53,2.53,0,0,0-1-1,10.52,10.52,0,0,0-2.44-.78c-1.67-.35-2.77-.61-3.3-.76a5,5,0,0,1-1.92-1,4.41,4.41,0,0,1-1.09-1.64,5.91,5.91,0,0,1-.36-2.08,6.32,6.32,0,0,1,.66-2.86,5.25,5.25,0,0,1,1.71-2,7.08,7.08,0,0,1,2.41-1,12.23,12.23,0,0,1,2.76-.31,16,16,0,0,1,2.85.26,9.51,9.51,0,0,1,2.39.76L323,66a13.21,13.21,0,0,0-.3,1.76A19,19,0,0,0,322.56,69.94Z"/><path class="cls-3" d="M326.6,73.2V72.11a15,15,0,0,0,2.41-.32,27.5,27.5,0,0,0,3.1-.9l.19.16q-.21,2.74-.21,5.07v1.55a23.47,23.47,0,0,0,.09,2.65,2.1,2.1,0,0,0,.66,1.32,2,2,0,0,0,1.38.44,2.58,2.58,0,0,0,1.65-.52,3.32,3.32,0,0,0,.93-1.08A4.38,4.38,0,0,0,337,79V76.64l-.08-2a3,3,0,0,0-.13-1.14.45.45,0,0,0-.27-.2,15.32,15.32,0,0,0-1.65-.15v-1q2.13-.27,2.91-.45c.51-.11,1.39-.36,2.62-.77l.26.16-.13,2.55c-.06,1.81-.09,2.82-.09,3v2.84a20.44,20.44,0,0,0,.13,3.13.47.47,0,0,0,.21.35,6.17,6.17,0,0,0,1.71.21v1.09l-2.86-.09-2.62.09-.09-.11L337,83V82c-.36.29-.67.56-.94.8l-1.55,1.49a5.44,5.44,0,0,1-1.92.35,4,4,0,0,1-2.93-1,3.63,3.63,0,0,1-1.06-2.72c0-.14,0-.65.07-1.54V74.62a2.8,2.8,0,0,0-.1-1,.74.74,0,0,0-.34-.29A8,8,0,0,0,326.6,73.2Z"/><path class="cls-3" d="M344.83,79.9h1.09c.05,1,.09,1.69.14,1.95A4.11,4.11,0,0,0,347.43,83a3.94,3.94,0,0,0,1.72.36,2.9,2.9,0,0,0,2-.62,2,2,0,0,0,.69-1.51,1.82,1.82,0,0,0-.23-1,2,2,0,0,0-.91-.7c-.36-.13-1.05-.3-2.07-.53a9.78,9.78,0,0,1-2.3-.73,2.72,2.72,0,0,1-1.23-1.19,3.65,3.65,0,0,1-.44-1.86,4.06,4.06,0,0,1,1.43-3.17,6.1,6.1,0,0,1,4.13-1.26,10.19,10.19,0,0,1,2.06.19,6.65,6.65,0,0,1,1.69.59v.14a8.28,8.28,0,0,0-.13,1c0,.33-.08,1.11-.13,2.33h-1.09v-.51a8.2,8.2,0,0,0-.17-1.21,2.6,2.6,0,0,0-1-.83A3.45,3.45,0,0,0,350,72.2a2.74,2.74,0,0,0-1.79.53,1.59,1.59,0,0,0-.63,1.26,1.47,1.47,0,0,0,1.14,1.64,20.87,20.87,0,0,0,2.08.47,17.08,17.08,0,0,1,2,.47,3.44,3.44,0,0,1,1.21.74,2.89,2.89,0,0,1,.69,1.1,4.15,4.15,0,0,1,.24,1.44,4.45,4.45,0,0,1-1.6,3.48,6.56,6.56,0,0,1-4.49,1.41,10.77,10.77,0,0,1-1.88-.17,17.13,17.13,0,0,1-2.23-.62l-.16-.2c.08-.72.12-1.22.14-1.52Z"/><path class="cls-3" d="M356.81,73.72V73.1l1.24-.79a6.13,6.13,0,0,0,.58-.42V70.05c0-.66,0-1.48-.08-2.45l1.73-.59,1.74-.82.36.28-.14,1.43-.09,1.59L362,71.9h.46a20.13,20.13,0,0,0,2.8-.14L365,73.65h-3v4.62a17.7,17.7,0,0,0,.09,2.52,1.5,1.5,0,0,0,.45,1,1.66,1.66,0,0,0,1.17.37,4.7,4.7,0,0,0,.75,0l.72-.13.21.56-.5.5-1.07,1.1a5,5,0,0,1-1,.31,5.1,5.1,0,0,1-.87.07,3.72,3.72,0,0,1-2.54-.82,2.67,2.67,0,0,1-.92-2.06l.08-4.57V73.68h-.37C357.75,73.68,357.27,73.7,356.81,73.72Z"/><path class="cls-3" d="M379.35,83.17v1.09q-1.58-.09-2.79-.09t-2.22.09l-.12-.16.08-1.82c-.33.21-1.32.94-3,2.19a5.39,5.39,0,0,1-1.2.14,3.14,3.14,0,0,1-2.38-.89,3.52,3.52,0,0,1-.86-2.54,3.87,3.87,0,0,1,.39-1.83,3.29,3.29,0,0,1,.82-1.06,5.32,5.32,0,0,1,1.36-.65,29.71,29.71,0,0,1,4.83-1.22,3.8,3.8,0,0,0-.68-2.53,2.74,2.74,0,0,0-2.21-.86,4.35,4.35,0,0,0-1.14.15,2.29,2.29,0,0,0-.56.29l-.59,1.43-.95-.21.08-1.8a19,19,0,0,1,2-1.21,7.89,7.89,0,0,1,1.31-.63,5.42,5.42,0,0,1,1.45-.16,6.16,6.16,0,0,1,2.51.44,3.74,3.74,0,0,1,1.45,1,3.39,3.39,0,0,1,.64,1.27,7.58,7.58,0,0,1,.17,1.71c0,.29,0,1.06-.09,2.3v2a20.08,20.08,0,0,0,.13,3A.48.48,0,0,0,378,83,6.16,6.16,0,0,0,379.35,83.17Zm-5.05-5.59a16.66,16.66,0,0,0-2.2.61,2.8,2.8,0,0,0-1.38.87,2.15,2.15,0,0,0-.38,1.3,1.91,1.91,0,0,0,.46,1.37,1.62,1.62,0,0,0,1.21.48,2.63,2.63,0,0,0,1.28-.36,2.82,2.82,0,0,0,1-.91Z"/><path class="cls-3" d="M381.16,84.26V83.17a6.63,6.63,0,0,0,1.77-.24.64.64,0,0,0,.28-.49,31.54,31.54,0,0,0,.13-3.89q0-4.29-.09-4.89a.47.47,0,0,0-.18-.35,5.37,5.37,0,0,0-1.91-.2V72a28.51,28.51,0,0,0,3.17-.47,15.81,15.81,0,0,0,2.33-.75L387,71a39.25,39.25,0,0,0-.22,4v4.71a19.41,19.41,0,0,0,.11,2.85.45.45,0,0,0,.22.33,6.06,6.06,0,0,0,1.8.24v1.09c-1.3-.06-2.72-.09-4.25-.09C383.34,84.17,382.17,84.2,381.16,84.26Zm3.77-20a2.1,2.1,0,1,1-1.5.62,2,2,0,0,1,1.5-.65Z"/><path class="cls-3" d="M406.63,83.22v1q-1.86-.09-3-.09-1.35,0-2.34.09L401,84c0-.2.07-1,.16-2.4l.06-2.27V78.25a16.13,16.13,0,0,0-.19-3.18,2.22,2.22,0,0,0-.8-1.23,2.55,2.55,0,0,0-1.6-.47,2.86,2.86,0,0,0-1.66.46,2,2,0,0,0-.83.92,10.3,10.3,0,0,0,0,2.22v2.32c0,.68,0,1.5.08,2.48a2.78,2.78,0,0,0,.11.86.55.55,0,0,0,.18.22,1.84,1.84,0,0,0,.65.21l1.15.11v1.09c-1-.06-2.22-.09-3.67-.09-1.67,0-3,0-3.9.09V83.17a4.68,4.68,0,0,0,1.44-.15.49.49,0,0,0,.28-.23,2.62,2.62,0,0,0,.15-1l.07-1.22v-3c0-.81,0-1.79-.09-3a4.2,4.2,0,0,0-.11-1,.37.37,0,0,0-.24-.17,6,6,0,0,0-1.52-.14v-1c1.66-.29,2.75-.5,3.26-.64a11.11,11.11,0,0,0,1.77-.67l.37.17v2.17l2.52-2a5,5,0,0,1,.78-.24,5.1,5.1,0,0,1,.87-.07,5.71,5.71,0,0,1,2.24.34,3.54,3.54,0,0,1,1.27.93,3.8,3.8,0,0,1,.72,1.27,7.15,7.15,0,0,1,.21,2.06,17.48,17.48,0,0,1-.05,2,2.81,2.81,0,0,0,0,.41v1.43a26.77,26.77,0,0,0,.11,2.9A1.13,1.13,0,0,0,405,83a1.45,1.45,0,0,0,.81.21A5.05,5.05,0,0,1,406.63,83.22Z"/><path class="cls-3" d="M420.94,83.17v1.09q-1.57-.09-2.79-.09a18.15,18.15,0,0,0-2.23.09l-.12-.16.09-1.82c-.34.21-1.32.94-3,2.19a5.39,5.39,0,0,1-1.2.14,3.14,3.14,0,0,1-2.38-.89,3.52,3.52,0,0,1-.86-2.54,4,4,0,0,1,.38-1.83,3.18,3.18,0,0,1,.83-1.06,5,5,0,0,1,1.36-.65,29.71,29.71,0,0,1,4.83-1.22,3.74,3.74,0,0,0-.69-2.53A2.72,2.72,0,0,0,413,73a4.43,4.43,0,0,0-1.15.15,2.29,2.29,0,0,0-.56.29l-.58,1.43-1-.21.08-1.8a20.12,20.12,0,0,1,2-1.21A7.53,7.53,0,0,1,413.1,71a5.42,5.42,0,0,1,1.45-.16,6.12,6.12,0,0,1,2.5.44,3.57,3.57,0,0,1,1.45,1,3.39,3.39,0,0,1,.64,1.27,7,7,0,0,1,.18,1.71c0,.29,0,1.06-.09,2.3v2a17.68,17.68,0,0,0,.13,3,.47.47,0,0,0,.22.34A6.27,6.27,0,0,0,420.94,83.17Zm-5.05-5.59a16.66,16.66,0,0,0-2.2.61,2.73,2.73,0,0,0-1.38.87,2.09,2.09,0,0,0-.38,1.3,1.91,1.91,0,0,0,.46,1.37,1.58,1.58,0,0,0,1.21.48,2.63,2.63,0,0,0,1.28-.36,2.91,2.91,0,0,0,1-.91Z"/><path class="cls-3" d="M422.27,66.11v-1a19.55,19.55,0,0,0,5.33-1.21.87.87,0,0,1,.37.19c-.08,3.82-.13,6-.13,6.64v2.6l1.68-1.39a4.94,4.94,0,0,1,1.34-.81,4.41,4.41,0,0,1,1.53-.23,5.1,5.1,0,0,1,3.81,1.47,5.38,5.38,0,0,1,1.44,4,8.23,8.23,0,0,1-.53,2.9,6.36,6.36,0,0,1-1.41,2.3c-.08.08-.76.56-2,1.44s-2,1.35-2.12,1.43a5.23,5.23,0,0,1-2.07.36,5.42,5.42,0,0,1-1.65-.26,8.62,8.62,0,0,1-1.81-.87l-1.21,1-.63-.24c.17-2.81.26-6.18.26-10.09s-.06-6.36-.19-7.34a1,1,0,0,0-.24-.63A5.58,5.58,0,0,0,422.27,66.11Zm5.57,8.67v6.48A3.49,3.49,0,0,0,429,82.33a3.6,3.6,0,0,0,1.76.45,3,3,0,0,0,1.76-.54,3.51,3.51,0,0,0,1.18-1.74,8.06,8.06,0,0,0,.42-2.67,5,5,0,0,0-1-3.31,3.14,3.14,0,0,0-2.47-1.15,3.22,3.22,0,0,0-1.66.44A3.26,3.26,0,0,0,427.84,74.78Z"/><path class="cls-3" d="M440.28,84.26V83.17a6.63,6.63,0,0,0,1.77-.24.64.64,0,0,0,.28-.49,31.54,31.54,0,0,0,.13-3.89q0-4.29-.09-4.89a.47.47,0,0,0-.18-.35,5.37,5.37,0,0,0-1.91-.2V72a28.51,28.51,0,0,0,3.17-.47,15.81,15.81,0,0,0,2.33-.75l.34.18a38.91,38.91,0,0,0-.22,4v4.71a20,20,0,0,0,.1,2.89.45.45,0,0,0,.22.33,6.06,6.06,0,0,0,1.8.24v1.09c-1.3-.06-2.72-.09-4.25-.09C442.46,84.17,441.29,84.2,440.28,84.26Zm3.77-20a2.1,2.1,0,1,1-1.5.62,2,2,0,0,1,1.5-.65Z"/><path class="cls-3" d="M457.61,83.17v1.09c-1.16-.06-2.36-.09-3.61-.09s-2.66,0-4.23.09V83.17a11.87,11.87,0,0,0,1.58-.11.71.71,0,0,0,.31-.16.67.67,0,0,0,.15-.33A22.05,22.05,0,0,0,452,80V71.48c0-1.46,0-2.78-.09-4a3.8,3.8,0,0,0-.14-1.11.34.34,0,0,0-.15-.14,1.21,1.21,0,0,0-.53-.16,12.15,12.15,0,0,1-1.26-.07V64.93q1.73-.18,2.76-.39c.68-.14,1.61-.39,2.77-.74l.3.17-.13,2.79c0,1.57-.08,3.5-.09,5.78v6.55c0,1.65.06,2.65.08,3a2.11,2.11,0,0,0,.1.66.39.39,0,0,0,.14.17,1.06,1.06,0,0,0,.42.15C456.29,83.09,456.75,83.12,457.61,83.17Z"/><path class="cls-3" d="M459.61,84.26V83.17a6.63,6.63,0,0,0,1.77-.24.63.63,0,0,0,.27-.49,31.54,31.54,0,0,0,.13-3.89c0-2.86,0-4.49-.08-4.89a.49.49,0,0,0-.19-.35,5.31,5.31,0,0,0-1.9-.2V72a28,28,0,0,0,3.16-.47,15.94,15.94,0,0,0,2.34-.75l.33.18c-.14,1.44-.22,2.79-.22,4.05v4.71a19.41,19.41,0,0,0,.11,2.85.45.45,0,0,0,.22.33,6.17,6.17,0,0,0,1.81.24v1.09q-2-.09-4.26-.09C461.78,84.17,460.62,84.2,459.61,84.26Zm3.76-20a2.1,2.1,0,1,1-1.5.62,2,2,0,0,1,1.5-.65Z"/><path class="cls-3" d="M469,73.72V73.1l1.25-.79a6.13,6.13,0,0,0,.58-.42V70.05c0-.66,0-1.48-.08-2.45.88-.3,1.46-.49,1.72-.59l1.75-.82.36.28-.14,1.43-.09,1.59-.12,2.41h.46a20.13,20.13,0,0,0,2.8-.14l-.24,1.89h-3v4.62a19.29,19.29,0,0,0,.08,2.52,1.46,1.46,0,0,0,.46,1,1.66,1.66,0,0,0,1.17.37,4.7,4.7,0,0,0,.75,0l.71-.13.22.56-.5.5L476,84.18a5.79,5.79,0,0,1-1,.31,5.1,5.1,0,0,1-.87.07,3.7,3.7,0,0,1-2.54-.82,2.62,2.62,0,0,1-.92-2.06l.08-4.57V73.68h-.37C469.91,73.68,469.42,73.7,469,73.72Z"/><path class="cls-3" d="M478.89,91.31c.16-.67.26-1.14.31-1.41l.21-1.4.36-.07a3.7,3.7,0,0,0,.78.64,2.9,2.9,0,0,0,1.16.24,2,2,0,0,0,1.32-.5,6,6,0,0,0,1.35-2.16l.56-1.33-4.49-11.53a2.91,2.91,0,0,0-.76-1.27,2.59,2.59,0,0,0-1.37-.23V71.2c.9.06,2,.09,3.32.09q2.33,0,4.14-.09v1.09h-.32a2.31,2.31,0,0,0-1.19.19.41.41,0,0,0-.21.36,1.92,1.92,0,0,0,.14.62l.68,1.87,2,5.28,1.22-2.87a26.33,26.33,0,0,0,1.78-4.95.29.29,0,0,0-.07-.22.61.61,0,0,0-.34-.17,7.39,7.39,0,0,0-1.33-.11V71.2q.89.09,2.22.09c1.09,0,2.1,0,3.05-.09v1.09h-.23a1.42,1.42,0,0,0-.7.14.83.83,0,0,0-.37.27,13.74,13.74,0,0,0-.78,1.53c-.54,1.17-1,2.13-1.31,2.89-1,2.35-1.69,3.85-2,4.52l-2.23,5.45a9.74,9.74,0,0,1-2.17,3.54,4,4,0,0,1-2.79,1.07,6.63,6.63,0,0,1-1-.08A6.09,6.09,0,0,1,478.89,91.31Z"/><rect class="cls-4" x="316.02" y="17.2" width="43.33" height="19.33"/><polygon class="cls-5" points="349.86 29.7 352.62 29.7 351.23 25.18 349.86 29.7"/><path class="cls-5" d="M338.17,2.57a25.48,25.48,0,1,0,25.48,25.48A25.48,25.48,0,0,0,338.17,2.57Zm-7.74,26.84a6.58,6.58,0,0,1-.35,2.11A4.48,4.48,0,0,1,329,33.25a4.4,4.4,0,0,1-1.55,1,7.91,7.91,0,0,1-2.73.42,16.65,16.65,0,0,1-2-.13,5,5,0,0,1-1.81-.51,4.37,4.37,0,0,1-1.35-1,3.89,3.89,0,0,1-.83-1.45,7.73,7.73,0,0,1-.36-2.13v-7.5h3.88v7.67a2.22,2.22,0,0,0,.57,1.61,2.17,2.17,0,0,0,1.59.58,2.11,2.11,0,0,0,1.57-.57,2.19,2.19,0,0,0,.57-1.62V21.92h3.88Zm12.64,3.22a4.22,4.22,0,0,1-1.87,1.55,7.49,7.49,0,0,1-3,.53c-2.14,0-3.62-.41-4.45-1.23a4.92,4.92,0,0,1-1.39-3.15L336,30.1a2.87,2.87,0,0,0,.49,1.38,2.11,2.11,0,0,0,1.72.76,1.91,1.91,0,0,0,1.28-.39,1.12,1.12,0,0,0,0-1.78,4.84,4.84,0,0,0-2-.73,8.35,8.35,0,0,1-3.64-1.53,3,3,0,0,1-1.1-2.43,3.4,3.4,0,0,1,.56-1.83A3.67,3.67,0,0,1,335,22.2a8,8,0,0,1,3.09-.5,6.35,6.35,0,0,1,3.68.9,3.92,3.92,0,0,1,1.51,2.85l-3.67.22A1.71,1.71,0,0,0,337.85,24h-.12a1.55,1.55,0,0,0-1,.29.89.89,0,0,0-.35.7.72.72,0,0,0,.29.54A3.16,3.16,0,0,0,338,26a15.55,15.55,0,0,1,3.65,1.11,3.8,3.8,0,0,1,1.61,1.39,3.58,3.58,0,0,1,.5,1.86,4.07,4.07,0,0,1-.69,2.27Zm11,1.87-.63-2.08H349l-.61,2.08h-4l4.73-12.58h4.24l4.73,12.58Z"/></svg>