<svg xmlns="http://www.w3.org/2000/svg" viewBox="0 0 277.58 240.81"><defs><style>.cls-1{fill:#00646c;}.cls-2{fill:#fff;}.cls-3{fill:#9fdde4;}.cls-4{fill:#ffe144;}.cls-5{fill:#afd778;}.cls-6{fill:#93cd70;}</style></defs><g id="Layer_2" data-name="Layer 2"><g id="Layer_1-2" data-name="Layer 1"><g id="Layer_2-2" data-name="Layer 2"><g id="Layer_1-2-2" data-name="Layer 1-2"><rect class="cls-1" x="71.13" y="206.42" width="61.91" height="34.39"/><path class="cls-1" d="M73.07,167.69V152.11h2.75v13.23h6.43v2.42Z"/><path class="cls-1" d="M95.11,161.74a6.34,6.34,0,0,1-1.53,4.57,5.29,5.29,0,0,1-4.08,1.6,5.72,5.72,0,0,1-2.86-.73,4.92,4.92,0,0,1-2-2.09,7.45,7.45,0,0,1-.7-3.35,6.29,6.29,0,0,1,1.5-4.51,5.29,5.29,0,0,1,4.09-1.63,5.53,5.53,0,0,1,2.87.73,4.85,4.85,0,0,1,2,2.06A7,7,0,0,1,95.11,161.74Zm-8.35,0a5.39,5.39,0,0,0,.66,2.92,2.69,2.69,0,0,0,3.78.43h0a2.55,2.55,0,0,0,.44-.43,5.23,5.23,0,0,0,.68-2.92,4.94,4.94,0,0,0-.68-2.86,2.73,2.73,0,0,0-3.82-.43,2.91,2.91,0,0,0-.43.43A5.38,5.38,0,0,0,86.76,161.74Z"/><path class="cls-1" d="M102.63,167.91a5.31,5.31,0,0,1-3.95-1.46,6.33,6.33,0,0,1-1.46-4.61,7.44,7.44,0,0,1,.7-3.54,4.82,4.82,0,0,1,2-2,6.3,6.3,0,0,1,2.92-.65,7.71,7.71,0,0,1,3.44.75l-.8,2.16-1.36-.44a5.08,5.08,0,0,0-1.28-.19c-1.9,0-2.84,1.31-2.84,3.91a4.72,4.72,0,0,0,.72,2.86,2.46,2.46,0,0,0,2.09,1,6.28,6.28,0,0,0,1.73-.24,7.42,7.42,0,0,0,1.43-.66v2.43a5.81,5.81,0,0,1-1.43.61A8.71,8.71,0,0,1,102.63,167.91Z"/><path class="cls-1" d="M113.36,155.6a5.11,5.11,0,0,1,3.44,1,3.82,3.82,0,0,1,1.17,3.1v7.94h-1.92l-.53-1.63h0a5,5,0,0,1-1.6,1.41,4.82,4.82,0,0,1-2.28.44,3.74,3.74,0,0,1-2.6-.9,3.36,3.36,0,0,1-1-2.77,3.1,3.1,0,0,1,1.33-2.74,7.47,7.47,0,0,1,4-1h2v-.61a2,2,0,0,0-.53-1.6,2.28,2.28,0,0,0-1.51-.49,5.72,5.72,0,0,0-1.69.25,13.1,13.1,0,0,0-1.61.63l-.92-2a9.39,9.39,0,0,1,4.25-1Zm1.92,6.48h-1.44a4.2,4.2,0,0,0-2.42.6,1.87,1.87,0,0,0-.68,1.51,1.39,1.39,0,0,0,.48,1.21,2.12,2.12,0,0,0,1.29.37,3,3,0,0,0,1.94-.73,2.45,2.45,0,0,0,.83-2Z"/><path class="cls-1" d="M124.09,167.69h-2.72v-16.6h2.72Z"/><path class="cls-1" d="M139.53,159.12h6v7.94a16.88,16.88,0,0,1-2.42.63,18,18,0,0,1-2.94.22,6.85,6.85,0,0,1-5.36-2.09,8.69,8.69,0,0,1-1.87-5.95,9.4,9.4,0,0,1,.92-4.24,6.71,6.71,0,0,1,2.53-2.7,9,9,0,0,1,4.34-1,11.65,11.65,0,0,1,2.43.25,14.27,14.27,0,0,1,2.13.68l-.94,2.3a10.78,10.78,0,0,0-1.73-.61,7.09,7.09,0,0,0-2-.26,4.84,4.84,0,0,0-2.72.7,4.46,4.46,0,0,0-1.77,2,6.75,6.75,0,0,0-.61,3,7.62,7.62,0,0,0,.49,2.91,3.89,3.89,0,0,0,1.5,2,4.58,4.58,0,0,0,2.69.73,8.07,8.07,0,0,0,1.39,0l1-.2v-3.9h-3.06Z"/><path class="cls-1" d="M159.25,161.74a6.34,6.34,0,0,1-1.6,4.57,5.42,5.42,0,0,1-4.1,1.6,5.67,5.67,0,0,1-2.84-.73,4.92,4.92,0,0,1-2-2.09,7.45,7.45,0,0,1-.7-3.35,6.29,6.29,0,0,1,1.5-4.51,5.29,5.29,0,0,1,4.08-1.6,5.52,5.52,0,0,1,2.86.73,4.79,4.79,0,0,1,2,2.06A7,7,0,0,1,159.25,161.74Zm-8.32,0a5.38,5.38,0,0,0,.65,2.92,2.7,2.7,0,0,0,3.79.43,2.19,2.19,0,0,0,.43-.43,5.13,5.13,0,0,0,.68-2.92,4.94,4.94,0,0,0-.68-2.86,2.73,2.73,0,0,0-3.82-.43,3.42,3.42,0,0,0-.42.43A5.18,5.18,0,0,0,150.93,161.74Z"/><path class="cls-1" d="M164.76,167.69l-4.44-11.84h2.86l2.43,6.84c.14.44.29.9.41,1.41a8,8,0,0,1,.22,1.28h0a9.82,9.82,0,0,1,.27-1.31,4.4,4.4,0,0,1,.41-1.38l2.43-6.84h2.86l-4.44,11.84Z"/><path class="cls-1" d="M178.53,155.6a4.84,4.84,0,0,1,3.72,1.43,5.57,5.57,0,0,1,1.36,4v1.38h-7.72a3.49,3.49,0,0,0,.9,2.43,3,3,0,0,0,2.42.89,7.45,7.45,0,0,0,2-.24,10.87,10.87,0,0,0,1.84-.65V167a7.42,7.42,0,0,1-1.77.61,11.07,11.07,0,0,1-2.23.19,6.63,6.63,0,0,1-3-.65,5,5,0,0,1-2.06-2,7,7,0,0,1-.75-3.38,6.64,6.64,0,0,1,1.41-4.56A5.14,5.14,0,0,1,178.53,155.6Zm0,2a2.39,2.39,0,0,0-1.79.7,3.47,3.47,0,0,0-.78,2.11h5a3.48,3.48,0,0,0-.6-2,2.17,2.17,0,0,0-1.85-.68Z"/><path class="cls-1" d="M192.47,155.6h1.19l-.24,2.42h-1a3.85,3.85,0,0,0-1.63.37,2.9,2.9,0,0,0-1.21,1.09,3.3,3.3,0,0,0-.46,1.89v6.14H186.4V155.85h2.08l.39,2.06H189a4.61,4.61,0,0,1,1.41-1.6A3.43,3.43,0,0,1,192.47,155.6Z"/><path class="cls-1" d="M202.08,155.6a3.81,3.81,0,0,1,4.13,3.46,3.24,3.24,0,0,1,0,.88v7.72h-2.68v-7.28a3.28,3.28,0,0,0-.51-2,1.91,1.91,0,0,0-1.7-.63,2.41,2.41,0,0,0-2.23,1,6,6,0,0,0-.61,3v5.85h-2.67V155.85h2.09l.39,1.55h.14a3.56,3.56,0,0,1,1.56-1.34A5,5,0,0,1,202.08,155.6Z"/><path class="cls-1" d="M223.17,155.6a3.92,3.92,0,0,1,3,1,4.49,4.49,0,0,1,1,3.3v7.72h-2.81v-7.28c0-1.77-.68-2.65-2-2.65a2.27,2.27,0,0,0-2,1,5.13,5.13,0,0,0-.61,2.72v6.19H217v-7.28c0-1.77-.65-2.64-2-2.64a2.16,2.16,0,0,0-2.06,1,6.58,6.58,0,0,0-.56,3v5.78H209.7V155.85h2.11l.38,1.55h.15a3.38,3.38,0,0,1,1.46-1.34,4.65,4.65,0,0,1,1.94-.43,4.93,4.93,0,0,1,2.21.43,3,3,0,0,1,1.38,1.41h.2a3.42,3.42,0,0,1,1.53-1.41A5.1,5.1,0,0,1,223.17,155.6Z"/><path class="cls-1" d="M235.14,155.6a4.86,4.86,0,0,1,3.73,1.43,5.5,5.5,0,0,1,1.29,4v1.38h-7.63a3.59,3.59,0,0,0,.87,2.43,3.09,3.09,0,0,0,2.43.89,7.45,7.45,0,0,0,2-.24,10.67,10.67,0,0,0,1.85-.65V167a7.42,7.42,0,0,1-1.77.61,11.86,11.86,0,0,1-2.23.2,6.77,6.77,0,0,1-3-.66,4.9,4.9,0,0,1-2.06-2,7,7,0,0,1-.75-3.38,6.65,6.65,0,0,1,1.48-4.63A5.07,5.07,0,0,1,235.14,155.6Zm0,2a2.4,2.4,0,0,0-1.77.7,3.47,3.47,0,0,0-.78,2.11h5.14a3.33,3.33,0,0,0-.63-2,2.09,2.09,0,0,0-2-.68Z"/><path class="cls-1" d="M249.24,155.6a3.8,3.8,0,0,1,4.19,3.37h0a4.18,4.18,0,0,1,0,1v7.72h-2.72v-7.28a3.15,3.15,0,0,0-.51-2,1.92,1.92,0,0,0-1.65-.68,2.43,2.43,0,0,0-2.23,1,6,6,0,0,0-.61,3v5.86H243V155.85h2l.39,1.55h.14a3.48,3.48,0,0,1,1.55-1.34A5.06,5.06,0,0,1,249.24,155.6Z"/><path class="cls-1" d="M261.35,165.7a4.18,4.18,0,0,0,1,0,6.57,6.57,0,0,0,.9-.22v2a4.88,4.88,0,0,1-1.12.36,8.9,8.9,0,0,1-1.46,0,4.92,4.92,0,0,1-1.82-.32,2.58,2.58,0,0,1-1.28-1.16,4.85,4.85,0,0,1-.46-2.43v-6h-1.58v-1.21l1.72-1,.87-2.42h1.7v2.5h3.33v2.08h-3.33V164a1.65,1.65,0,0,0,.44,1.24A1.61,1.61,0,0,0,261.35,165.7Z"/><path class="cls-1" d="M273.53,164.27a3.24,3.24,0,0,1-1.26,2.72,6.23,6.23,0,0,1-3.62.92,11.48,11.48,0,0,1-2.11-.17,6.57,6.57,0,0,1-1.67-.56v-2.43a10,10,0,0,0,1.89.71,7.92,7.92,0,0,0,2,.29,2.64,2.64,0,0,0,1.6-.37,1,1,0,0,0,.51-.92,1.19,1.19,0,0,0-.19-.63,2.5,2.5,0,0,0-.76-.61,14.94,14.94,0,0,0-1.72-.8,11.71,11.71,0,0,1-1.84-.92,3.4,3.4,0,0,1-1.14-1.09,3.18,3.18,0,0,1-.37-1.63,2.73,2.73,0,0,1,1.24-2.42,6.06,6.06,0,0,1,3.3-.83,9,9,0,0,1,2,.22,10.05,10.05,0,0,1,1.94.65l-.87,2a11.44,11.44,0,0,0-1.61-.58,5.05,5.05,0,0,0-1.6-.07c-1.21,0-1.79.34-1.79,1a1,1,0,0,0,.21.63,3,3,0,0,0,.81.56c.53.26,1.07.49,1.62.7a14.91,14.91,0,0,1,1.8.87,2.94,2.94,0,0,1,1.58,2.77Z"/><path class="cls-1" d="M78.87,184.14H76v9.71H73.32v-9.71H71.45v-1.31l1.87-.8v-.8a3.94,3.94,0,0,1,1.06-3.15,4.5,4.5,0,0,1,2.94-.88,9.77,9.77,0,0,1,1.53,0,7.72,7.72,0,0,1,1.16.34l-.7,2-.8.05a4.18,4.18,0,0,0-1,0,1.25,1.25,0,0,0-1.14.48,2.49,2.49,0,0,0-.37,1.41V182h2.84Z"/><path class="cls-1" d="M91.23,188a6.46,6.46,0,0,1-1.53,4.57,5.34,5.34,0,0,1-4.1,1.6,5.67,5.67,0,0,1-2.84-.73,4.92,4.92,0,0,1-2-2.09,7.45,7.45,0,0,1-.7-3.35,6.29,6.29,0,0,1,1.5-4.51,5.29,5.29,0,0,1,4.08-1.6,5.51,5.51,0,0,1,2.89.76,4.85,4.85,0,0,1,2,2.06A6.92,6.92,0,0,1,91.23,188Zm-8.33,0a5.39,5.39,0,0,0,.66,2.92,2.69,2.69,0,0,0,3.78.43h0a2.55,2.55,0,0,0,.44-.43,5.23,5.23,0,0,0,.68-2.92,4.94,4.94,0,0,0-.68-2.86,2.73,2.73,0,0,0-3.82-.43,2.91,2.91,0,0,0-.43.43A5.58,5.58,0,0,0,82.9,188Z"/><path class="cls-1" d="M100.16,181.84h1.19l-.25,2.64h-1a3.7,3.7,0,0,0-1.63.37,2.77,2.77,0,0,0-1.21,1.09,3.47,3.47,0,0,0-.46,1.89V194H94.08V182.06h2.09l.39,2.06h0a4.87,4.87,0,0,1,1.43-1.6A3.38,3.38,0,0,1,100.16,181.84Z"/><path class="cls-1" d="M118.31,189.65a4,4,0,0,1-1.48,3.28,6.42,6.42,0,0,1-4.13,1.19,9.6,9.6,0,0,1-4.29-.88V190.6a18.22,18.22,0,0,0,2.13.8,8,8,0,0,0,2.43.37,3.1,3.1,0,0,0,2-.56,1.77,1.77,0,0,0,.63-1.43,1.86,1.86,0,0,0-.8-1.56,15.38,15.38,0,0,0-2.43-1.23,12,12,0,0,1-1.82-1,4.7,4.7,0,0,1-1.48-1.56,4,4,0,0,1-.53-2.21,3.88,3.88,0,0,1,1.38-3.13,5.68,5.68,0,0,1,3.71-1.11,10,10,0,0,1,2.31.24,13.58,13.58,0,0,1,2.14.75l-.88,2.26a11.85,11.85,0,0,0-1.84-.66,6.85,6.85,0,0,0-1.8-.24,2.58,2.58,0,0,0-1.7.49,1.9,1.9,0,0,0-.26,2.42,3.47,3.47,0,0,0,1,.83c.46.24,1,.53,1.77.85a13.83,13.83,0,0,1,2.11,1.14,4.36,4.36,0,0,1,1.34,1.43A4.07,4.07,0,0,1,118.31,189.65Z"/><path class="cls-1" d="M131.34,182.06V193.9h-2.13l-.37-1.53h-.12a3.25,3.25,0,0,1-1.55,1.33,5.44,5.44,0,0,1-2.11.42,3.78,3.78,0,0,1-4.2-3.28,4.18,4.18,0,0,1,0-1V182.1h2.79v7.28a3.28,3.28,0,0,0,.51,2,2,2,0,0,0,1.65.65,2.41,2.41,0,0,0,2.26-1,5.91,5.91,0,0,0,.44-3.08v-5.8Z"/><path class="cls-1" d="M142.77,190.48a3.24,3.24,0,0,1-1.24,2.72,6.23,6.23,0,0,1-3.62.92,11.16,11.16,0,0,1-2.08-.17,6.64,6.64,0,0,1-1.68-.56V191a10.13,10.13,0,0,0,1.9.71,7.5,7.5,0,0,0,2,.29,2.81,2.81,0,0,0,1.63-.37,1,1,0,0,0,.51-.92,1.1,1.1,0,0,0-.2-.63,2.42,2.42,0,0,0-.77-.61,15.47,15.47,0,0,0-1.7-.8,13,13,0,0,1-1.87-.92,3.64,3.64,0,0,1-1.12-1.09,3.27,3.27,0,0,1-.36-1.63,2.71,2.71,0,0,1,1.24-2.42,6.06,6.06,0,0,1,3.3-.83,9,9,0,0,1,2,.32,10.05,10.05,0,0,1,1.94.65l-.87,2a10.2,10.2,0,0,0-1.6-.58,5,5,0,0,0-1.58-.25c-1.21,0-1.8.34-1.8,1a1.05,1.05,0,0,0,.22.64,2.6,2.6,0,0,0,.8.55,16.74,16.74,0,0,0,1.63.71,14.09,14.09,0,0,1,1.79.87A2.91,2.91,0,0,1,142.77,190.48Z"/><path class="cls-1" d="M149.91,191.91a5.57,5.57,0,0,0,1,0c.3-.06.6-.13.9-.22v2a4.31,4.31,0,0,1-1.12.36,8.9,8.9,0,0,1-1.46,0,4.72,4.72,0,0,1-1.82-.31,2.56,2.56,0,0,1-1.28-1.17,4.81,4.81,0,0,1-.46-2.42v-6h-1.58v-1.21l1.72-1,.87-2.42h1.7V182h3.33v2.08h-3.33v6.14a1.65,1.65,0,0,0,.44,1.24A1.6,1.6,0,0,0,149.91,191.91Z"/><path class="cls-1" d="M158.79,181.84a5,5,0,0,1,3.42,1,3.73,3.73,0,0,1,1.19,3.1v7.94h-1.87l-.53-1.63h0a5.53,5.53,0,0,1-1.6,1.41,4.82,4.82,0,0,1-2.28.44,3.74,3.74,0,0,1-2.6-.9,3.36,3.36,0,0,1-1-2.77,3.1,3.1,0,0,1,1.33-2.74,7.29,7.29,0,0,1,4-1h2v-.61A2,2,0,0,0,159,184a2.07,2.07,0,0,0-.43,0,5.3,5.3,0,0,0-1.68.24,11.55,11.55,0,0,0-1.6.63l-.87-1.92a10.34,10.34,0,0,1,4.39-1.11Zm1.92,6.48h-1.44a4.2,4.2,0,0,0-2.42.6,1.8,1.8,0,0,0-.68,1.51,1.39,1.39,0,0,0,.48,1.21,2.06,2.06,0,0,0,1.27.37,3,3,0,0,0,2-.71,2.41,2.41,0,0,0,.82-2Z"/><path class="cls-1" d="M168.16,177.49a1.89,1.89,0,0,1,1.06.32,1.67,1.67,0,0,1,0,2.26,1.85,1.85,0,0,1-2.13,0,1.66,1.66,0,0,1,0-2.26A1.94,1.94,0,0,1,168.16,177.49Zm1.36,4.57V193.9H166.8V182.06Z"/><path class="cls-1" d="M179.25,181.84a3.8,3.8,0,0,1,4.19,3.37h0a4.18,4.18,0,0,1,0,1v7.72h-2.72v-7.16a3.15,3.15,0,0,0-.51-2,1.92,1.92,0,0,0-1.65-.68,2.43,2.43,0,0,0-2.23,1,6,6,0,0,0-.61,3v5.78H173V182.06h2.08l.39,1.55h.17a3.32,3.32,0,0,1,1.53-1.34A5.26,5.26,0,0,1,179.25,181.84Z"/><path class="cls-1" d="M191.53,181.84a5.06,5.06,0,0,1,3.44,1,3.81,3.81,0,0,1,1.19,3.1v7.94h-1.91l-.56-1.63h0a5.53,5.53,0,0,1-1.6,1.41,4.82,4.82,0,0,1-2.28.44,3.93,3.93,0,0,1-2.63-.9,3.47,3.47,0,0,1-1-2.77,3.14,3.14,0,0,1,1.32-2.74,7.47,7.47,0,0,1,4-1h2v-.61a1.84,1.84,0,0,0-1.56-2.08h0a2,2,0,0,0-.49,0,5.78,5.78,0,0,0-1.7.25,15.62,15.62,0,0,0-1.6.63l-.85-1.92a8.1,8.1,0,0,1,1.92-.87A8.64,8.64,0,0,1,191.53,181.84Zm1.94,6.48H192a4.23,4.23,0,0,0-2.43.6,1.83,1.83,0,0,0-.7,1.51,1.45,1.45,0,0,0,.48,1.21,2.12,2.12,0,0,0,1.29.37,3,3,0,0,0,2-.71,2.53,2.53,0,0,0,.83-2Z"/><path class="cls-1" d="M202.23,177.2v6.31h.12a4.55,4.55,0,0,1,1.29-1.26,4.43,4.43,0,0,1,5.43,1,7.28,7.28,0,0,1,1.26,4.57,7.07,7.07,0,0,1-1.28,4.61A4.11,4.11,0,0,1,205.7,194a3.73,3.73,0,0,1-2.09-.48,4.09,4.09,0,0,1-1.26-1.12h-.19l-.51,1.38h-2V177.2Zm2.64,6.77a2.29,2.29,0,0,0-2,.9,5,5,0,0,0-.61,2.74v.25a6.21,6.21,0,0,0,.56,2.91,2.23,2.23,0,0,0,2.13,1,2,2,0,0,0,1.85-1,5.47,5.47,0,0,0,.65-2.94,5.2,5.2,0,0,0-.65-2.89,2.14,2.14,0,0,0-1.9-.87Z"/><path class="cls-1" d="M214.36,177.49a1.94,1.94,0,0,1,1.07.32,1.66,1.66,0,0,1,0,2.26,1.86,1.86,0,0,1-1.07.34,1.83,1.83,0,0,1-1.06-.34,1.67,1.67,0,0,1,0-2.26A1.89,1.89,0,0,1,214.36,177.49Zm1.36,4.57V193.9H213V182.06Z"/><path class="cls-1" d="M221.91,193.9h-2.72V177.2h2.72Z"/><path class="cls-1" d="M226.74,177.49a1.94,1.94,0,0,1,1.07.32,1.71,1.71,0,0,1,0,2.26,1.86,1.86,0,0,1-2.14,0,1.71,1.71,0,0,1,0-2.26A1.94,1.94,0,0,1,226.74,177.49Zm1.29,4.57V193.9h-2.65V182.06Z"/><path class="cls-1" d="M236.11,191.91a5.57,5.57,0,0,0,1,0c.3-.06.6-.13.9-.22v2a4.31,4.31,0,0,1-1.12.36,8.9,8.9,0,0,1-1.46,0,4.72,4.72,0,0,1-1.82-.31,2.56,2.56,0,0,1-1.28-1.17,4.81,4.81,0,0,1-.46-2.42v-6h-1.58v-1.21l1.72-1,.85-2.42h1.67V182h3.3v2.08h-3.3v6.14a1.65,1.65,0,0,0,.44,1.24A1.61,1.61,0,0,0,236.11,191.91Z"/><path class="cls-1" d="M238.58,182.06h2.95l2.43,6.69a8.06,8.06,0,0,1,.38,1.27,9.9,9.9,0,0,1,.22,1.21h0a6.19,6.19,0,0,1,.25-1.21,11.55,11.55,0,0,1,.38-1.27l2.26-6.69h2.94l-5,13.42a6.12,6.12,0,0,1-1.82,2.71,4.26,4.26,0,0,1-2.84,1h-1.6V197h1.26a2.2,2.2,0,0,0,1.6-.59,3.88,3.88,0,0,0,.92-1.5l.34-1Z"/><path class="cls-2" d="M95,215.52V225.6a6.38,6.38,0,0,1-.68,2.94,4.85,4.85,0,0,1-2.06,2,7.32,7.32,0,0,1-3.5.75,6.05,6.05,0,0,1-4.53-1.58,5.67,5.67,0,0,1-1.56-4.17v-10h2.75v9.71a3.91,3.91,0,0,0,.85,2.94,3.52,3.52,0,0,0,2.59.87,3.26,3.26,0,0,0,2.6-.95,4.14,4.14,0,0,0,.8-2.74V215.6Z"/><path class="cls-2" d="M107.85,226.86a4,4,0,0,1-1.48,3.27,6.42,6.42,0,0,1-4.13,1.19,9.46,9.46,0,0,1-4.29-.87v-2.62a18.22,18.22,0,0,0,2.13.8,8,8,0,0,0,2.43.36,3,3,0,0,0,2-.56,1.92,1.92,0,0,0-.29-3,14,14,0,0,0-2.43-1.26,12,12,0,0,1-1.82-1,5,5,0,0,1-1.43-1.46,4.14,4.14,0,0,1-.53-2.23,3.82,3.82,0,0,1,1.35-3.11,5.58,5.58,0,0,1,3.72-1.14,10.68,10.68,0,0,1,2.45.37,13.58,13.58,0,0,1,2.14.75l-1,2.16a11.85,11.85,0,0,0-1.84-.66,6.85,6.85,0,0,0-1.8-.24,2.4,2.4,0,0,0-1.69.51,1.62,1.62,0,0,0-.59,1.31,1.83,1.83,0,0,0,.32,1.09,3.47,3.47,0,0,0,1,.83c.47.24,1.05.53,1.78.85a13.83,13.83,0,0,1,2.11,1.14,4.33,4.33,0,0,1,1.33,1.43A3.84,3.84,0,0,1,107.85,226.86Z"/><path class="cls-2" d="M120.28,231.1,118.82,227h-5.75l-1.39,4.12h-2.91l5.63-15.65h3.13l5.65,15.65Zm-2.12-6.5-1.33-4a4,4,0,0,0-.27-.83c-.12-.36-.22-.72-.31-1.09s-.2-.68-.27-.92a4.35,4.35,0,0,1-.27,1l-.29,1.07q-.11.38-.24.75l-1.36,4Z"/><path class="cls-3" d="M71.13,27.6V0a68.8,68.8,0,0,0-4.66,137.52c.69,0,1.37,0,2.06,0h2.58V110.1a68.78,68.78,0,0,1,0-82.51Z"/><path class="cls-4" d="M208.61,0A68.73,68.73,0,0,0,153.67,27.6v82.52A68.8,68.8,0,1,0,208.61.12Z"/><path class="cls-5" d="M153.67,27.6V5.72A68.76,68.76,0,0,0,71.16,27.6v82.52A68.83,68.83,0,0,0,153.67,132V110.08C135,85.48,134.44,51.81,153.67,27.6Z"/><path class="cls-6" d="M139.91,68.84a68.31,68.31,0,0,0,13.76,41.26V27.6A68.41,68.41,0,0,0,139.91,68.84Z"/><path class="cls-6" d="M57.37,68.84A68.46,68.46,0,0,0,71.13,110.1V27.6A68.41,68.41,0,0,0,57.37,68.84Z"/><rect class="cls-1" x="39.9" y="35.94" width="17.11" height="65.79"/><path class="cls-1" d="M117.39,57.92a18.62,18.62,0,0,0-21.86-5.84A17.46,17.46,0,0,0,90,55.86a17.92,17.92,0,0,0-3.71,5.7,20.08,20.08,0,0,0,0,14.4A17.65,17.65,0,0,0,90,81.73,17.44,17.44,0,0,0,102.64,87a19.76,19.76,0,0,0,14.73-6.82v20.24l-1.75.61a52.49,52.49,0,0,1-7.28,2.06,35.19,35.19,0,0,1-6.72.65,33.55,33.55,0,0,1-13-2.59,34.21,34.21,0,0,1-11-7.28,35.82,35.82,0,0,1-7.7-11.22,34,34,0,0,1,7.61-38.75A35,35,0,0,1,88.61,36.6a34.32,34.32,0,0,1,13.08-2.55,35.69,35.69,0,0,1,7.71.82,47.54,47.54,0,0,1,8,2.58Z"/><polygon class="cls-1" points="143.57 35.94 143.57 87.24 164.06 87.24 164.06 101.73 126.46 101.73 126.46 35.94 143.57 35.94"/><polygon class="cls-1" points="208.56 50.43 188.23 50.43 188.23 61.42 207.42 61.42 207.42 75.91 188.23 75.91 188.23 87.24 208.56 87.24 208.56 101.73 171.14 101.73 171.14 35.94 208.56 35.94 208.56 50.43"/><rect class="cls-1" x="219.12" y="35.94" width="17.11" height="65.79"/></g></g></g></g></svg>